<svg width="20" height="20" viewBox="0 0 20 20" fill="none" xmlns="http://www.w3.org/2000/svg">
<path d="M10.0016 0C15.5253 0 20.0031 4.47785 20.0031 10.0016C20.0031 15.5253 15.5253 20.0031 10.0016 20.0031C4.47785 20.0031 0 15.5253 0 10.0016C0 4.47785 4.47785 0 10.0016 0ZM9.99774 8.25058C9.48491 8.25092 9.06249 8.63723 9.00505 9.13461L8.9984 9.25124L9.002 14.7528L9.0088 14.8694C9.06689 15.3667 9.48982 15.7525 10.0027 15.7522C10.5155 15.7518 10.9379 15.3655 10.9953 14.8681L11.002 14.7515L10.9984 9.24993L10.9916 9.13331C10.9335 8.63601 10.5106 8.25025 9.99774 8.25058ZM10.002 4.50103C9.3108 4.50103 8.75048 5.06136 8.75048 5.75255C8.75048 6.44375 9.3108 7.00407 10.002 7.00407C10.6932 7.00407 11.2535 6.44375 11.2535 5.75255C11.2535 5.06136 10.6932 4.50103 10.002 4.50103Z" fill="#1735F5"/>
</svg>
