<svg width="491" height="376" viewBox="0 0 491 376" fill="none" xmlns="http://www.w3.org/2000/svg">
<path d="M391.046 126.328C391.046 126.328 391.336 126.683 391.777 127.381C392.271 128.187 392.872 129.186 393.592 130.357C395.107 132.882 396.331 137.212 399.392 140.274C401.626 144.163 403.624 147.698 405.042 150.276C405.697 151.479 406.245 152.511 406.696 153.338C407.072 154.069 407.265 154.477 407.233 154.498C407.201 154.52 406.943 154.144 406.503 153.446C406.009 152.64 405.407 151.641 404.687 150.47C403.173 147.945 401.121 144.442 398.887 140.553C396.653 136.664 394.655 133.129 393.238 130.561C392.582 129.358 392.035 128.326 391.583 127.499C391.208 126.769 391.014 126.36 391.046 126.339V126.328Z" fill="#EBEBEB"/>
<path d="M365.191 161.055C365.191 161.055 365.557 161.517 366.115 162.408C366.727 163.397 367.511 164.675 368.457 166.212C370.412 169.435 373.075 173.904 375.986 178.857C378.897 183.81 381.507 188.312 383.376 191.589C384.257 193.157 384.987 194.468 385.556 195.478C386.061 196.402 386.319 196.928 386.287 196.95C386.254 196.971 385.921 196.488 385.363 195.596C384.751 194.608 383.967 193.329 383.021 191.793C381.067 188.57 378.403 184.1 375.492 179.147C372.581 174.194 369.971 169.693 368.113 166.416C367.232 164.847 366.502 163.537 365.933 162.527C365.428 161.603 365.17 161.076 365.202 161.055H365.191Z" fill="#EBEBEB"/>
<path d="M117.085 186.19C117.085 186.19 117.246 185.964 117.483 185.492C117.751 184.933 118.073 184.245 118.46 183.418C119.309 181.613 120.458 178.97 121.843 175.683C124.615 169.107 128.148 159.911 131.918 149.704C135.689 139.497 139.136 130.268 141.757 123.65C143.046 120.427 144.099 117.784 144.894 115.818C145.226 114.958 145.506 114.26 145.731 113.68C145.914 113.186 146 112.928 145.978 112.906C145.957 112.906 145.817 113.132 145.581 113.605C145.312 114.163 144.99 114.851 144.604 115.678C143.755 117.483 142.606 120.126 141.22 123.414C138.449 129.989 134.915 139.186 131.145 149.392C127.375 159.599 123.927 168.817 121.306 175.446C120.018 178.659 118.965 181.312 118.17 183.278C117.837 184.138 117.558 184.836 117.332 185.416C117.15 185.911 117.064 186.169 117.085 186.179V186.19Z" fill="#E0E0E0"/>
<path d="M437.19 343.004C435.536 345.357 432.335 344.584 430.853 343.144C429.371 341.704 428.737 339.62 428.168 337.633C426.857 333.088 425.547 328.328 426.514 323.708C426.804 322.323 427.319 320.947 428.297 319.927C429.263 318.906 430.756 318.294 432.131 318.648C433.742 319.078 434.752 320.657 435.482 322.161C437.62 326.588 438.748 331.498 438.758 336.408C438.758 338.707 438.501 341.114 437.201 343.004" fill="#E8505B"/>
<path d="M431.013 354.928C428.317 353.531 425.138 353.359 422.152 353.853C420.54 354.122 418.865 354.605 417.769 355.809C416.674 357.012 416.47 359.139 417.726 360.181C418.478 360.804 419.52 360.89 420.487 360.88C422.828 360.847 425.428 360.439 427.307 361.847C428.371 362.652 429.09 363.985 430.368 364.382C431.614 364.769 433.032 364.028 433.687 362.9C434.353 361.771 434.375 360.364 434.063 359.085C434.063 359.085 433.741 356.314 431.024 354.917L431.013 354.928Z" fill="#E8505B"/>
<path d="M441.723 346.392C439.929 344.264 439.596 341.17 440.391 338.506C441.186 335.841 442.99 333.574 445.063 331.726C447.491 329.556 450.359 327.869 453.43 326.795C454.644 326.365 455.912 326.032 457.19 326.161C458.468 326.279 459.746 326.934 460.348 328.073C461.228 329.749 460.38 331.791 459.467 333.456C457.856 336.378 456.019 339.182 453.978 341.825C452.335 343.953 450.444 346.048 447.942 347.004C445.428 347.96 442.829 347.853 441.497 346.112" fill="#E8505B"/>
<path d="M437.306 378.536C437.306 378.536 437.22 378.16 437.156 377.462C437.081 376.677 436.984 375.7 436.877 374.539C436.737 373.315 436.565 371.843 436.221 370.253C435.878 368.663 435.351 366.944 434.664 365.192C433.955 363.452 433.096 361.883 432.086 360.615C431.087 359.348 429.916 358.434 428.821 357.897C427.725 357.36 426.748 357.134 426.071 357.038C425.384 356.963 425.008 356.909 425.008 356.887C425.008 356.855 425.394 356.855 426.093 356.866C426.791 356.909 427.811 357.091 428.96 357.607C430.12 358.123 431.356 359.047 432.408 360.347C433.472 361.636 434.363 363.248 435.083 365.01C435.781 366.782 436.307 368.523 436.63 370.145C436.952 371.768 437.102 373.25 437.199 374.486C437.295 375.721 437.328 376.731 437.338 377.43C437.349 378.128 437.338 378.504 437.317 378.515L437.306 378.536Z" fill="#263238"/>
<path d="M437.102 376.289C437.102 376.289 437.08 376.117 437.069 375.794C437.069 375.418 437.069 374.956 437.069 374.376C437.069 373.141 437.069 371.357 437.005 369.155C436.897 364.75 436.522 358.669 435.78 351.986C435.039 345.303 434.062 339.287 433.17 334.968C432.956 333.883 432.751 332.916 432.547 332.056C432.354 331.197 432.193 330.466 432.043 329.865C431.903 329.306 431.796 328.844 431.71 328.479C431.634 328.156 431.613 327.995 431.624 327.984C431.634 327.984 431.699 328.146 431.796 328.446C431.903 328.801 432.043 329.252 432.204 329.811C432.386 330.402 432.569 331.132 432.784 331.981C433.009 332.83 433.246 333.797 433.471 334.882C434.438 339.19 435.469 345.217 436.21 351.911C436.94 358.604 437.273 364.707 437.306 369.123C437.327 371.336 437.284 373.119 437.23 374.355C437.198 374.935 437.166 375.397 437.145 375.773C437.123 376.095 437.102 376.267 437.08 376.267L437.102 376.289Z" fill="#263238"/>
<path d="M437.072 364.528C437.072 364.528 437.051 364.002 437.072 363.045C437.126 362.089 437.255 360.714 437.523 359.027C437.803 357.34 438.211 355.342 438.834 353.172C439.425 350.991 440.241 348.638 441.283 346.242C443.313 341.418 446.073 337.486 448.468 335.047C449.027 334.402 449.661 333.93 450.155 333.478C450.413 333.263 450.649 333.038 450.874 332.866C451.111 332.705 451.325 332.554 451.53 332.415C452.324 331.877 452.765 331.587 452.776 331.62C452.851 331.716 451.003 332.801 448.683 335.273C446.374 337.744 443.689 341.654 441.669 346.435C440.638 348.81 439.822 351.141 439.21 353.301C438.565 355.449 438.146 357.437 437.824 359.102C437.513 360.778 437.341 362.143 437.233 363.078C437.147 364.023 437.083 364.55 437.051 364.55L437.072 364.528Z" fill="#263238"/>
<path d="M479.205 196.983L457.53 202.323C457.53 202.323 456.617 198.058 456.327 196.715C455.306 191.934 456.37 189.344 456.821 188.399C457.057 187.916 457.1 186.959 457.1 186.959C456.961 185.262 453.029 177.301 451.59 174.389C449.871 170.887 451.622 168.566 452.696 169.93C454.673 172.434 460.666 183.586 462.095 184.456C463.523 185.326 461.74 179.331 461.74 179.331C457.53 166.632 456.359 164.881 458.593 163.978C461.149 162.947 467.487 181.845 467.487 181.845C467.487 181.845 466.617 179.202 468.593 178.289C470.569 177.376 472.009 179.879 472.009 179.879C471.504 178.536 473.437 177.977 473.437 177.977C478.475 177.795 479.194 196.973 479.194 196.973L457.519 202.312L459.882 277.562L445.629 262.338L420.012 288.381L451.944 315.252C457.562 319.979 465.038 321.838 472.213 320.301C484.221 317.733 492.287 306.431 490.827 294.247L479.194 196.983H479.205Z" fill="#EB996E"/>
<path d="M462.018 200.199C461.91 200.113 462.888 198.877 464.112 196.675C464.724 195.579 465.38 194.225 465.96 192.678C466.25 191.905 466.529 191.077 466.765 190.207C466.98 189.348 467.313 188.402 467.098 187.672C466.969 187.242 466.658 186.909 466.303 186.877C465.938 186.823 465.487 187.038 465.09 187.306C464.263 187.876 463.521 188.531 462.898 189.197C461.653 190.54 460.858 191.958 460.364 193.087L460.181 193.506L459.923 193.151C458.849 191.679 457.7 191.357 457.764 191.249C457.743 191.185 459.021 191.314 460.331 192.85L459.891 192.915C460.31 191.701 461.073 190.175 462.351 188.703C462.995 187.972 463.747 187.263 464.638 186.629C465.1 186.329 465.659 185.974 466.411 186.049C467.173 186.135 467.721 186.78 467.904 187.424C468.204 188.606 467.764 189.552 467.56 190.433C467.302 191.325 467.002 192.173 466.69 192.958C466.056 194.537 465.326 195.891 464.638 196.976C463.264 199.146 462.114 200.263 462.039 200.199H462.018Z" fill="#D1734A"/>
<path d="M467.982 183.071C468.1 183.071 468.358 184.607 468.68 187.11C468.842 188.453 469.013 189.925 469.207 191.504C469.314 192.31 469.346 193.256 469.583 194.019C469.765 194.771 470.56 195.319 471.065 194.91C471.602 194.481 471.72 193.492 471.806 192.622C471.903 191.73 471.946 190.86 471.978 190.033C472.042 188.378 472.042 186.874 472.053 185.617C472.075 183.092 472.182 181.523 472.3 181.523C472.418 181.523 472.504 183.081 472.644 185.606C472.708 186.863 472.762 188.378 472.751 190.054C472.74 190.892 472.708 191.784 472.622 192.697C472.493 193.567 472.558 194.695 471.57 195.576C471.043 195.995 470.238 195.931 469.765 195.598C469.26 195.286 468.96 194.749 468.809 194.266C468.53 193.277 468.552 192.45 468.455 191.601C468.326 190.011 468.208 188.528 468.1 187.164C467.929 184.639 467.875 183.081 467.993 183.071H467.982Z" fill="#D1734A"/>
<path d="M472.644 187.969C472.783 187.991 472.611 188.926 472.955 190.322C473.138 190.967 473.438 191.923 474.029 192.417C474.341 192.632 474.523 192.611 474.738 192.256C474.921 191.891 475.06 191.3 475.211 190.774C476.381 186.412 475.973 182.683 476.22 182.673C476.424 182.608 477.241 186.433 476.016 190.988C475.844 191.558 475.758 192.063 475.447 192.664C475.297 192.944 474.974 193.266 474.566 193.331C474.147 193.406 473.782 193.212 473.557 193.019C473.084 192.611 472.891 192.106 472.719 191.687C472.558 191.246 472.45 190.827 472.397 190.44C472.171 188.872 472.568 187.937 472.654 187.969H472.644Z" fill="#D1734A"/>
<path d="M312.367 336.238L304.204 286.59L288.178 312.171L281.691 308.443L248.899 289.599L241.863 285.559L266.052 248.998C296.492 202.004 328.79 207.709 328.79 207.709L372.505 205.678C372.505 205.678 403.622 204.647 422.977 228.692C438.734 248.267 455.79 268.927 455.79 268.927L422.88 302.384L407.069 282.486L401.248 332.391" fill="#455A64"/>
<path d="M473.708 200.671C473.504 200.821 472.151 198.866 469.637 197.588C467.156 196.255 464.782 196.255 464.782 195.997C464.718 195.793 467.307 195.396 470.024 196.846C472.763 198.264 473.912 200.607 473.708 200.671Z" fill="#D1734A"/>
<path d="M465.359 291.22C465.166 291.327 463.35 288.405 461.814 284.462C460.268 280.53 459.602 277.145 459.817 277.103C460.053 277.038 461.063 280.283 462.588 284.161C464.102 288.05 465.563 291.112 465.359 291.22Z" fill="#D1734A"/>
<path d="M310.551 277.892C310.744 278.021 305.749 285.778 299.412 295.211C293.064 304.655 287.769 312.197 287.576 312.068C287.382 311.94 292.366 304.182 298.714 294.749C305.051 285.316 310.357 277.763 310.54 277.892H310.551Z" fill="#263238"/>
<path d="M407.683 256.641C407.736 256.641 407.812 257.232 407.898 258.295C407.983 259.359 408.069 260.906 408.145 262.818C408.295 266.632 408.349 271.918 408.166 277.752C407.983 283.586 407.586 288.851 407.189 292.654C406.995 294.556 406.813 296.092 406.652 297.145C406.501 298.198 406.383 298.789 406.329 298.778C406.276 298.778 406.276 298.176 406.329 297.113C406.405 295.866 406.49 294.362 406.598 292.6C406.834 288.797 407.135 283.532 407.328 277.72C407.511 271.908 407.543 266.643 407.543 262.829C407.543 261.067 407.554 259.563 407.554 258.306C407.565 257.242 407.597 256.641 407.661 256.641H407.683Z" fill="#263238"/>
<path d="M314.473 336.363C314.473 336.363 344.955 348.546 364.064 347.515C383.172 346.494 401.249 332.398 401.249 332.398" fill="#455A64"/>
<path d="M298.727 378.719C298.727 378.719 309.36 343.447 312.368 336.238C312.368 336.238 374.472 340.407 404.954 331.414C408.155 338.204 414.449 365.988 420.024 378.719C420.024 378.719 380.766 379.332 298.727 378.719Z" fill="#263238"/>
<path d="M367.736 347.59C367.736 347.59 367.489 347.859 367.135 348.385C366.791 348.901 366.404 349.782 366.415 350.899C366.415 351.995 366.898 353.37 368.155 354.133C369.347 354.907 371.195 355.079 372.58 354.166C373.955 353.231 374.492 351.458 374.234 350.061C374.009 348.611 372.924 347.633 371.904 347.225C370.872 346.795 369.916 346.817 369.304 346.935C368.681 347.053 368.359 347.236 368.338 347.182C368.327 347.161 368.606 346.913 369.251 346.72C369.884 346.527 370.905 346.43 372.043 346.849C372.602 347.064 373.192 347.408 373.697 347.923C374.191 348.45 374.589 349.159 374.728 349.965C375.04 351.544 374.481 353.532 372.881 354.627C371.259 355.691 369.197 355.455 367.865 354.563C367.178 354.123 366.673 353.489 366.372 352.833C366.082 352.167 365.985 351.49 366.007 350.889C366.05 349.675 366.522 348.761 366.952 348.256C367.382 347.741 367.715 347.569 367.725 347.59H367.736Z" fill="#455A64"/>
<path d="M386.628 349.222C386.456 349.201 386.832 345.999 386.348 342.088C385.887 338.167 384.748 335.148 384.92 335.094C384.984 335.073 385.35 335.793 385.779 337.028C386.209 338.264 386.66 340.026 386.907 342.024C387.143 344.012 387.122 345.838 387.004 347.138C386.885 348.449 386.703 349.233 386.628 349.222Z" fill="#455A64"/>
<path d="M392.881 348.599C392.709 348.589 393.042 345.387 392.494 341.508C391.979 337.619 390.786 334.632 390.958 334.579C391.023 334.557 391.399 335.266 391.85 336.491C392.301 337.716 392.784 339.467 393.053 341.433C393.321 343.41 393.332 345.226 393.225 346.526C393.128 347.826 392.945 348.621 392.881 348.61V348.599Z" fill="#455A64"/>
<path d="M358.853 378.286C358.703 378.286 358.574 369.143 358.574 357.862C358.574 346.581 358.703 337.438 358.853 337.438C359.004 337.438 359.133 346.581 359.133 357.862C359.133 369.143 359.004 378.286 358.853 378.286Z" fill="#455A64"/>
<path d="M327.919 349.505C327.919 349.505 327.457 348.882 327.124 347.689C326.791 346.507 326.619 344.767 326.974 342.897C327.339 341.039 328.144 339.481 328.896 338.514C329.648 337.536 330.271 337.085 330.314 337.128C330.378 337.192 329.863 337.74 329.218 338.739C328.574 339.739 327.865 341.232 327.511 343.005C327.167 344.777 327.274 346.432 327.5 347.603C327.725 348.774 327.994 349.472 327.908 349.505H327.919Z" fill="#455A64"/>
<path d="M335.9 350.879C335.846 350.911 335.395 350.267 334.923 349.085C334.45 347.914 334.02 346.184 333.977 344.229C333.956 342.284 334.332 340.533 334.772 339.351C335.202 338.158 335.642 337.492 335.696 337.525C335.868 337.578 334.45 340.425 334.547 344.218C334.579 348.011 336.083 350.815 335.911 350.879H335.9Z" fill="#455A64"/>
<path d="M311.411 347.514C311.261 347.46 311.723 345.719 312.421 343.624C313.13 341.519 313.817 339.864 313.968 339.907C314.118 339.95 313.656 341.701 312.958 343.796C312.249 345.891 311.562 347.557 311.411 347.514Z" fill="#455A64"/>
<path d="M307.738 360.385C307.588 360.342 307.996 358.483 308.64 356.227C309.285 353.971 309.929 352.177 310.08 352.22C310.23 352.262 309.822 354.121 309.178 356.377C308.533 358.634 307.889 360.428 307.738 360.385Z" fill="#455A64"/>
<path d="M303.945 371.001C303.805 370.947 304.31 369.292 305.084 367.326C305.857 365.349 306.598 363.791 306.738 363.845C306.877 363.899 306.372 365.553 305.599 367.519C304.826 369.496 304.085 371.054 303.945 371.001Z" fill="#455A64"/>
<path d="M361.691 348.42C361.54 348.42 361.455 346.261 361.508 343.607C361.562 340.953 361.734 338.805 361.884 338.805C362.035 338.805 362.12 340.964 362.067 343.618C362.013 346.272 361.841 348.42 361.691 348.42Z" fill="#455A64"/>
<path d="M361.786 361.156C361.636 361.156 361.528 359.523 361.55 357.514C361.571 355.505 361.711 353.883 361.872 353.883C362.022 353.883 362.13 355.516 362.108 357.525C362.087 359.534 361.947 361.156 361.786 361.156Z" fill="#455A64"/>
<path d="M361.666 373.91C361.516 373.91 361.43 372.148 361.494 369.989C361.559 367.829 361.731 366.078 361.881 366.078C362.031 366.078 362.117 367.84 362.053 370C361.988 372.159 361.817 373.91 361.666 373.91Z" fill="#455A64"/>
<path d="M367.791 305.79C367.791 305.941 354.397 305.511 337.888 304.834C321.369 304.146 307.996 303.469 307.996 303.319C307.996 303.169 321.39 303.598 337.91 304.275C354.418 304.963 367.802 305.64 367.791 305.79Z" fill="#FAFAFA"/>
<path d="M403.484 311.322C403.484 311.472 388.372 312.579 369.715 313.782C351.047 314.986 335.913 315.834 335.902 315.684C335.902 315.534 351.015 314.427 369.683 313.224C388.34 312.02 403.484 311.172 403.495 311.322H403.484Z" fill="#FAFAFA"/>
<path d="M386.846 324.35C386.846 324.35 386.599 324.425 386.105 324.521C385.557 324.618 384.848 324.758 383.956 324.919C383.022 325.102 381.873 325.231 380.541 325.424C379.209 325.617 377.684 325.768 375.987 325.929C369.231 326.595 359.854 326.917 349.51 326.627C339.167 326.294 329.811 325.413 323.12 324.339C321.444 324.081 319.93 323.834 318.609 323.565C317.288 323.307 316.149 323.103 315.225 322.856C314.345 322.641 313.646 322.469 313.109 322.33C312.626 322.201 312.379 322.126 312.379 322.115C312.379 322.093 312.647 322.136 313.131 322.222C313.679 322.33 314.387 322.469 315.268 322.641C316.192 322.845 317.341 323.017 318.662 323.254C319.983 323.501 321.498 323.716 323.174 323.952C329.876 324.919 339.199 325.736 349.532 326.069C359.854 326.359 369.22 326.101 375.965 325.531C377.652 325.392 379.177 325.274 380.509 325.112C381.84 324.962 383.001 324.855 383.935 324.704C384.826 324.586 385.546 324.489 386.094 324.414C386.588 324.35 386.857 324.328 386.857 324.35H386.846Z" fill="#FAFAFA"/>
<path d="M402.314 330.485C402.314 330.635 397.233 330.979 390.961 331.237C384.677 331.506 379.586 331.592 379.586 331.43C379.586 331.269 384.666 330.936 390.939 330.678C397.212 330.421 402.314 330.324 402.314 330.485Z" fill="#FAFAFA"/>
<path d="M402.925 296.556C402.925 296.556 402.721 296.588 402.323 296.61C401.861 296.61 401.292 296.631 400.583 296.642C399.069 296.653 396.888 296.642 394.192 296.567C388.79 296.438 381.346 296.073 373.129 295.482C364.913 294.869 357.491 294.139 352.131 293.473C349.456 293.15 347.287 292.839 345.794 292.602C345.096 292.484 344.537 292.388 344.075 292.312C343.688 292.237 343.484 292.194 343.484 292.173C343.484 292.151 343.699 292.173 344.097 292.205C344.558 292.259 345.128 292.312 345.826 292.388C347.405 292.559 349.553 292.796 352.174 293.075C357.534 293.634 364.955 294.311 373.172 294.912C381.378 295.514 388.822 295.933 394.203 296.169C396.835 296.277 399.004 296.352 400.583 296.417C401.281 296.449 401.861 296.47 402.323 296.492C402.721 296.513 402.925 296.535 402.925 296.556Z" fill="#FAFAFA"/>
<path d="M406.116 284.869C406.116 284.869 405.826 284.869 405.288 284.837C404.698 284.783 403.924 284.719 402.947 284.644C400.906 284.504 397.963 284.311 394.311 284.128C387.018 283.773 376.922 283.44 365.773 283.172C354.624 282.914 344.527 282.774 337.223 282.71C333.614 282.688 330.671 282.678 328.566 282.667C327.589 282.667 326.805 282.667 326.214 282.667C325.677 282.667 325.397 282.645 325.387 282.624C325.387 282.602 325.666 282.581 326.203 282.549C326.794 282.527 327.578 282.484 328.555 282.452C330.596 282.398 333.561 282.345 337.212 282.323C344.527 282.28 354.624 282.366 365.783 282.624C376.932 282.892 387.029 283.29 394.322 283.741C397.974 283.978 400.917 284.225 402.958 284.429C403.935 284.558 404.708 284.654 405.299 284.73C405.836 284.805 406.116 284.848 406.105 284.869H406.116Z" fill="#FAFAFA"/>
<path d="M323.153 288.414C323.153 288.565 319.05 288.747 313.98 288.823C308.911 288.898 304.808 288.823 304.797 288.672C304.786 288.522 308.9 288.339 313.97 288.264C319.039 288.189 323.142 288.264 323.142 288.414H323.153Z" fill="#FAFAFA"/>
<path d="M400.068 268.83C400.068 268.83 399.971 268.83 399.799 268.798C399.595 268.766 399.338 268.723 399.026 268.658C398.349 268.54 397.351 268.411 396.051 268.336C393.452 268.196 389.682 268.551 385.117 269.496C382.829 269.948 380.326 270.506 377.609 270.947C374.891 271.387 371.959 271.677 368.866 271.828C362.679 272.161 355.891 271.849 348.769 271.935C334.538 271.924 321.659 271.903 312.272 271.892C307.642 271.86 303.872 271.838 301.209 271.817C299.941 271.795 298.931 271.785 298.201 271.763C297.89 271.752 297.632 271.742 297.417 271.731C297.245 271.731 297.148 271.71 297.148 271.699C297.148 271.688 297.234 271.677 297.417 271.667C297.621 271.667 297.879 271.645 298.201 271.634C298.931 271.624 299.941 271.602 301.209 271.581C303.872 271.559 307.632 271.527 312.272 271.484C321.649 271.452 334.538 271.409 348.769 271.366C355.891 271.28 362.679 271.602 368.833 271.301C371.905 271.162 374.827 270.893 377.534 270.485C380.24 270.066 382.743 269.529 385.041 269.11C389.628 268.207 393.441 267.906 396.062 268.121C398.682 268.336 400.057 268.819 400.057 268.819L400.068 268.83Z" fill="#FAFAFA"/>
<path d="M442.353 254.656C442.353 254.656 442.085 254.71 441.569 254.763C441 254.817 440.248 254.882 439.314 254.968C437.348 255.139 434.512 255.344 431 255.558C423.975 255.999 414.255 256.461 403.514 256.676C392.773 256.891 383.042 256.815 376.006 256.654C372.483 256.579 369.637 256.482 367.672 256.396C366.737 256.353 365.985 256.311 365.405 256.289C364.89 256.257 364.621 256.235 364.621 256.214C364.621 256.192 364.89 256.182 365.416 256.182C365.985 256.182 366.737 256.182 367.682 256.182C369.712 256.203 372.548 256.225 376.017 256.268C383.053 256.332 392.773 256.332 403.514 256.117C414.244 255.902 423.954 255.505 430.989 255.161C434.459 254.989 437.283 254.849 439.314 254.742C440.248 254.699 441.011 254.667 441.58 254.645C442.095 254.624 442.375 254.634 442.375 254.645L442.353 254.656Z" fill="#FAFAFA"/>
<path d="M435.609 243.777C435.609 243.927 427.038 244.088 416.468 244.131C405.899 244.174 397.328 244.078 397.328 243.927C397.328 243.777 405.899 243.616 416.468 243.573C427.038 243.53 435.609 243.626 435.609 243.777Z" fill="#FAFAFA"/>
<path d="M413.096 234.467C413.096 234.467 412.913 234.521 412.58 234.553C412.172 234.596 411.678 234.639 411.076 234.703C409.777 234.821 407.886 234.961 405.555 235.111C400.883 235.412 394.428 235.702 387.296 235.831C380.153 235.96 373.687 235.896 369.015 235.767C366.673 235.702 364.783 235.627 363.483 235.563C362.882 235.53 362.388 235.498 361.979 235.466C361.636 235.434 361.453 235.412 361.453 235.391C361.453 235.369 361.636 235.359 361.979 235.348C362.388 235.348 362.882 235.348 363.483 235.337C364.879 235.337 366.748 235.359 369.015 235.369C373.687 235.402 380.142 235.402 387.285 235.273C394.417 235.144 400.872 234.907 405.534 234.714C407.8 234.617 409.669 234.542 411.065 234.488C411.667 234.467 412.161 234.456 412.569 234.445C412.913 234.445 413.096 234.445 413.096 234.467Z" fill="#FAFAFA"/>
<path d="M413.675 221.007C413.675 221.158 407.509 221.19 399.915 221.061C392.311 220.932 386.156 220.706 386.156 220.556C386.156 220.406 392.322 220.373 399.915 220.502C407.509 220.631 413.675 220.857 413.664 221.007H413.675Z" fill="#FAFAFA"/>
<path d="M438.017 273.59C438.017 273.74 431.336 274.256 423.066 274.729C414.795 275.201 408.093 275.459 408.082 275.309C408.082 275.158 414.763 274.643 423.033 274.17C431.293 273.697 438.006 273.439 438.017 273.59Z" fill="#FAFAFA"/>
<path d="M351.574 262.932C351.574 262.932 351.38 262.953 351.004 262.953C350.575 262.942 350.038 262.932 349.382 262.91C347.9 262.856 345.881 262.781 343.432 262.695C338.416 262.512 331.477 262.33 323.808 262.298C316.139 262.265 309.201 262.405 304.185 262.545C301.736 262.62 299.727 262.674 298.234 262.717C297.579 262.727 297.053 262.738 296.612 262.749C296.247 262.749 296.043 262.749 296.043 262.717C296.043 262.695 296.236 262.674 296.602 262.631C297.031 262.598 297.568 262.555 298.213 262.491C299.609 262.384 301.65 262.265 304.152 262.147C309.168 261.9 316.118 261.707 323.798 261.728C331.467 261.76 338.416 262.008 343.432 262.287C345.945 262.427 347.975 262.566 349.372 262.684C350.016 262.738 350.553 262.792 350.983 262.835C351.348 262.878 351.541 262.91 351.541 262.921L351.574 262.932Z" fill="#FAFAFA"/>
<path d="M359.337 248.167C359.337 248.242 358.037 248.231 355.954 248.178C353.87 248.135 350.981 248.07 347.801 248.059C344.622 248.059 341.733 248.102 339.649 248.135C337.565 248.167 336.266 248.178 336.266 248.102C336.266 248.027 337.544 247.877 339.638 247.737C341.722 247.597 344.611 247.49 347.812 247.501C351.002 247.501 353.891 247.63 355.975 247.78C358.059 247.931 359.348 248.081 359.348 248.156L359.337 248.167Z" fill="#FAFAFA"/>
<path d="M347.823 239.457C347.823 239.457 347.64 239.5 347.297 239.532C346.889 239.564 346.384 239.596 345.771 239.639C344.45 239.725 342.528 239.801 340.165 239.876C335.428 240.015 328.865 240.069 321.637 239.876C314.397 239.672 307.856 239.242 303.13 238.834C300.767 238.63 298.855 238.436 297.545 238.286C296.943 238.21 296.438 238.146 296.03 238.092C295.686 238.039 295.504 238.006 295.504 237.985C295.504 237.963 295.687 237.963 296.041 237.985C296.449 238.006 296.954 238.039 297.566 238.071C298.973 238.168 300.864 238.286 303.162 238.447C307.888 238.758 314.429 239.113 321.658 239.328C328.887 239.532 335.428 239.543 340.165 239.5C342.474 239.478 344.364 239.457 345.771 239.446C346.384 239.446 346.889 239.446 347.297 239.446C347.651 239.446 347.834 239.468 347.834 239.489L347.823 239.457Z" fill="#FAFAFA"/>
<path d="M294.172 248.874C294.172 248.724 299.134 248.659 305.246 248.735C311.357 248.81 316.309 249.003 316.309 249.154C316.309 249.304 311.347 249.369 305.235 249.293C299.123 249.218 294.172 249.025 294.172 248.874Z" fill="#FAFAFA"/>
<path d="M331.594 222.772C331.594 222.923 323.012 223.148 312.422 223.277C301.831 223.395 293.238 223.374 293.238 223.213C293.238 223.062 301.82 222.837 312.411 222.708C323.001 222.59 331.594 222.611 331.594 222.772Z" fill="#FAFAFA"/>
<path d="M310.56 116.867C314.148 122.433 318.734 134.38 314.846 139.741C313.063 142.201 310.539 144.307 309.841 147.262C308.713 152.064 312.913 157.006 311.581 161.766C310.678 164.989 307.531 166.998 305.673 169.781C303.278 173.358 303.224 178.354 305.544 181.975C307.381 184.844 310.528 186.896 311.548 190.14C312.311 192.547 311.742 195.19 312.29 197.65C313.149 201.507 316.672 204.311 320.442 205.461C324.212 206.611 328.251 206.406 332.193 206.192C332.074 204.752 331.967 203.312 331.849 201.873C332.869 204.354 335.469 205.923 338.111 206.428C340.753 206.933 343.471 206.568 346.134 206.192C348.562 199.208 351.021 191.816 349.604 184.564C348.325 178.032 344.093 172.563 340.699 166.837C336.94 160.487 334.137 153.59 332.397 146.424C331.14 141.266 330.431 135.938 328.422 131.028C326.414 126.118 322.805 121.509 317.735 119.918" fill="#263238"/>
<path d="M336.768 215.036C336.521 203.884 336.07 192.152 336.07 192.152C336.07 192.152 321.667 190.035 318.337 171.352C315.168 153.539 317.338 112.207 317.338 112.207C337.842 103.386 362.428 108.543 377.476 124.81L377.96 215.391C378.014 225.909 369.023 234.332 357.767 234.3C346.403 234.279 337.005 225.651 336.768 215.026V215.036Z" fill="#EB996E"/>
<path d="M323.254 144.355C323.233 145.623 324.296 146.687 325.617 146.74C326.938 146.783 328.034 145.795 328.055 144.527C328.077 143.259 327.024 142.196 325.692 142.142C324.371 142.099 323.276 143.087 323.254 144.355Z" fill="#263238"/>
<path d="M319.314 141.732C319.615 142.044 321.409 140.658 323.997 140.615C326.575 140.54 328.498 141.829 328.777 141.507C328.917 141.367 328.594 140.808 327.757 140.217C326.93 139.637 325.533 139.078 323.922 139.111C322.311 139.154 320.968 139.766 320.206 140.389C319.422 141.012 319.164 141.582 319.314 141.721V141.732Z" fill="#263238"/>
<path d="M349.735 144.308C349.713 145.576 350.777 146.64 352.098 146.693C353.419 146.736 354.514 145.748 354.536 144.48C354.557 143.212 353.494 142.149 352.173 142.095C350.852 142.052 349.756 143.041 349.735 144.308Z" fill="#263238"/>
<path d="M346.306 142.17C346.607 142.481 348.412 141.095 350.989 141.052C353.567 140.977 355.49 142.266 355.769 141.944C355.909 141.804 355.597 141.246 354.749 140.655C353.922 140.075 352.525 139.516 350.914 139.548C349.303 139.591 347.961 140.204 347.198 140.827C346.414 141.45 346.156 142.019 346.306 142.159V142.17Z" fill="#263238"/>
<path d="M337.284 161.525C337.284 161.375 335.683 161.128 333.073 160.848C332.407 160.794 331.784 160.676 331.666 160.225C331.505 159.752 331.763 159.032 332.074 158.259C332.665 156.647 333.288 154.961 333.932 153.199C336.51 145.989 338.358 140.07 338.068 139.962C337.778 139.865 335.447 145.624 332.869 152.833C332.246 154.606 331.655 156.304 331.097 157.926C330.861 158.678 330.452 159.537 330.807 160.526C330.989 161.02 331.484 161.364 331.913 161.471C332.343 161.589 332.708 161.589 333.041 161.611C335.662 161.708 337.294 161.686 337.294 161.536L337.284 161.525Z" fill="#263238"/>
<path d="M336.07 192.166C336.07 192.166 348.691 192.746 361.032 185C361.032 185 355.189 197.989 336.403 196.582L336.07 192.166Z" fill="#D1734A"/>
<path d="M337.092 108.79C335.556 111.562 337.017 115.204 339.477 117.191C341.936 119.179 345.126 119.963 348.177 120.812C351.227 121.661 354.396 122.757 356.469 125.142C360.325 129.568 358.553 135.101 362.28 140.677C364.256 143.643 366.673 145.706 370.98 145.609C374.535 145.523 374.954 146.544 376.254 150.787C377.489 154.838 375.555 157.642 373.149 161.123C370.743 164.604 369.1 168.203 369.723 172.393C370.174 175.423 374.922 176.1 375.126 179.151C375.459 183.964 372.075 191.045 374.363 195.288C376.651 199.532 385.19 198.974 387.886 202.981C388.842 204.41 389.229 206.441 390.829 207.074C391.785 207.45 392.859 207.171 393.847 206.892C398.874 205.441 403.901 203.991 408.927 202.541C408.723 201.015 408.53 199.479 408.326 197.953C410.195 200.338 413.224 201.756 416.253 201.649C419.271 201.552 422.214 199.94 423.922 197.448C421.226 195.245 418.498 193.011 416.403 190.228C414.309 187.445 412.88 184.007 413.17 180.526C413.514 176.326 416.296 172.35 415.49 168.203C414.341 162.273 406.854 159.93 403.987 154.612C401.312 149.649 403.213 143.138 400.464 138.228C397.263 132.512 389.186 131.309 385.373 125.991C382.784 122.381 382.666 117.6 380.958 113.496C378.907 108.586 374.61 104.868 369.788 102.612C364.965 100.367 359.637 99.4533 354.353 98.9161C350.389 98.5186 346.254 98.3467 342.581 99.8616C338.897 101.376 335.814 105.019 336.168 108.983" fill="#263238"/>
<path d="M366.016 144.976C367.97 144.385 370.086 144.224 372.052 144.74C374.028 145.255 375.844 146.502 376.853 148.274C377.863 150.047 378.013 152.239 377.519 154.227C377.025 156.214 375.94 158.008 374.641 159.588C373.706 160.716 372.621 161.779 371.268 162.36C369.915 162.94 368.261 162.972 367.047 162.145" fill="#EB996E"/>
<path d="M368.356 156.957C368.13 157.053 369.129 158.171 370.902 157.494C371.75 157.172 372.534 156.312 372.953 155.291C373.372 154.26 373.598 153.153 373.608 151.886C373.608 150.629 373.189 149.339 372.405 148.458C371.653 147.567 370.526 147.105 369.623 147.18C367.744 147.33 367.293 148.684 367.518 148.705C367.679 148.845 368.345 148.093 369.602 148.265C370.805 148.362 372.126 149.866 372.072 151.907C372.062 153.981 371.46 155.936 370.418 156.516C369.344 157.215 368.474 156.774 368.356 156.957Z" fill="#D1734A"/>
<path d="M336.917 109.774C338.002 113.889 335.693 118.616 331.794 120.292C329.592 121.238 327.004 121.313 325.049 122.71C323.105 124.096 322.192 126.513 321.622 128.834C321.053 131.155 320.709 133.593 319.474 135.645C318.239 137.698 315.618 144.627 313.33 143.94C312.471 139.857 311.773 130.413 310.914 126.331C309.958 121.818 309.023 117.016 310.602 112.686C312.858 106.497 319.646 103.081 326.155 102.092C329.173 101.641 332.449 101.62 335.038 103.231C337.626 104.843 339.066 108.56 337.347 111.085" fill="#263238"/>
<path d="M346.093 135.737C346.232 135.941 346.823 135.758 347.736 135.662C348.66 135.544 349.949 135.511 351.377 135.662C352.795 135.834 354.052 136.156 354.922 136.478C355.802 136.79 356.329 137.091 356.511 136.93C356.672 136.801 356.393 136.113 355.502 135.447C354.632 134.77 353.203 134.201 351.57 134.007C349.938 133.825 348.423 134.061 347.414 134.523C346.393 134.974 345.964 135.565 346.093 135.737Z" fill="#263238"/>
<path d="M322.527 136.102C322.538 136.564 324.181 136.897 326.212 136.843C328.231 136.789 329.863 136.37 329.853 135.919C329.842 135.457 328.199 135.124 326.169 135.178C324.149 135.231 322.517 135.64 322.527 136.102Z" fill="#263238"/>
<path d="M344.834 166.751C343.566 165.322 341.032 165.322 339.753 166.751C338.475 168.18 338.754 170.694 340.301 171.812C341.848 172.929 344.318 172.403 345.285 170.748C346.252 169.094 345.489 166.687 343.76 165.881" fill="#E8505B"/>
<path d="M344.919 163.164C344.5 163.143 344.543 165.958 342.18 167.988C339.817 170.03 336.82 169.772 336.81 170.169C336.777 170.341 337.486 170.706 338.754 170.717C339.989 170.739 341.793 170.309 343.243 169.063C344.683 167.816 345.284 166.172 345.359 165.023C345.445 163.852 345.123 163.153 344.93 163.175L344.919 163.164Z" fill="#263238"/>
<path d="M374.846 160.578C370.765 161.803 367.779 165.972 367.94 170.237C368.09 174.395 370.883 178.198 370.593 182.345C370.335 185.977 367.725 189.296 368.144 192.917C368.659 197.333 373.418 200.18 374.481 204.499C374.9 206.229 374.921 208.431 376.533 209.194C377.338 209.581 378.283 209.42 379.164 209.258C383.16 208.517 387.166 207.776 391.162 207.035C392.859 206.723 394.663 206.347 395.898 205.144C397.671 203.414 397.671 200.61 397.445 198.149C396.951 192.691 395.941 187.277 394.438 182.012C392.88 176.522 390.7 171.053 386.865 166.831C383.042 162.598 379.809 159.966 374.17 160.825" fill="#263238"/>
<path d="M397.811 136.544C397.811 136.544 397.768 136.64 397.66 136.791C397.553 136.952 397.37 137.167 397.123 137.435C396.618 137.962 395.77 138.682 394.492 139.187C393.235 139.692 391.506 139.992 389.669 139.488C387.854 139.004 385.953 137.747 384.814 135.727L385.179 135.824C382.945 137.135 379.938 137.511 377.102 136.716C374.181 135.931 371.742 133.965 370.518 131.602L370.883 131.698C368.939 132.891 366.737 133.149 364.922 132.805C363.075 132.472 361.646 131.537 360.69 130.613C359.723 129.668 359.197 128.722 358.907 128.056C358.767 127.723 358.671 127.454 358.628 127.272C358.574 127.089 358.563 126.992 358.574 126.992C358.606 126.982 358.735 127.347 359.057 127.981C359.39 128.604 359.938 129.496 360.905 130.377C361.861 131.247 363.246 132.085 364.986 132.375C366.716 132.665 368.799 132.375 370.604 131.258L370.84 131.107L370.969 131.354C372.14 133.568 374.449 135.416 377.242 136.168C379.938 136.93 382.795 136.587 384.9 135.362L385.136 135.233L385.265 135.469C386.307 137.349 388.079 138.564 389.776 139.058C391.495 139.563 393.138 139.326 394.363 138.875C395.598 138.424 396.457 137.769 396.984 137.296C397.521 136.812 397.757 136.501 397.789 136.522L397.811 136.544Z" fill="#455A64"/>
<path d="M390.633 130.544C390.633 130.544 390.139 130.34 389.215 130.146C388.313 129.964 386.884 129.878 385.348 130.533L385.176 130.608L385.091 130.426C384.414 128.954 383.136 127.385 381.267 126.322C379.409 125.236 377.013 124.742 374.543 125.269C373.898 125.355 373.211 125.408 372.545 125.172C371.868 124.946 371.364 124.366 371.106 123.797C370.827 123.217 370.687 122.626 370.504 122.089C370.322 121.551 370.118 121.036 369.892 120.541C368.958 118.575 367.647 117.06 366.391 115.997C363.845 113.848 361.718 113.418 361.783 113.289C361.783 113.268 361.912 113.289 362.159 113.354C362.406 113.407 362.749 113.515 363.19 113.687C364.071 114.02 365.327 114.622 366.648 115.696C367.969 116.749 369.366 118.296 370.365 120.327C370.612 120.831 370.837 121.369 371.02 121.927C371.213 122.486 371.353 123.055 371.611 123.56C371.858 124.065 372.223 124.484 372.749 124.656C373.265 124.839 373.877 124.807 374.489 124.721C376.992 124.173 379.634 124.721 381.546 125.881C383.49 127.031 384.811 128.707 385.466 130.275L385.209 130.168C386.863 129.523 388.356 129.684 389.279 129.942C389.752 130.071 390.096 130.222 390.321 130.34C390.547 130.458 390.654 130.533 390.644 130.555L390.633 130.544Z" fill="#455A64"/>
<path d="M312.621 136.349C312.621 136.349 312.471 135.897 312.31 135.049C312.16 134.2 311.945 132.975 311.859 131.428C311.784 129.892 311.859 127.99 312.611 126.035C312.987 125.068 313.534 124.09 314.308 123.252C315.081 122.382 316.134 121.802 317.047 121.135C317.992 120.48 318.658 119.631 318.937 118.589C319.238 117.568 319.292 116.505 319.463 115.495C319.764 113.421 320.795 111.735 321.88 110.628C322.976 109.5 324.114 108.887 324.92 108.576C325.328 108.425 325.65 108.329 325.876 108.286C326.101 108.243 326.22 108.221 326.22 108.243C326.23 108.297 325.768 108.415 325.006 108.78C324.243 109.145 323.18 109.79 322.159 110.897C321.15 112.003 320.215 113.604 319.958 115.57C319.807 116.559 319.764 117.633 319.442 118.75C319.281 119.298 319.045 119.857 318.679 120.351C318.314 120.845 317.852 121.243 317.369 121.597C316.392 122.296 315.414 122.844 314.705 123.628C313.975 124.402 313.459 125.315 313.083 126.228C312.342 128.076 312.224 129.902 312.246 131.417C312.364 134.458 312.729 136.338 312.611 136.359L312.621 136.349Z" fill="#455A64"/>
<path d="M365.737 128.26C365.673 128.249 365.877 127.734 365.866 126.799C365.866 125.864 365.479 124.5 364.427 123.178C363.385 121.857 361.709 120.654 359.54 120.073C357.391 119.429 354.9 119.246 352.311 118.763C349.701 118.279 347.316 117.344 345.319 116.238C343.321 115.12 341.677 113.831 340.442 112.628C339.207 111.414 338.326 110.318 337.779 109.523C337.231 108.728 336.984 108.255 337.005 108.244C337.102 108.169 338.197 110.028 340.711 112.349C343.192 114.637 347.284 117.291 352.418 118.225C354.964 118.698 357.488 118.892 359.69 119.59C361.913 120.213 363.707 121.535 364.738 122.953C365.802 124.36 366.145 125.843 366.081 126.81C366.059 127.304 365.973 127.68 365.888 127.916C365.802 128.163 365.748 128.282 365.737 128.271V128.26Z" fill="#455A64"/>
<path d="M353.609 113.902C353.609 113.967 352.556 113.881 350.935 113.44C349.313 113.011 347.121 112.162 344.93 110.808C342.739 109.444 341.01 107.854 339.904 106.586C338.797 105.318 338.26 104.426 338.303 104.394C338.443 104.265 340.892 107.682 345.22 110.336C349.506 113.032 353.663 113.72 353.609 113.902Z" fill="#455A64"/>
<path d="M365.425 115.007C365.317 115.039 364.909 113.589 363.781 111.461C363.233 110.398 362.449 109.194 361.472 107.937C360.473 106.702 359.27 105.434 357.863 104.263C356.445 103.113 354.963 102.179 353.556 101.437C352.138 100.728 350.806 100.191 349.646 99.858C347.337 99.1704 345.833 99.0522 345.844 98.9447C345.844 98.9018 346.22 98.9232 346.907 98.977C347.251 98.9985 347.67 99.0414 348.142 99.1381C348.615 99.2348 349.174 99.31 349.754 99.4819C350.946 99.772 352.321 100.277 353.781 100.975C355.231 101.706 356.757 102.651 358.207 103.833C359.646 105.037 360.87 106.347 361.869 107.626C362.836 108.926 363.599 110.172 364.125 111.289C364.415 111.827 364.597 112.353 364.78 112.804C364.973 113.256 365.092 113.653 365.177 113.986C365.36 114.641 365.446 115.007 365.414 115.018L365.425 115.007Z" fill="#455A64"/>
<path d="M400.956 203.816C400.956 203.816 400.988 203.526 400.956 202.989C400.934 202.462 400.752 201.667 400.193 200.818C399.624 199.98 398.689 199.121 397.443 198.39C396.208 197.627 394.619 197.155 392.9 196.467C392.041 196.123 391.149 195.715 390.29 195.146C389.431 194.587 388.604 193.824 388.077 192.825C387.573 191.815 387.315 190.622 387.465 189.43C387.605 188.237 388.034 187.088 388.518 185.97C389.474 183.725 390.881 181.512 391.257 178.955C391.429 177.687 391.235 176.365 390.58 175.226C389.946 174.066 388.915 173.142 387.852 172.25C386.778 171.359 385.65 170.542 384.63 169.586C383.62 168.64 382.718 167.512 382.277 166.18C381.805 164.859 381.923 163.44 382.224 162.183C382.546 160.916 383.029 159.755 383.491 158.627C384.479 156.403 385.091 154.19 385.048 152.041C385.016 149.903 384.533 147.937 383.824 146.261C383.115 144.585 382.202 143.188 381.268 142.082C380.301 141.007 379.366 140.169 378.518 139.6C376.832 138.44 375.715 138.106 375.747 138.042C375.747 138.021 376.026 138.117 376.531 138.321C377.046 138.504 377.766 138.869 378.636 139.428C379.517 139.976 380.494 140.803 381.504 141.888C382.481 142.995 383.437 144.402 384.189 146.111C384.93 147.819 385.457 149.828 385.51 152.041C385.575 154.244 384.941 156.597 383.964 158.821C383.502 159.949 383.029 161.098 382.739 162.312C382.46 163.516 382.363 164.816 382.793 166.008C383.19 167.212 384.017 168.264 384.995 169.178C385.983 170.091 387.1 170.907 388.196 171.821C389.27 172.723 390.354 173.701 391.053 174.958C391.761 176.204 391.976 177.676 391.783 179.03C391.364 181.759 389.914 183.972 388.969 186.185C388.486 187.292 388.077 188.388 387.938 189.505C387.798 190.612 388.024 191.697 388.475 192.621C389.474 194.479 391.396 195.414 393.04 196.112C394.715 196.822 396.348 197.327 397.594 198.143C398.861 198.917 399.796 199.83 400.365 200.722C400.924 201.613 401.074 202.462 401.063 202.999C401.063 203.547 400.945 203.827 400.945 203.827L400.956 203.816Z" fill="#455A64"/>
<path d="M417.8 198.083C417.8 198.083 416.715 197.997 414.953 197.17C413.245 196.332 410.797 194.666 409.11 191.583C408.262 190.068 407.671 188.199 407.542 186.157C407.392 184.116 407.585 181.957 407.553 179.711C407.531 177.498 407.209 175.027 405.555 173.254C403.933 171.46 401.388 170.761 398.917 170.009C397.66 169.633 396.414 169.247 395.233 168.677C394.062 168.108 392.977 167.302 392.268 166.206C391.517 165.142 391.237 163.842 391.194 162.639C391.151 161.414 391.313 160.254 391.474 159.126C392.354 154.678 391.903 150.563 390.851 147.329C389.83 144.074 388.316 141.71 387.177 140.195C386.017 138.68 385.244 137.95 385.287 137.907C385.298 137.896 385.502 138.068 385.867 138.422C386.243 138.766 386.748 139.314 387.36 140.066C388.563 141.56 390.142 143.923 391.237 147.211C391.785 148.855 392.204 150.713 392.365 152.744C392.558 154.775 392.365 156.977 392 159.201C391.839 160.318 391.699 161.468 391.742 162.618C391.796 163.767 392.054 164.938 392.741 165.905C393.386 166.894 394.374 167.635 395.491 168.172C396.608 168.72 397.832 169.096 399.089 169.472C400.335 169.848 401.592 170.213 402.784 170.729C403.976 171.234 405.115 171.922 405.974 172.889C406.844 173.834 407.402 175.005 407.692 176.187C407.993 177.369 408.068 178.561 408.079 179.7C408.101 181.989 407.886 184.127 408.015 186.125C408.111 188.113 408.659 189.918 409.465 191.4C411.065 194.409 413.407 196.095 415.061 196.976C416.758 197.847 417.832 198.008 417.81 198.083H417.8Z" fill="#455A64"/>
<path d="M373.395 161.088C373.395 161.088 373.642 161.518 373.986 162.324C374.362 163.237 374.845 164.386 375.415 165.762C375.715 166.503 376.038 167.298 376.381 168.147C376.714 169.006 377.122 169.919 377.369 170.962C377.616 171.993 377.681 173.196 377.23 174.324C376.8 175.453 375.64 176.42 374.276 176.387C373.599 176.387 372.955 176.043 372.514 175.581C372.074 175.109 371.806 174.539 371.623 173.981C371.258 172.853 371.215 171.735 371.107 170.704C370.936 168.619 370.914 166.75 370.914 165.171C370.914 163.602 370.968 162.324 371.011 161.443C371.054 160.562 371.097 160.078 371.14 160.078C371.183 160.078 371.204 160.562 371.236 161.443C371.258 162.431 371.279 163.677 371.312 165.16C371.354 166.729 371.419 168.587 371.623 170.65C371.741 171.681 371.806 172.767 372.149 173.798C372.321 174.303 372.568 174.797 372.923 175.184C373.288 175.549 373.771 175.807 374.297 175.818C375.372 175.839 376.36 175.077 376.725 174.099C377.133 173.121 377.09 172.036 376.875 171.058C376.65 170.07 376.285 169.167 375.962 168.297C375.64 167.438 375.339 166.643 375.06 165.891C374.555 164.494 374.136 163.323 373.793 162.388C373.503 161.561 373.363 161.088 373.395 161.077V161.088Z" fill="#FAFAFA"/>
<path d="M375.296 176.112C375.339 176.187 375.038 176.359 374.984 176.81C374.963 177.025 375.006 177.305 375.167 177.487C375.317 177.67 375.618 177.734 375.919 177.648C376.22 177.552 376.424 177.326 376.434 177.079C376.467 176.832 376.338 176.585 376.187 176.424C375.876 176.09 375.532 176.123 375.521 176.037C375.478 175.983 375.908 175.747 376.445 176.123C376.692 176.305 376.95 176.638 376.95 177.1C376.95 177.584 376.563 178.024 376.091 178.175C375.618 178.336 375.038 178.196 374.77 177.809C374.49 177.433 374.512 177.014 374.608 176.724C374.823 176.101 375.307 176.037 375.307 176.112H375.296Z" fill="#FAFAFA"/>
<path d="M374.868 120.542C374.932 120.542 375.104 121.294 375.115 122.54C375.125 123.787 374.932 125.527 374.33 127.354C373.729 129.18 372.848 130.695 372.096 131.683C371.344 132.683 370.754 133.198 370.711 133.145C370.56 133.037 372.655 130.727 373.804 127.171C374.996 123.625 374.696 120.531 374.868 120.531V120.542Z" fill="#E8505B"/>
<path d="M377.293 121.933C377.358 121.933 377.53 122.685 377.54 123.931C377.551 125.177 377.358 126.918 376.756 128.744C376.155 130.571 375.274 132.086 374.522 133.074C373.77 134.073 373.18 134.589 373.137 134.535C372.986 134.428 375.081 132.118 376.23 128.562C377.422 125.016 377.121 121.922 377.293 121.922V121.933Z" fill="#E8505B"/>
<path d="M56.0338 258.058L44.5732 288.914L35.9053 219.229C35.5186 212.751 37.4627 208.163 38.4509 206.315C39.3853 204.575 40.2553 202.802 41.555 201.309C43.1339 199.504 45.3251 197.194 46.904 196.291C48.8588 195.174 48.5151 192.284 46.5066 192.058C44.498 191.833 39.0309 194.787 34.7345 200.664C30.4381 206.541 29.9763 195.228 29.74 191.102C29.5037 186.987 28.1611 174.288 26.8399 173.385C24.9066 172.075 23.0913 173.955 23.4243 178.059C23.7573 182.217 23.8969 194.572 21.7272 194.647C19.5898 194.723 18.6553 173.729 18.6553 173.729C18.6553 173.729 19.1816 169.195 16.6683 169.195C12.1356 169.195 14.7671 191.403 15.0679 193.509C15.2827 194.97 12.9197 195.142 12.78 193.562C12.6297 191.929 12.3289 172.59 7.72107 172.547C4.17656 172.526 9.71888 190.833 7.55995 194.938C5.40103 199.042 4.77805 180.584 1.39466 180.702C0.137973 180.745 -0.807229 180.949 1.07243 191.457C2.08208 197.108 5.80918 205.241 6.94772 216.264L7.24847 219.122C7.45254 232.863 9.07442 284.638 21.5554 316.139C29.0955 335.166 55.1208 337.734 66.4417 320.684C74.1322 309.112 83.4016 292.889 90.8344 273.153L56.0338 258.058Z" fill="#FFAD9D"/>
<path d="M13.6935 210.527C13.6935 210.635 14.4024 210.613 15.498 211C16.572 211.365 18.065 212.246 18.978 213.879L19.4076 214.653L19.6547 213.804C19.9769 212.687 20.5354 211.526 21.3303 210.452C23.0166 208.142 25.3581 206.778 27.1196 206.187C28.9026 205.553 30.1164 205.585 30.1056 205.435C30.1164 205.37 28.8704 205.123 26.9478 205.65C25.0466 206.122 22.4903 207.508 20.6751 209.99C19.8265 211.14 19.2358 212.407 18.9243 213.611L19.601 213.525C18.5054 211.698 16.7869 210.85 15.6054 210.57C14.3916 210.291 13.6613 210.463 13.672 210.527H13.6935Z" fill="#E88774"/>
<path d="M255.115 263.969L214.568 220.822C206.942 212.904 198.006 207.048 187.319 203.18C182.131 201.3 176.61 200.172 170.24 199.903C156.492 204.158 142.744 204.158 128.985 199.925C127.964 200.054 126.675 200.194 125.182 200.355C118.888 198.99 78.7063 192.179 60.7582 236.615L47.6758 272.886L85.0005 291.226L92.4977 323.587L91.1013 378.595L211.926 378.466L204.354 331.709L204.268 283.598L220.583 304.28L255.126 263.948L255.115 263.969Z" fill="#263238"/>
<path d="M121.628 141.098C122.272 142.635 121.907 144.536 120.747 145.729C119.587 146.922 117.697 147.341 116.15 146.739C113.207 145.6 112.455 141.775 112.691 138.617C112.928 135.469 113.647 132.063 112.058 129.323C110.844 127.239 108.556 126.068 106.698 124.51C103.476 121.802 101.467 117.591 101.768 113.39C102.058 109.189 104.775 105.16 108.696 103.624C112.691 102.055 117.901 102.807 120.661 99.509C122.659 97.1239 122.444 93.5677 123.894 90.8172C126.161 86.5412 131.735 85.3379 136.569 85.499C141.402 85.6709 146.407 86.7023 150.961 85.0693C154.764 83.7048 157.685 80.6536 161.165 78.6122C168.716 74.1858 179.038 75.1205 185.676 80.8255C192.314 86.5412 194.774 96.6082 191.519 104.741C190.348 107.664 188.243 115.969 179.296 116.774" fill="#E8505B"/>
<path d="M116.784 107.778L117.482 114.182L127.353 210.167C128.503 221.309 138.986 229.205 150.908 227.884C162.949 226.552 171.907 216.334 170.94 205.064C169.92 193.224 169.06 180.751 169.06 180.751C169.06 180.751 184.076 176.861 185.451 156.684C186.138 146.65 184.194 130.48 182.175 117.297C180.36 105.436 169.039 97.4643 157.267 99.7849L116.773 107.757L116.784 107.778Z" fill="#FFAD9D"/>
<path d="M176.503 128.458C176.675 129.801 175.676 131.048 174.269 131.252C172.873 131.456 171.605 130.532 171.433 129.189C171.261 127.846 172.26 126.6 173.657 126.395C175.053 126.191 176.32 127.115 176.492 128.458H176.503Z" fill="#263238"/>
<path d="M179.414 126.066C179.124 126.432 177.073 125.174 174.323 125.422C171.584 125.636 169.694 127.227 169.361 126.915C169.2 126.775 169.468 126.152 170.285 125.432C171.09 124.723 172.508 123.971 174.216 123.821C175.924 123.681 177.417 124.175 178.308 124.745C179.21 125.314 179.554 125.894 179.404 126.055L179.414 126.066Z" fill="#263238"/>
<path d="M149.069 131.208C149.241 132.551 148.242 133.798 146.835 134.002C145.439 134.206 144.172 133.282 144 131.939C143.828 130.596 144.827 129.35 146.223 129.145C147.619 128.941 148.887 129.865 149.059 131.208H149.069Z" fill="#263238"/>
<path d="M152.496 128.988C152.206 129.353 150.144 128.096 147.405 128.343C144.666 128.558 142.776 130.148 142.443 129.837C142.282 129.697 142.55 129.074 143.377 128.354C144.183 127.645 145.601 126.893 147.309 126.743C149.016 126.603 150.509 127.097 151.401 127.667C152.303 128.236 152.636 128.816 152.496 128.977V128.988Z" fill="#263238"/>
<path d="M164.27 148.453C164.249 148.303 165.924 147.852 168.652 147.25C169.35 147.11 169.995 146.917 170.07 146.423C170.188 145.896 169.834 145.176 169.415 144.392C168.609 142.759 167.761 141.04 166.869 139.246C163.314 131.908 160.672 125.848 160.973 125.698C161.273 125.558 164.388 131.392 167.943 138.73C168.803 140.546 169.63 142.265 170.403 143.919C170.736 144.693 171.273 145.552 171.015 146.638C170.876 147.175 170.392 147.604 169.952 147.766C169.512 147.938 169.125 147.981 168.781 148.034C166.01 148.432 164.291 148.604 164.259 148.442L164.27 148.453Z" fill="#263238"/>
<path d="M169.061 180.759C169.061 180.759 155.764 182.811 141.801 176.031C141.801 176.031 149.663 189.074 169.394 185.432L169.061 180.759Z" fill="#E88774"/>
<path d="M152.238 118.173C152.034 118.946 149.262 118.839 146.083 119.505C142.882 120.117 140.369 121.289 139.886 120.665C139.671 120.365 140.058 119.623 141.046 118.807C142.023 117.99 143.624 117.163 145.535 116.765C147.447 116.379 149.241 116.529 150.465 116.905C151.69 117.27 152.334 117.808 152.248 118.173H152.238Z" fill="#E8505B"/>
<path d="M177.697 118.217C177.267 118.883 175.323 118.411 173.046 118.582C170.769 118.679 168.889 119.378 168.384 118.765C168.159 118.464 168.406 117.82 169.201 117.154C169.974 116.487 171.317 115.886 172.885 115.8C174.453 115.714 175.86 116.154 176.698 116.724C177.557 117.293 177.879 117.916 177.697 118.239V118.217Z" fill="#E8505B"/>
<path d="M182.058 108.436C182.058 108.436 172.381 114.668 158.192 109.607C148.88 106.288 138.386 105.385 136.345 107.426C134.304 109.468 134.927 118.579 126.549 122.274C126.549 122.274 129.245 139.465 122.285 139.69C115.325 139.905 113.273 105.095 113.273 105.095L132.231 102.377L150.179 96.6719L167.784 97.0157L181.629 99.057L182.069 108.436H182.058Z" fill="#E8505B"/>
<path d="M112.346 100.198C112.228 99.9397 113.807 99.1876 115.772 99.7141C117.749 100.219 118.748 101.659 118.522 101.82C118.307 102.035 117.169 101.143 115.504 100.724C113.861 100.273 112.421 100.488 112.346 100.198Z" fill="#E8505B"/>
<path d="M117.556 93.8282C117.878 93.8282 117.953 95.8695 118.523 98.1794C119.081 100.511 120.252 102.112 120.026 102.316C119.855 102.531 118.147 101.037 117.513 98.4373C116.89 95.8802 117.309 93.8174 117.556 93.8282Z" fill="#E8505B"/>
<path d="M122.035 132.513C121.734 132.406 110.187 129.602 111.111 141.216C112.024 152.83 123.495 149.51 123.485 149.177C123.485 148.844 122.035 132.513 122.035 132.513Z" fill="#FFAD9D"/>
<path d="M119.585 145.062C119.532 145.03 119.392 145.223 119.07 145.406C118.747 145.588 118.189 145.739 117.566 145.556C116.309 145.202 115.117 143.332 114.902 141.248C114.784 140.195 114.934 139.174 115.235 138.304C115.525 137.423 116.03 136.789 116.632 136.628C117.233 136.435 117.706 136.768 117.867 137.09C118.049 137.401 117.996 137.638 118.06 137.659C118.092 137.681 118.296 137.444 118.167 136.972C118.103 136.746 117.942 136.478 117.652 136.284C117.351 136.08 116.932 135.994 116.513 136.08C115.622 136.209 114.881 137.101 114.548 138.046C114.161 139.002 113.979 140.152 114.107 141.334C114.365 143.665 115.74 145.76 117.448 146.115C118.286 146.265 118.941 145.964 119.274 145.664C119.607 145.352 119.65 145.083 119.607 145.062H119.585Z" fill="#EB996E"/>
<path d="M169.233 75.6797C169.233 75.6797 169.318 75.6797 169.49 75.6797C169.662 75.7012 169.909 75.6904 170.231 75.7656C170.887 75.8623 171.843 76.1309 172.949 76.7433C174.044 77.3557 175.29 78.3549 176.289 79.859C177.288 81.3417 178.019 83.4153 177.718 85.7037C177.449 87.9706 176.171 90.3343 174.066 91.9996C173.003 92.8269 171.724 93.45 170.307 93.7401C168.878 93.9979 167.331 93.8046 165.946 93.1492C164.582 92.526 163.271 91.269 163.057 89.5822C162.938 88.7657 163.078 87.9062 163.454 87.1541C163.819 86.402 164.388 85.7574 165.033 85.231C166.332 84.1888 167.933 83.5442 169.598 83.2326C171.252 82.921 172.981 82.8566 174.7 83.0392C178.137 83.3938 181.413 84.8872 183.668 87.2938C185.935 89.6574 187.213 92.8269 187.062 95.8674C186.934 98.9079 185.569 101.594 183.872 103.624C182.154 105.666 180.059 107.105 178.008 108.029C173.862 109.856 170.135 110.049 167.654 110.114C166.408 110.135 165.43 110.092 164.775 110.06C164.474 110.039 164.227 110.017 164.034 110.006C163.862 109.985 163.776 109.974 163.776 109.963C163.776 109.963 163.862 109.953 164.034 109.942C164.238 109.942 164.485 109.942 164.786 109.942C165.441 109.942 166.408 109.942 167.654 109.899C170.113 109.759 173.797 109.512 177.847 107.664C179.845 106.74 181.864 105.322 183.518 103.324C185.161 101.347 186.439 98.7467 186.547 95.8459C186.676 92.9665 185.451 89.9368 183.271 87.6698C181.112 85.3706 177.976 83.9417 174.646 83.5979C171.349 83.2971 167.847 83.7053 165.387 85.6607C164.174 86.6062 163.379 88.0566 163.604 89.507C163.776 90.9574 164.915 92.0855 166.182 92.6765C167.46 93.2889 168.91 93.4822 170.231 93.2459C171.563 92.988 172.788 92.4079 173.797 91.6236C175.817 90.0442 177.063 87.7987 177.342 85.6392C177.653 83.469 176.987 81.4706 176.042 80.0202C175.097 78.5483 173.916 77.5491 172.852 76.926C170.693 75.6797 169.211 75.7764 169.243 75.6797H169.233Z" fill="white"/>
<path d="M167.547 156.761C166.871 159.447 164.089 161.779 161.103 161.241C157.698 160.629 155.969 156.632 156.205 154.172L167.547 156.761Z" fill="white"/>
<path d="M153.615 151.746C153.497 151.649 153.873 150.994 154.464 150.295C155.055 149.597 155.624 149.103 155.742 149.2C155.86 149.296 155.484 149.952 154.894 150.65C154.303 151.348 153.734 151.843 153.615 151.746Z" fill="#E8505B"/>
<path d="M156.107 152.319C155.978 152.233 156.29 151.588 156.784 150.89C157.289 150.191 157.794 149.697 157.923 149.783C158.051 149.869 157.74 150.514 157.246 151.212C156.741 151.91 156.236 152.405 156.107 152.319Z" fill="#E8505B"/>
<path d="M158.363 153.468C158.212 153.425 158.331 152.608 158.771 151.695C159.201 150.782 159.77 150.18 159.888 150.266C160.017 150.352 159.684 151.072 159.276 151.931C158.857 152.791 158.513 153.5 158.363 153.457V153.468Z" fill="#E8505B"/>
<path d="M161.178 153.333C161.027 153.3 161.049 152.581 161.231 151.721C161.414 150.862 161.683 150.195 161.833 150.228C161.983 150.26 161.962 150.98 161.779 151.839C161.597 152.699 161.328 153.365 161.178 153.333Z" fill="#E8505B"/>
<path d="M163.487 154.354C163.337 154.321 163.358 153.505 163.53 152.527C163.702 151.549 163.971 150.776 164.121 150.797C164.271 150.83 164.25 151.646 164.078 152.624C163.906 153.601 163.638 154.375 163.487 154.354Z" fill="#E8505B"/>
<path d="M166.266 154.353C166.116 154.353 166.009 153.687 166.03 152.87C166.052 152.054 166.191 151.398 166.352 151.398C166.503 151.398 166.61 152.065 166.589 152.881C166.567 153.698 166.427 154.353 166.266 154.353Z" fill="#E8505B"/>
<path d="M168.599 155.274C168.438 155.274 168.309 154.35 168.148 153.222C167.987 152.093 167.858 151.169 168.008 151.126C168.148 151.084 168.534 151.975 168.706 153.136C168.878 154.307 168.76 155.263 168.61 155.263L168.599 155.274Z" fill="#E8505B"/>
<path d="M170.8 154.403C170.649 154.424 170.413 153.769 170.273 152.942C170.134 152.104 170.155 151.416 170.305 151.384C170.456 151.352 170.692 152.018 170.832 152.845C170.971 153.683 170.95 154.371 170.8 154.403Z" fill="#E8505B"/>
<path d="M173.239 154.068C173.088 154.101 172.873 153.649 172.755 153.069C172.637 152.489 172.669 151.984 172.82 151.963C172.97 151.93 173.185 152.382 173.303 152.962C173.421 153.542 173.389 154.047 173.239 154.068Z" fill="#E8505B"/>
<path d="M170.1 167.325C170.047 167.4 169.563 167.099 168.704 166.799C167.855 166.498 166.62 166.229 165.267 166.38C163.914 166.53 162.764 167.056 162.002 167.529C161.239 168.002 160.82 168.399 160.756 168.346C160.702 168.303 161.024 167.798 161.776 167.207C162.517 166.616 163.742 165.982 165.202 165.821C166.674 165.66 167.995 166.014 168.854 166.433C169.714 166.852 170.133 167.271 170.09 167.325H170.1Z" fill="#E88774"/>
<path d="M336.493 208.49L336.16 194.179C314.786 183.929 295.699 182.017 295.699 182.017C267.279 179.643 248.901 174.776 223.38 176.946C223.38 176.946 204.476 173.701 180.008 172.734C174.745 179.428 169.074 180.76 169.074 180.76C169.074 180.76 169.547 187.496 170.159 195.372L170.234 196.339C170.342 197.692 170.449 199.068 170.556 200.454L170.932 205.084C170.932 205.084 201.619 216.634 203.101 230.343C204.261 241.033 204.466 327.779 204.466 327.8L204.337 331.711L211.909 378.468L298.717 378.715L314.259 338.071L299.909 217.525C315.323 203.763 336.482 208.479 336.482 208.479L336.493 208.49Z" fill="#1735F5"/>
<path d="M281.071 368.477C281.071 368.477 280.899 368.552 280.555 368.638C280.147 368.734 279.653 368.842 279.062 368.982C277.763 369.272 275.872 369.637 273.531 370.067C268.848 370.915 262.339 371.882 255.121 372.581C247.892 373.279 241.319 373.558 236.561 373.634C234.187 373.666 232.254 373.666 230.932 373.634C230.32 373.612 229.815 373.601 229.396 373.591C229.042 373.569 228.859 373.558 228.859 373.537C228.859 373.515 229.042 373.494 229.396 373.483C229.815 373.472 230.32 373.451 230.922 373.429C232.339 373.386 234.241 373.322 236.55 373.258C241.297 373.086 247.849 372.742 255.067 372.044C262.274 371.345 268.783 370.432 273.466 369.691C275.744 369.315 277.623 369.014 279.019 368.788C279.621 368.691 280.126 368.616 280.534 368.552C280.878 368.509 281.06 368.487 281.071 368.509V368.477Z" fill="#263238"/>
<path d="M268.933 179.03C268.933 179.03 268.966 179.137 269.009 179.341C269.052 179.578 269.105 179.879 269.17 180.255C269.299 181.06 269.492 182.253 269.707 183.779C270.083 186.841 270.749 191.331 270.265 196.886C270.136 198.272 269.943 199.722 269.621 201.205C269.32 202.688 268.912 204.224 268.332 205.76C267.773 207.308 267.032 208.844 266.141 210.348C265.26 211.863 264.197 213.324 262.961 214.699C260.523 217.471 257.333 219.856 253.617 221.403C249.89 222.929 245.636 223.531 241.394 223.112C237.151 222.703 233.112 221.382 229.6 219.427C226.077 217.471 223.156 214.796 220.911 211.863C216.41 205.943 214.702 199.207 214.466 193.674C214.262 188.087 215.368 183.66 216.056 180.652C216.421 179.148 216.732 177.988 216.947 177.193C217.055 176.827 217.13 176.526 217.205 176.301C217.27 176.097 217.302 176 217.312 176C217.312 176 217.312 176.107 217.259 176.312C217.205 176.548 217.141 176.849 217.055 177.214C216.861 178.052 216.604 179.212 216.271 180.695C215.648 183.703 214.606 188.13 214.864 193.641C215.154 199.099 216.883 205.739 221.33 211.53C223.542 214.399 226.41 217.02 229.869 218.922C233.316 220.834 237.291 222.123 241.447 222.532C245.615 222.951 249.75 222.36 253.402 220.877C257.043 219.362 260.169 217.052 262.575 214.334C263.788 212.991 264.841 211.551 265.711 210.069C266.592 208.597 267.333 207.093 267.892 205.578C268.472 204.074 268.88 202.559 269.191 201.087C269.524 199.626 269.717 198.186 269.868 196.822C270.394 191.321 269.793 186.841 269.481 183.779C269.299 182.274 269.159 181.093 269.052 180.244C269.009 179.868 268.976 179.556 268.944 179.32C268.923 179.116 268.923 179.008 268.923 179.008L268.933 179.03Z" fill="white"/>
<path d="M308.512 201.912C308.566 201.988 307.707 202.707 306.45 203.986C305.204 205.265 303.571 207.177 302.401 209.637C301.219 212.098 300.693 214.547 300.467 216.32C300.231 218.103 300.22 219.221 300.113 219.221C300.07 219.221 300.048 218.941 300.027 218.436C299.995 217.932 300.016 217.19 300.07 216.277C300.199 214.461 300.671 211.926 301.896 209.39C303.11 206.844 304.839 204.921 306.171 203.696C307.524 202.46 308.469 201.848 308.501 201.902L308.512 201.912Z" fill="#263238"/>
<path d="M216.312 107.007C216.935 101.946 217.558 96.8429 219.331 92.0619C221.103 87.2809 224.143 82.8007 228.568 80.2866C234.765 76.7626 242.617 77.6436 249.212 80.3618C251.36 81.2428 253.519 82.3279 255.839 82.2742C258.116 82.2205 260.2 81.0817 262.294 80.1684C268.223 77.5792 275.119 76.7519 281.209 78.9329C287.299 81.1139 292.348 86.6362 292.96 93.0825C293.271 96.3164 292.713 100.141 295.14 102.301C296.741 103.719 299.147 103.859 300.833 105.159C302.401 106.373 303.121 108.586 302.562 110.488C302.004 112.389 300.21 113.872 298.244 114.055C300.672 116.45 300.65 120.888 298.191 123.251C295.731 125.626 291.306 125.486 288.996 122.961" fill="#263238"/>
<path d="M216.312 107.007C216.935 101.946 217.558 96.8429 219.331 92.0619C221.103 87.2809 224.143 82.8007 228.568 80.2866C234.765 76.7626 242.617 77.6436 249.212 80.3618C251.36 81.2428 253.519 82.3279 255.839 82.2742C258.116 82.2205 260.2 81.0817 262.294 80.1684C268.223 77.5792 275.119 76.7519 281.209 78.9329C287.299 81.1139 292.348 86.6362 292.96 93.0825C293.271 96.3164 292.713 100.141 295.14 102.301C296.741 103.719 299.147 103.859 300.833 105.159C302.401 106.373 303.121 108.586 302.562 110.488C302.004 112.389 300.21 113.872 298.244 114.055C300.672 116.45 300.65 120.888 298.191 123.251C295.731 125.626 291.306 125.486 288.996 122.961" fill="#263238"/>
<path d="M257.871 158.81C257.989 159.09 258.129 159.369 258.269 159.637C260.245 163.494 263.832 166.503 267.978 167.76C272.414 169.103 277.43 168.415 281.34 165.923C284.68 163.785 287.301 159.895 286.528 156.006C287.881 157.908 290.867 158.09 292.79 156.78C294.712 155.469 295.647 153.051 295.744 150.72C295.84 148.389 295.217 146.1 294.594 143.855C296.42 145.617 299.578 145.584 301.576 144.027C303.574 142.458 304.401 139.654 303.885 137.172C303.37 134.679 301.662 132.541 299.535 131.156C301.479 131.263 303.466 130.371 304.669 128.846C305.872 127.309 306.28 125.182 305.722 123.313C304.68 119.874 300.942 118.07 297.462 117.146C293.993 116.222 290.191 115.684 287.538 113.267C285.529 111.451 284.466 108.787 284.079 106.101C283.692 103.426 283.929 100.697 284.165 98L271.544 98.3331L257.882 158.81H257.871Z" fill="#263238"/>
<path d="M237.516 167.366C235.486 171.685 230.491 174.393 225.765 173.748C221.039 173.103 216.957 169.139 216.173 164.444C212.564 166.84 207.398 166.582 204.036 163.842C200.685 161.092 199.407 156.074 201.05 152.067C199.128 154.076 195.465 153.496 193.714 151.336C191.963 149.177 191.867 146.04 192.769 143.407C193.682 140.775 195.443 138.551 197.173 136.37C194.444 136.692 191.92 134.189 191.609 131.449C191.308 128.71 192.801 126.024 194.885 124.23C196.969 122.435 199.589 121.404 202.189 120.491C204.788 119.577 207.441 118.739 209.761 117.246C212.07 115.753 215.712 108.769 216.152 106.051L229.062 104.805L237.505 167.366H237.516Z" fill="#263238"/>
<path d="M266.569 144.596C266.773 144.865 264.851 146.132 262.294 145.531C259.727 144.951 258.546 142.974 258.847 142.823C259.115 142.598 260.458 143.876 262.563 144.327C264.657 144.843 266.43 144.274 266.569 144.596Z" fill="#263238"/>
<path d="M224.593 95.3937L224.389 101.84L220.748 198.363C220.329 209.569 229.62 218.851 241.618 219.217C253.733 219.582 264.045 210.718 264.657 199.405C265.301 187.533 266.193 175.038 266.193 175.038C266.193 175.038 281.617 173.276 285.806 153.486C287.89 143.644 288.223 127.335 288.072 113.991C287.933 101.98 277.825 92.5036 265.838 93.1482L224.593 95.383V95.3937Z" fill="#FFBE9D"/>
<path d="M281.651 125.111C281.63 126.464 280.47 127.56 279.052 127.571C277.645 127.571 276.506 126.486 276.528 125.132C276.549 123.778 277.709 122.683 279.127 122.672C280.545 122.672 281.673 123.768 281.651 125.121V125.111Z" fill="#263238"/>
<path d="M284.12 122.278C283.787 122.601 281.918 121.064 279.168 120.924C276.419 120.753 274.324 122.063 274.045 121.709C273.905 121.548 274.26 120.967 275.173 120.366C276.075 119.775 277.579 119.227 279.297 119.324C281.016 119.42 282.423 120.129 283.218 120.817C284.034 121.515 284.292 122.128 284.12 122.267V122.278Z" fill="#263238"/>
<path d="M253.292 123.704C253.27 125.058 252.11 126.154 250.692 126.165C249.285 126.165 248.147 125.08 248.168 123.726C248.19 122.372 249.35 121.276 250.768 121.266C252.185 121.266 253.313 122.361 253.292 123.715V123.704Z" fill="#263238"/>
<path d="M257.018 121.403C256.685 121.726 254.817 120.189 252.067 120.049C249.317 119.878 247.223 121.188 246.943 120.834C246.804 120.673 247.158 120.092 248.071 119.491C248.974 118.9 250.477 118.352 252.196 118.449C253.914 118.545 255.321 119.254 256.116 119.942C256.933 120.64 257.19 121.253 257.018 121.392V121.403Z" fill="#263238"/>
<path d="M265.965 142.347C265.965 142.186 267.684 141.982 270.477 141.767C271.185 141.735 271.851 141.628 272.002 141.155C272.195 140.65 271.937 139.876 271.637 139.049C271.067 137.309 270.466 135.493 269.832 133.591C267.329 125.813 265.568 119.442 265.879 119.345C266.191 119.248 268.468 125.469 270.971 133.247C271.572 135.16 272.141 136.986 272.689 138.738C272.915 139.554 273.323 140.478 272.915 141.52C272.7 142.036 272.163 142.39 271.701 142.487C271.239 142.605 270.852 142.584 270.498 142.595C267.695 142.595 265.965 142.53 265.965 142.369V142.347Z" fill="#263238"/>
<path d="M266.202 175.037C266.202 175.037 252.733 175.22 239.844 166.539C239.844 166.539 245.622 180.581 265.697 179.733L266.213 175.037H266.202Z" fill="#EB996E"/>
<path d="M257.774 143.836C258.225 143.836 258.074 146.823 260.523 149.079C262.972 151.336 266.173 151.164 266.173 151.583C266.205 151.776 265.432 152.131 264.089 152.098C262.768 152.077 260.867 151.55 259.363 150.175C257.87 148.789 257.29 147.027 257.247 145.792C257.194 144.535 257.57 143.815 257.774 143.836Z" fill="#263238"/>
<path d="M258.289 110.654C257.978 111.384 255.25 110.89 251.995 111.116C248.741 111.277 246.088 112.083 245.69 111.395C245.518 111.062 246.002 110.385 247.097 109.708C248.182 109.042 249.879 108.43 251.834 108.322C253.789 108.215 255.54 108.612 256.7 109.15C257.86 109.687 258.429 110.31 258.289 110.654Z" fill="#263238"/>
<path d="M283.516 114.253C283.001 114.855 281.132 114.103 278.855 113.963C276.578 113.737 274.623 114.167 274.204 113.49C274.021 113.157 274.365 112.555 275.235 112.007C276.094 111.46 277.512 111.051 279.08 111.18C280.648 111.309 281.969 111.943 282.732 112.631C283.505 113.318 283.742 113.974 283.505 114.264L283.516 114.253Z" fill="#263238"/>
<path d="M287.259 102.419C287.259 102.419 276.787 107.619 263.017 100.915C253.984 96.5103 243.479 94.426 241.191 96.2524C238.903 98.0789 238.506 107.351 229.623 110.144C229.623 110.144 230.407 127.818 223.361 127.259C216.304 126.7 222.169 91.8474 222.169 91.8474L237.604 90.6764L256.379 86.9375L274.134 89.2582L287.893 92.8788L287.28 102.409L287.259 102.419Z" fill="#263238"/>
<path d="M224.692 121.605C224.402 121.455 213.049 117.329 212.673 129.169C212.297 140.998 224.251 138.946 224.284 138.602C224.316 138.258 224.692 121.605 224.692 121.605Z" fill="#FFBE9D"/>
<path d="M220.803 134C220.803 134 220.588 134.14 220.245 134.29C219.901 134.43 219.31 134.527 218.709 134.269C217.473 133.775 216.485 131.755 216.496 129.617C216.496 128.543 216.754 127.522 217.162 126.684C217.549 125.835 218.129 125.244 218.762 125.147C219.396 125.019 219.826 125.416 219.965 125.749C220.116 126.082 220.03 126.319 220.094 126.34C220.126 126.372 220.352 126.147 220.277 125.663C220.234 125.427 220.105 125.147 219.836 124.911C219.557 124.675 219.149 124.535 218.709 124.578C217.796 124.61 216.947 125.427 216.496 126.34C215.991 127.264 215.68 128.403 215.68 129.617C215.68 132.002 216.829 134.269 218.526 134.828C219.353 135.075 220.051 134.838 220.416 134.57C220.792 134.29 220.868 134.022 220.825 134H220.803Z" fill="#EB996E"/>
<path d="M279.867 78.8076C279.867 78.8076 280.297 78.7646 281.059 78.9151C281.822 79.0655 282.896 79.4415 284.077 80.1936C285.237 80.9564 286.483 82.1167 287.439 83.7068C288.406 85.2862 289.029 87.2738 289.233 89.3796C289.63 93.6556 288.331 97.3945 287.289 99.9085C286.752 101.176 286.258 102.165 285.893 102.842C285.527 103.518 285.313 103.884 285.28 103.862C285.194 103.819 285.946 102.294 286.924 99.7581C287.869 97.2333 289.061 93.5589 288.675 89.4333C288.481 87.392 287.89 85.4903 286.988 83.9647C286.097 82.439 284.937 81.2895 283.841 80.5159C281.618 78.958 279.813 78.9258 279.856 78.7969L279.867 78.8076Z" fill="#455A64"/>
<path d="M229.589 79.8594C229.589 79.8594 229.696 79.9238 229.847 80.085C229.986 80.2569 230.19 80.5255 230.351 80.9338C230.674 81.7288 230.749 83.061 230.147 84.49C229.557 85.9296 228.257 87.2404 227.011 88.7123C225.776 90.195 224.745 92.1074 224.229 94.2776C223.703 96.4479 223.746 98.6181 224.197 100.498C224.637 102.378 225.453 103.958 226.27 105.172C227.956 107.6 229.61 108.556 229.524 108.642C229.514 108.664 229.095 108.459 228.429 107.944C227.763 107.439 226.85 106.612 225.948 105.397C225.056 104.183 224.175 102.572 223.692 100.616C223.198 98.6719 223.133 96.4049 223.692 94.1487C224.229 91.8925 225.325 89.9049 226.624 88.39C227.935 86.8966 229.202 85.6611 229.793 84.3396C230.405 83.0288 230.394 81.7825 230.147 81.0197C229.9 80.2462 229.546 79.9131 229.599 79.8809L229.589 79.8594Z" fill="#455A64"/>
<path d="M146.891 279.081C146.891 279.081 152.455 285.409 155.506 289.288C159.2 293.983 162.616 297.066 164.743 297.571C166.869 298.076 176.01 300.257 176.01 300.257C176.01 300.257 176.01 304.995 170.747 304.426C165.484 303.856 164.367 302.9 164.367 302.9C164.367 302.9 172.562 324.775 171.338 325.838C169.189 327.697 166.816 322.626 166.816 322.626L159.179 308.659L159.694 315.696C159.823 317.404 158.556 318.909 156.859 319.07C155.463 319.199 154.152 318.382 153.647 317.071L151.22 312.398L151.542 314.536C151.778 316.115 150.769 317.619 149.211 317.985C147.965 318.275 146.676 317.77 145.968 316.695L143.046 312.269L143.529 314.127C143.841 315.331 143.111 316.556 141.897 316.835C140.887 317.071 139.856 316.566 139.416 315.621L127.762 290.545L146.902 279.07L146.891 279.081Z" fill="#FFBE9D"/>
<path d="M157.548 285.012C140.373 252.415 118.462 205.207 115.551 198.889C120.449 199.029 124.133 199.695 125.701 200.039C125.895 200.018 126.077 199.996 126.271 199.975L123.661 174.555C112.877 176.037 102.297 178.261 92.5656 181.506C78.3338 186.255 69.8163 200.533 69.7304 214.5C69.6981 215.08 69.7196 215.682 69.7626 216.305C69.8163 217.433 69.913 218.561 70.0741 219.668C70.1278 219.593 70.1922 219.528 70.2459 219.453C76.1105 245.142 128.172 299.216 128.172 299.216L157.559 284.991L157.548 285.012Z" fill="#1735F5"/>
<path d="M102.445 191.124C102.445 191.071 103.444 191.006 105.034 191.296C106.613 191.576 108.772 192.285 110.866 193.596C112.961 194.917 114.529 196.55 115.474 197.861C116.419 199.172 116.806 200.096 116.752 200.128C116.666 200.171 116.172 199.322 115.163 198.108C114.164 196.894 112.596 195.358 110.576 194.068C108.546 192.8 106.484 192.048 104.948 191.672C103.423 191.296 102.435 191.21 102.445 191.114V191.124Z" fill="#263238"/>
<path d="M93.6406 201.063C93.6406 201.063 93.8769 200.827 94.371 200.472C94.8544 200.107 95.617 199.667 96.5944 199.194C97.5611 198.71 98.7855 198.259 100.171 197.883C101.567 197.528 103.136 197.271 104.79 197.206C106.455 197.152 108.033 197.303 109.451 197.55C110.858 197.829 112.104 198.195 113.114 198.603C114.124 199.011 114.908 199.398 115.423 199.72C115.939 200.032 116.218 200.225 116.197 200.257C116.143 200.354 114.994 199.677 112.985 198.979C111.986 198.624 110.751 198.302 109.376 198.066C107.991 197.851 106.444 197.722 104.833 197.776C103.211 197.84 101.686 198.087 100.321 198.399C98.9574 198.743 97.7544 199.14 96.7877 199.57C94.8329 200.408 93.7266 201.171 93.6728 201.085L93.6406 201.063Z" fill="#263238"/>
<path d="M156.195 283.077C156.195 283.077 155.808 283.356 155.056 283.775C154.304 284.194 153.209 284.774 151.834 285.473C149.095 286.869 145.261 288.685 140.943 290.533C136.625 292.37 132.651 293.864 129.751 294.874C128.301 295.379 127.119 295.765 126.292 296.012C125.465 296.26 125.014 296.389 124.992 296.346C124.982 296.313 125.411 296.12 126.217 295.808C127.13 295.454 128.258 295.024 129.611 294.498C132.479 293.391 136.421 291.844 140.728 290.007C145.035 288.169 148.891 286.407 151.662 285.107C152.972 284.495 154.079 283.979 154.96 283.571C155.744 283.217 156.184 283.034 156.195 283.066V283.077Z" fill="white"/>
<path d="M153.595 280.23C153.595 280.23 153.219 280.51 152.478 280.929C151.748 281.348 150.663 281.928 149.331 282.626C146.657 284.023 142.919 285.882 138.73 287.815C134.541 289.749 130.706 291.393 127.903 292.521C126.507 293.091 125.368 293.531 124.573 293.821C123.778 294.111 123.338 294.262 123.317 294.219C123.306 294.186 123.725 293.972 124.487 293.617C125.368 293.22 126.453 292.736 127.753 292.156C130.513 290.931 134.315 289.234 138.504 287.31C142.682 285.377 146.442 283.582 149.159 282.272C150.437 281.659 151.522 281.143 152.392 280.735C153.155 280.381 153.595 280.198 153.606 280.23H153.595Z" fill="white"/>
<path d="M252.41 246.281C234.159 246.281 219.363 261.081 219.363 279.337C219.363 297.594 234.159 312.393 252.41 312.393C270.661 312.393 285.457 297.594 285.457 279.337C285.457 261.081 270.661 246.281 252.41 246.281Z" stroke="#03123A" stroke-width="0.5"/>
<path d="M250.777 264.504C250.837 264.773 250.781 265.067 250.625 265.311L248.535 268.478C247.198 270.521 246.18 271.388 243.625 271.388C242.921 271.388 239.413 271.2 239.413 267.517V260.218C239.413 259.796 239.755 259.453 240.177 259.453C240.599 259.453 240.942 259.796 240.942 260.218V263.564C240.942 263.765 241.105 263.928 241.306 263.928C241.507 263.928 241.67 263.765 241.67 263.564V258.807C241.67 258.385 242.013 258.041 242.435 258.041C242.857 258.041 243.199 258.385 243.199 258.807V263C243.199 263.201 243.363 263.365 243.564 263.365C243.765 263.365 243.928 263.201 243.928 263V258.242C243.928 257.82 244.269 257.477 244.691 257.477C245.113 257.477 245.457 257.82 245.457 258.242V263C245.457 263.201 245.619 263.365 245.82 263.365C246.021 263.365 246.184 263.201 246.184 263V259.371C246.184 258.95 246.527 258.606 246.949 258.606C247.371 258.606 247.714 258.95 247.714 259.371V266.074L249.004 264.307C249.32 263.822 249.937 263.656 250.379 263.93C250.582 264.058 250.721 264.26 250.774 264.503L250.777 264.504Z" fill="#95CFF3"/>
<path d="M243.644 273.761C245.157 273.761 246.522 273.377 247.748 272.629V284.481C247.748 285.831 248.19 286.915 249.073 287.727C249.956 288.541 251.072 288.948 252.424 288.948C253.843 288.948 254.977 288.541 255.825 287.727C256.674 286.913 257.097 285.831 257.097 284.481V269H265.406V284.481C265.406 288.048 264.204 290.949 261.797 293.182C259.391 295.416 256.265 296.534 252.424 296.534C248.582 296.534 245.542 295.416 243.102 293.182C240.661 290.949 239.441 288.048 239.441 284.481V272.565C240.694 273.356 242.092 273.759 243.646 273.759L243.644 273.761Z" fill="#95CFF3"/>
</svg>
