<svg width="32" height="33" viewBox="0 0 32 33" fill="none" xmlns="http://www.w3.org/2000/svg">
<rect y="0.25" width="32" height="32" rx="4" fill="#F38816"/>
<path d="M14.2513 14.2505C14.2513 13.5605 13.692 13.0012 13.002 13.0012C12.312 13.0012 11.7527 13.5605 11.7527 14.2505C11.7527 14.9405 12.312 15.4998 13.002 15.4998C13.692 15.4998 14.2513 14.9405 14.2513 14.2505ZM20.2513 14.2505C20.2513 13.5605 19.692 13.0012 19.002 13.0012C18.312 13.0012 17.7527 13.5605 17.7527 14.2505C17.7527 14.9405 18.312 15.4998 19.002 15.4998C19.692 15.4998 20.2513 14.9405 20.2513 14.2505ZM19.7516 18.2501C18.9011 18.2501 17.9949 18.4644 17.21 18.7699C16.4339 19.0719 15.6967 19.4942 15.2212 19.9697C14.9283 20.2626 14.9283 20.7375 15.2212 21.0304C15.5141 21.3233 15.989 21.3233 16.2819 21.0304C16.5564 20.7559 17.0848 20.4282 17.754 20.1677C18.4144 19.9107 19.1333 19.7501 19.7516 19.7501H20.3516C20.7658 19.7501 21.1016 19.4143 21.1016 19.0001C21.1016 18.5858 20.7658 18.2501 20.3516 18.2501H19.7516ZM26.0031 16.2506C26.0031 10.7269 21.5253 6.24902 16.0016 6.24902C10.4778 6.24902 6 10.7269 6 16.2506C6 21.7743 10.4778 26.2521 16.0016 26.2521C21.5253 26.2521 26.0031 21.7743 26.0031 16.2506ZM7.5 16.2506C7.5 11.5553 11.3063 7.74902 16.0016 7.74902C20.6968 7.74902 24.5031 11.5553 24.5031 16.2506C24.5031 20.9459 20.6968 24.7521 16.0016 24.7521C11.3063 24.7521 7.5 20.9459 7.5 16.2506Z" fill="white"/>
</svg>
