<svg width="32" height="32" viewBox="0 0 32 32" fill="none" xmlns="http://www.w3.org/2000/svg">
<rect width="32" height="32" rx="4" fill="#71D472"/>
<path d="M15.9996 6C21.5233 6 26.0011 10.4778 26.0011 16.0016C26.0011 21.5253 21.5233 26.0031 15.9996 26.0031C10.4759 26.0031 5.99805 21.5253 5.99805 16.0016C5.99805 10.4778 10.4759 6 15.9996 6ZM15.9996 7.5C11.3043 7.5 7.49805 11.3063 7.49805 16.0016C7.49805 20.6968 11.3043 24.5031 15.9996 24.5031C20.6949 24.5031 24.5011 20.6968 24.5011 16.0016C24.5011 11.3063 20.6949 7.5 15.9996 7.5ZM12.4613 18.7849C13.3105 19.8626 14.6015 20.5031 15.9996 20.5031C17.3958 20.5031 18.6853 19.8643 19.5345 18.789C19.7913 18.464 20.2629 18.4086 20.588 18.6653C20.913 18.9221 20.9684 19.3937 20.7117 19.7187C19.5809 21.1504 17.8597 22.0031 15.9996 22.0031C14.1369 22.0031 12.4137 21.1481 11.2831 19.7132C11.0268 19.3878 11.0827 18.9163 11.4081 18.6599C11.7334 18.4036 12.205 18.4595 12.4613 18.7849ZM13 12.7522C13.69 12.7522 14.2493 13.3115 14.2493 14.0015C14.2493 14.6914 13.69 15.2508 13 15.2508C12.3101 15.2508 11.7508 14.6914 11.7508 14.0015C11.7508 13.3115 12.3101 12.7522 13 12.7522ZM19 12.7522C19.69 12.7522 20.2493 13.3115 20.2493 14.0015C20.2493 14.6914 19.69 15.2508 19 15.2508C18.3101 15.2508 17.7508 14.6914 17.7508 14.0015C17.7508 13.3115 18.3101 12.7522 19 12.7522Z" fill="white"/>
</svg>
