<svg width="24" height="25" viewBox="0 0 24 25" fill="none" xmlns="http://www.w3.org/2000/svg">
<rect y="0.25" width="24" height="24" rx="3" fill="#F38816"/>
<path d="M9.99904 10.0838C10.459 10.0838 10.8319 10.4567 10.8319 10.9167C10.8319 11.3767 10.459 11.7495 9.99904 11.7495C9.53906 11.7495 9.16618 11.3767 9.16618 10.9167C9.16618 10.4567 9.53906 10.0838 9.99904 10.0838ZM13.999 10.0838C14.459 10.0838 14.8319 10.4567 14.8319 10.9167C14.8319 11.3767 14.459 11.7495 13.999 11.7495C13.5391 11.7495 13.1662 11.3767 13.1662 10.9167C13.1662 10.4567 13.5391 10.0838 13.999 10.0838ZM9.4987 14.2497C9.22256 14.2497 8.9987 14.4735 8.9987 14.7497C8.9987 15.0258 9.22256 15.2497 9.4987 15.2497H14.4987C14.7748 15.2497 14.9987 15.0258 14.9987 14.7497C14.9987 14.4735 14.7748 14.2497 14.4987 14.2497H9.4987ZM5.33203 12.2497C5.33203 8.56778 8.3168 5.58301 11.9987 5.58301C15.6806 5.58301 18.6654 8.56778 18.6654 12.2497C18.6654 15.9316 15.6806 18.9163 11.9987 18.9163C8.3168 18.9163 5.33203 15.9316 5.33203 12.2497ZM11.9987 6.58301C8.86908 6.58301 6.33203 9.12006 6.33203 12.2497C6.33203 15.3793 8.86908 17.9163 11.9987 17.9163C15.1283 17.9163 17.6654 15.3793 17.6654 12.2497C17.6654 9.12006 15.1283 6.58301 11.9987 6.58301Z" fill="white"/>
</svg>
