<svg width="28" height="29" viewBox="0 0 28 29" fill="none" xmlns="http://www.w3.org/2000/svg">
<path d="M15.3018 4.41766C14.7699 3.33995 13.2332 3.33995 12.7013 4.41766L10.0103 9.87018L3.99308 10.7446C2.80376 10.9174 2.32887 12.3789 3.18947 13.2178L7.54357 17.462L6.5157 23.4549C6.31254 24.6394 7.55582 25.5427 8.61958 24.9835L13.1674 22.5925C13.0577 22.0821 13 21.5525 13 21.0093C13 16.8672 16.3579 13.5093 20.5 13.5093C21.6661 13.5093 22.7701 13.7754 23.7544 14.2503L24.8136 13.2178C25.6742 12.3789 25.1993 10.9174 24.01 10.7446L17.9928 9.87018L15.3018 4.41766Z" fill="#FED403"/>
<path d="M20 14.5078C23.3137 14.5078 26 17.1941 26 20.5078C26 23.8215 23.3137 26.5078 20 26.5078C16.6863 26.5078 14 23.8215 14 20.5078C14 17.1941 16.6863 14.5078 20 14.5078ZM22.1203 18.6718L19.2495 21.5502L17.8536 20.1543C17.6583 19.959 17.3417 19.959 17.1464 20.1543C16.9512 20.3495 16.9512 20.6661 17.1464 20.8614L18.8964 22.6114C19.0919 22.8068 19.4088 22.8066 19.604 22.6109L22.8283 19.378C23.0233 19.1824 23.0229 18.8658 22.8274 18.6708C22.6319 18.4758 22.3153 18.4763 22.1203 18.6718Z" fill="#71D472"/>
</svg>
