<svg width="24" height="24" viewBox="0 0 24 24" fill="none" xmlns="http://www.w3.org/2000/svg">
<path d="M12 2C17.5228 2 22 6.47715 22 12C22 17.5228 17.5228 22 12 22C6.47715 22 2 17.5228 2 12C2 6.47715 6.47715 2 12 2ZM12 3.5C7.30558 3.5 3.5 7.30558 3.5 12C3.5 16.6944 7.30558 20.5 12 20.5C16.6944 20.5 20.5 16.6944 20.5 12C20.5 7.30558 16.6944 3.5 12 3.5ZM11.6471 7.55308L11.7197 7.46897C11.9859 7.2027 12.4026 7.17849 12.6962 7.39635L12.7803 7.46897L16.7812 11.4698C17.0475 11.7361 17.0716 12.1528 16.8537 12.4464L16.7811 12.5306L12.7795 16.5306C12.4866 16.8234 12.0117 16.8233 11.7189 16.5303C11.4526 16.264 11.4285 15.8474 11.6464 15.5538L11.7191 15.4697L14.441 12.749L7.7493 12.7493C7.3696 12.7493 7.05581 12.4671 7.00614 12.1011L6.9993 11.9993C6.9993 11.6196 7.28145 11.3058 7.64753 11.2561L7.7493 11.2493L14.439 11.249L11.7197 8.52963C11.4534 8.26336 11.4292 7.8467 11.6471 7.55308L11.7197 7.46897L11.6471 7.55308Z" fill="#212121"/>
</svg>
