<svg width="20" height="20" viewBox="0 0 20 20" fill="none" xmlns="http://www.w3.org/2000/svg">
<path d="M4.83012 10.4848L10.487 4.8279C11.6585 3.65633 13.558 3.65633 14.7296 4.8279C15.9012 5.99947 15.9012 7.89897 14.7296 9.07054L8.0121 15.7881C7.42631 16.3738 6.47656 16.3738 5.89078 15.7881C5.30499 15.2023 5.30499 14.2525 5.89078 13.6667L11.9012 7.65633C12.0964 7.46106 12.0964 7.14448 11.9012 6.94922C11.7059 6.75396 11.3893 6.75396 11.1941 6.94922L5.18367 12.9596C4.20736 13.9359 4.20736 15.5189 5.18367 16.4952C6.15998 17.4715 7.74289 17.4715 8.7192 16.4952L15.4367 9.77765C16.9988 8.21555 16.9988 5.68289 15.4367 4.12079C13.8746 2.55869 11.342 2.55869 9.77986 4.12079L4.12301 9.77765C3.92775 9.97291 3.92775 10.2895 4.12301 10.4848C4.31827 10.68 4.63485 10.68 4.83012 10.4848Z" fill="#263043"/>
</svg>
