<svg width="24" height="24" viewBox="0 0 24 24" fill="none" xmlns="http://www.w3.org/2000/svg">
<path fill-rule="evenodd" clip-rule="evenodd" d="M16.7828 5.71011C18.0056 6.39464 18.9425 7.50269 18.9425 9.04564V14.2305L21.5582 17.1593C22.5549 18.2753 21.7559 20.0353 20.2525 20.0353H4.74751C3.24414 20.0353 2.44511 18.2753 3.4418 17.1593L6.05749 14.2305V9.04558C6.05749 7.50265 6.99444 6.39462 8.21717 5.7101C9.42634 5.03318 10.9858 4.71765 12.5 4.71765C14.0142 4.71765 15.5737 5.03318 16.7828 5.71011ZM8.95215 7.00093C8.03924 7.512 7.55243 8.19734 7.55243 9.04558V14.3246C7.55243 14.627 7.4406 14.9178 7.2393 15.1432L4.56098 18.1421C4.4186 18.3015 4.53275 18.5529 4.74751 18.5529H20.2525C20.4673 18.5529 20.5814 18.3015 20.439 18.1421L17.7607 15.1432C17.5594 14.9178 17.4476 14.627 17.4476 14.3246V9.04564C17.4476 8.19737 16.9608 7.51201 16.0478 7.00094C15.1214 6.48227 13.8333 6.2 12.5 6.2C11.1667 6.2 9.87862 6.48227 8.95215 7.00093Z" fill="#263043"/>
<path d="M14.4933 3.97647C14.4933 5.06805 13.6008 5.95294 12.5 5.95294C11.3992 5.95294 10.5067 5.06805 10.5067 3.97647C10.5067 2.8849 11.3992 2 12.5 2C13.6008 2 14.4933 2.8849 14.4933 3.97647Z" fill="#263043"/>
<path fill-rule="evenodd" clip-rule="evenodd" d="M8.26431 18.5529H16.7353V19.2941C16.7353 20.3171 16.2562 21.2702 15.4526 21.9532C14.6525 22.6332 13.5889 23 12.4996 23C11.4153 23 10.3255 22.6362 9.52187 21.9532C8.70605 21.2598 8.26431 20.302 8.26431 19.2941V18.5529ZM9.90675 20.0353C10.0277 20.3264 10.2233 20.597 10.4948 20.8277C10.9995 21.2567 11.7336 21.5176 12.4996 21.5176C13.2605 21.5176 13.9714 21.2597 14.4797 20.8277C14.7548 20.5939 14.9559 20.3227 15.0821 20.0353H9.90675Z" fill="#263043"/>
</svg>
