<svg width="32" height="32" viewBox="0 0 32 32" fill="none" xmlns="http://www.w3.org/2000/svg">
<rect width="32" height="32" rx="4" fill="#0F9079"/>
<path d="M21.7545 17.9992C22.5344 17.9992 23.2215 18.3962 23.6249 18.999H17.5002C16.9372 18.999 16.4177 19.1851 15.9998 19.4992H10.2528C9.83919 19.4992 9.50391 19.8345 9.50391 20.2481V20.8258C9.50391 21.3614 9.69502 21.8795 10.0429 22.2869C11.138 23.5693 12.7771 24.3006 15.0002 24.4648V25.499C15.0002 25.6604 15.0155 25.8182 15.0447 25.971C12.3677 25.8023 10.3058 24.9047 8.90219 23.2609C8.32242 22.582 8.00391 21.7185 8.00391 20.8258V20.2481C8.00391 19.0061 9.01076 17.9992 10.2528 17.9992H21.7545ZM16.0004 6.00391C18.7618 6.00391 21.0004 8.24248 21.0004 11.0039C21.0004 13.7653 18.7618 16.0039 16.0004 16.0039C13.2389 16.0039 11.0004 13.7653 11.0004 11.0039C11.0004 8.24248 13.2389 6.00391 16.0004 6.00391ZM16.0004 7.50391C14.0674 7.50391 12.5004 9.07091 12.5004 11.0039C12.5004 12.9369 14.0674 14.5039 16.0004 14.5039C17.9334 14.5039 19.5004 12.9369 19.5004 11.0039C19.5004 9.07091 17.9334 7.50391 16.0004 7.50391ZM16.0002 21.499C16.0002 20.6706 16.6718 19.999 17.5002 19.999H25.5002C26.3287 19.999 27.0002 20.6706 27.0002 21.499V25.499C27.0002 26.3274 26.3287 26.999 25.5002 26.999H17.5002C16.6718 26.999 16.0002 26.3274 16.0002 25.499V21.499ZM26.0002 21.999C25.448 21.999 25.0002 21.5513 25.0002 20.999H24.0002C24.0002 22.1036 24.8957 22.999 26.0002 22.999V21.999ZM26.0002 23.999C24.8957 23.999 24.0002 24.8945 24.0002 25.999H25.0002C25.0002 25.4467 25.448 24.999 26.0002 24.999V23.999ZM18.0002 20.999C18.0002 21.5513 17.5525 21.999 17.0002 21.999V22.999C18.1048 22.999 19.0002 22.1036 19.0002 20.999H18.0002ZM19.0002 25.999C19.0002 24.8945 18.1048 23.999 17.0002 23.999V24.999C17.5525 24.999 18.0002 25.4467 18.0002 25.999H19.0002ZM23.2502 23.499C23.2502 22.5325 22.4667 21.749 21.5002 21.749C20.5337 21.749 19.7502 22.5325 19.7502 23.499C19.7502 24.4655 20.5337 25.249 21.5002 25.249C22.4667 25.249 23.2502 24.4655 23.2502 23.499Z" fill="white"/>
</svg>
