<svg width="20" height="20" viewBox="0 0 20 20" fill="none" xmlns="http://www.w3.org/2000/svg">
<path d="M8.461 1.89897L9.45065 2.28845C9.80368 2.42739 10.1962 2.42739 10.5493 2.28845L11.5389 1.89897C12.7503 1.42225 14.1216 1.99027 14.6411 3.18391L15.0654 4.15911C15.2168 4.50698 15.4944 4.78457 15.8423 4.93595L16.8175 5.36034C18.0111 5.8798 18.5792 7.25112 18.1024 8.46246L17.7129 9.45212C17.574 9.80515 17.574 10.1977 17.7129 10.5507L18.1024 11.5404C18.5792 12.7517 18.0111 14.1231 16.8175 14.6425L15.8423 15.0669C15.4944 15.2183 15.2168 15.4959 15.0654 15.8438L14.6411 16.819C14.1216 18.0126 12.7503 18.5806 11.5389 18.1039L10.5493 17.7144C10.1962 17.5755 9.80368 17.5755 9.45065 17.7144L8.461 18.1039C7.24966 18.5806 5.87833 18.0126 5.35888 16.819L4.93449 15.8438C4.7831 15.4959 4.50551 15.2183 4.15764 15.0669L3.18245 14.6425C1.9888 14.1231 1.42078 12.7517 1.89751 11.5404L2.28698 10.5507C2.42592 10.1977 2.42592 9.80515 2.28698 9.45212L1.89751 8.46246C1.42078 7.25112 1.9888 5.8798 3.18245 5.36034L4.15764 4.93595C4.50551 4.78457 4.7831 4.50698 4.93449 4.15911L5.35888 3.18391C5.87833 1.99027 7.24966 1.42225 8.461 1.89897ZM12.6263 7.66925L8.97856 11.7729L7.35352 10.1479C7.15826 9.95262 6.84168 9.95262 6.64641 10.1479C6.45115 10.3431 6.45115 10.6597 6.64641 10.855L8.64641 12.855C8.84984 13.0584 9.18254 13.0486 9.37367 12.8336L13.3737 8.33361C13.5571 8.12722 13.5385 7.81119 13.3321 7.62773C13.1258 7.44427 12.8097 7.46286 12.6263 7.66925Z" fill="#71D472"/>
</svg>
