<svg width="28" height="28" viewBox="0 0 28 28" fill="none" xmlns="http://www.w3.org/2000/svg">
<path d="M8.4002 4.19922C6.0806 4.19922 4.2002 6.07962 4.2002 8.39922V19.5992C4.2002 21.9188 6.0806 23.7992 8.4002 23.7992H15.4535C15.4178 23.5669 15.4002 23.3328 15.4002 23.0992C15.4002 22.8595 15.4243 22.6254 15.4702 22.3992H8.4002C6.8538 22.3992 5.6002 21.1456 5.6002 19.5992V8.39922C5.6002 6.85282 6.8538 5.59922 8.4002 5.59922H19.6002C21.1466 5.59922 22.4002 6.85282 22.4002 8.39922V12.6573C22.9027 12.7416 23.375 12.9152 23.8002 13.1611V8.39922C23.8002 6.07962 21.9198 4.19922 19.6002 4.19922H8.4002ZM19.3952 10.9942C19.6685 10.7208 19.6685 10.2776 19.3952 10.0042C19.1218 9.73088 18.6786 9.73088 18.4052 10.0042L11.9002 16.5093L9.59517 14.2042C9.3218 13.9309 8.87859 13.9309 8.60522 14.2042C8.33185 14.4776 8.33185 14.9208 8.60522 15.1942L11.4052 17.9942C11.6786 18.2676 12.1218 18.2676 12.3952 17.9942L19.3952 10.9942ZM24.5002 16.7992C24.5002 18.3456 23.2466 19.5992 21.7002 19.5992C20.1538 19.5992 18.9002 18.3456 18.9002 16.7992C18.9002 15.2528 20.1538 13.9992 21.7002 13.9992C23.2466 13.9992 24.5002 15.2528 24.5002 16.7992ZM26.6002 23.0992C26.6002 24.8425 25.2002 26.5992 21.7002 26.5992C18.2002 26.5992 16.8002 24.8491 16.8002 23.0992C16.8002 21.9394 17.7404 20.9992 18.9002 20.9992H24.5002C25.66 20.9992 26.6002 21.9394 26.6002 23.0992Z" fill="#71D472"/>
</svg>
