<svg width="32" height="32" viewBox="0 0 32 32" fill="none" xmlns="http://www.w3.org/2000/svg">
<rect width="32" height="32" rx="4" fill="#8120FF"/>
<path d="M16 6C21.5228 6 26 10.4772 26 16C26 21.5228 21.5228 26 16 26C10.4772 26 6 21.5228 6 16C6 10.4772 10.4772 6 16 6ZM16 7.5C11.3056 7.5 7.5 11.3056 7.5 16C7.5 20.6944 11.3056 24.5 16 24.5C20.6944 24.5 24.5 20.6944 24.5 16C24.5 11.3056 20.6944 7.5 16 7.5ZM14.75 17.4393L19.2197 12.9697C19.5126 12.6768 19.9874 12.6768 20.2803 12.9697C20.5466 13.2359 20.5708 13.6526 20.3529 13.9462L20.2803 14.0303L15.2803 19.0303C15.0141 19.2966 14.5974 19.3208 14.3038 19.1029L14.2197 19.0303L11.7197 16.5303C11.4268 16.2374 11.4268 15.7626 11.7197 15.4697C11.9859 15.2034 12.4026 15.1792 12.6962 15.3971L12.7803 15.4697L14.75 17.4393L19.2197 12.9697L14.75 17.4393Z" fill="white"/>
</svg>
