<svg width="24" height="24" viewBox="0 0 24 24" fill="none" xmlns="http://www.w3.org/2000/svg">
<path d="M16.4996 17.9813C16.4996 20.4232 15.3595 22.1799 13.4932 22.1799C12.5183 22.1799 12.1518 21.6372 11.8021 20.3841L11.596 19.6123C11.495 19.2535 11.3192 18.6428 11.069 17.7813C11.0623 17.7582 11.0524 17.7364 11.0396 17.7164L8.17281 13.2307C7.49476 12.1697 6.49429 11.3542 5.31841 10.904L4.84513 10.7228C3.5984 10.2455 2.87457 8.94171 3.1287 7.63114L3.53319 5.54506C3.77462 4.29997 4.71828 3.30907 5.9501 3.00715L13.5778 1.13762C16.109 0.517232 18.6674 2.05216 19.3113 4.57749L20.7262 10.1267C21.1697 11.8659 20.1192 13.6354 18.3799 14.0789C18.1175 14.1458 17.8478 14.1796 17.5769 14.1796H15.7536C16.2497 15.8125 16.4996 17.0723 16.4996 17.9813ZM4.60127 7.91668C4.48576 8.51239 4.81477 9.10502 5.38147 9.32199L5.85475 9.5032C7.33036 10.0682 8.58585 11.0915 9.43674 12.4229L12.3035 16.9086C12.3935 17.0495 12.4629 17.2025 12.5095 17.3631L13.0614 19.2834L13.2731 20.0747C13.4125 20.5627 13.4827 20.6799 13.4932 20.6799C14.3609 20.6799 14.9996 19.6959 14.9996 17.9813C14.9996 17.0968 14.6738 15.6458 14.0158 13.6662C13.8544 13.1807 14.2158 12.6796 14.7275 12.6796H17.5769C17.7228 12.6796 17.868 12.6614 18.0093 12.6254C18.9459 12.3866 19.5115 11.4338 19.2727 10.4973L17.8578 4.9481C17.4172 3.22024 15.6668 2.17002 13.9349 2.5945L6.30718 4.46403C5.64389 4.6266 5.13577 5.16017 5.00577 5.8306L4.60127 7.91668Z" fill="#03123A"/>
</svg>
