<svg width="16" height="16" viewBox="0 0 16 16" fill="none" xmlns="http://www.w3.org/2000/svg">
<path d="M8.00005 1.60156V5.20156C8.00005 5.8643 8.53731 6.40156 9.20005 6.40156H12.8V13.2016C12.8 13.8643 12.2628 14.4016 11.6 14.4016H7.79432C8.4226 13.6408 8.80005 12.6653 8.80005 11.6016C8.80005 9.17151 6.8301 7.20156 4.40005 7.20156C3.98404 7.20156 3.58151 7.2593 3.20005 7.36719V2.80156C3.20005 2.13882 3.73731 1.60156 4.40005 1.60156H8.00005ZM8.80005 1.80156V5.20156C8.80005 5.42248 8.97914 5.60156 9.20005 5.60156H12.6L8.80005 1.80156ZM8.00005 11.6016C8.00005 13.5898 6.38827 15.2016 4.40005 15.2016C2.41182 15.2016 0.800049 13.5898 0.800049 11.6016C0.800049 9.61334 2.41182 8.00156 4.40005 8.00156C6.38827 8.00156 8.00005 9.61334 8.00005 11.6016ZM6.28289 10.1187C6.12668 9.96251 5.87342 9.96251 5.71721 10.1187L3.60005 12.2359L3.08289 11.7187C2.92668 11.5625 2.67342 11.5625 2.51721 11.7187C2.361 11.8749 2.361 12.1282 2.51721 12.2844L3.31721 13.0844C3.47342 13.2406 3.72668 13.2406 3.88289 13.0844L6.28289 10.6844C6.4391 10.5282 6.4391 10.2749 6.28289 10.1187Z" fill="#71D472"/>
</svg>
