<svg width="16" height="16" viewBox="0 0 16 16" fill="none" xmlns="http://www.w3.org/2000/svg">
<path d="M8.00005 5.20156V1.60156H4.40005C3.73731 1.60156 3.20005 2.13882 3.20005 2.80156V7.36719C3.58151 7.2593 3.98404 7.20156 4.40005 7.20156C5.34198 7.20156 6.21477 7.49754 6.93051 8.00156H10.8C11.021 8.00156 11.2 8.18065 11.2 8.40156C11.2 8.62248 11.021 8.80156 10.8 8.80156H7.79432C7.99722 9.04725 8.17396 9.31534 8.32028 9.60156H10.8C11.021 9.60156 11.2 9.78065 11.2 10.0016C11.2 10.2225 11.021 10.4016 10.8 10.4016H8.63442C8.70735 10.6594 8.75735 10.9268 8.78211 11.2016H10.8C11.021 11.2016 11.2 11.3806 11.2 11.6016C11.2 11.8225 11.021 12.0016 10.8 12.0016H8.78211C8.70033 12.9091 8.34295 13.7372 7.79432 14.4016H11.6C12.2628 14.4016 12.8 13.8643 12.8 13.2016V6.40156H9.20005C8.53731 6.40156 8.00005 5.8643 8.00005 5.20156ZM8.80005 5.20156V1.80156L12.6 5.60156H9.20005C8.97914 5.60156 8.80005 5.42248 8.80005 5.20156ZM4.40005 15.2016C6.38827 15.2016 8.00005 13.5898 8.00005 11.6016C8.00005 9.61334 6.38827 8.00156 4.40005 8.00156C2.41182 8.00156 0.800049 9.61334 0.800049 11.6016C0.800049 13.5898 2.41182 15.2016 4.40005 15.2016ZM4.00005 10.0016C4.00005 9.78065 4.17914 9.60156 4.40005 9.60156C4.62096 9.60156 4.80005 9.78065 4.80005 10.0016V11.2016H5.60005C5.82096 11.2016 6.00005 11.3806 6.00005 11.6016C6.00005 11.8225 5.82096 12.0016 5.60005 12.0016H4.40005C4.17914 12.0016 4.00005 11.8225 4.00005 11.6016V10.0016Z" fill="#1AA0FF"/>
</svg>
