<svg width="16" height="16" viewBox="0 0 16 16" fill="none" xmlns="http://www.w3.org/2000/svg">
<path d="M8.99995 4.5V1H5.49995C4.67152 1 3.99995 1.67157 3.99995 2.5V5.20703C4.47678 5.07217 4.97994 5 5.49995 5C8.53751 5 10.9999 7.46243 10.9999 10.5C10.9999 12.3602 10.0765 14.0046 8.66303 15H12.4999C13.3284 15 13.9999 14.3284 13.9999 13.5V6H10.4999C9.67152 6 8.99995 5.32843 8.99995 4.5ZM9.99995 4.5V1.25L13.7499 5H10.4999C10.2238 5 9.99995 4.77614 9.99995 4.5ZM2.31826 7.31802C0.560904 9.07538 0.560904 11.9246 2.31826 13.682C4.07562 15.4393 6.92487 15.4393 8.68222 13.682C10.4396 11.9246 10.4396 9.07538 8.68222 7.31802C6.92487 5.56066 4.07562 5.56066 2.31826 7.31802ZM7.26801 12.2678C7.07275 12.463 6.75617 12.463 6.5609 12.2678L5.50024 11.2071L4.43958 12.2678C4.24432 12.463 3.92774 12.463 3.73248 12.2678C3.53722 12.0725 3.53721 11.7559 3.73248 11.5607L4.79314 10.5L3.73248 9.43934C3.53722 9.24408 3.53722 8.9275 3.73248 8.73223C3.92774 8.53697 4.24432 8.53697 4.43958 8.73223L5.50024 9.79289L6.5609 8.73223C6.75617 8.53697 7.07275 8.53697 7.26801 8.73223C7.46327 8.9275 7.46327 9.24408 7.26801 9.43934L6.20735 10.5L7.26801 11.5607C7.46327 11.7559 7.46327 12.0725 7.26801 12.2678Z" fill="#EB4D3D"/>
</svg>
