<svg width="28" height="28" viewBox="0 0 28 28" fill="none" xmlns="http://www.w3.org/2000/svg">
<path d="M21.5827 23.332C21.5827 23.6529 21.3214 23.9154 20.9993 23.9154H14.3118C13.9767 24.5582 13.5522 25.1471 13.0548 25.6654H20.9993C22.2873 25.6654 23.3327 24.62 23.3327 23.332V11.4647C23.3327 10.8464 23.0865 10.2525 22.649 9.81503L15.8485 3.0157C15.8311 2.99825 15.8113 2.98313 15.7917 2.96809C15.7772 2.95698 15.7627 2.94593 15.7493 2.93403C15.6665 2.85936 15.5849 2.78586 15.4938 2.72403C15.4644 2.70413 15.4321 2.68842 15.4 2.67278C15.3812 2.66367 15.3626 2.65458 15.3445 2.6447C15.325 2.63372 15.3056 2.62249 15.2862 2.61125C15.223 2.57466 15.1594 2.53792 15.0925 2.50936C14.8627 2.4137 14.6153 2.36586 14.3645 2.34836C14.3415 2.3469 14.3187 2.34379 14.2959 2.34068C14.2643 2.33636 14.2325 2.33203 14.2 2.33203H6.99935C5.71135 2.33203 4.66602 3.37736 4.66602 4.66536V13.4132C5.21922 13.1825 5.8056 13.0155 6.41602 12.9212V4.66536C6.41602 4.34453 6.67735 4.08203 6.99935 4.08203H13.9993V9.33203C13.9993 10.62 15.0447 11.6654 16.3327 11.6654H21.5827V23.332ZM15.7493 5.38986L20.2737 9.91537H16.3327C16.0107 9.91537 15.7493 9.65286 15.7493 9.33203V5.38986Z" fill="#71D472"/>
<path d="M13.9993 20.4154C13.9993 23.9592 11.1265 26.832 7.58268 26.832C4.03886 26.832 1.16602 23.9592 1.16602 20.4154C1.16602 16.8715 4.03886 13.9987 7.58268 13.9987C11.1265 13.9987 13.9993 16.8715 13.9993 20.4154ZM11.4952 17.6696C11.2674 17.4417 10.898 17.4417 10.6702 17.6696L6.41602 21.9237L4.49516 20.0029C4.26736 19.7751 3.89801 19.7751 3.6702 20.0029C3.4424 20.2307 3.4424 20.6 3.6702 20.8278L6.00354 23.1612C6.23134 23.389 6.60069 23.389 6.8285 23.1612L11.4952 18.4945C11.723 18.2667 11.723 17.8974 11.4952 17.6696Z" fill="#71D472"/>
</svg>
