<svg width="28" height="28" viewBox="0 0 28 28" fill="none" xmlns="http://www.w3.org/2000/svg">
<path d="M15.001 20.0009C15.001 20.5532 14.5533 21.0009 14.001 21.0009C13.4487 21.0009 13.001 20.5532 13.001 20.0009C13.001 19.4486 13.4487 19.0009 14.001 19.0009C14.5533 19.0009 15.001 19.4486 15.001 20.0009ZM13.251 16.7509C13.251 17.1651 13.5868 17.5009 14.001 17.5009C14.4152 17.5009 14.751 17.1651 14.751 16.7509V10.2509C14.751 9.83668 14.4152 9.50089 14.001 9.50089C13.5868 9.50089 13.251 9.83668 13.251 10.2509V16.7509ZM11.5935 4.17137C12.639 2.27656 15.3623 2.27612 16.4085 4.1706L25.6589 20.9215C26.6711 22.7543 25.3454 25.0009 23.2516 25.0009H4.75784C2.66449 25.0009 1.33871 22.7551 2.35009 20.9223L11.5935 4.17137ZM15.0954 4.89573C14.6199 4.0346 13.382 4.0348 12.9068 4.89608L3.66341 21.647C3.20369 22.4801 3.80631 23.5009 4.75784 23.5009H23.2516C24.2033 23.5009 24.8059 22.4797 24.3458 21.6466L15.0954 4.89573Z" fill="#EB4D3D"/>
</svg>
