<svg width="20" height="20" viewBox="0 0 20 20" fill="none" xmlns="http://www.w3.org/2000/svg">
<path d="M3.4499 2.58756C3.2749 2.67923 3.1249 2.92506 3.1249 3.12089C3.1249 3.37923 3.1374 3.39589 4.40407 4.77506L4.79157 5.19589L4.4874 5.39589C3.67907 5.93339 2.74157 6.78756 2.07907 7.59589C1.64157 8.12923 1.0874 8.95423 0.812403 9.47923C0.554069 9.9709 0.562403 10.0834 0.895736 10.6751C2.59574 13.7084 5.3124 15.6584 8.52074 16.1501C9.28324 16.2667 10.8707 16.2584 11.6041 16.1334C12.4374 15.9876 13.1874 15.7751 14.0041 15.4376C14.0541 15.4209 14.2957 15.6584 14.9624 16.3917C15.4999 16.9834 15.9124 17.4001 15.9957 17.4417C16.1749 17.5292 16.4499 17.5001 16.6166 17.3834C16.8332 17.2251 16.9332 16.9042 16.8374 16.6542C16.7791 16.5042 4.22907 2.70423 4.0499 2.59589C3.8624 2.47923 3.65407 2.47923 3.4499 2.58756ZM6.27907 6.84589C6.61657 7.21673 6.92907 7.56256 6.96657 7.60839C7.0374 7.68756 7.03324 7.70006 6.89157 7.91256C6.6749 8.22923 6.4749 8.67923 6.36657 9.06256C6.2374 9.53756 6.2374 10.4584 6.36657 10.9376C6.6499 11.9792 7.3624 12.8584 8.3124 13.3334C8.94157 13.6501 9.26657 13.7251 10.0207 13.7251C10.5791 13.7209 10.6832 13.7084 11.0166 13.6084C11.2249 13.5459 11.5374 13.4209 11.7124 13.3334L12.0332 13.1709L13.1707 14.4167L13.0249 14.4792C12.9457 14.5126 12.7166 14.5876 12.5166 14.6459C10.2749 15.2959 7.70824 15.0209 5.7749 13.9292C4.27074 13.0751 2.92907 11.7334 2.0874 10.2376L1.9499 10.0001L2.08324 9.7584C2.5874 8.86256 3.50407 7.76673 4.33324 7.07506C4.71657 6.75423 5.5499 6.16673 5.6249 6.16673C5.64574 6.16673 5.9374 6.47089 6.27907 6.84589ZM9.5124 10.3959C10.3791 11.3501 11.0957 12.1542 11.1082 12.1834C11.1332 12.2501 10.7791 12.3959 10.4416 12.4626C9.15824 12.7042 7.83324 11.8126 7.5624 10.5209C7.48324 10.1501 7.48324 9.85006 7.5624 9.4834C7.6249 9.18756 7.84157 8.66673 7.90407 8.66673C7.9249 8.66673 8.64574 9.4459 9.5124 10.3959Z" fill="#BEBEBE"/>
<path d="M9.1874 3.77506C9.12074 3.78339 8.88324 3.81256 8.66657 3.83756C8.19574 3.89173 8.05407 3.94589 7.90407 4.12089C7.75407 4.30006 7.7249 4.50006 7.8124 4.72923C7.95407 5.10839 8.1624 5.15839 9.0999 5.05006C10.2624 4.92089 11.6249 5.06256 12.7749 5.43756C13.3291 5.61673 14.2124 6.04173 14.6999 6.3584C15.9666 7.1834 17.1916 8.47923 17.9166 9.7584L18.0499 10.0001L17.9124 10.2376C17.5124 10.9542 16.9707 11.6584 16.2666 12.3751C15.9832 12.6626 15.7332 12.9542 15.7082 13.0209C15.5416 13.4584 15.9541 13.9042 16.4374 13.8167C16.8416 13.7376 18.1499 12.2667 18.8791 11.0626C19.4749 10.0792 19.4832 10.0001 19.1041 9.32089C18.3999 8.06673 17.3124 6.77506 16.2291 5.91673C14.8582 4.82923 13.2207 4.11256 11.4999 3.85423C11.0874 3.78756 9.47074 3.73339 9.1874 3.77506Z" fill="#BEBEBE"/>
<path d="M10.3916 6.33756C10.3166 6.3584 10.1999 6.44173 10.1332 6.5209C9.80407 6.89173 9.97907 7.41673 10.4707 7.54173C11.0749 7.70006 11.4416 7.90423 11.8124 8.30006C12.1457 8.65423 12.3499 9.0584 12.4541 9.57923C12.4999 9.79173 12.5707 10.0167 12.6124 10.0792C12.8666 10.4251 13.3624 10.4001 13.6416 10.0251C13.8166 9.79173 13.6916 9.03756 13.3624 8.35423C12.9041 7.4084 12.0541 6.6959 11.0166 6.3959C10.6291 6.2834 10.5874 6.27923 10.3916 6.33756Z" fill="#BEBEBE"/>
</svg>
