<svg width="42" height="43" viewBox="0 0 42 43" fill="none" xmlns="http://www.w3.org/2000/svg">
<rect y="0.5" width="42" height="42" rx="21" fill="#71D472"/>
<path d="M21 13.5C18.7909 13.5 17 15.2909 17 17.5C17 19.7091 18.7909 21.5 21 21.5C23.2091 21.5 25 19.7091 25 17.5C25 15.2909 23.2091 13.5 21 13.5ZM16.0087 22.5C14.9032 22.5 14 23.3869 14 24.5C14 26.1912 14.8328 27.4663 16.135 28.2966C17.1832 28.965 18.5298 29.3449 20 29.4612V25.5C20 24.3954 20.8954 23.5 22 23.5H27.7324C27.3866 22.9022 26.7402 22.5 26 22.5L16.0087 22.5ZM30 26V29C30 29.8284 29.3284 30.5 28.5 30.5H22.5C21.6716 30.5 21 29.8284 21 29V26C21 25.1716 21.6716 24.5 22.5 24.5H28.5C29.3284 24.5 30 25.1716 30 26ZM29 29V28C28.1716 28 27.5 28.6716 27.5 29.5H28.5C28.5 29.2239 28.7239 29 29 29ZM29 26C28.7239 26 28.5 25.7761 28.5 25.5H27.5C27.5 26.3284 28.1716 27 29 27V26ZM22.5 25.5C22.5 25.7761 22.2761 26 22 26L22 27C22.8285 27 23.5 26.3284 23.5 25.5H22.5ZM22 29C22.2761 29 22.5 29.2239 22.5 29.5H23.5C23.5 28.6716 22.8284 28 22 28V29ZM25.5 26C24.6716 26 24 26.6716 24 27.5C24 28.3284 24.6716 29 25.5 29C26.3285 29 27 28.3284 27 27.5C27 26.6716 26.3285 26 25.5 26Z" fill="white"/>
</svg>
