<svg width="152" height="126" viewBox="0 0 152 126" fill="none" xmlns="http://www.w3.org/2000/svg">
<path d="M2.21484 55.2969L24.8559 58.5045L23.1281 70.7008L9.75031 68.8055C5.89835 67.2756 1.8046 58.9757 2.21484 55.2969Z" fill="#AFAFAF"/>
<path d="M149.781 55.2969L127.14 58.5045L128.868 70.7008L142.246 68.8055C146.098 67.2756 150.191 58.9757 149.781 55.2969Z" fill="#AFAFAF"/>
<path d="M71.9922 5.3094C74.4674 3.88034 77.517 3.88034 79.9922 5.3094L123.954 30.6906C126.429 32.1197 127.954 34.7607 127.954 37.6188V88.3812C127.954 91.2393 126.429 93.8803 123.954 95.3094L79.9922 120.691C77.517 122.12 74.4674 122.12 71.9922 120.691L28.0307 95.3094C25.5555 93.8803 24.0307 91.2393 24.0307 88.3812V37.6188C24.0307 34.7607 25.5555 32.1197 28.0307 30.6906L71.9922 5.3094Z" fill="#F1F1F1" stroke="#AFAFAF" stroke-width="8"/>
<path d="M81.2456 59.2139L75.2136 65.2456L65.7376 55.7692L71.7695 49.7375L81.2456 59.2139Z" fill="#8F8F8F" stroke="#AFAFAF" stroke-width="0.302826"/>
<path d="M77.4135 63.0459L75.2128 65.2466L65.7367 55.7702L67.9375 53.5695L77.4135 63.0459Z" fill="#808080" stroke="#AFAFAF" stroke-width="0.302826"/>
<path d="M79.9561 56.2607C80.0389 56.2608 80.1212 56.2729 80.2002 56.2969L80.2773 56.3252C80.3539 56.3569 80.4254 56.3997 80.4893 56.4521L80.5508 56.5068V56.5078L107.424 83.3799C109.603 85.5593 109.641 89.0829 107.536 91.3086L107.325 91.5195C105.15 93.5931 101.725 93.5506 99.5137 91.5469L99.3027 91.3467L72.5068 64.5508C72.4483 64.4923 72.3993 64.4252 72.3604 64.3525L72.3252 64.2773C72.283 64.1754 72.2608 64.0664 72.2607 63.9561L72.2646 63.873C72.2701 63.8184 72.2809 63.7644 72.2969 63.7119L72.3252 63.6338C72.3569 63.5574 72.3999 63.4865 72.4521 63.4229L72.5068 63.3613L72.8115 63.0576L79.0576 56.8115L79.3613 56.5068C79.4199 56.4483 79.4869 56.3992 79.5596 56.3604L79.6338 56.3252C79.7102 56.2935 79.791 56.2728 79.873 56.2646L79.9561 56.2607Z" fill="#999999" stroke="#AFAFAF" stroke-width="0.302826"/>
<path d="M74.2646 61.6514C74.2647 61.7637 74.281 61.8753 74.3135 61.9824L74.3516 62.0889C74.3948 62.1931 74.4531 62.2901 74.5244 62.377L74.5996 62.46L101.396 89.2559C103.204 91.0642 105.901 91.5324 108.125 90.5693C107.935 90.8534 107.72 91.1207 107.481 91.3662L107.325 91.5205C105.15 93.5945 101.725 93.552 99.5137 91.5479L99.3027 91.3477L72.5068 64.5518C72.4483 64.4932 72.3992 64.4263 72.3604 64.3535L72.3252 64.2793C72.2829 64.1773 72.2607 64.0675 72.2607 63.957L72.2646 63.875C72.27 63.8204 72.281 63.7664 72.2969 63.7139L72.3252 63.6357C72.357 63.5591 72.3997 63.4877 72.4521 63.4238L72.5068 63.3633V63.3623L72.8115 63.0586L74.2666 61.6025C74.2659 61.6187 74.2646 61.6352 74.2646 61.6514Z" fill="#7D7D7D" stroke="#AFAFAF" stroke-width="0.302826"/>
<path d="M70.3682 37.4932C75.0631 32.7985 82.4553 31.4144 88.5703 34.8496C85.7784 36.1349 82.8369 38.1828 80.292 40.4121C77.6807 42.6996 75.4748 45.1868 74.2734 47.25L67.9805 50.7705L64.0908 48.0479L67.4629 40.3975L70.3682 37.4932Z" fill="#8F8F8F" stroke="#AFAFAF" stroke-width="0.302826"/>
<path d="M63.6709 51.7812L65.1367 59.6406L65.0059 59.8369C63.6399 59.2294 61.8313 59.6026 60.4424 60.8154L60.1631 61.0771C58.7666 62.4737 58.2915 64.3997 58.8994 65.8516L51.5078 64.3486L48.9346 55.8652C50.2891 56.4149 52.0444 56.0339 53.4004 54.8477L53.6768 54.5898C55.0924 53.174 55.5642 51.2106 54.918 49.752L55.127 49.6465L63.6709 51.7812ZM72.4043 43.7041C75.1717 37.739 81.5404 33.9125 88.3896 34.9307C85.6524 36.2201 82.7835 38.2274 80.2939 40.4082C77.7381 42.6471 75.5719 45.0785 74.3545 47.1152L72.2617 45.0225L71.9424 44.7012L72.4043 43.7051V43.7041Z" fill="#808080" stroke="#AFAFAF" stroke-width="0.302826"/>
<path d="M48.0654 55.333C48.2412 55.4888 48.4348 55.622 48.6426 55.7314L48.627 55.7666L48.583 55.8623L48.6582 55.9375L58.8457 66.126L58.9209 66.2002L59.0156 66.1562L59.0381 66.1455C59.1422 66.3362 59.2669 66.5143 59.4102 66.6777L54.3164 71.7715L42.9717 60.4268L48.0654 55.333Z" fill="#8F8F8F" stroke="#AFAFAF" stroke-width="0.302826"/>
<path d="M56.251 63.4746L56.2285 63.5039L59.4102 66.6855L54.3223 71.7734L51.1357 68.5869L56.249 63.4736L56.251 63.4746Z" fill="#808080" stroke="#AFAFAF" stroke-width="0.302826"/>
<path d="M63.7344 39.6699C64.4462 38.9581 65.5727 38.9138 66.3359 39.5371L66.4844 39.6709L67.2305 40.4199L72.0469 45.2422L75.0752 48.2705C75.7867 48.982 75.8314 50.1079 75.209 50.8711L75.0752 51.0186L74.2754 51.8184L74.2744 51.8174L74.168 51.9248L67.9219 58.1709L67.8145 58.2773L67.8154 58.2783L65.7637 60.3291C65.6131 60.1972 65.4502 60.0806 65.2764 59.9814L65.4229 59.7637L65.4912 59.6611L55.2148 49.3848L55.1377 49.3066L55.04 49.3564L54.7793 49.4883C54.6771 49.3079 54.5575 49.1385 54.4199 48.9834L63.7344 39.6699Z" fill="#8F8F8F" stroke="#AFAFAF" stroke-width="0.302826"/>
</svg>
