<svg width="157" height="127" viewBox="0 0 157 127" fill="none" xmlns="http://www.w3.org/2000/svg">
<path d="M9.50781 61.125L24.6805 63.2745L23.5226 71.4478L14.5576 70.1777C11.9763 69.1524 9.2329 63.5903 9.50781 61.125Z" fill="#EFA628"/>
<path d="M13.8945 72.2109L27.6496 74.1596L26.5999 81.5692L18.4725 80.4178C16.1324 79.4883 13.6453 74.4459 13.8945 72.2109Z" fill="#EFA628"/>
<path d="M4.88281 45.8984L27.5239 49.106L25.7961 61.3023L12.4183 59.4071C8.56632 57.8771 4.47257 49.5773 4.88281 45.8984Z" fill="#EFA628"/>
<path d="M147.82 61.125L132.648 63.2745L133.806 71.4478L142.77 70.1777C145.352 69.1524 148.095 63.5903 147.82 61.125Z" fill="#EFA628"/>
<path d="M143.434 72.2109L129.678 74.1596L130.728 81.5692L138.856 80.4178C141.196 79.4883 143.683 74.4459 143.434 72.2109Z" fill="#EFA628"/>
<path d="M152.445 45.8984L129.804 49.106L131.532 61.3023L144.91 59.4071C148.762 57.8771 152.856 49.5773 152.445 45.8984Z" fill="#EFA628"/>
<path d="M74.6602 5.76252C77.1354 4.33346 80.1849 4.33346 82.6602 5.76253L126.622 31.1437C129.097 32.5728 130.622 35.2138 130.622 38.0719V88.8343C130.622 91.6925 129.097 94.3335 126.622 95.7625L82.6602 121.144C80.1849 122.573 77.1354 122.573 74.6602 121.144L30.6986 95.7625C28.2234 94.3335 26.6986 91.6924 26.6986 88.8343V38.0719C26.6986 35.2138 28.2234 32.5728 30.6986 31.1437L74.6602 5.76252Z" fill="#D9D9D9"/>
<path d="M74.6602 5.76252C77.1354 4.33346 80.1849 4.33346 82.6602 5.76253L126.622 31.1437C129.097 32.5728 130.622 35.2138 130.622 38.0719V88.8343C130.622 91.6925 129.097 94.3335 126.622 95.7625L82.6602 121.144C80.1849 122.573 77.1354 122.573 74.6602 121.144L30.6986 95.7625C28.2234 94.3335 26.6986 91.6924 26.6986 88.8343V38.0719C26.6986 35.2138 28.2234 32.5728 30.6986 31.1437L74.6602 5.76252Z" fill="url(#paint0_linear_23295_167150)"/>
<path d="M74.6602 5.76252C77.1354 4.33346 80.1849 4.33346 82.6602 5.76253L126.622 31.1437C129.097 32.5728 130.622 35.2138 130.622 38.0719V88.8343C130.622 91.6925 129.097 94.3335 126.622 95.7625L82.6602 121.144C80.1849 122.573 77.1354 122.573 74.6602 121.144L30.6986 95.7625C28.2234 94.3335 26.6986 91.6924 26.6986 88.8343V38.0719C26.6986 35.2138 28.2234 32.5728 30.6986 31.1437L74.6602 5.76252Z" stroke="black" stroke-width="8"/>
<path d="M74.6602 5.76252C77.1354 4.33346 80.1849 4.33346 82.6602 5.76253L126.622 31.1437C129.097 32.5728 130.622 35.2138 130.622 38.0719V88.8343C130.622 91.6925 129.097 94.3335 126.622 95.7625L82.6602 121.144C80.1849 122.573 77.1354 122.573 74.6602 121.144L30.6986 95.7625C28.2234 94.3335 26.6986 91.6924 26.6986 88.8343V38.0719C26.6986 35.2138 28.2234 32.5728 30.6986 31.1437L74.6602 5.76252Z" stroke="url(#paint1_linear_23295_167150)" stroke-width="8"/>
<g clip-path="url(#clip0_23295_167150)">
<path d="M101.951 45.7919V61.303C101.951 75.429 92.3577 87.7463 78.6552 91.2148C64.9757 87.7578 55.3828 75.429 55.3828 61.303V45.7919C66.1547 44.5784 72.2562 40.4803 78.6667 35.6953C85.0772 40.4803 91.1786 44.5784 101.951 45.7919Z" fill="#FFD15C"/>
<path d="M78.6617 85.091C68.3476 81.8171 61.2617 72.2471 61.2617 61.3035V50.7948C68.5079 49.2151 73.8309 46.296 78.6617 42.9648C83.5955 46.3876 88.8154 49.2494 96.0616 50.8063V61.3149C96.0616 72.2471 88.9757 81.8171 78.6617 85.091Z" fill="#F8B64C"/>
<path d="M74.8093 72.9439L69.0742 67.2088L71.9818 64.2897L74.8093 67.1058L85.3523 56.5742L88.2599 59.4818L74.8093 72.9439Z" fill="white"/>
</g>
<defs>
<linearGradient id="paint0_linear_23295_167150" x1="78.6602" y1="3.45312" x2="78.6602" y2="123.453" gradientUnits="userSpaceOnUse">
<stop stop-color="#F4FAFF"/>
<stop offset="1" stop-color="#C4D4FF"/>
</linearGradient>
<linearGradient id="paint1_linear_23295_167150" x1="20.6601" y1="6.14335" x2="108.961" y2="134.602" gradientUnits="userSpaceOnUse">
<stop offset="0.33" stop-color="#FCC84E"/>
<stop offset="0.3301" stop-color="#FEF04F"/>
<stop offset="0.45" stop-color="#FEF04F"/>
<stop offset="0.4501" stop-color="#FCC84E"/>
<stop offset="0.6149" stop-color="#FCC84E"/>
<stop offset="0.615" stop-color="#F59E1B"/>
<stop offset="0.72" stop-color="#F59E1B"/>
<stop offset="0.7201" stop-color="#FCC84E"/>
</linearGradient>
<clipPath id="clip0_23295_167150">
<rect width="55.5195" height="55.5195" fill="white" transform="translate(50.9062 35.6953)"/>
</clipPath>
</defs>
</svg>
