<svg width="131" height="100" viewBox="0 0 131 100" fill="none" xmlns="http://www.w3.org/2000/svg">
<g filter="url(#filter0_i_18985_138805)">
<path d="M113.997 45.4525C109.939 48.4679 103.605 47.1583 103.507 46.7933C103.408 46.4284 102.84 40.0755 108.523 37.4516C111.366 36.1387 116.071 35.4971 118.15 35.4297C120.964 35.4284 119.686 37.3947 118.913 39.0947C117.978 41.8263 118.054 42.4371 113.997 45.4525Z" fill="url(#paint0_linear_18985_138805)"/>
</g>
<path fill-rule="evenodd" clip-rule="evenodd" d="M119.733 35.9483C119.516 35.6257 119.036 35.4293 118.146 35.4297C116.066 35.4971 111.361 36.1387 108.518 37.4516C106.723 38.2804 105.552 39.4811 104.792 40.7477C106.395 39.6322 109.202 38.3734 112.505 37.3781C115.257 36.5488 117.824 36.0619 119.733 35.9483Z" fill="#FEF050"/>
<path d="M109.617 37.704C109.617 37.704 109.71 36.9216 107.433 36.4335C106.892 36.3176 106.574 36.2843 106.404 36.3009C105.941 36.3459 106.364 37.2196 105.971 37.469C105.431 37.8114 105.136 38.4341 105.214 39.0687L105.962 45.1618C106.075 46.0816 106.856 46.7727 107.782 46.7727C108.795 46.7727 109.617 45.9515 109.617 44.9385V37.704Z" fill="#D2753F"/>
<g filter="url(#filter1_i_18985_138805)">
<path d="M18.5737 45.3431C22.6255 48.3586 28.9617 47.0489 29.061 46.684C29.1603 46.319 29.7411 39.9661 24.0634 37.3423C21.2223 36.0293 16.5186 35.3878 14.4394 35.3203C11.6254 35.319 12.9004 37.2853 13.67 38.9853C14.5993 41.7169 14.5219 42.3277 18.5737 45.3431Z" fill="url(#paint1_linear_18985_138805)"/>
</g>
<path fill-rule="evenodd" clip-rule="evenodd" d="M12.8514 35.839C13.0686 35.5164 13.5496 35.3199 14.4397 35.3203C16.519 35.3878 21.2227 36.0293 24.0637 37.3423C25.8573 38.1712 27.0264 39.3722 27.7833 40.639C26.1834 39.5234 23.3777 38.2643 20.0759 37.2687C17.3255 36.4395 14.76 35.9527 12.8514 35.839Z" fill="#FEF050"/>
<path d="M23.6975 45.2095V37.1519C23.8217 36.1422 25.2896 35.8122 26.008 35.7734L25.8139 47.753C25.898 47.8307 25.8216 47.7919 24.8431 47.0152C23.8645 46.2386 23.6716 45.4878 23.6975 45.2095Z" fill="#D2753F"/>
<path d="M52.472 7.97119C59.3681 4.01123 62.8162 2.03125 66.6024 2.03125C70.3887 2.03125 73.8367 4.01123 80.7328 7.97119L94.3322 15.7803C101.228 19.7403 104.676 21.7203 106.57 24.9815C108.463 28.2428 108.463 32.2028 108.463 40.1227V55.741C108.463 63.6609 108.463 67.6209 106.57 70.8821C104.676 74.1434 101.228 76.1234 94.3322 80.0833L80.7328 87.8925C73.8367 91.8524 70.3887 93.8324 66.6024 93.8324C62.8162 93.8324 59.3681 91.8524 52.472 87.8925L38.8726 80.0833C31.9765 76.1234 28.5284 74.1434 26.6353 70.8821C24.7422 67.6209 24.7422 63.6609 24.7422 55.741V40.1227C24.7422 32.2028 24.7422 28.2428 26.6353 24.9815C28.5284 21.7203 31.9765 19.7403 38.8726 15.7803L52.472 7.97119Z" fill="url(#paint2_linear_18985_138805)"/>
<path fill-rule="evenodd" clip-rule="evenodd" d="M24.7422 55.7422V59.9766C24.7422 67.8965 24.7422 71.8565 26.6353 75.1177C28.5284 78.379 31.9765 80.3589 38.8726 84.3189L52.472 92.1281C59.3681 96.088 62.8162 98.068 66.6024 98.068C70.3886 98.068 73.8367 96.088 80.7328 92.1281L80.7328 92.1281L94.3322 84.3189C101.228 80.3589 104.676 78.379 106.57 75.1177C108.463 71.8565 108.463 67.8965 108.463 59.9767V59.9766V55.7423C108.463 63.6621 108.463 67.6221 106.57 70.8833C104.676 74.1446 101.228 76.1246 94.3322 80.0845L80.7328 87.8937L80.7328 87.8937C73.8367 91.8536 70.3886 93.8336 66.6024 93.8336C62.8162 93.8336 59.3681 91.8536 52.472 87.8937L38.8726 80.0845C31.9765 76.1246 28.5284 74.1446 26.6353 70.8833C24.7422 67.6221 24.7422 63.6621 24.7422 55.7422Z" fill="#D2753F"/>
<path d="M52.66 18.899C59.5364 14.9663 62.9746 13 66.7476 13C70.5206 13 73.9588 14.9663 80.8351 18.899L84.9351 21.2438C91.8516 25.1994 95.3098 27.1772 97.2091 30.4426C99.1084 33.7079 99.1084 37.6755 99.1084 45.6107V50.1037C99.1084 58.039 99.1084 62.0066 97.2091 65.2719C95.3098 68.5372 91.8516 70.515 84.9351 74.4706L80.8352 76.8154C73.9588 80.7481 70.5206 82.7145 66.7476 82.7145C62.9746 82.7145 59.5364 80.7481 52.66 76.8155L48.56 74.4706C41.6436 70.515 38.1853 68.5372 36.286 65.2719C34.3867 62.0066 34.3867 58.039 34.3867 50.1037V45.6107C34.3867 37.6755 34.3867 33.7079 36.286 30.4426C38.1853 27.1772 41.6436 25.1994 48.56 21.2439L52.66 18.899Z" fill="url(#paint3_linear_18985_138805)"/>
<path d="M52.66 18.899C59.5364 14.9663 62.9746 13 66.7476 13C70.5206 13 73.9588 14.9663 80.8351 18.899L84.9351 21.2438C91.8516 25.1994 95.3098 27.1772 97.2091 30.4426C99.1084 33.7079 99.1084 37.6755 99.1084 45.6107V50.1037C99.1084 58.039 99.1084 62.0066 97.2091 65.2719C95.3098 68.5372 91.8516 70.515 84.9351 74.4706L80.8352 76.8154C73.9588 80.7481 70.5206 82.7145 66.7476 82.7145C62.9746 82.7145 59.5364 80.7481 52.66 76.8155L48.56 74.4706C41.6436 70.515 38.1853 68.5372 36.286 65.2719C34.3867 62.0066 34.3867 58.039 34.3867 50.1037V45.6107C34.3867 37.6755 34.3867 33.7079 36.286 30.4426C38.1853 27.1772 41.6436 25.1994 48.56 21.2439L52.66 18.899Z" fill="url(#paint4_linear_18985_138805)" fill-opacity="0.8"/>
<path fill-rule="evenodd" clip-rule="evenodd" d="M66.7485 82.7187C70.5215 82.7187 73.9597 80.7524 80.8361 76.8197L84.9361 74.4749C91.8525 70.5193 95.3108 68.5415 97.2101 65.2762C99.1094 62.0109 99.1094 58.0433 99.1094 50.108L99.1094 48.6939C99.1094 56.6292 99.1094 60.5968 97.2101 63.8621C95.3108 67.1274 91.8525 69.1052 84.9361 73.0608L84.9361 73.0608L80.8361 75.4056C73.9597 79.3383 70.5215 81.3047 66.7485 81.3047C62.9755 81.3047 59.5373 79.3383 52.661 75.4057L48.561 73.0608C41.6445 69.1052 38.1863 67.1274 36.287 63.8621C34.3877 60.5968 34.3877 56.6292 34.3877 48.6939L34.3877 50.108C34.3877 58.0433 34.3877 62.0109 36.287 65.2762C38.1863 68.5415 41.6445 70.5193 48.561 74.4749L52.661 76.8197C59.5373 80.7524 62.9755 82.7187 66.7485 82.7187Z" fill="#FFF050"/>
<path fill-rule="evenodd" clip-rule="evenodd" d="M66.7476 13C62.9746 13 59.5364 14.9663 52.66 18.899L48.56 21.2439C41.6436 25.1994 38.1853 27.1772 36.286 30.4426C34.3867 33.7079 34.3867 37.6755 34.3867 45.6107V50.1037C34.3867 58.039 34.3867 62.0066 36.286 65.2719C36.629 65.8615 37.0228 66.4092 37.4785 66.934C35.8008 63.7413 35.8008 59.7801 35.8008 52.1663V47.6732C35.8008 39.738 35.8008 35.7704 37.7001 32.5051C39.5994 29.2397 43.0576 27.262 49.9741 23.3064L54.074 20.9615C60.9504 17.0288 64.3886 15.0625 68.1616 15.0625C71.9346 15.0625 75.3728 17.0288 82.2492 20.9615L86.3492 23.3063C92.0167 26.5477 95.3622 28.461 97.4306 30.8429C97.3598 30.7082 97.286 30.5748 97.2091 30.4426C95.3098 27.1772 91.8516 25.1994 84.9351 21.2438L80.8351 18.899C73.9588 14.9663 70.5206 13 66.7476 13Z" fill="#D2753F"/>
<mask id="mask0_18985_138805" style="mask-type:alpha" maskUnits="userSpaceOnUse" x="36" y="14" width="64" height="69">
<path d="M54.249 20.3254C60.8943 16.5199 64.2169 14.6172 67.8631 14.6172C71.5093 14.6172 74.832 16.5199 81.4773 20.3254L85.4394 22.5944C92.1235 26.422 95.4655 28.3358 97.301 31.4955C99.1364 34.6552 99.1364 38.4945 99.1364 46.1731V50.5208C99.1364 58.1993 99.1364 62.0386 97.301 65.1983C95.4655 68.358 92.1235 70.2718 85.4395 74.0995L81.4773 76.3684C74.832 80.1739 71.5093 82.0767 67.8631 82.0767C64.2169 82.0767 60.8943 80.1739 54.249 76.3684L50.2868 74.0995C43.6028 70.2718 40.2608 68.358 38.4253 65.1983C36.5898 62.0386 36.5898 58.1993 36.5898 50.5208V46.1731C36.5898 38.4945 36.5898 34.6552 38.4253 31.4955C40.2608 28.3358 43.6028 26.422 50.2868 22.5944L54.249 20.3254Z" fill="#D9D9D9"/>
</mask>
<g mask="url(#mask0_18985_138805)">
<rect x="-0.046875" y="-3.50781" width="151.16" height="141.978" fill="url(#paint5_linear_18985_138805)"/>
<path d="M124.731 93.4313C124.846 107.442 107.974 118.939 87.0462 119.112C66.118 119.284 49.0588 108.066 48.9434 94.0557C48.8279 80.0452 65.7 68.5477 86.6282 68.3753C107.556 68.2029 124.616 79.4208 124.731 93.4313Z" fill="url(#paint6_radial_18985_138805)"/>
<g filter="url(#filter2_d_18985_138805)">
<ellipse cx="90.7508" cy="61.4964" rx="16.7475" ry="1.72419" transform="rotate(-0.111123 90.7508 61.4964)" fill="url(#paint7_linear_18985_138805)" fill-opacity="0.01" shape-rendering="crispEdges"/>
</g>
<g filter="url(#filter3_d_18985_138805)">
<path d="M58.771 64.434L42.3267 42.0914L42.0742 37.6865L57.2302 37.0275L59.7605 35.4988L61.711 35.2351C64.4786 34.9364 71.1789 34.571 75.839 35.4988C80.4991 36.4267 86.1451 39.2943 88.3855 40.6121L92.7346 44.1178L94.2634 47.3598V48.7568L87.0149 45.769L79.6873 44.1178L71.885 43.965L68.2076 45.769L61.0609 47.2955L61.4078 51.9443L63.1425 58.6747L58.771 64.434Z" fill="#D9D9D9"/>
</g>
<path d="M70.0264 50.3942C69.2926 49.2905 67.6468 46.8395 66.9336 45.8643C67.3796 45.7066 68.3621 45.4538 68.7249 46.0373C69.1782 46.7666 71.0706 49.073 71.8985 50.2754C72.7265 51.4779 73.9092 53.0154 74.8357 54.3164C75.7621 55.6174 76.3929 57.2536 77.2209 58.594C78.0488 59.9344 80.7888 63.0293 81.9124 64.1332C83.036 65.237 85.2438 67.5434 86.2688 69.0218C87.2938 70.5002 90.2704 74.423 90.4675 74.7187C90.6647 75.0144 94.3311 79.7847 94.8831 80.4155C95.435 81.0463 97.7203 84.1179 97.9044 84.3424C98.0885 84.567 98.8518 85.016 99.202 85.007C99.5522 84.998 101.106 84.4816 101.438 84.4816C101.77 84.4816 101.802 84.4592 101.963 84.6074C102.125 84.7555 102.489 85.3482 102.605 85.6311C102.699 85.8574 102.462 86.1235 102.332 86.2283L102.101 86.4168C101.361 86.9868 99.8304 88.1196 99.6267 88.0905C99.372 88.0542 97.4799 87.0535 97.3525 86.908C97.2252 86.7624 86.6914 72.6628 86.091 71.6986C85.4906 70.7343 82.1977 67.3686 81.7428 66.8046C81.288 66.2406 76.1394 59.8366 75.6118 59.018C75.0842 58.1993 73.9198 55.3611 73.5559 54.8699C73.2648 54.477 71.0816 51.7224 70.0264 50.3942Z" fill="url(#paint8_linear_18985_138805)"/>
<path d="M71.6451 54.8551L65.2227 46.1937L67.4091 45.8594C67.5879 46.1424 68.0035 46.789 68.2359 47.1108C68.5264 47.513 70.7834 50.5297 71.4537 51.2671C72.1241 52.0046 73.7777 54.3509 74.5152 55.3565C75.2526 56.3621 75.6772 57.7252 76.3252 58.8872C76.9732 60.0492 78.6492 61.7698 79.6995 63.0436C80.7497 64.3173 82.0905 65.9386 83.2972 67.2893C84.5039 68.64 86.8502 72.049 87.7888 73.4569C88.7273 74.8647 90.001 76.5853 90.9396 77.9037C91.8781 79.2222 94.2667 81.9663 94.9118 82.6454C95.557 83.3245 97.6367 85.9475 97.9423 86.2871C98.1868 86.5587 98.429 86.6436 98.5196 86.6521C98.7573 86.4654 100.132 86.0409 100.905 85.9985C101.523 85.9645 102.113 86.1371 102.331 86.2277L101.827 87.5584L101.006 89.0969L98.7304 91.5191L90.7297 81.6099L78.8386 65.9386L71.6451 54.8551Z" fill="url(#paint9_linear_18985_138805)"/>
<path d="M71.6686 58.2844C68.9225 54.5193 63.4215 46.9589 63.3867 46.8376L65.6415 45.7969C65.9017 46.1438 66.5434 47.0067 67.029 47.683C67.636 48.5285 69.3704 50.7399 69.8257 51.412C70.281 52.084 72.5574 54.3821 73.4679 55.6612C74.3785 56.9403 74.5736 58.0243 75.4191 59.8238C76.2646 61.6232 78.3242 63.9429 78.6928 64.4633C79.0613 64.9836 82.1182 68.4524 82.8336 69.1895C83.5491 69.9266 85.3485 72.6799 85.652 73.2003C85.9556 73.7206 88.4487 76.9725 89.0341 77.6446C89.6195 78.3167 92.0693 81.7204 92.6546 82.2408C93.24 82.7611 96.1017 86.4683 96.3402 86.9236C96.531 87.2878 98.2408 89.807 99.0719 91.0211L96.5353 93.1457L95.4513 92.0617C93.8254 89.424 90.5604 84.1312 90.5083 84.0619C90.4563 83.9925 85.3702 76.5895 82.8336 72.8967L71.6686 58.2844Z" fill="url(#paint10_linear_18985_138805)"/>
<path d="M69.0726 56.9589L61.3281 47.4074L61.9767 44.8438C62.49 45.5167 63.8109 47.2323 64.9881 48.7106C66.4595 50.5585 67.2124 51.3798 68.1021 52.5091C68.9918 53.6383 70.6002 56.1706 71.9348 57.8816C73.2694 59.5927 75.7332 62.8094 76.9309 64.3493C78.1286 65.8892 79.737 67.8055 80.5241 68.7294C81.3111 69.6534 83.9803 73.2807 85.2807 75.2655C86.581 77.2503 90.1742 82.7597 91.1665 84.0259C92.1589 85.292 93.6646 87.619 94.1437 88.4403C94.6228 89.2616 95.6494 91.2463 95.9916 91.8281C96.3338 92.4098 96.2311 92.752 97.2577 92.1018C98.079 91.5817 100.566 89.0106 101.706 87.7901C101.615 88.0867 101.392 88.7688 101.227 89.1247C101.022 89.5695 100.201 90.6646 99.8243 91.2463C99.4478 91.8281 98.1475 93.3338 97.4631 93.984C96.7787 94.6341 95.5125 94.3946 94.9992 94.3262C94.4859 94.2577 93.2882 93.6075 92.6038 93.3338C91.9194 93.06 91.7141 92.752 91.6114 92.444C91.5087 92.1361 91.1323 91.4517 90.6532 90.254C90.1742 89.0562 88.4974 86.1475 87.9156 85.0867C87.3339 84.0259 85.8966 82.0411 85.2807 81.254C84.6647 80.467 83.2617 78.1742 82.7484 77.0107C82.2351 75.8472 80.0792 72.5621 78.7788 70.7484C77.7385 69.2975 76.0904 66.9144 75.3963 65.9042L69.0726 56.9589Z" fill="url(#paint11_linear_18985_138805)"/>
<path d="M56.4529 32.3718L54.2617 32.1562L57.7253 36.6751L59.5663 35.7964L56.4529 32.3718Z" fill="url(#paint12_linear_18985_138805)"/>
<path d="M67.8057 57.5599L61.4073 49.8159L61.2656 47.2188L64.76 51.2798L71.6779 60.0157L74.4167 64.2892C73.9524 63.6753 72.9623 62.3862 72.7168 62.1406C72.4098 61.8337 71.7487 61.5976 71.2057 61.1962C70.7712 60.8751 68.758 58.6382 67.8057 57.5599Z" fill="url(#paint13_linear_18985_138805)"/>
<path d="M52.7084 34.6841L54.8936 37.3181L58.1474 36.9208L55.1174 33.2597L54.2652 32.1484L51.9414 33.2597L52.7084 34.6841Z" fill="url(#paint14_linear_18985_138805)"/>
<path d="M49.1523 36.008V37.6676L55.1072 37.4401L52.8293 34.6741L51.9507 33.2422L49.1523 36.008Z" fill="url(#paint15_linear_18985_138805)"/>
<path d="M67.3212 46.3579L61.4227 47.5674L61.3086 44.635L65.1648 43.5284L71.28 41.4062L80.3272 41.84L89.1007 44.5439L94.44 48.2176L94.5085 48.9135H93.9723C93.3562 48.6169 91.6038 47.8114 89.5228 46.9626C86.9216 45.9016 81.9929 44.7835 80.7493 44.5439C79.5058 44.3043 76.722 44.2247 74.2121 44.2019C72.2041 44.1836 70.7209 44.7722 70.2303 45.0688L68.5989 46.3579H67.3212Z" fill="url(#paint16_linear_18985_138805)"/>
<path d="M58.9179 53.6197L62.4092 54.6513L61.5096 49.5542V45.392L67.2574 45.2363L69.4012 43.3126C69.8539 43.0704 71.012 42.5356 72.0226 42.3335C73.2859 42.0808 76.6021 42.0177 79.2551 42.5862L79.2789 42.5913C81.9249 43.1582 84.7309 43.7595 88.73 45.3655C91.9388 46.654 93.8958 47.9357 94.4732 48.4154L94.5002 47.7958L94.035 47.237L92.5233 45.9412L88.3841 42.8339L83.4531 40.2304L78.798 39.2344H69.9077L63.573 40.506L56.5664 45.569L58.9179 53.6197Z" fill="url(#paint17_linear_18985_138805)"/>
<path d="M62.3816 54.6281L63.7298 58.6242L61.0656 58.1103L60.0385 57.3239L59.0273 53.6328L62.3816 54.6281Z" fill="url(#paint18_linear_18985_138805)"/>
<path d="M68.2383 34.6032L70.0916 36.7169L78.91 38.7015C81.3167 39.6762 86.3549 41.7172 87.2541 42.0829C88.1533 42.4487 91.8706 45.4041 93.6169 46.836L94.4742 47.76C94.5073 47.8375 94.5317 47.8359 94.3647 47.2095C94.1559 46.4265 93.3468 44.7039 92.9031 44.0514C92.4594 43.3989 89.6666 41.3109 89.0402 40.815C88.4138 40.3191 86.0648 39.0141 85.0469 38.492C84.029 37.97 78.9916 35.8557 75.7813 35.151C73.213 34.5873 69.6825 34.5509 68.2383 34.6032Z" fill="#FFFFFD"/>
<path d="M61.0851 58.0547L59.043 59.8008L59.9394 63.7293L63.712 58.6315L61.0851 58.0547Z" fill="url(#paint19_linear_18985_138805)"/>
<path d="M60.0155 57.2344L58.4336 58.816L59.0474 59.9257L61.0307 58.1077L60.0155 57.2344Z" fill="url(#paint20_linear_18985_138805)"/>
<path d="M59.688 35.1087L56.7266 36.907L70.1951 36.6599L68.2641 34.5938L59.688 35.1087Z" fill="#FFF0C3"/>
<path d="M41.832 37.4417L58.4026 58.8285L60.0532 57.2595L56.7049 45.6969C58.64 44.3158 62.5825 41.5248 62.8716 41.4091C64.5482 40.7346 68.1631 39.9397 69.761 39.6266C72.9809 39.5864 79.5073 39.5302 79.8542 39.6266C82.4558 40.2529 84.696 41.1201 85.9486 41.7223C87.2013 42.3245 90.9109 44.9261 91.8263 45.5765C92.5586 46.0968 93.9144 47.2734 94.5008 47.7967L94.2942 47.4053C93.377 46.3402 87.7849 41.3399 81.7491 39.2095C75.7132 37.0792 71.3546 36.6691 70.3647 36.4945C69.5728 36.3547 51.013 37.0677 41.832 37.4417Z" fill="url(#paint21_linear_18985_138805)"/>
<path d="M58.7739 64.8546L57.9102 63.8875L59.0768 59.8359L59.9479 63.7184L58.7739 64.8546Z" fill="#FC9606"/>
<path d="M41.8242 42.0431V37.4453C41.8242 37.4453 42.9737 38.02 46.422 42.0431C49.8704 46.0662 59.0661 59.8597 59.0661 59.8597L57.9166 63.8828L41.8242 42.0431Z" fill="url(#paint22_linear_18985_138805)"/>
</g>
<defs>
<filter id="filter0_i_18985_138805" x="103.445" y="35.4297" width="16.4375" height="11.9609" filterUnits="userSpaceOnUse" color-interpolation-filters="sRGB">
<feFlood flood-opacity="0" result="BackgroundImageFix"/>
<feBlend mode="normal" in="SourceGraphic" in2="BackgroundImageFix" result="shape"/>
<feColorMatrix in="SourceAlpha" type="matrix" values="0 0 0 0 0 0 0 0 0 0 0 0 0 0 0 0 0 0 127 0" result="hardAlpha"/>
<feOffset dy="-1.18945"/>
<feComposite in2="hardAlpha" operator="arithmetic" k2="-1" k3="1"/>
<feColorMatrix type="matrix" values="0 0 0 0 0.823529 0 0 0 0 0.458824 0 0 0 0 0.247059 0 0 0 1 0"/>
<feBlend mode="normal" in2="shape" result="effect1_innerShadow_18985_138805"/>
</filter>
<filter id="filter1_i_18985_138805" x="12.7031" y="35.3203" width="16.4219" height="11.9609" filterUnits="userSpaceOnUse" color-interpolation-filters="sRGB">
<feFlood flood-opacity="0" result="BackgroundImageFix"/>
<feBlend mode="normal" in="SourceGraphic" in2="BackgroundImageFix" result="shape"/>
<feColorMatrix in="SourceAlpha" type="matrix" values="0 0 0 0 0 0 0 0 0 0 0 0 0 0 0 0 0 0 127 0" result="hardAlpha"/>
<feOffset dy="-1.18945"/>
<feComposite in2="hardAlpha" operator="arithmetic" k2="-1" k3="1"/>
<feColorMatrix type="matrix" values="0 0 0 0 0.823529 0 0 0 0 0.458824 0 0 0 0 0.247059 0 0 0 1 0"/>
<feBlend mode="normal" in2="shape" result="effect1_innerShadow_18985_138805"/>
</filter>
<filter id="filter2_d_18985_138805" x="60.9039" y="59.7734" width="59.6961" height="49.5453" filterUnits="userSpaceOnUse" color-interpolation-filters="sRGB">
<feFlood flood-opacity="0" result="BackgroundImageFix"/>
<feColorMatrix in="SourceAlpha" type="matrix" values="0 0 0 0 0 0 0 0 0 0 0 0 0 0 0 0 0 0 127 0" result="hardAlpha"/>
<feMorphology radius="6" operator="dilate" in="SourceAlpha" result="effect1_dropShadow_18985_138805"/>
<feOffset dy="33"/>
<feGaussianBlur stdDeviation="3.55"/>
<feComposite in2="hardAlpha" operator="out"/>
<feColorMatrix type="matrix" values="0 0 0 0 0.266667 0 0 0 0 0.247059 0 0 0 0 0.662745 0 0 0 0.25 0"/>
<feBlend mode="normal" in2="BackgroundImageFix" result="effect1_dropShadow_18985_138805"/>
<feBlend mode="normal" in="SourceGraphic" in2="effect1_dropShadow_18985_138805" result="shape"/>
</filter>
<filter id="filter3_d_18985_138805" x="27.6742" y="20.5063" width="80.9875" height="58.3312" filterUnits="userSpaceOnUse" color-interpolation-filters="sRGB">
<feFlood flood-opacity="0" result="BackgroundImageFix"/>
<feColorMatrix in="SourceAlpha" type="matrix" values="0 0 0 0 0 0 0 0 0 0 0 0 0 0 0 0 0 0 127 0" result="hardAlpha"/>
<feOffset/>
<feGaussianBlur stdDeviation="7.2"/>
<feComposite in2="hardAlpha" operator="out"/>
<feColorMatrix type="matrix" values="0 0 0 0 0.995166 0 0 0 0 0.758333 0 0 0 0 1 0 0 0 1 0"/>
<feBlend mode="normal" in2="BackgroundImageFix" result="effect1_dropShadow_18985_138805"/>
<feBlend mode="normal" in="SourceGraphic" in2="effect1_dropShadow_18985_138805" result="shape"/>
</filter>
<linearGradient id="paint0_linear_18985_138805" x1="113.571" y1="26.6743" x2="126.578" y2="49.0059" gradientUnits="userSpaceOnUse">
<stop offset="0.405" stop-color="#FFBD00"/>
<stop offset="0.4051" stop-color="#EB9E2D"/>
</linearGradient>
<linearGradient id="paint1_linear_18985_138805" x1="19.0363" y1="26.5649" x2="6.00687" y2="48.9091" gradientUnits="userSpaceOnUse">
<stop offset="0.405" stop-color="#FFBD00"/>
<stop offset="0.4051" stop-color="#EB9E2D"/>
</linearGradient>
<linearGradient id="paint2_linear_18985_138805" x1="26.1375" y1="4.0893" x2="95.6922" y2="96.3697" gradientUnits="userSpaceOnUse">
<stop offset="0.33" stop-color="#FCC84E"/>
<stop offset="0.3301" stop-color="#FEF04F"/>
<stop offset="0.45" stop-color="#FEF04F"/>
<stop offset="0.4501" stop-color="#FCC84E"/>
<stop offset="0.6149" stop-color="#FCC84E"/>
<stop offset="0.615" stop-color="#F59E1B"/>
<stop offset="0.72" stop-color="#F59E1B"/>
<stop offset="0.7201" stop-color="#FCC84E"/>
</linearGradient>
<linearGradient id="paint3_linear_18985_138805" x1="41.3806" y1="15.5527" x2="108.119" y2="87.0878" gradientUnits="userSpaceOnUse">
<stop offset="0.405" stop-color="#FFBD00"/>
<stop offset="0.4051" stop-color="#FAA300"/>
</linearGradient>
<linearGradient id="paint4_linear_18985_138805" x1="66.7476" y1="13" x2="66.7476" y2="82.7145" gradientUnits="userSpaceOnUse">
<stop offset="0.505" stop-color="white" stop-opacity="0"/>
<stop offset="1" stop-color="#FEF050"/>
</linearGradient>
<linearGradient id="paint5_linear_18985_138805" x1="75.5331" y1="-3.50781" x2="75.5331" y2="104.947" gradientUnits="userSpaceOnUse">
<stop stop-color="#ADD7F0"/>
<stop offset="1" stop-color="#BDD3EC"/>
</linearGradient>
<radialGradient id="paint6_radial_18985_138805" cx="0" cy="0" r="1" gradientUnits="userSpaceOnUse" gradientTransform="translate(95.3803 93.8161) rotate(-29.1844) scale(31.035 17.9056)">
<stop stop-color="#433EA7"/>
<stop offset="0.295" stop-color="#5B56B0" stop-opacity="0.48"/>
<stop offset="0.58" stop-color="#6764BA" stop-opacity="0.19"/>
<stop offset="0.888576" stop-color="#706EC0" stop-opacity="0"/>
</radialGradient>
<linearGradient id="paint7_linear_18985_138805" x1="90.7508" y1="59.7722" x2="90.7508" y2="63.2206" gradientUnits="userSpaceOnUse">
<stop stop-color="#CCDBF9"/>
<stop offset="1" stop-color="#97B0F1"/>
</linearGradient>
<linearGradient id="paint8_linear_18985_138805" x1="68.3301" y1="45.0939" x2="102.266" y2="87.3579" gradientUnits="userSpaceOnUse">
<stop offset="0.00249221" stop-color="#B16E80"/>
<stop offset="0.317185" stop-color="#E1D9E0"/>
<stop offset="1" stop-color="#9DB5DF"/>
</linearGradient>
<linearGradient id="paint9_linear_18985_138805" x1="66.3933" y1="44.4027" x2="90.8035" y2="78.2377" gradientUnits="userSpaceOnUse">
<stop stop-color="#9C7FB0"/>
<stop offset="1" stop-color="#7089C7"/>
</linearGradient>
<linearGradient id="paint10_linear_18985_138805" x1="64.3624" y1="45.2331" x2="93.1187" y2="85.0348" gradientUnits="userSpaceOnUse">
<stop stop-color="#70589B"/>
<stop offset="1" stop-color="#455DAA"/>
</linearGradient>
<linearGradient id="paint11_linear_18985_138805" x1="62.5692" y1="44.8438" x2="74.3922" y2="60.3881" gradientUnits="userSpaceOnUse">
<stop stop-color="#77395A"/>
<stop offset="1" stop-color="#2E419B"/>
</linearGradient>
<linearGradient id="paint12_linear_18985_138805" x1="58.3529" y1="33.3278" x2="55.9679" y2="34.2901" gradientUnits="userSpaceOnUse">
<stop stop-color="#EBDEDE"/>
<stop offset="1" stop-color="#D0B2C5"/>
</linearGradient>
<linearGradient id="paint13_linear_18985_138805" x1="60.7934" y1="47.2187" x2="74.5584" y2="64.2892" gradientUnits="userSpaceOnUse">
<stop stop-color="#642234"/>
<stop offset="1" stop-color="#3C378C"/>
</linearGradient>
<linearGradient id="paint14_linear_18985_138805" x1="52.9017" y1="32.5651" x2="56.5756" y2="37.148" gradientUnits="userSpaceOnUse">
<stop stop-color="#AB95BE"/>
<stop offset="1" stop-color="#CA859D"/>
</linearGradient>
<linearGradient id="paint15_linear_18985_138805" x1="52.1298" y1="33.2422" x2="52.1298" y2="37.6676" gradientUnits="userSpaceOnUse">
<stop stop-color="#9568A6"/>
<stop offset="1" stop-color="#AF6496"/>
</linearGradient>
<linearGradient id="paint16_linear_18985_138805" x1="92.7288" y1="47.7301" x2="61.3086" y2="46.4987" gradientUnits="userSpaceOnUse">
<stop stop-color="#EF6F09"/>
<stop offset="1" stop-color="#AD350E"/>
</linearGradient>
<linearGradient id="paint17_linear_18985_138805" x1="92.5491" y1="46.6846" x2="57.7011" y2="45.8947" gradientUnits="userSpaceOnUse">
<stop stop-color="#E5991D"/>
<stop offset="1" stop-color="#FFC514"/>
</linearGradient>
<linearGradient id="paint18_linear_18985_138805" x1="60.0385" y1="53.5524" x2="62.6223" y2="58.8164" gradientUnits="userSpaceOnUse">
<stop stop-color="#EB9E1E"/>
<stop offset="1" stop-color="#FFD117"/>
</linearGradient>
<linearGradient id="paint19_linear_18985_138805" x1="59.8038" y1="62.9613" x2="62.5588" y2="58.4373" gradientUnits="userSpaceOnUse">
<stop stop-color="#FFF799"/>
<stop offset="1" stop-color="#FFEC2B"/>
</linearGradient>
<linearGradient id="paint20_linear_18985_138805" x1="59.0643" y1="58.1765" x2="60.0847" y2="59.0369" gradientUnits="userSpaceOnUse">
<stop stop-color="#F98D05"/>
<stop offset="1" stop-color="#FFC10A"/>
</linearGradient>
<linearGradient id="paint21_linear_18985_138805" x1="68.8342" y1="37.4643" x2="61.6064" y2="58.8285" gradientUnits="userSpaceOnUse">
<stop stop-color="#FFE062"/>
<stop offset="1" stop-color="#FFBB1C"/>
</linearGradient>
<linearGradient id="paint22_linear_18985_138805" x1="50.4451" y1="37.4453" x2="50.4451" y2="63.8828" gradientUnits="userSpaceOnUse">
<stop stop-color="#FDF6F2"/>
<stop offset="1" stop-color="#FFD181"/>
</linearGradient>
</defs>
</svg>
