<svg width="131" height="100" viewBox="0 0 131 100" fill="none" xmlns="http://www.w3.org/2000/svg">
<path d="M52.8743 7.97119C59.7705 4.01123 63.2185 2.03125 67.0048 2.03125C70.791 2.03125 74.2391 4.01123 81.1352 7.97119L94.7346 15.7803C101.631 19.7403 105.079 21.7203 106.972 24.9815C108.865 28.2428 108.865 32.2028 108.865 40.1227V55.741C108.865 63.6609 108.865 67.6209 106.972 70.8821C105.079 74.1434 101.631 76.1234 94.7346 80.0833L81.1352 87.8925C74.2391 91.8524 70.791 93.8324 67.0048 93.8324C63.2185 93.8324 59.7705 91.8524 52.8743 87.8925L39.275 80.0833C32.3788 76.1234 28.9308 74.1434 27.0377 70.8821C25.1445 67.6209 25.1445 63.6609 25.1445 55.741V40.1227C25.1445 32.2028 25.1445 28.2428 27.0377 24.9815C28.9308 21.7203 32.3788 19.7403 39.275 15.7803L52.8743 7.97119Z" fill="url(#paint0_linear_18985_138712)"/>
<path fill-rule="evenodd" clip-rule="evenodd" d="M25.1445 55.7422V59.9766C25.1445 67.8965 25.1445 71.8565 27.0377 75.1177C28.9308 78.379 32.3788 80.3589 39.275 84.3189L52.8743 92.1281C59.7705 96.088 63.2185 98.068 67.0048 98.068C70.791 98.068 74.239 96.088 81.1351 92.1281L81.1352 92.1281L94.7346 84.3189C101.631 80.3589 105.079 78.379 106.972 75.1177C108.865 71.8565 108.865 67.8965 108.865 59.9767V59.9766V55.7423C108.865 63.6621 108.865 67.6221 106.972 70.8833C105.079 74.1446 101.631 76.1246 94.7346 80.0845L81.1352 87.8937L81.1351 87.8937C74.239 91.8536 70.791 93.8336 67.0048 93.8336C63.2185 93.8336 59.7705 91.8536 52.8743 87.8937L39.275 80.0845C32.3788 76.1246 28.9308 74.1446 27.0377 70.8833C25.1445 67.6221 25.1445 63.6621 25.1445 55.7422Z" fill="#D2753F"/>
<path d="M53.0623 18.899C59.9387 14.9663 63.3769 13 67.1499 13C70.9229 13 74.3611 14.9663 81.2375 18.899L85.3375 21.2438C92.2539 25.1994 95.7121 27.1772 97.6115 30.4426C99.5108 33.7079 99.5108 37.6755 99.5108 45.6107V50.1037C99.5108 58.039 99.5108 62.0066 97.6115 65.2719C95.7121 68.5372 92.2539 70.515 85.3375 74.4706L81.2375 76.8154C74.3611 80.7481 70.9229 82.7145 67.1499 82.7145C63.3769 82.7145 59.9387 80.7481 53.0623 76.8155L48.9624 74.4706C42.0459 70.515 38.5877 68.5372 36.6884 65.2719C34.7891 62.0066 34.7891 58.039 34.7891 50.1037V45.6107C34.7891 37.6755 34.7891 33.7079 36.6884 30.4426C38.5877 27.1772 42.0459 25.1994 48.9623 21.2439L53.0623 18.899Z" fill="url(#paint1_linear_18985_138712)"/>
<path d="M53.0623 18.899C59.9387 14.9663 63.3769 13 67.1499 13C70.9229 13 74.3611 14.9663 81.2375 18.899L85.3375 21.2438C92.2539 25.1994 95.7121 27.1772 97.6115 30.4426C99.5108 33.7079 99.5108 37.6755 99.5108 45.6107V50.1037C99.5108 58.039 99.5108 62.0066 97.6115 65.2719C95.7121 68.5372 92.2539 70.515 85.3375 74.4706L81.2375 76.8154C74.3611 80.7481 70.9229 82.7145 67.1499 82.7145C63.3769 82.7145 59.9387 80.7481 53.0623 76.8155L48.9624 74.4706C42.0459 70.515 38.5877 68.5372 36.6884 65.2719C34.7891 62.0066 34.7891 58.039 34.7891 50.1037V45.6107C34.7891 37.6755 34.7891 33.7079 36.6884 30.4426C38.5877 27.1772 42.0459 25.1994 48.9623 21.2439L53.0623 18.899Z" fill="url(#paint2_linear_18985_138712)" fill-opacity="0.8"/>
<path fill-rule="evenodd" clip-rule="evenodd" d="M67.1509 82.7187C70.9239 82.7187 74.3621 80.7524 81.2385 76.8197L85.3384 74.4749C92.2549 70.5193 95.7131 68.5415 97.6124 65.2762C99.5117 62.0109 99.5117 58.0433 99.5117 50.108L99.5117 48.6939C99.5117 56.6292 99.5117 60.5968 97.6124 63.8621C95.7131 67.1274 92.2549 69.1052 85.3384 73.0608L85.3384 73.0608L81.2385 75.4056C74.3621 79.3383 70.9239 81.3047 67.1509 81.3047C63.3779 81.3047 59.9397 79.3383 53.0633 75.4057L48.9633 73.0608C42.0469 69.1052 38.5886 67.1274 36.6893 63.8621C34.79 60.5968 34.79 56.6292 34.79 48.6939L34.79 50.108C34.79 58.0433 34.79 62.0109 36.6893 65.2762C38.5886 68.5415 42.0469 70.5193 48.9633 74.4749L53.0633 76.8197C59.9397 80.7524 63.3779 82.7187 67.1509 82.7187Z" fill="#FFF050"/>
<path fill-rule="evenodd" clip-rule="evenodd" d="M67.1499 13C63.3769 13 59.9387 14.9663 53.0623 18.899L48.9623 21.2439C42.0459 25.1994 38.5877 27.1772 36.6884 30.4426C34.7891 33.7079 34.7891 37.6755 34.7891 45.6107V50.1037C34.7891 58.039 34.7891 62.0066 36.6884 65.2719C37.0313 65.8615 37.4251 66.4092 37.8809 66.934C36.2031 63.7413 36.2031 59.7801 36.2031 52.1663V47.6732C36.2031 39.738 36.2031 35.7704 38.1024 32.5051C40.0017 29.2397 43.46 27.262 50.3764 23.3064L54.4764 20.9615C61.3528 17.0288 64.791 15.0625 68.564 15.0625C72.337 15.0625 75.7752 17.0288 82.6516 20.9615L86.7515 23.3063C92.4191 26.5477 95.7646 28.461 97.833 30.8429C97.7622 30.7082 97.6884 30.5748 97.6115 30.4426C95.7121 27.1772 92.2539 25.1994 85.3375 21.2438L81.2375 18.899C74.3611 14.9663 70.9229 13 67.1499 13Z" fill="#D2753F"/>
<mask id="mask0_18985_138712" style="mask-type:alpha" maskUnits="userSpaceOnUse" x="36" y="14" width="64" height="69">
<path d="M54.6474 20.3254C61.2927 16.5199 64.6154 14.6172 68.2616 14.6172C71.9078 14.6172 75.2304 16.5199 81.8757 20.3254L85.8379 22.5944C92.5219 26.422 95.8639 28.3358 97.6994 31.4955C99.5349 34.6552 99.5349 38.4945 99.5349 46.1731V50.5208C99.5349 58.1993 99.5349 62.0386 97.6994 65.1983C95.8639 68.358 92.5219 70.2718 85.8379 74.0995L81.8757 76.3684C75.2304 80.1739 71.9078 82.0767 68.2616 82.0767C64.6154 82.0767 61.2927 80.1739 54.6474 76.3684L50.6853 74.0995C44.0012 70.2718 40.6592 68.358 38.8238 65.1983C36.9883 62.0386 36.9883 58.1993 36.9883 50.5208V46.1731C36.9883 38.4945 36.9883 34.6552 38.8238 31.4955C40.6592 28.3358 44.0012 26.422 50.6852 22.5944L54.6474 20.3254Z" fill="#D9D9D9"/>
</mask>
<g mask="url(#mask0_18985_138712)">
<path d="M73.4812 8.16406H64.7376C49.2028 8.16406 36.6094 17.6792 36.6094 29.4167V62.8033C36.6094 74.5408 49.2028 84.056 64.7376 84.056H73.4812C89.0159 84.056 101.609 74.5408 101.609 62.8033V29.4167C101.609 17.6792 89.0159 8.16406 73.4812 8.16406Z" fill="url(#paint3_linear_18985_138712)"/>
<path d="M90.3219 86.0501C90.816 79.3261 85.736 73.4769 78.9755 72.9855C72.215 72.4941 66.334 77.5466 65.8399 84.2705C65.3458 90.9945 70.4258 96.8437 77.1863 97.3351C83.9468 97.8265 89.8278 92.774 90.3219 86.0501Z" fill="white"/>
<path d="M104.697 82.3738C113.125 77.8507 116.271 67.3885 111.723 59.0057C107.176 50.623 96.6565 47.4941 88.2282 52.0172C83.1309 54.7527 79.9657 59.6605 79.266 64.9668C76.5905 63.7552 73.3376 64.0945 70.9416 66.1055C68.5108 68.1457 67.637 71.3398 68.447 74.1984C68.3989 74.1404 68.3501 74.0828 68.3007 74.0255C64.12 69.1776 56.7796 68.6184 51.9053 72.7765C47.0311 76.9345 46.4688 84.2353 50.6495 89.0832C54.8302 93.9311 62.1707 94.4903 67.0449 90.3322C70.8476 87.0883 72.0258 81.9316 70.3749 77.5191C73.2224 80.4385 77.8979 80.707 81.0708 78.0439C81.4745 77.7051 81.8352 77.3345 82.1524 76.9388C87.0955 84.1393 96.8112 86.6056 104.697 82.3738Z" fill="white" fill-opacity="0.67"/>
<path d="M71.9206 26.0196C71.8635 26.7118 71.6014 27.3716 71.1675 27.9157C70.7335 28.4598 70.1472 28.8638 69.4825 29.0767C68.8179 29.2895 68.1047 29.3017 67.4331 29.1117C66.7615 28.9216 66.1615 28.5378 65.7091 28.0089C65.2566 27.4799 64.972 26.8294 64.891 26.1396C64.8101 25.4498 64.9365 24.7516 65.2543 24.1332C65.5721 23.5148 66.067 23.0039 66.6766 22.6651C67.2861 22.3264 67.983 22.1748 68.679 22.2297C69.1423 22.2663 69.5938 22.3934 70.0076 22.6037C70.4214 22.8141 70.7894 23.1036 71.0905 23.4557C71.3916 23.8077 71.6199 24.2154 71.7624 24.6554C71.9048 25.0954 71.9586 25.5589 71.9206 26.0196Z" fill="#FEF050"/>
<path opacity="0.38" d="M43.1769 52.5938C43.1769 52.5938 55.3614 55.9559 55.3614 58.0323C55.3614 60.1088 38.6449 62.0596 29.2317 58.0323C19.8184 54.0051 43.1769 52.5938 43.1769 52.5938Z" fill="#EEFAFF"/>
<mask id="mask1_18985_138712" style="mask-type:luminance" maskUnits="userSpaceOnUse" x="26" y="52" width="30" height="9">
<path d="M43.1769 52.5703C43.1769 52.5703 55.3614 55.9325 55.3614 58.0089C55.3614 60.0853 38.6449 62.0361 29.2317 58.0089C19.8184 53.9817 43.1769 52.5703 43.1769 52.5703Z" fill="white"/>
</mask>
<g mask="url(#mask1_18985_138712)">
<path d="M48.6155 52.6562C45.8517 54.2671 38.8233 55.7524 41.9289 60.3782C45.0344 65.0039 58.1624 65.2921 58.1624 65.2921L59.21 57.282L48.6155 52.6562Z" fill="white"/>
<mask id="mask2_18985_138712" style="mask-type:luminance" maskUnits="userSpaceOnUse" x="41" y="52" width="19" height="14">
<path d="M48.6155 52.6641C45.8517 54.275 38.8233 55.7602 41.9289 60.386C45.0344 65.0117 58.1624 65.2999 58.1624 65.2999L59.21 57.2898L48.6155 52.6641Z" fill="white"/>
</mask>
<g mask="url(#mask2_18985_138712)">
<g opacity="0.5">
<path d="M47.1806 61.4361C46.8611 58.6873 46.8388 57.0025 47.6263 56.0862C48.4139 55.1699 50.1821 54.9261 53.362 54.7266V54.9113C50.3158 55.1034 48.555 55.2512 47.7526 56.2044C46.9502 57.1577 47.0097 58.7168 47.3514 61.377L47.1806 61.4361Z" fill="#80A1AF" stroke="#80A1AF" stroke-width="0.3"/>
</g>
</g>
</g>
<path opacity="0.38" d="M67.8664 45.7188C67.8664 45.7188 78.2678 48.9996 78.2678 50.7214C78.2678 52.3027 65.9496 53.6771 59.0178 50.7214C52.0861 47.7656 67.8664 45.7188 67.8664 45.7188Z" fill="#EEFAFF"/>
<mask id="mask3_18985_138712" style="mask-type:luminance" maskUnits="userSpaceOnUse" x="57" y="45" width="22" height="8">
<path d="M67.8664 45.7031C67.8664 45.7031 78.2678 48.984 78.2678 50.7057C78.2678 52.2871 65.9496 53.6615 59.0178 50.7057C52.0861 47.75 67.8664 45.7031 67.8664 45.7031Z" fill="white"/>
</mask>
<g mask="url(#mask3_18985_138712)">
<path d="M73.0661 46.3203C70.3023 47.9312 63.2739 49.4165 66.3423 54.0422C69.4107 58.668 82.5759 58.9562 82.5759 58.9562L83.6606 50.9461L73.0661 46.3203Z" fill="white"/>
<mask id="mask4_18985_138712" style="mask-type:luminance" maskUnits="userSpaceOnUse" x="65" y="46" width="19" height="13">
<path d="M73.0661 46.3047C70.3023 47.9156 63.2739 49.4008 66.3423 54.0266C69.4107 58.6524 82.5759 58.9405 82.5759 58.9405L83.6606 50.9304L73.0661 46.3047Z" fill="white"/>
</mask>
<g mask="url(#mask4_18985_138712)">
<g opacity="0.5">
<path d="M72.079 54.5537C71.7595 51.8049 71.7372 50.1201 72.5248 49.2038C73.3123 48.2875 75.0805 48.0437 78.2604 47.8516V48.0363C75.2143 48.221 73.4535 48.3762 72.6585 49.3221C71.8635 50.2679 71.9156 51.8344 72.2499 54.4946L72.079 54.5537Z" fill="#80A1AF" stroke="#80A1AF" stroke-width="0.3"/>
</g>
</g>
</g>
<path d="M72.7306 45.7186C72.7306 45.7186 77.857 44.4106 80.8586 43.7456C83.2954 43.2136 86.6908 33.1788 87.8795 29.4397C87.9156 29.3195 87.9164 29.1915 87.8818 29.0708C87.8471 28.9502 87.7785 28.8419 87.684 28.7587C87.5894 28.6756 87.473 28.6211 87.3483 28.6017C87.2237 28.5823 87.0961 28.5987 86.9805 28.6491L85.2866 29.4323C84.5868 29.7513 84.0104 30.2882 83.6446 30.9619C81.9953 34.0064 76.7723 42.785 71.4453 42.785L72.7306 45.7186Z" fill="#923AD8"/>
<path d="M11.4375 45.4807C11.4375 45.4807 71.8026 42.6875 73.348 42.6875C74.8933 42.6875 81.1416 43.5816 81.1416 43.5816C78.6749 45.1334 20.9845 59.6462 11.4375 62.6389V45.4807Z" fill="white"/>
<mask id="mask5_18985_138712" style="mask-type:luminance" maskUnits="userSpaceOnUse" x="11" y="42" width="71" height="21">
<path d="M11.4375 45.4807C11.4375 45.4807 71.8026 42.6875 73.348 42.6875C74.8933 42.6875 81.1416 43.5816 81.1416 43.5816C78.6749 45.1334 20.9845 59.6462 11.4375 62.6389V45.4807Z" fill="white"/>
</mask>
<g mask="url(#mask5_18985_138712)">
<path opacity="0.38" d="M73.3462 42.6899C73.3462 42.6899 74.364 42.69 74.3343 44.0053C74.3046 45.3206 70.3521 46.8576 68.3907 50.0202C64.3118 56.4564 82.7223 58.1486 82.7223 58.1486L87.9229 49.0818L88.8219 41.9141L73.3982 42.653" fill="#EEFAFF"/>
<g opacity="0.5">
<path d="M7.9375 54.1947V54.0173C7.99694 54.0173 13.8143 52.7833 16.7415 52.5394L14.7801 49.2955H14.9287C15.3076 49.2955 52.2548 45.8003 56.5342 45.719C56.2253 45.0391 55.7829 44.4273 55.233 43.9198C54.6831 43.4122 54.0368 43.019 53.3321 42.7633L53.3915 42.5859C54.1423 42.8564 54.8288 43.2782 55.408 43.825C55.9872 44.3718 56.4465 45.0317 56.7571 45.7634L56.8091 45.8816H56.6754C53.2949 45.8816 17.7148 49.2068 15.1144 49.4507L17.009 52.6872H16.8604C14.0372 52.9237 7.99694 54.1799 7.9375 54.1947Z" fill="#80A1AF" stroke="#80A1AF" stroke-width="0.3"/>
</g>
<g opacity="0.5">
<path d="M67.4397 49.1807L61.4961 44.9909H61.719C66.8082 44.2519 83.1087 42.6632 83.2647 42.6484V42.8332C83.1012 42.8332 67.2689 44.3702 61.9493 45.1387L67.5289 49.0255L67.4397 49.1807Z" fill="#80A1AF" stroke="#80A1AF" stroke-width="0.3"/>
</g>
</g>
<path fill-rule="evenodd" clip-rule="evenodd" d="M12 47.5V103H67.5H123V47.5V-8H67.5H12V47.5Z" fill="url(#paint4_linear_18985_138712)"/>
<ellipse cx="64.6411" cy="68.2929" rx="21.5833" ry="7.1116" transform="rotate(-0.472036 64.6411 68.2929)" fill="url(#paint5_radial_18985_138712)"/>
<g filter="url(#filter0_d_18985_138712)">
<ellipse cx="68.044" cy="37.0393" rx="11" ry="1.5" transform="rotate(13.5712 68.044 37.0393)" fill="url(#paint6_linear_18985_138712)" fill-opacity="0.01" shape-rendering="crispEdges"/>
</g>
<g filter="url(#filter1_d_18985_138712)">
<ellipse cx="46.5" cy="47.5" rx="4.5" ry="2.5" fill="url(#paint7_linear_18985_138712)" fill-opacity="0.01" shape-rendering="crispEdges"/>
</g>
<path fill-rule="evenodd" clip-rule="evenodd" d="M71 24.8891C71 25.3771 69.425 28.0661 67.5 30.8651C63.407 36.8151 62.923 41.8561 66 46.5011C69.946 52.4591 67.925 59.8241 61.169 64.1091C56.411 67.1261 57.959 68.3341 62.846 65.4171C67.721 62.5061 69.494 59.0561 69.565 52.3421C69.625 46.6831 69.889 45.9651 72.815 43.5031C75.639 41.1271 76 40.2381 75.996 35.6621C75.994 32.2831 75.309 29.3791 74.011 27.2511C72.037 24.0141 71 23.2001 71 24.8891ZM85.557 40.9091C85.248 41.4091 82.704 42.4051 79.902 43.1231C76.81 43.9151 74.061 45.3791 72.905 46.8491C69.789 50.8101 70.425 52.0011 75.655 52.0011C79.793 52.0011 80.737 51.5521 84.155 47.9591C86.27 45.7361 88 43.0361 88 41.9591C88 39.9361 86.545 39.3111 85.557 40.9091ZM50 46.6721C50 48.4261 53.181 52.0431 56.011 53.5071C59.271 55.1931 66 55.5261 66 54.0011C66 52.2451 62.145 49.0721 59.275 48.4661C53.936 47.3391 53.487 47.2231 51.75 46.5071C50.787 46.1111 50 46.1851 50 46.6721Z" fill="#FEF1AC"/>
<path fill-rule="evenodd" clip-rule="evenodd" d="M72.479 28.2115C72.114 29.1525 70.942 30.2005 69.874 30.5395C64.006 32.4015 62.173 40.3075 66.126 46.7035C67.83 49.4615 68.127 51.0565 67.621 54.7485C66.912 59.9205 65.113 62.3555 60.001 65.0595C57.653 66.3015 57.108 66.9255 58.346 66.9555C60.896 67.0165 65.109 64.3515 67.5 61.1655C68.971 59.2045 69.517 56.8705 69.565 52.3405C69.625 46.6815 69.889 45.9635 72.815 43.5015C75.646 41.1195 76 40.2415 76 35.6015C76 29.8525 73.708 25.0415 72.479 28.2115ZM86.179 41.2835C85.593 41.9895 83.176 43.6485 80.807 44.9705C77.707 46.6995 76.885 46.9005 77.872 45.6865C79.077 44.2065 78.994 43.9995 77.195 43.9995C75.033 43.9995 71 48.3185 71 50.6345C71 51.5925 72.388 51.9995 75.655 51.9995C79.793 51.9995 80.737 51.5505 84.155 47.9575C86.27 45.7345 88 43.0345 88 41.9575C88 39.6655 87.634 39.5305 86.179 41.2835ZM50 46.7765C50 48.4355 53.256 52.0805 56.011 53.5055C58.782 54.9375 66 55.6085 66 54.4335C66 52.4985 63.593 49.9965 61.715 49.9775C60.497 49.9655 57.538 49.0655 55.141 47.9775C50.229 45.7485 50 45.6955 50 46.7765Z" fill="#FDE38D"/>
<path fill-rule="evenodd" clip-rule="evenodd" d="M73 30.55C73 31.402 72.312 33.429 71.472 35.054C70.025 37.853 69.822 37.929 67.642 36.501C66.376 35.672 65.039 35.295 64.67 35.663C63.312 37.021 64.058 42.984 65.997 46.27C70.521 53.939 67.333 63.671 59.555 65.932C57.809 66.439 57.291 66.858 58.346 66.91C60.865 67.033 65.084 64.385 67.5 61.166C68.971 59.205 69.517 56.871 69.565 52.341C69.625 46.682 69.889 45.964 72.815 43.502C75.492 41.25 76 40.131 76 36.493C76 31.685 75.245 29 73.893 29C73.402 29 73 29.697 73 30.55ZM85.027 42.467C84.358 43.274 80.927 45.546 77.405 47.516C73.882 49.486 71 51.301 71 51.549C71 51.797 73.095 52 75.655 52C79.793 52 80.737 51.551 84.155 47.958C87.762 44.166 89.112 41 87.122 41C86.64 41 85.697 41.66 85.027 42.467ZM50 46.586C50 46.852 50.742 48.203 51.648 49.586C53.826 52.909 58.045 55 62.573 55C65.723 55 66.068 54.787 65 53.5C64.315 52.675 63.335 52 62.821 52C62.308 52 59.213 50.673 55.944 49.051C52.675 47.429 50 46.32 50 46.586Z" fill="#F1B430"/>
<path fill-rule="evenodd" clip-rule="evenodd" d="M71.824 35.0576C70.004 39.3416 70.338 39.9106 73.171 37.3466C74.265 36.3566 75 36.1556 75 36.8466C75 37.4816 74.585 38.0016 74.077 38.0016C73.569 38.0016 71.814 39.3416 70.176 40.9796C67.783 43.3726 67.082 43.6576 66.61 42.4276C66.275 41.5556 66.448 41.1606 67.011 41.5086C68.803 42.6166 68.04 40.3486 66 38.5016C64.049 36.7356 64 36.7546 64 39.2896C64 42.4816 68.192 49.9656 68.832 47.9156C69.075 47.1376 70.838 45.0446 72.75 43.2626C75.905 40.3236 76.163 39.6756 75.536 36.2626C74.542 30.8576 73.722 30.5906 71.824 35.0576ZM81 45.7176C77.425 48.0946 74.35 50.4806 74.167 51.0206C73.546 52.8466 79.712 52.0156 82.385 49.9136C84.769 48.0376 88.636 42.1316 87.824 41.6066C87.646 41.4916 84.575 43.3416 81 45.7176Z" fill="#EFA628"/>
</g>
<defs>
<filter id="filter0_d_18985_138712" x="44.2438" y="34.0781" width="47.5984" height="52.0297" filterUnits="userSpaceOnUse" color-interpolation-filters="sRGB">
<feFlood flood-opacity="0" result="BackgroundImageFix"/>
<feColorMatrix in="SourceAlpha" type="matrix" values="0 0 0 0 0 0 0 0 0 0 0 0 0 0 0 0 0 0 127 0" result="hardAlpha"/>
<feMorphology radius="6" operator="dilate" in="SourceAlpha" result="effect1_dropShadow_18985_138712"/>
<feOffset dy="33"/>
<feGaussianBlur stdDeviation="3.55"/>
<feComposite in2="hardAlpha" operator="out"/>
<feColorMatrix type="matrix" values="0 0 0 0 0.443137 0 0 0 0 0.247059 0 0 0 0 0.717647 0 0 0 0.14 0"/>
<feBlend mode="normal" in2="BackgroundImageFix" result="effect1_dropShadow_18985_138712"/>
<feBlend mode="normal" in="SourceGraphic" in2="effect1_dropShadow_18985_138712" result="shape"/>
</filter>
<filter id="filter1_d_18985_138712" x="29.2" y="45" width="34.6" height="36.8" filterUnits="userSpaceOnUse" color-interpolation-filters="sRGB">
<feFlood flood-opacity="0" result="BackgroundImageFix"/>
<feColorMatrix in="SourceAlpha" type="matrix" values="0 0 0 0 0 0 0 0 0 0 0 0 0 0 0 0 0 0 127 0" result="hardAlpha"/>
<feMorphology radius="7" operator="dilate" in="SourceAlpha" result="effect1_dropShadow_18985_138712"/>
<feOffset dy="19"/>
<feGaussianBlur stdDeviation="2.9"/>
<feComposite in2="hardAlpha" operator="out"/>
<feColorMatrix type="matrix" values="0 0 0 0 0.8 0 0 0 0 0.862745 0 0 0 0 0.976471 0 0 0 1 0"/>
<feBlend mode="normal" in2="BackgroundImageFix" result="effect1_dropShadow_18985_138712"/>
<feBlend mode="normal" in="SourceGraphic" in2="effect1_dropShadow_18985_138712" result="shape"/>
</filter>
<linearGradient id="paint0_linear_18985_138712" x1="26.5398" y1="4.0893" x2="96.0946" y2="96.3697" gradientUnits="userSpaceOnUse">
<stop offset="0.33" stop-color="#FCC84E"/>
<stop offset="0.3301" stop-color="#FEF04F"/>
<stop offset="0.45" stop-color="#FEF04F"/>
<stop offset="0.4501" stop-color="#FCC84E"/>
<stop offset="0.6149" stop-color="#FCC84E"/>
<stop offset="0.615" stop-color="#F59E1B"/>
<stop offset="0.72" stop-color="#F59E1B"/>
<stop offset="0.7201" stop-color="#FCC84E"/>
</linearGradient>
<linearGradient id="paint1_linear_18985_138712" x1="41.7829" y1="15.5527" x2="108.521" y2="87.0878" gradientUnits="userSpaceOnUse">
<stop offset="0.405" stop-color="#FFBD00"/>
<stop offset="0.4051" stop-color="#FAA300"/>
</linearGradient>
<linearGradient id="paint2_linear_18985_138712" x1="67.1499" y1="13" x2="67.1499" y2="82.7145" gradientUnits="userSpaceOnUse">
<stop offset="0.505" stop-color="white" stop-opacity="0"/>
<stop offset="1" stop-color="#FEF050"/>
</linearGradient>
<linearGradient id="paint3_linear_18985_138712" x1="69.1094" y1="8.16406" x2="69.1094" y2="88.2722" gradientUnits="userSpaceOnUse">
<stop offset="0.175" stop-color="white" stop-opacity="0"/>
<stop offset="0.610852" stop-color="#88C1ED"/>
</linearGradient>
<linearGradient id="paint4_linear_18985_138712" x1="67.5" y1="-8" x2="67.5" y2="103" gradientUnits="userSpaceOnUse">
<stop stop-color="#F4FAFF"/>
<stop offset="1" stop-color="#C4D4FF"/>
</linearGradient>
<radialGradient id="paint5_radial_18985_138712" cx="0" cy="0" r="1" gradientUnits="userSpaceOnUse" gradientTransform="translate(61.5107 66.9781) rotate(-89.528) scale(10.5 47.4716)">
<stop stop-color="#6933B1"/>
<stop offset="0.174858" stop-color="#9379D5" stop-opacity="0.612407"/>
<stop offset="0.328587" stop-color="#B5B1F2" stop-opacity="0.3"/>
<stop offset="0.501042" stop-color="#B5B1F2" stop-opacity="0"/>
</radialGradient>
<linearGradient id="paint6_linear_18985_138712" x1="68.044" y1="35.5393" x2="68.044" y2="38.5393" gradientUnits="userSpaceOnUse">
<stop stop-color="#CCDBF9"/>
<stop offset="1" stop-color="#97B0F1"/>
</linearGradient>
<linearGradient id="paint7_linear_18985_138712" x1="46.5" y1="45" x2="46.5" y2="50" gradientUnits="userSpaceOnUse">
<stop stop-color="#CCDBF9"/>
<stop offset="1" stop-color="#97B0F1"/>
</linearGradient>
</defs>
</svg>
