<svg width="550" height="400" viewBox="0 0 550 400" fill="none" xmlns="http://www.w3.org/2000/svg">
<g clip-path="url(#clip0_23312_182101)">
<g clip-path="url(#clip1_23312_182101)">
<path d="M515 334.812H-64.9551V335.102H515V334.812Z" fill="#EBEBEB"/>
<path d="M456.887 353.453H418.471V353.743H456.887V353.453Z" fill="#EBEBEB"/>
<path d="M319.23 356.602H309.15V356.891H319.23V356.602Z" fill="#EBEBEB"/>
<path d="M417.311 342.703H395.053V342.993H417.311V342.703Z" fill="#EBEBEB"/>
<path d="M45.991 344.648H-4.10547V344.938H45.991V344.648Z" fill="#EBEBEB"/>
<path d="M63.6684 344.648H56.3262V344.938H63.6684V344.648Z" fill="#EBEBEB"/>
<path d="M196.199 349.531H87.5391V349.821H196.199V349.531Z" fill="#EBEBEB"/>
<path d="M9.48828 335.015V279.663H14.2323V253.295H21.1686V161.593H31.1786V149.77L52.5673 139.811V127.884H55.5251V161.593H59.6776V253.295H63.8301V205.076H75.0812V180.237H78.2245V253.295H86.7731V225.492H92.4102V218.393H105.448V194.133H112.581V176.983H121.362V151.982H124.482V176.983H133.262V194.133H140.396V218.393H153.433V225.492H159.07V253.295H165.74V218.393H178.777V143.262H182.93V134.982H210.779V143.262H216.706V197.688H240.403V203.003H249.288V207.149H240.403V228.444H265.283V157.459H270.619V142.37H282.172V88.8359H285.431V142.37H293.736V157.459H342.371V152.491H345.329V186.212H349.481V186.803H351.963V220.524H356.116V229.695H364.885V204.844H368.028V264.007H371.519V239.156H374.663V277.903H376.577V250.099H382.202V243H395.24V218.752H402.373V201.59H411.154V176.601H414.285V201.59H423.066V218.752H430.199V243H443.237V250.099H448.862V277.312H449.871V277.903H452.667V335.015H9.48828Z" fill="#E6E6E6"/>
<path d="M315.229 160.766H311.877V164.112H315.229V160.766Z" fill="#F0F0F0"/>
<path d="M315.229 166.398H311.877V169.745H315.229V166.398Z" fill="#F0F0F0"/>
<path d="M315.229 188.875H311.877V192.222H315.229V188.875Z" fill="#F0F0F0"/>
<path d="M315.229 194.484H311.877V197.831H315.229V194.484Z" fill="#F0F0F0"/>
<path d="M315.229 200.117H311.877V203.475H315.229V200.117Z" fill="#F0F0F0"/>
<path d="M315.229 216.969H311.877V220.315H315.229V216.969Z" fill="#F0F0F0"/>
<path d="M315.229 222.594H311.877V225.952H315.229V222.594Z" fill="#F0F0F0"/>
<path d="M309.891 183.258H306.539V186.604H309.891V183.258Z" fill="#F0F0F0"/>
<path d="M309.891 188.875H306.539V192.222H309.891V188.875Z" fill="#F0F0F0"/>
<path d="M309.891 194.484H306.539V197.831H309.891V194.484Z" fill="#F0F0F0"/>
<path d="M309.891 200.117H306.539V203.475H309.891V200.117Z" fill="#F0F0F0"/>
<path d="M309.891 205.734H306.539V209.093H309.891V205.734Z" fill="#F0F0F0"/>
<path d="M309.891 216.969H306.539V220.315H309.891V216.969Z" fill="#F0F0F0"/>
<path d="M309.891 222.594H306.539V225.952H309.891V222.594Z" fill="#F0F0F0"/>
<path d="M304.557 160.766H301.205V164.112H304.557V160.766Z" fill="#F0F0F0"/>
<path d="M304.557 166.398H301.205V169.745H304.557V166.398Z" fill="#F0F0F0"/>
<path d="M304.557 172.016H301.205V175.374H304.557V172.016Z" fill="#F0F0F0"/>
<path d="M304.557 177.625H301.205V180.983H304.557V177.625Z" fill="#F0F0F0"/>
<path d="M304.557 183.258H301.205V186.604H304.557V183.258Z" fill="#F0F0F0"/>
<path d="M304.557 188.875H301.205V192.222H304.557V188.875Z" fill="#F0F0F0"/>
<path d="M304.557 194.484H301.205V197.831H304.557V194.484Z" fill="#F0F0F0"/>
<path d="M304.557 200.117H301.205V203.475H304.557V200.117Z" fill="#F0F0F0"/>
<path d="M304.557 205.734H301.205V209.093H304.557V205.734Z" fill="#F0F0F0"/>
<path d="M304.557 211.352H301.205V214.71H304.557V211.352Z" fill="#F0F0F0"/>
<path d="M304.557 222.594H301.205V225.952H304.557V222.594Z" fill="#F0F0F0"/>
<path d="M299.221 160.766H295.869V164.112H299.221V160.766Z" fill="#F0F0F0"/>
<path d="M299.221 166.398H295.869V169.745H299.221V166.398Z" fill="#F0F0F0"/>
<path d="M299.221 172.016H295.869V175.374H299.221V172.016Z" fill="#F0F0F0"/>
<path d="M299.221 177.625H295.869V180.983H299.221V177.625Z" fill="#F0F0F0"/>
<path d="M299.221 183.258H295.869V186.604H299.221V183.258Z" fill="#F0F0F0"/>
<path d="M299.221 188.875H295.869V192.222H299.221V188.875Z" fill="#F0F0F0"/>
<path d="M299.221 194.484H295.869V197.831H299.221V194.484Z" fill="#F0F0F0"/>
<path d="M299.221 245.07H295.869V248.417H299.221V245.07Z" fill="#F0F0F0"/>
<path d="M293.887 160.766H290.535V164.112H293.887V160.766Z" fill="#F0F0F0"/>
<path d="M293.887 166.398H290.535V169.745H293.887V166.398Z" fill="#F0F0F0"/>
<path d="M293.887 172.016H290.535V175.374H293.887V172.016Z" fill="#F0F0F0"/>
<path d="M293.887 177.625H290.535V180.983H293.887V177.625Z" fill="#F0F0F0"/>
<path d="M293.887 183.258H290.535V186.604H293.887V183.258Z" fill="#F0F0F0"/>
<path d="M293.887 188.875H290.535V192.222H293.887V188.875Z" fill="#F0F0F0"/>
<path d="M293.887 194.484H290.535V197.831H293.887V194.484Z" fill="#F0F0F0"/>
<path d="M293.887 200.117H290.535V203.475H293.887V200.117Z" fill="#F0F0F0"/>
<path d="M293.887 233.828H290.535V237.175H293.887V233.828Z" fill="#F0F0F0"/>
<path d="M293.887 239.453H290.535V242.8H293.887V239.453Z" fill="#F0F0F0"/>
<path d="M293.887 245.07H290.535V248.417H293.887V245.07Z" fill="#F0F0F0"/>
<path d="M293.887 250.688H290.535V254.046H293.887V250.688Z" fill="#F0F0F0"/>
<path d="M293.887 273.172H290.535V276.518H293.887V273.172Z" fill="#F0F0F0"/>
<path d="M288.563 160.766H285.211V164.112H288.563V160.766Z" fill="#F0F0F0"/>
<path d="M288.563 166.398H285.211V169.745H288.563V166.398Z" fill="#F0F0F0"/>
<path d="M288.563 172.016H285.211V175.374H288.563V172.016Z" fill="#F0F0F0"/>
<path d="M288.563 177.625H285.211V180.983H288.563V177.625Z" fill="#F0F0F0"/>
<path d="M288.563 183.258H285.211V186.604H288.563V183.258Z" fill="#F0F0F0"/>
<path d="M288.563 188.875H285.211V192.222H288.563V188.875Z" fill="#F0F0F0"/>
<path d="M288.563 194.484H285.211V197.831H288.563V194.484Z" fill="#F0F0F0"/>
<path d="M288.563 200.117H285.211V203.475H288.563V200.117Z" fill="#F0F0F0"/>
<path d="M288.563 205.734H285.211V209.093H288.563V205.734Z" fill="#F0F0F0"/>
<path d="M288.563 211.352H285.211V214.71H288.563V211.352Z" fill="#F0F0F0"/>
<path d="M288.563 228.211H285.211V231.558H288.563V228.211Z" fill="#F0F0F0"/>
<path d="M288.563 233.828H285.211V237.175H288.563V233.828Z" fill="#F0F0F0"/>
<path d="M288.563 239.461H285.211V242.808H288.563V239.461Z" fill="#F0F0F0"/>
<path d="M288.563 245.07H285.211V248.417H288.563V245.07Z" fill="#F0F0F0"/>
<path d="M288.563 250.688H285.211V254.046H288.563V250.688Z" fill="#F0F0F0"/>
<path d="M288.563 273.172H285.211V276.518H288.563V273.172Z" fill="#F0F0F0"/>
<path d="M283.225 160.766H279.873V164.112H283.225V160.766Z" fill="#F0F0F0"/>
<path d="M283.225 166.398H279.873V169.745H283.225V166.398Z" fill="#F0F0F0"/>
<path d="M283.225 172.016H279.873V175.374H283.225V172.016Z" fill="#F0F0F0"/>
<path d="M283.225 177.625H279.873V180.983H283.225V177.625Z" fill="#F0F0F0"/>
<path d="M283.225 183.258H279.873V186.604H283.225V183.258Z" fill="#F0F0F0"/>
<path d="M283.225 188.875H279.873V192.222H283.225V188.875Z" fill="#F0F0F0"/>
<path d="M283.225 194.484H279.873V197.831H283.225V194.484Z" fill="#F0F0F0"/>
<path d="M283.225 200.117H279.873V203.475H283.225V200.117Z" fill="#F0F0F0"/>
<path d="M283.225 205.734H279.873V209.093H283.225V205.734Z" fill="#F0F0F0"/>
<path d="M283.225 211.352H279.873V214.71H283.225V211.352Z" fill="#F0F0F0"/>
<path d="M283.225 216.969H279.873V220.315H283.225V216.969Z" fill="#F0F0F0"/>
<path d="M283.225 222.594H279.873V225.952H283.225V222.594Z" fill="#F0F0F0"/>
<path d="M283.225 228.211H279.873V231.558H283.225V228.211Z" fill="#F0F0F0"/>
<path d="M283.225 233.828H279.873V237.175H283.225V233.828Z" fill="#F0F0F0"/>
<path d="M283.225 239.453H279.873V242.8H283.225V239.453Z" fill="#F0F0F0"/>
<path d="M283.225 245.07H279.873V248.417H283.225V245.07Z" fill="#F0F0F0"/>
<path d="M283.225 250.688H279.873V254.046H283.225V250.688Z" fill="#F0F0F0"/>
<path d="M283.225 256.312H279.873V259.671H283.225V256.312Z" fill="#F0F0F0"/>
<path d="M277.891 160.766H274.539V164.112H277.891V160.766Z" fill="#F0F0F0"/>
<path d="M277.891 166.398H274.539V169.745H277.891V166.398Z" fill="#F0F0F0"/>
<path d="M277.891 172.016H274.539V175.374H277.891V172.016Z" fill="#F0F0F0"/>
<path d="M277.891 177.625H274.539V180.983H277.891V177.625Z" fill="#F0F0F0"/>
<path d="M277.891 183.258H274.539V186.604H277.891V183.258Z" fill="#F0F0F0"/>
<path d="M277.891 188.875H274.539V192.222H277.891V188.875Z" fill="#F0F0F0"/>
<path d="M277.891 194.484H274.539V197.831H277.891V194.484Z" fill="#F0F0F0"/>
<path d="M277.891 200.117H274.539V203.475H277.891V200.117Z" fill="#F0F0F0"/>
<path d="M277.891 205.734H274.539V209.093H277.891V205.734Z" fill="#F0F0F0"/>
<path d="M277.891 211.352H274.539V214.71H277.891V211.352Z" fill="#F0F0F0"/>
<path d="M277.891 228.211H274.539V231.558H277.891V228.211Z" fill="#F0F0F0"/>
<path d="M277.891 233.828H274.539V237.175H277.891V233.828Z" fill="#F0F0F0"/>
<path d="M277.891 239.453H274.539V242.8H277.891V239.453Z" fill="#F0F0F0"/>
<path d="M277.891 245.07H274.539V248.417H277.891V245.07Z" fill="#F0F0F0"/>
<path d="M272.555 160.766H269.203V164.112H272.555V160.766Z" fill="#F0F0F0"/>
<path d="M272.555 166.398H269.203V169.745H272.555V166.398Z" fill="#F0F0F0"/>
<path d="M272.555 172.016H269.203V175.374H272.555V172.016Z" fill="#F0F0F0"/>
<path d="M272.555 177.625H269.203V180.983H272.555V177.625Z" fill="#F0F0F0"/>
<path d="M272.555 183.258H269.203V186.604H272.555V183.258Z" fill="#F0F0F0"/>
<path d="M272.555 188.875H269.203V192.222H272.555V188.875Z" fill="#F0F0F0"/>
<path d="M272.555 194.484H269.203V197.831H272.555V194.484Z" fill="#F0F0F0"/>
<path d="M272.555 200.117H269.203V203.475H272.555V200.117Z" fill="#F0F0F0"/>
<path d="M272.555 205.734H269.203V209.093H272.555V205.734Z" fill="#F0F0F0"/>
<path d="M272.555 211.352H269.203V214.71H272.555V211.352Z" fill="#F0F0F0"/>
<path d="M272.555 228.211H269.203V231.558H272.555V228.211Z" fill="#F0F0F0"/>
<path d="M272.555 233.828H269.203V237.175H272.555V233.828Z" fill="#F0F0F0"/>
<path d="M272.555 239.461H269.203V242.808H272.555V239.461Z" fill="#F0F0F0"/>
<path d="M212.518 146.18H209.166V149.526H212.518V146.18Z" fill="#F0F0F0"/>
<path d="M212.518 151.812H209.166V155.159H212.518V151.812Z" fill="#F0F0F0"/>
<path d="M212.518 157.422H209.166V160.768H212.518V157.422Z" fill="#F0F0F0"/>
<path d="M212.518 163.039H209.166V166.386H212.518V163.039Z" fill="#F0F0F0"/>
<path d="M212.518 168.664H209.166V172.011H212.518V168.664Z" fill="#F0F0F0"/>
<path d="M212.518 174.281H209.166V177.628H212.518V174.281Z" fill="#F0F0F0"/>
<path d="M212.518 179.906H209.166V183.253H212.518V179.906Z" fill="#F0F0F0"/>
<path d="M212.518 185.516H209.166V188.862H212.518V185.516Z" fill="#F0F0F0"/>
<path d="M212.518 202.375H209.166V205.722H212.518V202.375Z" fill="#F0F0F0"/>
<path d="M212.518 208H209.166V211.347H212.518V208Z" fill="#F0F0F0"/>
<path d="M207.196 146.18H203.832V149.526H207.196V146.18Z" fill="#F0F0F0"/>
<path d="M207.196 151.805H203.832V155.151H207.196V151.805Z" fill="#F0F0F0"/>
<path d="M207.196 157.422H203.832V160.768H207.196V157.422Z" fill="#F0F0F0"/>
<path d="M207.196 163.039H203.832V166.386H207.196V163.039Z" fill="#F0F0F0"/>
<path d="M207.196 168.664H203.832V172.011H207.196V168.664Z" fill="#F0F0F0"/>
<path d="M207.196 174.281H203.832V177.628H207.196V174.281Z" fill="#F0F0F0"/>
<path d="M207.196 179.906H203.832V183.253H207.196V179.906Z" fill="#F0F0F0"/>
<path d="M207.196 185.516H203.832V188.862H207.196V185.516Z" fill="#F0F0F0"/>
<path d="M207.196 208H203.832V211.347H207.196V208Z" fill="#F0F0F0"/>
<path d="M201.86 146.18H198.496V149.526H201.86V146.18Z" fill="#F0F0F0"/>
<path d="M201.86 151.805H198.496V155.151H201.86V151.805Z" fill="#F0F0F0"/>
<path d="M201.86 157.422H198.496V160.768H201.86V157.422Z" fill="#F0F0F0"/>
<path d="M201.86 163.039H198.496V166.386H201.86V163.039Z" fill="#F0F0F0"/>
<path d="M201.86 168.664H198.496V172.011H201.86V168.664Z" fill="#F0F0F0"/>
<path d="M201.86 174.281H198.496V177.628H201.86V174.281Z" fill="#F0F0F0"/>
<path d="M201.86 179.906H198.496V183.253H201.86V179.906Z" fill="#F0F0F0"/>
<path d="M201.86 185.516H198.496V188.862H201.86V185.516Z" fill="#F0F0F0"/>
<path d="M196.522 146.18H193.158V149.526H196.522V146.18Z" fill="#F0F0F0"/>
<path d="M196.522 151.805H193.158V155.151H196.522V151.805Z" fill="#F0F0F0"/>
<path d="M196.522 157.422H193.158V160.768H196.522V157.422Z" fill="#F0F0F0"/>
<path d="M196.522 163.039H193.158V166.386H196.522V163.039Z" fill="#F0F0F0"/>
<path d="M196.522 168.664H193.158V172.011H196.522V168.664Z" fill="#F0F0F0"/>
<path d="M196.522 174.281H193.158V177.628H196.522V174.281Z" fill="#F0F0F0"/>
<path d="M196.522 185.516H193.158V188.862H196.522V185.516Z" fill="#F0F0F0"/>
<path d="M196.522 191.141H193.158V194.487H196.522V191.141Z" fill="#F0F0F0"/>
<path d="M196.522 208H193.158V211.347H196.522V208Z" fill="#F0F0F0"/>
<path d="M196.522 213.625H193.158V216.972H196.522V213.625Z" fill="#F0F0F0"/>
<path d="M196.522 219.234H193.158V222.581H196.522V219.234Z" fill="#F0F0F0"/>
<path d="M196.522 224.859H193.158V228.206H196.522V224.859Z" fill="#F0F0F0"/>
<path d="M196.522 230.484H193.158V233.831H196.522V230.484Z" fill="#F0F0F0"/>
<path d="M196.522 236.094H193.158V239.44H196.522V236.094Z" fill="#F0F0F0"/>
<path d="M196.522 241.719H193.158V245.077H196.522V241.719Z" fill="#F0F0F0"/>
<path d="M191.188 146.18H187.836V149.526H191.188V146.18Z" fill="#F0F0F0"/>
<path d="M191.188 151.805H187.836V155.151H191.188V151.805Z" fill="#F0F0F0"/>
<path d="M191.188 157.422H187.836V160.768H191.188V157.422Z" fill="#F0F0F0"/>
<path d="M191.188 163.039H187.836V166.386H191.188V163.039Z" fill="#F0F0F0"/>
<path d="M191.188 168.664H187.836V172.011H191.188V168.664Z" fill="#F0F0F0"/>
<path d="M191.188 174.281H187.836V177.628H191.188V174.281Z" fill="#F0F0F0"/>
<path d="M191.188 191.141H187.836V194.487H191.188V191.141Z" fill="#F0F0F0"/>
<path d="M191.188 196.766H187.836V200.112H191.188V196.766Z" fill="#F0F0F0"/>
<path d="M191.188 202.375H187.836V205.722H191.188V202.375Z" fill="#F0F0F0"/>
<path d="M191.188 208H187.836V211.347H191.188V208Z" fill="#F0F0F0"/>
<path d="M191.188 213.625H187.836V216.972H191.188V213.625Z" fill="#F0F0F0"/>
<path d="M191.188 219.234H187.836V222.581H191.188V219.234Z" fill="#F0F0F0"/>
<path d="M191.188 224.859H187.836V228.206H191.188V224.859Z" fill="#F0F0F0"/>
<path d="M191.188 230.484H187.836V233.831H191.188V230.484Z" fill="#F0F0F0"/>
<path d="M191.188 236.094H187.836V239.44H191.188V236.094Z" fill="#F0F0F0"/>
<path d="M191.188 241.719H187.836V245.077H191.188V241.719Z" fill="#F0F0F0"/>
<path d="M191.188 247.344H187.836V250.69H191.188V247.344Z" fill="#F0F0F0"/>
<path d="M191.188 258.578H187.836V261.925H191.188V258.578Z" fill="#F0F0F0"/>
<path d="M185.864 146.18H182.5V149.526H185.864V146.18Z" fill="#F0F0F0"/>
<path d="M185.864 151.812H182.5V155.159H185.864V151.812Z" fill="#F0F0F0"/>
<path d="M185.864 157.422H182.5V160.768H185.864V157.422Z" fill="#F0F0F0"/>
<path d="M185.864 163.039H182.5V166.386H185.864V163.039Z" fill="#F0F0F0"/>
<path d="M185.864 168.664H182.5V172.011H185.864V168.664Z" fill="#F0F0F0"/>
<path d="M185.864 174.281H182.5V177.628H185.864V174.281Z" fill="#F0F0F0"/>
<path d="M185.864 191.141H182.5V194.487H185.864V191.141Z" fill="#F0F0F0"/>
<path d="M185.864 196.766H182.5V200.112H185.864V196.766Z" fill="#F0F0F0"/>
<path d="M185.864 202.375H182.5V205.722H185.864V202.375Z" fill="#F0F0F0"/>
<path d="M185.864 208H182.5V211.347H185.864V208Z" fill="#F0F0F0"/>
<path d="M185.864 224.859H182.5V228.206H185.864V224.859Z" fill="#F0F0F0"/>
<path d="M185.864 230.484H182.5V233.831H185.864V230.484Z" fill="#F0F0F0"/>
<path d="M185.864 236.094H182.5V239.44H185.864V236.094Z" fill="#F0F0F0"/>
<path d="M185.864 241.719H182.5V245.077H185.864V241.719Z" fill="#F0F0F0"/>
<path d="M185.864 247.344H182.5V250.69H185.864V247.344Z" fill="#F0F0F0"/>
<path d="M185.864 258.578H182.5V261.925H185.864V258.578Z" fill="#F0F0F0"/>
<path d="M185.864 264.203H182.5V267.55H185.864V264.203Z" fill="#F0F0F0"/>
<path d="M137.46 198.438H134.107V201.784H137.46V198.438Z" fill="#F0F0F0"/>
<path d="M137.46 204.062H134.107V207.409H137.46V204.062Z" fill="#F0F0F0"/>
<path d="M137.46 209.672H134.107V213.019H137.46V209.672Z" fill="#F0F0F0"/>
<path d="M137.46 215.297H134.107V218.643H137.46V215.297Z" fill="#F0F0F0"/>
<path d="M137.46 220.914H134.107V224.261H137.46V220.914Z" fill="#F0F0F0"/>
<path d="M137.46 226.531H134.107V229.878H137.46V226.531Z" fill="#F0F0F0"/>
<path d="M137.46 232.156H134.107V235.503H137.46V232.156Z" fill="#F0F0F0"/>
<path d="M137.46 249.016H134.107V252.362H137.46V249.016Z" fill="#F0F0F0"/>
<path d="M137.46 254.641H134.107V257.987H137.46V254.641Z" fill="#F0F0F0"/>
<path d="M137.46 260.25H134.107V263.597H137.46V260.25Z" fill="#F0F0F0"/>
<path d="M132.126 198.438H128.773V201.784H132.126V198.438Z" fill="#F0F0F0"/>
<path d="M132.126 204.062H128.773V207.409H132.126V204.062Z" fill="#F0F0F0"/>
<path d="M132.126 209.672H128.773V213.019H132.126V209.672Z" fill="#F0F0F0"/>
<path d="M132.126 215.297H128.773V218.643H132.126V215.297Z" fill="#F0F0F0"/>
<path d="M132.126 220.914H128.773V224.261H132.126V220.914Z" fill="#F0F0F0"/>
<path d="M132.126 226.531H128.773V229.878H132.126V226.531Z" fill="#F0F0F0"/>
<path d="M132.126 232.156H128.773V235.503H132.126V232.156Z" fill="#F0F0F0"/>
<path d="M126.79 198.438H123.438V201.784H126.79V198.438Z" fill="#F0F0F0"/>
<path d="M126.79 204.062H123.438V207.409H126.79V204.062Z" fill="#F0F0F0"/>
<path d="M126.79 209.672H123.438V213.019H126.79V209.672Z" fill="#F0F0F0"/>
<path d="M126.79 215.297H123.438V218.643H126.79V215.297Z" fill="#F0F0F0"/>
<path d="M126.79 220.914H123.438V224.261H126.79V220.914Z" fill="#F0F0F0"/>
<path d="M126.79 226.531H123.438V229.878H126.79V226.531Z" fill="#F0F0F0"/>
<path d="M126.79 232.156H123.438V235.503H126.79V232.156Z" fill="#F0F0F0"/>
<path d="M121.465 198.438H118.113V201.784H121.465V198.438Z" fill="#F0F0F0"/>
<path d="M121.465 204.062H118.113V207.409H121.465V204.062Z" fill="#F0F0F0"/>
<path d="M121.465 209.672H118.113V213.019H121.465V209.672Z" fill="#F0F0F0"/>
<path d="M121.465 215.297H118.113V218.643H121.465V215.297Z" fill="#F0F0F0"/>
<path d="M121.465 220.914H118.113V224.261H121.465V220.914Z" fill="#F0F0F0"/>
<path d="M121.465 226.531H118.113V229.878H121.465V226.531Z" fill="#F0F0F0"/>
<path d="M121.465 232.156H118.113V235.503H121.465V232.156Z" fill="#F0F0F0"/>
<path d="M121.465 237.773H118.113V241.12H121.465V237.773Z" fill="#F0F0F0"/>
<path d="M121.465 243.391H118.113V246.737H121.465V243.391Z" fill="#F0F0F0"/>
<path d="M121.465 249.016H118.113V252.362H121.465V249.016Z" fill="#F0F0F0"/>
<path d="M121.465 254.641H118.113V257.987H121.465V254.641Z" fill="#F0F0F0"/>
<path d="M116.131 198.438H112.779V201.784H116.131V198.438Z" fill="#F0F0F0"/>
<path d="M116.131 204.062H112.779V207.409H116.131V204.062Z" fill="#F0F0F0"/>
<path d="M116.131 209.672H112.779V213.019H116.131V209.672Z" fill="#F0F0F0"/>
<path d="M116.131 215.297H112.779V218.643H116.131V215.297Z" fill="#F0F0F0"/>
<path d="M116.131 220.914H112.779V224.261H116.131V220.914Z" fill="#F0F0F0"/>
<path d="M116.131 226.531H112.779V229.878H116.131V226.531Z" fill="#F0F0F0"/>
<path d="M116.131 232.156H112.779V235.503H116.131V232.156Z" fill="#F0F0F0"/>
<path d="M116.131 237.773H112.779V241.12H116.131V237.773Z" fill="#F0F0F0"/>
<path d="M116.131 243.391H112.779V246.737H116.131V243.391Z" fill="#F0F0F0"/>
<path d="M116.131 249.016H112.779V252.362H116.131V249.016Z" fill="#F0F0F0"/>
<path d="M116.131 254.641H112.779V257.987H116.131V254.641Z" fill="#F0F0F0"/>
<path d="M116.131 260.25H112.779V263.597H116.131V260.25Z" fill="#F0F0F0"/>
<path d="M116.131 277.109H112.779V280.456H116.131V277.109Z" fill="#F0F0F0"/>
<path d="M116.131 282.727H112.779V286.073H116.131V282.727Z" fill="#F0F0F0"/>
<path d="M110.795 198.438H107.443V201.784H110.795V198.438Z" fill="#F0F0F0"/>
<path d="M110.795 204.062H107.443V207.409H110.795V204.062Z" fill="#F0F0F0"/>
<path d="M110.795 209.672H107.443V213.019H110.795V209.672Z" fill="#F0F0F0"/>
<path d="M110.795 226.531H107.443V229.878H110.795V226.531Z" fill="#F0F0F0"/>
<path d="M110.795 232.156H107.443V235.503H110.795V232.156Z" fill="#F0F0F0"/>
<path d="M110.795 237.773H107.443V241.12H110.795V237.773Z" fill="#F0F0F0"/>
<path d="M110.795 243.391H107.443V246.737H110.795V243.391Z" fill="#F0F0F0"/>
<path d="M110.795 249.023H107.443V252.37H110.795V249.023Z" fill="#F0F0F0"/>
<path d="M110.795 254.641H107.443V257.987H110.795V254.641Z" fill="#F0F0F0"/>
<path d="M110.795 260.25H107.443V263.597H110.795V260.25Z" fill="#F0F0F0"/>
<path d="M110.795 277.109H107.443V280.456H110.795V277.109Z" fill="#F0F0F0"/>
<path d="M110.795 282.727H107.443V286.073H110.795V282.727Z" fill="#F0F0F0"/>
<path d="M110.795 288.359H107.443V291.718H110.795V288.359Z" fill="#F0F0F0"/>
<path d="M54.9087 164.719H51.5449V168.065H54.9087V164.719Z" fill="#F0F0F0"/>
<path d="M54.9087 170.336H51.5449V173.683H54.9087V170.336Z" fill="#F0F0F0"/>
<path d="M54.9087 175.961H51.5449V179.308H54.9087V175.961Z" fill="#F0F0F0"/>
<path d="M54.9087 181.578H51.5449V184.925H54.9087V181.578Z" fill="#F0F0F0"/>
<path d="M54.9087 187.188H51.5449V190.534H54.9087V187.188Z" fill="#F0F0F0"/>
<path d="M54.9087 192.812H51.5449V196.159H54.9087V192.812Z" fill="#F0F0F0"/>
<path d="M54.9087 198.438H51.5449V201.784H54.9087V198.438Z" fill="#F0F0F0"/>
<path d="M54.9087 204.062H51.5449V207.409H54.9087V204.062Z" fill="#F0F0F0"/>
<path d="M54.9087 209.672H51.5449V213.019H54.9087V209.672Z" fill="#F0F0F0"/>
<path d="M54.9087 215.297H51.5449V218.643H54.9087V215.297Z" fill="#F0F0F0"/>
<path d="M54.9087 220.914H51.5449V224.261H54.9087V220.914Z" fill="#F0F0F0"/>
<path d="M54.9087 226.531H51.5449V229.878H54.9087V226.531Z" fill="#F0F0F0"/>
<path d="M54.9087 232.156H51.5449V235.503H54.9087V232.156Z" fill="#F0F0F0"/>
<path d="M54.9087 237.773H51.5449V241.12H54.9087V237.773Z" fill="#F0F0F0"/>
<path d="M54.9087 243.391H51.5449V246.737H54.9087V243.391Z" fill="#F0F0F0"/>
<path d="M54.9087 249.016H51.5449V252.362H54.9087V249.016Z" fill="#F0F0F0"/>
<path d="M54.9087 254.641H51.5449V257.987H54.9087V254.641Z" fill="#F0F0F0"/>
<path d="M54.9087 260.25H51.5449V263.597H54.9087V260.25Z" fill="#F0F0F0"/>
<path d="M54.9087 265.875H51.5449V269.222H54.9087V265.875Z" fill="#F0F0F0"/>
<path d="M54.9087 271.5H51.5449V274.847H54.9087V271.5Z" fill="#F0F0F0"/>
<path d="M54.9087 277.109H51.5449V280.456H54.9087V277.109Z" fill="#F0F0F0"/>
<path d="M54.9087 282.727H51.5449V286.073H54.9087V282.727Z" fill="#F0F0F0"/>
<path d="M54.9087 288.359H51.5449V291.718H54.9087V288.359Z" fill="#F0F0F0"/>
<path d="M49.5631 164.719H46.2109V168.065H49.5631V164.719Z" fill="#F0F0F0"/>
<path d="M49.5631 170.336H46.2109V173.683H49.5631V170.336Z" fill="#F0F0F0"/>
<path d="M49.5631 175.961H46.2109V179.308H49.5631V175.961Z" fill="#F0F0F0"/>
<path d="M49.5631 181.578H46.2109V184.925H49.5631V181.578Z" fill="#F0F0F0"/>
<path d="M49.5631 187.188H46.2109V190.534H49.5631V187.188Z" fill="#F0F0F0"/>
<path d="M49.5631 192.812H46.2109V196.159H49.5631V192.812Z" fill="#F0F0F0"/>
<path d="M49.5631 198.438H46.2109V201.784H49.5631V198.438Z" fill="#F0F0F0"/>
<path d="M49.5631 204.062H46.2109V207.409H49.5631V204.062Z" fill="#F0F0F0"/>
<path d="M49.5631 209.672H46.2109V213.019H49.5631V209.672Z" fill="#F0F0F0"/>
<path d="M49.5631 215.297H46.2109V218.643H49.5631V215.297Z" fill="#F0F0F0"/>
<path d="M49.5631 220.914H46.2109V224.261H49.5631V220.914Z" fill="#F0F0F0"/>
<path d="M49.5631 226.531H46.2109V229.878H49.5631V226.531Z" fill="#F0F0F0"/>
<path d="M49.5631 232.156H46.2109V235.503H49.5631V232.156Z" fill="#F0F0F0"/>
<path d="M49.5631 237.773H46.2109V241.12H49.5631V237.773Z" fill="#F0F0F0"/>
<path d="M49.5631 243.391H46.2109V246.737H49.5631V243.391Z" fill="#F0F0F0"/>
<path d="M49.5631 249.016H46.2109V252.362H49.5631V249.016Z" fill="#F0F0F0"/>
<path d="M49.5631 254.641H46.2109V257.987H49.5631V254.641Z" fill="#F0F0F0"/>
<path d="M49.5631 260.25H46.2109V263.597H49.5631V260.25Z" fill="#F0F0F0"/>
<path d="M49.5631 265.875H46.2109V269.222H49.5631V265.875Z" fill="#F0F0F0"/>
<path d="M44.2389 164.719H40.8867V168.065H44.2389V164.719Z" fill="#F0F0F0"/>
<path d="M44.2389 170.336H40.8867V173.683H44.2389V170.336Z" fill="#F0F0F0"/>
<path d="M44.2389 175.961H40.8867V179.308H44.2389V175.961Z" fill="#F0F0F0"/>
<path d="M44.2389 181.578H40.8867V184.925H44.2389V181.578Z" fill="#F0F0F0"/>
<path d="M44.2389 187.188H40.8867V190.534H44.2389V187.188Z" fill="#F0F0F0"/>
<path d="M44.2389 192.812H40.8867V196.159H44.2389V192.812Z" fill="#F0F0F0"/>
<path d="M44.2389 198.438H40.8867V201.784H44.2389V198.438Z" fill="#F0F0F0"/>
<path d="M44.2389 204.062H40.8867V207.409H44.2389V204.062Z" fill="#F0F0F0"/>
<path d="M44.2389 209.672H40.8867V213.019H44.2389V209.672Z" fill="#F0F0F0"/>
<path d="M44.2389 215.297H40.8867V218.643H44.2389V215.297Z" fill="#F0F0F0"/>
<path d="M44.2389 220.914H40.8867V224.261H44.2389V220.914Z" fill="#F0F0F0"/>
<path d="M44.2389 226.531H40.8867V229.878H44.2389V226.531Z" fill="#F0F0F0"/>
<path d="M44.2389 232.156H40.8867V235.503H44.2389V232.156Z" fill="#F0F0F0"/>
<path d="M44.2389 237.773H40.8867V241.12H44.2389V237.773Z" fill="#F0F0F0"/>
<path d="M44.2389 243.391H40.8867V246.737H44.2389V243.391Z" fill="#F0F0F0"/>
<path d="M44.2389 249.023H40.8867V252.37H44.2389V249.023Z" fill="#F0F0F0"/>
<path d="M44.2389 254.641H40.8867V257.987H44.2389V254.641Z" fill="#F0F0F0"/>
<path d="M44.2389 260.25H40.8867V263.597H44.2389V260.25Z" fill="#F0F0F0"/>
<path d="M44.2389 265.875H40.8867V269.222H44.2389V265.875Z" fill="#F0F0F0"/>
<path d="M38.9029 164.719H35.5508V168.065H38.9029V164.719Z" fill="#F0F0F0"/>
<path d="M38.9029 170.336H35.5508V173.683H38.9029V170.336Z" fill="#F0F0F0"/>
<path d="M38.9029 175.961H35.5508V179.308H38.9029V175.961Z" fill="#F0F0F0"/>
<path d="M38.9029 181.578H35.5508V184.925H38.9029V181.578Z" fill="#F0F0F0"/>
<path d="M38.9029 187.188H35.5508V190.534H38.9029V187.188Z" fill="#F0F0F0"/>
<path d="M38.9029 192.812H35.5508V196.159H38.9029V192.812Z" fill="#F0F0F0"/>
<path d="M38.9029 198.438H35.5508V201.784H38.9029V198.438Z" fill="#F0F0F0"/>
<path d="M38.9029 204.062H35.5508V207.409H38.9029V204.062Z" fill="#F0F0F0"/>
<path d="M38.9029 209.672H35.5508V213.019H38.9029V209.672Z" fill="#F0F0F0"/>
<path d="M38.9029 215.297H35.5508V218.643H38.9029V215.297Z" fill="#F0F0F0"/>
<path d="M38.9029 220.914H35.5508V224.261H38.9029V220.914Z" fill="#F0F0F0"/>
<path d="M38.9029 226.531H35.5508V229.878H38.9029V226.531Z" fill="#F0F0F0"/>
<path d="M38.9029 232.156H35.5508V235.503H38.9029V232.156Z" fill="#F0F0F0"/>
<path d="M38.9029 237.773H35.5508V241.12H38.9029V237.773Z" fill="#F0F0F0"/>
<path d="M38.9029 243.391H35.5508V246.737H38.9029V243.391Z" fill="#F0F0F0"/>
<path d="M33.5689 164.719H30.2168V168.065H33.5689V164.719Z" fill="#F0F0F0"/>
<path d="M33.5689 170.336H30.2168V173.683H33.5689V170.336Z" fill="#F0F0F0"/>
<path d="M33.5689 175.961H30.2168V179.308H33.5689V175.961Z" fill="#F0F0F0"/>
<path d="M33.5689 181.578H30.2168V184.925H33.5689V181.578Z" fill="#F0F0F0"/>
<path d="M33.5689 187.188H30.2168V190.534H33.5689V187.188Z" fill="#F0F0F0"/>
<path d="M33.5689 192.812H30.2168V196.159H33.5689V192.812Z" fill="#F0F0F0"/>
<path d="M33.5689 198.438H30.2168V201.784H33.5689V198.438Z" fill="#F0F0F0"/>
<path d="M33.5689 204.062H30.2168V207.409H33.5689V204.062Z" fill="#F0F0F0"/>
<path d="M33.5689 209.672H30.2168V213.019H33.5689V209.672Z" fill="#F0F0F0"/>
<path d="M33.5689 215.297H30.2168V218.643H33.5689V215.297Z" fill="#F0F0F0"/>
<path d="M33.5689 220.914H30.2168V224.261H33.5689V220.914Z" fill="#F0F0F0"/>
<path d="M33.5689 226.531H30.2168V229.878H33.5689V226.531Z" fill="#F0F0F0"/>
<path d="M33.5689 232.156H30.2168V235.503H33.5689V232.156Z" fill="#F0F0F0"/>
<path d="M28.231 164.719H24.8789V168.065H28.231V164.719Z" fill="#F0F0F0"/>
<path d="M28.231 170.336H24.8789V173.683H28.231V170.336Z" fill="#F0F0F0"/>
<path d="M28.231 175.961H24.8789V179.308H28.231V175.961Z" fill="#F0F0F0"/>
<path d="M28.231 181.578H24.8789V184.925H28.231V181.578Z" fill="#F0F0F0"/>
<path d="M28.231 187.188H24.8789V190.534H28.231V187.188Z" fill="#F0F0F0"/>
<path d="M28.231 192.812H24.8789V196.159H28.231V192.812Z" fill="#F0F0F0"/>
<path d="M28.231 198.438H24.8789V201.784H28.231V198.438Z" fill="#F0F0F0"/>
<path d="M28.231 204.062H24.8789V207.409H28.231V204.062Z" fill="#F0F0F0"/>
<path d="M28.231 209.672H24.8789V213.019H28.231V209.672Z" fill="#F0F0F0"/>
<path d="M28.231 215.297H24.8789V218.643H28.231V215.297Z" fill="#F0F0F0"/>
<path d="M28.231 220.914H24.8789V224.261H28.231V220.914Z" fill="#F0F0F0"/>
<path d="M28.231 226.531H24.8789V229.878H28.231V226.531Z" fill="#F0F0F0"/>
<path d="M420.108 205.734H416.756V209.093H420.108V205.734Z" fill="#F0F0F0"/>
<path d="M420.108 211.352H416.756V214.71H420.108V211.352Z" fill="#F0F0F0"/>
<path d="M420.108 216.969H416.756V220.315H420.108V216.969Z" fill="#F0F0F0"/>
<path d="M420.108 222.594H416.756V225.952H420.108V222.594Z" fill="#F0F0F0"/>
<path d="M420.108 228.211H416.756V231.558H420.108V228.211Z" fill="#F0F0F0"/>
<path d="M420.108 233.828H416.756V237.175H420.108V233.828Z" fill="#F0F0F0"/>
<path d="M420.108 239.453H416.756V242.8H420.108V239.453Z" fill="#F0F0F0"/>
<path d="M420.108 245.07H416.756V248.417H420.108V245.07Z" fill="#F0F0F0"/>
<path d="M420.108 250.688H416.756V254.046H420.108V250.688Z" fill="#F0F0F0"/>
<path d="M420.108 256.312H416.756V259.671H420.108V256.312Z" fill="#F0F0F0"/>
<path d="M420.108 261.938H416.756V265.296H420.108V261.938Z" fill="#F0F0F0"/>
<path d="M420.108 267.547H416.756V270.894H420.108V267.547Z" fill="#F0F0F0"/>
<path d="M420.108 273.172H416.756V276.518H420.108V273.172Z" fill="#F0F0F0"/>
<path d="M420.108 278.797H416.756V282.144H420.108V278.797Z" fill="#F0F0F0"/>
<path d="M420.108 284.406H416.756V287.753H420.108V284.406Z" fill="#F0F0F0"/>
<path d="M420.108 290.023H416.756V293.37H420.108V290.023Z" fill="#F0F0F0"/>
<path d="M420.108 295.656H416.756V299.003H420.108V295.656Z" fill="#F0F0F0"/>
<path d="M420.108 301.266H416.756V304.612H420.108V301.266Z" fill="#F0F0F0"/>
<path d="M420.108 306.891H416.756V310.237H420.108V306.891Z" fill="#F0F0F0"/>
<path d="M420.108 312.516H416.756V315.862H420.108V312.516Z" fill="#F0F0F0"/>
<path d="M414.772 205.734H411.42V209.093H414.772V205.734Z" fill="#F0F0F0"/>
<path d="M414.772 211.352H411.42V214.71H414.772V211.352Z" fill="#F0F0F0"/>
<path d="M414.772 216.969H411.42V220.315H414.772V216.969Z" fill="#F0F0F0"/>
<path d="M414.772 222.594H411.42V225.952H414.772V222.594Z" fill="#F0F0F0"/>
<path d="M414.772 228.211H411.42V231.558H414.772V228.211Z" fill="#F0F0F0"/>
<path d="M414.772 233.828H411.42V237.175H414.772V233.828Z" fill="#F0F0F0"/>
<path d="M414.772 239.453H411.42V242.8H414.772V239.453Z" fill="#F0F0F0"/>
<path d="M414.772 245.07H411.42V248.417H414.772V245.07Z" fill="#F0F0F0"/>
<path d="M414.772 250.688H411.42V254.046H414.772V250.688Z" fill="#F0F0F0"/>
<path d="M414.772 256.312H411.42V259.671H414.772V256.312Z" fill="#F0F0F0"/>
<path d="M414.772 261.938H411.42V265.296H414.772V261.938Z" fill="#F0F0F0"/>
<path d="M414.772 267.547H411.42V270.894H414.772V267.547Z" fill="#F0F0F0"/>
<path d="M414.772 273.172H411.42V276.518H414.772V273.172Z" fill="#F0F0F0"/>
<path d="M414.772 278.797H411.42V282.144H414.772V278.797Z" fill="#F0F0F0"/>
<path d="M414.772 284.406H411.42V287.753H414.772V284.406Z" fill="#F0F0F0"/>
<path d="M414.772 290.023H411.42V293.37H414.772V290.023Z" fill="#F0F0F0"/>
<path d="M414.772 295.656H411.42V299.003H414.772V295.656Z" fill="#F0F0F0"/>
<path d="M414.772 301.266H411.42V304.612H414.772V301.266Z" fill="#F0F0F0"/>
<path d="M409.436 205.734H406.084V209.093H409.436V205.734Z" fill="#F0F0F0"/>
<path d="M409.436 211.352H406.084V214.71H409.436V211.352Z" fill="#F0F0F0"/>
<path d="M409.436 216.969H406.084V220.315H409.436V216.969Z" fill="#F0F0F0"/>
<path d="M409.436 222.594H406.084V225.952H409.436V222.594Z" fill="#F0F0F0"/>
<path d="M409.436 228.211H406.084V231.558H409.436V228.211Z" fill="#F0F0F0"/>
<path d="M409.436 233.828H406.084V237.175H409.436V233.828Z" fill="#F0F0F0"/>
<path d="M409.436 239.461H406.084V242.808H409.436V239.461Z" fill="#F0F0F0"/>
<path d="M409.436 245.07H406.084V248.417H409.436V245.07Z" fill="#F0F0F0"/>
<path d="M409.436 250.688H406.084V254.046H409.436V250.688Z" fill="#F0F0F0"/>
<path d="M409.436 256.312H406.084V259.671H409.436V256.312Z" fill="#F0F0F0"/>
<path d="M409.436 261.938H406.084V265.296H409.436V261.938Z" fill="#F0F0F0"/>
<path d="M409.436 267.547H406.084V270.894H409.436V267.547Z" fill="#F0F0F0"/>
<path d="M409.436 273.172H406.084V276.518H409.436V273.172Z" fill="#F0F0F0"/>
<path d="M409.436 278.789H406.084V282.136H409.436V278.789Z" fill="#F0F0F0"/>
<path d="M409.436 284.406H406.084V287.753H409.436V284.406Z" fill="#F0F0F0"/>
<path d="M409.436 290.023H406.084V293.37H409.436V290.023Z" fill="#F0F0F0"/>
<path d="M409.436 295.656H406.084V299.003H409.436V295.656Z" fill="#F0F0F0"/>
<path d="M409.436 301.266H406.084V304.612H409.436V301.266Z" fill="#F0F0F0"/>
<path d="M440.047 246.75H436.695V250.108H440.047V246.75Z" fill="#F0F0F0"/>
<path d="M440.047 252.367H436.695V255.714H440.047V252.367Z" fill="#F0F0F0"/>
<path d="M440.047 257.984H436.695V261.331H440.047V257.984Z" fill="#F0F0F0"/>
<path d="M440.047 263.609H436.695V266.956H440.047V263.609Z" fill="#F0F0F0"/>
<path d="M440.047 269.227H436.695V272.573H440.047V269.227Z" fill="#F0F0F0"/>
<path d="M440.047 274.844H436.695V278.19H440.047V274.844Z" fill="#F0F0F0"/>
<path d="M440.047 280.469H436.695V283.815H440.047V280.469Z" fill="#F0F0F0"/>
<path d="M440.047 286.094H436.695V289.44H440.047V286.094Z" fill="#F0F0F0"/>
<path d="M440.047 291.703H436.695V295.05H440.047V291.703Z" fill="#F0F0F0"/>
<path d="M440.047 297.32H436.695V300.667H440.047V297.32Z" fill="#F0F0F0"/>
<path d="M440.047 302.953H436.695V306.3H440.047V302.953Z" fill="#F0F0F0"/>
<path d="M440.047 308.562H436.695V311.909H440.047V308.562Z" fill="#F0F0F0"/>
<path d="M440.047 314.18H436.695V317.526H440.047V314.18Z" fill="#F0F0F0"/>
<path d="M434.723 246.75H431.371V250.108H434.723V246.75Z" fill="#F0F0F0"/>
<path d="M434.723 252.367H431.371V255.714H434.723V252.367Z" fill="#F0F0F0"/>
<path d="M434.723 257.984H431.371V261.331H434.723V257.984Z" fill="#F0F0F0"/>
<path d="M434.723 263.609H431.371V266.956H434.723V263.609Z" fill="#F0F0F0"/>
<path d="M434.723 269.227H431.371V272.573H434.723V269.227Z" fill="#F0F0F0"/>
<path d="M434.723 274.844H431.371V278.19H434.723V274.844Z" fill="#F0F0F0"/>
<path d="M434.723 280.469H431.371V283.815H434.723V280.469Z" fill="#F0F0F0"/>
<path d="M434.723 286.094H431.371V289.44H434.723V286.094Z" fill="#F0F0F0"/>
<path d="M434.723 291.703H431.371V295.05H434.723V291.703Z" fill="#F0F0F0"/>
<path d="M434.723 297.32H431.371V300.667H434.723V297.32Z" fill="#F0F0F0"/>
<path d="M434.723 302.953H431.371V306.3H434.723V302.953Z" fill="#F0F0F0"/>
<path d="M434.723 308.562H431.371V311.909H434.723V308.562Z" fill="#F0F0F0"/>
<path d="M434.723 314.18H431.371V317.526H434.723V314.18Z" fill="#F0F0F0"/>
<path d="M429.387 246.75H426.035V250.108H429.387V246.75Z" fill="#F0F0F0"/>
<path d="M429.387 252.367H426.035V255.714H429.387V252.367Z" fill="#F0F0F0"/>
<path d="M429.387 257.984H426.035V261.331H429.387V257.984Z" fill="#F0F0F0"/>
<path d="M429.387 263.609H426.035V266.956H429.387V263.609Z" fill="#F0F0F0"/>
<path d="M429.387 269.227H426.035V272.573H429.387V269.227Z" fill="#F0F0F0"/>
<path d="M429.387 274.844H426.035V278.19H429.387V274.844Z" fill="#F0F0F0"/>
<path d="M429.387 280.469H426.035V283.815H429.387V280.469Z" fill="#F0F0F0"/>
<path d="M429.387 286.094H426.035V289.44H429.387V286.094Z" fill="#F0F0F0"/>
<path d="M429.387 291.703H426.035V295.05H429.387V291.703Z" fill="#F0F0F0"/>
<path d="M429.387 297.32H426.035V300.667H429.387V297.32Z" fill="#F0F0F0"/>
<path d="M429.387 302.953H426.035V306.3H429.387V302.953Z" fill="#F0F0F0"/>
<path d="M429.387 308.562H426.035V311.909H429.387V308.562Z" fill="#F0F0F0"/>
<path d="M429.387 314.18H426.035V317.526H429.387V314.18Z" fill="#F0F0F0"/>
<path d="M429.387 319.812H426.035V323.159H429.387V319.812Z" fill="#F0F0F0"/>
<path d="M399.762 248.422H396.41V251.768H399.762V248.422Z" fill="#F0F0F0"/>
<path d="M399.762 254.047H396.41V257.394H399.762V254.047Z" fill="#F0F0F0"/>
<path d="M399.762 259.664H396.41V263.011H399.762V259.664Z" fill="#F0F0F0"/>
<path d="M399.762 265.281H396.41V268.628H399.762V265.281Z" fill="#F0F0F0"/>
<path d="M399.762 270.906H396.41V274.253H399.762V270.906Z" fill="#F0F0F0"/>
<path d="M399.762 276.523H396.41V279.87H399.762V276.523Z" fill="#F0F0F0"/>
<path d="M399.762 282.141H396.41V285.487H399.762V282.141Z" fill="#F0F0F0"/>
<path d="M399.762 287.766H396.41V291.124H399.762V287.766Z" fill="#F0F0F0"/>
<path d="M399.762 293.391H396.41V296.737H399.762V293.391Z" fill="#F0F0F0"/>
<path d="M399.762 299H396.41V302.347H399.762V299Z" fill="#F0F0F0"/>
<path d="M399.762 315.859H396.41V319.206H399.762V315.859Z" fill="#F0F0F0"/>
<path d="M394.44 248.422H391.076V251.768H394.44V248.422Z" fill="#F0F0F0"/>
<path d="M394.44 254.047H391.076V257.394H394.44V254.047Z" fill="#F0F0F0"/>
<path d="M394.44 259.664H391.076V263.011H394.44V259.664Z" fill="#F0F0F0"/>
<path d="M394.44 265.281H391.076V268.628H394.44V265.281Z" fill="#F0F0F0"/>
<path d="M394.44 270.906H391.076V274.253H394.44V270.906Z" fill="#F0F0F0"/>
<path d="M394.44 276.523H391.076V279.87H394.44V276.523Z" fill="#F0F0F0"/>
<path d="M394.44 282.141H391.076V285.487H394.44V282.141Z" fill="#F0F0F0"/>
<path d="M394.438 287.766H391.074V291.124H394.438V287.766Z" fill="#F0F0F0"/>
<path d="M394.44 293.391H391.076V296.737H394.44V293.391Z" fill="#F0F0F0"/>
<path d="M394.438 310.25H391.074V313.608H394.438V310.25Z" fill="#F0F0F0"/>
<path d="M394.44 315.859H391.076V319.206H394.44V315.859Z" fill="#F0F0F0"/>
<path d="M389.104 248.422H385.74V251.768H389.104V248.422Z" fill="#F0F0F0"/>
<path d="M389.104 254.047H385.74V257.394H389.104V254.047Z" fill="#F0F0F0"/>
<path d="M389.104 259.664H385.74V263.011H389.104V259.664Z" fill="#F0F0F0"/>
<path d="M389.104 265.281H385.74V268.628H389.104V265.281Z" fill="#F0F0F0"/>
<path d="M389.104 270.906H385.74V274.253H389.104V270.906Z" fill="#F0F0F0"/>
<path d="M389.104 276.523H385.74V279.87H389.104V276.523Z" fill="#F0F0F0"/>
<path d="M389.104 282.141H385.74V285.487H389.104V282.141Z" fill="#F0F0F0"/>
<path d="M389.104 287.766H385.74V291.124H389.104V287.766Z" fill="#F0F0F0"/>
<path d="M389.104 304.625H385.74V307.972H389.104V304.625Z" fill="#F0F0F0"/>
<path d="M389.104 310.25H385.74V313.608H389.104V310.25Z" fill="#F0F0F0"/>
<path d="M389.104 315.859H385.74V319.206H389.104V315.859Z" fill="#F0F0F0"/>
<path d="M339.518 163.039H336.166V166.386H339.518V163.039Z" fill="#F0F0F0"/>
<path d="M339.518 168.664H336.166V172.011H339.518V168.664Z" fill="#F0F0F0"/>
<path d="M339.518 174.281H336.166V177.628H339.518V174.281Z" fill="#F0F0F0"/>
<path d="M339.518 179.906H336.166V183.253H339.518V179.906Z" fill="#F0F0F0"/>
<path d="M339.518 185.516H336.166V188.862H339.518V185.516Z" fill="#F0F0F0"/>
<path d="M339.518 191.141H336.166V194.487H339.518V191.141Z" fill="#F0F0F0"/>
<path d="M339.518 196.766H336.166V200.112H339.518V196.766Z" fill="#F0F0F0"/>
<path d="M339.518 202.375H336.166V205.722H339.518V202.375Z" fill="#F0F0F0"/>
<path d="M339.518 208H336.166V211.347H339.518V208Z" fill="#F0F0F0"/>
<path d="M339.518 213.625H336.166V216.972H339.518V213.625Z" fill="#F0F0F0"/>
<path d="M339.518 219.234H336.166V222.581H339.518V219.234Z" fill="#F0F0F0"/>
<path d="M339.518 224.859H336.166V228.206H339.518V224.859Z" fill="#F0F0F0"/>
<path d="M339.518 230.484H336.166V233.831H339.518V230.484Z" fill="#F0F0F0"/>
<path d="M339.518 236.094H336.166V239.44H339.518V236.094Z" fill="#F0F0F0"/>
<path d="M339.518 241.719H336.166V245.077H339.518V241.719Z" fill="#F0F0F0"/>
<path d="M339.518 247.344H336.166V250.69H339.518V247.344Z" fill="#F0F0F0"/>
<path d="M339.518 252.961H336.166V256.308H339.518V252.961Z" fill="#F0F0F0"/>
<path d="M339.518 264.203H336.166V267.55H339.518V264.203Z" fill="#F0F0F0"/>
<path d="M339.518 269.82H336.166V273.167H339.518V269.82Z" fill="#F0F0F0"/>
<path d="M339.518 275.438H336.166V278.784H339.518V275.438Z" fill="#F0F0F0"/>
<path d="M339.518 281.062H336.166V284.409H339.518V281.062Z" fill="#F0F0F0"/>
<path d="M339.518 286.672H336.166V290.019H339.518V286.672Z" fill="#F0F0F0"/>
<path d="M334.182 163.039H330.83V166.386H334.182V163.039Z" fill="#F0F0F0"/>
<path d="M334.182 168.664H330.83V172.011H334.182V168.664Z" fill="#F0F0F0"/>
<path d="M334.182 174.281H330.83V177.628H334.182V174.281Z" fill="#F0F0F0"/>
<path d="M334.182 179.906H330.83V183.253H334.182V179.906Z" fill="#F0F0F0"/>
<path d="M334.182 185.516H330.83V188.862H334.182V185.516Z" fill="#F0F0F0"/>
<path d="M334.182 191.141H330.83V194.487H334.182V191.141Z" fill="#F0F0F0"/>
<path d="M334.182 196.766H330.83V200.112H334.182V196.766Z" fill="#F0F0F0"/>
<path d="M334.182 202.375H330.83V205.722H334.182V202.375Z" fill="#F0F0F0"/>
<path d="M334.182 208H330.83V211.347H334.182V208Z" fill="#F0F0F0"/>
<path d="M334.182 213.625H330.83V216.972H334.182V213.625Z" fill="#F0F0F0"/>
<path d="M334.182 219.234H330.83V222.581H334.182V219.234Z" fill="#F0F0F0"/>
<path d="M334.182 224.859H330.83V228.206H334.182V224.859Z" fill="#F0F0F0"/>
<path d="M334.182 230.484H330.83V233.831H334.182V230.484Z" fill="#F0F0F0"/>
<path d="M334.182 236.094H330.83V239.44H334.182V236.094Z" fill="#F0F0F0"/>
<path d="M334.182 241.719H330.83V245.077H334.182V241.719Z" fill="#F0F0F0"/>
<path d="M334.182 247.344H330.83V250.69H334.182V247.344Z" fill="#F0F0F0"/>
<path d="M334.182 281.062H330.83V284.409H334.182V281.062Z" fill="#F0F0F0"/>
<path d="M334.182 286.672H330.83V290.019H334.182V286.672Z" fill="#F0F0F0"/>
<path d="M328.858 163.039H325.506V166.386H328.858V163.039Z" fill="#F0F0F0"/>
<path d="M328.858 168.664H325.506V172.011H328.858V168.664Z" fill="#F0F0F0"/>
<path d="M328.858 174.281H325.506V177.628H328.858V174.281Z" fill="#F0F0F0"/>
<path d="M328.858 179.906H325.506V183.253H328.858V179.906Z" fill="#F0F0F0"/>
<path d="M328.858 185.516H325.506V188.862H328.858V185.516Z" fill="#F0F0F0"/>
<path d="M328.858 191.141H325.506V194.487H328.858V191.141Z" fill="#F0F0F0"/>
<path d="M328.858 196.766H325.506V200.112H328.858V196.766Z" fill="#F0F0F0"/>
<path d="M328.858 202.375H325.506V205.722H328.858V202.375Z" fill="#F0F0F0"/>
<path d="M328.858 208H325.506V211.347H328.858V208Z" fill="#F0F0F0"/>
<path d="M328.858 213.625H325.506V216.972H328.858V213.625Z" fill="#F0F0F0"/>
<path d="M328.858 219.234H325.506V222.581H328.858V219.234Z" fill="#F0F0F0"/>
<path d="M328.858 224.859H325.506V228.206H328.858V224.859Z" fill="#F0F0F0"/>
<path d="M328.858 230.484H325.506V233.831H328.858V230.484Z" fill="#F0F0F0"/>
<path d="M328.858 236.094H325.506V239.44H328.858V236.094Z" fill="#F0F0F0"/>
<path d="M328.858 241.719H325.506V245.077H328.858V241.719Z" fill="#F0F0F0"/>
<path d="M328.858 247.344H325.506V250.69H328.858V247.344Z" fill="#F0F0F0"/>
<path d="M328.858 258.578H325.506V261.925H328.858V258.578Z" fill="#F0F0F0"/>
<path d="M328.858 264.203H325.506V267.55H328.858V264.203Z" fill="#F0F0F0"/>
<path d="M328.858 269.82H325.506V273.167H328.858V269.82Z" fill="#F0F0F0"/>
<path d="M328.858 275.438H325.506V278.784H328.858V275.438Z" fill="#F0F0F0"/>
<path d="M328.858 286.672H325.506V290.019H328.858V286.672Z" fill="#F0F0F0"/>
<path d="M358.887 233.828H355.523V237.175H358.887V233.828Z" fill="#F0F0F0"/>
<path d="M358.887 239.461H355.523V242.808H358.887V239.461Z" fill="#F0F0F0"/>
<path d="M358.887 245.07H355.523V248.417H358.887V245.07Z" fill="#F0F0F0"/>
<path d="M358.887 250.688H355.523V254.046H358.887V250.688Z" fill="#F0F0F0"/>
<path d="M358.887 256.312H355.523V259.671H358.887V256.312Z" fill="#F0F0F0"/>
<path d="M358.887 261.938H355.523V265.296H358.887V261.938Z" fill="#F0F0F0"/>
<path d="M358.887 267.547H355.523V270.894H358.887V267.547Z" fill="#F0F0F0"/>
<path d="M358.887 278.789H355.523V282.136H358.887V278.789Z" fill="#F0F0F0"/>
<path d="M358.887 284.406H355.523V287.753H358.887V284.406Z" fill="#F0F0F0"/>
<path d="M358.887 290.023H355.523V293.37H358.887V290.023Z" fill="#F0F0F0"/>
<path d="M358.887 295.656H355.523V299.003H358.887V295.656Z" fill="#F0F0F0"/>
<path d="M358.887 301.266H355.523V304.612H358.887V301.266Z" fill="#F0F0F0"/>
<path d="M358.887 306.891H355.523V310.237H358.887V306.891Z" fill="#F0F0F0"/>
<path d="M358.887 312.516H355.523V315.862H358.887V312.516Z" fill="#F0F0F0"/>
<path d="M358.887 318.125H355.523V321.472H358.887V318.125Z" fill="#F0F0F0"/>
<path d="M353.54 233.828H350.188V237.175H353.54V233.828Z" fill="#F0F0F0"/>
<path d="M353.54 239.453H350.188V242.8H353.54V239.453Z" fill="#F0F0F0"/>
<path d="M353.54 245.07H350.188V248.417H353.54V245.07Z" fill="#F0F0F0"/>
<path d="M353.54 250.688H350.188V254.046H353.54V250.688Z" fill="#F0F0F0"/>
<path d="M353.54 256.312H350.188V259.671H353.54V256.312Z" fill="#F0F0F0"/>
<path d="M353.54 261.938H350.188V265.296H353.54V261.938Z" fill="#F0F0F0"/>
<path d="M353.54 278.797H350.188V282.144H353.54V278.797Z" fill="#F0F0F0"/>
<path d="M353.54 284.406H350.188V287.753H353.54V284.406Z" fill="#F0F0F0"/>
<path d="M353.54 290.023H350.188V293.37H353.54V290.023Z" fill="#F0F0F0"/>
<path d="M353.54 295.656H350.188V299.003H353.54V295.656Z" fill="#F0F0F0"/>
<path d="M353.54 301.266H350.188V304.612H353.54V301.266Z" fill="#F0F0F0"/>
<path d="M353.54 306.891H350.188V310.237H353.54V306.891Z" fill="#F0F0F0"/>
<path d="M353.54 312.516H350.188V315.862H353.54V312.516Z" fill="#F0F0F0"/>
<path d="M353.54 318.125H350.188V321.472H353.54V318.125Z" fill="#F0F0F0"/>
<path d="M348.217 233.828H344.854V237.175H348.217V233.828Z" fill="#F0F0F0"/>
<path d="M348.217 239.461H344.854V242.808H348.217V239.461Z" fill="#F0F0F0"/>
<path d="M348.217 245.07H344.854V248.417H348.217V245.07Z" fill="#F0F0F0"/>
<path d="M348.217 250.688H344.854V254.046H348.217V250.688Z" fill="#F0F0F0"/>
<path d="M348.217 256.312H344.854V259.671H348.217V256.312Z" fill="#F0F0F0"/>
<path d="M348.217 261.938H344.854V265.296H348.217V261.938Z" fill="#F0F0F0"/>
<path d="M348.217 273.172H344.854V276.518H348.217V273.172Z" fill="#F0F0F0"/>
<path d="M348.217 278.789H344.854V282.136H348.217V278.789Z" fill="#F0F0F0"/>
<path d="M348.217 284.406H344.854V287.753H348.217V284.406Z" fill="#F0F0F0"/>
<path d="M348.217 290.023H344.854V293.37H348.217V290.023Z" fill="#F0F0F0"/>
<path d="M348.217 295.656H344.854V299.003H348.217V295.656Z" fill="#F0F0F0"/>
<path d="M348.217 301.266H344.854V304.612H348.217V301.266Z" fill="#F0F0F0"/>
<path d="M348.217 306.891H344.854V310.237H348.217V306.891Z" fill="#F0F0F0"/>
<path d="M348.217 312.516H344.854V315.862H348.217V312.516Z" fill="#F0F0F0"/>
<path d="M348.217 318.125H344.854V321.472H348.217V318.125Z" fill="#F0F0F0"/>
<path d="M235.821 202.375H232.469V205.722H235.821V202.375Z" fill="#F0F0F0"/>
<path d="M235.821 208H232.469V211.347H235.821V208Z" fill="#F0F0F0"/>
<path d="M235.821 213.625H232.469V216.972H235.821V213.625Z" fill="#F0F0F0"/>
<path d="M235.821 219.234H232.469V222.581H235.821V219.234Z" fill="#F0F0F0"/>
<path d="M235.821 224.859H232.469V228.206H235.821V224.859Z" fill="#F0F0F0"/>
<path d="M235.821 230.484H232.469V233.831H235.821V230.484Z" fill="#F0F0F0"/>
<path d="M235.821 236.094H232.469V239.44H235.821V236.094Z" fill="#F0F0F0"/>
<path d="M235.821 241.719H232.469V245.077H235.821V241.719Z" fill="#F0F0F0"/>
<path d="M235.821 247.344H232.469V250.69H235.821V247.344Z" fill="#F0F0F0"/>
<path d="M235.821 252.961H232.469V256.308H235.821V252.961Z" fill="#F0F0F0"/>
<path d="M235.821 258.578H232.469V261.925H235.821V258.578Z" fill="#F0F0F0"/>
<path d="M235.821 264.203H232.469V267.55H235.821V264.203Z" fill="#F0F0F0"/>
<path d="M235.821 269.82H232.469V273.167H235.821V269.82Z" fill="#F0F0F0"/>
<path d="M235.821 281.062H232.469V284.409H235.821V281.062Z" fill="#F0F0F0"/>
<path d="M235.821 286.672H232.469V290.019H235.821V286.672Z" fill="#F0F0F0"/>
<path d="M235.821 292.297H232.469V295.644H235.821V292.297Z" fill="#F0F0F0"/>
<path d="M235.821 297.922H232.469V301.268H235.821V297.922Z" fill="#F0F0F0"/>
<path d="M235.821 309.156H232.469V312.514H235.821V309.156Z" fill="#F0F0F0"/>
<path d="M235.821 314.781H232.469V318.128H235.821V314.781Z" fill="#F0F0F0"/>
<path d="M235.821 320.398H232.469V323.745H235.821V320.398Z" fill="#F0F0F0"/>
<path d="M230.485 202.375H227.133V205.722H230.485V202.375Z" fill="#F0F0F0"/>
<path d="M230.485 208H227.133V211.347H230.485V208Z" fill="#F0F0F0"/>
<path d="M230.485 213.625H227.133V216.972H230.485V213.625Z" fill="#F0F0F0"/>
<path d="M230.485 219.234H227.133V222.581H230.485V219.234Z" fill="#F0F0F0"/>
<path d="M230.485 224.859H227.133V228.206H230.485V224.859Z" fill="#F0F0F0"/>
<path d="M230.485 230.484H227.133V233.831H230.485V230.484Z" fill="#F0F0F0"/>
<path d="M230.485 236.094H227.133V239.44H230.485V236.094Z" fill="#F0F0F0"/>
<path d="M230.485 241.719H227.133V245.077H230.485V241.719Z" fill="#F0F0F0"/>
<path d="M230.485 247.344H227.133V250.69H230.485V247.344Z" fill="#F0F0F0"/>
<path d="M230.485 252.961H227.133V256.308H230.485V252.961Z" fill="#F0F0F0"/>
<path d="M230.485 258.578H227.133V261.925H230.485V258.578Z" fill="#F0F0F0"/>
<path d="M230.485 264.203H227.133V267.55H230.485V264.203Z" fill="#F0F0F0"/>
<path d="M230.485 269.82H227.133V273.167H230.485V269.82Z" fill="#F0F0F0"/>
<path d="M230.485 286.672H227.133V290.019H230.485V286.672Z" fill="#F0F0F0"/>
<path d="M230.485 292.297H227.133V295.644H230.485V292.297Z" fill="#F0F0F0"/>
<path d="M230.485 303.539H227.133V306.886H230.485V303.539Z" fill="#F0F0F0"/>
<path d="M230.485 309.156H227.133V312.514H230.485V309.156Z" fill="#F0F0F0"/>
<path d="M230.485 314.781H227.133V318.128H230.485V314.781Z" fill="#F0F0F0"/>
<path d="M230.485 320.398H227.133V323.745H230.485V320.398Z" fill="#F0F0F0"/>
<path d="M225.163 202.375H221.811V205.722H225.163V202.375Z" fill="#F0F0F0"/>
<path d="M225.163 208H221.811V211.347H225.163V208Z" fill="#F0F0F0"/>
<path d="M225.163 213.625H221.811V216.972H225.163V213.625Z" fill="#F0F0F0"/>
<path d="M225.163 219.234H221.811V222.581H225.163V219.234Z" fill="#F0F0F0"/>
<path d="M225.163 224.859H221.811V228.206H225.163V224.859Z" fill="#F0F0F0"/>
<path d="M225.163 230.484H221.811V233.831H225.163V230.484Z" fill="#F0F0F0"/>
<path d="M225.163 236.094H221.811V239.44H225.163V236.094Z" fill="#F0F0F0"/>
<path d="M225.163 241.719H221.811V245.077H225.163V241.719Z" fill="#F0F0F0"/>
<path d="M225.163 247.344H221.811V250.69H225.163V247.344Z" fill="#F0F0F0"/>
<path d="M225.163 252.961H221.811V256.308H225.163V252.961Z" fill="#F0F0F0"/>
<path d="M225.163 258.578H221.811V261.925H225.163V258.578Z" fill="#F0F0F0"/>
<path d="M225.163 264.203H221.811V267.55H225.163V264.203Z" fill="#F0F0F0"/>
<path d="M225.163 269.82H221.811V273.167H225.163V269.82Z" fill="#F0F0F0"/>
<path d="M225.163 275.438H221.811V278.784H225.163V275.438Z" fill="#F0F0F0"/>
<path d="M225.163 286.672H221.811V290.019H225.163V286.672Z" fill="#F0F0F0"/>
<path d="M225.163 297.922H221.811V301.268H225.163V297.922Z" fill="#F0F0F0"/>
<path d="M225.163 303.539H221.811V306.886H225.163V303.539Z" fill="#F0F0F0"/>
<path d="M225.163 309.156H221.811V312.514H225.163V309.156Z" fill="#F0F0F0"/>
<path d="M225.163 314.781H221.811V318.128H225.163V314.781Z" fill="#F0F0F0"/>
<path d="M225.163 320.398H221.811V323.745H225.163V320.398Z" fill="#F0F0F0"/>
<path d="M257.559 234.422H254.195V237.768H257.559V234.422Z" fill="#F0F0F0"/>
<path d="M257.559 240.047H254.195V243.394H257.559V240.047Z" fill="#F0F0F0"/>
<path d="M257.559 245.664H254.195V249.011H257.559V245.664Z" fill="#F0F0F0"/>
<path d="M257.559 251.281H254.195V254.628H257.559V251.281Z" fill="#F0F0F0"/>
<path d="M257.559 256.906H254.195V260.253H257.559V256.906Z" fill="#F0F0F0"/>
<path d="M257.559 262.523H254.195V265.87H257.559V262.523Z" fill="#F0F0F0"/>
<path d="M257.559 279.391H254.195V282.737H257.559V279.391Z" fill="#F0F0F0"/>
<path d="M257.559 285H254.195V288.347H257.559V285Z" fill="#F0F0F0"/>
<path d="M257.559 290.625H254.195V293.972H257.559V290.625Z" fill="#F0F0F0"/>
<path d="M257.559 296.25H254.195V299.608H257.559V296.25Z" fill="#F0F0F0"/>
<path d="M257.559 301.859H254.195V305.206H257.559V301.859Z" fill="#F0F0F0"/>
<path d="M257.559 307.477H254.195V310.823H257.559V307.477Z" fill="#F0F0F0"/>
<path d="M257.559 313.102H254.195V316.448H257.559V313.102Z" fill="#F0F0F0"/>
<path d="M252.223 234.422H248.871V237.768H252.223V234.422Z" fill="#F0F0F0"/>
<path d="M252.223 240.047H248.871V243.394H252.223V240.047Z" fill="#F0F0F0"/>
<path d="M252.223 245.664H248.871V249.011H252.223V245.664Z" fill="#F0F0F0"/>
<path d="M252.223 251.281H248.871V254.628H252.223V251.281Z" fill="#F0F0F0"/>
<path d="M252.223 256.906H248.871V260.253H252.223V256.906Z" fill="#F0F0F0"/>
<path d="M252.223 262.523H248.871V265.87H252.223V262.523Z" fill="#F0F0F0"/>
<path d="M252.223 279.391H248.871V282.737H252.223V279.391Z" fill="#F0F0F0"/>
<path d="M252.223 285H248.871V288.347H252.223V285Z" fill="#F0F0F0"/>
<path d="M252.223 290.625H248.871V293.972H252.223V290.625Z" fill="#F0F0F0"/>
<path d="M252.223 296.25H248.871V299.608H252.223V296.25Z" fill="#F0F0F0"/>
<path d="M252.223 301.859H248.871V305.206H252.223V301.859Z" fill="#F0F0F0"/>
<path d="M252.223 307.477H248.871V310.823H252.223V307.477Z" fill="#F0F0F0"/>
<path d="M252.223 318.719H248.871V322.065H252.223V318.719Z" fill="#F0F0F0"/>
<path d="M75.0475 209.672H71.6953V213.019H75.0475V209.672Z" fill="#F0F0F0"/>
<path d="M75.0475 215.297H71.6953V218.643H75.0475V215.297Z" fill="#F0F0F0"/>
<path d="M75.0475 220.914H71.6953V224.261H75.0475V220.914Z" fill="#F0F0F0"/>
<path d="M75.0475 226.531H71.6953V229.878H75.0475V226.531Z" fill="#F0F0F0"/>
<path d="M75.0475 232.156H71.6953V235.503H75.0475V232.156Z" fill="#F0F0F0"/>
<path d="M75.0475 237.773H71.6953V241.12H75.0475V237.773Z" fill="#F0F0F0"/>
<path d="M75.0475 243.391H71.6953V246.737H75.0475V243.391Z" fill="#F0F0F0"/>
<path d="M75.0475 249.016H71.6953V252.362H75.0475V249.016Z" fill="#F0F0F0"/>
<path d="M75.0475 254.641H71.6953V257.987H75.0475V254.641Z" fill="#F0F0F0"/>
<path d="M75.0475 260.25H71.6953V263.597H75.0475V260.25Z" fill="#F0F0F0"/>
<path d="M75.0475 265.875H71.6953V269.222H75.0475V265.875Z" fill="#F0F0F0"/>
<path d="M75.0475 277.109H71.6953V280.456H75.0475V277.109Z" fill="#F0F0F0"/>
<path d="M75.0475 282.727H71.6953V286.073H75.0475V282.727Z" fill="#F0F0F0"/>
<path d="M75.0475 288.359H71.6953V291.718H75.0475V288.359Z" fill="#F0F0F0"/>
<path d="M75.0475 293.969H71.6953V297.315H75.0475V293.969Z" fill="#F0F0F0"/>
<path d="M75.0475 299.594H71.6953V302.94H75.0475V299.594Z" fill="#F0F0F0"/>
<path d="M75.0475 305.219H71.6953V308.565H75.0475V305.219Z" fill="#F0F0F0"/>
<path d="M75.0475 310.836H71.6953V314.183H75.0475V310.836Z" fill="#F0F0F0"/>
<path d="M75.0475 316.453H71.6953V319.8H75.0475V316.453Z" fill="#F0F0F0"/>
<path d="M69.7231 209.672H66.3594V213.019H69.7231V209.672Z" fill="#F0F0F0"/>
<path d="M69.7231 215.297H66.3594V218.643H69.7231V215.297Z" fill="#F0F0F0"/>
<path d="M69.7231 220.914H66.3594V224.261H69.7231V220.914Z" fill="#F0F0F0"/>
<path d="M69.7231 226.531H66.3594V229.878H69.7231V226.531Z" fill="#F0F0F0"/>
<path d="M69.7231 232.156H66.3594V235.503H69.7231V232.156Z" fill="#F0F0F0"/>
<path d="M69.7231 237.773H66.3594V241.12H69.7231V237.773Z" fill="#F0F0F0"/>
<path d="M69.7231 243.391H66.3594V246.737H69.7231V243.391Z" fill="#F0F0F0"/>
<path d="M69.7231 249.023H66.3594V252.37H69.7231V249.023Z" fill="#F0F0F0"/>
<path d="M69.7231 254.641H66.3594V257.987H69.7231V254.641Z" fill="#F0F0F0"/>
<path d="M69.7231 260.25H66.3594V263.597H69.7231V260.25Z" fill="#F0F0F0"/>
<path d="M69.7231 265.875H66.3594V269.222H69.7231V265.875Z" fill="#F0F0F0"/>
<path d="M69.7231 271.5H66.3594V274.847H69.7231V271.5Z" fill="#F0F0F0"/>
<path d="M69.7231 277.109H66.3594V280.456H69.7231V277.109Z" fill="#F0F0F0"/>
<path d="M69.7231 282.727H66.3594V286.073H69.7231V282.727Z" fill="#F0F0F0"/>
<path d="M69.7231 288.359H66.3594V291.718H69.7231V288.359Z" fill="#F0F0F0"/>
<path d="M69.7231 293.969H66.3594V297.315H69.7231V293.969Z" fill="#F0F0F0"/>
<path d="M69.7231 299.594H66.3594V302.94H69.7231V299.594Z" fill="#F0F0F0"/>
<path d="M69.7231 305.219H66.3594V308.565H69.7231V305.219Z" fill="#F0F0F0"/>
<path d="M69.7231 310.836H66.3594V314.183H69.7231V310.836Z" fill="#F0F0F0"/>
<path d="M69.7231 316.453H66.3594V319.8H69.7231V316.453Z" fill="#F0F0F0"/>
<path d="M101.319 231.562H97.9668V234.909H101.319V231.562Z" fill="#F0F0F0"/>
<path d="M101.319 237.188H97.9668V240.534H101.319V237.188Z" fill="#F0F0F0"/>
<path d="M101.319 242.805H97.9668V246.151H101.319V242.805Z" fill="#F0F0F0"/>
<path d="M101.319 248.422H97.9668V251.768H101.319V248.422Z" fill="#F0F0F0"/>
<path d="M101.319 254.047H97.9668V257.394H101.319V254.047Z" fill="#F0F0F0"/>
<path d="M101.319 259.664H97.9668V263.011H101.319V259.664Z" fill="#F0F0F0"/>
<path d="M101.319 265.281H97.9668V268.628H101.319V265.281Z" fill="#F0F0F0"/>
<path d="M101.319 270.906H97.9668V274.253H101.319V270.906Z" fill="#F0F0F0"/>
<path d="M101.319 276.523H97.9668V279.87H101.319V276.523Z" fill="#F0F0F0"/>
<path d="M101.319 282.141H97.9668V285.487H101.319V282.141Z" fill="#F0F0F0"/>
<path d="M95.981 231.562H92.6289V234.909H95.981V231.562Z" fill="#F0F0F0"/>
<path d="M95.981 237.188H92.6289V240.534H95.981V237.188Z" fill="#F0F0F0"/>
<path d="M95.981 242.805H92.6289V246.151H95.981V242.805Z" fill="#F0F0F0"/>
<path d="M95.981 248.422H92.6289V251.768H95.981V248.422Z" fill="#F0F0F0"/>
<path d="M95.981 254.047H92.6289V257.394H95.981V254.047Z" fill="#F0F0F0"/>
<path d="M95.981 259.664H92.6289V263.011H95.981V259.664Z" fill="#F0F0F0"/>
<path d="M95.981 265.281H92.6289V268.628H95.981V265.281Z" fill="#F0F0F0"/>
<path d="M95.981 270.906H92.6289V274.253H95.981V270.906Z" fill="#F0F0F0"/>
<path d="M95.981 276.523H92.6289V279.87H95.981V276.523Z" fill="#F0F0F0"/>
<path d="M151.947 67.7457C151.947 65.2181 150.941 62.794 149.151 61.0067C147.361 59.2194 144.933 58.2153 142.401 58.2153C141.47 58.2145 140.545 58.3471 139.652 58.609C140.087 55.7357 139.894 52.8024 139.087 50.0104C138.28 47.2184 136.877 44.6338 134.975 42.4338C133.074 40.2338 130.718 38.4705 128.069 37.2649C125.421 36.0592 122.543 35.4398 119.632 35.449C118.383 35.4528 117.137 35.5691 115.909 35.7964C113.912 32.5269 110.906 29.9937 107.342 28.5785C103.779 27.1634 99.8506 26.9429 96.1504 27.9504C92.4503 28.9579 89.1783 31.1387 86.8277 34.1642C84.4771 37.1897 83.1751 40.896 83.118 44.7246H82.828C78.5058 44.7246 74.3607 46.4387 71.3045 49.4899C68.2482 52.5411 66.5313 56.6795 66.5313 60.9945C66.5312 65.3096 68.2482 69.4479 71.3045 72.4991C74.3607 75.5503 78.5058 77.2644 82.828 77.2644H142.668C145.15 77.1922 147.507 76.1583 149.239 74.3816C150.971 72.6049 151.942 70.2249 151.947 67.7457Z" fill="#F0F0F0"/>
<path d="M417.914 43.4617C417.914 41.8462 417.271 40.2969 416.127 39.1546C414.983 38.0123 413.431 37.3706 411.813 37.3706C411.219 37.3706 410.628 37.4604 410.061 37.6369C410.155 37.016 410.201 36.3889 410.201 35.761C410.204 34.0665 409.872 32.388 409.225 30.8216C408.577 29.2553 407.627 27.8317 406.428 26.6324C405.229 25.4332 403.804 24.4817 402.237 23.8326C400.669 23.1834 398.988 22.8493 397.291 22.8493C396.489 22.8462 395.689 22.9199 394.901 23.0693C393.62 21.003 391.703 19.4059 389.438 18.5163C387.172 17.6267 384.679 17.4923 382.331 18.1331C379.983 18.7739 377.905 20.1556 376.407 22.072C374.91 23.9884 374.074 26.3368 374.023 28.7667H373.826C371.213 28.9802 368.777 30.167 367.001 32.0915C365.224 34.0159 364.238 36.537 364.238 39.1539C364.238 41.7708 365.224 44.292 367.001 46.2164C368.777 48.1408 371.213 49.3277 373.826 49.5412H412.033C413.612 49.4871 415.108 48.8228 416.205 47.6885C417.302 46.5542 417.915 45.0386 417.914 43.4617Z" fill="#F0F0F0"/>
<path d="M252.536 30.5756C252.536 29.5867 252.143 28.6383 251.442 27.939C250.742 27.2397 249.792 26.8469 248.801 26.8469C248.436 26.8462 248.072 26.9008 247.723 27.009C247.779 26.6256 247.806 26.2385 247.804 25.851C247.804 23.7564 246.97 21.7476 245.487 20.2666C244.003 18.7855 241.991 17.9534 239.893 17.9534C239.407 17.9541 238.922 17.9967 238.443 18.0808C237.647 16.8295 236.47 15.8653 235.086 15.3293C233.701 14.7933 232.181 14.7136 230.748 15.1017C229.314 15.4898 228.043 16.3255 227.119 17.4866C226.196 18.6476 225.669 20.0732 225.615 21.5548H225.499C223.807 21.5548 222.184 22.2258 220.988 23.4202C219.791 24.6147 219.119 26.2346 219.119 27.9238C219.119 29.613 219.791 31.233 220.988 32.4274C222.184 33.6218 223.807 34.2928 225.499 34.2928H248.906C249.875 34.2628 250.795 33.8587 251.472 33.1655C252.149 32.4722 252.531 31.5439 252.536 30.5756Z" fill="#F0F0F0"/>
<path d="M225.022 387.116C349.228 387.116 449.917 381.247 449.917 374.007C449.917 366.767 349.228 360.898 225.022 360.898C100.816 360.898 0.126953 366.767 0.126953 374.007C0.126953 381.247 100.816 387.116 225.022 387.116Z" fill="#F5F5F5"/>
<path d="M408.254 133.164L380.44 134.878L387.643 138.931L234.802 217.246L193.834 202.239L69.8624 264.064L61.4414 268.268L71.1962 273.757L81.4151 268.662L194.402 212.313L235.405 227.344L397.351 144.374L403.128 147.616L408.254 133.164Z" fill="#407BFF"/>
<path d="M403.637 208.703L375.811 210.417L382.318 214.065L196.28 306.473L187.801 310.688L197.59 316.177L207.763 311.128L392.096 219.554L398.498 223.155L403.637 208.703Z" fill="#407BFF"/>
<path d="M289.33 99.8281L261.516 101.542L268.023 105.19L81.9731 197.598L73.4941 201.813L83.2838 207.302L93.4562 202.253L277.789 110.679L284.203 114.28L289.33 99.8281Z" fill="#407BFF"/>
<path opacity="0.3" d="M408.254 133.164L380.44 134.878L387.643 138.931L234.802 217.246L193.834 202.239L69.8624 264.064L61.4414 268.268L71.1962 273.757L81.4151 268.662L194.402 212.313L235.405 227.344L397.351 144.374L403.128 147.616L408.254 133.164Z" fill="white"/>
<path opacity="0.7" d="M403.637 208.703L375.811 210.417L382.318 214.065L196.28 306.473L187.801 310.688L197.59 316.177L207.763 311.128L392.096 219.554L398.498 223.155L403.637 208.703Z" fill="white"/>
<path opacity="0.5" d="M289.33 99.8281L261.516 101.542L268.023 105.19L81.9731 197.598L73.4941 201.813L83.2838 207.302L93.4562 202.253L277.789 110.679L284.203 114.28L289.33 99.8281Z" fill="white"/>
<path d="M46.373 374.78H385.287L374.152 362.621L350.745 356.888L341.57 341.672L325.053 321.5H304.859L283.493 347.682L253.498 351.446L209.294 362.621L182.036 368.33L171.539 363.929L106.027 369.349L85.2184 365.851L46.373 374.78Z" fill="#263238"/>
<path opacity="0.7" d="M46.373 374.78H385.287L374.152 362.621L350.745 356.888L341.57 341.672L325.053 321.5H304.859L283.493 347.682L253.498 351.446L209.294 362.621L182.036 368.33L171.539 363.929L106.027 369.349L85.2184 365.851L46.373 374.78Z" fill="white"/>
<path opacity="0.2" d="M85.2184 365.851L79.5001 371.653L102.745 374.004L108.869 371.653H156.889L169.741 364.589L182.976 369.58L180.656 372.869L243.569 369.58L239.185 359.76L253.498 351.446L270.015 356.842L274.365 363.779L282.925 367.681L283.493 347.682L304.859 321.5L309.151 333.173L323.313 329.432L309.151 344.787L299.755 348.47L297.006 366.095L320.866 357.977L342.579 362.794L350.745 356.888L346.558 366.095L326.062 369.58L319.23 374.78H46.373L85.2184 365.851Z" fill="black"/>
<path d="M269.714 72.25H256.734L251.619 91.496L269.714 72.25Z" fill="#407BFF"/>
<path d="M296.902 65.3759V17.9094C296.902 11.0343 291.32 5.46094 284.433 5.46094L236.889 5.46094C230.002 5.46094 224.42 11.0343 224.42 17.9094V65.3759C224.42 72.251 230.002 77.8244 236.889 77.8244H284.433C291.32 77.8244 296.902 72.251 296.902 65.3759Z" fill="#407BFF"/>
<path opacity="0.8" d="M284.445 5.4844H236.889C235.252 5.48288 233.631 5.80344 232.118 6.42777C230.605 7.0521 229.231 7.96796 228.073 9.12299C226.915 10.278 225.996 11.6496 225.369 13.1592C224.743 14.6689 224.42 16.2871 224.42 17.9213V65.3993C224.42 68.7009 225.734 71.8672 228.072 74.2017C230.41 76.5363 233.582 77.8478 236.889 77.8478H255.25L251.608 91.5354L264.46 77.8131H284.422C286.063 77.8192 287.69 77.5017 289.208 76.8788C290.726 76.256 292.106 75.34 293.269 74.1834C294.432 73.0269 295.354 71.6525 295.984 70.1391C296.613 68.6258 296.938 67.0033 296.937 65.3646V17.8866C296.925 14.589 295.603 11.4311 293.261 9.1059C290.919 6.7807 287.748 5.47824 284.445 5.4844Z" fill="white"/>
<path d="M254.591 59.4062H237.238V66.0184H254.591V59.4062Z" fill="#263238"/>
<path opacity="0.4" d="M254.591 59.4062H237.238V66.0184H254.591V59.4062Z" fill="white"/>
<path opacity="0.2" d="M253.476 58.0469L250.229 66.0255H257.455L253.476 58.0469Z" fill="black"/>
<path d="M284.109 55.9844H267.557V66.0358H284.109V55.9844Z" fill="#263238"/>
<path opacity="0.4" d="M284.109 55.9844H267.557V66.0358H284.109V55.9844Z" fill="white"/>
<path opacity="0.2" d="M268.451 55.9844L273.287 66.0242H264.229L265.945 55.9844H268.451Z" fill="black"/>
<path d="M260.668 19.125L249.66 23.8265L260.668 28.389V19.125Z" fill="#407BFF"/>
<path d="M261.097 17.9688H260.238V53.5773H261.097V17.9688Z" fill="#263238"/>
<path opacity="0.2" d="M261.097 17.9688H260.238V53.5773H261.097V17.9688Z" fill="white"/>
<path d="M261.433 17.9987C261.433 18.1498 261.389 18.2976 261.304 18.4233C261.22 18.5489 261.101 18.6469 260.961 18.7048C260.821 18.7626 260.667 18.7777 260.519 18.7483C260.37 18.7188 260.234 18.646 260.127 18.5391C260.02 18.4322 259.947 18.296 259.917 18.1478C259.888 17.9995 259.903 17.8458 259.961 17.7062C260.019 17.5665 260.117 17.4472 260.243 17.3632C260.368 17.2792 260.516 17.2344 260.668 17.2344C260.871 17.2344 261.066 17.3149 261.209 17.4582C261.353 17.6016 261.433 17.796 261.433 17.9987Z" fill="#263238"/>
<path d="M268.46 50.4844H252.883V66.0363H268.46V50.4844Z" fill="#263238"/>
<path opacity="0.4" d="M268.46 50.4844H252.883V66.0363H268.46V50.4844Z" fill="white"/>
<path d="M250.748 136.073C250.748 136.073 272.253 134.8 276.95 133.48C281.648 132.159 302.735 121.992 302.735 121.992L305.739 128.072C305.739 128.072 282.75 142.767 277.217 144.643C271.684 146.519 247.697 151.232 247.697 151.232L250.748 136.073Z" fill="#263238"/>
<path opacity="0.4" d="M305.693 128.072C305.693 128.072 282.75 142.767 277.217 144.643C273.737 145.801 262.73 148.186 255.179 149.726C250.864 150.606 247.686 151.232 247.686 151.232L249.739 140.983L250.713 136.073C250.713 136.073 272.218 134.8 276.915 133.48C281.613 132.159 302.735 121.992 302.735 121.992L305.693 128.072Z" fill="white"/>
<path opacity="0.2" d="M255.179 149.729C250.864 150.609 247.686 151.234 247.686 151.234L250.261 144.391C251.392 144.913 252.409 145.654 253.253 146.57C254.097 147.486 254.751 148.56 255.179 149.729Z" fill="black"/>
<path d="M242.804 120.558C240.484 124.322 235.009 126.568 232.504 128.861C229.998 131.154 231.158 139.063 214.827 136.712C198.495 134.362 192.383 137.639 192.383 137.639C192.383 137.639 191.466 134.095 198.646 131.166C198.646 131.166 193.102 132.242 191.513 135.126C191.513 135.126 191.153 126.221 198.472 123.546C205.791 120.871 204.747 109.522 209.944 103.57C215.14 97.6183 228.595 94.4338 236.401 99.9922C244.207 105.551 245.831 115.671 242.804 120.558Z" fill="#263238"/>
<path d="M191.512 208.131C191.512 208.131 231.865 208.397 240.286 204.24C248.707 200.083 247.675 159.078 247.675 159.078L211.822 170.496C211.822 170.496 210.789 190.854 191.512 208.131Z" fill="#263238"/>
<path opacity="0.1" d="M191.512 208.131C191.512 208.131 231.865 208.397 240.286 204.24C248.707 200.083 247.675 159.078 247.675 159.078L211.822 170.496C211.822 170.496 210.789 190.854 191.512 208.131Z" fill="white"/>
<path d="M218.318 139.035C222.32 138.27 229.245 136.719 233.014 136.719C236.784 136.719 239.568 138.861 240.287 140.633C241.006 142.405 220.186 149.41 216.973 147.697C213.76 145.983 213.331 139.984 218.318 139.035Z" fill="#263238"/>
<path opacity="0.1" d="M218.318 139.035C222.32 138.27 229.245 136.719 233.014 136.719C236.784 136.719 239.568 138.861 240.287 140.633C241.006 142.405 220.186 149.41 216.973 147.697C213.76 145.983 213.331 139.984 218.318 139.035Z" fill="white"/>
<path d="M161.423 369.159H163.081L163.545 367.109L169.043 369.588H182.962C182.962 369.588 185.178 367.364 178.543 365.592C178.218 365.505 177.904 365.384 177.603 365.233C174.124 363.578 169.032 357.984 169.032 357.984H161.388C161.153 358.356 160.944 358.743 160.762 359.142C159.938 360.764 158.488 364.295 161.423 369.159Z" fill="#263238"/>
<path d="M160.773 359.084C161.783 357.926 166.376 362.894 169.74 364.573C172.744 366.067 176.119 366.727 177.615 365.21C174.136 363.554 168.51 356.328 168.51 356.328H162.386C162.386 356.328 161.133 358.366 160.773 359.084Z" fill="#FFC2BC"/>
<path d="M167.862 359.766L180.656 332.46L169.591 329.438L161.9 356.373" fill="#FFC2BC"/>
<path d="M172.478 354.167C170.549 353.978 168.642 353.61 166.782 353.067C165.247 352.643 163.807 351.932 162.537 350.971C166.84 328.205 176.665 292.782 191.198 275.296C209.339 205.955 231.239 195 231.239 195L250.203 199.956C250.203 199.956 250.203 210.17 243.557 223C235.751 238.054 220.579 260.879 209.769 279.847C197.265 301.791 183.265 327.695 172.478 354.167Z" fill="#263238"/>
<path opacity="0.2" d="M226.97 251.32C221.089 260.862 214.93 270.786 209.769 279.853C197.276 301.797 183.323 327.69 172.489 354.162C170.561 353.974 168.655 353.61 166.794 353.073C165.256 352.647 163.812 351.936 162.537 350.977C166.852 328.199 176.665 292.788 191.198 275.29C196.731 254.168 202.6 238.454 208.11 226.828C213.495 235.646 219.819 243.858 226.97 251.32Z" fill="white"/>
<path d="M248.464 356.421H250.134L250.586 354.383L256.084 356.861H270.003C270.003 356.861 272.23 354.626 265.619 352.889C265.294 352.802 264.979 352.681 264.679 352.53C261.141 350.874 256.107 345.281 256.107 345.281H248.464C248.229 345.653 248.02 346.04 247.837 346.439C246.979 348.026 245.541 351.546 248.464 356.421Z" fill="#263238"/>
<path d="M247.812 346.346C248.822 345.188 253.415 350.156 256.779 351.835C259.783 353.328 263.158 353.989 264.654 352.472C261.117 350.816 255.561 343.578 255.561 343.578H249.378C249.378 343.578 248.218 345.628 247.812 346.346Z" fill="#FFC2BC"/>
<path d="M255.33 347.064L263.426 318.021L252.024 316.875L248.893 344.713" fill="#FFC2BC"/>
<path d="M276.592 251.304C254.878 226.442 215.604 191.922 215.604 191.922C212.66 194.609 210.339 197.907 208.804 201.583C207.27 205.259 206.558 209.226 206.72 213.205C206.881 217.185 207.911 221.081 209.738 224.622C211.565 228.162 214.145 231.261 217.297 233.702C231.328 244.386 246.217 253.894 261.815 262.131C252.35 289.923 249.172 319.904 248.835 339.219C250.349 339.978 251.974 340.49 253.649 340.736C255.662 341.147 257.737 341.147 259.75 340.736C265.236 318.098 273.866 288.835 279.329 267.261C281.22 260.105 280.895 255.473 276.592 251.304Z" fill="#263238"/>
<path opacity="0.2" d="M276.592 251.304C254.878 226.442 215.604 191.922 215.604 191.922C212.66 194.609 210.339 197.907 208.804 201.583C207.27 205.259 206.558 209.226 206.72 213.205C206.881 217.185 207.911 221.081 209.738 224.622C211.565 228.162 214.145 231.261 217.297 233.702C231.328 244.386 246.217 253.894 261.815 262.131C252.35 289.923 249.172 319.904 248.835 339.219C250.349 339.978 251.974 340.49 253.649 340.736C255.662 341.147 257.737 341.147 259.75 340.736C265.236 318.098 273.866 288.835 279.329 267.261C281.22 260.105 280.895 255.473 276.592 251.304Z" fill="white"/>
<path d="M303.477 122.064L309.276 115.047L313.846 122.528C313.846 122.528 307.316 128.237 305.158 126.581L303.477 122.064Z" fill="#EEC1BB"/>
<path d="M317.49 114.781L319.323 120.803L313.894 122.517L309.324 115.036L317.49 114.781Z" fill="#EEC1BB"/>
<path d="M300.264 122.121L303.604 129.891L306.701 128.131L303.639 120.836L300.264 122.121Z" fill="#407BFF"/>
<path opacity="0.4" d="M300.264 122.121L303.604 129.891L306.701 128.131L303.639 120.836L300.264 122.121Z" fill="white"/>
<path d="M218.236 141.358C218.236 141.358 233.755 147.808 231.992 138.533C231.992 138.533 242.211 137.583 250.284 136.703C250.284 136.703 252.476 157.547 249.53 190.689L251.63 206.716L239.497 210.445L235.46 198.749L230.612 210.989L205.303 203.068L212.958 187.667C212.958 187.667 211.729 163.661 205.303 150.68C205.303 150.68 206.37 146.048 218.236 141.358Z" fill="#407BFF"/>
<path d="M219.512 123.734C220.927 128.969 222.666 138.545 219.268 142.042C219.268 142.042 214.501 146.674 228.338 146.2C229.498 149.083 234.196 154.306 234.196 154.306C234.196 154.306 235.101 146.2 234.138 144.104C238.012 140.386 230.125 137.596 230.125 137.596C230.125 137.596 229.429 136.276 230.125 132.211L219.512 123.734Z" fill="#EEC1BB"/>
<path opacity="0.2" d="M223.862 127.203L230.149 132.24C229.965 133.191 229.872 134.156 229.87 135.124C227.608 134.811 224.361 132.356 223.955 130.029C223.75 129.101 223.718 128.143 223.862 127.203Z" fill="black"/>
<path d="M215.046 113.181C216.635 121.635 217.123 125.224 221.948 129.277C229.209 135.368 239.184 132.149 240.135 123.545C240.993 115.787 238.256 103.28 229.534 100.489C227.682 99.8267 225.687 99.6706 223.755 100.038C221.823 100.404 220.024 101.281 218.546 102.576C217.068 103.871 215.964 105.537 215.348 107.402C214.733 109.267 214.629 111.262 215.046 113.181Z" fill="#EEC1BB"/>
<path d="M222.319 107.131C217.68 113.141 227.238 120.054 217.68 119.66C208.122 119.267 211.985 105.764 217.68 102.661C223.375 99.5574 222.319 107.131 222.319 107.131Z" fill="#263238"/>
<path d="M228.5 114.638C228.605 115.356 229.057 115.9 229.51 115.865C229.962 115.83 230.263 115.228 230.159 114.51C230.055 113.792 229.602 113.248 229.138 113.283C228.674 113.318 228.338 113.92 228.5 114.638Z" fill="#263238"/>
<path d="M237.084 114.122C237.177 114.84 237.641 115.384 238.093 115.361C238.546 115.338 238.847 114.713 238.743 114.006C238.639 113.3 238.186 112.732 237.722 112.767C237.258 112.802 236.98 113.404 237.084 114.122Z" fill="#263238"/>
<path d="M237.525 112.828L239.138 112.203C239.138 112.203 238.465 113.616 237.525 112.828Z" fill="#263238"/>
<path d="M234.846 115.492C235.706 117.076 236.767 118.543 238.001 119.858C237.672 120.146 237.282 120.356 236.86 120.472C236.438 120.589 235.995 120.608 235.565 120.529L234.846 115.492Z" fill="#D4827D"/>
<path d="M231.981 123.457C232.367 123.49 232.755 123.49 233.141 123.457C233.168 123.454 233.194 123.446 233.218 123.432C233.242 123.419 233.262 123.401 233.279 123.379C233.295 123.357 233.307 123.332 233.313 123.306C233.319 123.279 233.32 123.252 233.315 123.225C233.306 123.17 233.278 123.119 233.236 123.083C233.193 123.047 233.139 123.028 233.083 123.028C232.186 123.098 231.284 122.966 230.445 122.641C229.606 122.316 228.85 121.807 228.234 121.152C228.195 121.115 228.143 121.094 228.089 121.094C228.035 121.094 227.983 121.115 227.944 121.152C227.924 121.171 227.908 121.193 227.897 121.218C227.887 121.243 227.881 121.27 227.881 121.297C227.881 121.324 227.887 121.351 227.897 121.376C227.908 121.401 227.924 121.423 227.944 121.442C228.998 122.584 230.434 123.301 231.981 123.457Z" fill="#263238"/>
<path d="M226.03 110.793C226.085 110.799 226.141 110.79 226.191 110.767C226.242 110.745 226.286 110.71 226.32 110.666C226.656 110.282 227.081 109.986 227.558 109.804C228.036 109.623 228.55 109.561 229.057 109.624C229.11 109.636 229.165 109.636 229.218 109.625C229.271 109.614 229.321 109.592 229.365 109.56C229.409 109.528 229.445 109.488 229.472 109.441C229.499 109.394 229.516 109.342 229.521 109.288C229.535 109.176 229.505 109.064 229.438 108.973C229.371 108.883 229.272 108.822 229.162 108.802C228.52 108.704 227.864 108.77 227.255 108.995C226.647 109.22 226.105 109.596 225.682 110.087C225.613 110.174 225.581 110.284 225.592 110.394C225.603 110.504 225.656 110.606 225.74 110.678C225.778 110.715 225.823 110.745 225.873 110.764C225.923 110.784 225.976 110.794 226.03 110.793Z" fill="#263238"/>
<path d="M239.021 110.027C239.125 110.031 239.228 109.999 239.311 109.934C239.35 109.896 239.38 109.85 239.401 109.799C239.423 109.748 239.433 109.694 239.433 109.639C239.433 109.584 239.423 109.53 239.401 109.479C239.38 109.429 239.35 109.383 239.311 109.344C238.879 108.82 238.332 108.403 237.712 108.126C237.092 107.849 236.417 107.718 235.738 107.746C235.684 107.751 235.632 107.768 235.585 107.795C235.538 107.821 235.497 107.858 235.465 107.902C235.434 107.946 235.412 107.996 235.401 108.049C235.39 108.101 235.39 108.156 235.402 108.209C235.422 108.32 235.483 108.42 235.573 108.489C235.663 108.558 235.776 108.59 235.889 108.579C236.427 108.563 236.962 108.672 237.451 108.897C237.94 109.122 238.37 109.457 238.707 109.876C238.789 109.964 238.901 110.018 239.021 110.027Z" fill="#263238"/>
<path d="M228.885 113.344L230.497 112.719C230.497 112.719 229.824 114.132 228.885 113.344Z" fill="#263238"/>
<path d="M225.589 102.444C225.589 102.444 223.931 112.402 217.308 114.024C210.684 115.645 216.055 103.787 216.055 103.787C216.055 103.787 217.447 98.3906 226.401 98.3906C235.356 98.3906 245.667 107.469 242.802 120.508C243.042 117.826 242.524 115.13 241.306 112.727C239.323 109.345 237.281 112.298 225.589 102.444Z" fill="#263238"/>
<path d="M214.223 121.378C214.57 122.122 215.069 122.786 215.689 123.327C216.308 123.867 217.034 124.272 217.819 124.516C219.779 125.037 220.638 122.79 219.988 120.544C219.397 118.517 217.668 115.796 215.731 116.294C213.794 116.792 213.226 119.398 214.223 121.378Z" fill="#EEC1BB"/>
<path d="M216.415 141.125C216.415 141.125 219.152 172.727 207.901 193.339C196.65 213.952 191.384 217.055 191.384 217.055L186.744 208.138C186.744 208.138 207.553 184.805 208.202 181.759C208.852 178.714 204.398 149.717 204.398 149.717C208.004 146.334 212.045 143.444 216.415 141.125Z" fill="#263238"/>
<path opacity="0.4" d="M207.901 193.335C196.661 213.924 191.384 217.051 191.384 217.051L186.744 208.134C186.744 208.134 207.553 184.801 208.202 181.755C208.266 179.02 208.088 176.284 207.669 173.58C207.193 169.341 206.509 164.177 205.871 159.742C205.082 154.148 204.398 149.713 204.398 149.713C207.993 146.328 212.022 143.435 216.38 141.109C216.38 141.109 219.152 172.723 207.901 193.335Z" fill="white"/>
<path d="M218.318 139.031C218.318 139.031 214.943 139.448 214.177 141.104C213.412 142.76 206.371 151.526 206.371 151.526L213.748 149.72L209.41 153.564C211.687 160.872 213.241 168.384 214.05 175.995C214.05 175.995 220.626 158.335 216.37 141.116L218.318 139.031Z" fill="#263238"/>
<path opacity="0.25" d="M218.318 139.031C218.318 139.031 214.943 139.448 214.177 141.104C213.412 142.76 206.371 151.526 206.371 151.526L213.748 149.72L209.41 153.564C211.687 160.872 213.241 168.384 214.05 175.995C214.05 175.995 220.626 158.335 216.37 141.116L218.318 139.031Z" fill="white"/>
<path d="M236.967 137.387C236.967 137.387 248.566 141.625 250.201 182.12C250.201 182.12 252.811 151.202 250.747 136.078L236.967 137.387Z" fill="#263238"/>
<path opacity="0.4" d="M236.967 137.387C236.967 137.387 248.566 141.625 250.201 182.12C250.201 182.12 252.811 151.202 250.747 136.078L236.967 137.387Z" fill="white"/>
<path d="M232.502 136.706L236.631 136.07C238.313 135.803 251.35 143.133 251.35 143.133L245.052 144.442L249.692 146.109C249.692 146.109 251.304 161.163 249.274 170.566C249.274 170.566 245.528 148.159 237.768 139.092C237.13 138.32 236.324 137.704 235.412 137.29C234.499 136.877 233.504 136.677 232.502 136.706Z" fill="#263238"/>
<path opacity="0.25" d="M232.502 136.706L236.631 136.07C238.313 135.803 251.35 143.133 251.35 143.133L245.052 144.442L249.692 146.109C249.692 146.109 251.304 161.163 249.274 170.566C249.274 170.566 245.528 148.159 237.768 139.092C237.13 138.32 236.324 137.704 235.412 137.29C234.499 136.877 233.504 136.677 232.502 136.706Z" fill="white"/>
<path d="M230.123 137.641C230.123 137.641 234.681 140.814 234.136 144.149L243.288 144.392C243.288 144.392 237.314 138.196 230.123 137.641Z" fill="#407BFF"/>
<path d="M217.448 149.72L228.34 146.188C228.34 146.188 222.54 141.556 220.777 139.031L217.181 141.729C217.088 141.938 216.021 144.578 217.448 149.72Z" fill="#407BFF"/>
<path opacity="0.4" d="M230.123 137.641C230.123 137.641 234.681 140.814 234.136 144.149L243.288 144.392C243.288 144.392 237.314 138.196 230.123 137.641Z" fill="white"/>
<path opacity="0.4" d="M217.448 149.72L228.34 146.188C228.34 146.188 222.54 141.556 220.777 139.031L217.181 141.729C217.088 141.938 216.021 144.578 217.448 149.72Z" fill="white"/>
<path d="M164.393 174.008L156.123 170.117L155.148 178.825C155.148 178.825 163.488 181.246 164.741 178.825L164.393 174.008Z" fill="#EEC1BB"/>
<path d="M148.617 173.336L149.51 179.566L155.147 178.825L156.122 170.117L148.617 173.336Z" fill="#EEC1BB"/>
<path d="M162.166 92.9964C162.166 92.9964 141.345 84.3577 122.346 97.9874C111.304 105.897 104.286 124.123 79.5801 117.036C79.5801 117.036 102.082 142.038 116.825 138.911C131.567 135.784 128.609 127.493 158.466 135.634L162.166 92.9964Z" fill="#407BFF"/>
<path d="M163.513 91.0824L160.746 90.9062L142.766 372.296L145.533 372.472L163.513 91.0824Z" fill="#263238"/>
<path d="M164.009 90.9565C163.914 91.3201 163.713 91.6474 163.431 91.897C163.15 92.1466 162.801 92.3072 162.428 92.3586C162.055 92.4099 161.675 92.3497 161.337 92.1855C160.998 92.0213 160.716 91.7605 160.526 91.4362C160.336 91.1119 160.246 90.7385 160.269 90.3634C160.292 89.9883 160.425 89.6284 160.653 89.3291C160.88 89.0297 161.192 88.8046 161.547 88.682C161.903 88.5594 162.287 88.545 162.651 88.6405C163.137 88.7711 163.552 89.0873 163.806 89.5207C164.06 89.9541 164.133 90.4699 164.009 90.9565Z" fill="#263238"/>
<path d="M194.062 120.707C194.024 120.706 193.986 120.697 193.952 120.681C193.917 120.665 193.886 120.643 193.86 120.615C193.834 120.587 193.814 120.554 193.801 120.518C193.788 120.482 193.782 120.444 193.783 120.406C193.791 120.333 193.825 120.266 193.878 120.215C193.931 120.164 194 120.133 194.073 120.128C194.398 120.128 202.193 120.128 204.977 110.726C205.766 107.94 207.315 105.429 209.451 103.472C211.588 101.515 214.227 100.189 217.074 99.6434C217.151 99.6327 217.229 99.6529 217.291 99.6996C217.353 99.7463 217.394 99.8156 217.405 99.8924C217.416 99.9692 217.396 100.047 217.349 100.109C217.302 100.171 217.233 100.212 217.156 100.222C214.425 100.758 211.896 102.038 209.848 103.921C207.801 105.803 206.316 108.214 205.557 110.888C202.599 120.603 194.34 120.707 194.062 120.707Z" fill="#263238"/>
<path d="M241.015 124.886C240.953 124.885 240.893 124.864 240.844 124.826C240.795 124.788 240.76 124.735 240.743 124.676C240.726 124.616 240.729 124.553 240.75 124.495C240.772 124.437 240.812 124.387 240.865 124.354C241.189 124.145 248.671 119.247 243.022 107.864C237.802 97.3375 225.183 98.7156 225.055 98.7271C225.017 98.732 224.978 98.7292 224.941 98.719C224.904 98.7088 224.869 98.6913 224.839 98.6676C224.809 98.6439 224.784 98.6144 224.765 98.5809C224.746 98.5474 224.734 98.5105 224.73 98.4724C224.724 98.4301 224.726 98.3869 224.737 98.3456C224.749 98.3044 224.769 98.2661 224.796 98.2332C224.824 98.2003 224.858 98.1737 224.897 98.155C224.935 98.1363 224.977 98.1261 225.02 98.125C225.148 98.125 238.174 96.689 243.579 107.586C249.471 119.444 241.259 124.771 241.201 124.817C241.177 124.841 241.148 124.86 241.116 124.872C241.084 124.884 241.049 124.889 241.015 124.886Z" fill="#263238"/>
<path opacity="0.2" d="M207.704 173.594C207.229 169.356 206.544 164.191 205.906 159.756C206.314 159.275 206.831 158.898 207.414 158.656C207.414 158.656 211.103 167.272 207.704 173.594Z" fill="black"/>
<path d="M204.434 149.727C204.434 149.727 190.782 171.034 187.72 172.528C184.657 174.021 165.867 173.396 165.867 173.396L164.707 180.483C164.707 180.483 186.131 184.165 191.942 182.116C197.753 180.066 207.403 167.004 207.403 167.004C207.403 167.004 208.784 154.636 204.434 149.727Z" fill="#263238"/>
<path opacity="0.4" d="M204.434 149.727C204.434 149.727 190.782 171.034 187.72 172.528C184.657 174.021 165.867 173.396 165.867 173.396L164.707 180.483C164.707 180.483 186.131 184.165 191.942 182.116C197.753 180.066 207.403 167.004 207.403 167.004C207.403 167.004 208.784 154.636 204.434 149.727Z" fill="white"/>
<path d="M165.934 181.375L167.024 172.991L163.463 172.922L162.361 180.75L165.934 181.375Z" fill="#407BFF"/>
<path opacity="0.4" d="M165.934 181.375L167.024 172.991L163.463 172.922L162.361 180.75L165.934 181.375Z" fill="white"/>
</g>
</g>
<defs>
<clipPath id="clip0_23312_182101">
<rect width="550" height="400" rx="24" fill="white"/>
</clipPath>
<clipPath id="clip1_23312_182101">
<rect width="515" height="579" fill="white" transform="translate(0 -108)"/>
</clipPath>
</defs>
</svg>
