<svg width="155" height="126" viewBox="0 0 155 126" fill="none" xmlns="http://www.w3.org/2000/svg">
<path d="M8.17578 65.3945L23.3485 67.5441L22.1906 75.7173L13.2256 74.4472C10.6442 73.4219 7.90086 67.8599 8.17578 65.3945Z" fill="#EFA628"/>
<path d="M3.55078 50.168L26.1919 53.3756L24.464 65.5719L11.0862 63.6766C7.23429 62.1467 3.14054 53.8468 3.55078 50.168Z" fill="#EFA628"/>
<path d="M146.496 65.3945L131.323 67.5441L132.481 75.7173L141.446 74.4472C144.028 73.4219 146.771 67.8599 146.496 65.3945Z" fill="#EFA628"/>
<path d="M151.121 50.168L128.48 53.3756L130.208 65.5719L143.586 63.6766C147.438 62.1467 151.531 53.8468 151.121 50.168Z" fill="#EFA628"/>
<path d="M73.4023 5.3094C75.8776 3.88034 78.9271 3.88034 81.4023 5.3094L125.364 30.6906C127.839 32.1197 129.364 34.7607 129.364 37.6188V88.3812C129.364 91.2393 127.839 93.8803 125.364 95.3094L81.4023 120.691C78.9271 122.12 75.8776 122.12 73.4023 120.691L29.4408 95.3094C26.9656 93.8803 25.4408 91.2393 25.4408 88.3812V37.6188C25.4408 34.7607 26.9656 32.1197 29.4408 30.6906L73.4023 5.3094Z" fill="#D9D9D9"/>
<path d="M73.4023 5.3094C75.8776 3.88034 78.9271 3.88034 81.4023 5.3094L125.364 30.6906C127.839 32.1197 129.364 34.7607 129.364 37.6188V88.3812C129.364 91.2393 127.839 93.8803 125.364 95.3094L81.4023 120.691C78.9271 122.12 75.8776 122.12 73.4023 120.691L29.4408 95.3094C26.9656 93.8803 25.4408 91.2393 25.4408 88.3812V37.6188C25.4408 34.7607 26.9656 32.1197 29.4408 30.6906L73.4023 5.3094Z" fill="url(#paint0_linear_23295_167164)"/>
<path d="M73.4023 5.3094C75.8776 3.88034 78.9271 3.88034 81.4023 5.3094L125.364 30.6906C127.839 32.1197 129.364 34.7607 129.364 37.6188V88.3812C129.364 91.2393 127.839 93.8803 125.364 95.3094L81.4023 120.691C78.9271 122.12 75.8776 122.12 73.4023 120.691L29.4408 95.3094C26.9656 93.8803 25.4408 91.2393 25.4408 88.3812V37.6188C25.4408 34.7607 26.9656 32.1197 29.4408 30.6906L73.4023 5.3094Z" stroke="black" stroke-width="8"/>
<path d="M73.4023 5.3094C75.8776 3.88034 78.9271 3.88034 81.4023 5.3094L125.364 30.6906C127.839 32.1197 129.364 34.7607 129.364 37.6188V88.3812C129.364 91.2393 127.839 93.8803 125.364 95.3094L81.4023 120.691C78.9271 122.12 75.8776 122.12 73.4023 120.691L29.4408 95.3094C26.9656 93.8803 25.4408 91.2393 25.4408 88.3812V37.6188C25.4408 34.7607 26.9656 32.1197 29.4408 30.6906L73.4023 5.3094Z" stroke="url(#paint1_linear_23295_167164)" stroke-width="8"/>
<path d="M91.4285 71.3245C91.2 71.3307 90.9808 71.4168 90.8092 71.5678C87.9536 74.0749 84.4567 75.7379 80.7098 76.3706C80.5651 76.3953 80.4278 76.4524 80.3082 76.5374C80.1886 76.6225 80.0897 76.7335 80.0189 76.862C79.9481 76.9906 79.9071 77.1335 79.8991 77.28C79.8911 77.4266 79.9162 77.5731 79.9726 77.7086L85.859 91.7373C85.9348 91.9144 86.0612 92.0652 86.2224 92.1707C86.3837 92.2762 86.5725 92.3316 86.7651 92.33C86.9578 92.3285 87.1457 92.27 87.3052 92.1619C87.4647 92.0538 87.5886 91.9009 87.6615 91.7225L90.3596 84.9957L97.1859 87.7344C97.3643 87.8047 97.5595 87.821 97.7471 87.7811C97.9347 87.7413 98.1064 87.6471 98.2408 87.5103C98.3753 87.3735 98.4665 87.2002 98.503 87.0119C98.5396 86.8237 98.52 86.6288 98.4465 86.4516L92.3537 71.9217C92.2774 71.7406 92.1483 71.5868 91.9832 71.4803C91.8182 71.3738 91.6249 71.3195 91.4285 71.3245ZM62.3206 71.9327L56.2314 86.4553C56.1574 86.6329 56.1375 86.8283 56.1741 87.0171C56.2108 87.206 56.3023 87.3798 56.4374 87.5168C56.5724 87.6538 56.7448 87.7478 56.9331 87.7872C57.1214 87.8266 57.3171 87.8095 57.4957 87.738L64.3184 84.9957L67.0165 91.7225C67.3445 92.5335 68.4835 92.5408 68.8226 91.7373L74.7127 77.6938C74.7691 77.5583 74.7942 77.4118 74.7862 77.2653C74.7782 77.1187 74.7372 76.9758 74.6664 76.8473C74.5956 76.7187 74.4967 76.6078 74.3771 76.5227C74.2575 76.4376 74.1202 76.3806 73.9755 76.3559C70.2271 75.7312 66.7264 74.0759 63.865 71.5752C63.7485 71.4732 63.6094 71.4003 63.4593 71.3627C63.3091 71.325 63.1521 71.3235 63.0012 71.3585C62.8504 71.3934 62.71 71.4637 62.5917 71.5635C62.4733 71.6634 62.3804 71.7899 62.3206 71.9327Z" fill="#DD5B5B"/>
<path d="M77.3387 33.7422C64.9613 33.7422 54.9023 43.7974 54.9023 56.1748C54.9023 68.5522 64.9576 78.6001 77.335 78.6001C89.7124 78.6001 99.7676 68.5522 99.7676 56.1748C99.7676 43.7974 89.7161 33.7422 77.3387 33.7422Z" fill="#FFCB3C"/>
<path d="M77.3376 38.617C72.6826 38.6218 68.2198 40.4737 64.9289 43.766C61.6381 47.0582 59.7881 51.5218 59.7852 56.1768C59.7852 65.8598 67.6546 73.7293 77.3376 73.7293C87.0206 73.7293 94.8901 65.8598 94.8901 56.1768C94.8881 51.5212 93.0386 47.0566 89.7476 43.7636C86.4566 40.4705 81.9932 38.6218 77.3376 38.617Z" fill="#FFEA54"/>
<path d="M77.331 44.9746C77.1444 44.9883 76.9656 45.0553 76.816 45.1677C76.6663 45.2801 76.5521 45.4331 76.4869 45.6086L73.9068 52.4534L66.5828 52.6745C66.3842 52.6823 66.1927 52.7506 66.0339 52.8701C65.8751 52.9896 65.7566 53.1547 65.6941 53.3434C65.6316 53.5321 65.6281 53.7353 65.6842 53.926C65.7402 54.1167 65.8531 54.2858 66.0078 54.4106L71.71 58.9959L69.6679 66.0213C69.6126 66.213 69.6174 66.4171 69.6815 66.606C69.7457 66.7949 69.8661 66.9597 70.0267 67.0781C70.1873 67.1965 70.3803 67.2629 70.5797 67.2684C70.7792 67.2739 70.9755 67.2181 71.1423 67.1087L77.2536 63.091L83.3096 67.2082C83.4748 67.3196 83.6701 67.3779 83.8693 67.3752C84.0686 67.3725 84.2622 67.3089 84.4243 67.1929C84.5863 67.077 84.7091 66.9143 84.776 66.7266C84.8429 66.5389 84.8509 66.3353 84.7987 66.1429L82.8784 59.077L88.6579 54.5986C88.8166 54.4769 88.9342 54.3095 88.9947 54.1189C89.0552 53.9283 89.0558 53.7237 88.9963 53.5327C88.9368 53.3418 88.8201 53.1738 88.6621 53.0512C88.504 52.9287 88.3121 52.8577 88.1124 52.8478L80.7921 52.5086L78.3152 45.6159C78.2435 45.4161 78.1087 45.245 77.9311 45.1286C77.7535 45.0122 77.5429 44.9605 77.331 44.9746Z" fill="#FEAA2B"/>
<defs>
<linearGradient id="paint0_linear_23295_167164" x1="77.4023" y1="3" x2="77.4023" y2="123" gradientUnits="userSpaceOnUse">
<stop stop-color="#F4FAFF"/>
<stop offset="1" stop-color="#C4D4FF"/>
</linearGradient>
<linearGradient id="paint1_linear_23295_167164" x1="19.4023" y1="5.69022" x2="107.703" y2="134.149" gradientUnits="userSpaceOnUse">
<stop offset="0.33" stop-color="#FCC84E"/>
<stop offset="0.3301" stop-color="#FEF04F"/>
<stop offset="0.45" stop-color="#FEF04F"/>
<stop offset="0.4501" stop-color="#FCC84E"/>
<stop offset="0.6149" stop-color="#FCC84E"/>
<stop offset="0.615" stop-color="#F59E1B"/>
<stop offset="0.72" stop-color="#F59E1B"/>
<stop offset="0.7201" stop-color="#FCC84E"/>
</linearGradient>
</defs>
</svg>
