<svg width="160" height="126" viewBox="0 0 160 126" fill="none" xmlns="http://www.w3.org/2000/svg">
<path d="M10.5078 56.0039L25.6805 58.1534L24.5226 66.3267L15.5576 65.0566C12.9763 64.0313 10.2329 58.4692 10.5078 56.0039Z" fill="#EFA628"/>
<path d="M14.8945 67.0898L28.6496 69.0385L27.5999 76.4481L19.4725 75.2967C17.1324 74.3672 14.6453 69.3248 14.8945 67.0898Z" fill="#EFA628"/>
<path d="M17.9648 77.2148L30.7791 79.0303L29.8012 85.9331L22.2297 84.8604C20.0496 83.9945 17.7327 79.297 17.9648 77.2148Z" fill="#EFA628"/>
<path d="M5.88281 40.7773L28.5239 43.9849L26.7961 56.1812L13.4183 54.286C9.56632 52.756 5.47257 44.4562 5.88281 40.7773Z" fill="#EFA628"/>
<path d="M148.824 56.0039L133.652 58.1534L134.809 66.3267L143.774 65.0566C146.356 64.0313 149.099 58.4692 148.824 56.0039Z" fill="#EFA628"/>
<path d="M144.438 67.0898L130.682 69.0385L131.732 76.4481L139.859 75.2967C142.2 74.3672 144.687 69.3248 144.438 67.0898Z" fill="#EFA628"/>
<path d="M141.367 77.2148L128.553 79.0303L129.531 85.9331L137.102 84.8604C139.282 83.9945 141.599 79.297 141.367 77.2148Z" fill="#EFA628"/>
<path d="M153.449 40.7773L130.808 43.9849L132.536 56.1812L145.914 54.286C149.766 52.756 153.859 44.4562 153.449 40.7773Z" fill="#EFA628"/>
<path d="M75.668 5.3094C78.1432 3.88034 81.1928 3.88034 83.668 5.3094L127.629 30.6906C130.105 32.1197 131.629 34.7607 131.629 37.6188V88.3812C131.629 91.2393 130.105 93.8803 127.629 95.3094L83.668 120.691C81.1928 122.12 78.1432 122.12 75.668 120.691L31.7064 95.3094C29.2312 93.8803 27.7064 91.2393 27.7064 88.3812V37.6188C27.7064 34.7607 29.2312 32.1197 31.7064 30.6906L75.668 5.3094Z" fill="#D9D9D9"/>
<path d="M75.668 5.3094C78.1432 3.88034 81.1928 3.88034 83.668 5.3094L127.629 30.6906C130.105 32.1197 131.629 34.7607 131.629 37.6188V88.3812C131.629 91.2393 130.105 93.8803 127.629 95.3094L83.668 120.691C81.1928 122.12 78.1432 122.12 75.668 120.691L31.7064 95.3094C29.2312 93.8803 27.7064 91.2393 27.7064 88.3812V37.6188C27.7064 34.7607 29.2312 32.1197 31.7064 30.6906L75.668 5.3094Z" fill="url(#paint0_linear_25023_137868)"/>
<path d="M75.668 5.3094C78.1432 3.88034 81.1928 3.88034 83.668 5.3094L127.629 30.6906C130.105 32.1197 131.629 34.7607 131.629 37.6188V88.3812C131.629 91.2393 130.105 93.8803 127.629 95.3094L83.668 120.691C81.1928 122.12 78.1432 122.12 75.668 120.691L31.7064 95.3094C29.2312 93.8803 27.7064 91.2393 27.7064 88.3812V37.6188C27.7064 34.7607 29.2312 32.1197 31.7064 30.6906L75.668 5.3094Z" stroke="black" stroke-width="8"/>
<path d="M75.668 5.3094C78.1432 3.88034 81.1928 3.88034 83.668 5.3094L127.629 30.6906C130.105 32.1197 131.629 34.7607 131.629 37.6188V88.3812C131.629 91.2393 130.105 93.8803 127.629 95.3094L83.668 120.691C81.1928 122.12 78.1432 122.12 75.668 120.691L31.7064 95.3094C29.2312 93.8803 27.7064 91.2393 27.7064 88.3812V37.6188C27.7064 34.7607 29.2312 32.1197 31.7064 30.6906L75.668 5.3094Z" stroke="url(#paint1_linear_25023_137868)" stroke-width="8"/>
<path d="M76.8535 52.6875L77.791 39.5625H81.541L82.4785 52.6875H76.8535Z" fill="#8A8275"/>
<path d="M74.213 56.4375L71.8262 82.6875H87.6137L85.1143 56.4375H74.213Z" fill="#D5CEC2"/>
<path d="M72.8672 71.2284C78.0563 70.2281 81.9769 65.6681 81.9769 60.1875C81.9769 58.8703 81.7388 57.6122 81.3234 56.4375H74.2116L72.8672 71.2284Z" fill="#E7E4DD"/>
<path d="M79.666 62.0625C81.2193 62.0625 82.4785 60.8033 82.4785 59.25C82.4785 57.6967 81.2193 56.4375 79.666 56.4375C78.1127 56.4375 76.8535 57.6967 76.8535 59.25C76.8535 60.8033 78.1127 62.0625 79.666 62.0625Z" fill="#4D5D7A"/>
<path d="M89.9785 57.375L95.6035 58.3125V52.6875L89.9785 53.625V57.375ZM69.3535 57.375L63.7285 58.3125V52.6875L69.3535 53.625V57.375Z" fill="#F5BA5B"/>
<path d="M89.9785 58.3125V52.6875H69.3535V58.3125H74.041L76.8535 56.4375H82.4785L85.291 58.3125H89.9785Z" fill="#F19846"/>
<path d="M79.666 40.5C81.2193 40.5 82.4785 39.2408 82.4785 37.6875C82.4785 36.1342 81.2193 34.875 79.666 34.875C78.1127 34.875 76.8535 36.1342 76.8535 37.6875C76.8535 39.2408 78.1127 40.5 79.666 40.5Z" fill="#243242"/>
<path d="M57.166 46.125C57.166 44.6332 57.7586 43.2024 58.8135 42.1475C59.8684 41.0926 61.2992 40.5 62.791 40.5C61.2992 40.5 59.8684 39.9074 58.8135 38.8525C57.7586 37.7976 57.166 36.3668 57.166 34.875C57.166 36.3668 56.5734 37.7976 55.5185 38.8525C54.4636 39.9074 53.0329 40.5 51.541 40.5C53.0329 40.5 54.4636 41.0926 55.5185 42.1475C56.5734 43.2024 57.166 44.6332 57.166 46.125ZM102.166 53.625C102.166 52.1332 102.759 50.7024 103.814 49.6475C104.868 48.5926 106.299 48 107.791 48C106.299 48 104.868 47.4074 103.814 46.3525C102.759 45.2976 102.166 43.8668 102.166 42.375C102.166 43.8668 101.573 45.2976 100.518 46.3525C99.4636 47.4074 98.0329 48 96.541 48C98.0329 48 99.4636 48.5926 100.518 49.6475C101.573 50.7024 102.166 52.1332 102.166 53.625Z" fill="#F8CF6A"/>
<path d="M80.5996 65.9328L82.4634 65.7266L83.3971 74.165L81.5334 74.3712L80.5996 65.9328Z" fill="#9D958C"/>
<path d="M85.291 82.6875H93.7285L98.416 77.0625L107.791 84.5625V91.125H51.541L60.916 81.75L68.416 80.8125L79.666 75.1875L82.4785 80.8125L90.0873 86.0231L89.9785 91.125" fill="#4E4A40"/>
<path d="M68.0701 91.1264C70.4226 89.5444 72.3781 87.4405 73.784 84.9787C75.19 82.5169 76.0085 79.7637 76.1757 76.9336L68.416 80.8139L60.916 81.7514L51.541 91.1264H68.0701Z" fill="#625D51"/>
<defs>
<linearGradient id="paint0_linear_25023_137868" x1="79.668" y1="3" x2="79.668" y2="123" gradientUnits="userSpaceOnUse">
<stop stop-color="#F4FAFF"/>
<stop offset="1" stop-color="#C4D4FF"/>
</linearGradient>
<linearGradient id="paint1_linear_25023_137868" x1="21.6679" y1="5.69022" x2="109.969" y2="134.149" gradientUnits="userSpaceOnUse">
<stop offset="0.33" stop-color="#FCC84E"/>
<stop offset="0.3301" stop-color="#FEF04F"/>
<stop offset="0.45" stop-color="#FEF04F"/>
<stop offset="0.4501" stop-color="#FCC84E"/>
<stop offset="0.6149" stop-color="#FCC84E"/>
<stop offset="0.615" stop-color="#F59E1B"/>
<stop offset="0.72" stop-color="#F59E1B"/>
<stop offset="0.7201" stop-color="#FCC84E"/>
</linearGradient>
</defs>
</svg>
