<svg width="131" height="100" viewBox="0 0 131 100" fill="none" xmlns="http://www.w3.org/2000/svg">
<g filter="url(#filter0_i_18985_138966)">
<path d="M118.371 42.461C111.564 47.5286 100.9 45.3277 100.732 44.7143C100.563 44.101 99.5663 33.4247 109.11 29.0152C113.886 26.8087 121.797 25.7305 125.295 25.6172C130.029 25.615 127.89 28.9194 126.601 31.7764C125.046 36.3669 125.178 37.3934 118.371 42.461Z" fill="url(#paint0_linear_18985_138966)"/>
</g>
<path fill-rule="evenodd" clip-rule="evenodd" d="M127.974 26.4926C127.609 25.9482 126.799 25.6165 125.298 25.6172C121.8 25.7305 113.888 26.8087 109.113 29.0152C106.096 30.409 104.133 32.4289 102.863 34.5593C105.552 32.6845 110.267 30.5686 115.819 28.8957C120.446 27.5013 124.763 26.6831 127.974 26.4926Z" fill="#FEF050"/>
<g filter="url(#filter1_i_18985_138966)">
<path d="M117.063 56.9721C110.589 60.6824 101.521 57.6508 101.439 57.0983C101.357 56.5458 101.617 47.1297 110.408 44.2787C114.807 42.852 121.821 42.7365 124.884 43.0024C129.014 43.4941 126.799 46.1533 125.372 48.5108C123.53 52.3527 123.536 53.2618 117.063 56.9721Z" fill="url(#paint1_linear_18985_138966)"/>
</g>
<path fill-rule="evenodd" clip-rule="evenodd" d="M127.126 44.0383C126.865 43.5252 126.194 43.1514 124.884 42.9955C121.821 42.7296 114.807 42.8451 110.408 44.2717C107.629 45.1729 105.703 46.7301 104.37 48.456C106.913 47.101 111.251 45.7472 116.27 44.8669C120.453 44.1331 124.305 43.8695 127.126 44.0383Z" fill="#FEF050"/>
<g filter="url(#filter2_i_18985_138966)">
<path d="M112.016 67.4727C107.294 69.2759 101.552 66.2992 101.556 65.9211C101.56 65.5431 102.734 59.2739 108.915 58.288C112.008 57.7946 116.711 58.4519 118.731 58.9504C121.44 59.7116 119.676 61.2578 118.471 62.6848C116.832 65.0609 116.739 65.6695 112.016 67.4727Z" fill="url(#paint2_linear_18985_138966)"/>
</g>
<path fill-rule="evenodd" clip-rule="evenodd" d="M120.119 59.8809C119.999 59.5106 119.59 59.1904 118.731 58.9491C116.711 58.4506 112.008 57.7933 108.915 58.2867C106.961 58.5983 105.508 59.4377 104.433 60.4521C106.278 59.8124 109.322 59.3614 112.771 59.2983C115.647 59.2457 118.25 59.4727 120.119 59.8809Z" fill="#FEF050"/>
<path d="M110.105 28.5859L110.036 28.6228C107.357 30.0526 105.718 32.8763 105.806 35.912L106.667 65.6469C106.694 66.577 107.455 67.3169 108.386 67.3169C109.336 67.3169 110.105 66.547 110.105 65.5972V28.5859Z" fill="#D2753F"/>
<g filter="url(#filter3_i_18985_138966)">
<path d="M12.8363 42.3516C19.6435 47.4192 30.3073 45.2183 30.4755 44.605C30.6437 43.9916 31.6407 33.3153 22.097 28.9058C17.3214 26.6993 9.41014 25.6212 5.91229 25.5078C1.17816 25.5056 3.31712 28.8101 4.60647 31.6671C6.16138 36.2576 6.02921 37.284 12.8363 42.3516Z" fill="url(#paint3_linear_18985_138966)"/>
</g>
<path fill-rule="evenodd" clip-rule="evenodd" d="M3.23311 26.3832C3.59841 25.8388 4.40847 25.5071 5.90942 25.5078C9.40727 25.6212 17.3186 26.6993 22.0941 28.9058C25.1108 30.2996 27.0743 32.3195 28.3438 34.4499C25.6555 32.5751 20.9395 30.4593 15.3881 28.7863C10.761 27.392 6.44421 26.5737 3.23311 26.3832Z" fill="#FEF050"/>
<g filter="url(#filter4_i_18985_138966)">
<path d="M13.9698 56.8634C20.4392 60.5746 29.5095 57.5434 29.5919 56.9908C29.6742 56.4383 29.4231 47.0211 20.6359 44.1691C16.2389 42.742 9.22517 42.626 6.16232 42.8916C2.03281 43.3831 4.24535 46.0427 5.66986 48.4006C7.50796 52.243 7.50043 53.1522 13.9698 56.8634Z" fill="url(#paint4_linear_18985_138966)"/>
</g>
<path fill-rule="evenodd" clip-rule="evenodd" d="M3.91983 43.9275C4.18129 43.4145 4.85304 43.0407 6.16235 42.8848C9.2252 42.6192 16.2389 42.7352 20.6359 44.1623C23.4135 45.0638 25.3382 46.6213 26.6691 48.3474C24.1275 46.9921 19.792 45.6379 14.7742 44.757C10.5919 44.0229 6.74067 43.759 3.91983 43.9275Z" fill="#FEF050"/>
<g filter="url(#filter5_i_18985_138966)">
<path d="M18.9641 67.3684C23.6813 69.1734 29.4258 66.1961 29.4225 65.8179C29.4192 65.4397 28.2572 59.1671 22.081 58.1795C18.9904 57.6854 14.2888 58.3421 12.2691 58.8405C9.55997 59.6016 11.32 61.1489 12.5214 62.5769C14.156 64.9545 14.2469 65.5634 18.9641 67.3684Z" fill="url(#paint5_linear_18985_138966)"/>
</g>
<path fill-rule="evenodd" clip-rule="evenodd" d="M10.8798 59.7714C11.0005 59.4009 11.4102 59.0806 12.2691 58.8393C14.2888 58.3409 18.9904 57.6841 22.081 58.1783C24.0332 58.4905 25.4845 59.3307 26.5565 60.3459C24.7142 59.7055 21.6724 59.2535 18.2244 59.1898C15.3507 59.1366 12.748 59.3633 10.8798 59.7714Z" fill="#FEF050"/>
<path d="M23.9023 29.875L23.9714 29.9118C26.6507 31.3417 28.2894 34.1654 28.2015 37.2011L27.3411 66.936C27.3142 67.866 26.5525 68.606 25.6221 68.606C24.6723 68.606 23.9023 67.836 23.9023 66.8862V29.875Z" fill="#D2753F"/>
<path d="M52.6751 7.97119C59.5712 4.01123 63.0193 2.03125 66.8055 2.03125C70.5918 2.03125 74.0398 4.01123 80.936 7.97119L94.5353 15.7803C101.431 19.7403 104.88 21.7203 106.773 24.9815C108.666 28.2428 108.666 32.2028 108.666 40.1227V55.741C108.666 63.6609 108.666 67.6209 106.773 70.8821C104.88 74.1434 101.431 76.1234 94.5353 80.0833L80.936 87.8925C74.0398 91.8524 70.5918 93.8324 66.8055 93.8324C63.0193 93.8324 59.5712 91.8524 52.6751 87.8925L39.0757 80.0833C32.1796 76.1234 28.7316 74.1434 26.8384 70.8821C24.9453 67.6209 24.9453 63.6609 24.9453 55.741V40.1227C24.9453 32.2028 24.9453 28.2428 26.8384 24.9815C28.7316 21.7203 32.1796 19.7403 39.0758 15.7803L52.6751 7.97119Z" fill="url(#paint6_linear_18985_138966)"/>
<path fill-rule="evenodd" clip-rule="evenodd" d="M24.9453 55.7422V59.9766C24.9453 67.8965 24.9453 71.8565 26.8384 75.1177C28.7316 78.379 32.1796 80.3589 39.0757 84.3189L52.6751 92.1281C59.5712 96.088 63.0193 98.068 66.8055 98.068C70.5918 98.068 74.0398 96.088 80.9359 92.1281L80.936 92.1281L94.5353 84.3189C101.431 80.3589 104.88 78.379 106.773 75.1177C108.666 71.8565 108.666 67.8965 108.666 59.9767V59.9766V55.7423C108.666 63.6621 108.666 67.6221 106.773 70.8833C104.88 74.1446 101.431 76.1246 94.5353 80.0845L80.936 87.8937L80.9359 87.8937C74.0398 91.8536 70.5918 93.8336 66.8055 93.8336C63.0193 93.8336 59.5712 91.8536 52.6751 87.8937L39.0757 80.0845C32.1796 76.1246 28.7316 74.1446 26.8384 70.8833C24.9453 67.6221 24.9453 63.6621 24.9453 55.7422Z" fill="#D2753F"/>
<path d="M52.8631 18.899C59.7395 14.9663 63.1777 13 66.9507 13C70.7237 13 74.1619 14.9663 81.0383 18.899L85.1382 21.2438C92.0547 25.1994 95.5129 27.1772 97.4122 30.4426C99.3115 33.7079 99.3115 37.6755 99.3115 45.6107V50.1037C99.3115 58.039 99.3115 62.0066 97.4122 65.2719C95.5129 68.5372 92.0547 70.515 85.1383 74.4706L81.0383 76.8154C74.1619 80.7481 70.7237 82.7145 66.9507 82.7145C63.1777 82.7145 59.7395 80.7481 52.8631 76.8155L48.7631 74.4706C41.8467 70.515 38.3885 68.5372 36.4891 65.2719C34.5898 62.0066 34.5898 58.039 34.5898 50.1037V45.6107C34.5898 37.6755 34.5898 33.7079 36.4891 30.4426C38.3885 27.1772 41.8467 25.1994 48.7631 21.2439L52.8631 18.899Z" fill="url(#paint7_linear_18985_138966)"/>
<path d="M52.8631 18.899C59.7395 14.9663 63.1777 13 66.9507 13C70.7237 13 74.1619 14.9663 81.0383 18.899L85.1382 21.2438C92.0547 25.1994 95.5129 27.1772 97.4122 30.4426C99.3115 33.7079 99.3115 37.6755 99.3115 45.6107V50.1037C99.3115 58.039 99.3115 62.0066 97.4122 65.2719C95.5129 68.5372 92.0547 70.515 85.1383 74.4706L81.0383 76.8154C74.1619 80.7481 70.7237 82.7145 66.9507 82.7145C63.1777 82.7145 59.7395 80.7481 52.8631 76.8155L48.7631 74.4706C41.8467 70.515 38.3885 68.5372 36.4891 65.2719C34.5898 62.0066 34.5898 58.039 34.5898 50.1037V45.6107C34.5898 37.6755 34.5898 33.7079 36.4891 30.4426C38.3885 27.1772 41.8467 25.1994 48.7631 21.2439L52.8631 18.899Z" fill="url(#paint8_linear_18985_138966)" fill-opacity="0.8"/>
<path fill-rule="evenodd" clip-rule="evenodd" d="M66.9517 82.7187C70.7246 82.7187 74.1628 80.7524 81.0393 76.8197L85.1392 74.4749C92.0557 70.5193 95.5139 68.5415 97.4132 65.2762C99.3125 62.0109 99.3125 58.0433 99.3125 50.108L99.3125 48.6939C99.3125 56.6292 99.3125 60.5968 97.4132 63.8621C95.5139 67.1274 92.0557 69.1052 85.1392 73.0608L85.1392 73.0608L81.0393 75.4056C74.1628 79.3383 70.7246 81.3047 66.9517 81.3047C63.1787 81.3047 59.7405 79.3383 52.8641 75.4057L48.7641 73.0608C41.8476 69.1052 38.3894 67.1274 36.4901 63.8621C34.5908 60.5968 34.5908 56.6292 34.5908 48.6939L34.5908 50.108C34.5908 58.0433 34.5908 62.0109 36.4901 65.2762C38.3894 68.5415 41.8476 70.5193 48.7641 74.4749L52.8641 76.8197C59.7405 80.7524 63.1787 82.7187 66.9517 82.7187Z" fill="#FFF050"/>
<path fill-rule="evenodd" clip-rule="evenodd" d="M66.9507 13C63.1777 13 59.7395 14.9663 52.8631 18.899L48.7631 21.2439C41.8467 25.1994 38.3885 27.1772 36.4891 30.4426C34.5898 33.7079 34.5898 37.6755 34.5898 45.6107V50.1037C34.5898 58.039 34.5898 62.0066 36.4891 65.2719C36.8321 65.8615 37.2259 66.4092 37.6817 66.934C36.0039 63.7413 36.0039 59.7801 36.0039 52.1663V47.6732C36.0039 39.738 36.0039 35.7704 37.9032 32.5051C39.8025 29.2397 43.2607 27.262 50.1772 23.3064L54.2772 20.9615C61.1536 17.0288 64.5918 15.0625 68.3648 15.0625C72.1377 15.0625 75.5759 17.0288 82.4523 20.9615L86.5523 23.3063C92.2199 26.5477 95.5653 28.461 97.6338 30.8429C97.563 30.7082 97.4892 30.5748 97.4122 30.4426C95.5129 27.1772 92.0547 25.1994 85.1382 21.2438L81.0383 18.899C74.1619 14.9663 70.7237 13 66.9507 13Z" fill="#D2753F"/>
<mask id="mask0_18985_138966" style="mask-type:alpha" maskUnits="userSpaceOnUse" x="36" y="14" width="64" height="69">
<path d="M54.4482 20.3254C61.0935 16.5199 64.4162 14.6172 68.0624 14.6172C71.7085 14.6172 75.0312 16.5199 81.6765 20.3254L85.6387 22.5944C92.3227 26.422 95.6647 28.3358 97.5002 31.4955C99.3356 34.6552 99.3356 38.4945 99.3356 46.1731V50.5208C99.3356 58.1993 99.3356 62.0386 97.5002 65.1983C95.6647 68.358 92.3227 70.2718 85.6387 74.0995L81.6765 76.3684C75.0312 80.1739 71.7085 82.0767 68.0624 82.0767C64.4162 82.0767 61.0935 80.1739 54.4482 76.3684L50.486 74.0995C43.802 70.2718 40.46 68.358 38.6245 65.1983C36.7891 62.0386 36.7891 58.1993 36.7891 50.5208V46.1731C36.7891 38.4945 36.7891 34.6552 38.6245 31.4955C40.46 28.3358 43.802 26.422 50.486 22.5944L54.4482 20.3254Z" fill="#D9D9D9"/>
</mask>
<g mask="url(#mask0_18985_138966)">
<rect x="10.4492" y="2.10156" width="115.501" height="102.901" fill="url(#paint9_linear_18985_138966)"/>
<g filter="url(#filter6_d_18985_138966)">
<path d="M61.0676 70.929C62.79 72.4717 66.3032 74.5296 67.8446 75.3657C69.4538 74.4644 73.1687 72.195 75.1551 70.3275C77.6381 67.9931 82.2032 63.3106 84.3748 59.3044C86.5464 55.2982 88.9426 46.799 89.1485 43.9909C89.3545 41.1828 89.1298 35.2858 89.0549 34.1812C88.98 33.0767 88.512 32.9082 88.0815 32.7585C87.6509 32.6087 84.7679 31.916 84.0003 31.7288C83.2328 31.5416 76.25 29.6508 74.4154 28.8458C72.9477 28.2018 69.4357 26.0813 67.8631 25.1016C67.3327 25.4884 65.8413 26.5016 64.119 27.4601C61.9661 28.6583 57.6042 30.1557 56.1253 30.7735C54.6463 31.3913 50.0036 32.5707 48.6931 32.7392C47.3827 32.9077 46.8958 33.7501 46.8958 34.2743C46.8958 34.7984 46.9333 35.6781 46.8958 40.04C46.8584 44.4019 47.6261 48.4643 48.4685 51.7591C49.3109 55.0539 53.5231 62.4671 55.0395 64.4141C56.5559 66.361 58.9147 69.0007 61.0676 70.929Z" fill="url(#paint10_linear_18985_138966)"/>
</g>
<path fill-rule="evenodd" clip-rule="evenodd" d="M67.7812 75.3317C67.8024 75.3433 67.8232 75.3546 67.8437 75.3657C69.4529 74.4644 73.1678 72.195 75.1542 70.3275C77.6372 67.9931 82.2023 63.3106 84.3739 59.3044C86.5455 55.2982 88.9417 46.799 89.1476 43.9909C89.3536 41.1828 89.1289 35.2858 89.054 34.1812C88.9791 33.0767 88.5111 32.9082 88.0806 32.7585C87.7057 32.6281 85.4724 32.0863 84.394 31.8247C84.2337 31.7858 84.0988 31.7531 83.9995 31.7288C83.2319 31.5416 76.8462 29.8024 75.0115 28.9974C72.3693 27.838 69.4348 26.0813 67.8622 25.1016C67.8373 25.1197 67.8103 25.1393 67.7812 25.1601V75.3317Z" fill="url(#paint11_linear_18985_138966)"/>
<path d="M62.1574 68.496C63.271 69.6385 66.3453 71.5992 67.7433 72.4368C69.34 71.4245 73.9641 67.3328 75.5548 65.8866C77.5433 64.0789 79.4723 61.3716 80.6834 59.5458C81.8946 57.72 83.5056 53.6569 83.9937 52.3192C84.4818 50.9815 85.8561 45.5385 85.9646 44.02C86.073 42.5015 86.1273 37.3496 86.1092 36.8073C86.0911 36.265 85.603 35.8311 85.1511 35.6323C84.6992 35.4334 82.4396 35.09 81.3369 34.9454C80.2342 34.8007 76.1488 33.5534 74.0157 32.8846C71.8826 32.2157 70.5992 31.6009 69.2615 31.0225C67.9238 30.444 66.9657 30.6971 66.3149 30.8779C65.6641 31.0587 63.8384 31.7273 61.7957 32.5769C59.753 33.4266 57.6199 34.0051 55.9568 34.5474C54.2937 35.0897 52.0884 35.3607 50.9495 35.5776C49.8107 35.7945 49.8289 36.6444 49.8108 37.1686C49.7927 37.6929 49.8832 43.6582 50.2266 46.4601C50.5701 49.262 50.8773 50.3284 52.2873 54.0523C53.6973 57.7761 55.6859 60.7771 56.5355 62.1328C57.3851 63.4886 60.7655 67.0678 62.1574 68.496Z" fill="url(#paint12_linear_18985_138966)"/>
<path d="M60.4023 66.0039C62.9637 69.031 66.3207 71.1464 67.679 71.8257C67.8696 71.8257 68.5433 71.619 69.7134 70.7922C71.176 69.7587 74.2924 66.8287 76.3965 64.622C78.5006 62.4153 80.7984 58.4499 81.9788 55.8069C83.1591 53.164 84.75 48.0064 85.1093 45.543C85.4685 43.0797 85.4428 38.6149 85.4428 37.4602C85.4428 36.3055 84.5447 36.0489 83.7749 35.9206C83.0052 35.7923 79.3871 34.9969 77.0521 34.5097C74.7171 34.0225 69.97 32.1231 69.0976 31.6869C68.2252 31.2507 67.558 31.2508 67.0192 31.3791C66.4803 31.5074 59.5522 34.0991 58.5771 34.5097C57.602 34.9202 52.9063 36.2799 51.7003 36.2799C50.7355 36.2799 50.4773 36.8443 50.4688 37.1265C50.5629 39.624 50.8538 45.1528 51.2643 47.2877C51.7775 49.9563 52.3493 52.0811 53.5621 55.1374C54.7749 58.1936 57.2005 62.2201 60.4023 66.0039Z" fill="url(#paint13_linear_18985_138966)"/>
<path d="M60.7326 65.3662C63.1818 68.2606 66.3917 70.2833 67.6905 70.9328C67.8727 70.9328 68.5169 70.7352 69.6357 69.9446C71.0343 68.9565 73.4632 66.6569 75.4751 64.5469C77.487 62.4368 80.235 58.1432 81.3636 55.616C82.4922 53.0889 84.0134 48.1573 84.3569 45.8019C84.7004 43.4465 84.6759 39.1774 84.6759 38.0733C84.6759 36.9692 83.8171 36.7239 83.0811 36.6012C82.345 36.4785 78.8855 35.7179 76.6528 35.252C74.4201 34.7862 69.8811 32.9701 69.0469 32.553C68.2127 32.1359 67.5748 32.1359 67.0595 32.2586C66.5443 32.3813 59.9198 34.8595 58.9874 35.252C58.0551 35.6446 53.5651 36.9447 52.412 36.9447C51.4894 36.9447 51.2425 37.4844 51.2344 37.7542C51.3244 40.1423 51.6025 45.4288 51.9951 47.4701C52.4858 50.0218 53.0326 52.0535 54.1922 54.9758C55.3518 57.8981 57.6711 61.7482 60.7326 65.3662Z" fill="url(#paint14_linear_18985_138966)"/>
<path fill-rule="evenodd" clip-rule="evenodd" d="M67.6887 70.9339C66.3898 70.2844 63.1799 68.2617 60.7308 65.3673C57.6693 61.7493 55.35 57.8992 54.1904 54.9769C53.9219 54.3003 53.6863 53.6715 53.4766 53.0729C53.9721 52.7603 54.4957 52.4301 55.0479 52.0821C61.2578 48.1681 63.3569 46.8999 69.4575 43.5109C73.6001 41.2097 79.9259 38.4092 83.7899 36.7812C84.2761 36.9692 84.6741 37.3228 84.6741 38.0744C84.6741 38.1348 84.6741 38.2048 84.6742 38.2834C84.6756 39.6403 84.6798 43.5766 84.3551 45.803C84.0116 48.1584 82.4904 53.09 81.3618 55.6171C80.2332 58.1443 77.4852 62.4379 75.4733 64.548C73.4614 66.658 71.0324 68.9575 69.6339 69.9457C68.5151 70.7363 67.8709 70.9339 67.6887 70.9339Z" fill="url(#paint15_radial_18985_138966)"/>
</g>
<defs>
<filter id="filter0_i_18985_138966" x="100.621" y="25.6172" width="27.5977" height="20.1016" filterUnits="userSpaceOnUse" color-interpolation-filters="sRGB">
<feFlood flood-opacity="0" result="BackgroundImageFix"/>
<feBlend mode="normal" in="SourceGraphic" in2="BackgroundImageFix" result="shape"/>
<feColorMatrix in="SourceAlpha" type="matrix" values="0 0 0 0 0 0 0 0 0 0 0 0 0 0 0 0 0 0 127 0" result="hardAlpha"/>
<feOffset dy="-2"/>
<feComposite in2="hardAlpha" operator="arithmetic" k2="-1" k3="1"/>
<feColorMatrix type="matrix" values="0 0 0 0 0.823529 0 0 0 0 0.458824 0 0 0 0 0.247059 0 0 0 1 0"/>
<feBlend mode="normal" in2="shape" result="effect1_innerShadow_18985_138966"/>
</filter>
<filter id="filter1_i_18985_138966" x="101.43" y="42.8906" width="25.8281" height="15.8984" filterUnits="userSpaceOnUse" color-interpolation-filters="sRGB">
<feFlood flood-opacity="0" result="BackgroundImageFix"/>
<feBlend mode="normal" in="SourceGraphic" in2="BackgroundImageFix" result="shape"/>
<feColorMatrix in="SourceAlpha" type="matrix" values="0 0 0 0 0 0 0 0 0 0 0 0 0 0 0 0 0 0 127 0" result="hardAlpha"/>
<feOffset dy="-1.75706"/>
<feComposite in2="hardAlpha" operator="arithmetic" k2="-1" k3="1"/>
<feColorMatrix type="matrix" values="0 0 0 0 0.823529 0 0 0 0 0.458824 0 0 0 0 0.247059 0 0 0 1 0"/>
<feBlend mode="normal" in2="shape" result="effect1_innerShadow_18985_138966"/>
</filter>
<filter id="filter2_i_18985_138966" x="101.555" y="58.1094" width="18.6016" height="9.9375" filterUnits="userSpaceOnUse" color-interpolation-filters="sRGB">
<feFlood flood-opacity="0" result="BackgroundImageFix"/>
<feBlend mode="normal" in="SourceGraphic" in2="BackgroundImageFix" result="shape"/>
<feColorMatrix in="SourceAlpha" type="matrix" values="0 0 0 0 0 0 0 0 0 0 0 0 0 0 0 0 0 0 127 0" result="hardAlpha"/>
<feOffset dy="-1.18945"/>
<feComposite in2="hardAlpha" operator="arithmetic" k2="-1" k3="1"/>
<feColorMatrix type="matrix" values="0 0 0 0 0.823529 0 0 0 0 0.458824 0 0 0 0 0.247059 0 0 0 1 0"/>
<feBlend mode="normal" in2="shape" result="effect1_innerShadow_18985_138966"/>
</filter>
<filter id="filter3_i_18985_138966" x="2.98828" y="25.5078" width="27.5977" height="20.1016" filterUnits="userSpaceOnUse" color-interpolation-filters="sRGB">
<feFlood flood-opacity="0" result="BackgroundImageFix"/>
<feBlend mode="normal" in="SourceGraphic" in2="BackgroundImageFix" result="shape"/>
<feColorMatrix in="SourceAlpha" type="matrix" values="0 0 0 0 0 0 0 0 0 0 0 0 0 0 0 0 0 0 127 0" result="hardAlpha"/>
<feOffset dy="-2"/>
<feComposite in2="hardAlpha" operator="arithmetic" k2="-1" k3="1"/>
<feColorMatrix type="matrix" values="0 0 0 0 0.823529 0 0 0 0 0.458824 0 0 0 0 0.247059 0 0 0 1 0"/>
<feBlend mode="normal" in2="shape" result="effect1_innerShadow_18985_138966"/>
</filter>
<filter id="filter4_i_18985_138966" x="3.78516" y="42.7812" width="25.8164" height="15.8984" filterUnits="userSpaceOnUse" color-interpolation-filters="sRGB">
<feFlood flood-opacity="0" result="BackgroundImageFix"/>
<feBlend mode="normal" in="SourceGraphic" in2="BackgroundImageFix" result="shape"/>
<feColorMatrix in="SourceAlpha" type="matrix" values="0 0 0 0 0 0 0 0 0 0 0 0 0 0 0 0 0 0 127 0" result="hardAlpha"/>
<feOffset dy="-1.75706"/>
<feComposite in2="hardAlpha" operator="arithmetic" k2="-1" k3="1"/>
<feColorMatrix type="matrix" values="0 0 0 0 0.823529 0 0 0 0 0.458824 0 0 0 0 0.247059 0 0 0 1 0"/>
<feBlend mode="normal" in2="shape" result="effect1_innerShadow_18985_138966"/>
</filter>
<filter id="filter5_i_18985_138966" x="10.8398" y="58.0078" width="18.582" height="9.9375" filterUnits="userSpaceOnUse" color-interpolation-filters="sRGB">
<feFlood flood-opacity="0" result="BackgroundImageFix"/>
<feBlend mode="normal" in="SourceGraphic" in2="BackgroundImageFix" result="shape"/>
<feColorMatrix in="SourceAlpha" type="matrix" values="0 0 0 0 0 0 0 0 0 0 0 0 0 0 0 0 0 0 127 0" result="hardAlpha"/>
<feOffset dy="-1.18945"/>
<feComposite in2="hardAlpha" operator="arithmetic" k2="-1" k3="1"/>
<feColorMatrix type="matrix" values="0 0 0 0 0.823529 0 0 0 0 0.458824 0 0 0 0 0.247059 0 0 0 1 0"/>
<feBlend mode="normal" in2="shape" result="effect1_innerShadow_18985_138966"/>
</filter>
<filter id="filter6_d_18985_138966" x="40.8945" y="20.1016" width="56.3398" height="64.2656" filterUnits="userSpaceOnUse" color-interpolation-filters="sRGB">
<feFlood flood-opacity="0" result="BackgroundImageFix"/>
<feColorMatrix in="SourceAlpha" type="matrix" values="0 0 0 0 0 0 0 0 0 0 0 0 0 0 0 0 0 0 127 0" result="hardAlpha"/>
<feOffset dx="1" dy="2"/>
<feGaussianBlur stdDeviation="3.5"/>
<feComposite in2="hardAlpha" operator="out"/>
<feColorMatrix type="matrix" values="0 0 0 0 0.392157 0 0 0 0 0.243137 0 0 0 0 0.568627 0 0 0 0.24 0"/>
<feBlend mode="normal" in2="BackgroundImageFix" result="effect1_dropShadow_18985_138966"/>
<feBlend mode="normal" in="SourceGraphic" in2="effect1_dropShadow_18985_138966" result="shape"/>
</filter>
<linearGradient id="paint0_linear_18985_138966" x1="117.534" y1="10.9034" x2="139.454" y2="48.4943" gradientUnits="userSpaceOnUse">
<stop offset="0.405" stop-color="#FFBD00"/>
<stop offset="0.4051" stop-color="#EB9E2D"/>
</linearGradient>
<linearGradient id="paint1_linear_18985_138966" x1="119.672" y1="29.3593" x2="134.85" y2="64.4173" gradientUnits="userSpaceOnUse">
<stop offset="0.405" stop-color="#FFBD00"/>
<stop offset="0.4051" stop-color="#EB9E2D"/>
</linearGradient>
<linearGradient id="paint2_linear_18985_138966" x1="116.695" y1="49.2816" x2="123.164" y2="74.3021" gradientUnits="userSpaceOnUse">
<stop offset="0.405" stop-color="#FFBD00"/>
<stop offset="0.4051" stop-color="#EB9E2D"/>
</linearGradient>
<linearGradient id="paint3_linear_18985_138966" x1="13.6733" y1="10.794" x2="-8.24707" y2="48.385" gradientUnits="userSpaceOnUse">
<stop offset="0.405" stop-color="#FFBD00"/>
<stop offset="0.4051" stop-color="#EB9E2D"/>
</linearGradient>
<linearGradient id="paint4_linear_18985_138966" x1="11.3873" y1="29.2475" x2="-3.80745" y2="64.3146" gradientUnits="userSpaceOnUse">
<stop offset="0.405" stop-color="#FFBD00"/>
<stop offset="0.4051" stop-color="#EB9E2D"/>
</linearGradient>
<linearGradient id="paint5_linear_18985_138966" x1="14.3221" y1="49.1672" x2="7.83336" y2="74.2056" gradientUnits="userSpaceOnUse">
<stop offset="0.405" stop-color="#FFBD00"/>
<stop offset="0.4051" stop-color="#EB9E2D"/>
</linearGradient>
<linearGradient id="paint6_linear_18985_138966" x1="26.3406" y1="4.0893" x2="95.8953" y2="96.3697" gradientUnits="userSpaceOnUse">
<stop offset="0.33" stop-color="#FCC84E"/>
<stop offset="0.3301" stop-color="#FEF04F"/>
<stop offset="0.45" stop-color="#FEF04F"/>
<stop offset="0.4501" stop-color="#FCC84E"/>
<stop offset="0.6149" stop-color="#FCC84E"/>
<stop offset="0.615" stop-color="#F59E1B"/>
<stop offset="0.72" stop-color="#F59E1B"/>
<stop offset="0.7201" stop-color="#FCC84E"/>
</linearGradient>
<linearGradient id="paint7_linear_18985_138966" x1="41.5837" y1="15.5527" x2="108.322" y2="87.0878" gradientUnits="userSpaceOnUse">
<stop offset="0.405" stop-color="#FFBD00"/>
<stop offset="0.4051" stop-color="#FAA300"/>
</linearGradient>
<linearGradient id="paint8_linear_18985_138966" x1="66.9507" y1="13" x2="66.9507" y2="82.7145" gradientUnits="userSpaceOnUse">
<stop offset="0.505" stop-color="white" stop-opacity="0"/>
<stop offset="1" stop-color="#FEF050"/>
</linearGradient>
<linearGradient id="paint9_linear_18985_138966" x1="68.1997" y1="2.10156" x2="68.1997" y2="105.002" gradientUnits="userSpaceOnUse">
<stop stop-color="#E2C5F3"/>
<stop offset="1" stop-color="#AFAEEA"/>
</linearGradient>
<linearGradient id="paint10_linear_18985_138966" x1="68.0639" y1="25.1016" x2="68.0639" y2="75.3657" gradientUnits="userSpaceOnUse">
<stop stop-color="#FFD85A"/>
<stop offset="1" stop-color="#F4BB3A"/>
</linearGradient>
<linearGradient id="paint11_linear_18985_138966" x1="79.9294" y1="31.139" x2="65.4593" y2="80.779" gradientUnits="userSpaceOnUse">
<stop stop-color="#DD9933"/>
<stop offset="0.495634" stop-color="#DF9C34"/>
<stop offset="1" stop-color="#F5BD3C"/>
</linearGradient>
<linearGradient id="paint12_linear_18985_138966" x1="51.619" y1="61.3737" x2="88.1538" y2="34.2433" gradientUnits="userSpaceOnUse">
<stop stop-color="#C38A46"/>
<stop offset="0.180514" stop-color="#E8B83C"/>
<stop offset="0.226362" stop-color="#FFF3AD"/>
<stop offset="0.821189" stop-color="#F6D645"/>
<stop offset="0.859714" stop-color="#E6A933"/>
<stop offset="1" stop-color="#E09C2C"/>
</linearGradient>
<linearGradient id="paint13_linear_18985_138966" x1="71.8597" y1="30.3265" x2="67.956" y2="74.0876" gradientUnits="userSpaceOnUse">
<stop stop-color="#B79ECA"/>
<stop offset="1" stop-color="#C36F79"/>
</linearGradient>
<linearGradient id="paint14_linear_18985_138966" x1="81.1829" y1="34.4651" x2="52.2128" y2="50.4888" gradientUnits="userSpaceOnUse">
<stop stop-color="#F5E292"/>
<stop offset="1" stop-color="#FED864"/>
</linearGradient>
<radialGradient id="paint15_radial_18985_138966" cx="0" cy="0" r="1" gradientUnits="userSpaceOnUse" gradientTransform="translate(57.5669 49.5391) rotate(52.5722) scale(29.7943 32.3037)">
<stop stop-color="#F8D56F"/>
<stop offset="1" stop-color="#DC9A35"/>
</radialGradient>
</defs>
</svg>
