<svg width="130" height="100" viewBox="0 0 130 100" fill="none" xmlns="http://www.w3.org/2000/svg">
<g filter="url(#filter0_i_18985_138888)">
<path d="M116.465 44.9721C109.992 48.6824 100.923 45.6508 100.841 45.0983C100.76 44.5458 101.02 35.1297 109.81 32.2787C114.209 30.852 121.224 30.7365 124.287 31.0024C128.416 31.4941 126.201 34.1533 124.774 36.5108C122.932 40.3527 122.939 41.2618 116.465 44.9721Z" fill="url(#paint0_linear_18985_138888)"/>
</g>
<path fill-rule="evenodd" clip-rule="evenodd" d="M126.525 32.0427C126.263 31.5313 125.591 31.1586 124.284 31.003C121.221 30.7371 114.207 30.8526 109.808 32.2793C107.031 33.1798 105.106 34.7354 103.773 36.4598C106.317 35.1051 110.653 33.7517 115.671 32.8715C119.853 32.138 123.704 31.8744 126.525 32.0427Z" fill="#FEF050"/>
<g filter="url(#filter1_i_18985_138888)">
<path d="M111.419 55.4727C106.696 57.2759 100.954 54.2992 100.958 53.9211C100.962 53.5431 102.136 47.2739 108.317 46.288C111.41 45.7946 116.113 46.4519 118.133 46.9504C120.842 47.7116 119.078 49.2578 117.874 50.6848C116.234 53.0609 116.142 53.6695 111.419 55.4727Z" fill="url(#paint1_linear_18985_138888)"/>
</g>
<path fill-rule="evenodd" clip-rule="evenodd" d="M119.523 47.879C119.402 47.5093 118.993 47.1897 118.135 46.9487C116.116 46.4502 111.413 45.7929 108.32 46.2863C106.367 46.5977 104.914 47.4362 103.84 48.4497C105.685 47.8104 108.728 47.3596 112.176 47.2965C115.051 47.2439 117.655 47.4709 119.523 47.879Z" fill="#FEF050"/>
<path d="M109.504 31.3047C106.877 32.1736 105.151 34.685 105.28 37.4485L106.036 53.6591C106.079 54.5848 106.842 55.313 107.769 55.313C108.727 55.313 109.504 54.5363 109.504 53.5782V31.3047Z" fill="#D2753F"/>
<g filter="url(#filter2_i_18985_138888)">
<path d="M13.3682 44.8634C19.8376 48.5746 28.908 45.5434 28.9903 44.9908C29.0726 44.4383 28.8216 35.0211 20.0343 32.1691C15.6373 30.742 8.62361 30.626 5.56075 30.8916C1.43125 31.3831 3.64378 34.0427 5.0683 36.4006C6.9064 40.243 6.89886 41.1522 13.3682 44.8634Z" fill="url(#paint2_linear_18985_138888)"/>
</g>
<path fill-rule="evenodd" clip-rule="evenodd" d="M3.31723 31.9326C3.57958 31.4209 4.25128 31.048 5.5585 30.8925C8.62135 30.6268 15.635 30.7429 20.0321 32.17C22.8083 33.071 24.7325 34.6274 26.0633 36.3525C23.5216 34.9973 19.1863 33.6431 14.1688 32.7624C9.98787 32.0285 6.13782 31.7645 3.31723 31.9326Z" fill="#FEF050"/>
<g filter="url(#filter3_i_18985_138888)">
<path d="M18.3587 55.3684C23.0759 57.1734 28.8203 54.1961 28.817 53.8179C28.8137 53.4397 27.6517 47.1671 21.4755 46.1795C18.385 45.6853 13.6834 46.3421 11.6636 46.8405C8.9545 47.6016 10.7146 49.1489 11.9159 50.5769C13.5505 52.9545 13.6415 53.5634 18.3587 55.3684Z" fill="url(#paint3_linear_18985_138888)"/>
</g>
<path fill-rule="evenodd" clip-rule="evenodd" d="M10.278 47.7714C10.3987 47.4009 10.8084 47.0806 11.6672 46.8393C13.687 46.341 18.3886 45.6842 21.4791 46.1784C23.4316 46.4906 24.883 47.331 25.9551 48.3463C24.1128 47.7057 21.0706 47.2537 17.622 47.1899C14.7486 47.1368 12.1462 47.3634 10.278 47.7714Z" fill="#FEF050"/>
<path d="M23.3008 32.9062C25.9249 33.7633 27.653 36.2681 27.5226 39.0256L26.7694 54.9575C26.7257 55.883 25.9626 56.6109 25.0361 56.6109C24.0777 56.6109 23.3008 55.834 23.3008 54.8756V32.9062Z" fill="#D2753F"/>
<path d="M52.0735 7.97119C58.9697 4.01123 62.4177 2.03125 66.204 2.03125C69.9902 2.03125 73.4383 4.01123 80.3344 7.97119L93.9338 15.7803C100.83 19.7403 104.278 21.7203 106.171 24.9815C108.064 28.2428 108.064 32.2028 108.064 40.1227V55.741C108.064 63.6609 108.064 67.6209 106.171 70.8821C104.278 74.1434 100.83 76.1234 93.9338 80.0833L80.3344 87.8925C73.4383 91.8524 69.9902 93.8324 66.204 93.8324C62.4177 93.8324 58.9697 91.8524 52.0735 87.8925L38.4742 80.0833C31.5781 76.1234 28.13 74.1434 26.2369 70.8821C24.3438 67.6209 24.3438 63.6609 24.3438 55.741V40.1227C24.3438 32.2028 24.3438 28.2428 26.2369 24.9815C28.13 21.7203 31.5781 19.7403 38.4742 15.7803L52.0735 7.97119Z" fill="url(#paint4_linear_18985_138888)"/>
<path fill-rule="evenodd" clip-rule="evenodd" d="M24.3438 55.7422V59.9766C24.3438 67.8965 24.3438 71.8565 26.2369 75.1177C28.13 78.379 31.5781 80.3589 38.4742 84.3189L52.0735 92.1281C58.9697 96.088 62.4177 98.068 66.204 98.068C69.9902 98.068 73.4383 96.088 80.3343 92.1281L80.3344 92.1281L93.9338 84.3189C100.83 80.3589 104.278 78.379 106.171 75.1177C108.064 71.8565 108.064 67.8965 108.064 59.9767V59.9766V55.7423C108.064 63.6621 108.064 67.6221 106.171 70.8833C104.278 74.1446 100.83 76.1246 93.9338 80.0845L80.3344 87.8937L80.3343 87.8937C73.4383 91.8536 69.9902 93.8336 66.204 93.8336C62.4177 93.8336 58.9697 91.8536 52.0735 87.8937L38.4742 80.0845C31.5781 76.1246 28.13 74.1446 26.2369 70.8833C24.3438 67.6221 24.3438 63.6621 24.3438 55.7422Z" fill="#D2753F"/>
<path d="M52.2615 18.899C59.1379 14.9663 62.5761 13 66.3491 13C70.1221 13 73.5603 14.9663 80.4367 18.899L84.5367 21.2438C91.4531 25.1994 94.9114 27.1772 96.8107 30.4426C98.71 33.7079 98.71 37.6755 98.71 45.6107V50.1037C98.71 58.039 98.71 62.0066 96.8107 65.2719C94.9114 68.5372 91.4531 70.515 84.5367 74.4706L80.4367 76.8154C73.5603 80.7481 70.1221 82.7145 66.3491 82.7145C62.5761 82.7145 59.1379 80.7481 52.2615 76.8155L48.1616 74.4706C41.2451 70.515 37.7869 68.5372 35.8876 65.2719C33.9883 62.0066 33.9883 58.039 33.9883 50.1037V45.6107C33.9883 37.6755 33.9883 33.7079 35.8876 30.4426C37.7869 27.1772 41.2451 25.1994 48.1616 21.2439L52.2615 18.899Z" fill="url(#paint5_linear_18985_138888)"/>
<path d="M52.2615 18.899C59.1379 14.9663 62.5761 13 66.3491 13C70.1221 13 73.5603 14.9663 80.4367 18.899L84.5367 21.2438C91.4531 25.1994 94.9114 27.1772 96.8107 30.4426C98.71 33.7079 98.71 37.6755 98.71 45.6107V50.1037C98.71 58.039 98.71 62.0066 96.8107 65.2719C94.9114 68.5372 91.4531 70.515 84.5367 74.4706L80.4367 76.8154C73.5603 80.7481 70.1221 82.7145 66.3491 82.7145C62.5761 82.7145 59.1379 80.7481 52.2615 76.8155L48.1616 74.4706C41.2451 70.515 37.7869 68.5372 35.8876 65.2719C33.9883 62.0066 33.9883 58.039 33.9883 50.1037V45.6107C33.9883 37.6755 33.9883 33.7079 35.8876 30.4426C37.7869 27.1772 41.2451 25.1994 48.1616 21.2439L52.2615 18.899Z" fill="url(#paint6_linear_18985_138888)" fill-opacity="0.8"/>
<path fill-rule="evenodd" clip-rule="evenodd" d="M66.3501 82.7187C70.1231 82.7187 73.5613 80.7524 80.4377 76.8197L84.5377 74.4749C91.4541 70.5193 94.9123 68.5415 96.8116 65.2762C98.7109 62.0109 98.7109 58.0433 98.7109 50.108L98.7109 48.6939C98.7109 56.6292 98.7109 60.5968 96.8116 63.8621C94.9123 67.1274 91.4541 69.1052 84.5377 73.0608L84.5377 73.0608L80.4377 75.4056C73.5613 79.3383 70.1231 81.3047 66.3501 81.3047C62.5771 81.3047 59.1389 79.3383 52.2625 75.4057L48.1625 73.0608C41.2461 69.1052 37.7879 67.1274 35.8886 63.8621C33.9892 60.5968 33.9892 56.6292 33.9892 48.6939L33.9892 50.108C33.9892 58.0433 33.9892 62.0109 35.8886 65.2762C37.7879 68.5415 41.2461 70.5193 48.1625 74.4749L52.2625 76.8197C59.1389 80.7524 62.5771 82.7187 66.3501 82.7187Z" fill="#FFF050"/>
<path fill-rule="evenodd" clip-rule="evenodd" d="M66.3491 13C62.5761 13 59.1379 14.9663 52.2615 18.899L48.1616 21.2439C41.2451 25.1994 37.7869 27.1772 35.8876 30.4426C33.9883 33.7079 33.9883 37.6755 33.9883 45.6107V50.1037C33.9883 58.039 33.9883 62.0066 35.8876 65.2719C36.2305 65.8615 36.6243 66.4092 37.0801 66.934C35.4023 63.7413 35.4023 59.7801 35.4023 52.1663V47.6732C35.4023 39.738 35.4023 35.7704 37.3016 32.5051C39.201 29.2397 42.6592 27.262 49.5756 23.3064L53.6756 20.9615C60.552 17.0288 63.9902 15.0625 67.7632 15.0625C71.5362 15.0625 74.9744 17.0288 81.8508 20.9615L85.9507 23.3063C91.6183 26.5477 94.9638 28.461 97.0322 30.8429C96.9614 30.7082 96.8876 30.5748 96.8107 30.4426C94.9114 27.1772 91.4531 25.1994 84.5367 21.2438L80.4367 18.899C73.5603 14.9663 70.1221 13 66.3491 13Z" fill="#D2753F"/>
<mask id="mask0_18985_138888" style="mask-type:alpha" maskUnits="userSpaceOnUse" x="36" y="14" width="63" height="69">
<path d="M53.8466 20.3254C60.4919 16.5199 63.8146 14.6172 67.4608 14.6172C71.107 14.6172 74.4296 16.5199 81.0749 20.3254L85.0371 22.5944C91.7211 26.422 95.0631 28.3358 96.8986 31.4955C98.7341 34.6552 98.7341 38.4945 98.7341 46.1731V50.5208C98.7341 58.1993 98.7341 62.0386 96.8986 65.1983C95.0631 68.358 91.7211 70.2718 85.0371 74.0995L81.0749 76.3684C74.4296 80.1739 71.107 82.0767 67.4608 82.0767C63.8146 82.0767 60.4919 80.1739 53.8467 76.3684L49.8845 74.0995C43.2005 70.2718 39.8585 68.358 38.023 65.1983C36.1875 62.0386 36.1875 58.1993 36.1875 50.5208V46.1731C36.1875 38.4945 36.1875 34.6552 38.023 31.4955C39.8585 28.3358 43.2005 26.422 49.8845 22.5944L53.8466 20.3254Z" fill="#D9D9D9"/>
</mask>
<g mask="url(#mask0_18985_138888)">
<rect x="-9.49219" y="-35.0234" width="152.351" height="156.282" fill="url(#paint7_linear_18985_138888)"/>
<path d="M61.4886 33.9925C61.8 35.3622 62.7597 38.4934 63.2006 39.8878L64.0242 40.3647L64.9461 38.8283L63.2006 30.9923L61.4886 21.8131L59.8739 21.0156C59.8544 22.1246 59.866 24.7083 60.0683 26.1713C60.3212 28.0002 61.0994 32.2804 61.4886 33.9925Z" fill="#C1731A"/>
<path fill-rule="evenodd" clip-rule="evenodd" d="M66.847 72.7641C76.1082 72.7641 83.6159 65.4016 83.6159 56.3195C83.6159 47.2375 76.1082 39.875 66.847 39.875C57.5858 39.875 50.0781 47.2375 50.0781 56.3195C50.0781 65.4016 57.5858 72.7641 66.847 72.7641ZM67.1516 44.7681C68.9676 44.7681 70.4399 43.9211 70.4399 42.8762C70.4399 41.8314 68.9676 40.9844 67.1516 40.9844C65.3355 40.9844 63.8633 41.8314 63.8633 42.8762C63.8633 43.9211 65.3355 44.7681 67.1516 44.7681Z" fill="#FEF5D4"/>
<path d="M51.073 52.1807C50.2742 52.58 49.4697 53.4968 49.1673 53.9053L48.668 56.5825L49.1673 60.213L52.1169 58.8062L58.9693 56.5825C58.9693 56.2044 58.8332 55.3754 58.2886 55.085C57.6079 54.7219 56.7911 54.3589 56.2465 53.9053C55.7019 53.4517 55.112 52.7253 54.4313 52.1807C53.7506 51.636 52.0715 51.6815 51.073 52.1807Z" fill="#FEECB3"/>
<path d="M81.4336 50.5024C82.305 50.7201 83.4606 51.8639 83.9295 52.4086L84.4287 54.7231L84.1111 58.4897L74.082 61.7117L51.3464 64.5706L49.8943 62.8462L48.9414 59.5334C49.259 59.2914 50.1031 58.7438 50.9381 58.4897C51.9818 58.172 52.6626 57.8543 55.93 55.6307C59.1974 53.4071 60.4226 53.8609 61.5118 53.9516C62.6009 54.0424 63.7807 53.8609 64.4614 53.4978C65.1421 53.1348 66.0043 52.7263 66.685 52.7263C67.3657 52.7263 68.0465 52.7263 68.4549 53.044C68.8633 53.3617 69.544 53.4978 70.4063 53.4978C71.2685 53.4978 71.0869 53.1348 71.6768 52.7263C72.2667 52.3179 74.4904 51.3193 75.6703 50.8201C76.8502 50.3209 80.3445 50.2301 81.4336 50.5024Z" fill="#F8C856"/>
<path d="M81.6129 56.7224C82.4117 56.7223 84.0029 57.4485 84.6986 57.8117L83.3824 62.8036L80.6141 66.9332L71.4927 67.2962L56.6079 70.4728L53.3405 67.75L50.527 64.0288L49.2109 60.9883C50.1034 61.0791 52.2515 61.2697 53.7036 61.306C55.5189 61.3514 57.5157 59.7631 58.741 57.8117C59.9663 55.8602 61.3277 54.6802 62.3715 54.6348C63.4152 54.5895 64.232 55.3158 64.7766 55.9057C65.3212 56.4957 67.7264 58.3109 69.587 59.3092C71.4476 60.3076 73.535 59.99 76.031 58.5378C78.5269 57.0856 80.6144 56.7226 81.6129 56.7224Z" fill="#EBA51D"/>
<path d="M57.8778 65.0695C55.4817 65.2872 53.8541 66.6429 53.3398 67.2935L54.4742 69.1989L58.7854 71.9217L64.1856 73.6462H69.2682L73.0348 72.7386L77.8905 70.0611L81.1579 66.2946C80.9613 66.0525 80.3774 65.4233 79.615 64.8424C78.662 64.1163 76.3022 62.8459 75.2585 62.7551C74.2147 62.6644 73.0348 63.7989 72.0818 64.3434C71.1288 64.888 69.7674 64.3888 68.2699 64.3434C66.7723 64.298 65.0933 64.7974 62.915 65.0695C60.7367 65.3416 60.8729 64.7974 57.8778 65.0695Z" fill="#EFAE1A"/>
<path fill-rule="evenodd" clip-rule="evenodd" d="M66.8459 74.5493C77.2348 74.5493 85.6567 66.3885 85.6567 56.3215C85.6567 46.2546 77.2348 38.0938 66.8459 38.0938C56.457 38.0938 48.0352 46.2546 48.0352 56.3215C48.0352 66.3885 56.457 74.5493 66.8459 74.5493ZM66.847 72.7641C76.1082 72.7641 83.6159 65.4016 83.6159 56.3195C83.6159 47.2375 76.1082 39.875 66.847 39.875C57.5858 39.875 50.0781 47.2375 50.0781 56.3195C50.0781 65.4016 57.5858 72.7641 66.847 72.7641Z" fill="url(#paint8_linear_18985_138888)"/>
<path fill-rule="evenodd" clip-rule="evenodd" d="M66.844 73.1644C76.3279 73.1644 84.0162 65.6249 84.0162 56.3244C84.0162 47.0239 76.3279 39.4844 66.844 39.4844C57.3601 39.4844 49.6719 47.0239 49.6719 56.3244C49.6719 65.6249 57.3601 73.1644 66.844 73.1644ZM66.8431 72.7719C76.1043 72.7719 83.612 65.4094 83.612 56.3274C83.612 47.2453 76.1043 39.8828 66.8431 39.8828C57.5819 39.8828 50.0742 47.2453 50.0742 56.3274C50.0742 65.4094 57.5819 72.7719 66.8431 72.7719Z" fill="url(#paint9_linear_18985_138888)"/>
<path d="M72.921 20.8594H62.5005L62.2109 22.3375L65.0347 36.3645L66.9172 42.4712H67.5141L69.0982 39.4408L70.0854 35.3085L72.45 26.1025L72.921 20.8594Z" fill="url(#paint10_linear_18985_138888)"/>
<path d="M67.4477 43.1121C67.289 43.101 67.1509 43.0337 67.1017 43.0014L66.957 42.3197C67.1206 42.2911 67.4972 42.124 67.695 41.6847C67.9423 41.1355 68.5531 38.7327 68.8106 37.8231C69.068 36.9135 69.2911 35.9009 69.7888 33.7728C70.3895 31.6789 70.9298 28.684 71.5926 25.8322C72.1228 23.5508 72.5186 21.5752 72.6465 20.8591C73.344 20.8534 74.8172 20.8453 75.1467 20.8591C75.4762 20.8728 75.5326 21.124 75.5211 21.2613C75.3609 22.3082 74.9445 24.9272 74.56 27.0279C74.0795 29.6538 73.0301 32.7708 72.4069 34.694C71.7838 36.6173 70.7913 39.0484 70.399 39.71C70.0066 40.3716 68.4948 42.5401 68.195 42.8307C67.8952 43.1213 67.6461 43.1259 67.4477 43.1121Z" fill="url(#paint11_linear_18985_138888)"/>
<path d="M65.1127 41.0726C65.7204 41.8088 66.6908 42.6718 67.1 43.0112C67.1988 43.0932 67.2094 42.2665 67.1 41.8902C66.9632 41.4198 66.4815 40.1775 66.384 39.3491C66.2866 38.5207 65.2389 33.2822 64.3618 27.8002C63.6601 23.4145 62.9001 21.3457 62.6079 20.8595C61.9828 20.8611 60.6368 20.8634 60.253 20.8595C59.8692 20.8555 59.8272 21.002 59.8542 21.0758C60.5608 24.1944 62.0373 30.6947 62.2907 31.7473C62.6075 33.063 64.3531 40.1524 65.1127 41.0726Z" fill="url(#paint12_linear_18985_138888)"/>
</g>
<defs>
<filter id="filter0_i_18985_138888" x="100.832" y="30.8906" width="25.8281" height="15.8984" filterUnits="userSpaceOnUse" color-interpolation-filters="sRGB">
<feFlood flood-opacity="0" result="BackgroundImageFix"/>
<feBlend mode="normal" in="SourceGraphic" in2="BackgroundImageFix" result="shape"/>
<feColorMatrix in="SourceAlpha" type="matrix" values="0 0 0 0 0 0 0 0 0 0 0 0 0 0 0 0 0 0 127 0" result="hardAlpha"/>
<feOffset dy="-1.75706"/>
<feComposite in2="hardAlpha" operator="arithmetic" k2="-1" k3="1"/>
<feColorMatrix type="matrix" values="0 0 0 0 0.823529 0 0 0 0 0.458824 0 0 0 0 0.247059 0 0 0 1 0"/>
<feBlend mode="normal" in2="shape" result="effect1_innerShadow_18985_138888"/>
</filter>
<filter id="filter1_i_18985_138888" x="100.957" y="46.1094" width="18.6016" height="9.9375" filterUnits="userSpaceOnUse" color-interpolation-filters="sRGB">
<feFlood flood-opacity="0" result="BackgroundImageFix"/>
<feBlend mode="normal" in="SourceGraphic" in2="BackgroundImageFix" result="shape"/>
<feColorMatrix in="SourceAlpha" type="matrix" values="0 0 0 0 0 0 0 0 0 0 0 0 0 0 0 0 0 0 127 0" result="hardAlpha"/>
<feOffset dy="-1.18945"/>
<feComposite in2="hardAlpha" operator="arithmetic" k2="-1" k3="1"/>
<feColorMatrix type="matrix" values="0 0 0 0 0.823529 0 0 0 0 0.458824 0 0 0 0 0.247059 0 0 0 1 0"/>
<feBlend mode="normal" in2="shape" result="effect1_innerShadow_18985_138888"/>
</filter>
<filter id="filter2_i_18985_138888" x="3.18359" y="30.7812" width="25.8164" height="15.8984" filterUnits="userSpaceOnUse" color-interpolation-filters="sRGB">
<feFlood flood-opacity="0" result="BackgroundImageFix"/>
<feBlend mode="normal" in="SourceGraphic" in2="BackgroundImageFix" result="shape"/>
<feColorMatrix in="SourceAlpha" type="matrix" values="0 0 0 0 0 0 0 0 0 0 0 0 0 0 0 0 0 0 127 0" result="hardAlpha"/>
<feOffset dy="-1.75706"/>
<feComposite in2="hardAlpha" operator="arithmetic" k2="-1" k3="1"/>
<feColorMatrix type="matrix" values="0 0 0 0 0.823529 0 0 0 0 0.458824 0 0 0 0 0.247059 0 0 0 1 0"/>
<feBlend mode="normal" in2="shape" result="effect1_innerShadow_18985_138888"/>
</filter>
<filter id="filter3_i_18985_138888" x="10.2344" y="46.0078" width="18.582" height="9.9375" filterUnits="userSpaceOnUse" color-interpolation-filters="sRGB">
<feFlood flood-opacity="0" result="BackgroundImageFix"/>
<feBlend mode="normal" in="SourceGraphic" in2="BackgroundImageFix" result="shape"/>
<feColorMatrix in="SourceAlpha" type="matrix" values="0 0 0 0 0 0 0 0 0 0 0 0 0 0 0 0 0 0 127 0" result="hardAlpha"/>
<feOffset dy="-1.18945"/>
<feComposite in2="hardAlpha" operator="arithmetic" k2="-1" k3="1"/>
<feColorMatrix type="matrix" values="0 0 0 0 0.823529 0 0 0 0 0.458824 0 0 0 0 0.247059 0 0 0 1 0"/>
<feBlend mode="normal" in2="shape" result="effect1_innerShadow_18985_138888"/>
</filter>
<linearGradient id="paint0_linear_18985_138888" x1="119.074" y1="17.3593" x2="134.253" y2="52.4173" gradientUnits="userSpaceOnUse">
<stop offset="0.405" stop-color="#FFBD00"/>
<stop offset="0.4051" stop-color="#EB9E2D"/>
</linearGradient>
<linearGradient id="paint1_linear_18985_138888" x1="116.097" y1="37.2816" x2="122.567" y2="62.3021" gradientUnits="userSpaceOnUse">
<stop offset="0.405" stop-color="#FFBD00"/>
<stop offset="0.4051" stop-color="#EB9E2D"/>
</linearGradient>
<linearGradient id="paint2_linear_18985_138888" x1="10.7857" y1="17.2475" x2="-4.40902" y2="52.3146" gradientUnits="userSpaceOnUse">
<stop offset="0.405" stop-color="#FFBD00"/>
<stop offset="0.4051" stop-color="#EB9E2D"/>
</linearGradient>
<linearGradient id="paint3_linear_18985_138888" x1="13.7166" y1="37.1672" x2="7.22789" y2="62.2056" gradientUnits="userSpaceOnUse">
<stop offset="0.405" stop-color="#FFBD00"/>
<stop offset="0.4051" stop-color="#EB9E2D"/>
</linearGradient>
<linearGradient id="paint4_linear_18985_138888" x1="25.739" y1="4.0893" x2="95.2938" y2="96.3697" gradientUnits="userSpaceOnUse">
<stop offset="0.33" stop-color="#FCC84E"/>
<stop offset="0.3301" stop-color="#FEF04F"/>
<stop offset="0.45" stop-color="#FEF04F"/>
<stop offset="0.4501" stop-color="#FCC84E"/>
<stop offset="0.6149" stop-color="#FCC84E"/>
<stop offset="0.615" stop-color="#F59E1B"/>
<stop offset="0.72" stop-color="#F59E1B"/>
<stop offset="0.7201" stop-color="#FCC84E"/>
</linearGradient>
<linearGradient id="paint5_linear_18985_138888" x1="40.9822" y1="15.5527" x2="107.72" y2="87.0878" gradientUnits="userSpaceOnUse">
<stop offset="0.405" stop-color="#FFBD00"/>
<stop offset="0.4051" stop-color="#FAA300"/>
</linearGradient>
<linearGradient id="paint6_linear_18985_138888" x1="66.3491" y1="13" x2="66.3491" y2="82.7145" gradientUnits="userSpaceOnUse">
<stop offset="0.505" stop-color="white" stop-opacity="0"/>
<stop offset="1" stop-color="#FEF050"/>
</linearGradient>
<linearGradient id="paint7_linear_18985_138888" x1="66.6833" y1="-0.376039" x2="66.6833" y2="101.505" gradientUnits="userSpaceOnUse">
<stop stop-color="#B0BEF0"/>
<stop offset="1" stop-color="#AEB1FF"/>
</linearGradient>
<linearGradient id="paint8_linear_18985_138888" x1="59.5414" y1="35.145" x2="70.7645" y2="78.687" gradientUnits="userSpaceOnUse">
<stop stop-color="#EAB94A"/>
<stop offset="0.366985" stop-color="#DD901C"/>
<stop offset="0.737855" stop-color="#F9CC5A"/>
<stop offset="1" stop-color="#D9721A"/>
</linearGradient>
<linearGradient id="paint9_linear_18985_138888" x1="57.9729" y1="39.4844" x2="74.8134" y2="76.0918" gradientUnits="userSpaceOnUse">
<stop stop-color="#C0811F"/>
<stop offset="1" stop-color="#FFF384"/>
</linearGradient>
<linearGradient id="paint10_linear_18985_138888" x1="67.566" y1="20.8594" x2="67.566" y2="42.4712" gradientUnits="userSpaceOnUse">
<stop stop-color="#C9A4F1"/>
<stop offset="0.0843265" stop-color="#CEA0F0"/>
<stop offset="0.12363" stop-color="#9352D6"/>
<stop offset="0.64839" stop-color="#733EBF"/>
<stop offset="0.693005" stop-color="#4827AA"/>
<stop offset="1" stop-color="#502DA5"/>
</linearGradient>
<linearGradient id="paint11_linear_18985_138888" x1="74.4356" y1="20.2922" x2="66.957" y2="44.107" gradientUnits="userSpaceOnUse">
<stop stop-color="#FFF2B0"/>
<stop offset="0.213422" stop-color="#F4B541"/>
<stop offset="0.371351" stop-color="#FCED9D"/>
<stop offset="0.765932" stop-color="#E99A29"/>
<stop offset="1" stop-color="#E49622"/>
</linearGradient>
<linearGradient id="paint12_linear_18985_138888" x1="60.898" y1="19.6004" x2="66.7731" y2="43.7017" gradientUnits="userSpaceOnUse">
<stop stop-color="#F4B33E"/>
<stop offset="0.308391" stop-color="#FBDA72"/>
<stop offset="0.478985" stop-color="#F2B13D"/>
<stop offset="0.606714" stop-color="#F7BF46"/>
<stop offset="1" stop-color="#E08D20"/>
</linearGradient>
</defs>
</svg>
