<svg width="121" height="126" viewBox="0 0 121 126" fill="none" xmlns="http://www.w3.org/2000/svg">
<path d="M56.668 5.3094C59.1432 3.88034 62.1928 3.88034 64.668 5.3094L108.629 30.6906C111.105 32.1197 112.629 34.7607 112.629 37.6188V88.3812C112.629 91.2393 111.105 93.8803 108.629 95.3094L64.668 120.691C62.1928 122.12 59.1432 122.12 56.668 120.691L12.7064 95.3094C10.2312 93.8803 8.70644 91.2393 8.70644 88.3812V37.6188C8.70644 34.7607 10.2312 32.1197 12.7064 30.6906L56.668 5.3094Z" fill="#D9D9D9"/>
<path d="M56.668 5.3094C59.1432 3.88034 62.1928 3.88034 64.668 5.3094L108.629 30.6906C111.105 32.1197 112.629 34.7607 112.629 37.6188V88.3812C112.629 91.2393 111.105 93.8803 108.629 95.3094L64.668 120.691C62.1928 122.12 59.1432 122.12 56.668 120.691L12.7064 95.3094C10.2312 93.8803 8.70644 91.2393 8.70644 88.3812V37.6188C8.70644 34.7607 10.2312 32.1197 12.7064 30.6906L56.668 5.3094Z" fill="url(#paint0_linear_23295_167002)"/>
<path d="M56.668 5.3094C59.1432 3.88034 62.1928 3.88034 64.668 5.3094L108.629 30.6906C111.105 32.1197 112.629 34.7607 112.629 37.6188V88.3812C112.629 91.2393 111.105 93.8803 108.629 95.3094L64.668 120.691C62.1928 122.12 59.1432 122.12 56.668 120.691L12.7064 95.3094C10.2312 93.8803 8.70644 91.2393 8.70644 88.3812V37.6188C8.70644 34.7607 10.2312 32.1197 12.7064 30.6906L56.668 5.3094Z" stroke="black" stroke-width="8"/>
<path d="M56.668 5.3094C59.1432 3.88034 62.1928 3.88034 64.668 5.3094L108.629 30.6906C111.105 32.1197 112.629 34.7607 112.629 37.6188V88.3812C112.629 91.2393 111.105 93.8803 108.629 95.3094L64.668 120.691C62.1928 122.12 59.1432 122.12 56.668 120.691L12.7064 95.3094C10.2312 93.8803 8.70644 91.2393 8.70644 88.3812V37.6188C8.70644 34.7607 10.2312 32.1197 12.7064 30.6906L56.668 5.3094Z" stroke="url(#paint1_linear_23295_167002)" stroke-width="8"/>
<path d="M60.6494 42.9987C60.316 43.0232 59.9966 43.1429 59.7293 43.3437C59.462 43.5445 59.258 43.8178 59.1416 44.1312L54.5325 56.3583L41.4495 56.7533C41.0947 56.7673 40.7527 56.8892 40.469 57.1027C40.1853 57.3162 39.9736 57.6112 39.8619 57.9482C39.7503 58.2853 39.7441 58.6483 39.8443 58.9889C39.9444 59.3296 40.1461 59.6315 40.4224 59.8545L50.6083 68.0454L46.9606 80.5951C46.8618 80.9376 46.8703 81.3021 46.9849 81.6396C47.0994 81.9771 47.3146 82.2714 47.6014 82.4829C47.8883 82.6945 48.233 82.8131 48.5893 82.8229C48.9456 82.8326 49.2963 82.733 49.5943 82.5375L60.5111 75.3606L71.3291 82.7153C71.6242 82.9144 71.9731 83.0185 72.329 83.0136C72.6849 83.0088 73.0308 82.8952 73.3203 82.6881C73.6098 82.481 73.829 82.1903 73.9486 81.855C74.0682 81.5198 74.0823 81.156 73.9892 80.8124L70.5588 68.1903L80.883 60.1903C81.1665 59.973 81.3765 59.6739 81.4846 59.3334C81.5927 58.9929 81.5937 58.6275 81.4874 58.2864C81.3812 57.9454 81.1728 57.6451 80.8904 57.4263C80.608 57.2075 80.2653 57.0806 79.9085 57.0628L66.8321 56.457L62.4074 44.1444C62.2794 43.7873 62.0386 43.4817 61.7214 43.2738C61.4041 43.0659 61.0278 42.9736 60.6494 42.9987Z" fill="#FEAA2B"/>
<defs>
<linearGradient id="paint0_linear_23295_167002" x1="60.668" y1="3" x2="60.668" y2="123" gradientUnits="userSpaceOnUse">
<stop stop-color="#F4FAFF"/>
<stop offset="1" stop-color="#C4D4FF"/>
</linearGradient>
<linearGradient id="paint1_linear_23295_167002" x1="2.66791" y1="5.69022" x2="90.9689" y2="134.149" gradientUnits="userSpaceOnUse">
<stop offset="0.33" stop-color="#FCC84E"/>
<stop offset="0.3301" stop-color="#FEF04F"/>
<stop offset="0.45" stop-color="#FEF04F"/>
<stop offset="0.4501" stop-color="#FCC84E"/>
<stop offset="0.6149" stop-color="#FCC84E"/>
<stop offset="0.615" stop-color="#F59E1B"/>
<stop offset="0.72" stop-color="#F59E1B"/>
<stop offset="0.7201" stop-color="#FCC84E"/>
</linearGradient>
</defs>
</svg>
