<svg width="160" height="126" viewBox="0 0 160 126" fill="none" xmlns="http://www.w3.org/2000/svg">
<path d="M10.5078 53.8242L25.6805 55.9738L24.5226 64.147L15.5576 62.8769C12.9763 61.8516 10.2329 56.2895 10.5078 53.8242Z" fill="#AFAFAF"/>
<path d="M14.8945 64.9102L28.6496 66.8589L27.5999 74.2685L19.4725 73.117C17.1324 72.1876 14.6453 67.1451 14.8945 64.9102Z" fill="#AFAFAF"/>
<path d="M17.9648 75.0352L30.7791 76.8506L29.8012 83.7534L22.2297 82.6807C20.0496 81.8148 17.7327 77.1173 17.9648 75.0352Z" fill="#AFAFAF"/>
<path d="M5.88281 38.5977L28.5239 41.8053L26.7961 54.0015L13.4183 52.1063C9.56632 50.5764 5.47257 42.2765 5.88281 38.5977Z" fill="#AFAFAF"/>
<path d="M148.824 53.8242L133.652 55.9738L134.809 64.147L143.774 62.8769C146.356 61.8516 149.099 56.2895 148.824 53.8242Z" fill="#AFAFAF"/>
<path d="M144.438 64.9102L130.682 66.8589L131.732 74.2685L139.859 73.117C142.2 72.1876 144.687 67.1451 144.438 64.9102Z" fill="#AFAFAF"/>
<path d="M141.367 75.0352L128.553 76.8506L129.531 83.7534L137.102 82.6807C139.282 81.8148 141.599 77.1173 141.367 75.0352Z" fill="#AFAFAF"/>
<path d="M153.449 38.5977L130.808 41.8053L132.536 54.0015L145.914 52.1063C149.766 50.5764 153.859 42.2765 153.449 38.5977Z" fill="#AFAFAF"/>
<path d="M75.668 5.3094C78.1432 3.88034 81.1928 3.88034 83.668 5.3094L127.629 30.6906C130.105 32.1197 131.629 34.7607 131.629 37.6188V88.3812C131.629 91.2393 130.105 93.8803 127.629 95.3094L83.668 120.691C81.1928 122.12 78.1432 122.12 75.668 120.691L31.7064 95.3094C29.2312 93.8803 27.7064 91.2393 27.7064 88.3812V37.6188C27.7064 34.7607 29.2312 32.1197 31.7064 30.6906L75.668 5.3094Z" fill="#F1F1F1" stroke="#AFAFAF" stroke-width="8"/>
<path d="M77.1875 52.6875L78.125 39.5625H81.875L82.8125 52.6875H77.1875Z" fill="#B2B2B2"/>
<path d="M74.547 56.4375L72.1602 82.6875H87.9477L85.4483 56.4375H74.547Z" fill="#B8B8B8"/>
<path d="M73.2012 71.2284C78.3902 70.2281 82.3109 65.6681 82.3109 60.1875C82.3109 58.8703 82.0727 57.6122 81.6574 56.4375H74.5455L73.2012 71.2284Z" fill="#D2D2D2"/>
<path d="M80 62.0625C81.5533 62.0625 82.8125 60.8033 82.8125 59.25C82.8125 57.6967 81.5533 56.4375 80 56.4375C78.4467 56.4375 77.1875 57.6967 77.1875 59.25C77.1875 60.8033 78.4467 62.0625 80 62.0625Z" fill="#8C8C8C"/>
<path d="M90.3125 57.375L95.9375 58.3125V52.6875L90.3125 53.625V57.375ZM69.6875 57.375L64.0625 58.3125V52.6875L69.6875 53.625V57.375Z" fill="#B5B5B5"/>
<path d="M90.3125 58.3125V52.6875H69.6875V58.3125H74.375L77.1875 56.4375H82.8125L85.625 58.3125H90.3125Z" fill="#9D9D9D"/>
<path d="M80 40.5C81.5533 40.5 82.8125 39.2408 82.8125 37.6875C82.8125 36.1342 81.5533 34.875 80 34.875C78.4467 34.875 77.1875 36.1342 77.1875 37.6875C77.1875 39.2408 78.4467 40.5 80 40.5Z" fill="#6B6B6B"/>
<path d="M57.5 46.125C57.5 44.6332 58.0926 43.2024 59.1475 42.1475C60.2024 41.0926 61.6332 40.5 63.125 40.5C61.6332 40.5 60.2024 39.9074 59.1475 38.8525C58.0926 37.7976 57.5 36.3668 57.5 34.875C57.5 36.3668 56.9074 37.7976 55.8525 38.8525C54.7976 39.9074 53.3668 40.5 51.875 40.5C53.3668 40.5 54.7976 41.0926 55.8525 42.1475C56.9074 43.2024 57.5 44.6332 57.5 46.125ZM102.5 53.625C102.5 52.1332 103.093 50.7024 104.148 49.6475C105.202 48.5926 106.633 48 108.125 48C106.633 48 105.202 47.4074 104.148 46.3525C103.093 45.2976 102.5 43.8668 102.5 42.375C102.5 43.8668 101.907 45.2976 100.852 46.3525C99.7976 47.4074 98.3668 48 96.875 48C98.3668 48 99.7976 48.5926 100.852 49.6475C101.907 50.7024 102.5 52.1332 102.5 53.625Z" fill="#818181"/>
<path d="M85.625 82.6875H94.0625L98.75 77.0625L108.125 84.5625V91.125H51.875L61.25 81.75L68.75 80.8125L80 75.1875L82.8125 80.8125L90.4212 86.0231L90.3125 91.125" fill="#747474"/>
<path d="M68.4041 91.1264C70.7566 89.5444 72.712 87.4405 74.118 84.9787C75.5239 82.5169 76.3424 79.7637 76.5097 76.9336L68.75 80.8139L61.25 81.7514L51.875 91.1264H68.4041Z" fill="#B0B0B0"/>
</svg>
