<svg width="152" height="126" viewBox="0 0 152 126" fill="none" xmlns="http://www.w3.org/2000/svg">
<path d="M2.21484 55.2969L24.8559 58.5045L23.1281 70.7008L9.75031 68.8055C5.89835 67.2756 1.8046 58.9757 2.21484 55.2969Z" fill="#EFA628"/>
<path d="M149.781 55.2969L127.14 58.5045L128.868 70.7008L142.246 68.8055C146.098 67.2756 150.191 58.9757 149.781 55.2969Z" fill="#EFA628"/>
<path d="M71.9922 5.3094C74.4674 3.88034 77.517 3.88034 79.9922 5.3094L123.954 30.6906C126.429 32.1197 127.954 34.7607 127.954 37.6188V88.3812C127.954 91.2393 126.429 93.8803 123.954 95.3094L79.9922 120.691C77.517 122.12 74.4674 122.12 71.9922 120.691L28.0307 95.3094C25.5555 93.8803 24.0307 91.2393 24.0307 88.3812V37.6188C24.0307 34.7607 25.5555 32.1197 28.0307 30.6906L71.9922 5.3094Z" fill="#D9D9D9"/>
<path d="M71.9922 5.3094C74.4674 3.88034 77.517 3.88034 79.9922 5.3094L123.954 30.6906C126.429 32.1197 127.954 34.7607 127.954 37.6188V88.3812C127.954 91.2393 126.429 93.8803 123.954 95.3094L79.9922 120.691C77.517 122.12 74.4674 122.12 71.9922 120.691L28.0307 95.3094C25.5555 93.8803 24.0307 91.2393 24.0307 88.3812V37.6188C24.0307 34.7607 25.5555 32.1197 28.0307 30.6906L71.9922 5.3094Z" fill="url(#paint0_linear_23295_167176)"/>
<path d="M71.9922 5.3094C74.4674 3.88034 77.517 3.88034 79.9922 5.3094L123.954 30.6906C126.429 32.1197 127.954 34.7607 127.954 37.6188V88.3812C127.954 91.2393 126.429 93.8803 123.954 95.3094L79.9922 120.691C77.517 122.12 74.4674 122.12 71.9922 120.691L28.0307 95.3094C25.5555 93.8803 24.0307 91.2393 24.0307 88.3812V37.6188C24.0307 34.7607 25.5555 32.1197 28.0307 30.6906L71.9922 5.3094Z" stroke="black" stroke-width="8"/>
<path d="M71.9922 5.3094C74.4674 3.88034 77.517 3.88034 79.9922 5.3094L123.954 30.6906C126.429 32.1197 127.954 34.7607 127.954 37.6188V88.3812C127.954 91.2393 126.429 93.8803 123.954 95.3094L79.9922 120.691C77.517 122.12 74.4674 122.12 71.9922 120.691L28.0307 95.3094C25.5555 93.8803 24.0307 91.2393 24.0307 88.3812V37.6188C24.0307 34.7607 25.5555 32.1197 28.0307 30.6906L71.9922 5.3094Z" stroke="url(#paint1_linear_23295_167176)" stroke-width="8"/>
<path d="M69.7656 48.5234L79.4553 58.2135L73.2092 64.4594L63.5195 54.7694L69.7656 48.5234Z" fill="#717F88"/>
<path d="M65.9336 52.3555L75.6233 62.0455L73.2087 64.46L63.519 54.77L65.9336 52.3555Z" fill="#5D6970"/>
<path d="M78.6574 55.4003L105.53 82.2724C107.839 84.5819 107.806 88.3609 105.429 90.6279C103.122 92.828 99.4502 92.7073 97.1954 90.4525L70.4001 63.6573C70.308 63.5651 70.2348 63.4558 70.1849 63.3354C70.1351 63.215 70.1094 63.0859 70.1094 62.9556C70.1094 62.8253 70.1351 62.6963 70.1849 62.5759C70.2348 62.4555 70.308 62.3461 70.4001 62.254L70.7041 61.95L76.95 55.7041L77.254 55.4001C77.3461 55.3079 77.4555 55.2348 77.5759 55.1849C77.6963 55.135 77.8254 55.1094 77.9557 55.1094C78.086 55.1094 78.2151 55.1351 78.3355 55.185C78.4559 55.2349 78.5653 55.3081 78.6574 55.4003Z" fill="#B58058"/>
<path d="M99.5018 88.1478L72.7066 61.3526C72.6144 61.2605 72.5413 61.1511 72.4914 61.0307C72.4415 60.9103 72.4158 60.7813 72.4158 60.6509C72.4158 60.5206 72.4415 60.3915 72.4914 60.2711C72.5413 60.1507 72.6144 60.0413 72.7066 59.9492L70.7041 61.9517L70.4001 62.2556C70.308 62.3478 70.2348 62.4572 70.1849 62.5776C70.1351 62.698 70.1094 62.827 70.1094 62.9573C70.1094 63.0877 70.1351 63.2167 70.1849 63.3371C70.2348 63.4575 70.308 63.5669 70.4001 63.6591L97.1953 90.4542C99.45 92.7091 103.122 92.8297 105.429 90.6296C105.865 90.2148 106.234 89.7349 106.523 89.2071C104.279 90.4276 101.393 90.0386 99.5018 88.1478Z" fill="#8E6047"/>
<path d="M86.9034 33.8636C81.1946 36.3979 74.7531 42.2613 72.3831 46.3625L65.9722 49.9495L61.9023 47.1006L65.3363 39.3105L65.339 39.3078C66.3123 38.3329 67.2864 37.3589 68.2612 36.3855C73.0668 31.5803 80.6763 30.2059 86.9034 33.8636Z" fill="#717F88"/>
<path d="M86.9048 33.8603C81.196 36.3946 74.7545 42.258 72.3844 46.3592L70.1541 44.1288L69.7607 43.734C70.0483 43.1126 70.2301 42.7192 70.2667 42.6405C73.1265 36.476 79.7985 32.5674 86.9048 33.8603ZM53.1087 48.4857L61.8022 50.6586L63.2966 58.6735L63.0598 59.0288C61.662 58.3328 59.6943 58.7585 58.2697 60.1831C56.854 61.5988 56.4249 63.5518 57.1055 64.9475L56.9536 65.0168L49.3895 63.4786L46.7656 54.8287L46.8416 54.6633C48.2349 55.3193 50.1657 54.8857 51.5691 53.4823C52.9959 52.0555 53.4216 50.0811 52.7189 48.6833L53.1087 48.4857Z" fill="#5D6970"/>
<path d="M46.8407 54.6647L46.7647 54.8301L56.9528 65.0182L57.1047 64.9489C57.2356 65.2199 57.4091 65.4681 57.6187 65.684L52.3168 70.9859L40.7578 59.4269L46.0597 54.125C46.2871 54.3484 46.5513 54.531 46.8407 54.6647Z" fill="#717F88"/>
<path d="M54.5349 62.3589L54.4272 62.4926L57.4245 65.4899L57.5473 65.3914C57.5366 65.5191 57.5603 65.6189 57.6204 65.6857L52.3185 70.9876L48.918 67.5871L54.2199 62.2852C54.2895 62.3506 54.3959 62.3742 54.5349 62.3589Z" fill="#5D6970"/>
<path d="M61.6231 38.5628C62.4417 37.7441 63.769 37.7448 64.5869 38.5642L65.3337 39.3126L70.1495 44.135L72.3797 46.3652L73.1779 47.1634C73.996 47.9815 73.996 49.3077 73.1779 50.1257L72.2713 51.0323L72.2702 51.0313L66.0243 57.2772L66.0253 57.2783L63.766 59.5376C63.5565 59.3344 63.3168 59.1648 63.0554 59.0348L63.2923 58.6795L53.1042 48.4914L52.7143 48.6892C52.5833 48.4273 52.4121 48.1875 52.207 47.9786L61.6231 38.5628Z" fill="#717F88"/>
<defs>
<linearGradient id="paint0_linear_23295_167176" x1="75.9922" y1="3" x2="75.9922" y2="123" gradientUnits="userSpaceOnUse">
<stop stop-color="#F4FAFF"/>
<stop offset="1" stop-color="#C4D4FF"/>
</linearGradient>
<linearGradient id="paint1_linear_23295_167176" x1="17.9921" y1="5.69022" x2="106.293" y2="134.149" gradientUnits="userSpaceOnUse">
<stop offset="0.33" stop-color="#FCC84E"/>
<stop offset="0.3301" stop-color="#FEF04F"/>
<stop offset="0.45" stop-color="#FEF04F"/>
<stop offset="0.4501" stop-color="#FCC84E"/>
<stop offset="0.6149" stop-color="#FCC84E"/>
<stop offset="0.615" stop-color="#F59E1B"/>
<stop offset="0.72" stop-color="#F59E1B"/>
<stop offset="0.7201" stop-color="#FCC84E"/>
</linearGradient>
</defs>
</svg>
