<svg width="155" height="126" viewBox="0 0 155 126" fill="none" xmlns="http://www.w3.org/2000/svg">
<path d="M8.17578 65.3945L23.3485 67.5441L22.1906 75.7173L13.2256 74.4472C10.6442 73.4219 7.90086 67.8599 8.17578 65.3945Z" fill="#AFAFAF"/>
<path d="M3.55078 50.168L26.1919 53.3756L24.464 65.5719L11.0862 63.6766C7.23429 62.1467 3.14054 53.8468 3.55078 50.168Z" fill="#AFAFAF"/>
<path d="M146.496 65.3945L131.323 67.5441L132.481 75.7173L141.446 74.4472C144.028 73.4219 146.771 67.8599 146.496 65.3945Z" fill="#AFAFAF"/>
<path d="M151.121 50.168L128.48 53.3756L130.208 65.5719L143.586 63.6766C147.438 62.1467 151.531 53.8468 151.121 50.168Z" fill="#AFAFAF"/>
<path d="M73.4023 5.3094C75.8776 3.88034 78.9271 3.88034 81.4023 5.3094L125.364 30.6906C127.839 32.1197 129.364 34.7607 129.364 37.6188V88.3812C129.364 91.2393 127.839 93.8803 125.364 95.3094L81.4023 120.691C78.9271 122.12 75.8776 122.12 73.4023 120.691L29.4408 95.3094C26.9656 93.8803 25.4408 91.2393 25.4408 88.3812V37.6188C25.4408 34.7607 26.9656 32.1197 29.4408 30.6906L73.4023 5.3094Z" fill="#F1F1F1" stroke="#AFAFAF" stroke-width="8"/>
<path d="M93.8133 72.7348C93.546 72.7419 93.2897 72.8426 93.089 73.0193C89.7491 75.9516 85.659 77.8966 81.2766 78.6367C81.1074 78.6656 80.9468 78.7323 80.8069 78.8318C80.6671 78.9313 80.5514 79.0611 80.4685 79.2115C80.3857 79.3618 80.3378 79.5289 80.3284 79.7003C80.319 79.8718 80.3484 80.0431 80.4144 80.2016L87.2992 96.6097C87.3878 96.8169 87.5357 96.9932 87.7243 97.1166C87.9128 97.24 88.1337 97.3048 88.359 97.303C88.5843 97.3011 88.8041 97.2327 88.9906 97.1062C89.1772 96.9798 89.3222 96.801 89.4073 96.5924L92.5631 88.7247L100.547 91.9278C100.756 92.0101 100.984 92.0291 101.204 91.9825C101.423 91.9359 101.624 91.8257 101.781 91.6658C101.938 91.5058 102.045 91.303 102.088 91.0829C102.131 90.8627 102.108 90.6348 102.022 90.4275L94.8954 73.4331C94.8062 73.2214 94.6552 73.0415 94.4621 72.9169C94.2691 72.7923 94.043 72.7289 93.8133 72.7348ZM59.7685 73.4461L52.6465 90.4319C52.56 90.6395 52.5367 90.8681 52.5795 91.0889C52.6224 91.3098 52.7295 91.5131 52.8874 91.6733C53.0453 91.8335 53.247 91.9436 53.4672 91.9896C53.6874 92.0356 53.9163 92.0156 54.1252 91.9321L62.1051 88.7247L65.2608 96.5924C65.6445 97.5409 66.9766 97.5495 67.3733 96.6097L74.2624 80.1843C74.3284 80.0258 74.3577 79.8545 74.3483 79.6831C74.339 79.5117 74.2911 79.3446 74.2082 79.1942C74.1254 79.0438 74.0097 78.9141 73.8698 78.8146C73.7299 78.7151 73.5694 78.6484 73.4002 78.6194C69.016 77.8888 64.9215 75.9528 61.5748 73.0279C61.4386 72.9086 61.2759 72.8234 61.1003 72.7793C60.9246 72.7353 60.741 72.7336 60.5646 72.7744C60.3881 72.8153 60.2239 72.8975 60.0855 73.0142C59.9471 73.131 59.8384 73.279 59.7685 73.4461Z" fill="#CECECE"/>
<path d="M77.3355 28.7812C62.8588 28.7812 51.0938 40.542 51.0938 55.0187C51.0938 69.4954 62.8545 81.2474 77.3312 81.2474C91.8079 81.2474 103.569 69.4954 103.569 55.0187C103.569 40.542 91.8122 28.7812 77.3355 28.7812Z" fill="#C8C8C8"/>
<path d="M77.3342 34.4809C71.8897 34.4866 66.6699 36.6525 62.8209 40.5032C58.9719 44.3538 56.8081 49.5745 56.8047 55.019C56.8047 66.3443 66.0089 75.5485 77.3342 75.5485C88.6595 75.5485 97.8637 66.3443 97.8637 55.019C97.8614 49.5737 95.6982 44.352 91.849 40.5004C87.9998 36.6488 82.7794 34.4866 77.3342 34.4809Z" fill="#E2E2E2"/>
<path d="M77.3249 41.917C77.1066 41.933 76.8975 42.0114 76.7224 42.1429C76.5474 42.2743 76.4138 42.4533 76.3376 42.6585L73.3198 50.6642L64.7537 50.9229C64.5214 50.932 64.2974 51.0118 64.1117 51.1516C63.9259 51.2914 63.7873 51.4846 63.7142 51.7052C63.6411 51.9259 63.6371 52.1636 63.7026 52.3867C63.7682 52.6097 63.9002 52.8074 64.0811 52.9534L70.7504 58.3164L68.3621 66.5334C68.2974 66.7576 68.3029 66.9963 68.378 67.2173C68.453 67.4382 68.5939 67.6309 68.7817 67.7694C68.9695 67.9079 69.1952 67.9856 69.4285 67.992C69.6618 67.9984 69.8914 67.9332 70.0865 67.8052L77.2343 63.1061L84.3175 67.9216C84.5107 68.0519 84.7391 68.1201 84.9721 68.1169C85.2052 68.1137 85.4317 68.0394 85.6212 67.9038C85.8108 67.7682 85.9543 67.5778 86.0326 67.3583C86.1109 67.1388 86.1201 66.9006 86.0592 66.6757L83.8131 58.4113L90.5729 53.1733C90.7585 53.031 90.896 52.8352 90.9668 52.6122C91.0376 52.3893 91.0382 52.15 90.9687 51.9267C90.8991 51.7034 90.7626 51.5068 90.5777 51.3635C90.3929 51.2202 90.1685 51.1372 89.9349 51.1255L81.373 50.7289L78.4759 42.6671C78.3921 42.4333 78.2344 42.2332 78.0267 42.0971C77.819 41.961 77.5726 41.9005 77.3249 41.917Z" fill="#9D9D9D"/>
</svg>
