<svg width="160" height="126" viewBox="0 0 160 126" fill="none" xmlns="http://www.w3.org/2000/svg">
<path d="M10.5078 56.0039L25.6805 58.1534L24.5226 66.3267L15.5576 65.0566C12.9763 64.0313 10.2329 58.4692 10.5078 56.0039Z" fill="#EFA628"/>
<path d="M14.8945 67.0898L28.6496 69.0385L27.5999 76.4481L19.4725 75.2967C17.1324 74.3672 14.6453 69.3248 14.8945 67.0898Z" fill="#EFA628"/>
<path d="M17.9648 77.2148L30.7791 79.0303L29.8012 85.9331L22.2297 84.8604C20.0496 83.9945 17.7327 79.297 17.9648 77.2148Z" fill="#EFA628"/>
<path d="M5.88281 40.7773L28.5239 43.9849L26.7961 56.1812L13.4183 54.286C9.56632 52.756 5.47257 44.4562 5.88281 40.7773Z" fill="#EFA628"/>
<path d="M148.824 56.0039L133.652 58.1534L134.809 66.3267L143.774 65.0566C146.356 64.0313 149.099 58.4692 148.824 56.0039Z" fill="#EFA628"/>
<path d="M144.438 67.0898L130.682 69.0385L131.732 76.4481L139.859 75.2967C142.2 74.3672 144.687 69.3248 144.438 67.0898Z" fill="#EFA628"/>
<path d="M141.367 77.2148L128.553 79.0303L129.531 85.9331L137.102 84.8604C139.282 83.9945 141.599 79.297 141.367 77.2148Z" fill="#EFA628"/>
<path d="M153.449 40.7773L130.808 43.9849L132.536 56.1812L145.914 54.286C149.766 52.756 153.859 44.4562 153.449 40.7773Z" fill="#EFA628"/>
<path d="M75.668 5.3094C78.1432 3.88034 81.1928 3.88034 83.668 5.3094L127.629 30.6906C130.105 32.1197 131.629 34.7607 131.629 37.6188V88.3812C131.629 91.2393 130.105 93.8803 127.629 95.3094L83.668 120.691C81.1928 122.12 78.1432 122.12 75.668 120.691L31.7064 95.3094C29.2312 93.8803 27.7064 91.2393 27.7064 88.3812V37.6188C27.7064 34.7607 29.2312 32.1197 31.7064 30.6906L75.668 5.3094Z" fill="#D9D9D9"/>
<path d="M75.668 5.3094C78.1432 3.88034 81.1928 3.88034 83.668 5.3094L127.629 30.6906C130.105 32.1197 131.629 34.7607 131.629 37.6188V88.3812C131.629 91.2393 130.105 93.8803 127.629 95.3094L83.668 120.691C81.1928 122.12 78.1432 122.12 75.668 120.691L31.7064 95.3094C29.2312 93.8803 27.7064 91.2393 27.7064 88.3812V37.6188C27.7064 34.7607 29.2312 32.1197 31.7064 30.6906L75.668 5.3094Z" fill="url(#paint0_linear_25023_138077)"/>
<path d="M75.668 5.3094C78.1432 3.88034 81.1928 3.88034 83.668 5.3094L127.629 30.6906C130.105 32.1197 131.629 34.7607 131.629 37.6188V88.3812C131.629 91.2393 130.105 93.8803 127.629 95.3094L83.668 120.691C81.1928 122.12 78.1432 122.12 75.668 120.691L31.7064 95.3094C29.2312 93.8803 27.7064 91.2393 27.7064 88.3812V37.6188C27.7064 34.7607 29.2312 32.1197 31.7064 30.6906L75.668 5.3094Z" stroke="black" stroke-width="8"/>
<path d="M75.668 5.3094C78.1432 3.88034 81.1928 3.88034 83.668 5.3094L127.629 30.6906C130.105 32.1197 131.629 34.7607 131.629 37.6188V88.3812C131.629 91.2393 130.105 93.8803 127.629 95.3094L83.668 120.691C81.1928 122.12 78.1432 122.12 75.668 120.691L31.7064 95.3094C29.2312 93.8803 27.7064 91.2393 27.7064 88.3812V37.6188C27.7064 34.7607 29.2312 32.1197 31.7064 30.6906L75.668 5.3094Z" stroke="url(#paint1_linear_25023_138077)" stroke-width="8"/>
<path d="M102.693 79.1139L105.175 81.3138C106.016 82.0587 105.489 83.4479 104.366 83.4479H90.8864C90.2121 83.4479 89.666 82.9014 89.666 82.2271V74.5078H104.507C105.612 74.5078 106.149 75.8591 105.344 76.6167L102.693 79.1139Z" fill="#E84649"/>
<path d="M96.9226 74.5078V76.5009C96.9226 78.1154 95.6097 79.4302 93.9938 79.4302H89.666V74.5078H96.9226Z" fill="#D73337"/>
<path d="M70.336 74.5078V82.2271C70.336 82.9014 69.7894 83.4479 69.1151 83.4479H55.6358C54.5125 83.4479 53.9856 82.0587 54.8265 81.3139L57.3089 79.1139L54.6576 76.6167C53.8533 75.8591 54.3893 74.5078 55.4943 74.5078H70.336Z" fill="#E84649"/>
<path d="M63.0781 74.5078H70.335V79.4302H66.0072C64.3914 79.4302 63.0781 78.1154 63.0781 76.5009V74.5078Z" fill="#D73337"/>
<path d="M93.8845 73.4871C93.5435 73.4871 93.2167 73.2935 93.0634 72.9638C93.0131 72.8561 92.9846 72.7394 92.9794 72.6206C92.9742 72.5018 92.9924 72.3831 93.0331 72.2713C93.0738 72.1596 93.1361 72.0569 93.2165 71.9692C93.2968 71.8816 93.3937 71.8106 93.5015 71.7603C97.4698 69.9124 100.392 67.304 102.187 64.0067C103.626 61.3618 104.359 58.2545 104.364 54.7718C104.372 48.7462 102.173 43.6353 102.151 43.5845C102.055 43.3645 102.05 43.1153 102.138 42.8918C102.225 42.6683 102.398 42.4887 102.618 42.3924C103.076 42.1924 103.609 42.4006 103.81 42.8585C103.906 43.0787 106.17 48.3228 106.175 54.7169C106.179 60.7086 104.117 68.8146 94.2659 73.4019C94.1465 73.4579 94.0164 73.487 93.8845 73.4871Z" fill="#83B832"/>
<path d="M103.021 36.2105C104.027 39.1228 104.294 43.3571 102.978 43.8117C101.661 44.2662 99.2585 40.7694 98.2528 37.857C97.2471 34.9448 98.0189 33.7203 99.3354 33.2653C100.652 32.8106 102.015 33.2982 103.021 36.2105Z" fill="#BDEB73"/>
<path d="M102.977 43.811C102.67 43.9172 102.304 43.8082 101.91 43.5423C102.33 42.0141 101.99 39.112 101.241 36.9423C100.445 34.6392 99.4265 33.8532 98.3828 33.8496C98.6391 33.5809 98.965 33.3918 99.3348 33.265C100.651 32.8109 102.015 33.298 103.021 36.2099C104.027 39.123 104.293 43.3569 102.977 43.811Z" fill="#9AD63B"/>
<path d="M105.318 55.1108C104.71 55.5598 103.45 54.995 102.132 53.9893C101.02 53.1397 99.8666 51.9779 99.028 50.844C97.196 48.3652 97.566 46.9667 98.6861 46.1382C99.7751 45.3339 101.172 45.3654 102.932 47.6438C102.984 47.7087 103.033 47.7756 103.085 47.8451C104.915 50.3231 106.438 54.2822 105.318 55.1108Z" fill="#8EC737"/>
<path d="M105.319 55.1115C104.711 55.5605 103.451 54.9957 102.133 53.99C102.06 53.47 102.04 52.8826 102.07 52.2313C102.138 50.7788 102.455 49.1094 102.933 47.6445C102.985 47.7095 103.034 47.7764 103.086 47.8459C104.916 50.3238 106.439 54.283 105.319 55.1115Z" fill="#83B832"/>
<path d="M104.755 47.6154C103.669 50.499 103.285 54.724 104.588 55.2148C105.892 55.7055 108.39 52.2763 109.475 49.3929C110.561 46.5095 109.824 45.264 108.52 44.7732C107.216 44.282 105.84 44.732 104.755 47.6154Z" fill="#BDEB73"/>
<path d="M109.475 49.3931C108.389 52.2757 105.892 55.7052 104.587 55.2145C104.284 55.1009 104.072 54.7838 103.939 54.3283C105.24 53.4325 106.844 50.9683 107.657 48.8108C108.512 46.5372 108.235 45.2823 107.441 44.6122C107.801 44.5747 108.163 44.6379 108.52 44.772C109.823 45.2642 110.56 46.5093 109.475 49.3931Z" fill="#9AD63B"/>
<path d="M102.173 67.531C101.437 67.7041 100.503 66.6864 99.6887 65.2413C99.0015 64.0232 98.401 62.4988 98.0779 61.1268C97.3719 58.1286 98.2642 56.9873 99.6205 56.6688C100.94 56.3588 102.212 56.9397 102.929 59.7297C102.95 59.809 102.969 59.8895 102.989 59.9724C103.693 62.9726 103.529 67.2111 102.173 67.531Z" fill="#8EC737"/>
<path d="M102.174 67.5277C101.438 67.7008 100.503 66.6832 99.6895 65.238C99.8273 64.7313 100.04 64.1847 100.325 63.5979C100.961 62.2896 101.912 60.8824 102.929 59.7266C102.951 59.8058 102.97 59.8863 102.989 59.9691C103.694 62.9694 103.53 67.2078 102.174 67.5277Z" fill="#83B832"/>
<path d="M104.614 60.4205C102.479 62.6411 100.459 66.3719 101.462 67.3373C102.467 68.3027 106.115 66.1375 108.251 63.9169C110.386 61.6959 110.2 60.2603 109.196 59.2948C108.192 58.3294 106.75 58.1995 104.615 60.4205H104.614Z" fill="#BDEB73"/>
<path d="M108.252 63.9157C106.116 66.1369 102.469 68.302 101.464 67.3367C101.309 67.1878 101.226 66.9719 101.205 66.7058C102.755 66.2504 104.971 64.7333 106.457 63.1897C108.536 61.0268 108.414 59.6087 107.479 58.6433C108.165 58.5751 108.729 58.8437 109.197 59.2937C110.201 60.2592 110.388 61.6956 108.252 63.9158V63.9157Z" fill="#9AD63B"/>
<path d="M66.1163 73.4906C65.9843 73.4907 65.854 73.4618 65.7345 73.4059C55.8833 68.8182 53.8215 60.7121 53.8262 54.7204C53.8311 48.3264 56.0944 43.0822 56.191 42.8625C56.2387 42.7536 56.3074 42.6552 56.3931 42.5728C56.4788 42.4905 56.5799 42.4258 56.6906 42.3825C56.8013 42.3392 56.9194 42.3181 57.0383 42.3205C57.1571 42.3229 57.2743 42.3486 57.3832 42.3963C57.4921 42.4439 57.5906 42.5126 57.6729 42.5983C57.7553 42.684 57.82 42.7851 57.8633 42.8958C57.9066 43.0065 57.9276 43.1247 57.9253 43.2435C57.9229 43.3624 57.8971 43.4796 57.8495 43.5885C57.8151 43.6677 55.6288 48.7667 55.637 54.7753C55.6417 58.2581 56.3745 61.3653 57.8142 64.0103C59.6086 67.3076 62.5305 69.9164 66.499 71.7643C66.6859 71.8514 66.8375 71.9996 66.9288 72.1845C67.02 72.3693 67.0454 72.5798 67.0008 72.7811C66.9561 72.9824 66.8441 73.1624 66.6833 73.2914C66.5225 73.4204 66.3224 73.4907 66.1163 73.4905V73.4906Z" fill="#83B832"/>
<path d="M56.98 36.2105C55.9743 39.1228 55.707 43.3571 57.0235 43.8117C58.3401 44.2662 60.7424 40.7694 61.7481 37.857C62.7538 34.9448 61.982 33.7203 60.6655 33.2653C59.3489 32.8106 57.9857 33.2982 56.98 36.2105Z" fill="#BDEB73"/>
<path d="M61.7482 37.8567C60.7425 40.7688 58.3411 44.2652 57.0239 43.8101C56.7003 43.6988 56.4723 43.3597 56.3281 42.8668C57.6095 41.9502 59.1608 39.4225 59.9188 37.2279C60.678 35.0289 60.4244 33.7917 59.687 33.1238C60.0116 33.0972 60.3402 33.1522 60.6657 33.2643C61.9827 33.7194 62.754 34.9434 61.7483 37.8565L61.7482 37.8567Z" fill="#9AD63B"/>
<path d="M54.6829 55.1108C55.2908 55.5598 56.5514 54.995 57.8698 53.9893C58.9813 53.1397 60.1349 51.9779 60.9729 50.844C62.805 48.3652 62.4355 46.9667 61.315 46.1382C60.2263 45.3339 58.8289 45.3654 57.0693 47.6438C57.0172 47.7101 56.9662 47.7772 56.9164 47.8451C55.0858 50.3231 53.5628 54.2822 54.6829 55.1108Z" fill="#8EC737"/>
<path d="M60.9722 50.8438C60.1341 51.9777 58.9805 53.1395 57.8691 53.9891C56.5507 54.9949 55.29 55.5597 54.682 55.1106C54.5173 54.9884 54.4088 54.7972 54.3516 54.554C54.8614 54.332 55.4365 53.9718 56.0224 53.5254C57.1343 52.6758 58.2874 51.514 59.126 50.3801C60.9282 47.9417 60.5991 46.5477 59.5211 45.7156C60.1935 45.5572 60.7904 45.7508 61.314 46.1381C62.4347 46.9666 62.8042 48.3651 60.9722 50.8438Z" fill="#83B832"/>
<path d="M54.6829 55.1115C55.2908 55.5605 56.5514 54.9957 57.8698 53.99C57.9417 53.47 57.9624 52.8826 57.9321 52.2313C57.8648 50.7788 57.5475 49.1094 57.0692 47.6445C57.0171 47.7108 56.9662 47.7779 56.9164 47.8459C55.0858 50.3238 53.5628 54.283 54.6829 55.1115Z" fill="#83B832"/>
<path d="M55.2456 47.6154C56.3309 50.499 56.7155 54.724 55.4118 55.2148C54.1081 55.7056 51.61 52.2763 50.5247 49.3929C49.4388 46.5095 50.1763 45.264 51.48 44.7732C52.7837 44.282 54.1597 44.732 55.2456 47.6154Z" fill="#BDEB73"/>
<path d="M55.4111 55.215C55.0823 55.338 54.6786 55.214 54.2405 54.911C54.7166 53.4392 54.2967 50.3723 53.4495 48.1232C52.6772 46.0729 51.7594 45.2535 50.8242 45.128C51.0173 44.9792 51.238 44.8631 51.4784 44.773C52.7821 44.2822 54.1586 44.7325 55.2435 47.6151C56.3298 50.4991 56.7142 54.7242 55.4111 55.215Z" fill="#9AD63B"/>
<path d="M57.8258 67.531C58.5619 67.7041 59.4967 66.6864 60.311 65.2413C60.9982 64.0232 61.5983 62.4988 61.9219 61.1268C62.6274 58.1286 61.7352 56.9873 60.3792 56.6688C59.06 56.3588 57.7882 56.9397 57.0706 59.7297C57.0499 59.809 57.0302 59.8895 57.0106 59.9724C56.3065 62.9726 56.47 67.2111 57.8258 67.531Z" fill="#8EC737"/>
<path d="M61.9214 61.1261C61.5978 62.4981 60.9977 64.0224 60.3105 65.2406C59.4962 66.6856 58.5615 67.7033 57.8253 67.5302C57.4788 67.4482 57.2105 67.11 57.0137 66.6023C57.4898 66.1958 57.9842 65.5197 58.4393 64.7109C59.1263 63.4928 59.7269 61.9684 60.0506 60.5965C60.5619 58.4244 60.2332 57.2256 59.499 56.6107C59.7855 56.5741 60.0807 56.5984 60.3787 56.668C61.7346 56.9866 62.6268 58.1278 61.9214 61.1261Z" fill="#83B832"/>
<path d="M57.8258 67.5277C58.5619 67.7008 59.4967 66.6832 60.311 65.238C60.1727 64.7313 59.9604 64.1847 59.6753 63.5979C59.039 62.2896 58.0886 60.8824 57.0706 59.7266C57.0499 59.8058 57.0302 59.8863 57.0106 59.9691C56.3065 62.9694 56.47 67.2078 57.8258 67.5277Z" fill="#83B832"/>
<path d="M55.386 60.4205C57.5214 62.6411 59.5415 66.3719 58.5376 67.3373C57.5337 68.3027 53.8849 66.1375 51.7494 63.9169C49.6139 61.6959 49.8002 60.2603 50.8045 59.2948C51.8085 58.3294 53.2506 58.1995 55.386 60.4205Z" fill="#BDEB73"/>
<path d="M58.5353 67.3373C58.2143 67.6463 57.6224 67.6353 56.8959 67.4033C57.1661 66.0181 55.3804 62.907 53.5072 60.9593C52.4818 59.8927 51.6166 59.369 50.8828 59.2189C51.8825 58.3244 53.3044 58.2586 55.3826 60.421C57.5186 62.6411 59.5396 66.3718 58.5353 67.3374V67.3373Z" fill="#9AD63B"/>
<path d="M93.9919 77.724H66.0056C65.3317 77.724 64.7852 77.1774 64.7852 76.5036V67.5524C64.7852 66.8781 65.3317 66.332 66.0056 66.332H93.9919C94.6657 66.332 95.2123 66.8781 95.2123 67.5524V76.5036C95.2123 77.1774 94.6657 77.724 93.9919 77.724Z" fill="#ED6264"/>
<path d="M95.2139 67.5529V76.5036C95.2139 77.1774 94.6683 77.7239 93.9936 77.7239H91.1289C91.8041 77.7239 92.3498 77.1774 92.3498 76.5036V67.5528C92.3499 67.3924 92.3184 67.2336 92.2571 67.0854C92.1958 66.9372 92.1059 66.8026 91.9925 66.6892C91.8791 66.5758 91.7444 66.4859 91.5963 66.4246C91.4481 66.3633 91.2893 66.3319 91.1289 66.332H93.9936C94.1539 66.3319 94.3127 66.3634 94.4608 66.4248C94.609 66.4861 94.7436 66.576 94.8569 66.6894C94.9703 66.8028 95.0601 66.9374 95.1214 67.0856C95.1827 67.2338 95.2141 67.3926 95.2139 67.5529Z" fill="#E84649"/>
<path d="M87.1422 74.3343H72.8547C72.7358 74.3344 72.6181 74.3109 72.5082 74.2654C72.3983 74.2199 72.2985 74.1532 72.2144 74.0692C72.1303 73.9851 72.0636 73.8852 72.0181 73.7754C71.9726 73.6655 71.9492 73.5477 71.9492 73.4288C71.9492 73.3099 71.9726 73.1922 72.0181 73.0823C72.0636 72.9725 72.1303 72.8726 72.2143 72.7886C72.2984 72.7045 72.3982 72.6378 72.5081 72.5923C72.618 72.5468 72.7357 72.5234 72.8546 72.5234H87.1423C87.3825 72.5234 87.6128 72.6188 87.7826 72.7886C87.9524 72.9584 88.0478 73.1887 88.0478 73.4289C88.0478 73.669 87.9524 73.8993 87.7826 74.0691C87.6128 74.2389 87.3825 74.3343 87.1423 74.3343H87.1422Z" fill="#FFCE8B"/>
<path d="M81.294 42.0699C81.2463 42.2847 81.2914 42.5192 81.416 42.7141L83.0846 45.2416C84.1515 46.8718 84.964 47.5636 87.0038 47.5636C87.5657 47.5636 90.3662 47.4139 90.3662 44.4742V38.6491C90.3662 38.3125 90.0932 38.0381 89.7566 38.0381C89.4199 38.0381 89.1455 38.3125 89.1455 38.6491V41.3198C89.1455 41.4801 89.0157 41.61 88.8553 41.61C88.6949 41.61 88.565 41.4801 88.565 41.3198V37.5226C88.565 37.1859 88.2907 36.9116 87.9541 36.9116C87.6174 36.9116 87.3444 37.1859 87.3444 37.5226V40.8691C87.3444 41.0295 87.2131 41.1607 87.0528 41.1607C86.8924 41.1607 86.7625 41.0295 86.7625 40.8691V37.0719C86.7625 36.7353 86.4895 36.4609 86.1529 36.4609C85.8162 36.4609 85.5418 36.7353 85.5418 37.0719V40.8691C85.5418 41.0295 85.412 41.1607 85.2516 41.1607C85.0912 41.1607 84.9613 41.0295 84.9613 40.8691V37.9732C84.9613 37.6365 84.687 37.3622 84.3504 37.3622C84.0137 37.3622 83.7393 37.6365 83.7393 37.9732V43.3224L82.7096 41.9122C82.4577 41.5252 81.9647 41.3927 81.6121 41.6114C81.4504 41.7134 81.3391 41.8751 81.2967 42.0686L81.294 42.0699Z" fill="#FFD064"/>
<path d="M86.9922 49.4561C85.7848 49.4561 84.6953 49.1499 83.7159 48.5522V58.0114C83.7159 59.089 83.3633 59.9544 82.6582 60.6025C81.9531 61.252 81.0625 61.5767 79.9836 61.5767C78.8504 61.5767 77.9452 61.252 77.2679 60.6025C76.5907 59.9531 76.2527 59.089 76.2527 58.0114V45.6562H69.6191V58.0114C69.6191 60.8583 70.5787 63.1738 72.5005 64.9564C74.421 66.739 76.9167 67.631 79.9836 67.631C83.0505 67.631 85.4773 66.739 87.4256 64.9564C89.3739 63.1738 90.3481 60.8583 90.3481 58.0114V48.5018C89.3474 49.1327 88.2314 49.4548 86.9909 49.4548L86.9922 49.4561Z" fill="#FFD064"/>
<defs>
<linearGradient id="paint0_linear_25023_138077" x1="79.668" y1="3" x2="79.668" y2="123" gradientUnits="userSpaceOnUse">
<stop stop-color="#F4FAFF"/>
<stop offset="1" stop-color="#C4D4FF"/>
</linearGradient>
<linearGradient id="paint1_linear_25023_138077" x1="21.6679" y1="5.69022" x2="109.969" y2="134.149" gradientUnits="userSpaceOnUse">
<stop offset="0.33" stop-color="#FCC84E"/>
<stop offset="0.3301" stop-color="#FEF04F"/>
<stop offset="0.45" stop-color="#FEF04F"/>
<stop offset="0.4501" stop-color="#FCC84E"/>
<stop offset="0.6149" stop-color="#FCC84E"/>
<stop offset="0.615" stop-color="#F59E1B"/>
<stop offset="0.72" stop-color="#F59E1B"/>
<stop offset="0.7201" stop-color="#FCC84E"/>
</linearGradient>
</defs>
</svg>
