<svg width="157" height="127" viewBox="0 0 157 127" fill="none" xmlns="http://www.w3.org/2000/svg">
<path d="M9.50781 61.125L24.6805 63.2745L23.5226 71.4478L14.5576 70.1777C11.9763 69.1524 9.2329 63.5903 9.50781 61.125Z" fill="#AFAFAF"/>
<path d="M13.8945 72.2109L27.6496 74.1596L26.5999 81.5692L18.4725 80.4178C16.1324 79.4883 13.6453 74.4459 13.8945 72.2109Z" fill="#AFAFAF"/>
<path d="M4.88281 45.8984L27.5239 49.106L25.7961 61.3023L12.4183 59.4071C8.56632 57.8771 4.47257 49.5773 4.88281 45.8984Z" fill="#AFAFAF"/>
<path d="M147.824 61.125L132.652 63.2745L133.809 71.4478L142.774 70.1777C145.356 69.1524 148.099 63.5903 147.824 61.125Z" fill="#AFAFAF"/>
<path d="M143.438 72.2109L129.682 74.1596L130.732 81.5692L138.859 80.4178C141.2 79.4883 143.687 74.4459 143.438 72.2109Z" fill="#AFAFAF"/>
<path d="M152.449 45.8984L129.808 49.106L131.536 61.3023L144.914 59.4071C148.766 57.8771 152.859 49.5773 152.449 45.8984Z" fill="#AFAFAF"/>
<path d="M74.6602 5.76252C77.1354 4.33346 80.1849 4.33346 82.6602 5.76253L126.622 31.1437C129.097 32.5728 130.622 35.2138 130.622 38.0719V88.8343C130.622 91.6925 129.097 94.3335 126.622 95.7625L82.6602 121.144C80.1849 122.573 77.1354 122.573 74.6602 121.144L30.6986 95.7625C28.2234 94.3335 26.6986 91.6924 26.6986 88.8343V38.0719C26.6986 35.2138 28.2234 32.5728 30.6986 31.1437L74.6602 5.76252Z" fill="#F1F1F1" stroke="#AFAFAF" stroke-width="8"/>
<g clip-path="url(#clip0_23296_167447)">
<path d="M105.174 43.3479V61.0035C105.174 77.0825 94.2547 91.1027 78.6579 95.0508C63.0871 91.1157 52.168 77.0825 52.168 61.0035V43.3479C64.4292 41.9667 71.3741 37.302 78.6709 31.8555C85.9677 37.302 92.9127 41.9667 105.174 43.3479Z" fill="#A4A4A4"/>
<path d="M78.6688 88.0792C66.9288 84.3526 58.8633 73.4595 58.8633 61.0029V49.0414C67.1112 47.2433 73.1702 43.9206 78.6688 40.1289C84.2847 44.0249 90.2264 47.2824 98.4744 49.0544V61.0159C98.4744 73.4595 90.4088 84.3526 78.6688 88.0792Z" fill="#CACACA"/>
<path d="M74.2819 74.2539L67.7539 67.7259L71.0635 64.4033L74.2819 67.6087L86.2825 55.6211L89.5921 58.9307L74.2819 74.2539Z" fill="white"/>
</g>
<defs>
<clipPath id="clip0_23296_167447">
<rect width="63.1953" height="63.1953" fill="white" transform="translate(47.0742 31.8555)"/>
</clipPath>
</defs>
</svg>
