<svg width="50" height="50" viewBox="0 0 50 50" fill="none" xmlns="http://www.w3.org/2000/svg">
<path d="M37.5354 8.94541L28.7754 7.68564L24.9962 0L20.9825 7.68564L12.2812 8.94541L18.5802 15.0977L17.0566 24.0332L24.9962 20.1075L32.7306 23.8867L31.207 15.0977L37.5354 8.94541Z" fill="#FFE274"/>
<path d="M32.7344 23.8867L25 20.1075V0L28.7792 7.68564L37.5392 8.94541L31.2109 15.0977L32.7344 23.8867Z" fill="#FFB62A"/>
<path d="M50 11.8125V31.4708L38.1836 43.1896V49.9961H11.8164V43.1896L0 31.4708V11.8125H1.5625C3.99424 11.8125 5.95703 13.7753 5.95703 16.207V26.8125L15.1856 36.0411L17.2363 33.9609L9.23828 25.963C12.0802 24.088 15.9766 24.3809 18.4669 26.9005L25 33.4336L31.5331 26.9005C34.0234 24.3809 37.9198 24.0879 40.7617 25.963L32.7638 33.9609L34.8145 36.0411L44.043 26.8125V16.207C44.043 13.7753 46.1034 11.8125 48.5352 11.8125H50Z" fill="#FFCEBF"/>
<path d="M50 11.8125V31.4708L38.1836 43.1896V49.9961H25V33.4336L31.5331 26.9005C34.0234 24.3809 37.9198 24.0879 40.7617 25.963L32.7638 33.9609L34.8145 36.0411L44.043 26.8125V16.207C44.043 13.7753 46.1034 11.8125 48.5352 11.8125H50Z" fill="#FFBFAB"/>
</svg>
