<svg width="28" height="28" viewBox="0 0 28 28" fill="none" xmlns="http://www.w3.org/2000/svg">
<path d="M14.2806 3.46094C14.0072 3.46094 13.763 3.58637 13.6026 3.78284L13.536 3.83326C11.0342 3.07485 8.2038 3.67863 6.22519 5.64458C4.46522 7.39329 3.78995 9.81164 4.19938 12.0742L4.18186 12.0914L3.06517 13.201C2.09416 14.1658 2.09416 15.73 3.06518 16.6948C3.63563 17.2616 4.41432 17.4955 5.15657 17.3963C5.26594 17.8003 5.48017 18.182 5.79927 18.4991C6.23297 18.93 6.78702 19.1685 7.35393 19.2145C7.40013 19.7779 7.64012 20.3285 8.07392 20.7596C8.52765 21.2104 9.1131 21.4505 9.70718 21.4801C9.73696 22.0702 9.97867 22.6518 10.4323 23.1025C11.3193 23.9838 12.7097 24.0601 13.6838 23.3313L14.1348 23.7793C15.1105 24.7488 16.6925 24.7488 17.6682 23.7793C18.1004 23.3499 18.3411 22.8025 18.3904 22.2417C18.9538 22.1937 19.5039 21.9555 19.9352 21.527C20.3676 21.0973 20.6075 20.5492 20.6549 19.9879C21.2109 19.9359 21.7527 19.6984 22.1787 19.2751C22.5126 18.9434 22.7317 18.5409 22.836 18.1162C23.5671 18.2029 24.3295 17.9676 24.8906 17.4101C25.8616 16.4453 25.8616 14.8811 24.8906 13.9163L23.9182 12.9501L24.118 12.1724C24.5524 10.4817 24.3339 8.69065 23.5061 7.15246C22.284 4.88155 19.9049 3.46678 17.3188 3.46678L15.4443 3.46678C15.3645 3.4629 15.2841 3.46094 15.2034 3.46094H14.2806ZM17.6923 9.23025L21.7332 13.2453L21.7378 13.2501L21.7533 13.266L23.6492 15.1497C23.9346 15.4333 23.9346 15.8931 23.6492 16.1767C23.3638 16.4603 22.901 16.4603 22.6156 16.1767L20.7198 14.2929C20.377 13.9523 19.8212 13.9523 19.4784 14.2929L19.4594 14.3118C19.1166 14.6524 19.1166 15.2047 19.4594 15.5453L20.9373 17.0138C21.223 17.2976 21.223 17.7578 20.9373 18.0416C20.677 18.3003 20.2677 18.3236 19.9818 18.1099C19.631 17.8476 19.1391 17.8832 18.8303 18.1933C18.5214 18.5033 18.4905 18.9923 18.758 19.3382C18.9778 19.6225 18.956 20.033 18.6938 20.2935C18.4295 20.5561 18.0119 20.576 17.7255 20.352C17.377 20.0793 16.8785 20.1079 16.5638 20.4186C16.2491 20.7293 16.2172 21.2244 16.4894 21.5725C16.7154 21.8613 16.6941 22.2803 16.4268 22.5459C16.1367 22.8341 15.6663 22.8341 15.3762 22.5459L14.9425 22.115L15.0653 21.9929C16.0363 21.0281 16.0363 19.4639 15.0653 18.4991C14.6116 18.0483 14.0262 17.8081 13.4321 17.7786C13.4023 17.1884 13.1606 16.6069 12.707 16.1562C12.2733 15.7252 11.7192 15.4868 11.1523 15.4408C11.1061 14.8774 10.8661 14.3267 10.4323 13.8957C9.86184 13.3289 9.08316 13.0951 8.34091 13.1942C8.23153 12.7903 8.0173 12.4085 7.69821 12.0914C7.19498 11.5914 6.52971 11.3506 5.87035 11.3688C5.69909 9.76728 6.23117 8.10556 7.46659 6.87804C8.61485 5.73713 10.1406 5.19993 11.6444 5.26644L9.89737 6.59006C8.70285 7.49507 8.47274 9.19521 9.3837 10.3852C10.2926 11.5725 11.9937 11.8027 13.1855 10.8998L15.3891 9.23025H17.6923ZM10.9542 7.98493L14.6155 5.21094H15.2034C15.2612 5.21094 15.3184 5.21248 15.3752 5.21553C15.3908 5.21636 15.4064 5.21678 15.422 5.21678H17.3188C19.265 5.21678 21.0501 6.28147 21.9651 7.98178C22.5423 9.05426 22.7234 10.29 22.483 11.4762L18.7355 7.74697C18.5706 7.5765 18.3436 7.48025 18.1065 7.48025L15.0951 7.48025C14.9043 7.48025 14.7188 7.54261 14.5667 7.65782L12.1287 9.50491C11.7046 9.82626 11.0967 9.74399 10.7733 9.32145C10.4519 8.90161 10.5327 8.30422 10.9542 7.98493ZM7.04067 17.2656C6.84478 17.071 6.78334 16.7934 6.85634 16.5467C6.88971 16.4339 6.95114 16.3276 7.04066 16.2387L8.15735 15.1292C8.44275 14.8456 8.90549 14.8456 9.1909 15.1292C9.47305 15.4095 9.47627 15.862 9.20057 16.1463L9.1906 16.1562L8.07393 17.2657L8.0643 17.2753C7.97685 17.359 7.87357 17.4168 7.76427 17.4488C7.51598 17.5213 7.23655 17.4603 7.04067 17.2656ZM6.46751 13.3358C6.55558 13.4269 6.61504 13.5353 6.6459 13.6497C6.71126 13.8922 6.64824 14.1616 6.45681 14.3518L5.34013 15.4614C5.05472 15.745 4.59198 15.745 4.30658 15.4614C4.02117 15.1778 4.02117 14.718 4.30658 14.4344L5.42326 13.3249C5.70867 13.0413 6.1714 13.0413 6.45681 13.3249L6.46751 13.3358ZM12.7073 21.869C12.6176 21.9581 12.5104 22.0192 12.3967 22.0523C12.1486 22.1246 11.8694 22.0635 11.6737 21.869C11.478 21.6745 11.4165 21.3972 11.4892 21.1507C11.5225 21.0377 11.584 20.9312 11.6737 20.8421L12.7904 19.7325C13.0758 19.449 13.5385 19.449 13.8239 19.7325C14.1093 20.0161 14.1093 20.4759 13.8239 20.7595L12.7073 21.869ZM10.3489 19.5261C10.2594 19.615 10.1526 19.676 10.0392 19.7092C9.79084 19.7818 9.51128 19.7208 9.31532 19.5261C9.11937 19.3314 9.05795 19.0536 9.13108 18.8068C9.16325 18.6983 9.22144 18.5958 9.30566 18.5089L9.31562 18.4991L10.4323 17.3896L10.4419 17.3799C10.728 17.1061 11.1834 17.1093 11.4656 17.3896C11.751 17.6732 11.751 18.133 11.4656 18.4166L10.3489 19.5261Z" fill="#71D472"/>
</svg>
