<svg width="16" height="17" viewBox="0 0 16 17" fill="none" xmlns="http://www.w3.org/2000/svg">
<path d="M8 2.90625C4.68629 2.90625 2 5.59254 2 8.90625C2 12.22 4.68629 14.9062 8 14.9062C11.3137 14.9062 14 12.22 14 8.90625C14 5.59254 11.3137 2.90625 8 2.90625ZM8.74905 6.40628C8.74905 6.81996 8.41369 7.15532 8.00001 7.15532C7.58633 7.15532 7.25098 6.81996 7.25098 6.40628C7.25098 5.9926 7.58633 5.65725 8.00001 5.65725C8.41369 5.65725 8.74905 5.9926 8.74905 6.40628ZM8 7.90625C8.27614 7.90625 8.5 8.13011 8.5 8.40625V11.4062C8.5 11.6824 8.27614 11.9062 8 11.9062C7.72386 11.9062 7.5 11.6824 7.5 11.4062V8.40625C7.5 8.13011 7.72386 7.90625 8 7.90625Z" fill="#7A91A9"/>
</svg>
