<svg width="24" height="25" viewBox="0 0 24 25" fill="none" xmlns="http://www.w3.org/2000/svg">
<path d="M12.0016 2.5C17.5253 2.5 22.0031 6.97785 22.0031 12.5016C22.0031 18.0253 17.5253 22.5031 12.0016 22.5031C6.47785 22.5031 2 18.0253 2 12.5016C2 6.97785 6.47785 2.5 12.0016 2.5ZM11.9977 10.7506C11.4849 10.7509 11.0625 11.1372 11.005 11.6346L10.9984 11.7512L11.002 17.2528L11.0088 17.3694C11.0669 17.8667 11.4898 18.2525 12.0027 18.2522C12.5155 18.2518 12.9379 17.8655 12.9953 17.3681L13.002 17.2515L12.9984 11.7499L12.9916 11.6333C12.9335 11.136 12.5106 10.7502 11.9977 10.7506ZM12.002 7.00103C11.3108 7.00103 10.7505 7.56136 10.7505 8.25255C10.7505 8.94375 11.3108 9.50407 12.002 9.50407C12.6932 9.50407 13.2535 8.94375 13.2535 8.25255C13.2535 7.56136 12.6932 7.00103 12.002 7.00103Z" fill="#1735F5"/>
</svg>
