<svg width="20" height="20" viewBox="0 0 20 20" fill="none" xmlns="http://www.w3.org/2000/svg">
<path d="M10.0016 -0.000976562C15.5253 -0.000976562 20.0031 4.47687 20.0031 10.0006C20.0031 15.5243 15.5253 20.0021 10.0016 20.0021C4.47785 20.0021 0 15.5243 0 10.0006C0 4.47687 4.47785 -0.000976562 10.0016 -0.000976562ZM10.0016 1.49902C5.30627 1.49902 1.5 5.3053 1.5 10.0006C1.5 14.6959 5.30627 18.5021 10.0016 18.5021C14.6968 18.5021 18.5031 14.6959 18.5031 10.0006C18.5031 5.3053 14.6968 1.49902 10.0016 1.49902ZM9.99791 8.49961C10.3776 8.49936 10.6916 8.78131 10.7415 9.14735L10.7484 9.24911L10.752 14.7507C10.7523 15.1649 10.4167 15.5009 10.0025 15.5012C9.62279 15.5014 9.30881 15.2195 9.25891 14.8535L9.252 14.7517L9.2484 9.2501C9.24813 8.83588 9.58369 8.49988 9.99791 8.49961ZM10.002 5.00184C10.5535 5.00184 11.0007 5.44896 11.0007 6.0005C11.0007 6.55205 10.5535 6.99917 10.002 6.99917C9.45045 6.99917 9.00334 6.55205 9.00334 6.0005C9.00334 5.44896 9.45045 5.00184 10.002 5.00184Z" fill="#EB4D3D"/>
</svg>
