<svg width="21" height="20" viewBox="0 0 21 20" fill="none" xmlns="http://www.w3.org/2000/svg">
<path d="M10.384 2.29515C10.7233 1.31786 12.0161 0.867587 12.8149 1.70471C12.9775 1.87514 13.1401 2.05929 13.2496 2.22352C13.5699 2.70403 13.7046 3.33682 13.7539 3.95318C13.8041 4.58132 13.7701 5.25544 13.7058 5.86571C13.6413 6.47832 13.5449 7.04046 13.4649 7.44864C13.4614 7.46633 13.458 7.48374 13.4545 7.50087H14.338C16.2098 7.50087 17.6245 9.19601 17.2897 11.0375L16.6057 14.7992C16.1337 17.3952 13.5398 19.0299 10.9943 18.3357L5.39454 16.8085C4.48097 16.5593 3.78659 15.8154 3.60088 14.8869L3.24784 13.1217C2.97012 11.7331 4.03195 10.5633 5.16108 10.117C5.48366 9.98948 5.7754 9.82765 6.00177 9.62683C7.70786 8.11332 8.32645 6.90374 9.38609 4.77782C9.74043 4.06692 10.1041 3.10141 10.384 2.29515ZM12.3485 7.87949L12.3489 7.87794L12.3507 7.8706L12.3582 7.8395C12.3649 7.81166 12.3747 7.7699 12.3869 7.7158C12.4114 7.60756 12.4455 7.45017 12.4835 7.25622C12.5598 6.86753 12.6508 6.33591 12.7113 5.76102C12.7721 5.18379 12.8005 4.57666 12.757 4.03293C12.7126 3.47742 12.5972 3.0477 12.4176 2.77822C12.3585 2.68957 12.2459 2.5569 12.0915 2.39508C11.8925 2.18663 11.4634 2.23515 11.3287 2.62314C11.0461 3.43696 10.6654 4.45281 10.2811 5.22391C9.2142 7.36435 8.52529 8.72494 6.66539 10.3749C6.32507 10.6768 5.92081 10.892 5.52868 11.047C4.64834 11.3949 4.08239 12.1954 4.22842 12.9256L4.58146 14.6907C4.69288 15.2479 5.10952 15.6942 5.65765 15.8437L11.2574 17.3709C13.2373 17.9109 15.2547 16.6394 15.6218 14.6203L16.3058 10.8586C16.529 9.63096 15.5859 8.50087 14.338 8.50087H12.8336C12.6796 8.50087 12.5342 8.42993 12.4395 8.30857C12.3447 8.18725 12.3112 8.02882 12.3485 7.87949C12.3485 7.87945 12.3485 7.87952 12.3485 7.87949Z" fill="white"/>
</svg>
