<svg width="24" height="24" viewBox="0 0 24 24" fill="none" xmlns="http://www.w3.org/2000/svg">
<path d="M16.4996 5.19868C16.4996 2.75675 15.3595 1 13.4932 1C12.467 1 12.1149 1.60136 11.747 2.99957C11.6719 3.28842 11.635 3.42906 11.596 3.56767C11.495 3.92641 11.3192 4.53716 11.069 5.39868C11.0623 5.42176 11.0524 5.44351 11.0396 5.46358L8.17281 9.94924C7.49476 11.0102 6.49429 11.8257 5.31841 12.2759L4.84513 12.4571C3.5984 12.9344 2.87457 14.2382 3.1287 15.5488L3.53319 17.6349C3.77462 18.88 4.71828 19.8709 5.9501 20.1728L13.5778 22.0423C16.109 22.6627 18.6674 21.1278 19.3113 18.6024L20.7262 13.0533C21.1697 11.314 20.1192 9.54454 18.3799 9.10107C18.1175 9.03416 17.8478 9.00031 17.5769 9.00031H15.7536C16.2497 7.36743 16.4996 6.10764 16.4996 5.19868ZM4.60127 15.2633C4.48576 14.6675 4.81477 14.0749 5.38147 13.8579L5.85475 13.6767C7.33036 13.1118 8.58585 12.0884 9.43674 10.757L12.3035 6.27135C12.3935 6.13046 12.4629 5.97741 12.5095 5.81684C12.7608 4.95183 12.9375 4.33784 13.0399 3.97395C13.083 3.8207 13.1239 3.66525 13.1976 3.38128C13.3875 2.65958 13.4809 2.5 13.4932 2.5C14.3609 2.5 14.9996 3.48407 14.9996 5.19868C14.9996 6.08317 14.6738 7.53413 14.0158 9.51375C13.8544 9.99928 14.2158 10.5003 14.7275 10.5003H17.5769C17.7228 10.5003 17.868 10.5185 18.0093 10.5546C18.9459 10.7934 19.5115 11.7462 19.2727 12.6827L17.8578 18.2318C17.4172 19.9597 15.6668 21.0099 13.9349 20.5854L6.30718 18.7159C5.64389 18.5533 5.13577 18.0198 5.00577 17.3493L4.60127 15.2633Z" fill="#03123A"/>
</svg>
