<svg width="41" height="40" viewBox="0 0 41 40" fill="none" xmlns="http://www.w3.org/2000/svg">
<path d="M20.5208 36.6673C20.5208 36.6673 33.8541 24.8215 33.8541 15.834C33.8541 12.5188 32.4494 9.33935 29.9489 6.99515C27.4484 4.65094 24.057 3.33398 20.5208 3.33398C16.9846 3.33398 13.5932 4.65094 11.0927 6.99515C8.59225 9.33935 7.1875 12.5188 7.1875 15.834C7.1875 24.8215 20.5208 36.6673 20.5208 36.6673Z" fill="white"/>
<path d="M20.5208 36.6673C20.5208 36.6673 33.8541 24.8215 33.8541 15.834C33.8541 12.5188 32.4494 9.33935 29.9489 6.99515C27.4484 4.65094 24.057 3.33398 20.5208 3.33398C16.9846 3.33398 13.5932 4.65094 11.0927 6.99515C8.59225 9.33935 7.1875 12.5188 7.1875 15.834C7.1875 24.8215 20.5208 36.6673 20.5208 36.6673ZM20.5208 22.084C18.7527 22.084 17.057 21.4255 15.8067 20.2534C14.5565 19.0813 13.8541 17.4916 13.8541 15.834C13.8541 14.1764 14.5565 12.5867 15.8067 11.4146C17.057 10.2425 18.7527 9.58398 20.5208 9.58398C22.2889 9.58398 23.9846 10.2425 25.2348 11.4146C26.4851 12.5867 27.1875 14.1764 27.1875 15.834C27.1875 17.4916 26.4851 19.0813 25.2348 20.2534C23.9846 21.4255 22.2889 22.084 20.5208 22.084Z" fill="#1735F5"/>
</svg>
