<svg width="32" height="32" viewBox="0 0 32 32" fill="none" xmlns="http://www.w3.org/2000/svg">
<path d="M32 16C32 7.16344 24.8366 0 16 0C7.16345 0 0 7.16344 0 16C0 24.8366 7.16345 32 16 32C24.8366 32 32 24.8366 32 16Z" fill="white"/>
<path d="M18.75 17.4461C18.75 17.1988 18.8378 16.9858 19.0133 16.8071C19.1888 16.6284 19.4034 16.5391 19.6571 16.5391C19.9107 16.5391 20.1174 16.6284 20.2961 16.8071C20.4748 16.9858 20.5641 17.1988 20.5641 17.4461C20.5641 17.6934 20.4748 17.8993 20.2961 18.0811C20.1174 18.2622 19.9044 18.3532 19.6571 18.3532C19.4097 18.3532 19.1959 18.2622 19.018 18.0811C18.8393 17.9001 18.75 17.6878 18.75 17.4461Z" fill="#03123A"/>
<path d="M22.6778 13.7729V14.8954C22.7528 14.6129 22.8517 14.3784 22.9762 14.1917C23.0998 14.005 23.2323 13.8766 23.3735 13.8072C23.5147 13.7378 23.6654 13.6979 23.8266 13.6859C23.9877 13.6748 24.1433 13.7035 24.2933 13.7721V15.0677C23.8322 14.889 23.4485 14.8706 23.1405 15.0118C22.8326 15.153 22.6786 15.4051 22.6786 15.7673V18.2635H21.2969V13.7721H22.6786L22.6778 13.7729Z" fill="#03123A"/>
<path d="M24.7695 16.347V13.7734H26.1513V16.347C26.1513 16.572 26.2215 16.7515 26.3627 16.8871C26.5039 17.0227 26.6922 17.0898 26.9283 17.0898C27.1644 17.0898 27.3383 17.0219 27.4851 16.8871C27.6319 16.7523 27.7053 16.572 27.7053 16.347V13.7734H29.087V16.347C29.087 16.9398 28.8844 17.4224 28.4783 17.7934C28.0723 18.1651 27.5553 18.3502 26.9283 18.3502C26.3012 18.3502 25.7691 18.1643 25.3695 17.7934C24.969 17.4216 24.7695 16.9398 24.7695 16.347Z" fill="#03123A"/>
<path d="M8.49192 13.0289C8.48235 13.0736 8.49193 13.1222 8.51746 13.1629L8.86527 13.6895C9.08705 14.0293 9.25697 14.1729 9.68138 14.1729C9.79866 14.1729 10.3818 14.1418 10.3818 13.5291V12.3157C10.3818 12.2455 10.3252 12.1889 10.255 12.1889C10.1848 12.1889 10.1281 12.2455 10.1281 12.3157V12.8717C10.1281 12.9052 10.101 12.9324 10.0675 12.9324C10.034 12.9324 10.0069 12.9052 10.0069 12.8717V12.0804C10.0069 12.0102 9.94943 11.9535 9.88003 11.9535C9.81062 11.9535 9.75319 12.0102 9.75319 12.0804V12.7776C9.75319 12.8111 9.72607 12.8382 9.69256 12.8382C9.65906 12.8382 9.63193 12.8111 9.63193 12.7776V11.9862C9.63193 11.916 9.57528 11.8594 9.50508 11.8594C9.43488 11.8594 9.37823 11.916 9.37823 11.9862V12.7776C9.37823 12.8111 9.35112 12.8382 9.31762 12.8382C9.28411 12.8382 9.25699 12.8111 9.25699 12.7776V12.1745C9.25699 12.1043 9.19954 12.0476 9.13013 12.0476C9.06073 12.0476 9.00328 12.1051 9.00328 12.1745V13.289L8.78869 12.9954C8.73604 12.9148 8.63393 12.8869 8.55974 12.9324C8.52623 12.9539 8.50309 12.9874 8.49432 13.0273L8.49192 13.0289Z" fill="#03123A"/>
<path d="M14.3868 15.0262V13.7737H15.7686V20.4438H14.3868V17.0126C14.2656 17.4218 14.0701 17.7465 13.7997 17.9883C13.5293 18.23 13.2093 18.3512 12.8408 18.3512C12.3055 18.3512 11.8619 18.1279 11.5109 17.6819C11.1599 17.236 10.9844 16.6815 10.9844 16.0194C10.9844 15.3572 11.1599 14.8028 11.5109 14.3568C11.8619 13.9109 12.3055 13.6875 12.8408 13.6875C13.2093 13.6875 13.5285 13.8088 13.7997 14.0505C14.0701 14.2922 14.2664 14.6177 14.3868 15.0262ZM13.3593 17.09C13.6585 17.09 13.905 16.9895 14.0981 16.7876C14.2911 16.5858 14.3876 16.3297 14.3876 16.0186C14.3876 15.7074 14.2911 15.4514 14.0981 15.2495C13.905 15.0477 13.6593 14.9472 13.3593 14.9472C13.1001 14.9472 12.8783 15.0493 12.694 15.2535C12.5097 15.4577 12.418 15.713 12.418 16.0178C12.418 16.3225 12.5097 16.5778 12.694 16.782C12.8783 16.9863 13.1001 17.0884 13.3593 17.0884V17.09Z" fill="#03123A"/>
<path d="M9.68116 14.5648C9.42986 14.5648 9.20251 14.501 8.99828 14.3765V16.347C8.99828 16.572 8.92489 16.7515 8.7781 16.8871C8.63131 17.0227 8.44543 17.0898 8.22126 17.0898C7.98512 17.0898 7.79684 17.0219 7.65564 16.8871C7.51443 16.7523 7.44424 16.572 7.44424 16.347V13.7734H6.0625V16.347C6.0625 16.9398 6.26274 17.4224 6.66242 17.7934C7.0629 18.1651 7.58225 18.3502 8.22126 18.3502C8.86027 18.3502 9.36525 18.1643 9.77131 17.7934C10.1774 17.4224 10.38 16.9398 10.38 16.347V14.3662C10.1718 14.4978 9.93883 14.5648 9.68036 14.5648H9.68116Z" fill="#03123A"/>
<path d="M3.97078 13.7768V14.8993C4.04577 14.6169 4.14469 14.3823 4.26915 14.1956C4.3928 14.009 4.52523 13.8805 4.66643 13.8111C4.80764 13.7417 4.95841 13.7018 5.11956 13.6898C5.28071 13.6787 5.43628 13.7074 5.58626 13.776V15.0716C5.12515 14.8929 4.74141 14.8745 4.43347 15.0157C4.12553 15.1569 3.97158 15.409 3.97158 15.7712V18.2674H2.58984V13.776H3.97158L3.97078 13.7768Z" fill="#03123A"/>
<path d="M16.5078 12.5662C16.5078 12.3412 16.5884 12.149 16.7495 11.9878C16.9107 11.8267 17.1037 11.7461 17.3279 11.7461C17.5521 11.7461 17.7452 11.8267 17.9063 11.9878C18.0674 12.149 18.148 12.342 18.148 12.5662C18.148 12.7904 18.0674 12.9762 17.9063 13.1406C17.7452 13.3049 17.5521 13.3871 17.3279 13.3871C17.1037 13.3871 16.9107 13.3049 16.7495 13.1406C16.5884 12.9762 16.5078 12.7848 16.5078 12.5662ZM18.0196 18.2662H16.6379V13.7748H18.0196V18.2662Z" fill="#03123A"/>
</svg>
