<svg width="82" height="28" viewBox="0 0 82 28" fill="none" xmlns="http://www.w3.org/2000/svg">
<path d="M49.7539 18.3348C49.7539 17.5729 50.0236 16.9165 50.5652 16.3669C51.1057 15.8172 51.7655 15.543 52.5458 15.543C53.3261 15.543 53.9641 15.8184 54.5137 16.3669C55.0622 16.9165 55.3376 17.5729 55.3376 18.3348C55.3376 19.0968 55.0622 19.7313 54.5137 20.289C53.9641 20.8478 53.3077 21.1267 52.5458 21.1267C51.7838 21.1267 51.1274 20.8478 50.5778 20.289C50.0281 19.7302 49.7539 19.0795 49.7539 18.3348Z" fill="white"/>
<path d="M61.8537 7.03559V10.4918C62.0843 9.62319 62.3896 8.90142 62.7705 8.32423C63.1515 7.74819 63.5589 7.35345 63.9938 7.14116C64.4275 6.92887 64.8934 6.80495 65.3903 6.76937C65.886 6.7338 66.3656 6.82216 66.8258 7.03559V11.0243C65.4075 10.4746 64.2244 10.4173 63.2755 10.851C62.3265 11.2859 61.8525 12.0605 61.8525 13.1781V20.8629H57.5977V7.03559H61.8525H61.8537Z" fill="white"/>
<path d="M68.2891 14.9597V7.03516H72.544V14.9597C72.544 15.6517 72.7608 16.2059 73.1957 16.6213C73.6295 17.0379 74.2101 17.2467 74.9376 17.2467C75.6651 17.2467 76.201 17.039 76.6531 16.6213C77.1052 16.2048 77.3313 15.6505 77.3313 14.9597V7.03516H81.5862V14.9597C81.5862 16.7854 80.9608 18.2703 79.7112 19.4143C78.4616 20.5572 76.87 21.1298 74.9376 21.1298C73.0053 21.1298 71.3701 20.5584 70.1377 19.4143C68.9053 18.2714 68.2891 16.7866 68.2891 14.9597Z" fill="white"/>
<path d="M18.1802 4.73572C18.1492 4.87342 18.1779 5.02374 18.2582 5.14882L19.3288 6.77023C20.0127 7.8156 20.5337 8.25968 21.8418 8.25968C22.2021 8.25968 23.998 8.16444 23.998 6.2791V2.54286C23.998 2.32713 23.8224 2.15157 23.6067 2.15157C23.3909 2.15157 23.2154 2.32713 23.2154 2.54286V4.25607C23.2154 4.35934 23.1316 4.44196 23.0295 4.44196C22.9274 4.44196 22.8436 4.3582 22.8436 4.25607V1.82109C22.8436 1.60536 22.668 1.42979 22.4523 1.42979C22.2366 1.42979 22.061 1.60536 22.061 1.82109V3.9669C22.061 4.07018 21.9772 4.15394 21.874 4.15394C21.7707 4.15394 21.688 4.07018 21.688 3.9669V1.53192C21.688 1.31619 21.5125 1.14062 21.2968 1.14062C21.081 1.14062 20.9055 1.31619 20.9055 1.53192V3.9669C20.9055 4.07018 20.8217 4.15394 20.7196 4.15394C20.6174 4.15394 20.5337 4.07018 20.5337 3.9669V2.10911C20.5337 1.89338 20.3581 1.71781 20.1424 1.71781C19.9266 1.71781 19.7511 1.89338 19.7511 2.10911V5.54012L19.0901 4.63589C18.9283 4.38803 18.6128 4.30312 18.3867 4.44311C18.2834 4.50852 18.2111 4.61294 18.1847 4.73687L18.1802 4.73572Z" fill="white"/>
<path d="M36.3254 10.8913V7.03575H40.5803V27.5713H36.3254V17.0075C35.9536 18.2663 35.3501 19.268 34.517 20.0128C33.6839 20.7575 32.6994 21.1293 31.5656 21.1293C29.9167 21.1293 28.5512 20.4419 27.4702 19.0684C26.3881 17.6948 25.8477 15.9885 25.8477 13.9494C25.8477 11.9103 26.3881 10.2051 27.4702 8.83043C28.5512 7.45688 29.9167 6.76953 31.5656 6.76953C32.7005 6.76953 33.6839 7.14132 34.517 7.88604C35.3501 8.63076 35.9525 9.63253 36.3254 10.8913ZM33.1606 17.2462C34.0821 17.2462 34.8406 16.9363 35.4338 16.3155C36.0271 15.6947 36.3243 14.9064 36.3243 13.9494C36.3243 12.9924 36.0271 12.2029 35.4338 11.5833C34.8394 10.9625 34.0821 10.6527 33.1606 10.6527C32.3631 10.6527 31.6804 10.9671 31.1135 11.597C30.5455 12.227 30.2621 13.0108 30.2621 13.9506C30.2621 14.8903 30.5455 15.6752 31.1135 16.3041C31.6804 16.934 32.3631 17.2484 33.1606 17.2484V17.2462Z" fill="white"/>
<path d="M21.8347 9.47243C21.0601 9.47243 20.3613 9.27621 19.7336 8.89295V14.9597C19.7336 15.6517 19.5076 16.2059 19.0555 16.6213C18.6034 17.0379 18.0319 17.2467 17.34 17.2467C16.6125 17.2467 16.033 17.039 15.5981 16.6213C15.1632 16.2048 14.9463 15.6505 14.9463 14.9597V7.03516H10.6914V14.9597C10.6914 16.7854 11.3076 18.2703 12.54 19.4143C13.7724 20.5572 15.372 21.1298 17.34 21.1298C19.3079 21.1298 20.8628 20.5584 22.1136 19.4143C23.3632 18.2714 23.9886 16.7866 23.9886 14.9597V8.86082C23.3471 9.26474 22.6311 9.47243 21.8359 9.47243H21.8347Z" fill="white"/>
<path d="M4.25607 7.03559V10.4918C4.48671 9.62319 4.79194 8.90142 5.17291 8.32423C5.55388 7.74819 5.96123 7.35345 6.39613 7.14116C6.82988 6.92887 7.29579 6.80495 7.79265 6.76937C8.28837 6.7338 8.76687 6.82216 9.22817 7.03559V11.0243C7.80986 10.4746 6.62678 10.4173 5.6778 10.851C4.72882 11.2859 4.25492 12.0605 4.25492 13.1781V20.8629H0V7.03559H4.25492H4.25607Z" fill="white"/>
<path d="M42.8555 3.31194C42.8555 2.62 43.1034 2.02674 43.6002 1.52988C44.0959 1.03416 44.6903 0.785156 45.3811 0.785156C46.0719 0.785156 46.6663 1.03416 47.1632 1.52988C47.6589 2.02674 47.9079 2.62 47.9079 3.31194C47.9079 4.00388 47.66 4.57533 47.1632 5.08023C46.6663 5.58512 46.073 5.83757 45.3811 5.83757C44.6892 5.83757 44.0959 5.58512 43.6002 5.08023C43.1034 4.57533 42.8555 3.98552 42.8555 3.31194ZM47.5086 20.8617H43.2537V7.03441H47.5086V20.8617Z" fill="white"/>
</svg>
