<svg width="82" height="28" viewBox="0 0 82 28" fill="none" xmlns="http://www.w3.org/2000/svg">
<path d="M49.7539 18.1551C49.7539 17.3932 50.0236 16.7368 50.5652 16.1872C51.1057 15.6375 51.7655 15.3633 52.5458 15.3633C53.3261 15.3633 53.9641 15.6387 54.5137 16.1872C55.0622 16.7368 55.3376 17.3932 55.3376 18.1551C55.3376 18.9171 55.0622 19.5516 54.5137 20.1093C53.9641 20.6682 53.3077 20.947 52.5458 20.947C51.7838 20.947 51.1274 20.6682 50.5778 20.1093C50.0281 19.5505 49.7539 18.8999 49.7539 18.1551Z" fill="#03123A"/>
<path d="M61.8517 6.85591V10.3122C62.0824 9.4435 62.3876 8.72173 62.7686 8.14454C63.1496 7.5685 63.5569 7.17376 63.9918 6.96147C64.4256 6.74919 64.8915 6.62526 65.3883 6.58969C65.884 6.55411 66.3637 6.64247 66.8238 6.85591V10.8446C65.4055 10.2949 64.2225 10.2376 63.2735 10.6713C62.3245 11.1062 61.8506 11.8808 61.8506 12.9984V20.6832H57.5957V6.85591H61.8506H61.8517Z" fill="#03123A"/>
<path d="M68.2871 14.7801V6.85547H72.542V14.7801C72.542 15.472 72.7589 16.0262 73.1938 16.4416C73.6275 16.8582 74.2082 17.067 74.9357 17.067C75.6632 17.067 76.1991 16.8593 76.6512 16.4416C77.1033 16.0251 77.3294 15.4709 77.3294 14.7801V6.85547H81.5843V14.7801C81.5843 16.6057 80.9589 18.0906 79.7093 19.2346C78.4596 20.3775 76.8681 20.9501 74.9357 20.9501C73.0033 20.9501 71.3681 20.3787 70.1357 19.2346C68.9033 18.0917 68.2871 16.6069 68.2871 14.7801Z" fill="#03123A"/>
<path d="M18.1802 4.55603C18.1492 4.69373 18.1779 4.84406 18.2582 4.96913L19.3288 6.59054C20.0127 7.63591 20.5337 8.07999 21.8418 8.07999C22.2021 8.07999 23.998 7.98475 23.998 6.09942V2.36318C23.998 2.14745 23.8224 1.97188 23.6067 1.97188C23.3909 1.97188 23.2154 2.14745 23.2154 2.36318V4.07638C23.2154 4.17966 23.1316 4.26228 23.0295 4.26228C22.9274 4.26228 22.8436 4.17851 22.8436 4.07638V1.6414C22.8436 1.42567 22.668 1.2501 22.4523 1.2501C22.2366 1.2501 22.061 1.42567 22.061 1.6414V3.78722C22.061 3.89049 21.9772 3.97425 21.874 3.97425C21.7707 3.97425 21.688 3.89049 21.688 3.78722V1.35223C21.688 1.1365 21.5125 0.960938 21.2968 0.960938C21.081 0.960938 20.9055 1.1365 20.9055 1.35223V3.78722C20.9055 3.89049 20.8217 3.97425 20.7196 3.97425C20.6174 3.97425 20.5337 3.89049 20.5337 3.78722V1.92942C20.5337 1.71369 20.3581 1.53813 20.1424 1.53813C19.9266 1.53813 19.7511 1.71369 19.7511 1.92942V5.36043L19.0901 4.4562C18.9283 4.20834 18.6128 4.12343 18.3867 4.26343C18.2834 4.32883 18.2111 4.43325 18.1847 4.55718L18.1802 4.55603Z" fill="#03123A"/>
<path d="M36.3254 10.7116V6.85606H40.5803V27.3916H36.3254V16.8278C35.9536 18.0866 35.3501 19.0883 34.517 19.8331C33.6839 20.5778 32.6994 20.9496 31.5656 20.9496C29.9167 20.9496 28.5512 20.2622 27.4702 18.8887C26.3881 17.5151 25.8477 15.8088 25.8477 13.7697C25.8477 11.7306 26.3881 10.0254 27.4702 8.65074C28.5512 7.27719 29.9167 6.58984 31.5656 6.58984C32.7005 6.58984 33.6839 6.96163 34.517 7.70635C35.3501 8.45108 35.9525 9.45284 36.3254 10.7116ZM33.1606 17.0665C34.0821 17.0665 34.8406 16.7566 35.4338 16.1358C36.0271 15.5151 36.3243 14.7267 36.3243 13.7697C36.3243 12.8127 36.0271 12.0232 35.4338 11.4036C34.8394 10.7828 34.0821 10.473 33.1606 10.473C32.3631 10.473 31.6804 10.7874 31.1135 11.4174C30.5455 12.0473 30.2621 12.8311 30.2621 13.7709C30.2621 14.7107 30.5455 15.4955 31.1135 16.1244C31.6804 16.7543 32.3631 17.0688 33.1606 17.0688V17.0665Z" fill="#03123A"/>
<path d="M21.8328 9.29274C21.0582 9.29274 20.3594 9.09652 19.7317 8.71326V14.7801C19.7317 15.472 19.5056 16.0262 19.0535 16.4416C18.6014 16.8582 18.03 17.067 17.338 17.067C16.6105 17.067 16.031 16.8593 15.5961 16.4416C15.1612 16.0251 14.9443 15.4709 14.9443 14.7801V6.85547H10.6895V14.7801C10.6895 16.6057 11.3056 18.0906 12.5381 19.2346C13.7705 20.3775 15.3701 20.9501 17.338 20.9501C19.306 20.9501 20.8608 20.3787 22.1116 19.2346C23.3612 18.0917 23.9866 16.6069 23.9866 14.7801V8.68113C23.3452 9.08505 22.6291 9.29274 21.8339 9.29274H21.8328Z" fill="#03123A"/>
<path d="M4.25607 6.85591V10.3122C4.48671 9.4435 4.79194 8.72173 5.17291 8.14454C5.55388 7.5685 5.96123 7.17376 6.39613 6.96147C6.82988 6.74919 7.29579 6.62526 7.79265 6.58969C8.28837 6.55411 8.76687 6.64247 9.22817 6.85591V10.8446C7.80986 10.2949 6.62678 10.2376 5.6778 10.6713C4.72882 11.1062 4.25492 11.8808 4.25492 12.9984V20.6832H0V6.85591H4.25492H4.25607Z" fill="#03123A"/>
<path d="M42.8555 3.13225C42.8555 2.44031 43.1034 1.84706 43.6002 1.35019C44.0959 0.854474 44.6903 0.605469 45.3811 0.605469C46.0719 0.605469 46.6663 0.854474 47.1632 1.35019C47.6589 1.84706 47.9079 2.44031 47.9079 3.13225C47.9079 3.82419 47.66 4.39564 47.1632 4.90054C46.6663 5.40544 46.073 5.65789 45.3811 5.65789C44.6892 5.65789 44.0959 5.40544 43.6002 4.90054C43.1034 4.39564 42.8555 3.80583 42.8555 3.13225ZM47.5086 20.682H43.2537V6.85472H47.5086V20.682Z" fill="#03123A"/>
</svg>
