<svg width="40" height="24" viewBox="0 0 40 24" fill="none" xmlns="http://www.w3.org/2000/svg">
<path d="M25.1775 2.57031H14.4004V21.4303H25.1775V2.57031Z" fill="#FF5A00"/>
<path d="M15.1393 12C15.1393 8.167 16.9782 4.765 19.8 2.567C17.7233 0.967 15.1036 0 12.2462 0C5.4771 0 0 5.367 0 12C0 18.633 5.4771 24 12.2462 24C15.1036 24 17.7233 23.033 19.8 21.433C16.9743 19.266 15.1393 15.833 15.1393 12Z" fill="#EB001B"/>
<path d="M39.6008 12C39.6008 18.633 34.1237 24 27.3546 24C24.4971 24 21.8775 23.033 19.8008 21.433C22.6582 19.2311 24.4615 15.833 24.4615 12C24.4615 8.167 22.6226 4.765 19.8008 2.567C21.8735 0.967 24.4932 0 27.3506 0C34.1237 0 39.6008 5.4019 39.6008 12Z" fill="#F79E1B"/>
</svg>
