<svg width="77" height="21" viewBox="0 0 77 21" fill="none" xmlns="http://www.w3.org/2000/svg">
<path fill-rule="evenodd" clip-rule="evenodd" d="M7.0947 0.00364088C7.7802 -0.000459118 9.8172 -0.184559 10.6801 2.73754C11.2613 4.70604 12.1872 7.93034 13.4577 12.4106H13.9751C15.3376 7.68724 16.2735 4.46284 16.783 2.73754C17.6548 -0.215059 19.8344 0.00364088 20.7062 0.00364088H27.4327V21H20.5769V8.62654H20.1172L16.2954 21H11.1373L7.3155 8.61734H6.8558V21H0V0.00364088H7.0947ZM37.2775 0.00364088V12.3863H37.8244L42.4733 2.20414C43.3757 0.17794 45.299 0.00364088 45.299 0.00364088H51.9334V21H44.9344V8.61734H44.3875L39.8298 18.7995C38.9274 20.8166 36.9129 21 36.9129 21H30.2785V0.00364088H37.2775ZM76.125 9.98134C75.1487 12.7574 72.0828 14.7455 68.6884 14.7455H61.3486V21H54.693V9.98134H76.125Z" fill="#0F754E"/>
<path fill-rule="evenodd" clip-rule="evenodd" d="M69.4607 0H55.125C55.4662 4.7143 59.3877 8.75 63.4473 8.75H76.8684C77.6429 4.8319 74.9767 0 69.4607 0Z" fill="url(#paint0_linear_216_1908)"/>
<defs>
<linearGradient id="paint0_linear_216_1908" x1="2242.63" y1="550.413" x2="55.125" y2="550.413" gradientUnits="userSpaceOnUse">
<stop stop-color="#1F5CD7"/>
<stop offset="1" stop-color="#02AEFF"/>
</linearGradient>
</defs>
</svg>
