<svg width="81" height="26" viewBox="0 0 81 26" fill="none" xmlns="http://www.w3.org/2000/svg">
<path d="M44.5781 17.7241C44.5781 17.0414 44.8197 16.4534 45.305 15.9609C45.7893 15.4684 46.3805 15.2227 47.0796 15.2227C47.7788 15.2227 48.3504 15.4694 48.8429 15.9609C49.3343 16.4534 49.5811 17.0414 49.5811 17.7241C49.5811 18.4068 49.3343 18.9754 48.8429 19.4751C48.3504 19.9758 47.7623 20.2256 47.0796 20.2256C46.3969 20.2256 45.8088 19.9758 45.3163 19.4751C44.8238 18.9744 44.5781 18.3914 44.5781 17.7241Z" fill="#03123A"/>
<path d="M55.4188 7.60086V10.6976C55.6255 9.91933 55.899 9.27262 56.2403 8.75547C56.5817 8.23934 56.9467 7.88565 57.3364 7.69545C57.725 7.50524 58.1424 7.3942 58.5876 7.36233C59.0318 7.33045 59.4615 7.40962 59.8738 7.60086V11.1747C58.603 10.6822 57.543 10.6308 56.6927 11.0194C55.8425 11.4091 55.4178 12.1031 55.4178 13.1045V19.99H51.6055V7.60086H55.4178H55.4188Z" fill="#03123A"/>
<path d="M61.1836 14.698V7.59766H64.996V14.698C64.996 15.318 65.1903 15.8146 65.5799 16.1868C65.9686 16.56 66.4888 16.7471 67.1407 16.7471C67.7925 16.7471 68.2726 16.561 68.6777 16.1868C69.0828 15.8136 69.2854 15.317 69.2854 14.698V7.59766H73.0977V14.698C73.0977 16.3338 72.5374 17.6642 71.4178 18.6893C70.2981 19.7133 68.8721 20.2264 67.1407 20.2264C65.4093 20.2264 63.9442 19.7144 62.8399 18.6893C61.7357 17.6653 61.1836 16.3348 61.1836 14.698Z" fill="#03123A"/>
<path d="M16.2883 5.53759C16.2605 5.66096 16.2862 5.79565 16.3582 5.90772L17.3175 7.36049C17.9302 8.29713 18.397 8.69502 19.5691 8.69502C19.8919 8.69502 21.501 8.60969 21.501 6.92044V3.5728C21.501 3.37951 21.3437 3.2222 21.1504 3.2222C20.9571 3.2222 20.7998 3.37951 20.7998 3.5728V5.10782C20.7998 5.20035 20.7247 5.27438 20.6332 5.27438C20.5417 5.27438 20.4667 5.19933 20.4667 5.10782V2.9261C20.4667 2.7328 20.3094 2.5755 20.1161 2.5755C19.9228 2.5755 19.7655 2.7328 19.7655 2.9261V4.84873C19.7655 4.94126 19.6904 5.01631 19.5979 5.01631C19.5053 5.01631 19.4313 4.94126 19.4313 4.84873V2.667C19.4313 2.47371 19.274 2.31641 19.0807 2.31641C18.8874 2.31641 18.7301 2.47371 18.7301 2.667V4.84873C18.7301 4.94126 18.6551 5.01631 18.5636 5.01631C18.4721 5.01631 18.397 4.94126 18.397 4.84873V3.18416C18.397 2.99087 18.2397 2.83356 18.0464 2.83356C17.8531 2.83356 17.6958 2.99087 17.6958 3.18416V6.25832L17.1036 5.44814C16.9586 5.22606 16.6759 5.14998 16.4733 5.27541C16.3808 5.33401 16.316 5.42757 16.2924 5.53861L16.2883 5.53759Z" fill="#03123A"/>
<path d="M32.5482 11.0564V7.60181H36.3605V26.0015H32.5482V16.5364C32.215 17.6643 31.6742 18.5618 30.9278 19.2291C30.1814 19.8964 29.2992 20.2295 28.2834 20.2295C26.806 20.2295 25.5825 19.6136 24.614 18.3829C23.6444 17.1523 23.1602 15.6234 23.1602 13.7964C23.1602 11.9694 23.6444 10.4415 24.614 9.20983C25.5825 7.97914 26.806 7.36328 28.2834 7.36328C29.3003 7.36328 30.1814 7.6964 30.9278 8.36366C31.6742 9.03093 32.214 9.9285 32.5482 11.0564ZM29.7125 16.7502C30.5381 16.7502 31.2177 16.4727 31.7493 15.9164C32.2808 15.3602 32.5471 14.6539 32.5471 13.7964C32.5471 12.9389 32.2808 12.2315 31.7493 11.6764C31.2167 11.1201 30.5381 10.8425 29.7125 10.8425C28.998 10.8425 28.3862 11.1242 27.8783 11.6887C27.3694 12.2531 27.1154 12.9554 27.1154 13.7974C27.1154 14.6395 27.3694 15.3427 27.8783 15.9061C28.3862 16.4706 28.998 16.7523 29.7125 16.7523V16.7502Z" fill="#03123A"/>
<path d="M19.5624 9.78534C18.8684 9.78534 18.2423 9.60953 17.6799 9.26613V14.7019C17.6799 15.3219 17.4774 15.8185 17.0723 16.1907C16.6672 16.5639 16.1552 16.751 15.5352 16.751C14.8834 16.751 14.3641 16.5649 13.9745 16.1907C13.5848 15.8175 13.3905 15.3209 13.3905 14.7019V7.60156H9.57812V14.7019C9.57812 16.3377 10.1302 17.6681 11.2345 18.6932C12.3387 19.7172 13.7719 20.2303 15.5352 20.2303C17.2985 20.2303 18.6916 19.7183 19.8123 18.6932C20.9319 17.6692 21.4923 16.3387 21.4923 14.7019V9.23734C20.9175 9.59925 20.276 9.78534 19.5635 9.78534H19.5624Z" fill="#03123A"/>
<path d="M3.8134 7.60086V10.6976C4.02006 9.91933 4.29354 9.27262 4.63489 8.75547C4.97623 8.23934 5.34122 7.88565 5.73088 7.69545C6.11952 7.50524 6.53697 7.3942 6.98215 7.36233C7.42631 7.33045 7.85505 7.40962 8.26836 7.60086V11.1747C6.99758 10.6822 5.93754 10.6308 5.08726 11.0194C4.23699 11.4091 3.81237 12.1031 3.81237 13.1045V19.99H0V7.60086H3.81237H3.8134Z" fill="#03123A"/>
<path d="M42.5663 19.9907H38.7539V7.60156H42.5663V19.9907Z" fill="#03123A"/>
<g clip-path="url(#clip0_18896_207438)">
<path d="M42.4 6.1125C43.3941 5.11839 43.3941 3.50661 42.4 2.5125C41.4059 1.51839 39.7941 1.51839 38.8 2.5125C37.8059 3.50661 37.8059 5.11839 38.8 6.1125C39.7941 7.10661 41.4059 7.10661 42.4 6.1125Z" fill="url(#paint0_radial_18896_207438)"/>
<path style="mix-blend-mode:screen" d="M42.4 6.1125C43.3941 5.11839 43.3941 3.50661 42.4 2.5125C41.4059 1.51839 39.7941 1.51839 38.8 2.5125C37.8059 3.50661 37.8059 5.11839 38.8 6.1125C39.7941 7.10661 41.4059 7.10661 42.4 6.1125Z" fill="url(#paint1_radial_18896_207438)"/>
<g style="mix-blend-mode:soft-light" opacity="0.97">
<path d="M38.81 2.61853C38.81 2.61853 39.3905 2.53027 40.0097 3.10255C40.6302 3.67482 40.9653 4.74766 41.5927 5.1255C42.2216 5.50334 43.0338 5.05242 43.0338 5.05242C43.0338 5.05242 43.333 2.67645 41.5307 1.99937C39.8414 1.36504 38.8086 2.61991 38.8086 2.61991L38.81 2.61853Z" fill="#F5DDC4"/>
</g>
<path d="M41.8164 2.92282C41.8164 2.92282 42.0688 3.37237 42.1308 4.06461L42.9899 4.15011C42.9899 4.15011 42.9472 3.36685 42.4673 2.78906L41.8178 2.92282H41.8164Z" fill="white"/>
<path d="M41.7556 2.91016H41.4453C41.4453 2.91016 41.6522 3.63963 41.5998 4.07677H42.0245C42.0245 4.07677 42.059 3.33074 41.7556 2.91016Z" fill="white"/>
<path d="M38.2131 4.3125C38.2131 4.3125 38.1345 5.24331 38.9205 6.03622C39.7631 6.88567 41.16 6.7588 41.2593 6.67882C41.2593 6.67882 38.6185 6.91462 38.2131 4.3125Z" fill="#FFA4E9"/>
<g style="mix-blend-mode:soft-light">
<path d="M42.082 6.25011C42.082 6.25011 42.9453 5.74264 43.0542 4.70703C43.0542 4.70703 42.7812 5.61026 42.082 6.25011Z" fill="white"/>
</g>
<path d="M38.2109 4.07653C38.2109 4.07653 38.2661 2.34591 39.9402 1.91016C39.9402 1.91016 38.6481 2.33626 38.2109 4.07653Z" fill="#90A4FF"/>
<g style="mix-blend-mode:multiply" opacity="0.87">
<path fill-rule="evenodd" clip-rule="evenodd" d="M39.1445 2.22466C39.1445 2.22466 41.4598 2.20397 42.2431 2.37083C42.2431 2.37083 41.9218 1.95438 41.0627 1.76822C40.2036 1.58205 39.1459 2.22466 39.1459 2.22466H39.1445Z" fill="#AB2A92"/>
</g>
<path fill-rule="evenodd" clip-rule="evenodd" d="M40.3906 1.76953L40.6016 0.977998C40.6016 0.977998 41.4662 0.866301 42.1323 1.41927L41.8978 2.12255C41.8978 2.12255 41.0374 2.2894 40.392 1.76815L40.3906 1.76953Z" fill="url(#paint2_linear_18896_207438)"/>
<path fill-rule="evenodd" clip-rule="evenodd" d="M40.6016 0.974705C40.6016 0.974705 41.2524 1.45872 42.1322 1.41598C42.1322 1.41598 41.6923 0.908514 40.6016 0.974705Z" fill="#C5D3FF"/>
<path d="M41.7609 1.34873L41.6533 1.26185C41.7939 1.08672 42.1387 0.575123 42.0408 0.313118C42.0091 0.227621 41.9305 0.175219 41.7995 0.150398C41.6147 0.115923 41.4726 0.14764 41.3637 0.245547C41.0921 0.491005 41.132 1.06604 41.1334 1.07155L40.9955 1.08259C40.9928 1.05638 40.95 0.433089 41.2713 0.143505C41.412 0.016639 41.5981 -0.0261102 41.8243 0.015259C42.0049 0.0483543 42.1208 0.132471 42.1704 0.264853C42.3124 0.646829 41.8174 1.27702 41.7609 1.34873Z" fill="#9397D3"/>
</g>
<path d="M78.861 20.7873C78.418 21.7508 78.0442 22.3821 78.0442 22.3821L77.0585 22.2049C77.0585 22.2049 75.5025 17.8386 74.3036 16.5428C74.3036 16.5428 73.8412 15.8118 73.1214 14.7043C71.1971 11.7445 67.4316 6.10182 65.8008 4.63715C65.8008 4.63715 69.2174 3.64316 71.7647 4.16923C74.3147 4.69252 79.2763 10.7312 80.1706 13.9983C80.7493 16.1164 79.6833 19.0125 78.861 20.7845V20.7873Z" fill="url(#paint3_radial_18896_207438)"/>
<g style="mix-blend-mode:multiply" opacity="0.5">
<path fill-rule="evenodd" clip-rule="evenodd" d="M78.8639 20.7834C78.4209 21.747 78.0471 22.3782 78.0471 22.3782L77.0614 22.201C77.0614 22.201 75.5054 17.8347 74.3065 16.5389C74.3065 16.5389 73.8441 15.808 73.1242 14.7005L71.0781 6.35547C71.0781 6.35547 75.306 8.13577 76.0785 13.6373L77.4352 12.0037C77.4352 12.0037 79.1297 13.9778 79.1601 15.988C79.1906 17.9372 78.886 20.6173 78.8666 20.7807L78.8639 20.7834Z" fill="#925E90"/>
</g>
<path fill-rule="evenodd" clip-rule="evenodd" d="M75.5664 15.1792C75.248 16.0154 72.7949 17.073 72.6398 17.1395C72.6343 17.1395 72.6315 17.1395 72.6315 17.1395C72.6315 17.1395 70.7958 11.422 69.1041 9.24022C67.4097 7.05844 61 8.78338 61 8.78338C61 8.78338 61.155 6.07831 62.3235 5.15077C63.4946 4.22324 68.0852 4.26754 71.5379 6.65974C72.2993 7.18581 72.9389 7.84754 73.4705 8.56742C73.4705 8.56742 73.4705 8.57295 73.4705 8.57572C75.3477 11.1174 75.8599 14.4012 75.5609 15.1792H75.5664Z" fill="url(#paint4_radial_18896_207438)"/>
<path fill-rule="evenodd" clip-rule="evenodd" d="M79.2592 25.3831C78.351 26.3079 75.7318 26.186 75.286 25.0619C74.9205 24.1399 75.3275 22.7916 76.2274 22.0938C76.424 21.9388 76.6454 21.817 76.8863 21.7394C77.249 21.6204 78.3427 21.6564 78.7054 21.9499C78.8798 22.0883 79.093 22.4012 79.273 22.7916C79.273 22.7916 79.273 22.8026 79.273 22.8054C79.6495 23.6166 79.8655 24.7629 79.2536 25.3831H79.2592Z" fill="url(#paint5_radial_18896_207438)"/>
<g style="mix-blend-mode:soft-light" opacity="0.97">
<path fill-rule="evenodd" clip-rule="evenodd" d="M66.1406 4.54642C66.1406 4.54642 68.8734 4.82329 71.764 6.55653C74.6518 8.28977 72.8908 5.24138 72.2928 4.54642C71.6947 3.85146 68.3778 3.78501 66.1434 4.54642H66.1406Z" fill="#F5DDC4"/>
</g>
<path style="mix-blend-mode:multiply" opacity="0.58" fill-rule="evenodd" clip-rule="evenodd" d="M79.2592 25.3824C78.351 26.3071 75.7318 26.1853 75.286 25.0612C74.9205 24.1392 75.3275 22.7908 76.2274 22.0931L76.244 22.082C76.244 22.082 75.5573 23.5827 76.244 24.477C76.9334 25.3713 78.7386 25.4793 79.1539 24.8923C79.5388 24.3496 79.3118 22.921 79.2785 22.8074C79.6551 23.6187 79.871 24.765 79.2592 25.3852V25.3824Z" fill="url(#paint6_linear_18896_207438)"/>
<g style="mix-blend-mode:soft-light">
<path d="M73.7109 5.54183C73.7109 5.54183 77.2245 8.98339 78.8664 11.6635C80.5082 14.3437 80.0209 16.5172 80.0209 16.5172C80.0209 16.5172 80.0209 14.2717 77.6869 11.3258C75.3528 8.3798 73.7109 5.53906 73.7109 5.53906V5.54183Z" fill="#4FFFFF"/>
</g>
<g style="mix-blend-mode:soft-light">
<path d="M67.0859 4.59884C67.0859 4.59884 70.2063 3.99802 72.294 4.549C72.294 4.549 68.9161 4.59053 67.0859 4.59884Z" fill="#F5FFFF"/>
</g>
<defs>
<radialGradient id="paint0_radial_18896_207438" cx="0" cy="0" r="1" gradientUnits="userSpaceOnUse" gradientTransform="translate(40.5103 5.83331) scale(3.72323)">
<stop stop-color="#FF1C43"/>
<stop offset="0.7" stop-color="#BD0A47"/>
<stop offset="0.94" stop-color="#BD0AA9"/>
</radialGradient>
<radialGradient id="paint1_radial_18896_207438" cx="0" cy="0" r="1" gradientUnits="userSpaceOnUse" gradientTransform="translate(40.6 4.3123) scale(2.54558)">
<stop offset="0.69"/>
<stop offset="0.8" stop-color="#010101"/>
<stop offset="0.85" stop-color="#080608"/>
<stop offset="0.88" stop-color="#140F14"/>
<stop offset="0.9" stop-color="#251D25"/>
<stop offset="0.92" stop-color="#3B2E3B"/>
<stop offset="0.94" stop-color="#564356"/>
<stop offset="0.96" stop-color="#775C77"/>
<stop offset="0.97" stop-color="#9C7A9C"/>
<stop offset="0.99" stop-color="#C79CC7"/>
<stop offset="1" stop-color="#FFC7FF"/>
</radialGradient>
<linearGradient id="paint2_linear_18896_207438" x1="41.2608" y1="2.14875" x2="41.2608" y2="0.968345" gradientUnits="userSpaceOnUse">
<stop offset="0.02" stop-color="#879FB8"/>
<stop offset="0.97" stop-color="#858BE2"/>
</linearGradient>
<radialGradient id="paint3_radial_18896_207438" cx="0" cy="0" r="1" gradientUnits="userSpaceOnUse" gradientTransform="translate(72.9635 8.98132) scale(8.58313 8.58313)">
<stop stop-color="#FF3143"/>
<stop offset="1" stop-color="#E30A47"/>
</radialGradient>
<radialGradient id="paint4_radial_18896_207438" cx="0" cy="0" r="1" gradientUnits="userSpaceOnUse" gradientTransform="translate(68.3234 10.8655) scale(6.81944)">
<stop offset="0.98" stop-color="#E4DEEC"/>
<stop offset="1" stop-color="#DEDBEB"/>
</radialGradient>
<radialGradient id="paint5_radial_18896_207438" cx="0" cy="0" r="1" gradientUnits="userSpaceOnUse" gradientTransform="translate(77.3958 23.8381) scale(2.20393 2.20393)">
<stop offset="0.98" stop-color="#E4DEEC"/>
<stop offset="1" stop-color="#DEDBEB"/>
</radialGradient>
<linearGradient id="paint6_linear_18896_207438" x1="75.1503" y1="24.0395" x2="79.644" y2="24.0395" gradientUnits="userSpaceOnUse">
<stop stop-color="#9775BA"/>
<stop offset="1" stop-color="#FFEADB"/>
</linearGradient>
<clipPath id="clip0_18896_207438">
<rect width="5.2" height="7" fill="white" transform="translate(38)"/>
</clipPath>
</defs>
</svg>
