<svg width="24" height="24" viewBox="0 0 24 24" fill="none" xmlns="http://www.w3.org/2000/svg">
<path d="M12.0016 1.99902C17.5253 1.99902 22.0031 6.47687 22.0031 12.0006C22.0031 17.5243 17.5253 22.0021 12.0016 22.0021C6.47785 22.0021 2 17.5243 2 12.0006C2 6.47687 6.47785 1.99902 12.0016 1.99902ZM11.9977 10.2496C11.4849 10.2499 11.0625 10.6363 11.005 11.1336L10.9984 11.2503L11.002 16.7519L11.0088 16.8685C11.0669 17.3658 11.4898 17.7515 12.0027 17.7512C12.5155 17.7509 12.9379 17.3645 12.9953 16.8672L13.002 16.7505L12.9984 11.249L12.9916 11.1323C12.9335 10.635 12.5106 10.2493 11.9977 10.2496ZM12.002 6.50006C11.3108 6.50006 10.7505 7.06038 10.7505 7.75158C10.7505 8.44277 11.3108 9.0031 12.002 9.0031C12.6932 9.0031 13.2535 8.44277 13.2535 7.75158C13.2535 7.06038 12.6932 6.50006 12.002 6.50006Z" fill="#EB4D3D"/>
</svg>
