<svg width="48" height="48" viewBox="0 0 48 48" fill="none" xmlns="http://www.w3.org/2000/svg">
<rect width="48" height="48" rx="24" fill="#71D472"/>
<path d="M25.0725 13.3565C25.0725 12.6073 24.4734 12 23.7345 12C22.9956 12 22.3965 12.6073 22.3965 13.3565V21.7492C22.3965 21.9412 22.286 22.1154 22.1182 22.2086C21.7952 22.388 21.3673 22.1684 21.3673 21.799V15.2348C21.3673 14.4856 20.7683 13.8783 20.0294 13.8783C19.2904 13.8783 18.6914 14.4856 18.6914 15.2348V26.8217C18.3679 26.5596 18.0806 26.2505 17.84 25.902L16.2986 23.6702C15.7663 22.8994 14.7184 22.7121 13.9581 23.2518C13.1979 23.7916 13.0131 24.854 13.5455 25.6248C13.5455 25.6248 18.3017 33.0353 19.507 34.2568C20.7123 35.4783 22.2282 36 25.8958 36C29.5635 36 32.4828 33.01 32.4828 29.3217V29.0108C32.4828 29.0101 32.4828 29.0094 32.4828 29.0087V16.6957C32.4828 15.9465 31.8837 15.3391 31.1448 15.3391C30.4059 15.3391 29.8068 15.9465 29.8068 16.6957V21.7724C29.8068 22.1528 29.366 22.3791 29.0327 22.1957C28.8787 22.1111 28.7776 21.9515 28.7776 21.7758V14.1913C28.7776 13.4421 28.1786 12.8348 27.4397 12.8348C26.7007 12.8348 26.1017 13.4421 26.1017 14.1913V20.8799C26.1017 21.1641 25.8713 21.3945 25.5871 21.3945C25.3029 21.3945 25.0725 21.1641 25.0725 20.8799V13.3565Z" fill="white"/>
</svg>
