<svg width="32" height="32" viewBox="0 0 32 32" fill="none" xmlns="http://www.w3.org/2000/svg">
<rect width="32" height="32" rx="4" fill="#34AB35"/>
<path d="M17.8557 6.59534C17.9445 6.48261 18.1098 6.46762 18.2175 6.56254L19.1385 7.37473L16.2383 11H18.1592L20.2648 8.36797L21.917 9.82489C22.0186 9.9145 22.0304 10.0687 21.9435 10.1727L21.2523 11H23.1965C23.6905 10.2789 23.5778 9.28948 22.9091 8.69984L19.2096 5.43749C18.4561 4.77305 17.2991 4.87796 16.6775 5.66709L12.4762 11H14.3858L17.8557 6.59534ZM19.75 18C19.3358 18 19 18.3358 19 18.75C19 19.1642 19.3358 19.5 19.75 19.5H21.75C22.1642 19.5 22.5 19.1642 22.5 18.75C22.5 18.3358 22.1642 18 21.75 18H19.75ZM8 11.25C8 10.8358 8.33579 10.5 8.75 10.5H11.8784L13.07 9H8.75C7.50736 9 6.5 10.0074 6.5 11.25V21.75C6.5 23.5449 7.95507 25 9.75 25H21.75C23.5449 25 25 23.5449 25 21.75V15.25C25 13.4551 23.5449 12 21.75 12L8.75 12C8.33579 12 8 11.6642 8 11.25ZM8 21.75V13.372C8.23458 13.4549 8.48702 13.5 8.75 13.5H21.75C22.7165 13.5 23.5 14.2835 23.5 15.25V21.75C23.5 22.7165 22.7165 23.5 21.75 23.5H9.75C8.7835 23.5 8 22.7165 8 21.75Z" fill="white"/>
</svg>
