<svg width="120" height="120" viewBox="0 0 120 120" fill="none" xmlns="http://www.w3.org/2000/svg">
<path d="M96.9581 43.1728V55.5984C96.9581 55.8471 97.0569 56.0855 97.2327 56.2613C97.4085 56.4372 97.647 56.5359 97.8956 56.5359C98.1443 56.5359 98.3827 56.4372 98.5586 56.2613C98.7344 56.0855 98.8331 55.8471 98.8331 55.5984V43.1728C98.8331 42.9242 98.7344 42.6857 98.5586 42.5099C98.3827 42.3341 98.1443 42.2353 97.8956 42.2353C97.647 42.2353 97.4085 42.3341 97.2327 42.5099C97.0569 42.6857 96.9581 42.9242 96.9581 43.1728ZM91.605 101.313C91.182 102.289 90.6999 103.239 90.1613 104.157C90.0783 104.295 89.9609 104.41 89.8206 104.489C89.6802 104.568 89.5218 104.609 89.3606 104.609L27.6806 104.611C27.5189 104.611 27.3599 104.569 27.2191 104.489C27.0783 104.409 26.9606 104.295 26.8774 104.156C26.7941 104.017 26.7482 103.859 26.7441 103.697C26.7399 103.536 26.7777 103.376 26.8538 103.233L26.8781 103.186C32.76 90.4153 33.2081 68.1891 33.2081 68.1891V57.4416C33.2081 57.1929 33.1094 56.9545 32.9336 56.7786C32.7577 56.6028 32.5193 56.5041 32.2706 56.5041C32.022 56.5041 31.7836 56.6028 31.6077 56.7786C31.4319 56.9545 31.3331 57.1929 31.3331 57.4416V68.1609C31.3238 68.6409 30.8663 90.0122 25.1888 102.37C24.9659 102.799 24.857 103.278 24.8726 103.761C24.8881 104.243 25.0277 104.714 25.2778 105.128C25.5279 105.541 25.8801 105.883 26.3006 106.121C26.721 106.359 27.1957 106.484 27.6788 106.486L89.3606 106.484C90.3469 106.484 91.26 105.968 91.7682 105.125L91.7719 105.117C92.3307 104.174 92.8481 103.15 93.3225 102.067C93.372 101.954 93.3988 101.832 93.4014 101.709C93.4039 101.586 93.3822 101.464 93.3375 101.349C93.2927 101.234 93.2258 101.129 93.1406 101.041C93.0553 100.952 92.9534 100.88 92.8406 100.831C92.7279 100.781 92.6065 100.755 92.4833 100.752C92.3602 100.75 92.2378 100.771 92.123 100.816C92.0083 100.861 91.9035 100.928 91.8146 101.013C91.7257 101.098 91.6545 101.2 91.605 101.313ZM33.2081 20.5341V16.3359C33.2081 16.0873 33.3069 15.8488 33.4827 15.673C33.6586 15.4972 33.897 15.3984 34.1456 15.3984H71.7619C72.0105 15.3984 72.249 15.2997 72.4248 15.1239C72.6006 14.948 72.6994 14.7096 72.6994 14.4609C72.6994 14.2123 72.6006 13.9738 72.4248 13.798C72.249 13.6222 72.0105 13.5234 71.7619 13.5234H34.1456C33.3997 13.5234 32.6844 13.8198 32.1569 14.3472C31.6295 14.8746 31.3331 15.59 31.3331 16.3359V20.5341C31.3331 20.7827 31.4319 21.0212 31.6077 21.197C31.7836 21.3728 32.022 21.4716 32.2706 21.4716C32.5193 21.4716 32.7577 21.3728 32.9336 21.197C33.1094 21.0212 33.2081 20.7827 33.2081 20.5341Z" fill="#03123A"/>
<path d="M76.452 13.5195H76.4351C76.2959 13.5196 76.1585 13.5507 76.0328 13.6107C75.9072 13.6706 75.7965 13.7578 75.7088 13.866C75.6211 13.9741 75.5587 14.1005 75.5261 14.2358C75.4934 14.3711 75.4914 14.5121 75.5202 14.6483C76.902 21.2502 77.5808 27.9308 76.9114 34.7614C76.8699 35.152 76.9109 35.5469 77.0319 35.9205C77.1529 36.2942 77.3511 36.6382 77.6137 36.9303C77.8762 37.2224 78.1973 37.456 78.556 37.616C78.9147 37.776 79.303 37.8587 79.6958 37.8589H79.7351C79.8701 37.857 80.0051 37.8458 80.1401 37.8252C82.4443 37.4539 84.7738 37.2621 87.1077 37.2514H87.2445C90.7733 37.2702 94.2233 37.812 97.5533 39.1264C97.6616 39.1683 97.7765 39.1905 97.8926 39.192H97.9095C98.0727 39.19 98.2326 39.1454 98.3733 39.0627C98.514 38.9799 98.6307 38.8619 98.7117 38.7202C98.7928 38.5785 98.8355 38.4181 98.8355 38.2549C98.8356 38.0917 98.793 37.9313 98.712 37.7895C93.4226 28.542 86.1758 20.5189 76.9958 13.7033C76.8386 13.586 76.6482 13.5217 76.452 13.5195Z" fill="#1735F5"/>
<path d="M98.7422 59.0625C87.8747 59.0625 79.0547 67.8844 79.0547 78.75C79.0547 89.6156 87.8747 98.4375 98.7422 98.4375C109.608 98.4375 118.43 89.6156 118.43 78.75C118.43 67.8844 109.608 59.0625 98.7422 59.0625ZM98.7422 60.9375C108.573 60.9375 116.555 68.9194 116.555 78.75C116.555 88.5806 108.573 96.5625 98.7422 96.5625C88.9097 96.5625 80.9297 88.5806 80.9297 78.75C80.9297 68.9194 88.9097 60.9375 98.7422 60.9375Z" fill="#03123A"/>
<path d="M96.8672 69.3333V87.6667C96.8672 88.1529 97.0252 88.6192 97.3065 88.963C97.5878 89.3068 97.9694 89.5 98.3672 89.5C98.765 89.5 99.1465 89.3068 99.4278 88.963C99.7092 88.6192 99.8672 88.1529 99.8672 87.6667V69.3333C99.8672 68.8471 99.7092 68.3808 99.4278 68.037C99.1465 67.6932 98.765 67.5 98.3672 67.5C97.9694 67.5 97.5878 67.6932 97.3065 68.037C97.0252 68.3808 96.8672 68.8471 96.8672 69.3333Z" fill="#1735F5"/>
<path d="M107.659 76.875H89.3255C88.8393 76.875 88.373 77.033 88.0292 77.3143C87.6853 77.5956 87.4922 77.9772 87.4922 78.375C87.4922 78.7728 87.6853 79.1544 88.0292 79.4357C88.373 79.717 88.8393 79.875 89.3255 79.875H107.659C108.145 79.875 108.611 79.717 108.955 79.4357C109.299 79.1544 109.492 78.7728 109.492 78.375C109.492 77.9772 109.299 77.5956 108.955 77.3143C108.611 77.033 108.145 76.875 107.659 76.875Z" fill="#1735F5"/>
<path d="M42.4475 42.7798L46.2912 41.2255C46.8105 41.0153 47.2553 40.6549 47.5684 40.1904C47.8816 39.7259 48.0489 39.1785 48.0489 38.6183C48.0489 38.0581 47.8816 37.5106 47.5684 37.0461C47.2553 36.5816 46.8105 36.2212 46.2912 36.0111L42.4512 34.4586C39.7682 33.3746 37.3308 31.7617 35.2844 29.7158C33.2379 27.67 31.6242 25.2331 30.5394 22.5505L28.9831 18.703C28.773 18.1836 28.4126 17.7389 27.9481 17.4258C27.4836 17.1126 26.9361 16.9453 26.3759 16.9453C25.8157 16.9453 25.2683 17.1126 24.8038 17.4258C24.3393 17.7389 23.9788 18.1836 23.7687 18.703L22.2181 22.5392C21.1342 25.2222 19.5212 27.6596 17.4754 29.7061C15.4295 31.7526 12.9927 33.3663 10.31 34.4511L6.45686 36.0111C5.93755 36.2212 5.49281 36.5816 5.17966 37.0461C4.86652 37.5106 4.69922 38.0581 4.69922 38.6183C4.69922 39.1785 4.86652 39.7259 5.17966 40.1904C5.49281 40.6549 5.93755 41.0153 6.45686 41.2255L10.3119 42.7855C12.9945 43.8703 15.4314 45.484 17.4772 47.5305C19.5231 49.5769 21.136 52.0143 22.22 54.6973L23.7687 58.5317C23.9788 59.051 24.3393 59.4957 24.8038 59.8089C25.2683 60.122 25.8157 60.2893 26.3759 60.2893C26.9361 60.2893 27.4836 60.122 27.9481 59.8089C28.4126 59.4957 28.773 59.051 28.9831 58.5317L30.5375 54.6898C31.6216 52.0068 33.2348 49.5696 35.281 47.5234C37.3272 45.4772 39.7645 43.8639 42.4475 42.7798ZM45.5881 39.4873L41.7444 41.0417C38.8285 42.2205 36.1796 43.9741 33.9557 46.198C31.7317 48.422 29.9781 51.0708 28.7994 53.9867L27.245 57.8305C27.1748 58.0035 27.0545 58.1516 26.8995 58.2558C26.7446 58.36 26.562 58.4156 26.3753 58.4154C26.1886 58.4152 26.0061 58.3592 25.8514 58.2547C25.6967 58.1501 25.5767 58.0018 25.5069 57.8286L23.9581 53.9961C22.7799 51.0797 21.0267 48.4303 18.8031 46.2057C16.5795 43.9811 13.9308 42.2268 11.015 41.0473L7.15998 39.4873C6.98761 39.4166 6.84016 39.2962 6.73638 39.1415C6.63261 38.9867 6.5772 38.8046 6.5772 38.6183C6.5772 38.4319 6.63261 38.2498 6.73638 38.0951C6.84016 37.9403 6.98761 37.8199 7.15998 37.7492L11.0131 36.1911C13.929 35.0116 16.5776 33.2573 18.8012 31.0327C21.0249 28.8081 22.778 26.1587 23.9562 23.2423L25.5069 19.4061C25.5767 19.2329 25.6967 19.0845 25.8514 18.98C26.0061 18.8754 26.1886 18.8195 26.3753 18.8193C26.562 18.8191 26.7446 18.8746 26.8995 18.9788C27.0545 19.0831 27.1748 19.2312 27.245 19.4042L28.8012 23.2536C29.9804 26.1693 31.7344 28.8179 33.9587 31.0415C36.183 33.2651 38.832 35.0184 41.7481 36.1967L45.5881 37.7492C45.7612 37.8192 45.9095 37.9394 46.0138 38.0942C46.1182 38.2491 46.174 38.4315 46.174 38.6183C46.174 38.805 46.1182 38.9875 46.0138 39.1423C45.9095 39.2972 45.7612 39.4173 45.5881 39.4873ZM64.8781 72.718C65.3219 72.5393 65.7022 72.232 65.9699 71.8356C66.2377 71.4392 66.3808 70.9717 66.3808 70.4933C66.3808 70.0149 66.2377 69.5474 65.9699 69.1509C65.7022 68.7545 65.3219 68.4472 64.8781 68.2686L64.8744 68.2667C62.4688 67.2942 60.2837 65.8475 58.4492 64.0126C56.6147 62.1778 55.1683 59.9924 54.1962 57.5867C54.0169 57.1436 53.7094 56.7642 53.313 56.497C52.9166 56.2299 52.4495 56.0871 51.9715 56.0871C51.4936 56.0871 51.0265 56.2299 50.6301 56.497C50.2337 56.7642 49.9262 57.1436 49.7469 57.5867C48.7752 59.9913 47.3296 62.1757 45.496 64.0099C43.6625 65.8441 41.4786 67.2905 39.0744 68.263L39.0669 68.2667C38.6226 68.4454 38.242 68.753 37.9739 69.1497C37.7059 69.5465 37.5626 70.0144 37.5626 70.4933C37.5626 70.9721 37.7059 71.44 37.9739 71.8368C38.242 72.2336 38.6226 72.5411 39.0669 72.7198L39.0781 72.7236C41.4823 73.6963 43.666 75.143 45.4993 76.9776C47.3325 78.8121 48.7777 80.9968 49.7487 83.4017C49.9261 83.8465 50.2327 84.2279 50.629 84.4966C51.0253 84.7654 51.493 84.9091 51.9718 84.9093C52.4507 84.9095 52.9186 84.7662 53.3151 84.4978C53.7116 84.2293 54.0185 83.8482 54.1962 83.4036L54.1981 83.3961C55.1699 80.991 56.616 78.8062 58.4502 76.972C60.2845 75.1377 62.4693 73.6916 64.8744 72.7198L64.8781 72.718ZM64.175 70.9798L64.1712 70.9817C61.5331 72.0479 59.1366 73.6343 57.1246 75.6463C55.1125 77.6583 53.5262 80.0548 52.46 82.693L52.4562 82.7005C52.4178 82.7976 52.351 82.881 52.2646 82.9398C52.1781 82.9985 52.0761 83.0299 51.9715 83.0299C51.867 83.0299 51.7649 82.9985 51.6785 82.9398C51.5921 82.881 51.5253 82.7976 51.4869 82.7005L51.485 82.6948C50.4191 80.058 48.8336 77.6624 46.823 75.6508C44.8123 73.6392 42.4176 72.0526 39.7812 70.9855L39.77 70.9817C39.6734 70.9417 39.5909 70.8739 39.5328 70.787C39.4747 70.7 39.4437 70.5978 39.4437 70.4933C39.4437 70.3887 39.4747 70.2865 39.5328 70.1996C39.5909 70.1126 39.6734 70.0449 39.77 70.0048L39.7775 70.0011C42.415 68.9346 44.8108 67.348 46.8222 65.336C48.8336 63.324 50.4193 60.9277 51.485 58.2898C51.5241 58.1929 51.5912 58.1098 51.6777 58.0512C51.7643 57.9927 51.8664 57.9613 51.9709 57.9611C52.0754 57.9609 52.1776 57.9919 52.2644 58.0501C52.3512 58.1083 52.4187 58.1912 52.4581 58.288L52.4619 58.2973C53.5284 60.9348 55.1149 63.3307 57.1269 65.342C59.1389 67.3534 61.5353 68.9392 64.1731 70.0048L64.175 70.0067C64.2719 70.046 64.3548 70.1132 64.4132 70.1999C64.4716 70.2866 64.5028 70.3887 64.5028 70.4933C64.5028 70.5978 64.4716 70.6999 64.4132 70.7866C64.3548 70.8733 64.2719 70.9406 64.175 70.9798Z" fill="#03123A"/>
</svg>
