<svg width="24" height="24" viewBox="0 0 24 24" fill="none" xmlns="http://www.w3.org/2000/svg">
<path d="M14.7579 10C15.7244 10 16.5079 10.7835 16.5079 11.75V16.499C16.5079 18.9848 14.4927 21 12.0069 21C9.52102 21 7.50583 18.9848 7.50583 16.499V11.75C7.50583 10.7835 8.28934 10 9.25583 10H14.7579ZM14.7579 11.5H9.25583C9.11776 11.5 9.00583 11.6119 9.00583 11.75V16.499C9.00583 18.1564 10.3494 19.5 12.0069 19.5C13.6643 19.5 15.0079 18.1564 15.0079 16.499V11.75C15.0079 11.6119 14.896 11.5 14.7579 11.5ZM3.75391 10L7.13519 9.99906C6.79182 10.4145 6.56815 10.9325 6.51703 11.5002L3.75391 11.5C3.61584 11.5 3.50391 11.6119 3.50391 11.75V14.9988C3.50391 16.3802 4.62375 17.5 6.00515 17.5C6.20514 17.5 6.39965 17.4765 6.58607 17.4322C6.67077 17.9361 6.82546 18.4167 7.03877 18.864C6.70968 18.953 6.3629 19 6.00515 19C3.79532 19 2.00391 17.2086 2.00391 14.9988V11.75C2.00391 10.7835 2.78741 10 3.75391 10ZM16.8786 9.99906L20.2539 10C21.2204 10 22.0039 10.7835 22.0039 11.75V15C22.0039 17.2091 20.213 19 18.0039 19C17.6475 19 17.3019 18.9534 16.973 18.8659C17.1879 18.4177 17.3427 17.9371 17.4289 17.4331C17.6131 17.477 17.8058 17.5 18.0039 17.5C19.3846 17.5 20.5039 16.3807 20.5039 15V11.75C20.5039 11.6119 20.392 11.5 20.2539 11.5L17.4967 11.5002C17.4456 10.9325 17.2219 10.4145 16.8786 9.99906ZM12.0039 3C13.6608 3 15.0039 4.34315 15.0039 6C15.0039 7.65685 13.6608 9 12.0039 9C10.3471 9 9.00391 7.65685 9.00391 6C9.00391 4.34315 10.3471 3 12.0039 3ZM18.5039 4C19.8846 4 21.0039 5.11929 21.0039 6.5C21.0039 7.88071 19.8846 9 18.5039 9C17.1232 9 16.0039 7.88071 16.0039 6.5C16.0039 5.11929 17.1232 4 18.5039 4ZM5.50391 4C6.88462 4 8.00391 5.11929 8.00391 6.5C8.00391 7.88071 6.88462 9 5.50391 9C4.12319 9 3.00391 7.88071 3.00391 6.5C3.00391 5.11929 4.12319 4 5.50391 4ZM12.0039 4.5C11.1755 4.5 10.5039 5.17157 10.5039 6C10.5039 6.82843 11.1755 7.5 12.0039 7.5C12.8323 7.5 13.5039 6.82843 13.5039 6C13.5039 5.17157 12.8323 4.5 12.0039 4.5ZM18.5039 5.5C17.9516 5.5 17.5039 5.94772 17.5039 6.5C17.5039 7.05228 17.9516 7.5 18.5039 7.5C19.0562 7.5 19.5039 7.05228 19.5039 6.5C19.5039 5.94772 19.0562 5.5 18.5039 5.5ZM5.50391 5.5C4.95162 5.5 4.50391 5.94772 4.50391 6.5C4.50391 7.05228 4.95162 7.5 5.50391 7.5C6.05619 7.5 6.50391 7.05228 6.50391 6.5C6.50391 5.94772 6.05619 5.5 5.50391 5.5Z" fill="white"/>
</svg>
