<svg width="24" height="24" viewBox="0 0 24 24" fill="none" xmlns="http://www.w3.org/2000/svg">
<path d="M5.25391 13.9992L16.2421 14.0004C16.3462 14.172 16.4734 14.3313 16.6229 14.4732L17.3415 15.1553C17.3006 15.3143 17.2474 15.4735 17.1816 15.6331C17.0591 15.5484 16.912 15.4992 16.7534 15.4992H5.25391C4.83969 15.4992 4.50391 15.835 4.50391 16.2492V17.1565C4.50391 17.8122 4.7899 18.4352 5.28707 18.8626C6.54516 19.9443 8.44117 20.5004 11.0004 20.5004C11.292 20.5004 11.5751 20.4931 11.8496 20.4787C11.9312 20.9251 12.1443 21.3498 12.481 21.6879L12.7085 21.9159C12.167 21.9723 11.5976 22.0004 11.0004 22.0004C8.11087 22.0004 5.87205 21.3438 4.30918 20.0001C3.48056 19.2877 3.00391 18.2493 3.00391 17.1565V16.2492C3.00391 15.0066 4.01127 13.9992 5.25391 13.9992ZM17.0109 12.2443L17.5142 11.0574C17.7502 10.5008 18.3156 10.198 18.8701 10.3135L18.9887 10.3448L19.6189 10.5461C20.2439 10.7458 20.7225 11.2812 20.877 11.9535C21.2443 13.5511 20.8036 15.4962 19.555 17.7889C18.3082 20.0782 16.9416 21.4546 15.4553 21.9182C14.8782 22.0982 14.2582 21.9674 13.7919 21.5759L13.6686 21.4627L13.1899 20.9821C12.7751 20.5657 12.6897 19.9069 12.9678 19.3914L13.0385 19.2752L13.7599 18.2152C14.0438 17.7982 14.5295 17.6008 14.9973 17.7005L15.1243 17.7351L16.4563 18.1793C16.9878 17.777 17.431 17.2708 17.7858 16.6604C18.09 16.1373 18.2889 15.6071 18.3826 15.0698L18.4207 14.8005L17.3118 13.7479C16.9464 13.4012 16.8137 12.8612 16.9631 12.3753L17.0109 12.2443L17.5142 11.0574L17.0109 12.2443ZM11.0004 2.00391C13.7618 2.00391 16.0004 4.24248 16.0004 7.00391C16.0004 9.76533 13.7618 12.0039 11.0004 12.0039C8.23894 12.0039 6.00036 9.76533 6.00036 7.00391C6.00036 4.24248 8.23894 2.00391 11.0004 2.00391ZM11.0004 3.50391C9.06737 3.50391 7.50036 5.07091 7.50036 7.00391C7.50036 8.9369 9.06737 10.5039 11.0004 10.5039C12.9334 10.5039 14.5004 8.9369 14.5004 7.00391C14.5004 5.07091 12.9334 3.50391 11.0004 3.50391Z" fill="#263043"/>
</svg>
