<svg width="32" height="32" viewBox="0 0 32 32" fill="none" xmlns="http://www.w3.org/2000/svg">
<rect width="32" height="32" rx="5.33333" fill="#9747FF"/>
<path d="M21.4206 17.339C22.2004 17.339 22.8875 17.736 23.2909 18.3389H17.1663C16.6032 18.3389 16.0837 18.525 15.6658 18.839H9.9188C9.50521 18.839 9.16992 19.1743 9.16992 19.5879V20.1656C9.16992 20.7013 9.36103 21.2194 9.70889 21.6267C10.804 22.9091 12.4431 23.6404 14.6663 23.8046V24.8389C14.6663 25.0002 14.6815 25.158 14.7108 25.3109C12.0337 25.1421 9.97181 24.2445 8.5682 22.6008C7.98844 21.9219 7.66992 21.0584 7.66992 20.1656V19.5879C7.66992 18.3459 8.67678 17.339 9.9188 17.339H21.4206ZM15.6664 5.34375C18.4278 5.34375 20.6664 7.58233 20.6664 10.3438C20.6664 13.1052 18.4278 15.3438 15.6664 15.3438C12.905 15.3438 10.6664 13.1052 10.6664 10.3438C10.6664 7.58233 12.905 5.34375 15.6664 5.34375ZM15.6664 6.84375C13.7334 6.84375 12.1664 8.41075 12.1664 10.3438C12.1664 12.2767 13.7334 13.8438 15.6664 13.8438C17.5994 13.8438 19.1664 12.2767 19.1664 10.3438C19.1664 8.41075 17.5994 6.84375 15.6664 6.84375ZM15.6663 20.8389C15.6663 20.0104 16.3378 19.3389 17.1663 19.3389H25.1663C25.9947 19.3389 26.6663 20.0104 26.6663 20.8389V24.8389C26.6663 25.6673 25.9947 26.3389 25.1663 26.3389H17.1663C16.3378 26.3389 15.6663 25.6673 15.6663 24.8389V20.8389ZM25.6663 21.3389C25.114 21.3389 24.6663 20.8912 24.6663 20.3389H23.6663C23.6663 21.4434 24.5617 22.3389 25.6663 22.3389V21.3389ZM25.6663 23.3389C24.5617 23.3389 23.6663 24.2343 23.6663 25.3389H24.6663C24.6663 24.7866 25.114 24.3389 25.6663 24.3389V23.3389ZM17.6663 20.3389C17.6663 20.8912 17.2185 21.3389 16.6663 21.3389V22.3389C17.7708 22.3389 18.6663 21.4434 18.6663 20.3389H17.6663ZM18.6663 25.3389C18.6663 24.2343 17.7708 23.3389 16.6663 23.3389V24.3389C17.2185 24.3389 17.6663 24.7866 17.6663 25.3389H18.6663ZM22.9163 22.8389C22.9163 21.8724 22.1328 21.0889 21.1663 21.0889C20.1998 21.0889 19.4163 21.8724 19.4163 22.8389C19.4163 23.8054 20.1998 24.5889 21.1663 24.5889C22.1328 24.5889 22.9163 23.8054 22.9163 22.8389Z" fill="white"/>
</svg>
