<svg width="28" height="28" viewBox="0 0 28 28" fill="none" xmlns="http://www.w3.org/2000/svg">
<path d="M7.84664 2.7013L9.78358 2.11746C11.1061 1.71882 12.5191 2.36305 13.0854 3.62288L14.4433 6.64332C14.926 7.71715 14.6716 8.97915 13.8106 9.7821L11.7436 11.7096C11.4659 11.9721 11.6757 12.9971 12.6885 14.7513C13.7013 16.5056 14.4841 17.1997 14.8453 17.092L17.5535 16.2641C18.6791 15.9199 19.8989 16.3303 20.5876 17.2848L22.5172 19.9592C23.3234 21.0764 23.1784 22.6177 22.1781 23.565L20.6861 24.9779C19.7055 25.9066 18.3013 26.2363 17.0099 25.8409C13.8841 24.8841 10.989 22.0438 8.28566 17.3615C5.57755 12.6709 4.55367 8.71552 5.26703 5.48352C5.5597 4.15745 6.54643 3.09322 7.84664 2.7013Z" fill="#1735F5"/>
</svg>
