<svg width="16" height="16" viewBox="0 0 16 16" fill="none" xmlns="http://www.w3.org/2000/svg">
<path d="M8 2.5C10.4853 2.5 12.5 4.51472 12.5 7C12.5 8.86262 11.0802 10.8149 8.3 12.9C8.12222 13.0333 7.87778 13.0333 7.7 12.9C4.9198 10.8149 3.5 8.86262 3.5 7C3.5 4.51472 5.51472 2.5 8 2.5ZM8 3.5C6.067 3.5 4.5 5.067 4.5 7C4.5 8.35543 5.55905 9.91787 7.72366 11.6534L8 11.8713L8.27634 11.6534C10.4409 9.91787 11.5 8.35543 11.5 7C11.5 5.067 9.933 3.5 8 3.5ZM8 6C8.55228 6 9 6.44772 9 7C9 7.55228 8.55228 8 8 8C7.44772 8 7 7.55228 7 7C7 6.44772 7.44772 6 8 6Z" fill="#1735F5"/>
</svg>
