<svg width="630" height="532" viewBox="0 0 630 532" fill="none" xmlns="http://www.w3.org/2000/svg">
<path d="M630 434.824H0V435.139H630V434.824Z" fill="#EBEBEB"/>
<path d="M566.876 455.098H525.145V455.413H566.876V455.098Z" fill="#EBEBEB"/>
<path d="M417.336 458.523H406.387V458.838H417.336V458.523Z" fill="#EBEBEB"/>
<path d="M523.883 443.406H499.703V443.721H523.883V443.406Z" fill="#EBEBEB"/>
<path d="M120.519 445.523H66.0996V445.838H120.519V445.523Z" fill="#EBEBEB"/>
<path d="M139.722 445.523H131.746V445.838H139.722V445.523Z" fill="#EBEBEB"/>
<path d="M283.689 450.84H165.652V451.155H283.689V450.84Z" fill="#EBEBEB"/>
<path d="M298.62 378.629H55.3265C53.4206 378.625 51.5939 377.866 50.2473 376.517C48.9008 375.168 48.1445 373.34 48.1445 371.434V29.4324C48.1611 27.5374 48.9247 25.7254 50.2694 24.3901C51.6142 23.0548 53.4315 22.304 55.3265 22.3008H298.62C300.528 22.3008 302.358 23.0588 303.707 24.408C305.057 25.7573 305.815 27.5873 305.815 29.4954V371.434C305.815 373.342 305.057 375.172 303.707 376.522C302.358 377.871 300.528 378.629 298.62 378.629ZM55.3265 22.5528C53.5041 22.5561 51.7575 23.2824 50.4701 24.5722C49.1826 25.862 48.4595 27.61 48.4595 29.4324V371.434C48.4595 373.257 49.1826 375.005 50.4701 376.294C51.7575 377.584 53.5041 378.31 55.3265 378.314H298.62C300.443 378.31 302.191 377.585 303.481 376.295C304.77 375.006 305.496 373.258 305.5 371.434V29.4324C305.496 27.6088 304.77 25.8609 303.481 24.5714C302.191 23.282 300.443 22.5561 298.62 22.5528H55.3265Z" fill="#EBEBEB"/>
<path d="M571.171 378.629H327.865C325.957 378.625 324.129 377.866 322.781 376.518C321.432 375.169 320.673 373.341 320.67 371.434V29.4324C320.69 27.5362 321.456 25.7243 322.803 24.3893C324.15 23.0544 325.968 22.304 327.865 22.3008H571.171C573.063 22.3073 574.877 23.0596 576.219 24.3946C577.562 25.7295 578.323 27.5395 578.34 29.4324V371.434C578.34 373.338 577.585 375.164 576.242 376.513C574.898 377.861 573.074 378.622 571.171 378.629ZM327.865 22.5528C326.041 22.5561 324.293 23.282 323.004 24.5714C321.714 25.8609 320.988 27.6088 320.985 29.4324V371.434C320.988 373.258 321.714 375.006 323.004 376.295C324.293 377.585 326.041 378.31 327.865 378.314H571.171C572.994 378.31 574.742 377.585 576.031 376.295C577.321 375.006 578.047 373.258 578.05 371.434V29.4324C578.047 27.6088 577.321 25.8609 576.031 24.5714C574.742 23.282 572.994 22.5561 571.171 22.5528H327.865Z" fill="#EBEBEB"/>
<path d="M353.833 175.023L348.629 181.79L359.049 186.477L353.833 175.023Z" fill="#F5F5F5"/>
<path d="M387.59 316.245L394.306 310.953L385.348 303.859L387.59 316.245Z" fill="#F5F5F5"/>
<path d="M303.433 166.847L302.929 158.316L291.992 161.605L303.433 166.847Z" fill="#F5F5F5"/>
<path d="M335.085 306.785L329.881 313.551L340.301 318.251L335.085 306.785Z" fill="#F5F5F5"/>
<path d="M327.802 215.648L336.13 216.165L335.084 225.539L325.193 222.931L327.802 215.648Z" fill="#F5F5F5"/>
<path d="M355.105 271.617L351.149 278.963L343.072 274.112L349.561 266.199L355.105 271.617Z" fill="#F5F5F5"/>
<path d="M303.345 327.383L311.673 327.912L310.627 337.286L300.736 334.678L303.345 327.383Z" fill="#F5F5F5"/>
<path d="M373.113 229.18L378.317 230.225C378.317 230.225 370.505 235.429 374.159 239.6C377.813 243.77 371.55 247.412 371.55 247.412L366.863 244.287C366.863 244.287 371.034 241.162 368.942 236.992C366.851 232.821 373.113 229.18 373.113 229.18Z" fill="#F5F5F5"/>
<path d="M383.757 161.242L378.969 168.311L389.654 172.355L383.757 161.242Z" fill="#F5F5F5"/>
<path d="M422.114 142.544L425.012 134.505L413.672 133.207L422.114 142.544Z" fill="#F5F5F5"/>
<path d="M419.957 174.507L421.482 166.305L430.654 168.472L426.874 177.972L419.957 174.507Z" fill="#F5F5F5"/>
<path d="M428.84 219.013L423.561 219.606C423.561 219.606 429.42 212.272 424.682 209.412C419.944 206.552 424.795 201.172 424.795 201.172L430.213 202.734C430.213 202.734 427.189 206.968 430.44 210.294C433.691 213.621 428.84 219.013 428.84 219.013Z" fill="#F5F5F5"/>
<path d="M341.775 351.602L346.979 352.635C346.979 352.635 339.167 357.851 342.808 362.009C346.45 366.167 340.213 369.821 340.213 369.821L335.525 366.696C335.525 366.696 339.683 363.572 337.604 359.414C335.525 355.256 341.775 351.602 341.775 351.602Z" fill="#F5F5F5"/>
<path d="M416.809 333.797L411.605 340.563L422.013 345.25L416.809 333.797Z" fill="#F5F5F5"/>
<path d="M435.241 275.043L443.57 275.572L442.524 284.947L432.633 282.338L435.241 275.043Z" fill="#F5F5F5"/>
<path d="M380.91 348.641L386.126 349.674C386.126 349.674 378.314 354.89 381.956 359.048C385.597 363.206 379.347 366.86 379.347 366.86L374.66 363.761C374.66 363.761 378.831 360.636 376.752 356.478C374.673 352.32 380.91 348.641 380.91 348.641Z" fill="#F5F5F5"/>
<path d="M342.417 151.515L339.154 152.283C339.154 152.283 340.552 145.341 336.47 142.947C332.387 140.553 333.786 135.387 333.786 135.387L337.868 136.559C337.752 137.84 337.935 139.13 338.403 140.329C338.871 141.527 339.611 142.6 340.565 143.463C343.816 146.412 342.417 151.515 342.417 151.515Z" fill="#F5F5F5"/>
<path d="M306.924 277.954L302.01 279.945C302.01 279.945 305.664 271.301 300.334 269.865C295.004 268.428 298.205 261.914 298.205 261.914H303.837C303.837 261.914 302.086 266.815 306.105 269.146C310.124 271.477 306.924 277.954 306.924 277.954Z" fill="#F5F5F5"/>
<path d="M285.617 227.367C285.617 228.139 285.388 228.895 284.958 229.537C284.529 230.179 283.919 230.68 283.205 230.976C282.492 231.271 281.706 231.349 280.949 231.198C280.191 231.047 279.495 230.675 278.949 230.129C278.402 229.583 278.03 228.887 277.88 228.129C277.729 227.371 277.806 226.586 278.102 225.872C278.398 225.158 278.898 224.548 279.541 224.119C280.183 223.69 280.938 223.461 281.711 223.461C282.747 223.461 283.74 223.872 284.473 224.605C285.205 225.338 285.617 226.331 285.617 227.367Z" fill="#F5F5F5"/>
<path d="M385.558 131.844C385.558 132.616 385.329 133.371 384.9 134.014C384.471 134.656 383.861 135.157 383.147 135.452C382.433 135.748 381.648 135.825 380.89 135.674C380.132 135.524 379.436 135.152 378.89 134.605C378.344 134.059 377.972 133.363 377.821 132.606C377.67 131.848 377.748 131.062 378.043 130.349C378.339 129.635 378.84 129.025 379.482 128.596C380.124 128.167 380.88 127.938 381.652 127.938C382.688 127.938 383.682 128.349 384.414 129.082C385.147 129.814 385.558 130.808 385.558 131.844Z" fill="#F5F5F5"/>
<path d="M262.056 164.418L255.844 170.277L265.382 176.564L262.056 164.418Z" fill="#F5F5F5"/>
<path d="M243.116 307.805L247.262 300.333L236.262 297.246L243.116 307.805Z" fill="#F5F5F5"/>
<path d="M191.042 319.359L188.85 327.612L200.265 327.915L191.042 319.359Z" fill="#F5F5F5"/>
<path d="M234.903 235.242L240.119 234.184C240.119 234.184 234.915 242.008 239.892 244.44C244.869 246.872 240.51 252.655 240.51 252.655L234.978 251.584C234.978 251.584 237.612 247.086 234.084 244.024C230.556 240.962 234.903 235.242 234.903 235.242Z" fill="#F5F5F5"/>
<path d="M223.838 198.726L215.484 198.94L215.699 189.516L225.791 191.242L223.838 198.726Z" fill="#F5F5F5"/>
<path d="M216.152 143.616L210.873 143.036C210.873 143.036 218.194 137.152 214.199 133.334C210.205 129.516 216.102 125.32 216.102 125.32L221.054 128.017C221.054 128.017 217.173 131.494 219.617 135.463C222.062 139.432 216.152 143.616 216.152 143.616Z" fill="#F5F5F5"/>
<path d="M259.761 337.767C259.694 336.998 259.857 336.226 260.229 335.549C260.6 334.872 261.165 334.32 261.85 333.964C262.535 333.608 263.311 333.462 264.078 333.547C264.846 333.631 265.572 333.941 266.163 334.438C266.755 334.934 267.186 335.595 267.402 336.336C267.618 337.078 267.61 337.867 267.378 338.603C267.145 339.34 266.7 339.991 266.098 340.475C265.496 340.959 264.764 341.253 263.994 341.32C263.483 341.365 262.968 341.309 262.478 341.155C261.989 341.001 261.534 340.751 261.141 340.421C260.748 340.091 260.424 339.687 260.187 339.232C259.95 338.776 259.805 338.279 259.761 337.767Z" fill="#F5F5F5"/>
<path d="M255.377 79.3141L267.297 89.1925L271.329 74.4883L255.377 79.3141Z" fill="#EBEBEB"/>
<path d="M276.646 72.9784L289.259 81.3195L290.494 67.5352L276.646 72.9784Z" fill="#EBEBEB"/>
<path d="M159.465 87.1406L168.461 106.356L178.932 87.4052L159.465 87.1406Z" fill="#EBEBEB"/>
<path d="M180.395 87.5048L194.796 103.456L203.15 86.207L180.395 87.5048Z" fill="#EBEBEB"/>
<path d="M206.324 86.1217L219.516 99.3139L224.897 83.8789L206.324 86.1217Z" fill="#EBEBEB"/>
<path d="M230.365 83.4984L246.67 96.0354L250.878 80.4492L230.365 83.4984Z" fill="#EBEBEB"/>
<path d="M226.875 84.6324C177.42 90.6048 127.562 87.0138 126.756 86.9508L126.92 84.771C128.18 84.8718 258.451 94.2336 305.84 57.2148L307.175 58.9284C288.653 73.3932 257.834 80.8902 226.875 84.6324Z" fill="#E0E0E0"/>
<path d="M378.264 79.3141L366.345 89.1925L362.312 74.4883L378.264 79.3141Z" fill="#EBEBEB"/>
<path d="M356.996 72.9784L344.383 81.3195L343.148 67.5352L356.996 72.9784Z" fill="#EBEBEB"/>
<path d="M474.174 87.1406L465.178 106.356L454.707 87.4052L474.174 87.1406Z" fill="#EBEBEB"/>
<path d="M453.248 87.5048L438.859 103.456L430.492 86.207L453.248 87.5048Z" fill="#EBEBEB"/>
<path d="M427.315 86.1217L414.122 99.3139L408.742 83.8789L427.315 86.1217Z" fill="#EBEBEB"/>
<path d="M403.275 83.4984L386.97 96.0354L382.762 80.4492L403.275 83.4984Z" fill="#EBEBEB"/>
<path d="M406.767 84.6324C456.222 90.6048 506.08 87.0138 506.886 86.9508L506.722 84.771C505.462 84.8718 375.191 94.2336 327.802 57.2148L326.467 58.9284C345.001 73.3932 375.808 80.8902 406.767 84.6324Z" fill="#E0E0E0"/>
<path d="M134.328 171.272C130.371 171.272 126.138 170.163 123.315 166.232C120.367 162.137 120.493 158.256 121.791 155.472C120.992 154.84 120.265 154.121 119.623 153.33C118.547 152.119 117.831 150.631 117.557 149.034C117.283 147.437 117.462 145.796 118.074 144.296C118.356 143.613 118.711 142.962 119.132 142.355C114.646 138.991 112.719 134.203 113.928 129.062C114.231 127.658 114.823 126.332 115.667 125.169C111.358 116.198 116.045 100.611 116.247 99.9688L118.338 100.611C118.338 100.763 113.928 115.278 117.33 123.594C118.239 122.993 119.262 122.586 120.335 122.398C121.408 122.209 122.508 122.243 123.567 122.498C127.347 123.228 131.656 126.278 131.241 128.974C131.039 130.36 129.678 131.885 124.374 131.318C122.916 131.206 121.498 130.788 120.213 130.091C118.927 129.394 117.803 128.434 116.914 127.273C116.522 128.011 116.233 128.799 116.058 129.617C114.798 135.135 117.834 138.726 120.581 140.742C121.958 139.399 123.72 138.518 125.621 138.222C126.834 138.068 128.067 138.255 129.18 138.763C130.293 139.27 131.242 140.078 131.921 141.095C133.395 143.136 132.79 144.396 132.299 144.976C130.573 146.979 125.659 146.06 121.929 144.157C121.564 143.981 121.211 143.779 120.883 143.59C120.539 144.076 120.252 144.601 120.027 145.152C119.576 146.294 119.455 147.54 119.677 148.748C119.9 149.955 120.458 151.076 121.287 151.982C121.781 152.585 122.329 153.141 122.925 153.645L123.164 153.355C124.144 152.12 125.515 151.256 127.053 150.905C128.59 150.555 130.2 150.739 131.619 151.427C132.254 151.675 132.795 152.116 133.166 152.688C133.537 153.26 133.718 153.934 133.685 154.615C133.515 155.373 133.128 156.066 132.571 156.607C132.014 157.149 131.311 157.516 130.548 157.664C128.196 158.258 125.705 157.924 123.592 156.732C122.698 158.886 122.761 161.772 125.067 164.985C130.522 172.545 143.488 167.265 143.626 167.202L144.458 169.218C141.23 170.499 137.8 171.194 134.328 171.272ZM124.777 154.892C126.346 155.778 128.194 156.031 129.943 155.598C130.938 155.295 131.505 154.766 131.543 154.401C131.581 154.035 131.203 153.708 130.585 153.355C129.602 152.904 128.494 152.805 127.446 153.073C126.397 153.342 125.473 153.961 124.827 154.829L124.777 154.892ZM122.484 142.002L122.988 142.28C126.768 144.22 130.17 144.245 130.711 143.615C130.774 143.54 130.711 143.149 130.233 142.431C129.775 141.727 129.127 141.168 128.365 140.817C127.602 140.467 126.755 140.341 125.923 140.453C124.656 140.641 123.465 141.178 122.484 142.002ZM118.351 125.622C119.051 126.669 119.984 127.54 121.077 128.165C122.17 128.791 123.394 129.154 124.651 129.226C128.204 129.617 129.099 128.924 129.124 128.735C129.25 127.928 126.793 125.421 123.202 124.728C122.383 124.503 121.525 124.458 120.688 124.597C119.85 124.737 119.053 125.056 118.351 125.534V125.622Z" fill="#E0E0E0"/>
<path d="M100.548 173.575C94.8281 171.735 92.1317 165.296 92.0435 160.093C92.0026 158.521 92.224 156.954 92.6986 155.456C91.6621 154.018 90.9515 152.371 90.6164 150.63C90.2813 148.889 90.3297 147.096 90.7582 145.376C91.0991 143.781 91.7175 142.258 92.5853 140.878C91.7669 137.722 91.8191 134.404 92.7364 131.276C93.1566 129.744 93.8666 128.307 94.828 127.043C94.6642 118.122 106.483 107.437 107.063 106.883L108.524 108.508C108.398 108.622 98.4442 117.605 97.1842 125.153C98.0188 124.793 98.9253 124.631 99.8329 124.679C100.741 124.727 101.625 124.985 102.416 125.431C103.208 125.878 103.886 126.501 104.397 127.253C104.908 128.004 105.238 128.864 105.362 129.764C105.498 130.829 105.285 131.909 104.756 132.843C104.227 133.776 103.409 134.513 102.426 134.943C101.166 135.359 98.8475 135.472 96.2771 131.617C95.972 131.161 95.7145 130.676 95.5085 130.168C95.2515 130.716 95.0408 131.285 94.8785 131.869C94.2259 134.127 94.0626 136.498 94.3996 138.824C95.3139 138 96.474 137.499 97.7008 137.4C98.6915 137.306 99.6868 137.523 100.549 138.019C101.411 138.516 102.098 139.268 102.514 140.172C102.902 140.987 103.045 141.898 102.924 142.793C102.803 143.688 102.424 144.529 101.834 145.212C100.574 146.472 98.6584 146.711 96.4786 145.829C95.3259 145.328 94.3635 144.472 93.7318 143.385C93.3792 144.16 93.113 144.971 92.938 145.804C92.3318 148.255 92.6363 150.843 93.7948 153.087C94.6307 151.729 95.8938 150.688 97.3858 150.126C99.8176 149.244 101.972 149.786 103.169 151.537C103.75 152.437 104.029 153.499 103.966 154.569C103.902 155.638 103.5 156.659 102.816 157.484C102.086 158.316 99.9311 160.004 95.8235 157.875C95.3856 157.645 94.9646 157.383 94.5635 157.094C94.3659 158.038 94.2729 159.002 94.2862 159.967C94.3618 164.414 96.592 169.895 101.292 171.42L100.548 173.575ZM95.2438 154.977C95.7119 155.387 96.2281 155.738 96.781 156.023C98.7466 157.043 100.296 157.081 101.153 156.124C101.518 155.663 101.731 155.099 101.76 154.512C101.789 153.925 101.634 153.343 101.317 152.848C100.7 151.94 99.553 151.739 98.0914 152.268C97.462 152.51 96.8865 152.874 96.3978 153.339C95.9092 153.804 95.517 154.36 95.2438 154.977ZM95.0171 141.331C95.2087 141.879 95.5066 142.384 95.8936 142.816C96.2806 143.248 96.7492 143.6 97.2724 143.851C98.5324 144.393 99.6412 144.355 100.221 143.75C100.513 143.383 100.693 142.94 100.74 142.473C100.787 142.006 100.699 141.535 100.485 141.117C100.253 140.612 99.8641 140.194 99.3763 139.927C98.8886 139.659 98.3277 139.555 97.7764 139.63C97.2232 139.705 96.6917 139.895 96.2164 140.188C95.7411 140.481 95.3326 140.871 95.0171 141.331ZM97.0204 127.9C97.1568 128.822 97.4922 129.703 98.0032 130.483C99.2632 132.373 100.624 133.305 101.619 133.003C102.134 132.714 102.55 132.278 102.813 131.749C103.076 131.221 103.174 130.626 103.094 130.042C103.033 129.258 102.693 128.522 102.136 127.967C101.578 127.412 100.841 127.075 100.057 127.018C99.5173 126.908 98.959 126.931 98.43 127.084C97.9011 127.238 97.4174 127.518 97.0204 127.9Z" fill="#E0E0E0"/>
<path d="M150.494 107.276C130.031 129.364 100.094 91.9416 113.235 74.415C126.377 56.8884 171.246 84.8604 150.494 107.276Z" fill="#E0E0E0"/>
<path d="M110.564 123.102C80.6393 119.486 93.5291 73.3445 115.403 73.6973C137.276 74.0501 140.88 126.882 110.564 123.102Z" fill="#EBEBEB"/>
<path d="M340.049 79.1658C327.222 93.0258 308.549 69.552 316.701 58.5648C324.854 47.5776 353.065 65.142 340.049 79.1658Z" fill="#E0E0E0"/>
<path d="M295.281 79.1658C308.108 93.0258 326.781 69.552 318.629 58.5648C310.477 47.5776 282.24 65.142 295.281 79.1658Z" fill="#E0E0E0"/>
<path d="M321.035 88.3879C339.771 86.0947 331.707 57.1652 317.998 57.392C304.29 57.6188 302.022 90.7189 321.035 88.3879Z" fill="#EBEBEB"/>
<path d="M498.281 171.269C494.801 171.198 491.362 170.507 488.125 169.228L488.957 167.212C489.083 167.275 502.061 172.542 507.516 164.994C509.822 161.819 509.885 158.896 508.991 156.741C506.878 157.933 504.388 158.267 502.035 157.674C501.281 157.513 500.589 157.137 500.043 156.591C499.498 156.046 499.122 155.354 498.961 154.599C498.928 153.918 499.109 153.244 499.48 152.672C499.851 152.1 500.392 151.659 501.027 151.412C502.439 150.739 504.036 150.564 505.559 150.914C507.082 151.264 508.443 152.119 509.419 153.339L509.658 153.629C510.254 153.126 510.802 152.569 511.296 151.966C512.125 151.06 512.683 149.939 512.906 148.732C513.128 147.525 513.007 146.279 512.556 145.137C512.331 144.585 512.044 144.061 511.7 143.574C511.372 143.763 511.019 143.965 510.654 144.141C506.874 146.044 502.01 146.976 500.284 144.96C499.793 144.381 499.188 143.121 500.662 141.08C501.343 140.064 502.293 139.258 503.405 138.751C504.518 138.244 505.749 138.055 506.962 138.207C508.863 138.502 510.625 139.383 512.002 140.727C514.749 138.711 517.823 135.12 516.525 129.601C516.35 128.784 516.061 127.995 515.669 127.257C514.78 128.418 513.656 129.378 512.37 130.075C511.085 130.772 509.667 131.19 508.209 131.302C502.905 131.882 501.544 130.344 501.342 128.958C500.927 126.275 505.198 123.213 509.003 122.482C510.072 122.22 511.184 122.182 512.268 122.371C513.352 122.56 514.386 122.971 515.303 123.578C518.705 115.262 514.346 100.747 514.295 100.596L516.387 99.9531C516.588 100.646 521.276 116.232 516.966 125.153C517.808 126.322 518.399 127.652 518.705 129.059C519.965 134.2 517.987 138.988 513.501 142.352C513.923 142.959 514.277 143.61 514.56 144.293C515.172 145.793 515.351 147.434 515.077 149.031C514.803 150.628 514.087 152.116 513.01 153.327C512.369 154.118 511.642 154.837 510.843 155.469C512.103 158.253 512.279 162.134 509.318 166.229C506.521 170.16 502.224 171.269 498.281 171.269ZM503.875 152.873C503.228 152.871 502.591 153.031 502.023 153.339C501.405 153.692 501.04 154.095 501.065 154.385C501.09 154.675 501.67 155.28 502.665 155.582C504.414 156.015 506.263 155.763 507.831 154.877V154.814C507.347 154.228 506.744 153.752 506.062 153.417C505.38 153.083 504.634 152.897 503.875 152.873ZM506.08 140.361C505.344 140.365 504.62 140.55 503.974 140.902C503.327 141.254 502.778 141.761 502.376 142.377C501.859 143.096 501.834 143.486 501.897 143.562C502.439 144.192 505.778 144.167 509.621 142.226L510.125 141.949C509.143 141.124 507.953 140.588 506.685 140.399C506.521 140.387 506.294 140.361 506.08 140.361ZM510.994 124.485C510.474 124.491 509.955 124.541 509.444 124.637C505.853 125.33 503.396 127.837 503.522 128.643C503.522 128.832 504.442 129.525 507.995 129.135C509.253 129.062 510.476 128.699 511.569 128.074C512.662 127.449 513.595 126.578 514.295 125.531C513.349 124.811 512.182 124.442 510.994 124.485Z" fill="#E0E0E0"/>
<path d="M532.061 173.576L531.381 171.51C536.081 169.985 538.311 164.504 538.374 160.056C538.398 159.092 538.309 158.128 538.109 157.184C537.708 157.473 537.287 157.734 536.849 157.965C532.742 160.094 530.549 158.406 529.856 157.574C529.173 156.749 528.77 155.728 528.707 154.658C528.644 153.589 528.923 152.527 529.503 151.627C530.7 149.876 532.855 149.334 535.287 150.216C536.779 150.778 538.042 151.819 538.878 153.177C540.036 150.933 540.341 148.345 539.735 145.894C539.56 145.061 539.293 144.25 538.941 143.475C538.305 144.558 537.344 145.414 536.194 145.919C534.014 146.801 532.074 146.574 530.839 145.302C530.248 144.619 529.869 143.778 529.749 142.883C529.628 141.988 529.77 141.077 530.159 140.262C530.578 139.36 531.265 138.61 532.126 138.114C532.988 137.618 533.982 137.4 534.972 137.49C536.199 137.589 537.359 138.09 538.273 138.914C538.61 136.588 538.447 134.216 537.794 131.958C537.632 131.375 537.421 130.806 537.164 130.257C536.958 130.765 536.701 131.251 536.396 131.706C533.876 135.562 531.444 135.486 530.247 135.033C529.263 134.603 528.446 133.866 527.917 132.932C527.387 131.999 527.175 130.919 527.311 129.854C527.435 128.954 527.765 128.094 528.276 127.342C528.787 126.591 529.465 125.967 530.256 125.521C531.048 125.074 531.932 124.817 532.84 124.769C533.747 124.72 534.654 124.883 535.488 125.243C534.165 117.683 524.237 108.711 524.148 108.598L525.597 106.973C526.19 107.502 538.008 118.187 537.845 127.133C538.806 128.397 539.516 129.834 539.936 131.366C540.854 134.494 540.906 137.812 540.087 140.967C540.96 142.346 541.579 143.869 541.914 145.466C542.343 147.186 542.391 148.979 542.056 150.72C541.721 152.461 541.011 154.107 539.974 155.546C540.449 157.044 540.67 158.611 540.629 160.182C540.541 165.298 537.782 171.737 532.061 173.576ZM533.057 151.98C532.713 151.963 532.371 152.034 532.062 152.187C531.754 152.339 531.489 152.567 531.293 152.849C530.975 153.344 530.82 153.926 530.85 154.513C530.879 155.101 531.091 155.664 531.456 156.125C532.313 157.083 533.863 157.045 535.829 156.024C536.382 155.74 536.898 155.388 537.366 154.979C537.093 154.362 536.701 153.805 536.212 153.341C535.723 152.876 535.148 152.512 534.518 152.27C534.051 152.091 533.557 151.993 533.057 151.98ZM534.619 139.657C534.095 139.613 533.57 139.734 533.119 140.002C532.667 140.271 532.31 140.675 532.099 141.156C531.886 141.574 531.797 142.045 531.844 142.512C531.891 142.979 532.071 143.423 532.364 143.79C532.943 144.395 534.002 144.432 535.312 143.891C535.835 143.64 536.304 143.288 536.691 142.855C537.078 142.423 537.376 141.918 537.567 141.371C537.248 140.917 536.838 140.535 536.363 140.248C535.888 139.962 535.358 139.778 534.808 139.707L534.619 139.657ZM533.17 126.881C532.946 126.877 532.722 126.898 532.502 126.944C531.718 127.002 530.981 127.338 530.424 127.893C529.867 128.448 529.527 129.184 529.466 129.968C529.385 130.552 529.483 131.147 529.746 131.676C530.009 132.204 530.425 132.64 530.94 132.929C531.935 133.269 533.296 132.336 534.556 130.409C535.067 129.629 535.402 128.748 535.539 127.826C534.9 127.218 534.052 126.879 533.17 126.881Z" fill="#E0E0E0"/>
<path d="M483.741 107.276C504.203 129.364 534.141 91.9416 520.999 74.415C507.857 56.8884 462.988 84.8604 483.741 107.276Z" fill="#E0E0E0"/>
<path d="M523.669 123.101C553.556 119.447 540.704 73.3055 518.83 73.6583C496.957 74.0111 493.353 126.881 523.669 123.101Z" fill="#EBEBEB"/>
<path d="M452.024 340.704C448.618 341.653 444.987 341.388 441.755 339.953C438.522 338.519 435.89 336.004 434.309 332.841L426.043 316.537L430.226 314.407L438.479 330.724C439.72 333.207 441.888 335.101 444.515 335.997C447.142 336.894 450.016 336.719 452.516 335.512L466.804 328.721C469.253 327.557 471.164 325.5 472.146 322.973C473.127 320.445 473.105 317.637 472.083 315.126L468.908 307.288L473.255 305.512L476.443 313.362C477.913 316.978 477.949 321.019 476.545 324.661C475.14 328.303 472.4 331.274 468.883 332.967L454.557 339.822C453.738 340.185 452.891 340.48 452.024 340.704Z" fill="#E6E6E6"/>
<path d="M507.704 291.842L499.363 295.609L496.364 296.97L487.166 301.14L484.142 302.501L475.397 306.458L472.348 307.844L464.259 311.498L461.197 312.896L453.423 316.399L450.386 317.772L442.6 321.288L439.588 322.661L431.776 326.202L428.79 327.55L426.623 328.52L417.941 318.075L424.33 305.298L426.598 300.737L432.734 288.477L435.027 283.916L441.151 271.682L443.419 267.12L449.555 254.848L451.835 250.287L456.775 240.434L459.37 243.042L463.364 247.086L475.473 259.321L479.505 263.378L492.206 276.205L496.276 280.313L507.704 291.842Z" fill="#F0F0F0"/>
<path d="M417.928 318.074L409.625 322.106L421.519 336.369L426.622 328.52L417.928 318.074Z" fill="#E6E6E6"/>
<path d="M426.6 300.734L431.779 326.199L428.792 327.547L424.332 305.296L426.6 300.734Z" fill="#E6E6E6"/>
<path d="M435.028 283.914L442.6 321.286L439.589 322.659L432.734 288.475L435.028 283.914Z" fill="#E6E6E6"/>
<path d="M443.42 267.117L453.425 316.396L450.388 317.769L441.152 271.678L443.42 267.117Z" fill="#E6E6E6"/>
<path d="M451.835 250.285L464.259 311.496L461.197 312.895L449.555 254.846L451.835 250.285Z" fill="#E6E6E6"/>
<path d="M463.365 247.084L475.398 306.455L472.349 307.841L459.371 243.039L463.365 247.084Z" fill="#E6E6E6"/>
<path d="M479.505 263.378L487.165 301.14L484.141 302.501L475.473 259.32L479.505 263.378Z" fill="#E6E6E6"/>
<path d="M496.277 280.311L499.364 295.607L496.365 296.968L492.207 276.203L496.277 280.311Z" fill="#E6E6E6"/>
<path d="M469.273 233.741L473.507 205.781L479.051 207.243L469.273 233.741Z" fill="#E6E6E6"/>
<path d="M488.652 240.999L512.366 203.766L519.447 209.952L488.652 240.999Z" fill="#E6E6E6"/>
<path d="M505.688 256.837L541.308 233.867L544.584 242.599L505.688 256.837Z" fill="#E6E6E6"/>
<path d="M509.961 270.646L549.966 266.602L550.092 277.06L509.961 270.646Z" fill="#E6E6E6"/>
<path d="M315.001 491.726C449.925 491.726 559.302 485.34 559.302 477.462C559.302 469.585 449.925 463.199 315.001 463.199C180.077 463.199 70.6992 469.585 70.6992 477.462C70.6992 485.34 180.077 491.726 315.001 491.726Z" fill="#F5F5F5"/>
<path d="M505.701 452.278C505.607 452.278 505.515 452.252 505.436 452.202C500.207 448.636 494.235 434.323 493.97 433.705C493.928 433.59 493.932 433.463 493.982 433.35C494.031 433.237 494.121 433.148 494.235 433.101C494.291 433.076 494.351 433.063 494.413 433.063C494.474 433.062 494.534 433.074 494.591 433.097C494.647 433.121 494.699 433.156 494.741 433.2C494.784 433.243 494.817 433.295 494.84 433.353C494.84 433.491 500.711 447.376 505.625 451.182C510.219 446.59 516.074 443.467 522.446 442.21C522.568 442.185 522.695 442.21 522.799 442.278C522.903 442.347 522.975 442.454 523.001 442.576C523.026 442.698 523.001 442.825 522.933 442.929C522.864 443.033 522.757 443.105 522.635 443.13C516.325 444.373 510.541 447.507 506.054 452.114C506.011 452.166 505.957 452.208 505.896 452.237C505.835 452.265 505.768 452.279 505.701 452.278Z" fill="#263238"/>
<path d="M510.302 440.621C510.302 440.621 507.265 431.133 500.864 431.158C494.463 431.184 495.509 426.118 493.569 424.619C491.628 423.12 488.34 429.193 492.876 433.754C497.412 438.315 494.136 437.207 496.58 441.768C499.025 446.329 512.229 448.559 510.302 440.621Z" fill="#407BFF"/>
<path opacity="0.2" d="M510.302 440.621C510.302 440.621 507.265 431.133 500.864 431.158C494.463 431.184 495.509 426.118 493.569 424.619C491.628 423.12 488.34 429.193 492.876 433.754C497.412 438.315 494.136 437.207 496.58 441.768C499.025 446.329 512.229 448.559 510.302 440.621Z" fill="white"/>
<path d="M514.007 447.123C513.915 447.122 513.825 447.094 513.749 447.043C513.673 446.991 513.613 446.918 513.578 446.833C512.069 443.24 510.365 439.732 508.475 436.324C504.481 428.764 500.361 420.978 500.638 411.792C500.865 404.232 503.36 396.899 505.779 389.793C506.182 388.608 506.585 387.424 506.976 386.239L507.946 383.341C510.343 376.696 512.259 369.887 513.679 362.967C515.216 354.311 514.41 347.255 511.159 341.409C511.1 341.302 511.085 341.175 511.118 341.057C511.151 340.94 511.229 340.839 511.336 340.779C511.389 340.748 511.448 340.729 511.509 340.722C511.57 340.715 511.632 340.72 511.691 340.738C511.75 340.756 511.805 340.785 511.852 340.825C511.899 340.864 511.938 340.913 511.966 340.968C515.279 347.003 516.124 354.261 514.486 363.131C513.068 370.101 511.139 376.957 508.715 383.644L507.757 386.529C507.367 387.714 506.963 388.898 506.56 390.095C504.154 397.138 501.684 404.409 501.457 411.817C501.193 420.763 505.073 428.109 509.194 435.896C511.096 439.334 512.812 442.871 514.334 446.493C514.361 446.563 514.37 446.638 514.361 446.712C514.352 446.786 514.326 446.857 514.284 446.919C514.242 446.98 514.185 447.031 514.12 447.067C514.054 447.102 513.981 447.121 513.906 447.123H514.007Z" fill="#263238"/>
<path d="M514.8 347.457C514.8 347.457 517.622 331.178 505.98 332.564C494.337 333.95 509.243 346.588 514.8 347.457Z" fill="#407BFF"/>
<path d="M506.521 360.876C506.521 360.876 500.989 347.268 493.177 351.463C485.365 355.659 498.293 362.35 506.521 360.876Z" fill="#407BFF"/>
<path d="M520.646 359.98C520.646 359.98 517.736 348.905 526.455 347.38C535.174 345.856 532.73 356.389 520.646 359.98Z" fill="#407BFF"/>
<path d="M518.215 383.92C518.215 383.92 528.408 371.723 533.776 378.88C539.143 386.037 526.304 389.552 518.215 383.92Z" fill="#407BFF"/>
<path d="M497.159 385.08C497.159 385.08 492.396 368.019 483.715 374.861C475.033 381.703 489.158 388.028 497.159 385.08Z" fill="#407BFF"/>
<path d="M492.484 411.189C492.484 411.189 496.894 392.604 484.181 396.497C471.467 400.391 482.681 408.278 492.484 411.189Z" fill="#407BFF"/>
<path d="M513.375 414.513C513.375 414.513 522.447 399.948 531.456 402.821C540.465 405.693 535.501 419.566 513.375 414.513Z" fill="#407BFF"/>
<g opacity="0.2">
<path d="M514.8 347.457C514.8 347.457 517.622 331.178 505.98 332.564C494.337 333.95 509.243 346.588 514.8 347.457Z" fill="white"/>
<path d="M506.521 360.876C506.521 360.876 500.989 347.268 493.177 351.463C485.365 355.659 498.293 362.35 506.521 360.876Z" fill="white"/>
<path d="M520.646 359.98C520.646 359.98 517.736 348.905 526.455 347.38C535.174 345.856 532.73 356.389 520.646 359.98Z" fill="white"/>
<path d="M518.215 383.92C518.215 383.92 528.408 371.723 533.776 378.88C539.143 386.037 526.304 389.552 518.215 383.92Z" fill="white"/>
<path d="M497.159 385.08C497.159 385.08 492.396 368.019 483.715 374.861C475.033 381.703 489.158 388.028 497.159 385.08Z" fill="white"/>
<path d="M492.484 411.189C492.484 411.189 496.894 392.604 484.181 396.497C471.467 400.391 482.681 408.278 492.484 411.189Z" fill="white"/>
<path d="M513.375 414.513C513.375 414.513 522.447 399.948 531.456 402.821C540.465 405.693 535.501 419.566 513.375 414.513Z" fill="white"/>
</g>
<path d="M512.822 369.371C512.759 369.362 512.699 369.341 512.645 369.309C512.591 369.276 512.544 369.233 512.507 369.182C512.507 369.106 506.736 361.218 503.057 359.681C503.001 359.658 502.95 359.624 502.907 359.58C502.865 359.537 502.831 359.486 502.809 359.429C502.787 359.373 502.776 359.313 502.777 359.252C502.779 359.192 502.792 359.132 502.817 359.076C502.867 358.965 502.957 358.878 503.07 358.831C503.182 358.784 503.308 358.782 503.422 358.824C506.887 360.273 511.738 366.586 512.973 368.249C518.87 363.512 522.599 355.8 522.637 355.712C522.691 355.603 522.786 355.519 522.902 355.479C523.017 355.439 523.144 355.446 523.254 355.498C523.311 355.522 523.362 355.558 523.404 355.603C523.446 355.647 523.479 355.7 523.5 355.758C523.522 355.816 523.531 355.877 523.528 355.939C523.524 356 523.508 356.06 523.481 356.115C523.317 356.456 519.462 364.431 513.174 369.282C513.072 369.356 512.946 369.387 512.822 369.371Z" fill="#263238"/>
<path d="M505.36 392.516C505.294 392.511 505.23 392.493 505.172 392.463C505.113 392.433 505.062 392.39 505.02 392.339C504.944 392.251 498.014 383.759 490.265 380.609C490.15 380.563 490.058 380.474 490.008 380.361C489.958 380.248 489.956 380.119 490.001 380.004C490.046 379.888 490.135 379.796 490.248 379.746C490.362 379.697 490.49 379.694 490.606 379.739C497.712 382.625 503.924 389.605 505.411 391.369C514.344 382.549 526.906 381.062 527.032 381.037C527.154 381.026 527.275 381.064 527.369 381.142C527.464 381.22 527.523 381.331 527.536 381.453C527.545 381.513 527.541 381.574 527.526 381.632C527.51 381.691 527.482 381.745 527.444 381.792C527.406 381.84 527.359 381.879 527.306 381.907C527.252 381.935 527.193 381.952 527.133 381.957C527.007 381.957 514.42 383.519 505.713 392.377C505.666 392.422 505.611 392.458 505.551 392.482C505.49 392.505 505.425 392.517 505.36 392.516Z" fill="#263238"/>
<path d="M502.739 422.012C502.654 422.016 502.571 421.994 502.499 421.949C494.687 417.375 487.279 404.221 486.976 403.666C486.933 403.561 486.93 403.444 486.967 403.336C487.005 403.229 487.08 403.139 487.179 403.083C487.278 403.028 487.394 403.01 487.505 403.034C487.616 403.058 487.715 403.121 487.783 403.212C487.858 403.351 495.204 416.392 502.701 420.991C504.629 419.492 516.561 410.483 526.427 408.832C526.486 408.822 526.547 408.824 526.606 408.838C526.665 408.851 526.72 408.876 526.77 408.911C526.819 408.947 526.861 408.991 526.892 409.042C526.924 409.094 526.946 409.151 526.956 409.21C526.966 409.27 526.964 409.331 526.95 409.389C526.937 409.448 526.912 409.504 526.877 409.553C526.841 409.602 526.797 409.644 526.746 409.676C526.695 409.708 526.637 409.729 526.578 409.739C516.259 411.478 503.155 421.81 503.029 421.911C502.948 421.979 502.844 422.015 502.739 422.012Z" fill="#263238"/>
<path d="M507.101 442.966C507.101 442.966 502.704 437.044 508.361 433.567C514.019 430.089 515.392 432.571 518.907 430.114C522.423 427.657 524.88 422 525.686 425.49C526.493 428.98 522.398 431.198 523.973 432.735C525.548 434.272 514.787 445.322 507.101 442.966Z" fill="#407BFF"/>
<path d="M506.596 439.714C506.596 439.714 501.229 435.934 497.272 436.69C493.316 437.446 490.015 433.906 489.712 436.993C489.41 440.08 496.592 446.922 506.596 439.714Z" fill="#407BFF"/>
<path d="M482.645 438L484.194 451.406L484.409 453.17L485.051 458.79L485.517 462.759L485.82 465.342L487.332 478.37H526.115L527.627 465.342L527.929 462.759L528.395 458.79L529.038 453.17L529.239 451.406L530.802 438H482.645Z" fill="#263238"/>
<path opacity="0.4" d="M485.051 458.793L485.517 462.762H527.929L528.395 458.793H485.051Z" fill="black"/>
<path opacity="0.4" d="M485.82 465.344L487.332 478.372H526.115L527.627 465.344H485.82Z" fill="black"/>
<path opacity="0.4" d="M484.191 451.406L484.406 453.17H529.035L529.236 451.406H484.191Z" fill="black"/>
<path d="M199.759 375.995C195.463 376.449 181.174 377.532 176.223 371.938C175.387 371.029 174.806 369.915 174.538 368.709C174.27 367.504 174.325 366.249 174.698 365.071C175.756 360.8 178.944 358.683 183.442 358.683C189.314 358.683 197.088 362.677 201.082 367.503C203.741 362.904 208.932 355.898 216.744 356.705C222.414 357.272 226.698 361.581 226.295 366.318C226.081 368.838 223.687 376.902 202.355 375.92L200.818 380.141L199.759 375.995ZM183.442 363.395C181.111 363.395 179.839 364.113 179.297 366.281C178.919 367.805 179.297 368.297 179.776 368.801C182.422 371.787 191.821 372.215 198.298 371.648C195.929 367.843 188.634 363.42 183.442 363.42V363.395ZM204.321 371.22C217.488 371.56 221.419 367.994 221.595 365.903C221.746 364.05 219.516 361.732 216.303 361.404C216.056 361.392 215.807 361.392 215.56 361.404C209.902 361.392 205.946 367.969 204.321 371.245V371.22Z" fill="#263238"/>
<g opacity="0.7">
<path d="M199.759 375.995C195.463 376.449 181.174 377.532 176.223 371.938C175.387 371.029 174.806 369.915 174.538 368.709C174.27 367.504 174.325 366.249 174.698 365.071C175.756 360.8 178.944 358.683 183.442 358.683C189.314 358.683 197.088 362.677 201.082 367.503C203.741 362.904 208.932 355.898 216.744 356.705C222.414 357.272 226.698 361.581 226.295 366.318C226.081 368.838 223.687 376.902 202.355 375.92L200.818 380.141L199.759 375.995ZM183.442 363.395C181.111 363.395 179.839 364.113 179.297 366.281C178.919 367.805 179.297 368.297 179.776 368.801C182.422 371.787 191.821 372.215 198.298 371.648C195.929 367.843 188.634 363.42 183.442 363.42V363.395ZM204.321 371.22C217.488 371.56 221.419 367.994 221.595 365.903C221.746 364.05 219.516 361.732 216.303 361.404C216.056 361.392 215.807 361.392 215.56 361.404C209.902 361.392 205.946 367.969 204.321 371.245V371.22Z" fill="white"/>
</g>
<path d="M155.042 436.965H247.514V373.448H155.042V436.965Z" fill="#407BFF"/>
<path opacity="0.2" d="M155.042 436.965H247.514V373.448H155.042V436.965Z" fill="white"/>
<path opacity="0.2" d="M155.042 436.965H247.514V395.397H155.042V436.965Z" fill="black"/>
<path d="M178.377 436.965H185.887V373.448H178.377V436.965Z" fill="#263238"/>
<path opacity="0.2" d="M210.772 436.965H247.514V373.448H210.772V436.965Z" fill="black"/>
<path d="M229.005 436.965H234.523V373.448H229.005V436.965Z" fill="#263238"/>
<path opacity="0.8" d="M178.377 436.965H185.887V373.448H178.377V436.965Z" fill="white"/>
<path opacity="0.7" d="M229.005 436.965H234.523V373.448H229.005V436.965Z" fill="white"/>
<path d="M157.31 403.902C154.185 402.781 126.743 392.562 125.205 382.885C124.84 380.643 125.785 378.639 128.003 376.913C129.078 376.024 130.349 375.403 131.712 375.1C133.074 374.798 134.489 374.823 135.84 375.174C142.001 376.661 148.024 384.108 152.346 390.836C150.027 382.709 148.226 372.805 151.401 368.156C152.052 367.23 152.934 366.492 153.96 366.014C154.986 365.536 156.12 365.337 157.247 365.434C158.426 365.42 159.589 365.703 160.629 366.258C161.668 366.813 162.551 367.622 163.194 368.61C166.559 373.75 164.593 384.423 162.312 392.55C167.352 384.649 174.345 375.174 179.247 375.59C180.507 375.691 182.195 376.434 183.241 379.37C183.713 380.709 183.903 382.131 183.799 383.547C183.695 384.963 183.299 386.342 182.636 387.598C177.684 397.476 158.847 403.549 158.054 403.801C157.941 403.82 157.826 403.82 157.713 403.801C157.586 403.857 157.449 403.891 157.31 403.902ZM160.196 400.677C165.601 398.598 177.13 393.495 180.545 386.653C181.074 385.679 181.391 384.604 181.476 383.499C181.561 382.393 181.411 381.283 181.036 380.239C180.28 378.06 179.36 377.984 179.058 377.971H178.919C174.547 377.959 165.74 390.886 160.196 400.677ZM129.414 378.727C128.765 379.109 128.239 379.667 127.895 380.336C127.552 381.005 127.405 381.758 127.473 382.507C128.494 388.908 145.945 396.997 155.332 400.677C152.132 394.503 143.551 379.408 135.273 377.417C134.72 377.28 134.154 377.208 133.584 377.203C132.06 377.217 130.588 377.756 129.414 378.727ZM153.354 369.529C149.649 374.884 154.538 391.063 157.726 399.568C160.662 391.29 165.034 375.628 161.304 369.933C160.863 369.258 160.256 368.708 159.541 368.335C158.826 367.963 158.028 367.779 157.222 367.803H156.995C156.281 367.741 155.562 367.868 154.912 368.171C154.262 368.474 153.703 368.942 153.291 369.529H153.354Z" fill="#263238"/>
<g opacity="0.3">
<path d="M157.31 403.902C154.185 402.781 126.743 392.562 125.205 382.885C124.84 380.643 125.785 378.639 128.003 376.913C129.078 376.024 130.349 375.403 131.712 375.1C133.074 374.798 134.489 374.823 135.84 375.174C142.001 376.661 148.024 384.108 152.346 390.836C150.027 382.709 148.226 372.805 151.401 368.156C152.052 367.23 152.934 366.492 153.96 366.014C154.986 365.536 156.12 365.337 157.247 365.434C158.426 365.42 159.589 365.703 160.629 366.258C161.668 366.813 162.551 367.622 163.194 368.61C166.559 373.75 164.593 384.423 162.312 392.55C167.352 384.649 174.345 375.174 179.247 375.59C180.507 375.691 182.195 376.434 183.241 379.37C183.713 380.709 183.903 382.131 183.799 383.547C183.695 384.963 183.299 386.342 182.636 387.598C177.684 397.476 158.847 403.549 158.054 403.801C157.941 403.82 157.826 403.82 157.713 403.801C157.586 403.857 157.449 403.891 157.31 403.902ZM160.196 400.677C165.601 398.598 177.13 393.495 180.545 386.653C181.074 385.679 181.391 384.604 181.476 383.499C181.561 382.393 181.411 381.283 181.036 380.239C180.28 378.06 179.36 377.984 179.058 377.971H178.919C174.547 377.959 165.74 390.886 160.196 400.677ZM129.414 378.727C128.765 379.109 128.239 379.667 127.895 380.336C127.552 381.005 127.405 381.758 127.473 382.507C128.494 388.908 145.945 396.997 155.332 400.677C152.132 394.503 143.551 379.408 135.273 377.417C134.72 377.28 134.154 377.208 133.584 377.203C132.06 377.217 130.588 377.756 129.414 378.727ZM153.354 369.529C149.649 374.884 154.538 391.063 157.726 399.568C160.662 391.29 165.034 375.628 161.304 369.933C160.863 369.258 160.256 368.708 159.541 368.335C158.826 367.963 158.028 367.779 157.222 367.803H156.995C156.281 367.741 155.562 367.868 154.912 368.171C154.262 368.474 153.703 368.942 153.291 369.529H153.354Z" fill="black"/>
</g>
<path d="M216.556 399.266H101.404V478.368H216.556V399.266Z" fill="#407BFF"/>
<path opacity="0.6" d="M216.556 399.266H101.404V478.368H216.556V399.266Z" fill="white"/>
<path opacity="0.1" d="M216.556 426.598H101.404V478.371H216.556V426.598Z" fill="black"/>
<path opacity="0.2" d="M147.155 399.266H101.404V478.368H147.155V399.266Z" fill="white"/>
<path d="M187.5 399.266H178.139V478.368H187.5V399.266Z" fill="#263238"/>
<path d="M124.437 399.266H117.57V478.368H124.437V399.266Z" fill="#263238"/>
<path opacity="0.2" d="M187.5 399.266H178.139V478.368H187.5V399.266Z" fill="black"/>
<path opacity="0.1" d="M124.437 399.266H117.57V478.368H124.437V399.266Z" fill="black"/>
<path d="M228.513 417.413C224.217 417.854 209.928 418.938 204.976 413.356C204.14 412.444 203.559 411.328 203.292 410.12C203.024 408.913 203.079 407.656 203.452 406.476C204.51 402.205 207.698 400.088 212.196 400.088C218.068 400.088 225.842 404.082 229.836 408.908C232.495 404.296 237.686 397.303 245.498 398.097C251.168 398.664 255.452 402.973 255.049 407.711C254.834 410.231 252.44 418.295 231.109 417.312L229.521 421.508L228.513 417.413ZM212.133 404.813C209.802 404.813 208.53 405.519 207.988 407.686C207.61 409.21 207.988 409.702 208.466 410.206C211.112 413.179 220.512 413.608 226.988 413.041C224.683 409.248 217.387 404.838 212.196 404.838L212.133 404.813ZM233.1 412.663C246.266 412.99 250.198 409.437 250.374 407.346C250.525 405.481 248.295 403.162 245.082 402.847C244.834 402.835 244.586 402.835 244.339 402.847C238.656 402.822 234.7 409.374 233.1 412.663Z" fill="#407BFF"/>
<path d="M183.809 478.359H276.268V414.843H183.809V478.359Z" fill="#263238"/>
<path opacity="0.5" d="M183.809 478.359H276.268V414.843H183.809V478.359Z" fill="white"/>
<path opacity="0.2" d="M183.809 478.371H276.268V436.804H183.809V478.371Z" fill="black"/>
<path d="M207.131 478.359H214.641V414.843H207.131V478.359Z" fill="#407BFF"/>
<path d="M257.759 478.359H263.277V414.843H257.759V478.359Z" fill="#407BFF"/>
<path opacity="0.2" d="M239.526 478.359H276.268V414.843H239.526V478.359Z" fill="black"/>
<path opacity="0.2" d="M207.131 478.359H214.641V414.843H207.131V478.359Z" fill="white"/>
<path d="M134.82 444.399C134.253 442.9 134.203 440.619 137.151 437.986C137.906 437.293 138.81 436.782 139.792 436.492C140.775 436.202 141.811 436.139 142.821 436.31C148.403 437.192 153.846 444.437 155.988 447.65C159.062 443.429 167.769 432.215 173.288 433.211C175.153 433.538 176.425 435.025 177.068 437.633C177.477 438.987 177.565 440.417 177.325 441.81C177.084 443.204 176.522 444.522 175.682 445.659C171.007 451.959 158.42 452.577 157.878 452.589C147.874 452.501 136.773 449.704 134.82 444.399ZM156.971 450.233H157.828C158.407 450.233 169.911 449.54 173.855 444.223C174.485 443.36 174.903 442.359 175.073 441.304C175.244 440.249 175.163 439.168 174.838 438.15C174.422 436.512 173.767 435.63 172.885 435.441C172.755 435.428 172.624 435.428 172.494 435.441C168.601 435.365 161.003 444.273 156.92 450.183L156.971 450.233ZM138.6 439.687C137.038 441.048 136.471 442.346 136.912 443.543C137.995 446.453 144.988 449.578 154.804 450.107C154.06 448.923 148 439.435 142.393 438.553C142.135 438.508 141.873 438.487 141.611 438.49C140.493 438.499 139.419 438.926 138.6 439.687Z" fill="#E0E0E0"/>
<path d="M108.234 478.371H200.705V449.63H108.234V478.371Z" fill="#407BFF"/>
<path opacity="0.2" d="M108.234 478.371H200.705V449.63H108.234V478.371Z" fill="white"/>
<path opacity="0.2" d="M108.234 478.371H200.705V459.988H108.234V478.371Z" fill="black"/>
<path d="M131.569 478.371H139.078V449.63H131.569V478.371Z" fill="white"/>
<path d="M182.196 478.371H187.715V449.63H182.196V478.371Z" fill="white"/>
<path opacity="0.2" d="M163.95 478.371H200.691V449.63H163.95V478.371Z" fill="black"/>
<path d="M462.584 478.42H305.45C303.917 478.432 302.397 478.128 300.986 477.529C299.575 476.929 298.303 476.046 297.247 474.935C296.191 473.823 295.374 472.507 294.848 471.067C294.321 469.627 294.095 468.094 294.185 466.564L309.809 134.264C309.993 131.087 311.373 128.098 313.67 125.896C315.968 123.694 319.013 122.444 322.195 122.395H479.317C480.852 122.384 482.372 122.687 483.785 123.288C485.197 123.888 486.472 124.772 487.529 125.884C488.586 126.997 489.404 128.315 489.931 129.756C490.458 131.198 490.684 132.732 490.594 134.264L475.02 466.513C474.845 469.705 473.462 472.711 471.153 474.922C468.844 477.133 465.781 478.384 462.584 478.42Z" fill="#407BFF"/>
<path opacity="0.4" d="M462.584 478.42H305.45C303.917 478.432 302.397 478.128 300.986 477.529C299.575 476.929 298.303 476.046 297.247 474.935C296.191 473.823 295.374 472.507 294.848 471.067C294.321 469.627 294.095 468.094 294.185 466.564L309.809 134.264C309.993 131.087 311.373 128.098 313.67 125.896C315.968 123.694 319.013 122.444 322.195 122.395H479.317C480.852 122.384 482.372 122.687 483.785 123.288C485.197 123.888 486.472 124.772 487.529 125.884C488.586 126.997 489.404 128.315 489.931 129.756C490.458 131.198 490.684 132.732 490.594 134.264L475.02 466.513C474.845 469.705 473.462 472.711 471.153 474.922C468.844 477.133 465.781 478.384 462.584 478.42Z" fill="white"/>
<path opacity="0.2" d="M462.584 478.42H305.45C303.917 478.432 302.397 478.128 300.986 477.529C299.575 476.929 298.303 476.046 297.247 474.935C296.191 473.823 295.374 472.507 294.848 471.067C294.321 469.627 294.095 468.094 294.185 466.564L309.809 134.264C309.993 131.087 311.373 128.098 313.67 125.896C315.968 123.694 319.013 122.444 322.195 122.395H479.317C480.852 122.384 482.372 122.687 483.785 123.288C485.197 123.888 486.472 124.772 487.529 125.884C488.586 126.997 489.404 128.315 489.931 129.756C490.458 131.198 490.684 132.732 490.594 134.264L475.02 466.513C474.845 469.705 473.462 472.711 471.153 474.922C468.844 477.133 465.781 478.384 462.584 478.42Z" fill="black"/>
<path d="M449.971 478.42H292.849C291.315 478.433 289.794 478.131 288.382 477.532C286.969 476.933 285.695 476.051 284.638 474.939C283.58 473.828 282.763 472.51 282.235 471.07C281.708 469.629 281.482 468.095 281.572 466.564L297.209 134.264C297.393 131.089 298.77 128.102 301.065 125.9C303.36 123.699 306.402 122.447 309.582 122.395H466.716C468.251 122.383 469.771 122.687 471.183 123.288C472.594 123.888 473.868 124.772 474.924 125.885C475.98 126.998 476.797 128.316 477.322 129.757C477.848 131.199 478.072 132.733 477.981 134.264L462.42 466.513C462.244 469.708 460.86 472.715 458.548 474.927C456.236 477.138 453.17 478.387 449.971 478.42Z" fill="#407BFF"/>
<path opacity="0.4" d="M449.971 478.42H292.849C291.315 478.433 289.794 478.131 288.382 477.532C286.969 476.933 285.695 476.051 284.638 474.939C283.58 473.828 282.763 472.51 282.235 471.07C281.708 469.629 281.482 468.095 281.572 466.564L297.209 134.264C297.393 131.089 298.77 128.102 301.065 125.9C303.36 123.699 306.402 122.447 309.582 122.395H466.716C468.251 122.383 469.771 122.687 471.183 123.288C472.594 123.888 473.868 124.772 474.924 125.885C475.98 126.998 476.797 128.316 477.322 129.757C477.848 131.199 478.072 132.733 477.981 134.264L462.42 466.513C462.244 469.708 460.86 472.715 458.548 474.927C456.236 477.138 453.17 478.387 449.971 478.42Z" fill="white"/>
<path opacity="0.6" d="M387.752 130.247C387.752 130.9 387.499 131.528 387.045 131.998C386.591 132.468 385.973 132.744 385.32 132.767C385.008 132.753 384.702 132.675 384.42 132.54C384.139 132.404 383.888 132.212 383.683 131.977C383.478 131.741 383.323 131.466 383.228 131.169C383.132 130.871 383.098 130.558 383.127 130.247C383.127 129.593 383.38 128.965 383.834 128.495C384.288 128.025 384.906 127.749 385.559 127.727C385.871 127.741 386.177 127.818 386.458 127.954C386.74 128.089 386.991 128.281 387.196 128.517C387.401 128.752 387.556 129.027 387.651 129.324C387.747 129.622 387.781 129.936 387.752 130.247Z" fill="black"/>
<path opacity="0.6" d="M392.441 130.246C392.432 130.664 392.267 131.063 391.977 131.364C391.688 131.665 391.296 131.847 390.879 131.872C390.678 131.863 390.481 131.813 390.3 131.725C390.118 131.637 389.957 131.513 389.825 131.361C389.693 131.209 389.593 131.032 389.532 130.841C389.47 130.649 389.449 130.447 389.468 130.246C389.476 129.829 389.642 129.43 389.931 129.129C390.221 128.828 390.613 128.646 391.03 128.621C391.231 128.63 391.428 128.68 391.609 128.768C391.79 128.856 391.952 128.98 392.084 129.132C392.216 129.284 392.315 129.461 392.377 129.652C392.438 129.844 392.46 130.046 392.441 130.246Z" fill="black"/>
<path d="M471.882 134.277L456.296 465.821C456.277 467.079 455.777 468.282 454.898 469.182C454.019 470.082 452.828 470.611 451.571 470.659H291.551C291.002 470.641 290.462 470.508 289.967 470.269C289.472 470.03 289.033 469.69 288.677 469.271C288.321 468.853 288.057 468.364 287.901 467.837C287.745 467.31 287.7 466.756 287.771 466.211L303.395 133.886C303.375 132.875 303.737 131.894 304.41 131.139C305.083 130.384 306.017 129.912 307.024 129.816H347.041C347.618 129.831 348.175 130.032 348.629 130.388C349.083 130.745 349.41 131.238 349.561 131.795L351.01 136.255C351.165 136.808 351.493 137.297 351.947 137.649C352.401 138 352.956 138.197 353.53 138.208H421.671C422.254 138.186 422.816 137.992 423.289 137.652C423.762 137.311 424.124 136.838 424.33 136.293L426.195 131.807C426.397 131.251 426.758 130.766 427.233 130.413C427.707 130.059 428.275 129.852 428.866 129.816H468.316C468.844 129.874 469.354 130.036 469.819 130.292C470.284 130.547 470.694 130.892 471.025 131.307C471.356 131.721 471.602 132.197 471.749 132.706C471.897 133.216 471.942 133.75 471.882 134.277Z" fill="#263238"/>
<path opacity="0.3" d="M471.113 150.52L457.089 448.673H288.514L302.537 150.52H471.113Z" fill="white"/>
<path d="M465.142 189.012H304.883L292.875 444.452H453.134L465.142 189.012Z" fill="#407BFF"/>
<path opacity="0.8" d="M465.142 189.012H304.883L292.875 444.452H453.134L465.142 189.012Z" fill="white"/>
<path d="M373.325 462.518H371.044C370.685 462.523 370.328 462.454 369.996 462.315C369.665 462.176 369.365 461.971 369.116 461.711C368.871 461.449 368.68 461.139 368.557 460.802C368.433 460.464 368.379 460.105 368.398 459.746L368.537 456.835C368.578 456.105 368.895 455.418 369.424 454.913C369.953 454.407 370.653 454.122 371.384 454.113H373.665C374.022 454.11 374.377 454.18 374.706 454.319C375.035 454.457 375.333 454.662 375.58 454.92C375.828 455.184 376.02 455.495 376.146 455.835C376.271 456.175 376.328 456.536 376.311 456.898L376.172 459.796C376.131 460.526 375.814 461.213 375.285 461.718C374.757 462.224 374.056 462.509 373.325 462.518ZM371.384 455.197C370.93 455.206 370.496 455.386 370.169 455.701C369.842 456.017 369.646 456.444 369.62 456.898L369.482 459.796C369.473 460.008 369.506 460.22 369.58 460.419C369.653 460.618 369.765 460.8 369.91 460.955C370.055 461.11 370.231 461.233 370.426 461.315C370.622 461.398 370.832 461.438 371.044 461.434H373.325C373.777 461.425 374.21 461.247 374.536 460.934C374.863 460.621 375.06 460.197 375.089 459.746L375.215 456.835C375.229 456.624 375.199 456.412 375.127 456.213C375.055 456.014 374.943 455.831 374.797 455.678C374.652 455.524 374.476 455.402 374.281 455.319C374.087 455.236 373.877 455.195 373.665 455.197H371.384Z" fill="white"/>
<path d="M465.267 186.439H305.008L306.419 156.363H466.678L465.267 186.439Z" fill="#407BFF"/>
<path d="M458.474 166.266C458.472 166.608 458.341 166.937 458.108 167.186C457.874 167.436 457.555 167.589 457.214 167.614C457.049 167.603 456.887 167.559 456.738 167.485C456.59 167.412 456.457 167.309 456.348 167.184C456.239 167.059 456.156 166.913 456.104 166.755C456.051 166.598 456.03 166.432 456.042 166.266C456.047 165.925 456.179 165.598 456.412 165.349C456.645 165.1 456.962 164.946 457.302 164.918C457.468 164.929 457.63 164.973 457.778 165.047C457.927 165.121 458.06 165.223 458.168 165.349C458.277 165.474 458.36 165.619 458.413 165.777C458.465 165.934 458.486 166.101 458.474 166.266Z" fill="white"/>
<path d="M458.235 171.398C458.23 171.739 458.098 172.066 457.865 172.315C457.632 172.565 457.315 172.718 456.975 172.746C456.643 172.721 456.334 172.564 456.117 172.312C455.9 172.059 455.792 171.73 455.816 171.398C455.821 171.058 455.953 170.733 456.187 170.486C456.42 170.239 456.737 170.088 457.076 170.062C457.406 170.088 457.712 170.243 457.929 170.493C458.146 170.743 458.256 171.068 458.235 171.398Z" fill="white"/>
<path d="M457.996 176.536C457.991 176.875 457.858 177.201 457.625 177.448C457.392 177.695 457.075 177.846 456.736 177.871C456.406 177.845 456.1 177.691 455.883 177.441C455.666 177.191 455.556 176.866 455.577 176.536C455.582 176.195 455.714 175.868 455.947 175.618C456.179 175.369 456.497 175.216 456.837 175.188C457.169 175.213 457.477 175.37 457.695 175.622C457.912 175.875 458.02 176.203 457.996 176.536Z" fill="white"/>
<path d="M347.135 174.29L350.258 168.05H351.4L353.908 174.29H352.695L350.557 168.665H351.021L348.331 174.29H347.135ZM348.501 172.846L348.859 171.937H352.232L352.499 172.846H348.501ZM356.07 174.29L356.346 168.78H354.177L354.228 167.753H359.781L359.73 168.78H357.561L357.286 174.29H356.07ZM361.786 174.29L362.061 168.78H359.892L359.943 167.753H365.497L365.446 168.78H363.277L363.001 174.29H361.786ZM367.395 170.471H370.649L370.599 171.47H367.345L367.395 170.471ZM367.349 173.272H371.041L370.991 174.29H366.082L366.409 167.753H371.186L371.136 168.771H367.574L367.349 173.272ZM372.345 174.29L372.672 167.753H373.673L377.525 172.786H377.03L377.281 167.753H378.487L378.161 174.29H377.16L373.308 169.257H373.803L373.552 174.29H372.345ZM379.914 174.29L380.241 167.753H383.102C383.813 167.753 384.429 167.89 384.951 168.164C385.474 168.438 385.872 168.818 386.147 169.303C386.422 169.789 386.543 170.362 386.51 171.021C386.477 171.675 386.299 172.248 385.975 172.74C385.652 173.225 385.215 173.605 384.666 173.879C384.116 174.153 383.486 174.29 382.775 174.29H379.914ZM381.181 173.262H382.77C383.263 173.262 383.691 173.169 384.056 172.982C384.427 172.796 384.717 172.534 384.927 172.198C385.143 171.862 385.263 171.47 385.285 171.021C385.308 170.567 385.228 170.175 385.045 169.845C384.868 169.509 384.604 169.247 384.252 169.061C383.906 168.874 383.487 168.78 382.995 168.78H381.405L381.181 173.262ZM386.621 174.29L389.893 167.753H391.09L393.718 174.29H392.446L390.207 168.398H390.693L387.874 174.29H386.621ZM388.053 172.777L388.428 171.824H391.962L392.241 172.777H388.053ZM394.55 174.29L394.877 167.753H395.877L399.73 172.786H399.234L399.486 167.753H400.692L400.365 174.29H399.365L395.512 169.257H396.008L395.756 174.29H394.55ZM405.143 174.383C404.645 174.383 404.184 174.302 403.762 174.14C403.347 173.972 402.988 173.739 402.685 173.44C402.388 173.135 402.163 172.777 402.009 172.366C401.855 171.955 401.79 171.507 401.815 171.021C401.839 170.536 401.949 170.088 402.144 169.677C402.339 169.266 402.603 168.911 402.935 168.612C403.269 168.307 403.651 168.074 404.083 167.912C404.515 167.744 404.984 167.66 405.489 167.66C406.025 167.66 406.509 167.753 406.942 167.94C407.376 168.121 407.736 168.391 408.024 168.752L407.202 169.49C406.977 169.235 406.722 169.045 406.435 168.92C406.149 168.79 405.834 168.724 405.492 168.724C405.149 168.724 404.831 168.78 404.539 168.892C404.253 169.005 403.999 169.163 403.776 169.369C403.56 169.574 403.386 169.817 403.254 170.097C403.128 170.377 403.056 170.685 403.039 171.021C403.023 171.358 403.063 171.666 403.161 171.946C403.266 172.226 403.416 172.469 403.611 172.674C403.813 172.88 404.051 173.038 404.326 173.15C404.607 173.262 404.919 173.318 405.262 173.318C405.605 173.318 405.926 173.256 406.225 173.132C406.524 173.001 406.799 172.805 407.049 172.543L407.797 173.29C407.474 173.645 407.086 173.916 406.634 174.103C406.182 174.29 405.685 174.383 405.143 174.383ZM410.224 170.471H413.478L413.428 171.47H410.174L410.224 170.471ZM410.178 173.272H413.871L413.82 174.29H408.911L409.238 167.753H414.016L413.965 168.771H410.403L410.178 173.272Z" fill="white"/>
<path d="M373.299 438.719C373.201 438.715 373.105 438.685 373.022 438.631L366.609 434.851C366.487 434.775 366.4 434.656 366.365 434.517C366.33 434.379 366.349 434.232 366.42 434.108C366.456 434.046 366.504 433.993 366.561 433.95C366.618 433.908 366.683 433.877 366.752 433.859C366.821 433.841 366.893 433.838 366.963 433.848C367.034 433.858 367.102 433.882 367.163 433.919L373.312 437.573L379.801 433.906C379.863 433.871 379.933 433.848 380.004 433.84C380.076 433.831 380.148 433.837 380.217 433.857C380.287 433.877 380.351 433.911 380.407 433.956C380.463 434.001 380.51 434.057 380.544 434.12C380.613 434.244 380.63 434.39 380.592 434.527C380.555 434.663 380.465 434.78 380.343 434.851L373.564 438.631C373.486 438.685 373.394 438.716 373.299 438.719Z" fill="white"/>
<path d="M373.515 434.143C373.417 434.143 373.322 434.117 373.238 434.067L366.824 430.287C366.702 430.209 366.615 430.087 366.579 429.947C366.544 429.806 366.564 429.658 366.635 429.531C366.711 429.41 366.831 429.323 366.969 429.287C367.108 429.252 367.254 429.272 367.379 429.342L373.528 433.009L380.017 429.279C380.142 429.207 380.291 429.188 380.43 429.226C380.569 429.264 380.688 429.355 380.76 429.481C380.832 429.606 380.851 429.755 380.813 429.894C380.775 430.034 380.684 430.152 380.558 430.224L373.78 434.004C373.704 434.071 373.613 434.118 373.515 434.143Z" fill="white"/>
<path opacity="0.6" d="M321.463 143.173H323.542L323.681 140.137H321.601L321.463 143.173Z" fill="white"/>
<path opacity="0.6" d="M318.061 143.17H320.152L320.341 139.113H318.262L318.061 143.17Z" fill="white"/>
<path opacity="0.6" d="M314.672 143.171H316.751L316.99 138.105H314.911L314.672 143.171Z" fill="white"/>
<path opacity="0.6" d="M311.283 143.172H313.362L313.652 137.086H311.573L311.283 143.172Z" fill="white"/>
<path opacity="0.6" d="M452.442 142.065H451.207L451.346 139.016H452.58L452.442 142.065Z" fill="white"/>
<path opacity="0.6" d="M453.234 143.173H463.062L463.314 137.906H453.474L453.234 143.173Z" fill="white"/>
<path d="M414.124 228.826C398.298 226.306 385.32 246.466 381.49 253.22C377.71 246.516 364.681 226.331 348.856 228.826C330.057 231.8 330.46 263.93 381.49 255.538C432.507 263.93 432.923 231.8 414.124 228.826ZM346.361 239.234C353.707 231.989 374.824 252.804 374.824 252.804C374.824 252.804 339.003 246.479 346.361 239.234ZM388.155 252.804C388.155 252.804 409.26 231.989 416.619 239.234C423.977 246.479 388.155 252.804 388.155 252.804Z" fill="#407BFF"/>
<path opacity="0.6" d="M414.11 228.826C398.285 226.306 385.319 246.466 381.476 253.22C377.696 246.516 364.668 226.331 348.842 228.826C336.016 230.855 332.135 246.466 347.192 253.509C354.185 256.785 365.285 258.197 381.476 255.538C397.667 258.197 408.755 256.798 415.774 253.509C430.831 246.479 426.95 230.855 414.11 228.826ZM346.348 239.234C353.719 231.989 374.824 252.804 374.824 252.804C374.824 252.804 339.002 246.479 346.348 239.234ZM388.142 252.804C388.142 252.804 409.259 231.989 416.605 239.234C423.951 246.479 388.142 252.804 388.142 252.804Z" fill="white"/>
<path d="M433.894 257.871L433.062 275.183L432.899 278.787L429.736 346.298H323.316L326.492 278.787L326.655 275.183L327.462 257.871H433.894Z" fill="#407BFF"/>
<path d="M436.514 255.352L435.594 275.184H324.135L325.067 255.352H436.514Z" fill="#407BFF"/>
<path opacity="0.7" d="M388.496 255.352L388.37 257.872L387.564 275.184L384.212 346.298H367.832L371.171 275.184L371.99 257.872L372.103 255.352H388.496Z" fill="white"/>
<path opacity="0.2" d="M433.061 275.184L432.897 278.787H326.49L326.654 275.184H433.061Z" fill="black"/>
<path opacity="0.2" d="M463 129.805L295.307 304.428L303.32 133.874C303.3 132.863 303.663 131.882 304.336 131.127C305.009 130.372 305.942 129.9 306.949 129.805H346.967C347.543 129.822 348.099 130.023 348.552 130.379C349.006 130.735 349.333 131.227 349.487 131.783L350.923 136.243C351.077 136.796 351.406 137.285 351.86 137.637C352.314 137.989 352.869 138.185 353.443 138.196H421.584C422.166 138.173 422.728 137.978 423.201 137.638C423.673 137.297 424.036 136.826 424.242 136.281L426.107 131.783C426.316 131.229 426.68 130.748 427.156 130.396C427.633 130.045 428.2 129.84 428.791 129.805H463Z" fill="white"/>
<path opacity="0.2" d="M470.572 162.172L469.904 176.498L292.635 361.075L293.303 346.749L470.572 162.172Z" fill="white"/>
<path d="M447.275 156.363H298.129V186.439H447.275V156.363Z" fill="white"/>
<g opacity="0.2">
<path d="M465.267 186.439H305.008L306.419 156.363H466.678L465.267 186.439Z" fill="white"/>
<path d="M458.474 166.266C458.472 166.608 458.341 166.937 458.108 167.186C457.874 167.436 457.555 167.589 457.214 167.614C457.049 167.603 456.887 167.559 456.738 167.485C456.59 167.412 456.457 167.309 456.348 167.184C456.239 167.059 456.156 166.913 456.104 166.755C456.051 166.598 456.03 166.432 456.042 166.266C456.047 165.925 456.179 165.598 456.412 165.349C456.645 165.1 456.962 164.946 457.302 164.918C457.468 164.929 457.63 164.973 457.778 165.047C457.927 165.121 458.06 165.223 458.168 165.349C458.277 165.474 458.36 165.619 458.413 165.777C458.465 165.934 458.486 166.101 458.474 166.266Z" fill="white"/>
<path d="M458.235 171.394C458.23 171.735 458.098 172.062 457.865 172.311C457.632 172.561 457.315 172.714 456.975 172.742C456.643 172.717 456.334 172.56 456.117 172.308C455.9 172.055 455.792 171.727 455.816 171.394C455.821 171.054 455.953 170.729 456.187 170.482C456.42 170.235 456.737 170.084 457.076 170.059C457.406 170.084 457.712 170.239 457.929 170.489C458.146 170.739 458.256 171.064 458.235 171.394Z" fill="white"/>
<path d="M457.996 176.536C457.991 176.875 457.858 177.201 457.625 177.448C457.392 177.695 457.075 177.846 456.736 177.871C456.406 177.845 456.1 177.691 455.883 177.441C455.666 177.191 455.556 176.866 455.577 176.536C455.582 176.195 455.714 175.868 455.947 175.618C456.179 175.369 456.497 175.216 456.837 175.188C457.169 175.213 457.477 175.37 457.695 175.622C457.912 175.875 458.02 176.203 457.996 176.536Z" fill="white"/>
</g>
<path d="M318.738 193.057C322.394 189.401 322.394 183.474 318.738 179.818C315.082 176.162 309.155 176.162 305.499 179.818C301.843 183.474 301.843 189.401 305.499 193.057C309.155 196.713 315.082 196.713 318.738 193.057Z" fill="white"/>
<path d="M358.827 187.954C359.656 182.851 356.19 178.042 351.087 177.214C345.983 176.385 341.174 179.851 340.346 184.954C339.517 190.058 342.983 194.867 348.087 195.695C353.19 196.524 357.999 193.058 358.827 187.954Z" fill="white"/>
<path d="M396.127 188.568C397.315 183.536 394.198 178.494 389.166 177.306C384.134 176.119 379.092 179.235 377.904 184.267C376.717 189.3 379.833 194.342 384.865 195.529C389.897 196.717 394.94 193.601 396.127 188.568Z" fill="white"/>
<path d="M431.105 193.057C434.762 189.401 434.762 183.474 431.105 179.818C427.449 176.162 421.522 176.162 417.866 179.818C414.21 183.474 414.21 189.401 417.866 193.057C421.522 196.713 427.449 196.713 431.105 193.057Z" fill="white"/>
<path d="M452.578 186.439C452.578 186.439 455.186 162.134 466.678 156.363L465.266 186.439H452.578Z" fill="#407BFF"/>
<path d="M447.955 156.366C438.744 160.99 435.241 177.509 434.208 183.884C433.978 184.705 433.86 185.552 433.855 186.404C433.855 188.887 434.842 191.268 436.597 193.024C438.353 194.78 440.734 195.766 443.217 195.766C445.7 195.766 448.081 194.78 449.837 193.024C451.593 191.268 452.579 188.887 452.579 186.404C452.579 186.404 455.187 162.099 466.678 156.328L447.955 156.366Z" fill="#407BFF"/>
<path d="M396.747 183.884C396.517 184.705 396.399 185.552 396.395 186.404C396.395 188.887 397.381 191.268 399.137 193.024C400.892 194.78 403.273 195.766 405.756 195.766C408.239 195.766 410.62 194.78 412.376 193.024C414.132 191.268 415.118 188.887 415.118 186.404C415.118 186.404 417.726 162.099 429.23 156.328H410.494C401.283 160.99 397.781 177.509 396.747 183.884Z" fill="#407BFF"/>
<path d="M359.303 183.884C359.069 184.704 358.946 185.552 358.938 186.404C359.026 188.829 360.052 191.126 361.8 192.81C363.547 194.494 365.879 195.435 368.306 195.435C370.732 195.435 373.065 194.494 374.812 192.81C376.559 191.126 377.585 188.829 377.674 186.404C377.674 186.404 380.282 162.099 391.773 156.328H373.037C363.826 160.99 360.361 177.509 359.303 183.884Z" fill="#407BFF"/>
<path d="M321.842 183.882C321.607 184.701 321.485 185.549 321.477 186.402C321.566 188.827 322.591 191.123 324.339 192.807C326.086 194.491 328.418 195.432 330.845 195.432C333.271 195.432 335.604 194.491 337.351 192.807C339.098 191.123 340.124 188.827 340.213 186.402C340.213 186.402 342.821 162.159 354.312 156.363H335.589C326.34 160.987 322.875 177.506 321.842 183.882Z" fill="#407BFF"/>
<path d="M284.382 183.884C284.152 184.705 284.033 185.552 284.029 186.404C284.029 188.887 285.016 191.268 286.771 193.024C288.527 194.78 290.908 195.766 293.391 195.766C295.874 195.766 298.255 194.78 300.011 193.024C301.767 191.268 302.753 188.887 302.753 186.404C302.753 186.404 305.361 162.099 316.852 156.328H298.129C288.918 160.99 285.415 177.509 284.382 183.884Z" fill="#407BFF"/>
<path opacity="0.2" d="M452.578 186.439C452.578 186.439 455.186 162.134 466.678 156.363L465.266 186.439H452.578Z" fill="black"/>
<path d="M244.339 255.4C237.577 260.713 230.28 265.307 222.566 269.109C219.366 270.784 216.014 268.277 215.208 265.329C214.087 261.813 214.956 258.159 215.762 254.908C217.527 248.922 219.847 243.113 222.692 237.558C224.078 234.824 225.464 232.14 227.027 229.481C227.371 228.901 227.918 228.468 228.562 228.264C229.206 228.061 229.902 228.102 230.517 228.379C231.133 228.657 231.625 229.151 231.899 229.768C232.173 230.385 232.21 231.082 232.004 231.724C230.152 237.306 228.287 243.001 226.724 248.646C225.628 253.031 224.104 257.592 224.469 261.952C224.469 262.216 224.708 262.116 224.129 261.36L217.967 260.326C221.319 258.197 224.608 255.941 227.896 253.699C231.185 251.456 234.473 248.999 237.598 246.718C238.76 245.917 240.185 245.592 241.58 245.809C242.975 246.026 244.233 246.77 245.096 247.887C245.96 249.003 246.362 250.408 246.222 251.813C246.081 253.217 245.407 254.514 244.339 255.438V255.4Z" fill="#E9B376"/>
<path d="M247.577 241.315C239.702 241.151 227.82 250.55 227.82 250.55C227.82 250.55 230.114 265.759 234.057 267.157C238.001 268.556 247.577 241.315 247.577 241.315Z" fill="#407BFF"/>
<path opacity="0.7" d="M247.579 241.315C247.579 241.315 241.178 259.509 236.692 265.381C235.684 266.716 234.777 267.409 234.059 267.157C232.522 266.603 231.224 263.944 230.279 260.857C229.234 257.466 228.434 254.005 227.885 250.5C227.885 250.5 239.704 241.151 247.579 241.315Z" fill="white"/>
<path opacity="0.1" d="M236.691 265.378C235.683 266.713 234.776 267.406 234.057 267.154C232.52 266.6 231.222 263.941 230.277 260.854C232.19 258.626 234.47 256.743 237.018 255.285C237.976 257.919 237.724 262.026 236.691 265.378Z" fill="black"/>
<path d="M228.489 249.691L233.478 266.462L231.299 267.029L226.611 251.027L228.489 249.691Z" fill="#407BFF"/>
<path d="M263.808 195.398C263.808 195.398 257.105 193.331 252.846 198.989C248.587 204.646 251.044 214.638 251.044 214.638C251.044 214.638 254.232 222.198 248.776 227.074C244.001 231.333 247.982 235.894 255.706 239.195C263.43 242.497 278.865 243.681 283.59 239.825C288.315 235.97 282.254 230.476 284.585 221.908C286.916 213.34 288.617 205.163 280.352 198.901C273.598 193.785 267.512 193.747 263.808 195.398Z" fill="#263238"/>
<path d="M197.821 478.419C204.675 478.419 205.582 478.318 209.438 478.192C212.739 478.066 213.533 478.482 216.179 478.419C218.396 478.419 218.321 476.252 217.628 473.82C217.288 472.56 216.758 470.04 216.292 468.024L206.212 467.293C204.801 469.989 201.613 473.832 197.745 474.362C193.877 474.891 195.137 478.419 197.821 478.419Z" fill="#407BFF"/>
<path d="M248.611 478.419C255.478 478.419 256.385 478.318 260.241 478.192C263.542 478.066 264.323 478.482 266.982 478.419C269.199 478.419 269.111 476.252 268.431 473.82C268.091 472.56 267.561 470.04 267.095 468.024L257.015 467.293C255.604 469.989 252.404 473.832 248.535 474.362C244.667 474.891 245.877 478.419 248.611 478.419Z" fill="#407BFF"/>
<path d="M231.84 295.62C231.84 295.62 222.907 346.852 221.433 374.458C219.896 403.438 210.609 449.869 205.695 468.001C207.069 469.261 213.57 469.765 216.645 468.228C216.645 468.228 243.458 414.69 239.967 381.212C262.345 318.086 256.914 294.461 256.914 294.461L231.84 295.62Z" fill="#263238"/>
<path opacity="0.2" d="M246.558 361.126C249.746 350.618 252.052 341.508 253.677 333.696C252.064 327.585 249.771 322.356 246.659 319.219C246.659 319.219 242.186 336.229 246.558 361.126Z" fill="black"/>
<path d="M241.328 290.555C241.328 290.555 248.661 347.318 252.87 374.634C257.292 403.325 257.847 449.353 256.738 468.114C258.351 469.046 264.21 470.18 267.372 469.185C267.372 469.185 282.329 411.162 272.412 377.457C283.223 326.515 267.939 299.652 267.939 299.652L241.328 290.555Z" fill="#263238"/>
<path d="M234.626 254.645C233.717 259.514 233.141 264.44 232.9 269.387C232.383 276.607 232.081 283.726 231.791 295.62L267.953 299.677C268.369 289.408 270.864 277.93 279.923 255.741C280.441 254.586 280.694 253.329 280.664 252.063C280.633 250.797 280.319 249.554 279.745 248.426C279.171 247.297 278.351 246.311 277.346 245.541C276.342 244.77 275.177 244.234 273.938 243.973C272.527 243.67 271.015 243.381 269.465 243.129C264.057 242.12 258.582 241.506 253.085 241.289C251.283 241.289 249.406 241.289 247.617 241.289C241.09 241.541 235.533 248.295 234.626 254.645Z" fill="#407BFF"/>
<path opacity="0.7" d="M279.921 255.739C279.72 256.252 279.518 256.756 279.317 257.251C276.797 263.388 274.881 268.667 273.332 273.342C269.552 284.833 268.292 292.544 267.951 299.688L231.84 295.619C232.117 283.724 232.419 276.605 232.949 269.385C233.187 264.442 233.76 259.521 234.662 254.656C235.569 248.356 241.126 241.476 247.615 241.312C249.404 241.312 251.282 241.312 253.083 241.312C258.58 241.54 264.054 242.159 269.463 243.165C271.013 243.417 272.513 243.706 273.949 244.021C275.182 244.284 276.34 244.819 277.339 245.586C278.339 246.354 279.155 247.335 279.727 248.458C280.299 249.58 280.614 250.817 280.647 252.077C280.681 253.336 280.433 254.588 279.921 255.739Z" fill="white"/>
<path d="M228.477 220.89L230.733 222.389C231.152 222.666 231.499 223.04 231.744 223.478C231.99 223.916 232.127 224.407 232.144 224.909L232.308 229.685C232.336 230.623 232.141 231.555 231.738 232.403C231.335 233.251 230.735 233.991 229.989 234.561L229.044 235.279C225.126 233.049 222.53 227.719 222.53 227.719L221.623 226.283C221.429 225.994 221.295 225.669 221.228 225.328C221.16 224.987 221.161 224.635 221.23 224.294C221.299 223.954 221.435 223.63 221.63 223.342C221.825 223.054 222.075 222.807 222.366 222.616L225.176 220.789C225.677 220.484 226.256 220.331 226.842 220.349C227.428 220.367 227.996 220.555 228.477 220.89Z" fill="#EBB376"/>
<path d="M235.243 215.835C237.624 212.622 241.543 211.513 244.063 213.315C246.583 215.117 246.684 219.275 244.315 222.488C241.946 225.701 238.015 226.81 235.495 225.008C232.975 223.206 232.874 219.048 235.243 215.835Z" fill="#407BFF"/>
<path d="M214.819 200.942L223.021 189.602C223.021 189.602 226.398 200.148 232.61 204.722L228.452 210.354L227.797 211.236L223.639 216.881C217.44 212.294 206.352 212.181 206.352 212.181L214.819 200.942Z" fill="#407BFF"/>
<path opacity="0.8" d="M235.243 215.835C237.624 212.622 241.543 211.513 244.063 213.315C246.583 215.117 246.684 219.275 244.315 222.488C241.946 225.701 238.015 226.81 235.495 225.008C232.975 223.206 232.874 219.048 235.243 215.835Z" fill="white"/>
<path opacity="0.8" d="M214.819 200.942L223.021 189.602C223.021 189.602 226.398 200.148 232.61 204.722L228.452 210.354L227.797 211.236L223.639 216.881C217.44 212.294 206.352 212.181 206.352 212.181L214.819 200.942Z" fill="white"/>
<path d="M234.801 223.057C234.801 223.057 229.106 229.357 224.293 231.386C224.127 231.452 223.943 231.457 223.774 231.399C223.605 231.341 223.463 231.225 223.373 231.071L220.147 225.841C220.087 225.742 220.049 225.629 220.038 225.513C220.028 225.397 220.043 225.279 220.085 225.17C220.126 225.061 220.192 224.962 220.277 224.882C220.362 224.802 220.464 224.742 220.576 224.708C222.567 224.115 227.254 222.528 230.177 219.844C233.982 216.341 234.801 223.057 234.801 223.057Z" fill="#407BFF"/>
<path opacity="0.3" d="M234.801 223.057C234.801 223.057 229.106 229.357 224.293 231.386C224.127 231.452 223.943 231.457 223.774 231.399C223.605 231.341 223.463 231.225 223.373 231.071L220.147 225.841C220.087 225.742 220.049 225.629 220.038 225.513C220.028 225.397 220.043 225.279 220.085 225.17C220.126 225.061 220.192 224.962 220.277 224.882C220.362 224.802 220.464 224.742 220.576 224.708C222.567 224.115 227.254 222.528 230.177 219.844C233.982 216.341 234.801 223.057 234.801 223.057Z" fill="black"/>
<path d="M206.376 212.559C207.8 213.605 212.752 209.309 217.452 202.946C222.152 196.583 224.785 190.585 223.361 189.527C221.937 188.468 216.986 192.79 212.298 199.14C207.611 205.491 204.952 211.451 206.376 212.559Z" fill="white"/>
<path opacity="0.4" d="M207.258 210.554C208.316 211.335 212.185 207.946 216.078 202.868C216.305 202.578 216.519 202.276 216.746 201.974L217.527 200.903C221.156 195.737 223.21 191.138 222.151 190.369C221.093 189.6 216.758 193.368 212.638 198.95C208.518 204.531 206.124 209.723 207.258 210.554Z" fill="black"/>
<path d="M235.962 226.421C235.962 226.421 237.751 225.463 241.405 220.511C245.361 215.156 245.475 213.531 245.475 213.531L231.615 203.312C231.615 203.312 231.174 205.379 227.469 210.406C223.765 215.434 222.102 216.202 222.102 216.202L235.962 226.421Z" fill="#407BFF"/>
<path d="M216.078 202.871C216.305 202.581 216.519 202.279 216.746 201.976L217.527 200.905L216.04 200.225C215.881 200.157 215.703 200.15 215.539 200.203C215.374 200.256 215.235 200.367 215.145 200.515L214.994 200.716C214.883 200.846 214.822 201.011 214.822 201.182C214.822 201.353 214.883 201.519 214.994 201.649L216.078 202.871Z" fill="white"/>
<path opacity="0.2" d="M216.078 202.871C216.305 202.581 216.519 202.279 216.746 201.976L217.527 200.905L216.04 200.225C215.881 200.157 215.703 200.15 215.539 200.203C215.374 200.256 215.235 200.367 215.145 200.515L214.994 200.716C214.883 200.846 214.822 201.011 214.822 201.182C214.822 201.353 214.883 201.519 214.994 201.649L216.078 202.871Z" fill="black"/>
<path d="M270.384 224.504C268.368 229.632 265.533 239.107 268.57 243.026C268.57 243.026 263.643 241.766 252.278 247.083C249.758 242.333 252.14 241.186 252.14 241.186C258.301 240.443 258.969 236.146 258.704 231.913L270.384 224.504Z" fill="#EBB376"/>
<path opacity="0.2" d="M265.621 227.527L258.703 231.9C258.798 232.88 258.798 233.867 258.703 234.848C261.022 234.785 264.575 232.681 265.255 230.362C265.55 229.448 265.674 228.487 265.621 227.527Z" fill="black"/>
<path d="M276.091 214.412C273.571 222.753 272.626 226.344 267.271 229.885C259.257 235.214 249.631 230.83 249.631 222.022C249.631 214.097 253.827 201.774 262.936 199.947C264.878 199.492 266.905 199.565 268.809 200.157C270.712 200.749 272.424 201.838 273.765 203.313C275.106 204.788 276.029 206.595 276.438 208.546C276.847 210.497 276.727 212.522 276.091 214.412Z" fill="#EBB376"/>
<path d="M265.042 214.611C264.853 215.317 264.337 215.871 263.87 215.733C263.404 215.594 263.19 215.002 263.379 214.296C263.568 213.591 264.085 213.036 264.538 213.162C264.992 213.288 265.219 213.893 265.042 214.611Z" fill="#263238"/>
<path d="M256.159 212.661C255.982 213.367 255.453 213.921 255 213.795C254.546 213.669 254.319 213.064 254.508 212.346C254.697 211.628 255.214 211.086 255.667 211.225C256.121 211.363 256.348 211.956 256.159 212.661Z" fill="#263238"/>
<path d="M255.856 211.299L254.307 210.492C254.307 210.492 254.823 211.979 255.856 211.299Z" fill="#263238"/>
<path d="M258.439 213.668C257.39 215.171 256.154 216.535 254.76 217.725C255.057 218.052 255.425 218.307 255.835 218.471C256.246 218.635 256.688 218.703 257.129 218.67L258.439 213.668Z" fill="#D58745"/>
<path d="M267.512 210.407C267.456 210.402 267.402 210.385 267.354 210.357C267.306 210.329 267.265 210.29 267.235 210.243C266.941 209.814 266.545 209.464 266.084 209.225C265.622 208.985 265.109 208.863 264.589 208.869C264.535 208.877 264.48 208.872 264.429 208.857C264.377 208.841 264.329 208.814 264.288 208.778C264.248 208.742 264.215 208.698 264.193 208.649C264.171 208.599 264.16 208.546 264.16 208.491C264.157 208.375 264.198 208.262 264.275 208.175C264.353 208.089 264.46 208.035 264.576 208.025C265.234 208.005 265.887 208.151 266.475 208.448C267.062 208.745 267.566 209.184 267.94 209.726C267.999 209.822 268.019 209.937 267.995 210.047C267.972 210.157 267.907 210.254 267.814 210.318C267.727 210.383 267.62 210.414 267.512 210.407Z" fill="#263238"/>
<path d="M253.714 207.307C253.606 207.306 253.503 207.265 253.424 207.194C253.344 207.113 253.299 207.005 253.299 206.891C253.299 206.778 253.344 206.669 253.424 206.589C253.889 206.08 254.465 205.683 255.107 205.43C255.749 205.177 256.44 205.073 257.128 205.127C257.183 205.136 257.235 205.156 257.281 205.186C257.327 205.216 257.366 205.256 257.396 205.302C257.426 205.349 257.445 205.401 257.453 205.455C257.462 205.51 257.458 205.566 257.443 205.619C257.419 205.73 257.354 205.828 257.26 205.894C257.167 205.959 257.052 205.987 256.939 205.972C256.394 205.933 255.847 206.02 255.341 206.226C254.834 206.431 254.381 206.749 254.016 207.156C253.934 207.238 253.828 207.291 253.714 207.307Z" fill="#263238"/>
<path d="M264.728 213.24L263.178 212.434C263.178 212.434 263.694 213.933 264.728 213.24Z" fill="#263238"/>
<path d="M255.453 222.034C255.584 223.383 255.618 224.738 255.554 226.092L256.26 226.243C257.266 226.531 258.33 226.559 259.351 226.323C260.371 226.087 261.315 225.596 262.093 224.895C262.507 224.453 262.787 223.902 262.9 223.307C262.993 222.919 263.044 222.522 263.051 222.123C261.791 221.102 258.175 220.787 256.537 221.543C256.164 221.68 255.802 221.844 255.453 222.034Z" fill="#263238"/>
<path d="M256.537 221.545C256.537 221.961 256.537 222.402 256.613 222.805C258.723 222.73 260.836 222.887 262.913 223.271C263.006 222.883 263.057 222.486 263.064 222.087C261.854 221.104 258.175 220.789 256.537 221.545Z" fill="white"/>
<path d="M256.26 226.242C257.267 226.531 258.33 226.559 259.351 226.323C260.372 226.087 261.315 225.595 262.094 224.894C261.539 224.586 260.926 224.399 260.294 224.345C259.662 224.29 259.026 224.37 258.427 224.579C257.554 224.904 256.799 225.484 256.26 226.242Z" fill="#DE5753"/>
<path d="M272.866 220.484C272.866 220.484 270.472 210.933 272.085 203.323C272.085 203.323 262.345 198.359 256.07 203.991C256.07 203.991 258.288 198.182 267.486 198.396C276.684 198.611 285.542 211.211 272.866 220.484Z" fill="#263238"/>
<path d="M277.2 221.883C276.592 222.573 275.854 223.136 275.028 223.541C274.202 223.945 273.305 224.182 272.387 224.239C270.018 224.328 269.527 221.908 270.774 219.804C271.883 217.927 274.466 215.596 276.57 216.503C278.674 217.41 278.788 220.119 277.2 221.883Z" fill="#EBB376"/>
<path d="M263.58 200.716C263.58 200.716 264.374 217.172 274.681 215.257C284.987 213.342 278.12 195.928 263.58 200.716Z" fill="#263238"/>
<path opacity="0.1" d="M279.318 257.25C276.798 263.386 274.883 268.666 273.333 273.34C268.848 265.541 272.729 255.171 272.729 255.171C275.11 254.138 277.391 255.121 279.318 257.25Z" fill="black"/>
<path d="M281.825 252.263C283.893 258.768 286.563 265.066 289.801 271.075C290.885 272.985 292.071 274.836 293.354 276.619L292.598 275.876C292.381 275.69 292.103 275.591 291.817 275.598C294.778 275.598 298.306 273.318 301.179 271.818C305.45 269.298 309.709 266.4 313.779 263.54C314.33 263.173 314.995 263.017 315.652 263.1C316.309 263.182 316.915 263.499 317.358 263.991C317.801 264.483 318.053 265.118 318.066 265.78C318.08 266.442 317.855 267.087 317.433 267.597C311.473 274.112 295.055 291.537 285.845 283.196C278.826 275.17 274.24 265.556 271.204 255.35C270.801 253.945 270.973 252.437 271.682 251.159C272.391 249.881 273.578 248.936 274.984 248.534C276.389 248.131 277.896 248.303 279.175 249.012C280.453 249.721 281.397 250.908 281.8 252.314L281.825 252.263Z" fill="#E9B376"/>
<path d="M276.117 244.751C283.564 247.271 291.325 265.68 291.325 265.68C287.353 269.02 283.046 271.942 278.473 274.399C278.473 274.399 267.688 258.599 269.54 251.455C271.392 244.31 276.117 244.751 276.117 244.751Z" fill="#407BFF"/>
<path opacity="0.7" d="M276.117 244.751C283.564 247.271 291.325 265.68 291.325 265.68C287.353 269.02 283.046 271.942 278.473 274.399C278.473 274.399 267.688 258.599 269.54 251.455C271.392 244.31 276.117 244.751 276.117 244.751Z" fill="white"/>
<path d="M315 269.875L323.82 264.936L318.327 258.031C318.327 258.031 311.687 260.627 311.699 266.498L315 269.875Z" fill="#EBB376"/>
<path d="M327.652 258.889L322.322 254.719L318.277 258.033L323.771 264.937L327.652 258.889Z" fill="#EBB376"/>
<path d="M277.553 273.743L291.325 263.953L292.635 267.128L278.863 275.533L277.553 273.743Z" fill="#407BFF"/>
<path d="M247.237 265.277C247.168 265.269 247.103 265.236 247.055 265.186C247.007 265.135 246.978 265.07 246.972 265C246.884 264.37 244.919 249.515 250.639 241.06C250.687 240.992 250.76 240.945 250.842 240.928C250.924 240.912 251.009 240.927 251.08 240.972C251.114 240.996 251.143 241.026 251.165 241.061C251.188 241.096 251.203 241.136 251.21 241.177C251.217 241.218 251.216 241.26 251.206 241.3C251.197 241.341 251.18 241.379 251.156 241.413C246.443 248.355 247.136 260.187 247.476 263.816C249.001 260.855 254.369 251.959 266.49 244.916C266.526 244.89 266.566 244.871 266.609 244.862C266.652 244.853 266.697 244.853 266.74 244.862C266.783 244.871 266.824 244.889 266.86 244.915C266.895 244.941 266.925 244.974 266.947 245.012C266.97 245.05 266.984 245.092 266.988 245.136C266.993 245.18 266.989 245.224 266.975 245.266C266.962 245.308 266.94 245.347 266.91 245.38C266.881 245.413 266.845 245.439 266.805 245.457C252.302 253.937 247.615 264.987 247.577 265.101C247.545 265.161 247.495 265.21 247.434 265.241C247.374 265.273 247.305 265.285 247.237 265.277Z" fill="#263238"/>
<path d="M254.672 246.014C258.112 246.908 258.616 252.314 258.616 252.314C258.616 252.314 267.688 247.274 270.812 243.418C269.824 242.704 268.873 241.938 267.965 241.125C267.965 241.125 256.94 244.225 254.672 246.014Z" fill="#407BFF"/>
<path d="M251.408 245.081C251.408 245.081 248.283 245.56 246.721 249.692C246.784 241.893 250.501 240.986 250.501 240.986C251.522 240.553 252.668 240.517 253.714 240.885C252.904 241.211 252.232 241.807 251.812 242.571C251.392 243.336 251.249 244.223 251.408 245.081Z" fill="#407BFF"/>
<path d="M250.058 264.303L244.978 263.979C244.554 263.952 244.189 264.273 244.162 264.697L243.586 273.725C243.559 274.149 243.881 274.514 244.304 274.541L249.384 274.865C249.808 274.892 250.173 274.571 250.2 274.147L250.776 265.119C250.803 264.695 250.482 264.33 250.058 264.303Z" fill="white"/>
<path opacity="0.2" d="M250.468 265.847L247.607 265.676L247.381 269.456L250.241 269.627L250.468 265.847Z" fill="black"/>
<path opacity="0.2" d="M249.318 270.967L244.879 270.684L244.844 271.224L249.283 271.507L249.318 270.967Z" fill="black"/>
<path opacity="0.2" d="M249.222 272.256L244.783 271.973L244.749 272.513L249.187 272.797L249.222 272.256Z" fill="black"/>
</svg>
