<svg width="24" height="24" viewBox="0 0 24 24" fill="none" xmlns="http://www.w3.org/2000/svg">
<rect width="24" height="24" rx="4" fill="#1735F5"/>
<path d="M10.8007 5.96927C10.8259 6.08294 10.8021 6.20712 10.7361 6.31026L9.8528 7.64826C9.28799 8.51126 8.85788 8.87751 7.77808 8.87751C7.48059 8.87751 5.99808 8.79822 5.99808 7.24202V4.15838C5.99808 3.98017 6.14259 3.83493 6.3208 3.83493C6.49901 3.83493 6.64428 3.98017 6.64428 4.15838V5.57215C6.64428 5.65705 6.71303 5.72581 6.79793 5.72581C6.88282 5.72581 6.95158 5.65705 6.95158 5.57215V3.562C6.95158 3.38379 7.09681 3.23855 7.27502 3.23855C7.45323 3.23855 7.59777 3.38379 7.59777 3.562V5.3336C7.59777 5.4185 7.66725 5.48796 7.75214 5.48796C7.83704 5.48796 7.90579 5.4185 7.90579 5.3336V3.32345C7.90579 3.14524 8.0503 3 8.22851 3C8.40673 3 8.55199 3.14524 8.55199 3.32345V5.3336C8.55199 5.4185 8.62074 5.48796 8.70564 5.48796C8.79054 5.48796 8.85929 5.4185 8.85929 5.3336V3.80055C8.85929 3.62234 9.00452 3.4771 9.18273 3.4771C9.36094 3.4771 9.5062 3.62234 9.5062 3.80055V6.63231L10.0513 5.88578C10.1846 5.68091 10.4457 5.61074 10.6323 5.72651C10.7179 5.78054 10.7768 5.86613 10.7993 5.96857L10.8007 5.96927Z" fill="white"/>
<path d="M7.78554 9.87874C8.42472 9.87874 9.00144 9.71667 9.51994 9.40024V14.4077C9.51994 14.9781 9.70657 15.4363 10.0798 15.7794C10.4531 16.1232 10.9246 16.2951 11.4957 16.2951C12.0956 16.2951 12.5748 16.1232 12.9333 15.7794C13.2919 15.4356 13.4708 14.9781 13.4708 14.4077V7.86719H16.9824V14.4077C16.9824 15.9148 16.4744 17.1406 15.4571 18.0842C14.4404 19.0279 13.1193 19.5001 11.4957 19.5001C9.87216 19.5001 8.5875 19.0279 7.55611 18.0842C6.52472 17.1406 6.00901 15.9148 6.00901 14.4077V9.37357C6.53873 9.70755 7.12951 9.87804 7.78623 9.87804L7.78554 9.87874Z" fill="white"/>
</svg>
