<svg width="24" height="24" viewBox="0 0 24 24" fill="none" xmlns="http://www.w3.org/2000/svg">
<rect width="24" height="24" rx="4" fill="#1735F5"/>
<path d="M10.8026 5.96927C10.8279 6.08294 10.804 6.20712 10.7381 6.31026L9.85476 7.64826C9.28995 8.51126 8.85983 8.87751 7.78003 8.87751C7.48254 8.87751 6.00004 8.79822 6.00004 7.24202V4.15838C6.00004 3.98017 6.14454 3.83493 6.32275 3.83493C6.50097 3.83493 6.64623 3.98017 6.64623 4.15838V5.57215C6.64623 5.65705 6.71498 5.72581 6.79988 5.72581C6.88478 5.72581 6.95353 5.65705 6.95353 5.57215V3.562C6.95353 3.38379 7.09876 3.23855 7.27697 3.23855C7.45518 3.23855 7.59973 3.38379 7.59973 3.562V5.3336C7.59973 5.4185 7.6692 5.48796 7.7541 5.48796C7.83899 5.48796 7.90775 5.4185 7.90775 5.3336V3.32345C7.90775 3.14524 8.05225 3 8.23047 3C8.40868 3 8.55394 3.14524 8.55394 3.32345V5.3336C8.55394 5.4185 8.6227 5.48796 8.70759 5.48796C8.79249 5.48796 8.86124 5.4185 8.86124 5.3336V3.80055C8.86124 3.62234 9.00647 3.4771 9.18468 3.4771C9.3629 3.4771 9.50816 3.62234 9.50816 3.80055V6.63231L10.0533 5.88578C10.1866 5.68091 10.4476 5.61074 10.6343 5.72651C10.7198 5.78054 10.7788 5.86613 10.8012 5.96857L10.8026 5.96927Z" fill="white"/>
<path d="M7.78652 9.87874C8.4257 9.87874 9.00241 9.71667 9.52091 9.40024V14.4077C9.52091 14.9781 9.70754 15.4363 10.0808 15.7794C10.4541 16.1232 10.9256 16.2951 11.4967 16.2951C12.0966 16.2951 12.5758 16.1232 12.9343 15.7794C13.2928 15.4356 13.4718 14.9781 13.4718 14.4077V7.86719H16.9834V14.4077C16.9834 15.9148 16.4754 17.1406 15.4581 18.0842C14.4414 19.0279 13.1203 19.5001 11.4967 19.5001C9.87314 19.5001 8.58847 19.0279 7.55709 18.0842C6.5257 17.1406 6.00998 15.9148 6.00998 14.4077V9.37357C6.53971 9.70755 7.13048 9.87804 7.7872 9.87804L7.78652 9.87874Z" fill="white"/>
</svg>
