<svg width="42" height="42" viewBox="0 0 42 42" fill="none" xmlns="http://www.w3.org/2000/svg">
<path d="M42 21C42 9.40202 32.598 0 21 0C9.40205 0 0 9.40202 0 21C0 32.598 9.40205 42 21 42C32.598 42 42 32.598 42 21Z" fill="#01123E"/>
<path d="M22.0264 11.6421C21.9887 11.8118 22.0243 11.9971 22.1228 12.151L23.441 14.1478C24.2839 15.4357 24.9258 15.9822 26.5372 15.9822C26.9812 15.9822 29.1936 15.8639 29.1936 13.5415V8.93965C29.1936 8.67369 28.9779 8.45695 28.712 8.45695C28.446 8.45695 28.2292 8.67369 28.2292 8.93965V11.0495C28.2292 11.1762 28.1266 11.2788 27.9999 11.2788C27.8733 11.2788 27.7706 11.1762 27.7706 11.0495V8.04964C27.7706 7.78368 27.5539 7.56694 27.288 7.56694C27.022 7.56694 26.8063 7.78368 26.8063 8.04964V10.6935C26.8063 10.8202 26.7026 10.9238 26.5759 10.9238C26.4492 10.9238 26.3466 10.8202 26.3466 10.6935V7.69364C26.3466 7.42768 26.131 7.21094 25.865 7.21094C25.5991 7.21094 25.3823 7.42768 25.3823 7.69364V10.6935C25.3823 10.8202 25.2797 10.9238 25.153 10.9238C25.0263 10.9238 24.9237 10.8202 24.9237 10.6935V8.40564C24.9237 8.13969 24.7069 7.92294 24.441 7.92294C24.175 7.92294 23.9583 8.13969 23.9583 8.40564V12.6316L23.1447 11.5175C22.9458 11.2118 22.5562 11.1071 22.2777 11.2798C22.15 11.3605 22.062 11.4882 22.0285 11.6411L22.0264 11.6421Z" fill="white"/>
<path d="M26.5296 17.4785C25.5758 17.4785 24.7151 17.2366 23.9413 16.7644V24.2373C23.9413 25.0886 23.6628 25.7723 23.1058 26.2844C22.5487 26.7974 21.8451 27.0539 20.9928 27.0539C20.0975 27.0539 19.3824 26.7974 18.8473 26.2844C18.3123 25.7713 18.0453 25.0886 18.0453 24.2373V14.4766H12.8047V24.2373C12.8047 26.4864 13.5628 28.3157 15.081 29.724C16.5982 31.1323 18.5698 31.837 20.9928 31.837C23.4157 31.837 25.3328 31.1323 26.872 29.724C28.4112 28.3157 29.1809 26.4864 29.1809 24.2373V16.7246C28.3903 17.223 27.5087 17.4775 26.5286 17.4775L26.5296 17.4785Z" fill="white"/>
</svg>
