<svg width="24" height="24" viewBox="0 0 24 24" fill="none" xmlns="http://www.w3.org/2000/svg">
<g clip-path="url(#clip0_15287_79039)">
<path d="M8.47902 12L6.15572 13.3547L4 17.13L12.7938 12H8.47902Z" fill="#874691"/>
<path d="M15.1172 8.12891L12.7939 9.48364L10.6382 13.2589L19.4286 8.12891H15.1172Z" fill="#DA1844"/>
<path d="M12.7939 6.77533L10.6382 3V10.7399V13.2601V21L12.7939 17.2247V6.77533Z" fill="#F9B229"/>
<path d="M10.6382 3L12.7939 6.77533L15.1172 8.13004H19.4286L10.6382 3Z" fill="#F07F1A"/>
<path d="M10.6382 10.7383V20.9984L12.7939 17.2231V14.5103L10.6382 10.7383Z" fill="#72B22C"/>
<path d="M15.1172 15.8711L12.7939 17.2258L10.6382 21.0011L19.4286 15.8711H15.1172Z" fill="#00743E"/>
<path d="M4 6.86719V17.1273L6.15572 13.352V10.6425L4 6.86719Z" fill="#5F5A94"/>
<path d="M10.638 10.7388V10.7421L4 6.86719L6.15572 10.6425L15.1171 15.8688H19.4285L10.638 10.7388Z" fill="#0D90CD"/>
</g>
<defs>
<clipPath id="clip0_15287_79039">
<rect width="15.4286" height="18" fill="white" transform="translate(4 3)"/>
</clipPath>
</defs>
</svg>
