<?xml version="1.0" encoding="utf-8"?>
<svg width="26" height="29" viewBox="0 0 26 29" fill="none" xmlns="http://www.w3.org/2000/svg">
  <path d="M12.7577 23.7978C10.9165 23.8511 9.10093 23.3571 7.54051 22.3785C5.98009 21.3998 4.74493 19.9804 3.99126 18.2997C3.23758 16.619 2.99924 14.7526 3.30636 12.9364C3.61349 11.1203 4.4523 9.43601 5.7167 8.09661C6.9811 6.75721 8.6143 5.82285 10.4098 5.41169C12.2052 5.00054 14.0823 5.13106 15.8035 5.78675C17.5248 6.44243 19.013 7.59384 20.0798 9.09534C21.1467 10.5968 21.7443 12.381 21.7972 14.2222C21.8327 15.4445 21.627 16.6619 21.1919 17.8048C20.7567 18.9476 20.1007 19.9935 19.2613 20.8828C18.4218 21.772 17.4154 22.4871 16.2995 22.9873C15.1836 23.4875 13.9801 23.7629 12.7577 23.7978ZM24.9945 14.1301C24.9214 11.6599 24.1177 9.2668 22.685 7.25321C21.2523 5.23963 19.2549 3.69589 16.9452 2.81708C14.6354 1.93827 12.117 1.76381 9.70819 2.31576C7.29935 2.86771 5.10816 4.12129 3.4115 5.91809C1.71485 7.7149 0.588866 9.97431 0.175832 12.4108C-0.237203 14.8473 0.0812477 17.3516 1.09094 19.6072C2.10064 21.8628 3.75627 23.7684 5.84863 25.0834C7.94099 26.3984 10.3762 27.0637 12.8465 26.9952C14.4894 26.9496 16.1071 26.5805 17.6072 25.9091C19.1072 25.2376 20.4602 24.2769 21.5885 23.0819C22.7168 21.8869 23.5985 20.4812 24.1829 18.9451C24.7674 17.4091 25.0432 15.7728 24.9945 14.1301Z" fill="#0066B3"/>
  <ellipse style="stroke-width: 0px; paint-order: fill; stroke: rgb(252, 252, 252); fill: rgb(249, 247, 247);" cx="12.407" cy="14.338" rx="9.233" ry="9.233"/>
  <path d="M12.4772 23.5775C10.1029 23.5566 7.83093 22.6074 6.14746 20.9329C4.464 19.2584 3.50268 16.9915 3.46915 14.6173C3.43563 12.2431 4.33256 9.95003 5.96808 8.22865C7.60359 6.50728 9.84781 5.4943 12.2206 5.40641H12.4871C14.8766 5.40314 17.1713 6.34139 18.874 8.01792C20.5767 9.69446 21.5504 11.9743 21.5841 14.3636C21.6179 16.7529 20.709 19.0594 19.0543 20.7833C17.3996 22.5073 15.1324 23.51 12.7437 23.5742H12.4772M12.4772 23.7978H12.7502C15.1992 23.7329 17.524 22.7055 19.2207 20.9384C20.9174 19.1712 21.8495 16.8066 21.8148 14.357C21.7802 11.9074 20.7817 9.57016 19.0358 7.85166C17.2898 6.13316 14.9369 5.17189 12.4871 5.17615H12.2141C9.74423 5.21104 7.38943 6.22565 5.66767 7.99675C3.94591 9.76786 2.99825 12.1504 3.03314 14.6202C3.06804 17.09 4.08264 19.4449 5.85375 21.1666C7.62486 22.8884 10.0074 23.836 12.4772 23.8011" fill="white"/>
  <path d="M12.4931 5.63056H12.2333C9.8821 5.66284 7.64005 6.6278 6.00034 8.31316C4.36063 9.99852 3.45758 12.2662 3.48986 14.6174C3.52214 16.9686 4.4871 19.2106 6.17246 20.8503C7.85782 22.4901 10.1255 23.3931 12.4767 23.3608H12.7366C15.0495 23.2742 17.2367 22.2862 18.8307 20.6079C20.4246 18.9297 21.2986 16.6945 21.266 14.3802C21.2333 12.0658 20.2965 9.85616 18.6559 8.22356C17.0153 6.59096 14.801 5.66502 12.4866 5.64372L12.4931 5.63056ZM12.4767 24.0187C10.6182 24.0108 8.80255 23.4603 7.25268 22.4347C5.70282 21.4091 4.4863 19.9531 3.75256 18.2456C3.01883 16.538 2.79984 14.6534 3.1225 12.8231C3.44516 10.9929 4.29541 9.29673 5.56881 7.94306C6.42414 7.03091 7.45174 6.29731 8.59226 5.78464C9.73277 5.27198 10.9636 4.99041 12.2135 4.95622H12.4931C15.0232 4.92089 17.4636 5.89205 19.2776 7.65606C21.0916 9.42008 22.1305 11.8324 22.1658 14.3625C22.2012 16.8925 21.23 19.3329 19.466 21.1469C17.702 22.9609 15.2896 23.9998 12.7596 24.0352H12.4767" fill="#0066B3"/>
  <path d="M21.3231 21.5906L20.9251 20.982L20.6389 21.3438L21.3231 21.5906ZM19.9251 21.4327L19.856 21.4031C19.856 21.4031 19.833 21.3833 19.833 21.3702C19.8269 21.3543 19.8269 21.3367 19.833 21.3208C19.851 21.2943 19.8708 21.269 19.8922 21.2452C19.9112 21.2174 19.9321 21.1911 19.9547 21.1662C19.9671 21.1521 19.9815 21.1399 19.9975 21.13C20.0016 21.1282 20.0061 21.1273 20.0106 21.1273C20.0152 21.1273 20.0196 21.1282 20.0238 21.13H20.0501L20.3791 21.2484L20.7606 20.7682L20.5764 20.4919C20.5753 20.482 20.5753 20.4721 20.5764 20.4623C20.5731 20.4515 20.5731 20.4401 20.5764 20.4294L20.6027 20.3833L20.6554 20.3142L20.7146 20.2452C20.7198 20.2387 20.7263 20.2333 20.7336 20.2293C20.741 20.2254 20.749 20.2229 20.7573 20.2221C20.7573 20.2221 20.7804 20.2221 20.7935 20.2386C20.8098 20.2568 20.8242 20.2766 20.8363 20.2978L21.6554 21.5906C21.6565 21.6015 21.6565 21.6125 21.6554 21.6234C21.6569 21.6366 21.6569 21.6498 21.6554 21.6629L21.6225 21.7156C21.6033 21.7432 21.5825 21.7695 21.56 21.7945L21.4876 21.8866L21.435 21.9359C21.4232 21.9395 21.4106 21.9395 21.3988 21.9359C21.3847 21.9389 21.3701 21.9389 21.356 21.9359L19.9251 21.4327ZM21.4383 19.9688C21.4671 19.987 21.4997 19.9983 21.5337 20.0017C21.5629 20.0083 21.5932 20.0083 21.6225 20.0017C21.6538 19.9897 21.682 19.9706 21.7047 19.9458C21.7402 19.9131 21.7692 19.8741 21.7902 19.8307L21.8955 19.6465L21.4843 19.4129L21.3791 19.6004C21.3563 19.6397 21.3386 19.6817 21.3264 19.7254C21.3218 19.7571 21.3218 19.7892 21.3264 19.8208C21.333 19.8513 21.3453 19.8803 21.3626 19.9063C21.3835 19.9341 21.4105 19.9566 21.4416 19.9721M21.2968 20.2781C21.2359 20.2438 21.1823 20.198 21.1389 20.1432C21.097 20.0927 21.0677 20.0329 21.0534 19.9688C21.0371 19.8963 21.0371 19.821 21.0534 19.7484C21.0747 19.6481 21.1137 19.5523 21.1685 19.4656L21.3823 19.084C21.3875 19.0714 21.3951 19.06 21.4047 19.0504C21.4143 19.0408 21.4257 19.0332 21.4383 19.0281C21.4531 19.0252 21.4684 19.0255 21.4831 19.0289C21.4978 19.0323 21.5117 19.0387 21.5238 19.0478L22.7573 19.7419C22.7709 19.7471 22.7831 19.7555 22.7928 19.7664C22.8026 19.7773 22.8096 19.7903 22.8133 19.8044C22.8226 19.8287 22.8226 19.8557 22.8133 19.88L22.3462 20.6859L22.3297 20.7024H22.2606L22.208 20.6761L22.1554 20.6432C22.1439 20.6351 22.1339 20.625 22.1258 20.6136C22.1233 20.6061 22.1233 20.598 22.1258 20.5906C22.124 20.587 22.1231 20.583 22.1231 20.579C22.1231 20.5751 22.124 20.5711 22.1258 20.5675L22.4547 19.9688L22.0995 19.7682L21.9679 20.005C21.9271 20.0817 21.8762 20.1525 21.8166 20.2156C21.7687 20.2605 21.7129 20.2962 21.6521 20.3208C21.5957 20.3431 21.5347 20.351 21.4745 20.3438C21.4084 20.3378 21.3445 20.3176 21.287 20.2846M21.6554 18.7057C21.649 18.7079 21.642 18.7079 21.6356 18.7057C21.6356 18.7057 21.6356 18.6892 21.6356 18.6761C21.6342 18.6586 21.6342 18.641 21.6356 18.6234C21.6424 18.5954 21.6512 18.5679 21.662 18.5412C21.6667 18.502 21.6755 18.4634 21.6883 18.4261C21.6943 18.4083 21.7032 18.3917 21.7146 18.3767C21.721 18.3675 21.7302 18.3606 21.7409 18.357H22.1587C22.2056 18.3627 22.2531 18.3627 22.3001 18.357C22.3358 18.3521 22.3703 18.3409 22.4021 18.3241C22.4295 18.3087 22.4531 18.2873 22.4712 18.2616C22.4901 18.2333 22.5045 18.2022 22.5139 18.1695L22.537 18.107L21.9185 17.9031C21.9185 17.9031 21.9185 17.9031 21.8988 17.9031C21.895 17.8936 21.895 17.8829 21.8988 17.8734C21.8978 17.857 21.8978 17.8405 21.8988 17.8241L21.9218 17.7484L21.9481 17.6761L21.9745 17.63L21.9975 17.6103H22.0172L22.6323 17.8142L22.6554 17.755C22.6614 17.7191 22.6614 17.6824 22.6554 17.6465C22.657 17.6146 22.6502 17.5828 22.6356 17.5544C22.6213 17.5225 22.6012 17.4935 22.5764 17.4688C22.5444 17.4381 22.5103 17.4095 22.4745 17.3833L22.1455 17.1563L22.1652 17.1103C22.1631 17.0983 22.1631 17.0861 22.1652 17.0741C22.1642 17.0566 22.1642 17.039 22.1652 17.0215C22.1711 16.9936 22.1788 16.9661 22.1883 16.9392C22.1977 16.9123 22.2087 16.8859 22.2212 16.8603C22.2276 16.8433 22.2353 16.8268 22.2442 16.8109L22.2672 16.7912C22.2757 16.7879 22.2851 16.7879 22.2935 16.7912C22.2935 16.7912 22.2935 16.7912 22.3133 16.7912H22.3363L22.3692 16.8175L22.6422 17.0281C22.6873 17.0601 22.7292 17.0964 22.7672 17.1366C22.7971 17.1644 22.8227 17.1965 22.8429 17.232C22.863 17.2596 22.8776 17.2909 22.8856 17.3241C22.8875 17.3581 22.8875 17.3921 22.8856 17.4261C22.903 17.4011 22.924 17.3789 22.9481 17.3603C22.9723 17.3397 23.0002 17.3241 23.0304 17.3142C23.0669 17.3024 23.1043 17.2936 23.1422 17.2879C23.1937 17.2841 23.2454 17.2841 23.2968 17.2879H23.708C23.7144 17.2857 23.7214 17.2857 23.7277 17.2879C23.7277 17.2879 23.7277 17.3044 23.7277 17.3175C23.729 17.334 23.729 17.3504 23.7277 17.3669C23.7222 17.3938 23.7145 17.4202 23.7047 17.4458C23.6971 17.4729 23.6872 17.4993 23.6751 17.5248C23.6751 17.5445 23.6751 17.5642 23.6488 17.5708C23.6427 17.5811 23.6335 17.5892 23.6225 17.5938H23.231C23.1883 17.5902 23.1454 17.5902 23.1027 17.5938C23.0706 17.5962 23.0392 17.6051 23.0106 17.6202C22.9851 17.6355 22.9627 17.6556 22.9448 17.6794C22.9248 17.7075 22.9092 17.7385 22.8988 17.7715L22.8791 17.834L23.458 18.0248C23.4644 18.0227 23.4713 18.0227 23.4777 18.0248C23.4777 18.0248 23.4777 18.0248 23.4777 18.0544C23.4804 18.0707 23.4804 18.0874 23.4777 18.1037C23.4731 18.1298 23.4654 18.1552 23.4547 18.1794C23.4475 18.204 23.4388 18.2282 23.4284 18.2517C23.4218 18.2682 23.413 18.2837 23.4021 18.2978C23.3971 18.307 23.3889 18.314 23.3791 18.3175H23.356L22.8067 18.1958L22.7869 18.255C22.7743 18.2876 22.7677 18.3221 22.7672 18.357C22.7671 18.3867 22.7738 18.4159 22.7869 18.4425C22.8023 18.4728 22.8223 18.5006 22.8462 18.5248C22.8745 18.555 22.9065 18.5816 22.9416 18.6037L23.2343 18.8109C23.2433 18.8158 23.2511 18.8226 23.2573 18.8307C23.2606 18.8414 23.2606 18.8529 23.2573 18.8636C23.26 18.881 23.26 18.8988 23.2573 18.9162C23.253 18.9445 23.2453 18.9721 23.2343 18.9984C23.2267 19.0245 23.2168 19.0498 23.2047 19.0741C23.1984 19.0901 23.1907 19.1055 23.1817 19.1202C23.1757 19.1285 23.1678 19.1353 23.1587 19.1399H23.0962L23.0468 19.084L22.8067 18.8998C22.7665 18.8703 22.728 18.8384 22.6916 18.8044C22.6645 18.7773 22.6403 18.7475 22.6192 18.7156C22.6031 18.6889 22.591 18.6601 22.583 18.63C22.578 18.5984 22.578 18.5662 22.583 18.5346C22.5592 18.5624 22.5328 18.5877 22.5041 18.6103C22.4756 18.6306 22.4446 18.6472 22.4119 18.6596C22.3737 18.6737 22.334 18.6837 22.2935 18.6892C22.2388 18.693 22.1838 18.693 22.1291 18.6892H21.662M22.7738 16.1925C22.697 16.152 22.6233 16.1059 22.5534 16.0544C22.5035 16.0192 22.461 15.9745 22.4284 15.9228C22.3967 15.8819 22.3773 15.8328 22.3725 15.7813C22.3626 15.7259 22.3626 15.6691 22.3725 15.6136V15.5478C22.3725 15.5281 22.3725 15.5083 22.3955 15.4886C22.4012 15.4723 22.4089 15.4568 22.4185 15.4425L22.4416 15.4129H22.6027C22.6379 15.414 22.6725 15.4218 22.7047 15.436C22.7244 15.436 22.7343 15.459 22.731 15.4721C22.7338 15.4807 22.7338 15.4899 22.731 15.4984C22.7207 15.5068 22.7118 15.5168 22.7047 15.5281C22.6957 15.5415 22.688 15.5559 22.6817 15.5708C22.6794 15.5905 22.6794 15.6104 22.6817 15.63C22.6784 15.6463 22.6784 15.6631 22.6817 15.6794C22.6789 15.6946 22.6789 15.7102 22.6817 15.7254C22.6929 15.7413 22.7062 15.7557 22.7212 15.7682C22.7423 15.7881 22.7655 15.8057 22.7902 15.8208L23.9448 15.436C23.9666 15.4321 23.9889 15.4321 24.0106 15.436C24.0163 15.4333 24.0225 15.4319 24.0287 15.4319C24.035 15.4319 24.0412 15.4333 24.0468 15.436C24.0516 15.4532 24.0516 15.4714 24.0468 15.4886C24.0493 15.5203 24.0493 15.5522 24.0468 15.584C24.0468 15.6235 24.0468 15.6531 24.0468 15.6761C24.0448 15.696 24.0381 15.7152 24.0271 15.732C24.022 15.7446 24.0127 15.7551 24.0008 15.7616L23.958 15.7781L23.4383 15.9392L23.2738 15.9919L23.106 16.0346L23.2639 16.1103L23.4218 16.1925L23.8922 16.4425C23.9024 16.4484 23.9114 16.4562 23.9185 16.4656C23.9197 16.4754 23.9197 16.4853 23.9185 16.4952C23.9201 16.5138 23.9201 16.5325 23.9185 16.5511C23.9185 16.5741 23.9185 16.607 23.9185 16.6432C23.9203 16.6728 23.9203 16.7024 23.9185 16.732C23.915 16.7495 23.9083 16.7662 23.8988 16.7813C23.8943 16.7839 23.8892 16.7853 23.884 16.7853C23.8788 16.7853 23.8737 16.7839 23.8692 16.7813C23.8444 16.7876 23.8184 16.7876 23.7935 16.7813L22.7738 16.1925ZM22.5041 14.8767H22.481C22.478 14.8682 22.478 14.8589 22.481 14.8504C22.4785 14.8341 22.4785 14.8174 22.481 14.8011C22.4788 14.7748 22.4788 14.7484 22.481 14.7221V14.6399C22.481 14.6202 22.481 14.6037 22.481 14.5906C22.4798 14.5807 22.4798 14.5708 22.481 14.561H22.5041L23.8198 14.5215V14.1728C23.6258 14.1531 23.458 14.1366 23.3166 14.1136C23.1913 14.1002 23.0671 14.0782 22.9448 14.0478C22.8579 14.0288 22.7731 14.0013 22.6916 13.9656C22.6335 13.938 22.5802 13.9014 22.5337 13.857C22.4942 13.8174 22.4649 13.7689 22.4481 13.7156C22.4334 13.6563 22.4245 13.5957 22.4218 13.5346C22.4202 13.5237 22.4202 13.5126 22.4218 13.5017C22.4265 13.4926 22.4333 13.4847 22.4416 13.4787H22.5435C22.573 13.4754 22.6028 13.4754 22.6323 13.4787H22.6817C22.6803 13.4835 22.6781 13.4879 22.6751 13.4919C22.6771 13.4994 22.6771 13.5073 22.6751 13.5149C22.6766 13.5401 22.6833 13.5648 22.6948 13.5873C22.7089 13.6156 22.7305 13.6395 22.7573 13.6563C22.8 13.6809 22.8452 13.7008 22.8922 13.7156C22.9656 13.7385 23.0403 13.7572 23.1159 13.7715L23.4448 13.8175C23.5764 13.834 23.7343 13.8471 23.9185 13.8636C23.9499 13.8643 23.9806 13.8734 24.0073 13.8899C24.0249 13.9075 24.0354 13.9309 24.0369 13.9557L24.06 14.755C24.0617 14.7675 24.0605 14.7803 24.0565 14.7923C24.0525 14.8042 24.0458 14.8151 24.0369 14.8241C24.0264 14.8341 24.014 14.8418 24.0005 14.8469C23.9869 14.852 23.9725 14.8543 23.958 14.8537L22.5041 14.8767ZM22.6225 13.209H22.4745C22.4574 13.1954 22.442 13.18 22.4284 13.1629C22.4087 13.1399 22.3889 13.1103 22.3659 13.0774C22.3429 13.0445 22.3264 13.0017 22.3067 12.9557C22.2896 12.905 22.2754 12.8534 22.2639 12.8011C22.2443 12.7001 22.2443 12.5962 22.2639 12.4952C22.2793 12.4033 22.3165 12.3164 22.3725 12.2419C22.4321 12.1626 22.5085 12.0975 22.5962 12.0511C22.6991 11.9949 22.81 11.955 22.9251 11.9327C23.0485 11.908 23.175 11.9024 23.3001 11.9162C23.4038 11.9291 23.5036 11.9638 23.5929 12.0182C23.6773 12.0686 23.7483 12.1386 23.8001 12.2221C23.8582 12.3084 23.8974 12.4059 23.9152 12.5083C23.9199 12.5521 23.9199 12.5962 23.9152 12.6399C23.9152 12.6827 23.9152 12.7221 23.9152 12.7616C23.9111 12.7963 23.9034 12.8305 23.8922 12.8636C23.8855 12.8868 23.8756 12.909 23.8626 12.9294L23.8396 12.959C23.8309 12.9602 23.822 12.9602 23.8133 12.959C23.8002 12.9613 23.7868 12.9613 23.7738 12.959H23.6521C23.6379 12.9606 23.6235 12.9606 23.6093 12.959C23.6009 12.9623 23.5915 12.9623 23.583 12.959C23.5813 12.956 23.5804 12.9526 23.5804 12.9491C23.5804 12.9456 23.5813 12.9422 23.583 12.9392C23.5766 12.9234 23.5766 12.9057 23.583 12.8899L23.6159 12.8044C23.6327 12.7823 23.6481 12.7593 23.6619 12.7353C23.6699 12.6852 23.6699 12.6341 23.6619 12.584C23.6515 12.5241 23.6267 12.4677 23.5896 12.4195C23.5529 12.3749 23.5069 12.339 23.4547 12.3142C23.3938 12.2894 23.3295 12.2739 23.2639 12.2682C23.1845 12.2655 23.105 12.2721 23.0271 12.2879C22.9448 12.3012 22.865 12.3267 22.7902 12.3636C22.7321 12.3921 22.6796 12.4311 22.6356 12.4787C22.6005 12.5219 22.5758 12.5725 22.5633 12.6267C22.5501 12.6852 22.5501 12.7459 22.5633 12.8044C22.5712 12.8562 22.5879 12.9062 22.6126 12.9524C22.6318 12.987 22.6538 13.02 22.6784 13.0511C22.6956 13.0742 22.7155 13.0952 22.7376 13.1136C22.7504 13.1256 22.7605 13.1402 22.7672 13.1563C22.7672 13.1563 22.7672 13.1728 22.7672 13.1761C22.7672 13.1794 22.7672 13.1761 22.7672 13.1925H22.6554M22.5929 9.33398L22.4777 9.21556C22.4546 9.16767 22.4247 9.12336 22.3889 9.08398C22.365 9.06146 22.3371 9.04361 22.3067 9.03135C22.2774 9.02493 22.2471 9.02493 22.2179 9.03135C22.1857 9.03766 22.1547 9.04875 22.1258 9.06424C22.098 9.08046 22.0725 9.10038 22.0501 9.12345C22.0324 9.1513 22.0211 9.18278 22.0172 9.21556C22.0105 9.24811 22.0105 9.28169 22.0172 9.31424C22.029 9.36435 22.049 9.41215 22.0764 9.45569L22.1587 9.61029L22.5929 9.33398ZM21.583 10.2583C21.5745 10.2616 21.5651 10.2616 21.5567 10.2583C21.5567 10.2583 21.5567 10.2583 21.5304 10.2419L21.5008 10.2024C21.4848 10.1805 21.4705 10.1574 21.458 10.1333L21.4251 10.0642C21.4222 10.0479 21.4222 10.0312 21.4251 10.0149C21.4218 10.0042 21.4218 9.99272 21.4251 9.982C21.4234 9.97666 21.4234 9.9709 21.4251 9.96556L21.958 9.67608L21.9021 9.56753C21.8846 9.53301 21.8613 9.50183 21.833 9.47543C21.8121 9.45528 21.7858 9.44158 21.7573 9.43595C21.7258 9.43049 21.6935 9.43049 21.662 9.43595H21.5435L21.1422 9.5445C21.1327 9.54803 21.1222 9.54803 21.1126 9.5445C21.1126 9.5445 21.0929 9.5445 21.083 9.52806C21.0694 9.51522 21.0572 9.50088 21.0468 9.48529C21.0468 9.46556 21.0205 9.43924 21.0041 9.40964C20.9894 9.38295 20.9763 9.3555 20.9646 9.3274C20.9612 9.31112 20.9612 9.29433 20.9646 9.27806C20.9625 9.26829 20.9625 9.25821 20.9646 9.24845H21.0501L21.3791 9.2024H21.4975C21.5303 9.20045 21.5633 9.20045 21.5962 9.2024C21.6259 9.20828 21.6547 9.21824 21.6817 9.232C21.7087 9.24223 21.7334 9.2579 21.7541 9.27806C21.7492 9.22883 21.7492 9.17925 21.7541 9.13003C21.7558 9.08612 21.7647 9.04279 21.7804 9.00174C21.7983 8.96176 21.8227 8.92507 21.8527 8.89319C21.8869 8.858 21.927 8.82905 21.9712 8.80766C22.0306 8.77318 22.0968 8.75187 22.1652 8.74516C22.2289 8.73911 22.2932 8.74812 22.3527 8.77148C22.4178 8.79968 22.4769 8.83985 22.5271 8.8899C22.5989 8.96788 22.6598 9.05531 22.708 9.14977L22.8955 9.50174C22.905 9.52493 22.905 9.55092 22.8955 9.57411C22.8911 9.58749 22.8838 9.59975 22.8742 9.60998C22.8645 9.62022 22.8527 9.62819 22.8396 9.63332L21.583 10.2583ZM21.4087 7.59385L20.7014 7.86687L20.9712 8.22872L21.4087 7.59385ZM20.9251 8.90964C20.913 8.93072 20.8974 8.94963 20.8791 8.96556C20.8748 8.97126 20.8694 8.97598 20.8631 8.97939C20.8569 8.98279 20.85 8.98481 20.8429 8.98529C20.8263 8.97929 20.8116 8.96909 20.8001 8.95569L20.7014 8.91951L20.6422 8.84056C20.631 8.82555 20.6221 8.80891 20.6159 8.79121C20.6136 8.78662 20.6124 8.78155 20.6124 8.77641C20.6124 8.77127 20.6136 8.7662 20.6159 8.76161C20.6141 8.75746 20.6132 8.75298 20.6132 8.74845C20.6132 8.74392 20.6141 8.73944 20.6159 8.73529L20.8034 8.44911L20.4448 7.96556L20.1159 8.08069H20.0534C20.0385 8.07195 20.0252 8.06084 20.0139 8.04779L19.958 7.97872L19.9185 7.89977C19.9133 7.88374 19.9133 7.86645 19.9185 7.85043C19.9231 7.83751 19.9326 7.82689 19.9448 7.82082L20.0139 7.79122L21.458 7.30108H21.4975C21.5094 7.2984 21.5218 7.2984 21.5337 7.30108C21.5495 7.31363 21.5639 7.32798 21.5764 7.34385C21.5962 7.36358 21.6159 7.3899 21.6422 7.42279L21.7146 7.51819C21.7279 7.53652 21.739 7.5564 21.7475 7.5774C21.752 7.5913 21.752 7.60627 21.7475 7.62016C21.7428 7.63316 21.7361 7.64537 21.7277 7.65635L20.9251 8.90964ZM20.2672 6.5149C20.288 6.49212 20.3057 6.46668 20.3198 6.43924C20.3263 6.41332 20.3263 6.38622 20.3198 6.3603C20.3159 6.33213 20.3058 6.30518 20.2902 6.28135C20.2683 6.24614 20.2418 6.21405 20.2113 6.18595L20.0435 6.11358L19.7573 6.41951L19.8922 6.5478C19.9199 6.5752 19.9522 6.59747 19.9876 6.61358C20.0158 6.61994 20.045 6.61994 20.0731 6.61358C20.0996 6.61332 20.1256 6.60654 20.1488 6.59385C20.1741 6.58107 20.1966 6.56315 20.2146 6.54122M19.8034 7.10701C19.8254 7.08087 19.8442 7.05215 19.8593 7.02148C19.8656 6.9911 19.8656 6.95975 19.8593 6.92937C19.8547 6.89421 19.8423 6.86051 19.8231 6.83069C19.7972 6.78783 19.7637 6.74996 19.7245 6.71885L19.5995 6.58398L19.2705 6.91293L19.4448 7.07411C19.4722 7.10269 19.5045 7.12609 19.5402 7.14319C19.5678 7.15789 19.598 7.16684 19.6291 7.16951C19.6583 7.17572 19.6886 7.17572 19.7179 7.16951C19.7478 7.15658 19.7747 7.13753 19.7968 7.11358M20.0534 7.34056C20.0177 7.37907 19.9767 7.4123 19.9317 7.43924C19.89 7.46231 19.8442 7.47685 19.7968 7.48201C19.7511 7.4902 19.7044 7.4902 19.6587 7.48201C19.6112 7.47454 19.5648 7.46128 19.5205 7.44253C19.4741 7.42253 19.429 7.39945 19.3856 7.37345C19.3377 7.33857 19.2916 7.30124 19.2475 7.26161L18.935 6.96556C18.9248 6.95761 18.9164 6.94768 18.9101 6.93637C18.9039 6.92507 18.9001 6.91261 18.8988 6.89977C18.8982 6.88501 18.9009 6.87031 18.9066 6.85668C18.9122 6.84305 18.9208 6.83081 18.9317 6.82082L19.8988 5.78464C19.9078 5.77324 19.9193 5.76406 19.9324 5.75779C19.9455 5.75151 19.9599 5.74832 19.9745 5.74845C20.0005 5.74882 20.0253 5.75947 20.0435 5.77806L20.3396 6.05437C20.404 6.11116 20.4605 6.17645 20.5073 6.24845C20.5457 6.30035 20.5726 6.35976 20.5863 6.4228C20.5994 6.47794 20.5994 6.53541 20.5863 6.59056C20.5673 6.65071 20.5334 6.70505 20.4876 6.74845C20.4623 6.77617 20.4336 6.80049 20.4021 6.82082C20.372 6.8401 20.3385 6.85349 20.3034 6.86029C20.2696 6.8652 20.2352 6.8652 20.2014 6.86029C20.1653 6.85621 20.1299 6.84736 20.0962 6.83398C20.1221 6.87053 20.1431 6.91035 20.1587 6.9524C20.1716 6.99393 20.1783 7.03718 20.1784 7.08069C20.1749 7.12574 20.1649 7.17005 20.1488 7.21227C20.1281 7.25976 20.0991 7.30319 20.0633 7.34056M18.7277 5.7649C18.7703 5.69933 18.8066 5.62995 18.8363 5.55766C18.8638 5.49894 18.8784 5.435 18.8791 5.37016C18.88 5.31143 18.8653 5.2535 18.8363 5.2024C18.799 5.14317 18.7483 5.09357 18.6883 5.05766C18.6355 5.01862 18.5734 4.99412 18.5081 4.98661C18.4429 4.97911 18.3768 4.98886 18.3166 5.0149C18.2578 5.04267 18.2044 5.08052 18.1587 5.12674C18.1067 5.17875 18.0604 5.23608 18.0205 5.2978C17.9763 5.36406 17.9388 5.43459 17.9087 5.50832C17.8812 5.56705 17.8666 5.63098 17.8659 5.69582C17.8637 5.75469 17.8786 5.81295 17.9087 5.86358C17.9468 5.92209 17.9973 5.9715 18.0567 6.00832C18.1143 6.04835 18.181 6.07324 18.2508 6.08069C18.3115 6.08429 18.3722 6.07417 18.4284 6.05108C18.4887 6.02424 18.5433 5.9863 18.5896 5.93924C18.6408 5.88539 18.687 5.82704 18.7277 5.7649ZM19.0271 5.93924C18.9609 6.04252 18.88 6.1356 18.787 6.21556C18.7069 6.28207 18.6139 6.33135 18.5139 6.3603C18.4155 6.3833 18.313 6.3833 18.2146 6.3603C18.097 6.33771 17.9852 6.29185 17.8856 6.22543C17.7909 6.16466 17.7065 6.08915 17.6356 6.00174C17.5775 5.92651 17.5381 5.83858 17.5205 5.74516C17.5066 5.64576 17.5156 5.5445 17.5468 5.44911C17.5846 5.33173 17.64 5.2208 17.7113 5.12016C17.7744 5.01747 17.8545 4.92626 17.9481 4.85043C18.0264 4.7838 18.1186 4.73547 18.2179 4.70898C18.3161 4.68433 18.419 4.68433 18.5172 4.70898C18.635 4.73086 18.7469 4.77677 18.8462 4.84385C18.9405 4.90255 19.024 4.97711 19.0929 5.06424C19.1522 5.13872 19.1918 5.22697 19.208 5.32082C19.2236 5.41865 19.2168 5.51873 19.1883 5.61358C19.1513 5.73068 19.097 5.84157 19.0271 5.94253M17.7409 4.37016C17.7331 4.38984 17.7232 4.4086 17.7113 4.42609C17.7051 4.43887 17.6961 4.45011 17.685 4.45898C17.6774 4.4608 17.6695 4.4608 17.662 4.45898C17.6545 4.46175 17.6464 4.46175 17.6389 4.45898L17.1488 4.2353L16.5995 5.42608C16.6015 5.43251 16.6015 5.4394 16.5995 5.44582H16.5205L16.4448 5.41293L16.3758 5.37674C16.3595 5.37017 16.3449 5.36005 16.333 5.34714C16.3244 5.34008 16.3176 5.33106 16.3133 5.32082C16.3133 5.32082 16.3133 5.32082 16.3133 5.2978L16.9251 3.9524C16.9354 3.92615 16.9554 3.90492 16.981 3.89319C17.0053 3.88349 17.0324 3.88349 17.0567 3.89319L17.7606 4.22214C17.7606 4.22214 17.7804 4.24187 17.7804 4.2649C17.7769 4.30087 17.7657 4.33566 17.7475 4.36688M15.8034 4.28135C15.8263 4.20645 15.8406 4.12921 15.8462 4.05109C15.8528 3.98702 15.8472 3.92228 15.8297 3.8603C15.8124 3.80475 15.7806 3.75481 15.7376 3.71556C15.6851 3.6715 15.6232 3.64 15.5567 3.62345C15.4879 3.60406 15.415 3.60406 15.3462 3.62345C15.2873 3.63674 15.2329 3.66508 15.1883 3.70569C15.1395 3.74811 15.0993 3.79948 15.0698 3.85701C15.0376 3.92255 15.0112 3.9908 14.9909 4.06095C14.9697 4.13309 14.9543 4.20678 14.9448 4.28135C14.9327 4.34436 14.9327 4.40912 14.9448 4.47214C14.9617 4.52887 14.9935 4.58 15.037 4.62016C15.0906 4.66438 15.1536 4.69587 15.2212 4.71227C15.2891 4.72982 15.3604 4.72982 15.4284 4.71227C15.4878 4.69771 15.5429 4.66956 15.5896 4.63003C15.6377 4.58448 15.6778 4.53109 15.708 4.47214C15.7455 4.41155 15.7774 4.34769 15.8034 4.28135ZM16.1323 4.3603C16.0998 4.47676 16.0499 4.58765 15.9843 4.68924C15.932 4.7881 15.8578 4.87363 15.7672 4.93924C15.681 4.99138 15.5845 5.02395 15.4843 5.03464C15.3734 5.04321 15.2618 5.03094 15.1554 4.99845C15.0464 4.96973 14.943 4.92304 14.8495 4.8603C14.7704 4.80685 14.7059 4.73448 14.662 4.64977C14.6187 4.56055 14.5963 4.46272 14.5962 4.36359C14.5975 4.23769 14.6163 4.11259 14.6521 3.99187C14.6844 3.87587 14.7331 3.7651 14.7968 3.66293C14.8536 3.57648 14.9275 3.50259 15.0139 3.44582C15.0997 3.39277 15.1965 3.36013 15.2968 3.35043C15.4078 3.34053 15.5196 3.35283 15.6258 3.38661C15.7333 3.41488 15.8355 3.46043 15.9284 3.52148C16.0066 3.57502 16.0699 3.64744 16.1126 3.73201C16.1565 3.81996 16.1801 3.91663 16.1817 4.0149C16.1837 4.13972 16.1659 4.26406 16.1291 4.38332M14.0304 4.66293C14.0322 4.66938 14.0322 4.67621 14.0304 4.68266C14.0207 4.68504 14.0105 4.68504 14.0008 4.68266H13.7409C13.7312 4.67887 13.7231 4.67192 13.7179 4.66293C13.7155 4.65957 13.7142 4.65555 13.7142 4.65141C13.7142 4.64728 13.7155 4.64326 13.7179 4.6399L13.8429 3.32411L13.4942 3.29122C13.4514 3.48201 13.412 3.64319 13.3758 3.78464C13.3396 3.92609 13.3001 4.04451 13.2606 4.14648C13.2318 4.2302 13.1943 4.31068 13.1488 4.38661C13.1157 4.44167 13.0721 4.48971 13.0205 4.52806C12.9765 4.56249 12.9244 4.58513 12.8692 4.59385C12.8091 4.60075 12.7484 4.60075 12.6883 4.59385H12.6554L12.6356 4.57411C12.6335 4.55994 12.6335 4.54552 12.6356 4.53135C12.634 4.51055 12.634 4.48965 12.6356 4.46885C12.6356 4.43266 12.6356 4.40306 12.6356 4.38332C12.631 4.36721 12.631 4.3501 12.6356 4.33398C12.6351 4.32245 12.6383 4.31106 12.6448 4.30155C12.6514 4.29204 12.6609 4.28494 12.6718 4.28135H12.6981C12.7231 4.28623 12.7488 4.28623 12.7738 4.28135C12.8022 4.26747 12.8278 4.24852 12.8495 4.22543C12.8785 4.18683 12.9028 4.14486 12.9218 4.10043C12.9572 4.03135 12.9848 3.95853 13.0041 3.88332C13.0337 3.7978 13.0633 3.68595 13.0962 3.55438C13.1291 3.4228 13.162 3.26819 13.1981 3.09056C13.2039 3.05821 13.2175 3.02774 13.2376 3.00174C13.2598 2.99278 13.2845 2.99278 13.3067 3.00174L14.1027 3.0774C14.1155 3.07765 14.128 3.08072 14.1394 3.08642C14.1507 3.09211 14.1607 3.10026 14.1685 3.1103C14.1742 3.12269 14.1771 3.13615 14.1771 3.14977C14.1771 3.16339 14.1742 3.17685 14.1685 3.18924L14.0304 4.66293ZM11.5896 3.29451L11.412 3.99845L11.8725 3.96556L11.5896 3.29451ZM12.4251 4.42609C12.4251 4.45569 12.4448 4.48201 12.4481 4.49845C12.4516 4.50445 12.4534 4.51126 12.4534 4.51819C12.4534 4.52512 12.4516 4.53193 12.4481 4.53793C12.436 4.55032 12.4194 4.55742 12.4021 4.55766H12.1225C12.1219 4.5489 12.1219 4.54011 12.1225 4.53135L11.9909 4.2024L11.3593 4.28135L11.2804 4.6103C11.2822 4.62118 11.2822 4.6323 11.2804 4.64319C11.2751 4.65218 11.267 4.65914 11.2573 4.66293H11.0271C11.0102 4.66357 10.9937 4.65768 10.981 4.64648C10.9781 4.64031 10.9766 4.63357 10.9766 4.62674C10.9766 4.61992 10.9781 4.61317 10.981 4.60701C10.9774 4.58302 10.9774 4.55862 10.981 4.53464L11.3626 3.06424C11.3602 3.0523 11.3602 3.04 11.3626 3.02806C11.3703 3.01792 11.3805 3.00997 11.3922 3.00503C11.4119 3.00245 11.4318 3.00245 11.4514 3.00503H11.7442C11.7581 3.00757 11.7707 3.01449 11.7804 3.02477C11.789 3.03559 11.7957 3.04783 11.8001 3.06095L12.4251 4.42609ZM10.6225 4.67609C10.6258 4.68455 10.6258 4.69394 10.6225 4.7024L10.6027 4.72543L10.5534 4.74516C10.5295 4.75665 10.504 4.76442 10.4777 4.76819C10.452 4.77617 10.4256 4.78167 10.3988 4.78464H10.3495C10.3387 4.78794 10.3273 4.78794 10.3166 4.78464C10.315 4.77815 10.315 4.77139 10.3166 4.7649L10.1422 4.12674L9.5534 4.28135L9.7113 4.91951C9.71284 4.92315 9.71363 4.92706 9.71363 4.93102C9.71363 4.93497 9.71284 4.93889 9.7113 4.94253L9.68827 4.96556L9.64222 4.98858L9.56656 5.01161H9.48761C9.47017 5.01428 9.45243 5.01428 9.43498 5.01161C9.42526 5.01398 9.4151 5.01398 9.40538 5.01161C9.40391 5.00853 9.40316 5.00516 9.40316 5.00174C9.40316 4.99833 9.40391 4.99496 9.40538 4.99187L9.01722 3.50174C9.01587 3.49413 9.01587 3.48633 9.01722 3.47872L9.03696 3.45569L9.0863 3.43595L9.16196 3.40964H9.29354C9.30303 3.4058 9.31365 3.4058 9.32314 3.40964V3.42938L9.46788 4.00832L10.0567 3.8603L9.91196 3.28135C9.91042 3.27771 9.90963 3.27379 9.90963 3.26984C9.90963 3.26588 9.91042 3.26197 9.91196 3.25832C9.91654 3.24914 9.92332 3.24124 9.93169 3.2353L9.97775 3.21227L10.0567 3.18924L10.1356 3.1728H10.185C10.1945 3.16896 10.2051 3.16896 10.2146 3.1728H10.231L10.6225 4.67609ZM6.58959 4.83727L6.44814 4.93924C6.4004 4.9651 6.35709 4.99841 6.31985 5.03793C6.29762 5.06215 6.28179 5.09155 6.2738 5.12345C6.26565 5.1525 6.26565 5.18322 6.2738 5.21227C6.28417 5.24304 6.29739 5.27277 6.31327 5.30109C6.33078 5.32889 6.35305 5.35338 6.37906 5.37345C6.40355 5.39129 6.4316 5.40363 6.4613 5.40964C6.49388 5.41611 6.52741 5.41611 6.55998 5.40964C6.60856 5.39345 6.65496 5.37135 6.69814 5.34385L6.84617 5.24845L6.58959 4.83727ZM7.57643 5.78464C7.57797 5.78828 7.57876 5.7922 7.57876 5.79615C7.57876 5.80011 7.57797 5.80402 7.57643 5.80766C7.57944 5.81618 7.57944 5.82547 7.57643 5.83398L7.54025 5.87016L7.47446 5.91622L7.40538 5.95569L7.35604 5.97543H7.32314C7.32138 5.97009 7.32138 5.96432 7.32314 5.95898L6.99419 5.44582L6.89222 5.51161C6.85808 5.53097 6.82794 5.55664 6.8034 5.58727C6.78615 5.60966 6.77382 5.63544 6.76722 5.66293C6.76223 5.69453 6.76223 5.72672 6.76722 5.75832C6.77112 5.7982 6.77771 5.83776 6.78696 5.87674L6.87248 6.23858V6.27148C6.86768 6.28342 6.86102 6.29452 6.85275 6.30437L6.81327 6.34056L6.7409 6.38661C6.71585 6.40403 6.68945 6.41943 6.66196 6.43266L6.61262 6.4524H6.54025V6.4228C6.53342 6.40458 6.52792 6.38589 6.5238 6.36687L6.45801 6.03793C6.44836 5.99915 6.44285 5.95945 6.44156 5.91951C6.43826 5.88559 6.43826 5.85144 6.44156 5.81753C6.44731 5.78854 6.455 5.75997 6.46459 5.73201C6.47543 5.70501 6.48981 5.67957 6.50735 5.65635C6.46033 5.67088 6.41174 5.67971 6.36262 5.68266C6.31915 5.69093 6.27451 5.69093 6.23104 5.68266C6.18976 5.66838 6.15174 5.64601 6.11919 5.61687C6.08088 5.58568 6.04856 5.54778 6.0238 5.50503C5.98607 5.44834 5.96033 5.38453 5.94814 5.31753C5.93702 5.25358 5.94269 5.18784 5.96459 5.12674C5.98817 5.05944 6.02384 4.99701 6.06985 4.94253C6.14326 4.86641 6.22618 4.80008 6.31656 4.74516L6.64551 4.53464C6.66792 4.52712 6.69218 4.52712 6.71459 4.53464C6.72895 4.53754 6.74241 4.54384 6.75385 4.55299C6.7653 4.56214 6.77439 4.5739 6.78038 4.58727L7.57643 5.78464ZM4.94485 6.13332L5.23433 6.79122L5.56985 6.49845L4.94485 6.13332ZM6.29354 6.52806C6.31617 6.53948 6.33719 6.55386 6.35604 6.57082C6.36191 6.5749 6.36675 6.5803 6.37018 6.58658C6.3736 6.59286 6.37552 6.59986 6.37577 6.60701C6.3713 6.62349 6.36216 6.63834 6.34946 6.64977C6.34946 6.66951 6.30998 6.68924 6.28038 6.71885C6.2556 6.74156 6.22922 6.76244 6.20143 6.78135L6.15867 6.81424C6.14788 6.81703 6.13656 6.81703 6.12577 6.81424H6.09946L5.80012 6.64319L5.34617 7.04779L5.48104 7.35372C5.48229 7.36465 5.48229 7.37568 5.48104 7.38661C5.48335 7.3912 5.48456 7.39627 5.48456 7.40141C5.48456 7.40655 5.48335 7.41162 5.48104 7.41622C5.4725 7.43218 5.46139 7.44663 5.44814 7.45898C5.44814 7.47543 5.41196 7.49516 5.38564 7.52148L5.31656 7.5774C5.30334 7.58762 5.28722 7.59338 5.27051 7.59385C5.258 7.59037 5.24736 7.58209 5.24091 7.57082C5.22731 7.55031 5.21626 7.52822 5.20801 7.50503L4.62248 6.09385C4.61613 6.08285 4.61279 6.07037 4.61279 6.05766C4.61279 6.04496 4.61613 6.03248 4.62248 6.02148L4.66196 5.97214L4.73762 5.90306L4.82643 5.8274C4.84397 5.81121 4.86395 5.79789 4.88564 5.78793C4.89867 5.78527 4.91209 5.78527 4.92512 5.78793L4.96459 5.80437L6.29354 6.52806ZM5.01393 7.82411C5.01539 7.82719 5.01615 7.83056 5.01615 7.83398C5.01615 7.83739 5.01539 7.84076 5.01393 7.84385C5.01704 7.85459 5.01704 7.866 5.01393 7.87674L4.99091 7.91951C4.97737 7.94265 4.96197 7.96465 4.94485 7.98529L4.88893 8.04451C4.87869 8.05732 4.86648 8.06842 4.85275 8.0774C4.84319 8.08092 4.8327 8.08092 4.82314 8.0774C4.81955 8.07915 4.81562 8.08005 4.81163 8.08005C4.80764 8.08005 4.8037 8.07915 4.80012 8.0774L4.28038 7.66951L3.90209 8.14648L4.41525 8.55766C4.41671 8.56075 4.41747 8.56412 4.41747 8.56753C4.41747 8.57094 4.41671 8.57432 4.41525 8.5774C4.41525 8.5774 4.41525 8.59385 4.41525 8.60701C4.40958 8.62328 4.40184 8.63876 4.39222 8.65306C4.37868 8.6762 4.36328 8.6982 4.34617 8.71885C4.32917 8.74007 4.31047 8.75987 4.29025 8.77806C4.27974 8.79186 4.26624 8.8031 4.25077 8.81095C4.24226 8.81396 4.23297 8.81396 4.22446 8.81095C4.22081 8.81249 4.2169 8.81328 4.21294 8.81328C4.20899 8.81328 4.20508 8.81249 4.20143 8.81095L3.01064 7.85701C3.00351 7.85199 2.99784 7.84518 2.9942 7.83727C2.99141 7.82648 2.99141 7.81516 2.9942 7.80437C2.9942 7.80437 2.9942 7.77806 3.01722 7.75832L3.06327 7.69582L3.11591 7.63332C3.12914 7.62109 3.14345 7.61008 3.15867 7.60043H3.20801L3.67512 7.97543L4.05341 7.49845L3.59617 7.12345C3.59617 7.12345 3.59617 7.12345 3.59617 7.10372C3.59306 7.09297 3.59306 7.08157 3.59617 7.07082C3.60263 7.05595 3.61034 7.04164 3.6192 7.02806C3.6332 7.0044 3.64975 6.98234 3.66854 6.96227L3.72117 6.89977L3.75735 6.86687H3.81327L5.01393 7.82411ZM3.43498 9.18266C3.40206 9.16433 3.36658 9.15103 3.32972 9.14319C3.29845 9.13496 3.26559 9.13496 3.23433 9.14319C3.19929 9.15352 3.16755 9.1728 3.14222 9.19911C3.1022 9.23963 3.06889 9.28627 3.04354 9.33727L2.93827 9.5149L3.39222 9.76819L3.48762 9.59385C3.51874 9.54316 3.54099 9.48754 3.55341 9.42937C3.56219 9.39372 3.56219 9.35647 3.55341 9.32082C3.54423 9.28965 3.52725 9.26135 3.50406 9.23858C3.48501 9.21551 3.46152 9.19649 3.43498 9.18266ZM3.57643 8.87016C3.63837 8.90707 3.69484 8.95247 3.7442 9.00503C3.78925 9.05736 3.82186 9.11922 3.83959 9.18595C3.85613 9.26293 3.85613 9.34253 3.83959 9.41951C3.8143 9.53519 3.77101 9.64619 3.7113 9.74845L3.51393 10.1037L3.48762 10.1366C3.47806 10.1401 3.46756 10.1401 3.45801 10.1366C3.44505 10.1398 3.4315 10.1398 3.41854 10.1366C3.40333 10.1395 3.3877 10.1395 3.37248 10.1366L2.07972 9.41293V9.38332C2.08392 9.36497 2.09056 9.34727 2.09946 9.33069C2.10963 9.30672 2.12173 9.28362 2.13564 9.26161C2.14716 9.23769 2.16035 9.2146 2.17512 9.19253L2.20801 9.15306C2.21653 9.15005 2.22581 9.15005 2.23433 9.15306C2.24279 9.14975 2.25218 9.14975 2.26064 9.15306L2.74091 9.42279L2.85275 9.22214C2.89911 9.13502 2.95661 9.05429 3.0238 8.98201C3.0729 8.93146 3.13238 8.89218 3.19814 8.86687C3.25885 8.84348 3.32416 8.83447 3.38893 8.84056C3.4606 8.84658 3.53014 8.86789 3.59288 8.90306M3.21788 10.6004C3.21788 10.6004 3.21788 10.6004 3.23762 10.6004C3.25735 10.6004 3.23762 10.6169 3.23762 10.63C3.23864 10.6476 3.23864 10.6651 3.23762 10.6827C3.23027 10.7084 3.22149 10.7336 3.2113 10.7583C3.20313 10.7842 3.19324 10.8094 3.1817 10.834C3.17543 10.8489 3.16771 10.8633 3.15867 10.8767C3.15161 10.8853 3.14259 10.8921 3.13235 10.8965C3.12877 10.8982 3.12483 10.8991 3.12084 10.8991C3.11685 10.8991 3.11291 10.8982 3.10933 10.8965L1.8692 10.4656L1.75406 10.7945C1.92841 10.8833 2.08301 10.9623 2.20143 11.0313C2.31985 11.1004 2.43499 11.1695 2.53038 11.2287C2.60364 11.2805 2.67291 11.3376 2.73762 11.3998C2.78266 11.445 2.81841 11.4987 2.84288 11.5577C2.86562 11.6093 2.87468 11.666 2.8692 11.7221C2.86433 11.7829 2.85104 11.8427 2.82972 11.8998C2.82499 11.909 2.81949 11.9178 2.81327 11.9261C2.81058 11.9308 2.80677 11.9347 2.80218 11.9376C2.79759 11.9405 2.79236 11.9422 2.78696 11.9425C2.77401 11.9459 2.76043 11.9459 2.74748 11.9425L2.68498 11.9228L2.60933 11.8899C2.59223 11.8846 2.5765 11.8756 2.56327 11.8636C2.55743 11.8632 2.55174 11.8615 2.54662 11.8587C2.5415 11.8559 2.53707 11.8519 2.53367 11.8471C2.53207 11.8395 2.53207 11.8317 2.53367 11.8241C2.53847 11.7991 2.53847 11.7734 2.53367 11.7485C2.52973 11.7172 2.5172 11.6876 2.49748 11.6629C2.46796 11.6238 2.43371 11.5884 2.39551 11.5577C2.33623 11.5094 2.27357 11.4654 2.20801 11.4261C2.12906 11.3778 2.03038 11.3219 1.91196 11.2583C1.79354 11.1925 1.65209 11.1235 1.49091 11.0412C1.46078 11.0303 1.43448 11.0109 1.41525 10.9853C1.41036 10.9739 1.40784 10.9615 1.40784 10.9491C1.40784 10.9367 1.41036 10.9244 1.41525 10.9129L1.68499 10.1596C1.68886 10.1474 1.69525 10.1361 1.70374 10.1265C1.71224 10.1168 1.72266 10.1091 1.73433 10.1037C1.74672 10.0981 1.76018 10.0952 1.7738 10.0952C1.78742 10.0952 1.80088 10.0981 1.81327 10.1037L3.21788 10.6004ZM1.31327 12.6465L1.95143 12.9952L2.03038 12.5412L1.31327 12.6465ZM2.62906 12.1169C2.65422 12.1143 2.67957 12.1143 2.70472 12.1169C2.70472 12.1169 2.73433 12.1169 2.74091 12.1333C2.74748 12.1498 2.74091 12.1596 2.74091 12.1827C2.74091 12.2057 2.74091 12.2386 2.74091 12.2781C2.74091 12.3175 2.72446 12.3537 2.72117 12.3767C2.71788 12.3998 2.72117 12.4195 2.72117 12.4327L2.70143 12.4524C2.69183 12.4557 2.68143 12.4557 2.67183 12.4524L2.34288 12.5017L2.23762 13.107L2.53367 13.2616H2.55998C2.56236 13.2713 2.56236 13.2815 2.55998 13.2912C2.56328 13.3086 2.56328 13.3265 2.55998 13.3438C2.56244 13.3723 2.56244 13.4009 2.55998 13.4294C2.55556 13.4594 2.54896 13.4891 2.54025 13.5182C2.53965 13.5265 2.53729 13.5347 2.53332 13.542C2.52935 13.5494 2.52387 13.5559 2.51722 13.561C2.50341 13.566 2.48827 13.566 2.47446 13.561L2.40867 13.5281L1.02709 12.811L0.994196 12.7879C0.991269 12.776 0.991269 12.7636 0.994196 12.7517C0.991219 12.7321 0.991219 12.7122 0.994196 12.6925C0.994196 12.6662 0.994196 12.6333 0.994196 12.5906C0.994196 12.5478 0.994196 12.5017 1.01722 12.4721C1.02242 12.4498 1.02901 12.4278 1.03696 12.4063C1.04401 12.3951 1.0529 12.3851 1.06328 12.3767C1.07728 12.373 1.09203 12.373 1.10604 12.3767L2.62906 12.1169ZM1.36591 14.0116C1.31722 14.0069 1.26819 14.016 1.22446 14.0379C1.19177 14.0538 1.16352 14.0775 1.14222 14.107C1.12264 14.1354 1.11023 14.1681 1.10604 14.2024C1.10248 14.2352 1.10248 14.2683 1.10604 14.3011V14.4425H1.65538V14.2945C1.6509 14.2525 1.63979 14.2114 1.62249 14.1728C1.6114 14.14 1.59216 14.1106 1.56656 14.0873C1.5405 14.0619 1.509 14.0428 1.47446 14.0313C1.43757 14.018 1.39857 14.0113 1.35933 14.0116M1.35933 13.6629C1.44171 13.6646 1.52308 13.6814 1.59946 13.7123C1.66656 13.7427 1.72609 13.7877 1.7738 13.8438C1.82365 13.9031 1.85961 13.9728 1.87906 14.0478C1.90334 14.1389 1.91333 14.2332 1.90867 14.3274V14.4787H2.42841C2.43479 14.4765 2.44176 14.4765 2.44814 14.4787C2.45117 14.4883 2.45117 14.4987 2.44814 14.5083C2.44938 14.5247 2.44938 14.5412 2.44814 14.5577C2.44982 14.584 2.44982 14.6103 2.44814 14.6366C2.45017 14.664 2.45017 14.6915 2.44814 14.7188C2.45032 14.7352 2.45032 14.7518 2.44814 14.7682C2.44975 14.7769 2.44975 14.7858 2.44814 14.7945H2.42512L0.961302 14.755C0.945553 14.7557 0.929836 14.7531 0.915125 14.7475C0.900413 14.7418 0.88702 14.7332 0.875775 14.7221C0.856065 14.6993 0.845516 14.67 0.84617 14.6399V14.1465C0.850535 14.1045 0.857123 14.0628 0.865907 14.0215C0.879819 13.971 0.899696 13.9225 0.925117 13.8767C0.950803 13.8289 0.98542 13.7865 1.02709 13.7517C1.06793 13.7154 1.1162 13.6885 1.16854 13.6728C1.22738 13.6562 1.28835 13.6485 1.34946 13.6498M2.3363 15.232H2.43827C2.44584 15.2302 2.45373 15.2302 2.4613 15.232C2.46284 15.2356 2.46363 15.2396 2.46363 15.2435C2.46363 15.2475 2.46284 15.2514 2.4613 15.255L2.5567 16.0642C2.55893 16.0899 2.55193 16.1156 2.53696 16.1366C2.52879 16.1484 2.518 16.158 2.50544 16.1649C2.49288 16.1717 2.47889 16.1756 2.46459 16.1761L1.05341 16.3373C1.03916 16.3414 1.0241 16.3417 1.00968 16.3383C0.995261 16.3348 0.981991 16.3277 0.97117 16.3175C0.953334 16.3011 0.941715 16.279 0.938275 16.255L0.862617 15.4656C0.861078 15.4591 0.861078 15.4523 0.862617 15.4458C0.867628 15.4387 0.874438 15.433 0.882354 15.4294C0.895401 15.427 0.90878 15.427 0.921828 15.4294H1.08301C1.09048 15.4269 1.09857 15.4269 1.10604 15.4294C1.1083 15.4358 1.1083 15.4427 1.10604 15.4491L1.17512 16.0248L1.56656 15.9787L1.5238 15.4853C1.52129 15.4778 1.52129 15.4697 1.5238 15.4623L1.54354 15.4458C1.55542 15.4429 1.56784 15.4429 1.57972 15.4458H1.76064V15.4656L1.81656 15.9524L2.28038 15.8932L2.21459 15.311C2.21299 15.3034 2.21299 15.2955 2.21459 15.2879C2.2196 15.2808 2.22641 15.2751 2.23433 15.2715C2.24737 15.2691 2.26075 15.2691 2.2738 15.2715H2.33301M1.4613 17.4392L1.56656 17.8044L1.89551 17.755L2.15209 17.7287H2.49091L2.60933 17.7353L2.69485 17.7649L2.51064 17.13L1.4613 17.4392ZM2.9942 16.4524H3.01393C3.02146 16.4503 3.02943 16.4503 3.03696 16.4524C3.04552 16.4645 3.05217 16.4778 3.0567 16.4919L3.07972 16.5577C3.07972 16.5873 3.07972 16.607 3.09617 16.6267C3.09759 16.6421 3.09759 16.6575 3.09617 16.6728C3.09804 16.6815 3.09804 16.6904 3.09617 16.6991H3.07643L2.70801 16.8044L3.00406 17.8438L3.3692 17.7682H3.39222C3.4014 17.7728 3.40931 17.7796 3.41525 17.7879L3.43498 17.8274L3.45801 17.8932C3.45801 17.9228 3.45801 17.9458 3.47446 17.9656C3.47587 17.9798 3.47587 17.9941 3.47446 18.0083C3.47684 18.0169 3.47684 18.026 3.47446 18.0346H3.45472L2.89222 18.1958C2.88434 18.2008 2.87522 18.2034 2.86591 18.2034C2.85659 18.2034 2.84747 18.2008 2.83959 18.1958C2.83223 18.1916 2.82582 18.1859 2.82073 18.1791C2.81564 18.1723 2.81198 18.1646 2.80998 18.1563L2.78696 18.0971C2.75407 18.0838 2.7199 18.0739 2.68498 18.0675C2.64691 18.0539 2.60698 18.0461 2.56656 18.0445H2.19485C2.11262 18.0445 2.01393 18.0642 1.8988 18.0807C1.78367 18.0971 1.65209 18.1169 1.50077 18.1432C1.47276 18.1507 1.44326 18.1507 1.41525 18.1432C1.40376 18.1386 1.39373 18.1309 1.38621 18.1211C1.37869 18.1112 1.37395 18.0996 1.37249 18.0873L1.14222 17.2879C1.13645 17.2767 1.13344 17.2643 1.13344 17.2517C1.13344 17.2392 1.13645 17.2267 1.14222 17.2156C1.15769 17.1926 1.18114 17.1762 1.20801 17.1695L2.41525 16.8406L2.37577 16.709C2.37146 16.7009 2.3692 16.6918 2.3692 16.6827C2.3692 16.6735 2.37146 16.6644 2.37577 16.6563C2.37577 16.6563 2.3988 16.6366 2.41854 16.63L2.9942 16.4524ZM3.07643 18.4261L3.13235 18.4031H3.21459L3.56327 19.1432C3.57129 19.1666 3.57129 19.1921 3.56327 19.2156C3.55903 19.2295 3.55141 19.2422 3.54109 19.2526C3.53076 19.2629 3.51804 19.2705 3.50406 19.2748L2.22117 19.88C2.20776 19.8862 2.19317 19.8894 2.17841 19.8894C2.16364 19.8894 2.14905 19.8862 2.13564 19.88C2.11276 19.8688 2.09424 19.8503 2.08301 19.8274L1.75406 19.0906C1.75253 19.0841 1.75253 19.0773 1.75406 19.0708C1.75298 19.0632 1.75298 19.0554 1.75406 19.0478L1.78696 19.0215L1.84288 18.9919L1.8988 18.9688H1.95143L2.20143 19.4919L2.55998 19.3241L2.34946 18.88C2.34764 18.8725 2.34764 18.8646 2.34946 18.857V18.834L2.38235 18.8077L2.43498 18.7813L2.49091 18.7583H2.55341C2.55456 18.7637 2.55456 18.7693 2.55341 18.7748L2.76064 19.2221L3.17512 19.0248L2.92512 18.4952C2.92358 18.4915 2.92279 18.4876 2.92279 18.4836C2.92279 18.4797 2.92358 18.4758 2.92512 18.4721C2.92512 18.4721 2.92512 18.4721 2.92512 18.4491L2.95801 18.4228L3.07643 18.4261ZM3.3363 21.1202C3.37311 21.1619 3.41643 21.1975 3.46459 21.2254C3.50327 21.2498 3.54729 21.2645 3.59288 21.2682C3.63305 21.2762 3.67442 21.2762 3.71459 21.2682C3.75577 21.2545 3.7946 21.2345 3.82972 21.209C3.8714 21.1801 3.90902 21.1458 3.94156 21.107C3.9701 21.0751 3.99043 21.0367 4.00077 20.9952C4.01064 20.9519 4.01064 20.9069 4.00077 20.8636C3.99024 20.8079 3.97021 20.7545 3.94156 20.7057L3.3363 21.1202ZM3.26722 20.3504C3.2268 20.377 3.19026 20.4091 3.15867 20.4458C3.13013 20.4777 3.1098 20.5161 3.09946 20.5577C3.08947 20.601 3.08947 20.6459 3.09946 20.6892C3.10999 20.7449 3.13002 20.7983 3.15867 20.8471L3.77051 20.4228C3.73461 20.3792 3.69115 20.3424 3.64222 20.3142C3.60387 20.2932 3.56172 20.2801 3.51823 20.2756C3.47474 20.2711 3.43078 20.2753 3.38893 20.2879C3.34661 20.3028 3.3067 20.3239 3.27051 20.3504M3.06327 20.0708C3.13209 20.0205 3.21044 19.9847 3.29354 19.9656C3.36941 19.9491 3.44793 19.9491 3.5238 19.9656C3.60525 19.9831 3.68241 20.0166 3.75077 20.0642C3.83361 20.1213 3.90783 20.19 3.97117 20.2682L4.12248 20.1596C4.13095 20.1563 4.14034 20.1563 4.1488 20.1596C4.15731 20.1566 4.1666 20.1566 4.17512 20.1596L4.2113 20.1925L4.25735 20.2583C4.2738 20.2846 4.29025 20.3044 4.30012 20.3241C4.30816 20.3376 4.31477 20.352 4.31985 20.3669C4.32264 20.3777 4.32264 20.389 4.31985 20.3998C4.31652 20.4079 4.31078 20.4148 4.30341 20.4195L4.1488 20.5281C4.20345 20.6106 4.2466 20.7003 4.27709 20.7945C4.30214 20.8719 4.31 20.9539 4.30012 21.0346C4.28998 21.1114 4.2618 21.1847 4.21788 21.2484C4.16531 21.3213 4.10081 21.3847 4.02709 21.4359C3.95988 21.4835 3.88382 21.517 3.80341 21.5346C3.72865 21.5511 3.65119 21.5511 3.57643 21.5346C3.49517 21.5183 3.418 21.4858 3.34946 21.4392C3.26602 21.3829 3.19169 21.3141 3.12906 21.2353L2.98104 21.3373H2.95801C2.9493 21.3387 2.94041 21.3387 2.9317 21.3373C2.9192 21.3267 2.90814 21.3145 2.8988 21.3011C2.87988 21.2823 2.86331 21.2613 2.84946 21.2386L2.8067 21.1728C2.79793 21.1585 2.79129 21.143 2.78696 21.1267C2.78465 21.1221 2.78344 21.1171 2.78344 21.1119C2.78344 21.1068 2.78465 21.1017 2.78696 21.0971L2.93827 20.9886C2.88928 20.9071 2.85061 20.8198 2.82314 20.7287C2.79809 20.6513 2.79023 20.5693 2.80012 20.4886C2.80753 20.4117 2.83473 20.338 2.87906 20.2748C2.92829 20.1967 2.9906 20.1277 3.06327 20.0708Z" fill="white"/>
  <path d="M17.6334 22.3537L17.584 22.2945C17.4862 22.1996 17.3683 22.1279 17.2391 22.0847C17.1098 22.0414 16.9726 22.0277 16.8373 22.0445C16.6419 22.0474 16.4475 22.0739 16.2584 22.1234C16.0709 22.1695 15.8373 22.2451 15.5577 22.3405C15.5283 22.278 15.4895 22.2203 15.4426 22.1695C15.2984 22.0433 15.1293 21.9489 14.9463 21.8922C14.7632 21.8355 14.5703 21.8179 14.3801 21.8405C13.4755 21.8888 12.5857 22.0901 11.7485 22.4359C11.1705 22.6749 10.5545 22.8086 9.92943 22.8307C9.30957 22.8164 8.70815 22.617 8.20245 22.2583L7.97548 22.1234L7.6893 21.9524L7.63667 22.2813L7.04456 25.755L7.25838 25.8471L7.36035 25.2451L7.8439 22.3175L8.07088 22.4524C8.45561 22.7069 8.88548 22.8856 9.33732 22.9787C9.53488 23.0143 9.73527 23.0319 9.93601 23.0313C10.5871 23.0089 11.2289 22.8696 11.8307 22.6201C12.6433 22.2863 13.5062 22.0917 14.3834 22.0445C14.5279 22.0419 14.6723 22.054 14.8143 22.0807C14.9908 22.1025 15.1552 22.1823 15.2814 22.3076C15.3579 22.3916 15.4022 22.5 15.4064 22.6136C15.7518 22.4984 16.0643 22.3866 16.3143 22.3307C16.4853 22.2866 16.6608 22.2623 16.8373 22.2583H16.9919L17.0906 22.2747C17.1644 22.2885 17.2355 22.314 17.3011 22.3504C17.3702 22.3866 17.5084 22.2583 17.5084 22.2583L16.9064 26.2057L17.1071 26.1201C17.1235 26.0247 17.1367 25.9261 17.1531 25.8208C17.2189 25.4162 17.2715 25.1234 17.2715 25.1201V24.9524C17.3176 24.6728 17.3603 24.3965 17.4031 24.1366C17.5248 23.3603 17.6301 22.7287 17.6432 22.6366V22.459L17.6334 22.3537Z" fill="#0066B3"/>
  <path d="M12.4772 23.5775C10.1029 23.5566 7.83093 22.6074 6.14746 20.9329C4.464 19.2584 3.50268 16.9915 3.46915 14.6173C3.43563 12.2431 4.33256 9.95003 5.96808 8.22865C7.60359 6.50728 9.84781 5.4943 12.2206 5.40641H12.4871C14.8766 5.40314 17.1713 6.34139 18.874 8.01792C20.5767 9.69446 21.5504 11.9743 21.5841 14.3636C21.6179 16.7529 20.709 19.0594 19.0543 20.7833C17.3996 22.5073 15.1324 23.51 12.7437 23.5742H12.4772M12.4772 23.7978H12.7502C15.1992 23.7329 17.524 22.7055 19.2207 20.9384C20.9174 19.1712 21.8495 16.8066 21.8148 14.357C21.7802 11.9074 20.7817 9.57016 19.0358 7.85166C17.2898 6.13316 14.9369 5.17189 12.4871 5.17615H12.2141C9.74423 5.21104 7.38943 6.22565 5.66767 7.99675C3.94591 9.76786 2.99825 12.1504 3.03314 14.6202C3.06804 17.09 4.08264 19.4449 5.85375 21.1666C7.62486 22.8884 10.0074 23.836 12.4772 23.8011" fill="white"/>
  <path d="M14.3834 22.0445C14.5418 22.0251 14.7025 22.0381 14.8558 22.0827C15.009 22.1274 15.1516 22.2028 15.2748 22.3042C15.3528 22.3899 15.3972 22.5009 15.3998 22.6167C15.7485 22.4983 16.0577 22.3866 16.3143 22.3307C16.4853 22.2866 16.6608 22.2623 16.8373 22.2583C17.2386 22.2583 17.334 22.3404 17.3636 22.37L17.5084 22.2648L16.6992 27.4095L16.4821 27.2878C16.3632 27.2265 16.2309 27.1959 16.0972 27.199C15.5676 27.2586 15.0517 27.4065 14.5709 27.6365C14.2173 27.8032 13.8467 27.9311 13.4656 28.0181C13.3633 28.034 13.26 28.0428 13.1564 28.0444C12.6794 28.0444 12.6038 27.7878 12.5939 27.6595L12.6235 27.3931L12.2419 27.5378C11.9886 27.6365 11.7485 27.7286 11.538 27.801C11.1134 27.9398 10.6688 28.0076 10.2222 28.0016C9.12897 28.019 8.05441 27.7172 7.13009 27.1332L7.04456 27.0707L7.83074 22.3174L8.05772 22.4523C8.61322 22.831 9.27028 23.0328 9.94259 23.0312C10.5937 23.0088 11.2355 22.8695 11.8373 22.62C12.6479 22.2873 13.5085 22.0928 14.3834 22.0445Z" fill="white"/>
  <path d="M13.0318 25.6922L12.772 27.5607C12.7029 27.8896 13.1009 27.8896 13.4299 27.8468C14.2818 27.7185 15.772 26.6988 16.5549 27.1363C16.67 26.2054 16.8838 25.0146 16.8838 25.0146C16.8838 25.0146 16.6897 24.7449 15.9562 24.9225C15.2226 25.1001 13.5845 25.8041 13.0351 25.6922" fill="#ED1C24"/>
  <path d="M16.7975 25.5515C16.8797 25.0318 16.9652 24.4759 17.0442 23.9825C16.8953 23.908 16.7331 23.8641 16.567 23.8534C16.4009 23.8427 16.2343 23.8653 16.0771 23.92C15.3633 24.0943 13.8008 24.7588 13.2119 24.6963L12.9948 26.0877C13.0606 26.3147 13.3238 26.3706 13.6725 26.341C14.5244 26.2719 16.0113 25.1436 16.7975 25.5515Z" fill="#0066B3"/>
  <path d="M12.7517 27.6827C12.8043 27.3274 13.2944 27.3143 13.6168 27.3307C13.9392 27.3472 14.5379 27.3307 14.5872 27.0774C14.6464 26.7288 14.6727 26.3011 14.6727 26.3011L12.9688 26.3209L12.7517 27.6827Z" fill="#BE1E2D"/>
  <path d="M7.24059 26.9955L7.63532 24.6337C8.32282 25.0416 9.40177 25.6205 11.6057 24.7751C13.3722 24.0975 15.0136 23.9758 14.9347 24.6764L14.5728 27.0942C14.7044 26.2652 12.5991 27.2554 11.484 27.6435C10.2833 28.0613 8.2998 27.7587 7.24059 26.9856" fill="#ED1C24"/>
  <path d="M11.6852 24.2846C9.55365 25.1004 8.43523 24.3735 7.73786 23.9557L7.48128 25.4853C8.09815 25.8881 8.80363 26.1351 9.53707 26.205C10.2705 26.2749 11.0099 26.1657 11.6918 25.8866C12.6786 25.505 14.6096 24.8406 14.8234 25.436C14.899 24.936 14.9747 24.4063 15.0405 23.9458C14.7675 23.4952 13.2444 23.6827 11.6786 24.2748" fill="#0066B3"/>
  <path d="M16.6529 15.9789C16.6529 15.9592 16.6135 15.8835 16.5674 15.7815C16.6055 15.8039 16.6451 15.8237 16.6858 15.8408L16.7582 15.969C16.7235 15.9732 16.6893 15.9809 16.6562 15.9921M15.8141 15.9921C15.8141 15.8177 15.7714 15.7059 15.7187 15.3342C15.8085 15.5696 15.8843 15.8102 15.9457 16.0546C15.9031 16.0358 15.8591 16.0204 15.8141 16.0085M15.4391 18.1302C15.4391 18.1302 15.4391 18.1302 15.4391 18.1565V18.1302ZM15.4391 18.3901C15.4404 18.377 15.4404 18.3637 15.4391 18.3506C15.4373 18.3615 15.4373 18.3726 15.4391 18.3835M16.6168 19.5579L16.426 19.9756L16.2056 19.8704L16.3536 19.5414C16.4464 19.5535 16.5404 19.5535 16.6332 19.5414M16.8371 19.4822L16.7845 19.594L16.6628 19.5381C16.7229 19.5264 16.7814 19.5077 16.8371 19.4822ZM10.176 20.5677C10.1866 20.5267 10.2096 20.49 10.2418 20.4625C10.2376 20.4864 10.2376 20.5109 10.2418 20.5348L10.176 20.5677ZM9.53123 18.3638C9.53307 18.3529 9.53307 18.3418 9.53123 18.3309C9.53299 18.344 9.53299 18.3573 9.53123 18.3704M8.6332 16.7487L8.3832 16.6335C8.36992 16.5734 8.34359 16.5168 8.30608 16.468C8.26856 16.4191 8.22078 16.379 8.1661 16.3506C8.18669 16.3104 8.19517 16.265 8.1905 16.2201C8.18583 16.1751 8.16821 16.1325 8.13978 16.0973C8.27136 15.9296 8.49504 15.4394 8.74504 15.0447C8.68912 15.469 7.96544 16.0315 8.53781 16.4427C8.91281 16.3868 9.11347 15.9394 9.26149 15.3243C9.33386 15.469 8.8832 16.1039 9.49504 16.3112C9.76478 16.2618 9.96215 15.7388 9.89307 15.3473C9.92313 15.3672 9.95172 15.3892 9.9786 15.4131C10.0608 15.3243 10.2253 15.3243 10.2845 15.2092L10.3404 15.2454C10.5246 15.5513 10.5378 16.1302 10.2845 16.3408C10.3597 16.3446 10.4349 16.3323 10.5049 16.3046C10.5049 16.3046 10.5049 16.3046 10.472 16.3572L10.449 16.3934C10.3075 16.5283 10.2681 16.5644 9.85689 16.5052C9.8621 16.5505 9.87666 16.5942 9.89965 16.6335C9.6957 16.719 9.36347 16.7059 9.27136 17.2651C9.26635 17.258 9.25954 17.2523 9.25162 17.2487H9.23518C9.23518 17.2487 9.20886 17.2487 9.20557 17.2256C9.20228 17.2026 9.20557 17.1993 9.18254 17.1927H9.10031L9.03781 17.2355C8.98518 17.2585 8.99176 17.2059 8.89965 17.3375C8.89965 17.3375 8.89965 17.3375 8.89965 17.3901H8.87662L8.7911 17.3473C8.7646 17.3396 8.73918 17.3285 8.71544 17.3144L8.61347 17.2848L8.66281 17.3079L8.77794 17.3605L8.84702 17.3901L8.86018 17.4394L8.58386 17.3112H8.56741C8.54689 17.2984 8.52477 17.2885 8.50162 17.2815L8.39965 17.2519L8.6332 16.7487ZM17.3437 15.5677C17.3372 15.5858 17.3372 15.6056 17.3437 15.6237L17.3141 15.5809C17.3201 15.5481 17.3324 15.5168 17.3503 15.4888L17.37 15.5118C17.3567 15.528 17.3477 15.5472 17.3437 15.5677ZM16.472 15.5677L16.5575 15.6006L16.6102 15.6993H16.5345L16.472 15.5612M14.6858 16.5184C14.5923 16.4751 14.5167 16.4007 14.472 16.3079C14.542 16.3356 14.6172 16.3479 14.6924 16.344C14.4391 16.1335 14.4523 15.5546 14.6365 15.2487L14.6924 15.2125C14.7516 15.3276 14.9161 15.3276 14.9983 15.4164C15.0252 15.3924 15.0538 15.3705 15.0839 15.3506C15.0864 15.5838 15.1018 15.8166 15.1299 16.048C14.9346 16.1522 14.7787 16.3174 14.6858 16.5184ZM15.5871 20.0052L15.1529 19.8046L15.4391 19.1631C15.5646 19.2652 15.7014 19.3525 15.847 19.423L15.5871 20.0052ZM9.54439 18.2651V18.3013C9.54556 18.2926 9.54556 18.2837 9.54439 18.275M17.1102 15.2848L17.2121 15.3144L17.2385 15.3473L17.1332 15.3177C17.1275 15.3055 17.1197 15.2944 17.1102 15.2848ZM16.3339 15.2848L16.3931 15.3177L16.4589 15.4362H16.4029C16.381 15.3835 16.358 15.3342 16.3339 15.2881M15.1332 18.298C15.1317 18.3133 15.1317 18.3287 15.1332 18.344C15.135 18.3288 15.135 18.3133 15.1332 18.298ZM13.926 20.2947L14.1233 20.4C14.1233 20.4 14.0641 20.4789 13.8602 20.4789C13.8587 20.4236 13.8521 20.3685 13.8404 20.3144H13.9128M11.9391 19.9L12.1233 19.8079C12.0866 19.9673 12.0591 20.1288 12.0411 20.2914C11.9809 20.2964 11.9204 20.2964 11.8602 20.2914C11.8738 20.1576 11.9002 20.0254 11.9391 19.8967M10.87 20.4L10.9753 20.3473C10.9734 20.3857 10.9734 20.4241 10.9753 20.4625C10.9555 20.4593 10.9365 20.4521 10.9195 20.4414C10.9026 20.4306 10.888 20.4165 10.8766 20.4M12.1069 19.4362L12.2023 19.4789C12.2007 19.4953 12.2007 19.5118 12.2023 19.5283L12.051 19.6039C12.0707 19.548 12.0937 19.4921 12.1168 19.4362M14.0575 17.5743C13.7547 17.5411 13.4505 17.6233 13.2056 17.8046C13.238 17.7256 13.2882 17.6552 13.3522 17.5988C13.4162 17.5424 13.4924 17.5015 13.5747 17.4792C13.6571 17.4569 13.7435 17.4539 13.8272 17.4704C13.911 17.4869 13.9898 17.5225 14.0575 17.5743ZM13.5312 18.8473C13.4158 18.7955 13.3057 18.7327 13.2023 18.6598H13.2944C13.4142 18.6679 13.5262 18.7222 13.6069 18.8112L13.5312 18.8473ZM12.0181 18.8473H11.9885C12.0214 18.8112 12.0543 18.775 12.0839 18.7355C12.0608 18.7717 12.0411 18.8079 12.0181 18.8408M12.324 18.8408C12.324 18.8046 12.347 18.7684 12.3536 18.7322C12.3536 18.7684 12.3536 18.8046 12.3536 18.8408M13.2714 19.2092L13.3865 19.1533C13.5217 19.2469 13.6444 19.3574 13.7516 19.4822C13.5982 19.4237 13.4507 19.3511 13.3108 19.2651L13.2714 19.2158M13.1891 19.0085V19.0184V19.0085ZM12.6398 18.7552C12.6538 18.8197 12.6714 18.8834 12.6924 18.946H12.6661C12.6661 18.8868 12.6464 18.8276 12.6398 18.7651M13.6595 18.0743C13.7286 18.3046 13.8602 18.5151 14.3437 18.298C14.3432 18.3433 14.3583 18.3875 14.3865 18.423L13.6496 18.7881C13.6496 18.5579 13.472 18.4592 13.3207 18.3539C13.3733 18.2815 13.3207 18.2487 13.6496 18.0579M13.6496 18.0579C13.7725 18.0251 13.9018 18.0251 14.0246 18.0579C13.968 18.0918 13.9032 18.1097 13.8371 18.1097C13.7711 18.1097 13.7063 18.0918 13.6496 18.0579ZM14.5082 18.2783L14.5543 18.3144H14.574L14.4621 18.3704C14.4757 18.342 14.4911 18.3145 14.5082 18.2881M14.4523 19.3934C14.245 19.2322 14.025 19.0881 13.7944 18.9625L14.7286 18.4954C14.7489 18.6561 14.7348 18.8193 14.6871 18.9741C14.6395 19.129 14.5594 19.2719 14.4523 19.3934ZM11.6266 18.7059H11.6102L11.5773 18.6894L11.6562 18.6664C11.6891 18.6664 11.6858 18.6664 11.8141 18.6467C11.7755 18.6778 11.7348 18.7064 11.6924 18.7322H11.6595M11.2977 18.5644L11.2516 18.5414C11.2516 18.5414 11.2516 18.5414 11.222 18.5414C11.222 18.5414 11.222 18.5414 11.1891 18.5414L11.1464 18.5184H11.1168L10.995 18.4263H10.9457C11.1168 18.3934 11.1957 18.4263 11.3339 18.0973C10.8996 18.3243 10.574 17.5019 11.4391 17.5217C11.847 17.7322 12.0148 18.2848 11.3865 18.6434H11.2615M10.8339 20.2289C10.832 20.2169 10.832 20.2047 10.8339 20.1927L10.8569 20.2125L10.8339 20.2289ZM9.07728 17.4921C9.07654 17.5041 9.07654 17.5162 9.07728 17.5283C9.07728 17.5283 9.07728 17.5283 9.05754 17.5283V17.5085H9.07399M12.0345 20.8967C11.9606 20.8431 11.9081 20.765 11.8865 20.6763H12.0246C12.0178 20.7485 12.0178 20.8212 12.0246 20.8934M12.9029 20.1006C12.9447 20.0318 12.982 19.9604 13.0148 19.8868H13.0312C13.0049 20.1171 13.3141 20.3309 12.9424 20.8736C12.9617 20.6088 12.9484 20.3425 12.9029 20.0809M15.8865 17.4987V17.5184C15.8865 17.5184 15.8865 17.5908 15.8865 17.6335L15.6595 17.7519C15.6561 17.7279 15.6561 17.7036 15.6595 17.6796H15.676C15.6879 17.682 15.7002 17.682 15.7121 17.6796C15.7483 17.6796 15.7319 17.696 15.8503 17.5875C15.8672 17.5721 15.8777 17.551 15.8799 17.5283M16.6891 14.7421C16.7253 14.7717 16.8339 14.9 16.9654 15.071L16.8931 15.0447C16.8194 14.9535 16.7513 14.8579 16.6891 14.7585M16.2187 15.0875C16.234 15.108 16.2473 15.1301 16.2582 15.1533C16.2474 15.1322 16.2386 15.1102 16.2319 15.0875M7.72202 15.4888C7.6914 15.4856 7.66053 15.4856 7.62991 15.4888C7.85689 15.2158 8.20886 14.7881 8.28781 14.7322C8.2582 14.7947 7.95886 15.1894 7.73189 15.5019M7.20228 17.5546H7.09044C7.0863 17.6083 7.06374 17.6589 7.02658 17.6978C6.98941 17.7368 6.93993 17.7617 6.88649 17.7684L6.85031 17.7487L6.8207 17.7223L6.79439 17.6894C6.77275 17.6468 6.76363 17.5989 6.76807 17.5513C6.77127 17.5033 6.79104 17.458 6.82399 17.423C6.79928 17.3994 6.7762 17.3741 6.75491 17.3473C6.73546 17.32 6.71788 17.2915 6.70228 17.2618C6.62853 17.1128 6.61214 16.9419 6.65623 16.7815C6.70948 16.6504 6.80037 16.5379 6.91745 16.4583C7.03452 16.3786 7.17255 16.3355 7.31412 16.3342C7.34044 16.2815 7.31412 16.2618 7.56412 16.173C7.56412 16.219 7.69241 16.2322 7.59044 16.4789C7.66518 16.5679 7.715 16.6751 7.73483 16.7897C7.75467 16.9042 7.74382 17.0219 7.70337 17.1309C7.66293 17.2398 7.59434 17.3361 7.50459 17.41C7.41484 17.4838 7.30713 17.5326 7.19241 17.5513M12.2154 8.88681C12.3973 8.89754 12.5796 8.89754 12.7615 8.88681C13.0829 9.16582 13.4701 9.35828 13.8865 9.44602C13.6236 9.4631 13.3598 9.43416 13.1069 9.3605C13.1069 9.52497 13.472 9.71576 13.7056 9.7651C13.53 9.78772 13.3517 9.76273 13.1891 9.69273C13.2654 9.81551 13.3815 9.9084 13.5181 9.95589C13.4123 10.0639 13.2832 10.1462 13.1406 10.1964C12.998 10.2466 12.8458 10.2633 12.6957 10.2454C12.7386 10.2975 12.7939 10.3381 12.8566 10.3633C12.9192 10.3886 12.9872 10.3978 13.0543 10.3901C12.7343 10.8384 12.536 11.362 12.4786 11.9098C12.4204 11.3653 12.2245 10.8446 11.9095 10.3967C11.9771 10.4047 12.0456 10.3956 12.1088 10.3703C12.172 10.345 12.2279 10.3043 12.2714 10.2519C12.1217 10.2709 11.9697 10.2546 11.8275 10.2044C11.6853 10.1541 11.5568 10.0713 11.4523 9.96247C11.5878 9.91318 11.7034 9.82071 11.7812 9.69931C11.6187 9.76931 11.4403 9.7943 11.2648 9.77168C11.4983 9.72234 11.8536 9.53155 11.8635 9.36708C11.6095 9.44092 11.3445 9.46986 11.0806 9.4526C11.5016 9.36596 11.8928 9.17094 12.2154 8.88681ZM15.4391 18.2092C15.4364 18.1906 15.4364 18.1718 15.4391 18.1533C15.4359 18.1599 15.4342 18.1672 15.4342 18.1746C15.4342 18.182 15.4359 18.1893 15.4391 18.196M15.4391 18.2256C15.4348 18.2337 15.4325 18.2428 15.4325 18.2519C15.4325 18.2611 15.4348 18.2702 15.4391 18.2783C15.4358 18.2553 15.4358 18.2321 15.4391 18.2092V18.2256ZM19.5049 12.5842C19.2704 12.4731 19.0089 12.4319 18.7516 12.4658C18.9424 12.4184 19.1164 12.3193 19.2545 12.1794C19.3926 12.0396 19.4895 11.8643 19.5345 11.673C19.3034 11.6152 19.0617 11.6152 18.8306 11.673C18.9921 11.5848 19.1282 11.4564 19.2256 11.3003C19.323 11.1441 19.3784 10.9654 19.3865 10.7815C19.1174 10.775 18.8504 10.8313 18.6069 10.946C19.1398 10.6533 19.3306 9.95918 19.0477 9.56444C18.8865 9.65984 18.1332 10.4263 18.0115 10.5118C18.4885 9.87365 19.1496 9.15326 18.3996 8.37037C18.0517 9.0782 17.6388 9.75215 17.1661 10.3835C17.1361 10.3422 17.0951 10.3103 17.0477 10.2914C16.9272 10.618 16.7216 10.9064 16.4523 11.1269C16.4326 11.0733 16.4061 11.0224 16.3733 10.9756C14.4523 12.15 16.097 14.15 14.472 13.3835C14.5494 13.3707 14.6219 13.3369 14.6815 13.2859C14.7411 13.2349 14.7857 13.1686 14.8104 13.0941C14.8351 13.0197 14.8391 12.9398 14.8217 12.8633C14.8044 12.7868 14.7665 12.7164 14.7121 12.6598C14.5641 12.7487 14.4654 13.0381 13.9325 12.6368C13.9895 12.6657 14.0534 12.6782 14.1171 12.6729C14.1807 12.6676 14.2417 12.6448 14.2932 12.607C14.3446 12.5691 14.3846 12.5178 14.4086 12.4586C14.4327 12.3994 14.4398 12.3347 14.4293 12.2717C13.6727 12.6565 13.5773 11.3375 14.2746 10.7914C14.3503 10.9427 15.1727 10.4888 15.2418 11.1927C15.5477 11.0184 15.4358 10.7388 15.0444 10.6302C15.3733 10.6862 16.2418 11.4329 16.3043 10.4789C16.1595 10.8243 15.5937 10.5513 15.0082 10.4789C15.1387 10.3973 15.293 10.3623 15.4459 10.3796C15.5988 10.397 15.7414 10.4656 15.8503 10.5743C15.9336 10.5006 15.991 10.4021 16.0142 10.2934C16.0373 10.1846 16.025 10.0713 15.979 9.97008C15.9329 9.86885 15.8557 9.78505 15.7585 9.73098C15.6613 9.67692 15.5494 9.65544 15.4391 9.66971C15.4416 9.65049 15.439 9.63097 15.4316 9.61306C15.4242 9.59515 15.4124 9.57945 15.3971 9.56751C15.3819 9.55558 15.3638 9.5478 15.3446 9.54496C15.3254 9.54212 15.3059 9.5443 15.2878 9.55129C15.2887 9.53569 15.2859 9.52011 15.2796 9.50581C15.2733 9.49152 15.2637 9.47892 15.2516 9.46905C15.8668 9.52497 16.4062 8.93287 16.1036 8.10063C16.2635 8.19792 16.4395 8.26587 16.6233 8.30129C16.847 8.69273 16.2121 9.16642 16.6957 9.7355C16.702 9.78646 16.6953 9.83818 16.6763 9.88589C16.6574 9.93361 16.6267 9.97578 16.5871 10.0085C16.7944 9.95918 17.12 9.83089 16.8043 9.24866C16.8569 9.60063 17.3371 9.048 17.3668 9.5776C18.0246 9.048 16.9128 9.22563 17.1727 8.85721C17.3832 8.56115 17.551 8.27168 16.7977 8.1105C16.6299 7.51839 15.2582 7.4526 15.699 8.54471C15.824 8.80458 15.9621 9.25194 15.1957 9.39668V9.32102C15.3108 9.11379 15.597 8.52826 14.9852 8.41971C14.949 8.39997 14.9852 8.41971 14.8503 8.41971V8.47234H14.8108V8.39997C14.8108 8.37366 14.8964 8.35392 14.8108 8.19273H14.8569C14.8238 8.16069 14.7941 8.12543 14.7681 8.08747C14.8055 8.11295 14.8407 8.14156 14.8733 8.173V7.84405C14.8403 7.87599 14.8051 7.90567 14.7681 7.93287C14.7931 7.89419 14.823 7.85883 14.8569 7.8276H14.5279C14.5609 7.85973 14.5906 7.89499 14.6168 7.93287C14.579 7.90521 14.5428 7.87556 14.5082 7.84405V8.173C14.541 8.13947 14.5774 8.10969 14.6168 8.08418C14.5896 8.12126 14.5599 8.15643 14.5279 8.18944H14.574C14.574 8.22234 14.4885 8.23879 14.574 8.39668V8.46905H14.5312V8.41642C14.472 8.39997 14.5312 8.41642 14.3996 8.41642C14.1168 8.548 13.8207 8.68287 14.1858 9.31773V9.36708C13.8034 9.22194 13.456 8.99776 13.1661 8.70918V8.49537C13.3964 8.19273 13.7911 7.22563 12.9062 7.09734C12.8811 7.07981 12.852 7.06883 12.8216 7.06538C12.7911 7.06194 12.7603 7.06614 12.7319 7.0776V7.15984H12.6398V7.05787H12.5904C12.5904 7.02826 12.7911 6.96576 12.6233 6.70918H12.6957C12.6427 6.65935 12.5992 6.60027 12.5674 6.53484C12.6325 6.56573 12.6916 6.60807 12.7418 6.65984V6.25524C12.6939 6.3082 12.6357 6.35075 12.5707 6.38024C12.6009 6.31472 12.6434 6.25556 12.6957 6.20589H12.2812C12.3336 6.25556 12.376 6.31472 12.4062 6.38024C12.3407 6.35 12.2816 6.30758 12.2319 6.25524V6.66971C12.2833 6.61942 12.3421 6.57727 12.4062 6.54471C12.3768 6.6107 12.3343 6.67001 12.2812 6.71905H12.3536C12.3536 6.7651 12.1628 6.8276 12.3865 7.06773H12.3339V7.16971H12.2385V7.08747C12.2101 7.076 12.1792 7.0718 12.1488 7.07525C12.1184 7.0787 12.0892 7.08968 12.0641 7.10721C11.4687 7.22892 11.3108 7.7651 11.8043 8.50523V8.72234C11.5196 9.01574 11.172 9.24069 10.7878 9.38023V9.33089C10.9029 9.12366 11.1891 8.53813 10.574 8.42958C10.5411 8.40984 10.574 8.42958 10.4424 8.42958V8.48221H10.4029V8.40984C10.4029 8.38352 10.4852 8.36379 10.4029 8.2026H10.449C10.417 8.16956 10.3874 8.13439 10.3602 8.09734C10.3988 8.12377 10.4352 8.15349 10.4687 8.18616V7.85721C10.4349 7.88962 10.3986 7.91932 10.3602 7.94602C10.3852 7.90735 10.4151 7.87198 10.449 7.84076H10.12C10.154 7.87193 10.1838 7.90731 10.2089 7.94602C10.1704 7.91932 10.1341 7.88962 10.1003 7.85721V8.18616L10.2089 8.10063C10.1829 8.1386 10.1531 8.17387 10.12 8.20589H10.176C10.176 8.23879 10.0937 8.25523 10.176 8.41313V8.4855H10.1365V8.43287C10.074 8.41642 10.1365 8.43287 10.0016 8.43287C9.71873 8.56444 9.41939 8.7026 9.78781 9.33418V9.40984C8.64965 9.60063 10.0641 6.54471 8.18583 8.12366C7.25491 8.048 8.10031 9.13681 7.6661 9.07102C7.51807 9.05129 7.26149 9.27497 7.61676 9.59076C7.52465 9.35392 7.81412 9.48221 8.17926 9.26181C8.12991 9.49537 7.78123 9.80458 8.39636 10.0217C8.35834 9.9877 8.32875 9.94534 8.30991 9.89796C8.29107 9.85058 8.2835 9.79946 8.28781 9.74866C8.64636 9.32102 8.33057 8.96247 8.36018 8.31444C8.53781 8.27219 8.70691 8.19987 8.86018 8.10063C8.96215 8.75852 8.35689 9.30129 9.71215 9.46905C9.70004 9.47892 9.69045 9.49152 9.68416 9.50581C9.67787 9.52011 9.67506 9.53569 9.67597 9.55129C9.6579 9.5443 9.63833 9.54212 9.61917 9.54496C9.60001 9.5478 9.58192 9.55558 9.56667 9.56751C9.55141 9.57945 9.53952 9.59515 9.53216 9.61306C9.52479 9.63097 9.5222 9.65049 9.52465 9.66971C9.28781 9.68615 8.64307 9.99865 9.12333 10.5644C9.23226 10.4557 9.37481 10.3871 9.52774 10.3698C9.68067 10.3524 9.83495 10.3874 9.96544 10.469C9.63649 10.321 9.13649 11.025 8.66939 10.469C8.64965 10.8868 9.08715 11.1796 9.92925 10.6204C9.53781 10.7289 9.42597 11.0085 9.73189 11.1829C9.78781 10.7947 9.86676 10.798 10.6957 10.7815C11.0082 10.9921 11.7319 12.4723 10.5444 12.2618C10.5338 12.3248 10.541 12.3895 10.565 12.4487C10.589 12.5079 10.629 12.5593 10.6805 12.5971C10.7319 12.6349 10.7929 12.6578 10.8566 12.663C10.9202 12.6683 10.9841 12.6558 11.0411 12.6269C11.0115 12.6533 10.5806 13.048 10.2615 12.65C10.2071 12.7065 10.1692 12.7769 10.1519 12.8534C10.1346 12.93 10.1385 13.0098 10.1632 13.0843C10.1879 13.1587 10.2325 13.2251 10.2921 13.2761C10.3518 13.3271 10.4242 13.3608 10.5016 13.3737C9.31412 13.9394 9.65952 13.2059 9.71873 12.1763C9.56412 11.9526 8.97202 11.4329 8.59373 10.9658C8.56096 11.0126 8.53442 11.0634 8.51478 11.1171C8.24448 10.8975 8.03873 10.6087 7.91939 10.2815C7.87251 10.3013 7.83166 10.3331 7.80097 10.3737C7.32828 9.74228 6.91531 9.06833 6.56741 8.3605C5.90952 8.923 6.27794 9.67629 6.96873 10.5019C6.85031 10.4164 6.09702 9.64997 5.93255 9.55458C5.65294 9.9526 5.84373 10.6434 6.37334 10.9362C6.13107 10.8211 5.86512 10.7648 5.59702 10.7717C5.60187 10.9568 5.65475 11.1376 5.75048 11.2962C5.8462 11.4547 5.98149 11.5857 6.14307 11.6763C5.91198 11.6185 5.67022 11.6185 5.43913 11.6763C5.48485 11.868 5.58284 12.0433 5.72221 12.1827C5.86158 12.322 6.03687 12.42 6.2286 12.4658C5.97241 12.4322 5.71199 12.4733 5.4786 12.5842C5.53046 12.7662 5.63793 12.9275 5.78597 13.0455C5.93401 13.1634 6.11522 13.2322 6.30426 13.2421C6.04423 13.2596 5.80121 13.3775 5.62663 13.571C5.71133 13.6865 5.82316 13.7793 5.95225 13.8412C6.08134 13.9032 6.2237 13.9324 6.36676 13.9263C6.26381 13.9609 6.16915 14.0165 6.08876 14.0895C6.00836 14.1626 5.94397 14.2515 5.89965 14.3506C6.10031 14.5118 6.3536 14.6138 6.93583 14.4065C6.27794 14.6829 6.39965 14.8177 6.29768 15.1039C6.55426 15.2783 7.06412 15.1927 7.57399 14.7059C7.46873 14.9131 6.65623 15.1171 6.89636 15.7355H6.99176C6.98286 15.7449 6.97612 15.7561 6.97202 15.7684C6.83715 15.7355 6.5082 15.7158 6.31412 16.1796C6.26478 16.1467 6.14307 16.1796 5.95886 16.4526C5.95791 16.4701 5.95791 16.4877 5.95886 16.5052C5.95886 16.525 5.95886 16.5052 5.95886 16.5579V16.6039L5.98189 16.65L6.0082 16.6862L6.04439 16.719C6.01257 16.7662 5.98919 16.8185 5.97531 16.8737C5.97587 16.8802 5.97587 16.8868 5.97531 16.8934C5.97169 16.9317 5.97169 16.9702 5.97531 17.0085C5.97648 17.0162 5.97648 17.0239 5.97531 17.0315C5.97238 17.0457 5.97238 17.0602 5.97531 17.0743C5.97531 17.0743 5.97531 17.1006 5.97531 17.1401C5.97597 17.1478 5.97597 17.1555 5.97531 17.1631C5.97531 17.1796 5.99176 17.2026 6.01478 17.2421C6.01538 17.2486 6.01538 17.2552 6.01478 17.2618V17.2815L6.04439 17.3112C6.0699 17.3377 6.09863 17.3609 6.12991 17.3802H6.14965C6.1292 17.4244 6.12124 17.4733 6.12663 17.5217V17.5414C6.12728 17.5491 6.12728 17.5568 6.12663 17.5644V17.5842C6.14117 17.6113 6.16131 17.6349 6.18569 17.6536C6.21007 17.6724 6.23815 17.6857 6.26807 17.6927C6.24809 17.7338 6.23688 17.7786 6.23518 17.8243C6.23518 17.8243 6.23518 17.8243 6.23518 17.8737C6.23786 17.8994 6.24338 17.9248 6.25162 17.9493C6.25162 17.9493 6.25162 17.9493 6.25162 17.9756C6.2844 18.0352 6.33667 18.0816 6.39965 18.1072H6.91281C6.91281 18.1072 6.91281 18.1072 6.96215 18.0677C6.9864 18.0468 7.00745 18.0224 7.02465 17.9954H7.14307C7.14307 17.9954 7.14307 17.9954 7.18583 17.9954C7.22212 17.9935 7.25729 17.9822 7.28781 17.9625H7.33715C7.34662 17.9498 7.3554 17.9366 7.36347 17.923C7.38424 17.9252 7.40519 17.9252 7.42597 17.923H7.53781C7.57585 17.9197 7.61339 17.9119 7.64965 17.9H7.67268L7.87333 18.0973H7.99505L8.2286 17.6039C8.28123 17.6368 8.2286 17.6039 8.37662 17.673C8.37323 17.6882 8.37323 17.7039 8.37662 17.719L9.09044 18.048C9.0889 18.0578 9.0889 18.0678 9.09044 18.0776V18.0973C9.09044 18.0973 9.09044 18.0973 9.09044 18.1171C9.08495 18.1266 9.08207 18.1374 9.08207 18.1483C9.08207 18.1593 9.08495 18.1701 9.09044 18.1796C9.08871 18.1826 9.0878 18.186 9.0878 18.1894C9.0878 18.1929 9.08871 18.1963 9.09044 18.1993C9.12662 18.2651 9.09044 18.3309 9.28123 18.3276C9.31412 18.3013 9.3207 18.3276 9.36347 18.1434C9.38649 18.2026 9.34702 18.173 9.33715 18.3671C9.34578 18.38 9.35694 18.391 9.36994 18.3995C9.38294 18.408 9.39752 18.4137 9.41281 18.4164C9.41281 18.4164 9.43254 18.4164 9.49176 18.4164C9.51149 18.4164 9.54768 18.4164 9.5411 18.3638C9.5411 18.3638 9.52465 18.4164 9.59373 18.4723C9.59373 18.4723 9.61347 18.4723 9.68254 18.4723H9.69899C9.73189 18.4723 9.71873 18.4921 9.77794 18.4362C9.83715 18.3802 9.77794 18.4362 9.79768 18.321L11.1332 18.9427C11.0148 18.9033 10.0444 19.946 10.245 19.0644C10.1036 19.0842 9.84702 19.2618 9.84702 19.6434C9.51807 19.6927 9.1036 20.6862 9.40294 20.719C9.44309 20.5069 9.56025 20.3171 9.73189 20.1862C9.73189 20.3769 9.68583 20.3671 9.9161 20.7059C9.89636 20.7848 9.16939 20.9526 9.1661 21.1862C9.27465 21.3144 9.63978 20.9888 9.93583 20.8835V20.9329C10.0378 20.9 10.0016 20.9329 10.1464 20.7881L10.301 20.7092C10.3402 20.8104 10.4087 20.8977 10.4978 20.9598C10.5868 21.0219 10.6924 21.056 10.801 21.0579C10.668 21.2129 10.4872 21.3193 10.2872 21.3604C10.0871 21.4015 9.87902 21.3749 9.6957 21.2848C9.6957 21.6598 10.972 21.9427 11.2418 21.0513C11.4523 21.1434 11.4095 21.4723 12.1233 21.2092C12.2031 21.3826 12.3253 21.533 12.4786 21.6467C12.6372 21.5407 12.7644 21.3942 12.847 21.2223C12.949 21.275 13.6036 21.5085 13.8075 20.8934C13.9885 21.0052 14.4983 21.2486 14.7023 20.6434L14.824 20.6993C14.8766 20.7355 14.7549 20.7947 15.0543 20.9098C15.0355 20.8745 15.0264 20.8347 15.0279 20.7947L15.9786 21.2388C16.0214 21.2388 15.9786 21.2388 16.1431 21.2388H16.1858C16.1858 21.2388 16.1858 21.2388 16.2056 21.2388H16.2253C16.2253 21.2388 16.2253 21.2388 16.2582 21.2158L16.2878 21.1829L16.3108 21.1467C16.3094 21.1402 16.3094 21.1334 16.3108 21.1269C16.3103 21.1204 16.3103 21.1138 16.3108 21.1072C16.3096 21.1018 16.3096 21.0962 16.3108 21.0908C16.3108 21.0908 16.3108 21.0644 16.3108 21.0283C16.3108 21.0283 16.3108 21.0283 16.3108 20.9888C16.3071 20.9754 16.3003 20.963 16.2911 20.9526C16.2823 20.9331 16.2687 20.9162 16.2516 20.9033C16.2516 20.9033 16.2516 20.9033 16.2154 20.8802L16.1398 20.844L15.9062 20.7289L16.0082 20.5118L16.4918 20.7289L17.0279 19.5908V19.5381L16.8733 19.4658C17.2681 19.3769 17.6266 18.1763 16.9687 18.0217C16.865 18.0477 16.7554 18.0361 16.6595 17.9888C16.6595 18.1006 16.8733 18.2914 16.8733 18.2914C16.9161 18.3572 16.926 18.4559 16.5937 18.2289C17.6332 19.3408 15.7779 19.2355 15.3865 18.5151C15.4194 18.4855 15.4227 18.4888 15.4358 18.4065C15.4358 18.446 15.4687 18.4526 15.4885 18.4592C15.5279 18.4592 15.4885 18.4592 15.5674 18.4592C15.6464 18.4592 15.5674 18.4592 15.6529 18.4C15.6727 18.3572 15.6365 18.3638 15.6233 18.1862V18.1401C15.6233 18.2421 15.5773 18.1927 15.699 18.3572C15.699 18.3572 15.8931 18.3868 15.8832 18.2092C15.8887 18.1997 15.8916 18.1889 15.8916 18.1779C15.8916 18.167 15.8887 18.1562 15.8832 18.1467C15.8832 18.1467 15.8832 18.1467 15.8832 18.0776C15.9346 18.0316 15.9703 17.9706 15.9852 17.9033H16.0115C16.0267 17.9065 16.0424 17.9065 16.0575 17.9033C16.0575 17.9033 16.0575 17.9033 16.0773 17.8802L16.1365 17.8506C16.1535 17.8559 16.1719 17.8544 16.1878 17.8464C16.2038 17.8385 16.216 17.8246 16.222 17.8079L17.574 17.1302L17.5937 17.1664L17.9983 16.9559L17.9819 16.9296L18.1464 16.8473C18.0939 16.7734 18.0518 16.6926 18.0214 16.6072L17.8602 16.6894L17.8437 16.6565L17.4325 16.7815L17.4556 16.821L16.1398 17.4789C16.1368 17.4772 16.1334 17.4763 16.1299 17.4763C16.1264 17.4763 16.123 17.4772 16.12 17.4789C16.12 17.4789 16.12 17.4789 16.12 17.4592C16.12 17.4263 16.12 17.4362 16.097 17.3638C16.0977 17.355 16.0977 17.3462 16.097 17.3375C16.097 17.2881 16.097 17.3112 15.9556 17.2519L15.8931 17.2092C15.8931 17.2092 15.8931 17.2092 15.8733 17.1894C15.8536 17.1697 15.8733 17.1894 15.8174 17.1894H15.7911C15.7714 17.1894 15.7714 17.1894 15.7681 17.2223C15.7648 17.2552 15.7483 17.2223 15.7385 17.2454C15.6825 16.9954 15.6562 16.7947 15.1562 16.6302C15.2779 16.3013 15.9523 16.2717 16.0115 16.9789C16.0279 16.8769 16.0674 16.321 16.2418 17.0644C16.2607 16.9596 16.3167 16.865 16.3996 16.798C16.3996 16.798 16.5082 16.6533 16.3635 16.3704C16.4004 16.3781 16.4359 16.3914 16.4687 16.4098C16.5477 16.2618 16.722 16.2092 16.6957 16.025C16.8926 16.1237 17.1074 16.1819 17.3273 16.196L17.2977 16.1664C17.2991 16.1577 17.2991 16.1488 17.2977 16.1401C17.3148 16.1613 17.3347 16.1801 17.3569 16.196C17.4062 16.196 17.1496 16.3013 17.3799 16.4493C17.4194 16.4263 17.2418 16.594 17.4457 16.6204C17.4457 16.6204 17.4062 16.6993 17.4457 16.7487L17.7746 16.5776C17.722 16.5513 17.1694 16.2092 17.8141 15.8967C17.8542 15.8525 17.8805 15.7977 17.8898 15.7388C17.9459 15.7248 18.0031 15.716 18.0608 15.7125C18.1891 15.3835 17.8207 14.9559 17.3832 14.6829C17.7121 14.8539 18.12 15.4427 18.6595 15.0809C18.5575 14.7947 18.6858 14.6598 18.0214 14.3835C18.6036 14.5908 18.8569 14.4888 19.0575 14.3276C19.0162 14.2282 18.9548 14.1384 18.8773 14.0637C18.7998 13.989 18.7077 13.9311 18.6069 13.8934C18.75 13.8998 18.8924 13.8707 19.0216 13.8087C19.1507 13.7468 19.2625 13.6538 19.347 13.5381C19.1724 13.3446 18.9294 13.2267 18.6694 13.2092C18.8584 13.1993 19.0396 13.1305 19.1877 13.0126C19.3357 12.8946 19.4432 12.7333 19.495 12.5513" fill="#808D9C"/>
  <path d="M18.4543 15.8995C18.3892 15.9321 18.332 15.9784 18.2866 16.0352C18.2412 16.0919 18.2086 16.1579 18.1911 16.2285L18.1582 16.2515L18.1418 16.2976C18.1303 16.2927 18.118 16.2902 18.1056 16.2902C18.0931 16.2902 18.0808 16.2927 18.0694 16.2976C17.974 16.3403 18.0266 16.4489 18.0266 16.4489C18.0266 16.4489 18.0694 16.5673 18.1023 16.6364C18.1363 16.7014 18.1748 16.7641 18.2174 16.8239C18.2174 16.8239 18.2931 16.9061 18.3622 16.8699C18.3769 16.8618 18.3892 16.8499 18.3979 16.8355C18.4066 16.821 18.4113 16.8045 18.4115 16.7877H18.5135C18.5914 16.8152 18.675 16.8229 18.7567 16.8102C18.8384 16.7975 18.9157 16.7647 18.9816 16.7148C19.0475 16.6649 19.1 16.5994 19.1345 16.5242C19.1689 16.449 19.1841 16.3665 19.1788 16.284C19.1734 16.2015 19.1477 16.1216 19.104 16.0514C19.0602 15.9813 18.9997 15.9231 18.9279 15.8821C18.8561 15.841 18.7753 15.8185 18.6926 15.8163C18.6099 15.8142 18.5281 15.8326 18.4543 15.8699" fill="#808D9C"/>
  <path d="M17.4113 16.7814C17.3554 16.6926 17.3915 16.6564 17.3915 16.6564C17.3749 16.6555 17.3589 16.6498 17.3455 16.64L17.1646 16.7321C17.1317 16.7518 17.0692 16.7913 17.0593 16.8341C17.1792 16.8571 17.3034 16.8385 17.4113 16.7814Z" fill="#808D9C"/>
  <path d="M17.3379 16.6337C17.3018 16.6041 17.2919 16.581 17.2985 16.5481C17.305 16.5153 17.2985 16.4889 17.3379 16.4725H17.305C17.305 16.4725 17.2064 16.4725 17.1899 16.4725C17.0799 16.49 16.9765 16.5365 16.8906 16.6074C16.9925 16.7126 17.2195 16.6797 17.3379 16.6468" fill="#808D9C"/>
  <path d="M17.2899 16.4527C17.2733 16.4404 17.2597 16.4246 17.25 16.4064C17.2403 16.3882 17.2348 16.368 17.234 16.3474C17.2321 16.3269 17.2353 16.3063 17.2434 16.2874C17.2514 16.2684 17.264 16.2518 17.28 16.2389C17.0805 16.2131 16.8778 16.2288 16.6846 16.2849C16.7402 16.3409 16.8071 16.3843 16.8809 16.4121C16.9547 16.4399 17.0336 16.4515 17.1122 16.4461H17.2899" fill="#808D9C"/>
  <path d="M18.5297 17.3115C18.4112 17.3115 18.3389 17.4069 18.2237 17.4069C18.1769 17.4078 18.1306 17.3969 18.0892 17.375C18.0477 17.3531 18.0125 17.3211 17.9869 17.2819C17.9323 17.1752 17.9205 17.0516 17.954 16.9365L17.625 17.1108C17.625 17.1799 17.7237 17.1964 17.7237 17.1964C17.713 17.2143 17.7073 17.2347 17.7073 17.2556C17.7073 17.2764 17.713 17.2969 17.7237 17.3148C17.7566 17.3707 17.8356 17.3477 17.8356 17.3477C17.8356 17.3477 17.8356 17.4661 17.8816 17.5122C17.903 17.5249 17.9275 17.5316 17.9524 17.5316C17.9773 17.5316 18.0017 17.5249 18.0231 17.5122C18.022 17.5434 18.0276 17.5746 18.0396 17.6035C18.0515 17.6324 18.0694 17.6585 18.0922 17.6799C18.1134 17.693 18.1379 17.7 18.1629 17.7C18.1879 17.7 18.2123 17.693 18.2336 17.6799C18.2336 17.6799 18.2599 17.7654 18.3027 17.7852C18.3282 17.7907 18.3547 17.7883 18.3788 17.7783C18.4029 17.7683 18.4234 17.7512 18.4375 17.7293C18.4454 17.7645 18.4602 17.7977 18.4811 17.8271C18.502 17.8565 18.5286 17.8814 18.5593 17.9003C18.5874 17.911 18.6178 17.9145 18.6477 17.9105C18.6776 17.9065 18.706 17.8951 18.7303 17.8773C18.8224 17.8082 18.7665 17.9135 18.7566 17.9398C18.7172 18.0714 18.6711 18.1964 18.6283 18.3247C18.6064 18.3732 18.595 18.4259 18.595 18.4793C18.595 18.5326 18.6064 18.5853 18.6283 18.6339C18.6283 18.6339 18.681 18.6931 18.7237 18.6832C18.7599 18.5385 18.8093 18.397 18.8487 18.2523C18.9065 18.0915 18.9397 17.923 18.9474 17.7523C18.9479 17.6343 18.9111 17.5191 18.8422 17.4233C18.8098 17.379 18.7663 17.344 18.716 17.3221C18.6657 17.3001 18.6105 17.2919 18.556 17.2983" fill="#808D9C"/>
  <path d="M17.676 17.2114C17.676 17.2114 17.63 17.2114 17.5872 17.1226C17.4773 17.1759 17.3891 17.2653 17.3372 17.3759C17.387 17.3842 17.4382 17.3749 17.4819 17.3496C17.544 17.3224 17.6044 17.2916 17.6629 17.2575C17.6606 17.2422 17.6606 17.2267 17.6629 17.2114" fill="#808D9C"/>
  <path d="M17.7872 17.4065C17.7855 17.3956 17.7855 17.3845 17.7872 17.3736C17.7583 17.3829 17.7273 17.3829 17.6984 17.3736C17.6838 17.3656 17.6717 17.3536 17.6635 17.3391C17.6554 17.3245 17.6515 17.308 17.6523 17.2913C17.5504 17.3736 17.3957 17.5282 17.4221 17.6729C17.5307 17.6471 17.6299 17.5912 17.7082 17.5117C17.7331 17.4825 17.7562 17.4517 17.7773 17.4196" fill="#808D9C"/>
  <path d="M17.8434 17.5372C17.8122 17.5079 17.7934 17.4679 17.7907 17.4253C17.7907 17.4253 17.7019 17.5635 17.692 17.5734C17.6411 17.6323 17.6037 17.7018 17.5827 17.7769C17.5616 17.8519 17.5574 17.9307 17.5703 18.0076C17.7297 17.886 17.8619 17.7325 17.9585 17.5569C17.9392 17.5635 17.9185 17.5652 17.8984 17.5618C17.8783 17.5583 17.8594 17.5499 17.8434 17.5372Z" fill="#808D9C"/>
  <path d="M18.1333 17.7357C18.1133 17.736 18.0935 17.7313 18.0757 17.7222C18.0579 17.713 18.0427 17.6996 18.0313 17.6831C18.0151 17.6667 18.0023 17.6471 17.9939 17.6256C17.9854 17.6041 17.9813 17.5812 17.982 17.5581C17.982 17.5581 17.9294 17.6436 17.9261 17.6436C17.8025 17.8123 17.7378 18.0168 17.7419 18.2258C17.8061 18.1855 17.8628 18.1343 17.9096 18.0745C17.9294 18.0745 18.1267 17.7456 18.1267 17.7456" fill="#808D9C"/>
  <path d="M18.1907 18.0508L18.3256 17.8238C18.3076 17.8257 18.2895 17.823 18.2729 17.8162C18.2562 17.8093 18.2416 17.7983 18.2302 17.7844C18.2152 17.7659 18.204 17.7446 18.1973 17.7219C18.1842 17.7244 18.1708 17.7244 18.1578 17.7219L18.0723 17.86C17.9616 18.0624 17.8986 18.2874 17.8881 18.5179C17.9285 18.4813 17.9649 18.4405 17.9966 18.3962C18.0525 18.314 18.1907 18.0672 18.1907 18.0672" fill="#808D9C"/>
  <path d="M18.4826 17.9026C18.4446 17.865 18.4164 17.8187 18.4003 17.7678C18.388 17.7854 18.3709 17.7991 18.351 17.8072C18.328 17.8401 18.1898 18.1 18.1898 18.1C18.0813 18.3006 17.9234 18.7349 17.9957 18.8533C18.1203 18.707 18.2183 18.54 18.2852 18.3599L18.4826 17.9026Z" fill="#808D9C"/>
  <path d="M18.5295 18.456L18.7368 17.8968C18.7063 17.9254 18.6675 17.9433 18.626 17.9481C18.5845 17.9528 18.5426 17.9441 18.5065 17.9231C18.5065 17.9231 18.3717 18.2521 18.296 18.4396C18.1978 18.6557 18.1614 18.8948 18.1907 19.1303C18.239 19.0963 18.2785 19.0511 18.3059 18.9988C18.3284 18.9608 18.3482 18.9212 18.3651 18.8803L18.5295 18.456Z" fill="#808D9C"/>
  <path d="M18.5411 18.5283C18.4465 18.7384 18.378 18.9594 18.3372 19.1862C18.3418 19.325 18.3708 19.462 18.4227 19.5908L18.6859 18.7388C18.6859 18.7388 18.5576 18.7388 18.5411 18.5414" fill="#808D9C"/>
  <path d="M12.4778 12.8972H10.7343V16.5156C10.7343 16.963 10.9185 17.1735 11.3034 17.1735H11.8791C12.0174 17.1813 12.1498 17.2325 12.2573 17.3199C12.3648 17.4073 12.4419 17.5265 12.4778 17.6603C12.5056 17.5227 12.5786 17.3984 12.6854 17.3072C12.7921 17.2159 12.9263 17.1631 13.0666 17.157H13.6455C14.0271 17.157 14.2146 16.9465 14.2146 16.4992V12.8807L12.4778 12.8972Z" fill="white"/>
  <path d="M11.7678 16.3598H11.6724C11.6724 16.3138 11.6362 16.2973 11.6329 16.248C11.6329 16.0736 11.5638 16.1427 11.7316 15.8171C11.8895 15.7052 11.7776 15.6986 12.1559 15.4881C12.202 15.521 12.1921 15.6263 12.1559 15.6657C12.1645 15.6836 12.1711 15.7024 12.1757 15.7217C12.2034 15.7364 12.2334 15.7464 12.2645 15.7513C12.3368 15.8138 12.3171 15.7842 12.521 16.1131C12.521 16.1131 12.521 16.0901 12.521 16.0769L12.5572 16.1098H12.5276C12.5276 16.1328 12.5276 16.1657 12.5474 16.1657C12.5671 16.1657 12.4651 16.1657 12.4454 16.1953C12.4172 16.1974 12.3905 16.209 12.3697 16.2282C12.3401 16.2282 12.327 16.2282 12.3039 16.2513C12.4553 16.1888 11.8599 15.4848 11.7579 16.3203C11.7579 16.3203 11.7579 16.3203 11.725 16.3203C11.6921 16.3203 11.7678 16.3401 11.7678 16.3664M12.6099 15.9947L12.4585 15.4519C12.4803 15.4113 12.4926 15.3663 12.4947 15.3203C12.5309 15.3203 12.5704 15.3203 12.6099 15.3203C12.6362 15.3593 12.651 15.4049 12.6526 15.4519C12.6822 15.4519 12.6164 15.5013 12.6526 15.5901C12.7118 15.5901 12.6691 15.5901 12.7743 15.5638C12.8632 15.5638 12.8237 15.5638 12.9388 15.7085C12.97 15.8053 13.0167 15.8963 13.077 15.9782C13.0178 15.9782 13.077 15.9782 13.0309 16.0605C13.0309 16.0605 13.0309 16.0078 13.0835 16.0243C13.0835 16.0243 13.0835 16.0539 13.0835 16.0671C13.0835 16.0802 13.0835 16.0671 13.0441 16.1361C13.0441 16.1361 13.0441 16.1197 13.0441 16.1098C13.0441 16.0999 13.0441 16.1098 13.0901 16.1098C13.0939 16.1294 13.0939 16.1495 13.0901 16.169C13.0901 16.169 13.0605 16.1855 13.0539 16.2019C13.0394 16.1982 13.0241 16.1977 13.0093 16.2006C12.9945 16.2034 12.9806 16.2095 12.9684 16.2184C12.9684 16.2184 12.9684 16.2184 13.0112 16.2184C13.0539 16.2184 13.0112 16.2348 13.0112 16.2513C13.0112 16.2513 12.9783 16.2513 12.9651 16.2513C12.952 16.2513 12.8895 16.1855 12.8303 16.1921C12.771 16.1986 12.8303 16.1921 12.7612 16.1921C12.7842 16.1921 12.7612 16.1921 12.8138 16.1921C12.8664 16.1921 12.8467 16.1624 12.873 16.1592C12.8754 16.1678 12.8754 16.1769 12.873 16.1855C12.873 16.2184 12.9684 16.1427 12.85 16.1065C12.7847 16.1342 12.7254 16.1744 12.6756 16.2249C12.6756 16.1986 12.6987 16.1657 12.6756 16.1427C12.7151 16.1427 12.7151 16.0769 12.7645 16.0703C12.8138 16.0638 12.7645 16.0967 12.7645 16.1032C12.8105 16.1032 12.7645 16.1032 12.7941 16.021C12.7743 16.021 12.7941 16.0046 12.7283 16.021C12.6625 16.0374 12.6954 15.998 12.6493 16.1032C12.6329 16.1032 12.6822 16.0671 12.6197 16.0013C12.6197 16.0013 12.5934 16.0013 12.577 16.0177M11.8105 13.2776C11.7776 13.3302 11.7908 13.2776 11.8303 13.4453C11.8072 13.4881 11.771 13.4717 11.7842 13.6131C11.7053 13.6559 11.271 13.5802 11.3434 13.8631C11.3434 13.8631 11.2118 14.0013 11.3434 14.0769C11.3434 14.1197 11.2908 14.1394 11.3763 14.2019C11.3831 14.2143 11.3931 14.2245 11.4053 14.2317C11.4174 14.2389 11.4313 14.2426 11.4454 14.2426C11.4595 14.2426 11.4733 14.2389 11.4855 14.2317C11.4976 14.2245 11.5076 14.2143 11.5145 14.2019C11.6164 14.1559 11.5803 14.4717 11.7283 14.2842C11.7651 14.2925 11.8033 14.2925 11.8401 14.2842L11.8829 14.3138C11.9224 14.2842 11.8829 14.2809 11.9947 14.3138C12.0036 14.3022 12.015 14.2929 12.0282 14.2866C12.0414 14.2803 12.0558 14.2772 12.0704 14.2776L12.1033 14.3993H12.077C12.077 14.5013 12.1362 14.5506 12.146 14.646C11.9993 14.6429 11.8536 14.6709 11.7184 14.7282C11.6 14.5046 11.1164 14.498 11.146 15.0572C11.1395 15.0635 11.1346 15.0712 11.1317 15.0798C11.1289 15.0884 11.1281 15.0976 11.1296 15.1065C11.1506 15.0994 11.1705 15.0894 11.1888 15.0769C11.1752 15.174 11.1752 15.2726 11.1888 15.3697C11.2319 15.3344 11.262 15.2858 11.2743 15.2315C11.2918 15.2872 11.2918 15.3469 11.2743 15.4026C11.2974 15.3368 11.4158 15.3697 11.4684 15.169C11.4684 15.2348 11.4914 15.3138 11.4487 15.3532C11.4635 15.3472 11.4769 15.3383 11.4882 15.3269C11.6921 15.4717 11.3566 14.5934 11.6888 14.8171C11.5572 15.0111 11.9191 15.4289 11.5967 15.7842C11.5861 15.9343 11.5324 16.0782 11.4421 16.1986C11.4421 16.1986 11.4421 16.1986 11.4585 16.1986C11.4585 16.1986 11.4585 16.1986 11.475 16.1986C11.4914 16.1986 11.475 16.1986 11.4585 16.3006C11.3467 16.3861 11.5079 15.9717 11.1987 15.9717C11.4355 16.0243 11.1592 16.7282 11.8368 16.5703V16.6131C11.8111 16.6373 11.781 16.6563 11.748 16.669C11.9783 16.6164 12.4816 17.1065 12.8303 16.7447C12.8303 16.6921 12.975 16.7973 12.9388 16.5999C12.9618 16.5999 12.9388 16.5638 13.0342 16.5572H13.0572C13.0572 16.5572 13.0835 16.5572 13.1329 16.5572C13.1822 16.5572 13.1329 16.6032 13.2809 16.6296C13.2938 16.6133 13.3048 16.5956 13.3138 16.5769C13.4421 16.5243 13.6954 16.6361 13.7118 16.3861C13.7009 16.4055 13.6889 16.4242 13.6756 16.4421C13.6756 16.4421 13.6756 16.4421 13.7053 16.4124C13.7053 16.4388 13.6789 16.4684 13.6658 16.4717C13.6526 16.4749 13.7053 16.3861 13.6658 16.3434C13.6678 16.3674 13.6622 16.3914 13.6498 16.412C13.6374 16.4327 13.6188 16.4489 13.5967 16.4585C13.5967 16.4585 13.6132 16.3927 13.5967 16.3796C13.5971 16.389 13.5952 16.3984 13.5912 16.407C13.5872 16.4156 13.5812 16.4231 13.5737 16.4289C13.5737 16.4289 13.5737 16.3927 13.5737 16.3894C13.5706 16.4051 13.5636 16.4197 13.5532 16.4318C13.5428 16.4439 13.5295 16.4531 13.5145 16.4585C13.5145 16.4585 13.5145 16.4585 13.5145 16.4289C13.5145 16.3993 13.5145 16.4486 13.4849 16.4486C13.4553 16.4486 13.4849 16.419 13.4684 16.4124C13.452 16.4059 13.4684 16.4355 13.4487 16.4421C13.4289 16.4486 13.4487 16.4157 13.4322 16.4092C13.4158 16.4026 13.4322 16.4092 13.4322 16.4289C13.4247 16.3985 13.41 16.3703 13.3895 16.3467C13.4125 16.3467 13.3895 16.3138 13.4125 16.3039C13.4355 16.294 13.4125 16.3039 13.4421 16.3039C13.4717 16.3039 13.4421 16.2809 13.4421 16.2743C13.4421 16.2677 13.4421 16.2743 13.4618 16.2743C13.4816 16.2743 13.4618 16.2546 13.4618 16.2447C13.4618 16.2348 13.4783 16.2447 13.4881 16.2249C13.4986 16.2284 13.5079 16.2345 13.5154 16.2425C13.5229 16.2506 13.5282 16.2604 13.5309 16.271C13.5391 16.242 13.5391 16.2112 13.5309 16.1822C13.5309 16.1822 13.5309 16.1822 13.5539 16.1822C13.577 16.1822 13.5803 16.2282 13.577 16.2414C13.5737 16.2546 13.577 16.1953 13.577 16.1723C13.577 16.1493 13.5967 16.2019 13.6099 16.2184C13.6099 16.1098 13.4816 16.1394 13.3204 16.2677C13.3204 16.2381 13.2743 16.2249 13.2579 16.1921C13.2705 16.1707 13.2794 16.1473 13.2842 16.123C13.2842 16.123 13.2513 16.123 13.2447 16.0934C13.2478 16.0826 13.2478 16.0712 13.2447 16.0605C13.2447 16.0605 13.2151 16.0605 13.202 16.0605C13.1659 15.8375 13.1131 15.6176 13.0441 15.4026C13.0441 15.4026 13.0441 15.4453 13.0441 15.4026L13.123 15.4355C13.1789 15.4519 13.35 15.2315 13.5803 15.1855C13.6263 15.2381 13.5276 15.317 13.4783 15.4749C13.4585 15.4749 13.4783 15.5078 13.4585 15.5276C13.3664 15.5276 13.3763 15.4289 13.3335 15.6657C13.4256 15.6657 13.3335 15.6657 13.5178 15.6328C13.6592 15.5342 13.6658 15.4157 13.7349 15.0769C13.6 14.9157 13.7118 14.9815 13.2447 15.0769C13.2908 14.9651 13.225 15.0046 13.1592 14.5999C13.2053 14.623 13.2053 14.6361 13.2941 14.5374C13.2776 14.5374 13.3335 14.6263 13.3993 14.5638C13.3993 14.5638 13.3993 14.5638 13.4191 14.5638C13.4388 14.5638 13.4191 14.5638 13.4651 14.5638C13.5868 14.5177 13.6263 14.498 13.5112 14.0868C13.5112 14.0868 13.5342 14.0868 13.5309 14.0868H13.5868C13.5671 14.0473 13.5868 13.9914 13.5605 13.9585L13.6 13.919C13.569 13.9049 13.5354 13.897 13.5013 13.896C13.5013 13.896 13.5013 13.8796 13.4158 13.8664C13.4158 13.8434 13.452 13.8203 13.4684 13.794C13.4323 13.7903 13.3959 13.7903 13.3599 13.794C13.3599 13.794 13.3599 13.794 13.2743 13.7743C13.1888 13.7546 13.1954 13.6921 12.9454 13.7743C12.9599 13.7736 12.9744 13.7769 12.9871 13.7838C12.9999 13.7908 13.0105 13.8012 13.0178 13.8138C12.9191 13.8138 12.952 13.7677 12.7941 13.8664C12.7806 13.8708 12.7684 13.8786 12.7586 13.8889C12.7488 13.8993 12.7418 13.9119 12.7382 13.9256H12.7776C12.7579 13.9519 12.646 13.9256 12.6329 13.9815C12.6789 13.9815 12.6592 13.9815 12.7382 13.9815C12.6789 14.0046 12.7381 13.9815 12.6066 14.0967C12.5993 14.0467 12.5799 13.9993 12.5501 13.9586C12.5203 13.9179 12.4809 13.8851 12.4355 13.8631C12.4355 13.8631 12.4158 13.8631 12.4355 13.7973C12.4553 13.7973 12.4684 13.8171 12.5046 13.7776C12.6757 13.9026 12.7151 13.2776 12.327 13.4947C12.4717 13.3335 12.8368 13.7052 12.5079 13.7743L12.5342 13.7513C12.5342 13.7513 12.5342 13.6953 12.5835 13.6855C12.5853 13.6658 12.5853 13.646 12.5835 13.6263C12.5877 13.6175 12.5898 13.608 12.5898 13.5983C12.5898 13.5886 12.5877 13.5791 12.5835 13.5703C12.5835 13.5868 12.5835 13.6131 12.5638 13.623C12.5441 13.6328 12.5638 13.5703 12.5638 13.5605C12.5704 13.5774 12.5704 13.5962 12.5638 13.6131C12.5638 13.6131 12.5638 13.5967 12.5638 13.5835C12.5638 13.5703 12.5638 13.5999 12.5638 13.6065C12.5638 13.6131 12.5441 13.5835 12.5243 13.5835C12.4487 13.5835 12.3928 13.6822 12.3763 13.748C12.3763 13.748 12.3105 13.748 12.3368 13.6789C12.3105 13.7085 12.2645 13.7184 12.3368 13.6065C12.3007 13.6065 12.2842 13.6592 12.2645 13.6921C12.2645 13.6657 12.2118 13.6394 12.3072 13.5736C12.2743 13.5736 12.3072 13.5736 12.2414 13.6131C12.2053 13.5802 12.2612 13.521 12.396 13.4782C12.396 13.4782 12.396 13.4782 12.3204 13.5046C12.2776 13.5046 12.1493 13.6526 12.2809 13.6953C12.2809 13.7381 12.3237 13.6953 12.2645 13.7776C12.1608 13.6966 12.0407 13.6393 11.9125 13.6098V13.5769C11.9289 13.5407 11.9421 13.544 11.8796 13.4749C11.8796 13.4749 11.8796 13.4749 11.8335 13.4749C11.7875 13.4749 11.9158 13.373 11.8434 13.248L11.8105 13.2776Z" fill="#808D9C"/>
  <path d="M17.0143 18.1634C16.9715 18.1634 16.9616 18.2555 17.0406 18.2193C17.0406 18.193 17.0636 18.193 17.0143 18.1634ZM17.0143 18.2588C17.0143 18.2588 16.8827 18.1766 17.0143 18.1305C17.0176 18.0976 17.1458 18.2292 17.0143 18.2588ZM16.1853 16.5779C16.2215 16.5779 16.2215 16.6108 16.1853 16.5779C16.1426 16.7128 16.1491 16.545 16.1853 16.5779ZM16.1853 16.6766C16.1228 16.7128 16.0932 16.443 16.2511 16.6075C16.2511 16.6437 16.2544 16.6108 16.1853 16.6766ZM18.6755 18.7095L18.3991 19.568C18.3482 19.3928 18.3327 19.2091 18.3536 19.0278C18.3745 18.8465 18.4313 18.6712 18.5208 18.5121C18.5373 18.7226 18.6656 18.7095 18.6656 18.7095M18.3366 18.8674C18.2993 18.9652 18.2383 19.0522 18.159 19.1206C18.0932 18.8641 18.2708 18.3739 18.488 17.9068C18.525 17.9271 18.5676 17.9352 18.6095 17.9299C18.6515 17.9246 18.6907 17.9061 18.7215 17.8772C18.6557 18.0746 18.5011 18.4956 18.3531 18.8674H18.3366ZM18.261 18.3608C18.1927 18.541 18.0936 18.7079 17.9682 18.8542C17.9803 18.4744 18.1051 18.1069 18.3268 17.7983C18.3403 17.7997 18.3541 17.7978 18.3667 17.7926C18.3793 17.7875 18.3905 17.7792 18.3991 17.7687C18.4178 17.8137 18.4446 17.8549 18.4781 17.8904L18.261 18.3608ZM17.9649 18.3772C17.9316 18.4203 17.8942 18.46 17.8531 18.4956C17.8703 18.2145 17.9648 17.9436 18.1261 17.7128C18.1391 17.7153 18.1526 17.7153 18.1656 17.7128C18.1656 17.7128 18.1491 17.795 18.2972 17.8147C18.2051 17.966 18.1952 17.9891 17.9682 18.3871M17.8827 18.0581C17.8359 18.1179 17.7792 18.1691 17.7149 18.2095C17.7076 18.0005 17.7714 17.7953 17.8958 17.6272L17.9485 17.5384C17.9485 17.5022 17.9485 17.7095 18.1031 17.7193C18.1031 17.7193 17.9024 18.0483 17.8827 18.0483M17.9255 17.5318C17.8278 17.7086 17.6945 17.8632 17.534 17.9858C17.5203 17.9076 17.5244 17.8274 17.546 17.7511C17.5677 17.6747 17.6063 17.6043 17.659 17.545L17.7577 17.397C17.7577 17.397 17.7281 17.5351 17.9255 17.5318ZM17.4123 17.6404C17.3893 17.4956 17.5439 17.3378 17.6491 17.2555C17.6755 17.2851 17.613 17.3246 17.7807 17.3509C17.7786 17.3629 17.7786 17.3751 17.7807 17.3871C17.7582 17.4179 17.734 17.4476 17.7083 17.4759C17.6287 17.5562 17.5286 17.6131 17.4189 17.6404M17.6524 17.2358C17.5573 17.3076 17.4426 17.3489 17.3235 17.3542C17.377 17.2425 17.4677 17.153 17.5801 17.1009C17.6195 17.1996 17.6689 17.1897 17.6689 17.1897C17.6602 17.2038 17.6546 17.2195 17.6524 17.2358ZM18.8235 17.4167C18.9123 17.4989 18.909 17.6305 18.932 17.7456C18.8991 17.9792 18.9847 17.6766 18.7018 18.6799C18.2906 18.5581 19.057 18.1437 18.4156 17.7193C18.4156 17.7193 18.2939 17.8772 18.2083 17.6733C18.2347 17.6338 18.0044 17.7785 17.9978 17.5022C18.0274 17.4628 17.7873 17.6042 17.807 17.3312C17.8498 17.3312 17.6031 17.3575 17.7051 17.1766C17.7051 17.1766 17.6162 17.1766 17.6031 17.091L17.9518 16.9167C17.9518 16.9759 17.8958 17.6239 18.5307 17.2917C18.5864 17.2864 18.6425 17.2954 18.6937 17.3179C18.745 17.3403 18.7896 17.3755 18.8235 17.42M15.8926 14.6338L16.7478 14.9266C16.7478 14.9266 16.6623 15.0253 16.8235 15.1601C16.4748 14.9726 16.3893 15.2522 15.8926 14.6338ZM16.7544 15.4068C16.5183 15.3554 16.3003 15.2419 16.1228 15.0779C16.4518 15.022 16.9978 15.2555 17.4649 15.3706C17.3301 15.42 17.3202 15.466 17.3037 15.5417L16.7544 15.4068ZM16.2248 15.4068C16.5922 15.4109 16.9565 15.4742 17.3037 15.5943C17.3115 15.6415 17.3295 15.6864 17.3564 15.7259C17.3372 15.7191 17.3163 15.7191 17.2972 15.7259C16.917 15.7126 16.5471 15.5991 16.2248 15.397M17.0833 15.9233C16.8566 15.8932 16.6389 15.8146 16.4452 15.693C16.7216 15.6827 16.9984 15.7014 17.2708 15.7489C17.2708 15.7489 17.2248 15.8081 17.2708 15.9101L17.2412 15.9397L17.0833 15.9233ZM17.182 16.1799C16.9715 16.1768 16.7675 16.1065 16.5998 15.9792C16.6709 15.9502 16.7467 15.9346 16.8235 15.9331C16.8498 15.9331 17.2281 15.9595 17.2281 15.9595C17.2281 15.9595 17.1458 16.0779 17.284 16.1864L17.182 16.1799ZM17.0965 16.4101C17.0173 16.4158 16.9378 16.4043 16.8635 16.3765C16.7891 16.3487 16.7216 16.3052 16.6656 16.2489C16.8622 16.1929 17.0681 16.1772 17.2708 16.2029C17.2478 16.2456 17.1689 16.2785 17.2708 16.4167C17.2708 16.4167 17.1064 16.4167 17.0899 16.4167M16.863 16.5746C16.9207 16.5242 16.9881 16.4859 17.061 16.4622C17.1339 16.4384 17.2109 16.4297 17.2873 16.4364C17.2873 16.4364 17.307 16.4364 17.3169 16.4364C17.3268 16.4364 17.2314 16.4759 17.3169 16.5976C17.1919 16.6338 16.9682 16.6634 16.863 16.5581M17.0406 16.8049C17.0866 16.7522 17.0077 16.7687 17.3301 16.6075C17.3441 16.6168 17.3597 16.6234 17.3761 16.6272C17.3761 16.6272 17.3432 16.6601 17.3991 16.7489C17.2898 16.8087 17.163 16.8285 17.0406 16.8049ZM16.7544 15.0384C16.7544 15.0384 16.7544 14.9595 16.7544 14.9332C17.0623 15.031 17.3616 15.1542 17.6491 15.3016C17.6327 15.4003 17.9781 15.3937 17.784 15.8904C17.784 16.0022 17.0932 16.1568 17.7478 16.5746C17.6294 16.6371 17.4189 16.7292 17.3991 16.7489C17.3498 16.6996 17.3991 16.6174 17.3991 16.6174C17.3991 16.6174 17.1919 16.591 17.3366 16.4463C17.3991 16.466 17.1064 16.318 17.3103 16.193C17.3728 16.2193 17.0899 16.045 17.2939 15.9233C17.3465 15.9233 17.1162 15.7884 17.3794 15.7259C17.2741 15.2621 17.636 15.4956 16.7478 15.0384M16.5768 19.5318L16.3662 19.9693L16.0965 19.841L16.2412 19.5417C16.3505 19.5544 16.4609 19.5544 16.5702 19.5417M16.7774 19.4759L16.7215 19.591L16.5965 19.5351C16.6585 19.5208 16.719 19.501 16.7774 19.4759ZM15.011 19.7687L15.3399 19.1108C15.4834 19.2414 15.6438 19.3521 15.8169 19.4397L15.5406 20.0253L15.011 19.7687ZM14.8958 20.2851L14.238 19.9726C14.3037 19.9529 14.284 19.9726 14.5373 19.8312L15.0241 20.0581L14.8958 20.2851ZM12.0998 20.216C11.9722 20.2627 11.8356 20.2795 11.7005 20.2652C11.5654 20.251 11.4353 20.206 11.3202 20.1338L12.3695 19.6141L12.5472 19.6963C12.4665 19.9184 12.3074 20.1033 12.0998 20.216ZM12.1491 19.4989L11.284 19.9364C11.3133 19.8065 11.3687 19.6838 11.4467 19.5759C11.5247 19.4679 11.6238 19.3768 11.738 19.3081L12.1491 19.4989ZM13.4847 18.0976C13.66 18.0301 13.851 18.0141 14.0351 18.0514C14.2192 18.0887 14.3889 18.1777 14.5241 18.3081L13.0834 19.0417C13.1195 18.6799 13.2149 18.216 13.4847 18.0976ZM13.1557 19.2424L14.6623 18.4956C14.7215 19.1535 14.159 19.9825 13.1557 19.2424ZM7.18862 17.545H7.08006C7.12612 17.716 6.51098 17.9134 6.67546 17.3772C6.59507 17.282 6.54338 17.1659 6.5264 17.0425C6.50942 16.919 6.52785 16.7933 6.57954 16.6799C6.63124 16.5665 6.71407 16.4701 6.8184 16.402C6.92274 16.3339 7.04428 16.2967 7.16888 16.295C7.19191 16.1206 7.69848 16.0549 7.58335 16.4989C7.65151 16.5877 7.69588 16.6925 7.71227 16.8032C7.72865 16.914 7.71651 17.027 7.67698 17.1318C7.63746 17.2365 7.57187 17.3294 7.48641 17.4017C7.40095 17.474 7.29845 17.5234 7.18862 17.545ZM19.1261 16.091C19.0701 16.0087 18.9922 15.9436 18.9013 15.903C18.8103 15.8625 18.7098 15.848 18.6111 15.8613C18.5124 15.8747 18.4194 15.9152 18.3424 15.9784C18.2655 16.0417 18.2077 16.1251 18.1755 16.2193C18.0208 16.341 17.9847 16.443 17.9945 16.522L15.034 18.0318C14.7412 17.7818 15.2215 15.1108 15.9386 16.9726C15.9386 16.92 15.988 16.2687 16.1722 17.0614C16.1928 16.9564 16.2499 16.862 16.3333 16.795C16.3333 15.3904 14.0472 15.7226 14.534 17.7818C13.6294 17.2128 12.6886 17.8739 12.636 18.943C12.3835 18.851 12.1118 18.825 11.8465 18.8674L8.4419 17.2818L8.26756 17.2062L8.5044 16.7128C8.47151 16.7128 8.40572 16.6733 8.25111 16.5976C8.23769 16.5371 8.21094 16.4803 8.17282 16.4313C8.13469 16.3824 8.08615 16.3426 8.03072 16.3147C8.06361 16.216 8.07677 16.272 7.89256 15.9858C7.98796 15.8049 7.73467 15.2588 7.32348 15.7193C7.16559 15.6404 7.32348 15.6832 6.99454 15.8213C6.86296 15.7884 6.5373 15.7687 6.35309 16.2226C6.35309 16.2226 5.84322 16.2226 6.10638 16.7489C5.96822 16.9628 5.88927 17.1108 6.20177 17.4924C6.16888 17.5878 6.15572 17.5384 6.34322 17.8213C6.24783 17.9989 6.49783 18.5417 6.9123 18.0845C7.06691 18.1634 6.9123 18.1206 7.24125 17.9825C7.29801 18.0085 7.35972 18.022 7.42217 18.022C7.48461 18.022 7.54632 18.0085 7.60309 17.9825L7.85309 18.1009L8.07019 17.6437L11.2906 19.1338C11.0816 19.3424 10.9475 19.6141 10.909 19.9068C10.534 19.3279 8.75111 19.772 9.26427 20.7456C9.33335 20.4167 9.8169 19.6009 10.7511 20.2325C7.42546 21.8772 9.74454 21.0318 10.8564 20.3805C10.807 20.6535 10.7807 21.7785 9.56032 21.3246C9.79388 21.9397 11.3334 21.841 11.2051 20.5187C12.1491 20.8706 12.4583 20.6437 12.9222 19.8937L15.9419 21.2917C15.9255 21.2917 16.4682 21.3213 16.136 20.8838C16.136 20.8838 16.0176 20.8246 15.807 20.7292L15.9156 20.5022L16.4222 20.7358L16.9814 19.5516L16.8268 19.4792C17.238 19.3937 17.6031 18.1634 16.932 18.022C16.8287 18.0493 16.719 18.0388 16.6228 17.9924C16.6787 18.147 17.0932 18.5845 16.557 18.2325C17.6722 19.6864 15.2741 18.9331 15.113 18.2818L18.113 16.795C18.1689 16.8509 18.261 16.8706 18.4583 16.8147C18.7051 16.8608 19.2741 16.8147 19.1162 16.1239" fill="#FABC42"/>
  <path d="M 22.562 0.25 C 24.459 0.25 25.996 1.787 25.996 3.684 C 25.996 5.581 24.459 7.119 22.562 7.119 C 20.665 7.119 19.127 5.581 19.127 3.684 C 19.127 1.787 20.665 0.25 22.562 0.25 Z M 21.723 2.447 C 21.612 2.37 21.457 2.38 21.358 2.479 L 21.324 2.519 C 21.247 2.631 21.259 2.785 21.358 2.884 L 22.158 3.684 L 21.358 4.484 L 21.324 4.523 C 21.247 4.634 21.259 4.789 21.358 4.888 L 21.398 4.922 C 21.509 4.999 21.663 4.987 21.762 4.888 L 22.562 4.088 L 23.362 4.888 L 23.402 4.922 C 23.513 4.999 23.667 4.987 23.767 4.888 L 23.799 4.848 C 23.876 4.737 23.866 4.583 23.767 4.484 L 22.967 3.684 L 23.767 2.884 L 23.799 2.844 C 23.876 2.733 23.866 2.579 23.767 2.479 L 23.727 2.447 C 23.615 2.37 23.461 2.38 23.362 2.479 L 22.562 3.279 L 21.762 2.479 L 21.723 2.447 Z" fill="#EB4D3D" style="stroke-width: 1;"/>
</svg>