<svg width="50" height="50" viewBox="0 0 50 50" fill="none" xmlns="http://www.w3.org/2000/svg">
<g clip-path="url(#clip0_19702_147778)">
<path d="M50 19.0762L32.8516 16.5273L25 0.6875L17.1484 16.5273L0 19.0762L12.2851 31.4687L9.26758 49.3106L25 40.6973L40.7324 49.3106L37.7149 31.4687L50 19.0762Z" fill="#FFE274"/>
<path d="M37.7149 31.4687L40.7324 49.3106L25 40.6973V0.6875L32.8516 16.5273L50 19.0762L37.7149 31.4687Z" fill="#FFB62A"/>
<g clip-path="url(#clip1_19702_147778)">
<path d="M39.4716 28.2891C33.6863 28.2891 28.9453 33.03 28.9453 38.8154C28.9453 44.6007 33.6863 49.3417 39.4716 49.3417C45.257 49.3417 49.9979 44.6007 49.9979 38.8154C49.9979 33.03 45.257 28.2891 39.4716 28.2891Z" fill="#FF7B4A"/>
<path d="M49.9951 38.8154C49.9951 44.6007 45.2541 49.3417 39.4688 49.3417V28.2891C45.2541 28.2891 49.9951 33.03 49.9951 38.8154Z" fill="#FF435B"/>
<path d="M41.2097 38.8141L44.2689 41.861L42.5172 43.6127L39.4704 40.5534L36.4236 43.6127L34.6719 41.861L37.7311 38.8141L34.6719 35.7672L36.4236 34.0156L39.4704 37.0748L42.5172 34.0156L44.2689 35.7672L41.2097 38.8141Z" fill="#F2F2F2"/>
<path d="M41.208 38.8141L44.2673 41.861L42.5156 43.6127L39.4688 40.5534V37.0748L42.5156 34.0156L44.2673 35.7672L41.208 38.8141Z" fill="#E7E7F2"/>
</g>
</g>
<defs>
<clipPath id="clip0_19702_147778">
<rect width="50" height="50" fill="white"/>
</clipPath>
<clipPath id="clip1_19702_147778">
<rect width="21.0526" height="21.0526" fill="white" transform="translate(28.9453 28.2891)"/>
</clipPath>
</defs>
</svg>
