<svg width="161" height="141" viewBox="0 0 161 141" fill="none" xmlns="http://www.w3.org/2000/svg">
<path d="M19.0044 74.7503L19.6752 78.8139L23.7407 79.4835L19.6755 80.1526L19.007 84.216L18.3363 80.1525L14.2708 79.4829L18.3359 78.8138L19.0044 74.7503Z" fill="#F2EFEA" fill-opacity="0.7"/>
<path d="M10.0203 13.9922L11.1325 20.7277L17.8714 21.8372L11.1333 22.9466L10.0257 29.6821L8.91341 22.9466L2.17457 21.8372L8.91265 20.7277L10.0203 13.9922Z" fill="#F2EFEA" fill-opacity="0.7"/>
<path d="M130.316 47.4537L131.46 54.3827L138.392 55.5245L131.46 56.6653L130.32 63.5941L129.177 56.6651L122.244 55.5233L129.176 54.3825L130.316 47.4537Z" fill="#F2EFEA" fill-opacity="0.7"/>
<path d="M141.97 11.1142C142.093 10.3685 143.166 10.3686 143.289 11.1143L143.67 13.4211L145.977 13.8012C146.723 13.9241 146.724 14.9964 145.978 15.1191L143.67 15.4989L143.291 17.8057C143.168 18.5514 142.095 18.5513 141.972 17.8056L141.591 15.4988L139.283 15.1187C138.537 14.9958 138.537 13.9235 139.283 13.8007L141.591 13.4209L141.97 11.1142Z" fill="#F2EFEA" fill-opacity="0.7"/>
<path d="M107.594 10.6643L107.773 11.7495C107.933 12.7202 108.695 13.481 109.666 13.6409L110.752 13.8197L109.666 13.9984C108.695 14.1582 107.934 14.9189 107.774 15.8895L107.596 16.9748L107.417 15.8895C107.256 14.9189 106.495 14.1581 105.524 13.9981L104.438 13.8193L105.524 13.6406C106.495 13.4808 107.256 12.7201 107.416 11.7495L107.594 10.6643Z" fill="#F2EFEA" fill-opacity="0.7"/>
<path d="M114.41 136.266L114.545 137.08C114.665 137.808 115.236 138.378 115.964 138.498L116.779 138.632L115.964 138.766C115.236 138.886 114.665 139.457 114.546 140.185L114.412 140.999L114.277 140.185C114.157 139.457 113.586 138.886 112.858 138.766L112.044 138.632L112.858 138.498C113.586 138.378 114.157 137.808 114.277 137.08L114.41 136.266Z" fill="#F2EFEA" fill-opacity="0.7"/>
<path d="M131.063 111.047L131.242 112.132C131.402 113.103 132.163 113.864 133.135 114.024L134.22 114.203L133.135 114.381C132.164 114.541 131.403 115.302 131.243 116.272L131.065 117.358L130.885 116.272C130.725 115.302 129.964 114.541 128.993 114.381L127.907 114.202L128.993 114.023C129.964 113.864 130.725 113.103 130.884 112.132L131.063 111.047Z" fill="#F2EFEA" fill-opacity="0.7"/>
<path d="M40.3596 93.7267L40.494 94.5407C40.6141 95.2686 41.1851 95.8392 41.9134 95.9592L42.7277 96.0933L41.9135 96.2273C41.1853 96.3472 40.6146 96.9177 40.4948 97.6457L40.3609 98.4596L40.2266 97.6456C40.1064 96.9177 39.5355 96.3471 38.8071 96.2271L37.9928 96.093L38.8071 95.959C39.5353 95.8391 40.106 95.2686 40.2257 94.5406L40.3596 93.7267Z" fill="#F2EFEA" fill-opacity="0.7"/>
<path d="M2.39089 122.203L2.52524 123.017C2.6454 123.745 3.21637 124.316 3.94469 124.436L4.759 124.57L3.94476 124.704C3.21651 124.824 2.64585 125.394 2.52609 126.122L2.39219 126.936L2.25784 126.122C2.13768 125.394 1.56671 124.824 0.838395 124.704L0.0240847 124.57L0.838322 124.436C1.56658 124.316 2.13723 123.745 2.25699 123.017L2.39089 122.203Z" fill="#F2EFEA" fill-opacity="0.7"/>
<path d="M154.546 93.1784C154.639 92.6179 155.445 92.6179 155.537 93.1784L155.824 94.9123L157.558 95.198C158.119 95.2903 158.119 96.0963 157.559 96.1886L155.824 96.474L155.539 98.2078C155.447 98.7683 154.64 98.7683 154.548 98.2077L154.262 96.4739L152.527 96.1882C151.966 96.0958 151.966 95.2899 152.527 95.1976L154.261 94.9122L154.546 93.1784Z" fill="#F2EFEA" fill-opacity="0.7"/>
<path d="M54.1665 2.57923C54.2455 2.09879 54.9366 2.09884 55.0159 2.57929L55.2612 4.06543L56.7481 4.31032C57.2287 4.38949 57.2289 5.08029 56.7483 5.15939L55.2616 5.40408L55.0171 6.89018C54.9381 7.37062 54.2469 7.37057 54.1676 6.89012L53.9223 5.40398L52.4355 5.15909C51.9548 5.07992 51.9547 4.38912 52.4353 4.31002L53.922 4.06533L54.1665 2.57923Z" fill="#F2EFEA" fill-opacity="0.7"/>
</svg>
