<svg width="42" height="42" viewBox="0 0 44 43" fill="none" xmlns="http://www.w3.org/2000/svg">
<g clip-path="url(#clip0_15151_113040)">
<path d="M21.5 42C33.098 42 42.5 32.598 42.5 21C42.5 9.40202 33.098 0 21.5 0C9.90202 0 0.5 9.40202 0.5 21C0.5 32.598 9.90202 42 21.5 42Z" fill="url(#paint0_linear_15151_113040)"/>
<path fill-rule="evenodd" clip-rule="evenodd" d="M11.6767 20.1352C17.0454 17.7962 20.6253 16.2541 22.4166 15.5091C27.5309 13.3819 28.5937 13.0123 29.2863 13.0001C29.4387 12.9974 29.7793 13.0352 30 13.2142C30.1863 13.3654 30.2375 13.5696 30.2621 13.713C30.2866 13.8563 30.3171 14.1828 30.2929 14.438C30.0157 17.35 28.8165 24.4167 28.2064 27.6783C27.9482 29.0583 27.4399 29.5211 26.9478 29.5663C25.8784 29.6648 25.0663 28.8596 24.0304 28.1806C22.4096 27.1181 21.4939 26.4567 19.9205 25.4199C18.1023 24.2217 19.281 23.5631 20.3172 22.4869C20.5884 22.2052 25.3005 17.9192 25.3917 17.5304C25.4031 17.4818 25.4137 17.3005 25.306 17.2048C25.1983 17.1091 25.0394 17.1418 24.9247 17.1678C24.7621 17.2047 22.1728 18.9162 17.1566 22.3022C16.4216 22.8069 15.7559 23.0528 15.1595 23.0399C14.5019 23.0257 13.237 22.6682 12.2967 22.3625C11.1434 21.9876 10.2268 21.7894 10.3066 21.1527C10.3482 20.8211 10.8049 20.4819 11.6767 20.1352Z" fill="white"/>
</g>
<defs>
<linearGradient id="paint0_linear_15151_113040" x1="21.5" y1="0" x2="21.5" y2="41.6885" gradientUnits="userSpaceOnUse">
<stop stop-color="#2AABEE"/>
<stop offset="1" stop-color="#229ED9"/>
</linearGradient>
<clipPath id="clip0_15151_113040">
<rect width="42" height="42" fill="white" transform="translate(0.5)"/>
</clipPath>
</defs>
</svg>
