<svg width="20" height="20" viewBox="0 0 20 20" fill="none" xmlns="http://www.w3.org/2000/svg">
<path fill-rule="evenodd" clip-rule="evenodd" d="M2.10783 8.94377C7.02091 6.80322 10.2971 5.39204 11.9363 4.71023C16.6167 2.76351 17.5892 2.42535 18.2231 2.41418C18.3625 2.41173 18.6742 2.44628 18.8761 2.61012C19.0466 2.74847 19.0936 2.93536 19.116 3.06653C19.1384 3.1977 19.1664 3.49651 19.1442 3.72999C18.8906 6.3949 17.7931 12.8619 17.2348 15.8467C16.9985 17.1096 16.5334 17.5331 16.083 17.5745C15.1043 17.6646 14.3611 16.9277 13.4132 16.3063C11.9299 15.334 11.0919 14.7287 9.6521 13.7799C7.98815 12.6834 9.06682 12.0807 10.0151 11.0958C10.2633 10.8381 14.5755 6.9158 14.6589 6.55999C14.6694 6.51549 14.6791 6.34961 14.5805 6.26202C14.482 6.17443 14.3365 6.20439 14.2316 6.22821C14.0828 6.26197 11.7132 7.82819 7.12274 10.9269C6.45013 11.3887 5.84091 11.6138 5.29506 11.602C4.69331 11.589 3.53578 11.2617 2.67528 10.982C1.61984 10.6389 0.780999 10.4576 0.854043 9.87489C0.892089 9.57141 1.31002 9.26104 2.10783 8.94377Z" fill="white"/>
</svg>
