<svg width="20" height="20" viewBox="0 0 20 20" fill="none" xmlns="http://www.w3.org/2000/svg">
<path d="M2.28056 9.9899L5.95904 11.2675L7.39301 15.5648C7.45536 15.8551 7.82944 15.9132 8.07883 15.739L10.1363 14.1711C10.3233 13.9968 10.635 13.9968 10.8844 14.1711L14.5629 16.6681C14.8123 16.8424 15.1864 16.7262 15.2487 16.4359L17.992 4.24079C18.0543 3.95043 17.7426 3.66008 17.4309 3.77622L2.28056 9.23497C1.90648 9.35111 1.90648 9.87375 2.28056 9.9899ZM7.20598 10.6287L14.4382 6.50559C14.5629 6.44752 14.6876 6.62174 14.5629 6.67981L8.63995 11.8482C8.45291 12.0224 8.26586 12.2547 8.26586 12.5451L8.07883 13.9388C8.07883 14.113 7.76709 14.1711 7.70474 13.9388L6.95657 11.3836C6.76953 11.0933 6.89424 10.7448 7.20598 10.6287Z" fill="#1735F5"/>
</svg>
