<svg width="102" height="102" viewBox="0 0 102 102" fill="none" xmlns="http://www.w3.org/2000/svg">
<g clip-path="url(#clip0_19702_147746)">
<path d="M12.9609 17.1938L17.186 12.9688L29.8609 25.6436L25.6358 29.8687L12.9609 17.1938Z" fill="#F0F7FF"/>
<path d="M72.1172 76.3518L76.342 72.1268L89.0169 84.8017L84.7919 89.0267L72.1172 76.3518ZM72.1234 25.6436L84.7983 12.9688L89.0233 17.1938L76.3484 29.8687L72.1234 25.6436Z" fill="#DFE7F4"/>
<path d="M12.9609 84.7999L25.6358 72.125L29.8609 76.35L17.186 89.0249L12.9609 84.7999Z" fill="#F0F7FF"/>
<path d="M65.8892 47.0914L55.6054 45.5973L51.0032 36.2734L46.4011 45.5973L36.1172 47.0914L43.5588 54.3492L41.8019 64.595L51.0032 59.7565L60.2045 64.595L58.4476 54.3492L65.8892 47.0914Z" fill="#FED843"/>
<path d="M58.4444 54.3492L65.886 47.0914L55.6022 45.5973L51 36.2734V59.7565L60.2013 64.595L58.4444 54.3492Z" fill="#FABE2C"/>
<path d="M51.0039 0H48.0156V18.1289H53.9922V0H51.0039Z" fill="#F0F7FF"/>
<path d="M51 0H53.9883V18.1289H51V0Z" fill="#DFE7F4"/>
<path d="M51.0039 83.875H48.0156V102.004H53.9922V83.875H51.0039Z" fill="#F0F7FF"/>
<path d="M51 83.875H53.9883V102.004H51V83.875Z" fill="#DFE7F4"/>
<path d="M30.0266 47.0914L19.7428 45.5973L15.1406 36.2734L10.5385 45.5973L0 47.0914L7.69622 54.3492L5.93931 64.595L15.1406 59.7565L24.3419 64.595L22.585 54.3492L30.0266 47.0914Z" fill="#FED843"/>
<path d="M22.585 54.3492L30.0266 47.0914L19.7428 45.5973L15.1406 36.2734V59.7565L24.3419 64.595L22.585 54.3492Z" fill="#FABE2C"/>
<path d="M102.003 47.0914L91.4647 45.5973L86.8626 36.2734L82.2604 45.5973L71.9766 47.0914L79.4182 54.3492L77.6613 64.595L86.8626 59.7565L96.0639 64.595L94.307 54.3492L102.003 47.0914Z" fill="#FED843"/>
<path d="M94.3038 54.3492L102 47.0914L91.4615 45.5973L86.8594 36.2734V59.7565L96.0607 64.595L94.3038 54.3492Z" fill="#FABE2C"/>
</g>
<defs>
<clipPath id="clip0_19702_147746">
<rect width="102" height="102" fill="white"/>
</clipPath>
</defs>
</svg>
