<svg width="376" height="299" viewBox="0 0 376 299" fill="none" xmlns="http://www.w3.org/2000/svg">
<g clip-path="url(#clip0_15798_77364)">
<path d="M553.456 -177.049C521.187 -207.06 479.279 -222.066 427.741 -222.066C376.203 -222.066 335.447 -207.06 302.716 -177.049C272.351 -149.211 256.074 -113.666 253.878 -70.4085H253.864V-70.145C253.7 -66.8548 253.608 -63.5289 253.608 -60.1532V143.806C252.379 159.068 246.543 171.531 236.095 181.174C224.26 192.113 209.284 197.575 191.167 197.575C172.125 197.575 156.921 192.113 145.549 181.174C135.541 171.567 129.948 159.161 128.739 143.97V-60.1603C128.739 -63.5645 128.647 -66.9117 128.483 -70.2233V-70.4156H128.476C126.308 -113.673 110.273 -149.218 80.3354 -177.057C48.0662 -207.068 6.15894 -222.073 -45.3794 -222.073C-96.9177 -222.073 -137.674 -207.068 -170.405 -177.057C-200.769 -149.218 -217.046 -113.673 -219.242 -70.4156H-219.256V-70.1521C-219.42 -66.8619 -219.512 -63.536 -219.512 -60.1603V143.799C-220.742 159.061 -226.577 171.524 -237.026 181.167C-248.86 192.106 -263.836 197.568 -281.954 197.568C-300.995 197.568 -316.199 192.106 -327.571 181.167C-337.579 171.56 -343.173 159.154 -344.381 143.963V-60.1674C-344.381 -63.5716 -344.474 -66.9189 -344.637 -70.2305V-70.4228H-344.644C-346.812 -113.68 -362.847 -149.225 -392.785 -177.064C-425.054 -207.075 -466.961 -222.08 -518.5 -222.08C-570.038 -222.08 -610.794 -207.075 -643.525 -177.064C-673.889 -149.225 -690.166 -113.68 -692.362 -70.4228H-692.377V-70.1593C-692.54 -66.869 -692.632 -63.5432 -692.632 -60.1674V143.792C-693.862 159.054 -699.698 171.517 -710.146 181.16C-721.98 192.099 -736.956 197.561 -755.074 197.561C-774.116 197.561 -789.319 192.099 -800.692 181.16C-810.699 171.553 -816.293 159.146 -817.501 143.956V-60.1746C-817.501 -63.5788 -817.594 -66.926 -817.757 -70.2376V-70.4299H-817.764C-819.932 -113.687 -835.967 -149.232 -865.905 -177.071C-898.174 -207.082 -940.082 -222.087 -991.62 -222.087C-1043.16 -222.087 -1083.91 -207.082 -1116.65 -177.071C-1147.01 -149.232 -1163.29 -113.687 -1165.48 -70.4299H-1165.5V-70.1664C-1165.66 -66.8762 -1165.75 -63.5503 -1165.75 -60.1746V143.785C-1166.98 159.047 -1172.82 171.51 -1183.27 181.153C-1195.1 192.092 -1210.08 197.554 -1228.19 197.554C-1247.24 197.554 -1262.44 192.092 -1273.81 181.153C-1283.82 171.546 -1289.41 159.139 -1290.62 143.949V-60.1817C-1290.62 -63.5859 -1290.71 -66.9331 -1290.88 -70.2447V-70.437H-1290.88C-1293.05 -113.694 -1309.09 -149.239 -1339.03 -177.078C-1371.29 -207.089 -1413.2 -222.094 -1464.74 -222.094C-1516.28 -222.094 -1557.03 -207.089 -1589.77 -177.078C-1620.13 -149.239 -1636.41 -113.694 -1638.6 -70.437H-1638.62V-70.1735C-1638.78 -66.8832 -1638.87 -63.5574 -1638.87 -60.1817V143.778C-1640.1 159.04 -1645.94 171.503 -1656.39 181.146C-1668.22 192.085 -1683.2 197.547 -1701.31 197.547C-1720.36 197.547 -1735.56 192.085 -1746.93 181.146C-1756.94 171.538 -1762.53 159.132 -1763.74 143.942V-60.1888C-1763.74 -63.593 -1763.83 -66.9402 -1764 -70.2519V-70.4441H-1764.01C-1766.17 -113.702 -1782.21 -149.246 -1812.15 -177.085C-1844.42 -207.096 -1886.32 -222.102 -1937.86 -222.102C-1989.4 -222.102 -2030.15 -207.096 -2062.89 -177.085C-2093.25 -149.246 -2109.53 -113.702 -2111.72 -70.4441H-2111.74V-70.1806C-2111.9 -66.8904 -2111.99 -63.5645 -2111.99 -60.1888V143.771C-2113.22 159.033 -2119.06 171.496 -2129.51 181.138C-2141.34 192.077 -2156.32 197.54 -2174.44 197.54C-2193.48 197.54 -2208.68 192.077 -2220.05 181.138C-2231.44 170.214 -2237.12 155.664 -2237.12 137.518V-70.4512H-2348.58V137.518C-2348.58 185.447 -2332.45 224.403 -2300.17 254.414C-2267.9 284.425 -2225.99 299.431 -2174.46 299.431C-2122.92 299.431 -2082.16 284.425 -2049.43 254.414C-2019.07 226.575 -2002.79 191.031 -2000.59 147.773H-2000.58V147.51C-2000.42 144.219 -2000.32 140.894 -2000.32 137.518V-66.4417C-1999.09 -81.7036 -1993.26 -94.1667 -1982.81 -103.809C-1970.98 -114.748 -1956 -120.211 -1937.88 -120.211C-1918.84 -120.211 -1903.64 -114.748 -1892.26 -103.809C-1882.26 -94.2023 -1876.66 -81.7962 -1875.45 -66.6055V137.525C-1875.45 140.929 -1875.36 144.276 -1875.2 147.588V147.78H-1875.19C-1873.02 191.038 -1856.99 226.582 -1827.05 254.421C-1794.78 284.432 -1752.87 299.438 -1701.34 299.438C-1649.8 299.438 -1609.04 284.432 -1576.31 254.421C-1545.95 226.582 -1529.67 191.038 -1527.47 147.78H-1527.46V147.517C-1527.3 144.226 -1527.2 140.901 -1527.2 137.525V-66.4346C-1525.97 -81.6965 -1520.14 -94.1595 -1509.69 -103.802C-1497.86 -114.741 -1482.88 -120.204 -1464.76 -120.204C-1445.72 -120.204 -1430.52 -114.741 -1419.14 -103.802C-1409.14 -94.1951 -1403.54 -81.7891 -1402.33 -66.5984V137.532C-1402.33 140.936 -1402.24 144.283 -1402.08 147.595V147.787H-1402.07C-1399.9 191.045 -1383.87 226.589 -1353.93 254.428C-1321.66 284.439 -1279.75 299.445 -1228.22 299.445C-1176.68 299.445 -1135.92 284.439 -1103.19 254.428C-1072.83 226.589 -1056.55 191.045 -1054.35 147.787H-1054.34V147.524C-1054.18 144.234 -1054.08 140.908 -1054.08 137.532V-66.4275C-1052.85 -81.6894 -1047.02 -94.1524 -1036.57 -103.795C-1024.73 -114.734 -1009.76 -120.197 -991.641 -120.197C-972.6 -120.197 -957.396 -114.734 -946.024 -103.795C-936.016 -94.188 -930.422 -81.7819 -929.214 -66.5913V137.539C-929.214 140.943 -929.122 144.291 -928.958 147.602V147.794H-928.951C-926.783 191.052 -910.748 226.596 -880.81 254.435C-848.541 284.446 -806.634 299.452 -755.095 299.452C-703.557 299.452 -662.801 284.446 -630.07 254.435C-599.706 226.596 -583.429 191.052 -581.233 147.794H-581.219V147.531C-581.055 144.241 -580.963 140.915 -580.963 137.539V-66.4204C-579.733 -81.6823 -573.897 -94.1453 -563.449 -103.788C-551.615 -114.727 -536.639 -120.189 -518.521 -120.189C-499.479 -120.189 -484.276 -114.727 -472.904 -103.788C-462.896 -94.1809 -457.302 -81.7748 -456.094 -66.5841V137.546C-456.094 140.95 -456.001 144.298 -455.838 147.609V147.802H-455.831C-453.663 191.059 -437.628 226.604 -407.69 254.442C-375.421 284.453 -333.513 299.459 -281.975 299.459C-230.437 299.459 -189.681 284.453 -156.95 254.442C-126.585 226.604 -110.309 191.059 -108.113 147.802H-108.098V147.538C-107.935 144.248 -107.842 140.922 -107.842 137.546V-66.4132C-106.613 -81.6751 -100.777 -94.1381 -90.3289 -103.781C-78.4944 -114.72 -63.5183 -120.182 -45.4009 -120.182C-26.3591 -120.182 -11.1555 -114.72 0.216797 -103.781C10.2246 -94.1737 15.8184 -81.7677 17.0266 -66.577V137.553C17.0266 140.958 17.1191 144.305 17.2827 147.616V147.809H17.2898C19.4575 191.066 35.4927 226.611 65.4304 254.45C97.6997 284.461 139.607 299.466 191.145 299.466C242.684 299.466 283.439 284.461 316.171 254.45C346.535 226.611 362.812 191.066 365.008 147.809H365.022V147.545C365.186 144.255 365.278 140.929 365.278 137.553V-66.4061C366.508 -81.668 372.343 -94.1311 382.792 -103.774C394.626 -114.713 409.602 -120.175 427.72 -120.175C446.761 -120.175 461.965 -114.713 473.337 -103.774C484.724 -92.8491 490.403 -78.2994 490.403 -60.1532V147.816H601.845V-60.1532C601.845 -108.083 585.718 -147.038 553.434 -177.049H553.456Z" fill="white" fill-opacity="0.12"/>
</g>
<defs>
<clipPath id="clip0_15798_77364">
<rect width="376" height="366" fill="white" transform="translate(0 -67)"/>
</clipPath>
</defs>
</svg>
