<svg width="50" height="52" viewBox="0 0 50 52" fill="none" xmlns="http://www.w3.org/2000/svg">
<path d="M36.5306 11.9694L26.0306 1.46938C25.9609 1.39975 25.8782 1.34454 25.7871 1.3069C25.6961 1.26926 25.5985 1.24992 25.5 1.25H7.5C6.90326 1.25 6.33097 1.48705 5.90901 1.90901C5.48705 2.33097 5.25 2.90326 5.25 3.5V36.5C5.25 37.0967 5.48705 37.669 5.90901 38.091C6.33097 38.5129 6.90326 38.75 7.5 38.75H34.5C35.0967 38.75 35.669 38.5129 36.091 38.091C36.5129 37.669 36.75 37.0967 36.75 36.5V12.5C36.7501 12.4015 36.7307 12.3039 36.6931 12.2129C36.6555 12.1218 36.6003 12.0391 36.5306 11.9694ZM26.25 3.80938L34.1887 11.75H26.25V3.80938ZM34.5 37.25H7.5C7.30109 37.25 7.11032 37.171 6.96967 37.0303C6.82902 36.8897 6.75 36.6989 6.75 36.5V3.5C6.75 3.30109 6.82902 3.11032 6.96967 2.96967C7.11032 2.82902 7.30109 2.75 7.5 2.75H24.75V12.5C24.75 12.6989 24.829 12.8897 24.9697 13.0303C25.1103 13.171 25.3011 13.25 25.5 13.25H35.25V36.5C35.25 36.6989 35.171 36.8897 35.0303 37.0303C34.8897 37.171 34.6989 37.25 34.5 37.25Z" fill="#666666"/>
<rect x="18" y="20" width="32" height="32" rx="16" fill="#666666"/>
<path d="M38.9028 31.0775C38.0312 28.7643 36.1575 27.2993 33.3272 27.2993C29.7259 27.2993 27.2062 29.9734 26.9897 33.4621C25.2534 34.0174 24 35.7887 24 37.7949C24 40.2509 25.9306 42.3256 28.2153 42.3256H30.0209C30.3659 42.3256 30.6459 42.0456 30.6459 41.7006C30.6459 41.3553 30.3659 41.0756 30.0209 41.0756H28.2153C26.6078 41.0756 25.2303 39.5734 25.2303 37.7949C25.2303 36.2234 26.3322 34.8056 27.7144 34.5681L28.2815 34.4703L28.2312 33.8974L28.2265 33.8903C28.2265 30.8459 30.23 28.5496 33.3272 28.5496C35.8097 28.5496 37.2044 29.7728 37.8494 31.859L37.9831 32.2893L38.4334 32.299C40.7553 32.3478 42.7909 34.2315 42.7909 36.5719C42.7909 38.7018 41.3793 41.0756 39.2422 41.0756H37.814C37.469 41.0756 37.189 41.3556 37.189 41.7006C37.189 42.0459 37.469 42.3256 37.814 42.3256L39.2375 42.3237C42.3625 42.2412 43.9903 39.2559 43.9903 36.5719C43.9903 33.6869 41.7294 31.3816 38.9028 31.0775L38.9028 31.0775ZM34.4684 36.0574C34.465 36.0537 34.4637 36.0505 34.4615 36.0474L34.3034 35.8821C34.2168 35.7905 34.1015 35.7452 33.9862 35.7458C33.8709 35.7449 33.7562 35.7905 33.6681 35.8821L33.51 36.0474C33.5068 36.0505 33.5062 36.0543 33.5034 36.0574L31.2475 38.5524C31.0728 38.7349 31.0728 39.0302 31.2475 39.2133L31.405 39.3202C31.5797 39.5027 31.8628 39.4436 32.0371 39.2611L33.3675 37.778V44.0755C33.3675 44.4205 33.6475 44.7005 33.9925 44.7005C34.3375 44.7005 34.6175 44.4205 34.6175 44.0755V37.7839L35.9919 39.3002C36.1665 39.4827 36.449 39.5418 36.6234 39.3593L36.7809 39.2524C36.9556 39.0693 36.9556 38.7739 36.7809 38.5914L34.4684 36.0574Z" fill="white"/>
</svg>
