<svg width="32" height="32" viewBox="0 0 32 32" fill="none" xmlns="http://www.w3.org/2000/svg">
<rect width="32" height="32" rx="4" fill="#EB4D3D"/>
<path d="M16.9973 21.0019C16.9973 20.4504 16.5502 20.0033 15.9987 20.0033C15.4471 20.0033 15 20.4504 15 21.0019C15 21.5535 15.4471 22.0006 15.9987 22.0006C16.5502 22.0006 16.9973 21.5535 16.9973 21.0019ZM16.7381 13.1487C16.6882 12.7826 16.3742 12.5007 15.9945 12.501C15.5802 12.5013 15.2447 12.8374 15.2451 13.2516L15.2487 17.7532L15.2556 17.855C15.3055 18.221 15.6196 18.5029 15.9993 18.5026C16.4135 18.5023 16.749 18.1662 16.7487 17.752L16.7451 13.2504L16.7381 13.1487ZM17.9673 7.66083C17.1111 6.11304 14.8859 6.11306 14.0297 7.66088L6.28438 21.6624C5.45483 23.162 6.53945 25.0015 8.25323 25.0015H23.7443C25.4581 25.0015 26.5427 23.1619 25.7131 21.6623L17.9673 7.66083ZM15.3422 8.38696C15.6276 7.87102 16.3694 7.87101 16.6548 8.38695L24.4005 22.3884C24.6771 22.8883 24.3155 23.5015 23.7443 23.5015H8.25323C7.68196 23.5015 7.32043 22.8883 7.59694 22.3884L15.3422 8.38696Z" fill="white"/>
</svg>
