<svg width="74" height="24" viewBox="0 0 74 24" fill="none" xmlns="http://www.w3.org/2000/svg">
<path d="M32.0668 23.6535H26.0723L29.8217 0.420898H35.8159L32.0668 23.6535Z" fill="#00579F"/>
<path d="M53.7964 0.9891C52.614 0.519 50.7386 0 48.4198 0C42.5 0 38.3313 3.1634 38.3057 7.6862C38.2566 11.0231 41.2904 12.8764 43.5594 13.9891C45.8786 15.126 46.667 15.8681 46.667 16.8815C46.6434 18.4379 44.793 19.1553 43.0671 19.1553C40.6738 19.1553 39.3914 18.7854 37.4426 17.9195L36.6533 17.5483L35.8145 22.7635C37.2204 23.4054 39.8107 23.975 42.5 24C48.7898 24 52.8848 20.8855 52.9333 16.0658C52.9572 13.4211 51.3552 11.3946 47.9015 9.7386C45.8049 8.6756 44.5209 7.9588 44.5209 6.8712C44.5455 5.8824 45.6069 4.8696 47.9736 4.8696C49.9224 4.82 51.3542 5.2895 52.4389 5.7592L52.9811 6.0059L53.7964 0.9891Z" fill="#00579F"/>
<path d="M61.7647 15.424C62.2584 14.0893 64.158 8.92368 64.158 8.92368C64.1331 8.97328 64.6507 7.56437 64.9467 6.69947L65.3656 8.70127C65.3656 8.70127 66.5008 14.2624 66.7473 15.424C65.8105 15.424 62.9488 15.424 61.7647 15.424ZM69.1642 0.421875H64.5275C63.0976 0.421875 62.0112 0.841675 61.3943 2.34947L52.4902 23.6542H58.7801C58.7801 23.6542 59.8156 20.7867 60.0382 20.1692C60.7282 20.1692 66.847 20.1692 67.7347 20.1692C67.9068 20.9848 68.4499 23.6542 68.4499 23.6542H74.0003L69.1642 0.421875Z" fill="#00579F"/>
<path d="M21.0656 0.421875L15.195 16.2643L14.5534 13.0513C13.4681 9.34388 10.0642 5.31577 6.26562 3.31297L11.6429 23.6299H17.9819L27.4043 0.421875H21.0656Z" fill="#00579F"/>
<path d="M9.7433 0.420898H0.0986996L0 0.890298C7.5234 2.8183 12.506 7.4655 14.5531 13.0513L12.4565 2.3738C12.1113 0.889998 11.0505 0.469798 9.7433 0.420898Z" fill="#FAA61A"/>
</svg>
