<svg width="32" height="32" viewBox="0 0 32 32" fill="none" xmlns="http://www.w3.org/2000/svg">
<rect width="32" height="32" rx="4" fill="#F06FAD"/>
<path d="M7.5 16C7.5 11.3056 11.3056 7.5 16 7.5C20.6944 7.5 24.5 11.3056 24.5 16C24.5 20.6944 20.6944 24.5 16 24.5C11.3056 24.5 7.5 20.6944 7.5 16ZM16 6C10.4772 6 6 10.4772 6 16C6 21.5228 10.4772 26 16 26C21.5228 26 26 21.5228 26 16C26 10.4772 21.5228 6 16 6ZM15.9931 10.6483C15.9435 10.2823 15.6295 10 15.25 10C14.836 10 14.5 10.336 14.5 10.75V16.75L14.5069 16.8517C14.5565 17.2177 14.8705 17.5 15.25 17.5H19.25L19.3517 17.4931C19.7177 17.4435 20 17.1295 20 16.75C20 16.336 19.664 16 19.25 16H16V10.75L15.9931 10.6483Z" fill="white"/>
</svg>
