<svg width="25" height="24" viewBox="0 0 25 24" fill="none" xmlns="http://www.w3.org/2000/svg">
<path d="M14.8557 2.59534C14.9445 2.48261 15.1098 2.46762 15.2175 2.56254L16.1385 3.37473L13.2383 7H15.1592L17.2648 4.36797L18.917 5.82489C19.0186 5.9145 19.0304 6.06873 18.9435 6.1727L18.2523 7H20.1965C20.6905 6.27893 20.5778 5.28948 19.9091 4.69984L16.2096 1.43749C15.4561 0.77305 14.2991 0.877958 13.6775 1.66709L9.4762 7H11.3858L14.8557 2.59534ZM16.75 14C16.3358 14 16 14.3358 16 14.75C16 15.1642 16.3358 15.5 16.75 15.5H18.75C19.1642 15.5 19.5 15.1642 19.5 14.75C19.5 14.3358 19.1642 14 18.75 14H16.75ZM5 7.25C5 6.83579 5.33579 6.5 5.75 6.5H8.87844L10.07 5H5.75C4.50736 5 3.5 6.00736 3.5 7.25V17.75C3.5 19.5449 4.95507 21 6.75 21H18.75C20.5449 21 22 19.5449 22 17.75V11.25C22 9.45507 20.5449 8 18.75 8L5.75 8C5.33579 8 5 7.66421 5 7.25ZM5 17.75V9.37197C5.23458 9.45488 5.48702 9.5 5.75 9.5H18.75C19.7165 9.5 20.5 10.2835 20.5 11.25V17.75C20.5 18.7165 19.7165 19.5 18.75 19.5H6.75C5.7835 19.5 5 18.7165 5 17.75Z" fill="white"/>
</svg>
