<svg width="406" height="330" viewBox="0 0 406 330" fill="none" xmlns="http://www.w3.org/2000/svg" xmlns:xlink="http://www.w3.org/1999/xlink">
<g clip-path="url(#clip0_14664_105852)">
<rect width="406" height="330" rx="16" fill="#1735F5"/>
<path d="M988.47 -170.712C957.455 -199.536 917.168 -213.951 867.628 -213.951C818.088 -213.951 778.914 -199.536 747.451 -170.712C718.264 -143.975 702.616 -109.828 700.507 -68.2814H700.492V-68.0298C700.335 -64.8727 700.251 -61.676 700.251 -58.4301V137.483C699.069 152.144 693.462 164.117 683.421 173.376C672.044 183.879 657.648 189.127 640.237 189.127C621.933 189.127 607.315 183.879 596.387 173.376C586.765 164.151 581.39 152.233 580.227 137.641V-58.435C580.227 -61.7007 580.138 -64.9219 579.985 -68.1038V-68.2913H579.975C577.896 -109.838 562.48 -143.985 533.697 -170.722C502.682 -199.546 462.395 -213.961 412.855 -213.961C363.315 -213.961 324.141 -199.546 292.678 -170.722C263.491 -143.985 247.843 -109.838 245.734 -68.2913H245.72V-68.0397C245.562 -64.8825 245.478 -61.6859 245.478 -58.4399V137.473C244.296 152.134 238.689 164.107 228.648 173.366C217.272 183.869 202.875 189.118 185.464 189.118C167.16 189.118 152.542 183.869 141.614 173.366C131.992 164.141 126.617 152.223 125.454 137.631V-58.4449C125.454 -61.7106 125.365 -64.9318 125.212 -68.1137V-68.3012H125.203C123.123 -109.848 107.707 -143.994 78.9243 -170.732C47.9094 -199.556 7.62207 -213.97 -41.9178 -213.97C-91.4579 -213.97 -130.632 -199.556 -162.095 -170.732C-191.282 -143.994 -206.93 -109.848 -209.039 -68.3012H-209.053V-68.0496C-209.211 -64.8924 -209.295 -61.6957 -209.295 -58.4497V137.463C-210.477 152.124 -216.084 164.097 -226.125 173.356C-237.501 183.859 -251.898 189.108 -269.309 189.108C-287.613 189.108 -302.231 183.859 -313.159 173.356C-322.781 164.131 -328.156 152.213 -329.319 137.621V-58.4546C-329.319 -61.7203 -329.408 -64.9417 -329.561 -68.1235V-68.3111H-329.57C-331.649 -109.858 -347.066 -144.004 -375.849 -170.742C-406.864 -199.566 -447.151 -213.98 -496.691 -213.98C-546.231 -213.98 -585.405 -199.566 -616.868 -170.742C-646.055 -144.004 -661.703 -109.858 -663.812 -68.3111H-663.826V-68.0595C-663.984 -64.9023 -664.068 -61.7055 -664.068 -58.4596V137.453C-665.25 152.115 -670.857 164.087 -680.898 173.346C-692.274 183.849 -706.671 189.098 -724.082 189.098C-742.386 189.098 -757.004 183.849 -767.932 173.346C-777.554 164.122 -782.929 152.203 -784.092 137.611V-58.4645C-784.092 -61.7302 -784.181 -64.9516 -784.333 -68.1334V-68.3208H-784.343C-786.422 -109.867 -801.839 -144.014 -830.622 -170.752C-861.636 -199.576 -901.924 -213.99 -951.464 -213.99C-1001 -213.99 -1040.18 -199.576 -1071.64 -170.752C-1100.83 -144.014 -1116.48 -109.867 -1118.58 -68.3208H-1118.6V-68.0692C-1118.76 -64.912 -1118.84 -61.7154 -1118.84 -58.4694V137.443C-1120.02 152.105 -1125.63 164.077 -1135.67 173.337C-1147.05 183.839 -1161.44 189.088 -1178.86 189.088C-1197.16 189.088 -1211.78 183.839 -1222.7 173.337C-1232.33 164.112 -1237.7 152.193 -1238.86 137.601V-58.4744C-1238.86 -61.7401 -1238.95 -64.9614 -1239.11 -68.1433V-68.3307H-1239.12C-1241.2 -109.877 -1256.61 -144.024 -1285.39 -170.761C-1316.41 -199.586 -1356.7 -214 -1406.24 -214C-1455.78 -214 -1494.95 -199.586 -1526.41 -170.761C-1555.6 -144.024 -1571.25 -109.877 -1573.36 -68.3307H-1573.37V-68.0791C-1573.53 -64.9219 -1573.61 -61.7253 -1573.61 -58.4793V137.434C-1574.8 152.095 -1580.4 164.067 -1590.44 173.327C-1601.82 183.829 -1616.22 189.078 -1633.63 189.078C-1651.93 189.078 -1666.55 183.829 -1677.48 173.327C-1688.42 162.834 -1693.88 148.859 -1693.88 131.425V-68.3356H-1801V131.425C-1801 177.461 -1785.5 214.883 -1754.47 243.712C-1723.46 272.536 -1683.17 286.951 -1633.63 286.951C-1584.09 286.951 -1544.91 272.536 -1513.45 243.712C-1484.26 216.975 -1468.62 182.828 -1466.51 141.281H-1466.49V141.03C-1466.34 137.873 -1466.25 134.676 -1466.25 131.43V-64.483C-1465.07 -79.1441 -1459.46 -91.1167 -1449.42 -100.376C-1438.04 -110.879 -1423.65 -116.127 -1406.24 -116.127C-1387.93 -116.127 -1373.32 -110.879 -1362.39 -100.376C-1352.77 -91.1513 -1347.39 -79.2328 -1346.23 -64.6407V131.435C-1346.23 134.701 -1346.14 137.922 -1345.99 141.104V141.291H-1345.98C-1343.9 182.838 -1328.48 216.985 -1299.7 243.722C-1268.68 272.546 -1228.4 286.96 -1178.86 286.96C-1129.32 286.96 -1090.14 272.546 -1058.68 243.722C-1029.49 216.985 -1013.84 182.838 -1011.73 141.291H-1011.72V141.039C-1011.56 137.882 -1011.48 134.686 -1011.48 131.44V-64.4731C-1010.3 -79.1342 -1004.69 -91.1069 -994.648 -100.366C-983.272 -110.869 -968.875 -116.118 -951.464 -116.118C-933.16 -116.118 -918.542 -110.869 -907.614 -100.366C-897.992 -91.1414 -892.617 -79.223 -891.454 -64.6309V131.445C-891.454 134.71 -891.365 137.932 -891.213 141.114V141.301H-891.203C-889.124 182.848 -873.707 216.995 -844.924 243.732C-813.91 272.556 -773.622 286.97 -724.082 286.97C-674.542 286.97 -635.368 272.556 -603.905 243.732C-574.718 216.995 -559.07 182.848 -556.962 141.301H-556.947V141.049C-556.789 137.892 -556.705 134.696 -556.705 131.45V-64.4632C-555.523 -79.1244 -549.916 -91.097 -539.875 -100.356C-528.499 -110.859 -514.103 -116.108 -496.691 -116.108C-478.387 -116.108 -463.769 -110.859 -452.841 -100.356C-443.219 -91.1315 -437.844 -79.2131 -436.681 -64.621V131.455C-436.681 134.72 -436.592 137.942 -436.44 141.124V141.311H-436.43C-434.351 182.857 -418.935 217.004 -390.152 243.742C-359.137 272.566 -318.849 286.98 -269.309 286.98C-219.769 286.98 -180.595 272.566 -149.132 243.742C-119.945 217.004 -104.297 182.857 -102.189 141.311H-102.174V141.059C-102.016 137.902 -101.932 134.706 -101.932 131.46V-64.4533C-100.75 -79.1145 -95.1432 -91.0871 -85.1022 -100.347C-73.726 -110.849 -59.3296 -116.098 -41.9178 -116.098C-23.6145 -116.098 -8.99634 -110.849 1.93152 -100.347C11.5538 -91.1217 16.929 -79.2033 18.0917 -64.6112V131.465C18.0917 134.73 18.1805 137.952 18.3333 141.133V141.321H18.3431C20.4222 182.867 35.8384 217.014 64.6213 243.752C95.6362 272.576 135.923 286.99 185.464 286.99C235.004 286.99 274.177 272.576 305.641 243.752C334.828 217.014 350.476 182.867 352.584 141.321H352.599V141.069C352.756 137.912 352.84 134.715 352.84 131.469V-64.4435C354.023 -79.1046 359.63 -91.0772 369.671 -100.337C381.047 -110.839 395.444 -116.088 412.855 -116.088C431.159 -116.088 445.777 -110.839 456.705 -100.337C466.327 -91.1118 471.702 -79.1935 472.865 -64.6014V131.474C472.865 134.74 472.954 137.961 473.106 141.143V141.331H473.116C475.195 182.877 490.611 217.024 519.394 243.761C550.409 272.586 590.697 287 640.237 287C689.777 287 728.95 272.586 760.414 243.761C789.601 217.024 805.249 182.877 807.357 141.331H807.372V141.079C807.529 137.922 807.613 134.725 807.613 131.479V-64.4336C808.796 -79.0947 814.403 -91.0674 824.444 -100.327C835.82 -110.829 850.217 -116.078 867.628 -116.078C885.932 -116.078 900.55 -110.829 911.478 -100.327C922.42 -89.8341 927.879 -75.8587 927.879 -58.4251V141.336H1035V-58.4251C1035 -104.461 1019.5 -141.883 988.47 -170.712Z" fill="#01123E"/>
<rect x="253" y="16" width="223" height="314" fill="url(#pattern0_14664_105852)"/>
</g>
<defs>
<pattern id="pattern0_14664_105852" patternContentUnits="objectBoundingBox" width="1" height="1">
</pattern>
<clipPath id="clip0_14664_105852">
<rect width="406" height="330" rx="16" fill="white"/>
</clipPath>
</defs>
</svg>
