<svg width="306" height="255" viewBox="0 0 306 255" fill="none" xmlns="http://www.w3.org/2000/svg">
<path d="M152.404 247C218.402 247 271.904 193.498 271.904 127.5C271.904 61.502 218.402 8 152.404 8C86.4063 8 32.9043 61.502 32.9043 127.5C32.9043 193.498 86.4063 247 152.404 247Z" fill="url(#paint0_linear_4042_35570)"/>
<g filter="url(#filter0_d_4042_35570)">
<g filter="url(#filter1_d_4042_35570)">
<path d="M287.79 58H76.6393C74.7549 58 73.2148 59.5153 73.2148 61.3694V82H291.215V61.3694C291.215 59.5153 289.675 58 287.79 58Z" fill="#0082DE"/>
</g>
<path d="M157.277 74.7051C155.393 74.7051 153.288 73.2775 152.6 71.5358L149.682 64.1693C148.994 62.4276 146.889 61 145.005 61H91.1599C89.2755 61 87.171 62.4276 86.4823 64.1693L83.5648 71.5358C82.8761 73.2775 80.7717 74.7051 78.8872 74.7051H76.6393C74.7549 74.7051 73.2148 76.2374 73.2148 78.1123V214.593C73.2148 216.468 74.7549 218 76.6393 218H287.79C289.675 218 291.215 216.468 291.215 214.593V78.1123C291.215 76.2374 289.675 74.7051 287.79 74.7051H157.277Z" fill="white"/>
<path d="M142.357 65.1426C142.167 65.3422 142.167 65.6559 142.357 65.846L144.011 67.5L142.357 69.154C142.167 69.3536 142.167 69.6673 142.357 69.8574C142.557 70.0475 142.871 70.0475 143.061 69.8574L144.715 68.2034L146.369 69.8574C146.568 70.0475 146.882 70.0475 147.072 69.8574C147.262 69.6578 147.262 69.3441 147.072 69.154L145.418 67.5L147.072 65.846C147.262 65.6464 147.262 65.3327 147.072 65.1426C146.873 64.9525 146.559 64.9525 146.369 65.1426L144.715 66.7966L143.061 65.1426C142.861 64.9525 142.548 64.9525 142.357 65.1426Z" fill="#263043"/>
<path d="M281.061 69.8574C280.871 70.0475 280.557 70.0475 280.357 69.8574C280.167 69.6673 280.167 69.3536 280.357 69.154L284.369 65.1426C284.559 64.9525 284.873 64.9525 285.072 65.1426C285.262 65.3327 285.262 65.6464 285.072 65.846L281.061 69.8574Z" fill="white"/>
<path d="M280.357 65.846C280.167 65.6559 280.167 65.3422 280.357 65.1426C280.547 64.9525 280.861 64.9525 281.06 65.1426L285.069 69.154C285.268 69.3441 285.259 69.6578 285.069 69.8574C284.879 70.0475 284.565 70.0475 284.366 69.8574L280.357 65.846Z" fill="white"/>
<path d="M94.3746 84H269.055C269.692 84 270.215 84.527 270.215 85.1691V96.8309C270.215 97.473 269.692 98 269.055 98H94.3746C93.7377 98 93.2148 97.473 93.2148 96.8309V85.1691C93.2148 84.527 93.7377 84 94.3746 84Z" fill="#F3FAFF"/>
<path d="M275.215 65H271.215V69H275.215V65Z" stroke="white" stroke-width="1.24444" stroke-linecap="round" stroke-linejoin="round"/>
<path d="M267.215 69H263.215" stroke="white" stroke-width="1.24444" stroke-linecap="round" stroke-linejoin="round"/>
<path d="M287.215 87.6622C287.215 88.0291 286.887 88.3333 286.471 88.3333H277.959C277.552 88.3333 277.215 88.038 277.215 87.6622C277.215 87.2953 277.542 87 277.959 87H286.471C286.878 87 287.215 87.2953 287.215 87.6622Z" fill="#263043"/>
<path d="M287.215 91C287.215 91.3644 286.887 91.6667 286.471 91.6667H277.959C277.552 91.6667 277.215 91.3733 277.215 91C277.215 90.6356 277.542 90.3333 277.959 90.3333H286.471C286.878 90.3333 287.215 90.6267 287.215 91Z" fill="#263043"/>
<path d="M286.471 95C286.887 95 287.215 94.6958 287.215 94.3289C287.215 93.962 286.878 93.6667 286.471 93.6667H277.959C277.542 93.6667 277.215 93.962 277.215 94.3289C277.215 94.7047 277.552 95 277.959 95H286.471Z" fill="#263043"/>
<path d="M90.0326 89.9229C89.8062 89.7154 89.4573 89.7253 89.2592 89.9624L88.7311 90.5652C88.5236 88.0158 86.477 86 83.9871 86C81.3558 86 79.2148 88.2431 79.2148 91C79.2148 93.7569 81.3558 96 83.9871 96C84.2889 96 84.5341 95.7431 84.5341 95.4269C84.5341 95.1107 84.2889 94.8538 83.9871 94.8538C81.9594 94.8538 80.3183 93.1245 80.3183 91.0099C80.3183 88.8953 81.9688 87.166 83.9871 87.166C85.8828 87.166 87.439 88.6878 87.6182 90.6344L87.0429 90.0909C86.8165 89.8735 86.4675 89.8933 86.2695 90.1304C86.062 90.3676 86.0809 90.7233 86.3072 90.9407L87.8728 92.4328C87.9766 92.5316 88.1086 92.581 88.2406 92.581C88.2406 92.581 88.2595 92.581 88.2689 92.581C88.4104 92.581 88.5519 92.502 88.6462 92.3933L90.0703 90.753C90.2778 90.5158 90.259 90.1502 90.0326 89.9427V89.9229Z" fill="#263043"/>
<path d="M133.918 143.629H144.193V135.68C144.193 134.085 144.245 132.258 144.347 130.2C144.5 128.09 144.602 126.264 144.654 124.72H144.347C143.733 126.058 143.094 127.421 142.43 128.811C141.765 130.2 141.075 131.589 140.359 132.978L133.918 143.629ZM144.193 164.005V152.273H123.105V144.478L140.896 114.995H154.699V143.629H160.297V152.273H154.699V164.005H144.193Z" fill="#263043"/>
<path d="M182.407 164.931C177.192 164.931 172.974 162.744 169.754 158.371C166.584 153.997 164.999 147.643 164.999 139.307C164.999 130.972 166.584 124.694 169.754 120.475C172.974 116.205 177.192 114.069 182.407 114.069C187.621 114.069 191.813 116.205 194.983 120.475C198.203 124.694 199.814 130.972 199.814 139.307C199.814 147.643 198.203 153.997 194.983 158.371C191.813 162.744 187.621 164.931 182.407 164.931ZM182.407 156.132C183.685 156.132 184.835 155.669 185.857 154.743C186.88 153.766 187.672 152.068 188.235 149.649C188.848 147.231 189.155 143.784 189.155 139.307C189.155 134.831 188.848 131.409 188.235 129.042C187.672 126.675 186.88 125.055 185.857 124.18C184.835 123.305 183.685 122.868 182.407 122.868C181.18 122.868 180.055 123.305 179.032 124.18C178.01 125.055 177.192 126.675 176.579 129.042C175.965 131.409 175.658 134.831 175.658 139.307C175.658 143.784 175.965 147.231 176.579 149.649C177.192 152.068 178.01 153.766 179.032 154.743C180.055 155.669 181.18 156.132 182.407 156.132Z" fill="#263043"/>
<path d="M214.945 143.629H225.221V135.68C225.221 134.085 225.272 132.258 225.374 130.2C225.527 128.09 225.63 126.264 225.681 124.72H225.374C224.761 126.058 224.121 127.421 223.457 128.811C222.792 130.2 222.102 131.589 221.386 132.978L214.945 143.629ZM225.221 164.005V152.273H204.133V144.478L221.923 114.995H235.726V143.629H241.324V152.273H235.726V164.005H225.221Z" fill="#263043"/>
</g>
<path d="M112.51 172.843C112.145 171.628 111.847 170.415 111.606 169.208L89.9269 176.179C88.5941 176.608 87.9951 178.557 88.5865 180.535C89.1787 182.512 90.7396 183.768 92.0725 183.34L113.751 176.369C113.289 175.235 112.872 174.059 112.51 172.843Z" fill="#263043"/>
<path opacity="0.6" d="M113.881 173.216C107.123 151.365 119.419 128.119 141.343 121.294C163.267 114.469 186.518 126.649 193.275 148.5C200.032 170.35 187.736 193.597 165.812 200.422C143.888 207.247 120.638 195.067 113.881 173.216Z" fill="#E5EFFF"/>
<g style="mix-blend-mode:soft-light">
<path d="M113.385 172.258C116.163 181.84 122.323 190.324 131.035 195.832L191.932 175.575C191.963 175.493 191.997 175.415 192.028 175.335C195.781 165.512 195.607 155.156 192.281 146.014L113.385 172.258Z" fill="white"/>
</g>
<g style="mix-blend-mode:soft-light">
<path d="M172.951 124.091L116.481 143.072C115.914 144.233 115.392 145.427 114.922 146.658C112.783 152.266 111.908 158.043 112.15 163.673L188.41 138.039C184.612 132.269 179.367 127.414 172.948 124.091L172.951 124.091Z" fill="white"/>
</g>
<path d="M167.335 205.402C142.507 213.137 116.171 199.349 108.514 174.604C100.856 149.859 114.775 123.529 139.603 115.794C164.431 108.059 190.767 121.848 198.424 146.592C206.082 171.337 192.163 197.668 167.335 205.402ZM165.734 200.23C187.695 193.387 200.008 170.099 193.234 148.21C186.461 126.322 163.165 114.124 141.204 120.967C119.243 127.809 106.931 151.098 113.704 172.987C120.478 194.874 143.773 207.072 165.734 200.23Z" fill="#004781"/>
<g style="mix-blend-mode:multiply" opacity="0.5">
<path d="M167.066 202.065C143.597 209.245 118.645 196.257 111.335 173.053C104.024 149.85 117.123 125.219 140.593 118.038C164.062 110.858 189.014 123.846 196.324 147.05C203.635 170.253 190.535 194.885 167.066 202.065ZM166.294 199.615C188.394 192.853 200.729 169.66 193.845 147.808C186.961 125.958 163.463 113.726 141.363 120.488C119.262 127.25 106.927 150.444 113.811 172.295C120.695 194.145 144.193 206.378 166.294 199.615Z" fill="#0082DE"/>
</g>
<path d="M18.4423 204.934L17.388 201.383C16.3336 197.837 18.3239 194.079 21.8348 192.992L84.8643 173.267C88.3736 172.18 92.0744 174.173 93.128 177.722L94.1832 181.271C95.2376 184.818 93.2473 188.576 89.7363 189.663L26.7069 209.387C23.1975 210.475 19.4968 208.481 18.4432 204.933L18.4423 204.934Z" fill="#7FFF5D"/>
<defs>
<filter id="filter0_d_4042_35570" x="63.2148" y="48" width="238" height="180" filterUnits="userSpaceOnUse" color-interpolation-filters="sRGB">
<feFlood flood-opacity="0" result="BackgroundImageFix"/>
<feColorMatrix in="SourceAlpha" type="matrix" values="0 0 0 0 0 0 0 0 0 0 0 0 0 0 0 0 0 0 127 0" result="hardAlpha"/>
<feOffset/>
<feGaussianBlur stdDeviation="5"/>
<feComposite in2="hardAlpha" operator="out"/>
<feColorMatrix type="matrix" values="0 0 0 0 0 0 0 0 0 0.313726 0 0 0 0 0.67451 0 0 0 0.05 0"/>
<feBlend mode="normal" in2="BackgroundImageFix" result="effect1_dropShadow_4042_35570"/>
<feBlend mode="normal" in="SourceGraphic" in2="effect1_dropShadow_4042_35570" result="shape"/>
</filter>
<filter id="filter1_d_4042_35570" x="63.2148" y="48" width="238" height="44" filterUnits="userSpaceOnUse" color-interpolation-filters="sRGB">
<feFlood flood-opacity="0" result="BackgroundImageFix"/>
<feColorMatrix in="SourceAlpha" type="matrix" values="0 0 0 0 0 0 0 0 0 0 0 0 0 0 0 0 0 0 127 0" result="hardAlpha"/>
<feOffset/>
<feGaussianBlur stdDeviation="5"/>
<feComposite in2="hardAlpha" operator="out"/>
<feColorMatrix type="matrix" values="0 0 0 0 0 0 0 0 0 0.313726 0 0 0 0 0.67451 0 0 0 0.05 0"/>
<feBlend mode="normal" in2="BackgroundImageFix" result="effect1_dropShadow_4042_35570"/>
<feBlend mode="normal" in="SourceGraphic" in2="effect1_dropShadow_4042_35570" result="shape"/>
</filter>
<linearGradient id="paint0_linear_4042_35570" x1="152.404" y1="8" x2="152.404" y2="247" gradientUnits="userSpaceOnUse">
<stop stop-color="#E3ECFA"/>
<stop offset="1" stop-color="#DAE7FF"/>
</linearGradient>
</defs>
</svg>
