<svg width="24" height="20" viewBox="0 0 24 20" fill="none" xmlns="http://www.w3.org/2000/svg">
<path d="M19.5 0H4.5C2.025 0 0 2.07692 0 4.61538V15.3846C0 17.9231 2.025 20 4.5 20H19.5C21.975 20 24 17.9231 24 15.3846V4.61538C24 2.07692 21.975 0 19.5 0ZM22.5 15.3846C22.5 17.0769 21.15 18.4615 19.5 18.4615H4.5C2.85 18.4615 1.5 17.0769 1.5 15.3846V4.61538C1.5 2.92308 2.85 1.53846 4.5 1.53846H19.5C21.15 1.53846 22.5 2.92308 22.5 4.61538V15.3846ZM19.5 5.38462C19.5 5.84615 19.2 6.15385 18.75 6.15385H9.75C9.3 6.15385 9 5.84615 9 5.38462C9 4.92308 9.3 4.61538 9.75 4.61538H18.75C19.2 4.61538 19.5 4.92308 19.5 5.38462ZM9 10C9 9.53846 9.3 9.23077 9.75 9.23077H14.25C14.7 9.23077 15 9.53846 15 10C15 10.4615 14.7 10.7692 14.25 10.7692H9.75C9.3 10.7692 9 10.4615 9 10ZM18 14.6154C18 15.0769 17.7 15.3846 17.25 15.3846H9.75C9.3 15.3846 9 15.0769 9 14.6154C9 14.1538 9.3 13.8462 9.75 13.8462H17.25C17.7 13.8462 18 14.1538 18 14.6154ZM6.9 5.38462C6.9 5.92308 6.525 6.30769 6 6.30769C5.475 6.30769 5.1 5.92308 5.1 5.38462C5.1 4.84615 5.475 4.46154 6 4.46154C6.525 4.46154 6.9 4.84615 6.9 5.38462ZM6.9 10C6.9 10.5385 6.525 10.9231 6 10.9231C5.475 10.9231 5.1 10.5385 5.1 10C5.1 9.46154 5.475 9.07692 6 9.07692C6.525 9.07692 6.9 9.46154 6.9 10ZM6.9 14.6154C6.9 15.1538 6.525 15.5385 6 15.5385C5.475 15.5385 5.1 15.1538 5.1 14.6154C5.1 14.0769 5.475 13.6923 6 13.6923C6.525 13.6923 6.9 14.0769 6.9 14.6154Z" fill="#0082DE"/>
</svg>
