<svg width="25" height="24" viewBox="0 0 25 24" fill="none" xmlns="http://www.w3.org/2000/svg">
<g id="Frame 13825">
<path id="applications-icon" d="M20 2H5C2.525 2 0.5 4.07692 0.5 6.61538V17.3846C0.5 19.9231 2.525 22 5 22H20C22.475 22 24.5 19.9231 24.5 17.3846V6.61538C24.5 4.07692 22.475 2 20 2ZM23 17.3846C23 19.0769 21.65 20.4615 20 20.4615H5C3.35 20.4615 2 19.0769 2 17.3846V6.61538C2 4.92308 3.35 3.53846 5 3.53846H20C21.65 3.53846 23 4.92308 23 6.61538V17.3846ZM20 7.38462C20 7.84615 19.7 8.15385 19.25 8.15385H10.25C9.8 8.15385 9.5 7.84615 9.5 7.38462C9.5 6.92308 9.8 6.61538 10.25 6.61538H19.25C19.7 6.61538 20 6.92308 20 7.38462ZM9.5 12C9.5 11.5385 9.8 11.2308 10.25 11.2308H14.75C15.2 11.2308 15.5 11.5385 15.5 12C15.5 12.4615 15.2 12.7692 14.75 12.7692H10.25C9.8 12.7692 9.5 12.4615 9.5 12ZM18.5 16.6154C18.5 17.0769 18.2 17.3846 17.75 17.3846H10.25C9.8 17.3846 9.5 17.0769 9.5 16.6154C9.5 16.1538 9.8 15.8462 10.25 15.8462H17.75C18.2 15.8462 18.5 16.1538 18.5 16.6154ZM7.4 7.38462C7.4 7.92308 7.025 8.30769 6.5 8.30769C5.975 8.30769 5.6 7.92308 5.6 7.38462C5.6 6.84615 5.975 6.46154 6.5 6.46154C7.025 6.46154 7.4 6.84615 7.4 7.38462ZM7.4 12C7.4 12.5385 7.025 12.9231 6.5 12.9231C5.975 12.9231 5.6 12.5385 5.6 12C5.6 11.4615 5.975 11.0769 6.5 11.0769C7.025 11.0769 7.4 11.4615 7.4 12ZM7.4 16.6154C7.4 17.1538 7.025 17.5385 6.5 17.5385C5.975 17.5385 5.6 17.1538 5.6 16.6154C5.6 16.0769 5.975 15.6923 6.5 15.6923C7.025 15.6923 7.4 16.0769 7.4 16.6154Z" fill="rgba(122, 145, 169, 1)"/>
</g>
</svg>
