<svg width="32" height="33" viewBox="0 0 32 33" fill="none" xmlns="http://www.w3.org/2000/svg">
<g clip-path="url(#clip0_3444_140327)">
<path fill-rule="evenodd" clip-rule="evenodd" d="M30 16.5C30 8.76801 23.732 2.5 16 2.5C8.26801 2.5 2 8.76801 2 16.5C2 24.232 8.26801 30.5 16 30.5C23.732 30.5 30 24.232 30 16.5ZM16 0.499999C24.8366 0.5 32 7.66344 32 16.5C32 25.3366 24.8366 32.5 16 32.5C7.16344 32.5 -1.08564e-06 25.3366 -6.99382e-07 16.5C-3.13124e-07 7.66344 7.16344 0.499999 16 0.499999Z" fill="#7A91A9"/>
<path fill-rule="evenodd" clip-rule="evenodd" d="M18.6485 10.8515C19.1172 11.3201 19.1172 12.0799 18.6485 12.5485L14.6971 16.5L18.6485 20.4515C19.1172 20.9201 19.1172 21.6799 18.6485 22.1485C18.1799 22.6172 17.4201 22.6172 16.9515 22.1485L12.1515 17.3485C11.6828 16.8799 11.6828 16.1201 12.1515 15.6515L16.9515 10.8515C17.4201 10.3828 18.1799 10.3828 18.6485 10.8515Z" fill="#7A91A9"/>
</g>
<defs>
<clipPath id="clip0_3444_140327">
<rect width="32" height="32" fill="white" transform="translate(32 0.5) rotate(90)"/>
</clipPath>
</defs>
</svg>
