<svg width="24" height="20" viewBox="0 0 24 20" fill="none" xmlns="http://www.w3.org/2000/svg">
<path d="M21.625 3.10937H17.9062L17.0203 0.626562C16.9591 0.45667 16.8469 0.309817 16.6991 0.206064C16.5513 0.10231 16.3751 0.0467157 16.1945 0.0468753H7.80547C7.43633 0.0468753 7.10547 0.279297 6.98242 0.626562L6.09375 3.10937H2.375C1.16641 3.10937 0.1875 4.08828 0.1875 5.29687V17.7656C0.1875 18.9742 1.16641 19.9531 2.375 19.9531H21.625C22.8336 19.9531 23.8125 18.9742 23.8125 17.7656V5.29687C23.8125 4.08828 22.8336 3.10937 21.625 3.10937ZM12 15.5781C9.58281 15.5781 7.625 13.6203 7.625 11.2031C7.625 8.78593 9.58281 6.82812 12 6.82812C14.4172 6.82812 16.375 8.78593 16.375 11.2031C16.375 13.6203 14.4172 15.5781 12 15.5781ZM9.375 11.2031C9.375 11.8993 9.65156 12.567 10.1438 13.0593C10.6361 13.5516 11.3038 13.8281 12 13.8281C12.6962 13.8281 13.3639 13.5516 13.8562 13.0593C14.3484 12.567 14.625 11.8993 14.625 11.2031C14.625 10.5069 14.3484 9.83925 13.8562 9.34696C13.3639 8.85468 12.6962 8.57812 12 8.57812C11.3038 8.57812 10.6361 8.85468 10.1438 9.34696C9.65156 9.83925 9.375 10.5069 9.375 11.2031Z" fill="white"/>
</svg>
