<svg width="20" height="20" viewBox="0 0 20 20" fill="none" xmlns="http://www.w3.org/2000/svg">
<path d="M5 4.16699C5 2.78628 6.11929 1.66699 7.5 1.66699H15.8333C17.214 1.66699 18.3333 2.78628 18.3333 4.16699V8.33366C18.3333 9.71437 17.214 10.8337 15.8333 10.8337H15.4167C15.1865 10.8337 15 10.6471 15 10.417V7.08366C15 5.93307 14.0673 5.00033 12.9167 5.00033H5.83333C5.3731 5.00033 5 4.62723 5 4.16699Z" fill="white"/>
<path fill-rule="evenodd" clip-rule="evenodd" d="M4.375 4.16699C4.375 2.4411 5.77411 1.04199 7.5 1.04199H15.8333C17.5592 1.04199 18.9583 2.4411 18.9583 4.16699V8.33366C18.9583 10.0595 17.5592 11.4587 15.8333 11.4587H15.4167C14.8414 11.4587 14.375 10.9923 14.375 10.417V7.08366C14.375 6.27824 13.7221 5.62533 12.9167 5.62533H5.83333C5.02792 5.62533 4.375 4.97241 4.375 4.16699ZM7.5 2.29199C6.46447 2.29199 5.625 3.13146 5.625 4.16699C5.625 4.28205 5.71827 4.37533 5.83333 4.37533H12.9167C14.4124 4.37533 15.625 5.58789 15.625 7.08366V10.2087H15.8333C16.8689 10.2087 17.7083 9.36919 17.7083 8.33366V4.16699C17.7083 3.13146 16.8689 2.29199 15.8333 2.29199H7.5Z" fill="#7A91A9"/>
<path d="M1.66406 7.5C1.66406 6.11929 2.78335 5 4.16406 5H12.4974C13.8781 5 14.9974 6.11929 14.9974 7.5V11.9444C14.9974 13.3252 13.8781 14.4444 12.4974 14.4444H9.46764C9.35012 14.4444 9.23807 14.4941 9.1591 14.5811L5.8474 18.2301C5.5773 18.5277 5.08397 18.3081 5.12429 17.9083L5.42735 14.9029C5.4521 14.6575 5.25944 14.4444 5.01279 14.4444H4.16406C2.78335 14.4444 1.66406 13.3252 1.66406 11.9444V7.5Z" fill="white"/>
<path fill-rule="evenodd" clip-rule="evenodd" d="M1.03906 7.5C1.03906 5.77411 2.43817 4.375 4.16406 4.375H12.4974C14.2233 4.375 15.6224 5.77411 15.6224 7.5V11.9444C15.6224 13.6703 14.2233 15.0694 12.4974 15.0694H9.55991L6.31022 18.6501C5.63496 19.3941 4.40164 18.8453 4.50245 17.8456L4.78239 15.0694H4.16406C2.43817 15.0694 1.03906 13.6703 1.03906 11.9444V7.5ZM4.16406 5.625C3.12853 5.625 2.28906 6.46446 2.28906 7.5V11.9444C2.28906 12.98 3.12853 13.8194 4.16406 13.8194H5.01279C5.62941 13.8194 6.11107 14.3521 6.0492 14.9656L5.80959 17.3418L8.69628 14.1611C8.89372 13.9435 9.17385 13.8194 9.46764 13.8194H12.4974C13.5329 13.8194 14.3724 12.98 14.3724 11.9444V7.5C14.3724 6.46447 13.5329 5.625 12.4974 5.625H4.16406Z" fill="#7A91A9"/>
</svg>
