<svg width="16" height="16" viewBox="0 0 16 16" fill="none" xmlns="http://www.w3.org/2000/svg">
<path fill-rule="evenodd" clip-rule="evenodd" d="M7.99967 2.66732C5.05416 2.66732 2.66634 5.05513 2.66634 8.00065C2.66634 10.9462 5.05416 13.334 7.99967 13.334C10.9452 13.334 13.333 10.9462 13.333 8.00065C13.333 5.05513 10.9452 2.66732 7.99967 2.66732ZM1.33301 8.00065C1.33301 4.31875 4.31778 1.33398 7.99967 1.33398C11.6816 1.33398 14.6663 4.31875 14.6663 8.00065C14.6663 11.6826 11.6816 14.6673 7.99967 14.6673C4.31778 14.6673 1.33301 11.6826 1.33301 8.00065Z" fill="#F4D150"/>
<path d="M6.66667 4.66732C6.3 4.66732 6 4.96732 6 5.33398L6.00333 6.39398C6.00333 6.57065 6.07333 6.73732 6.19667 6.86398L7.33333 8.00065L6.19667 9.14398C6.07333 9.26732 6.00333 9.43732 6.00333 9.61398L6 10.6673C6 11.034 6.3 11.334 6.66667 11.334L9.33333 11.334C9.7 11.334 10 11.034 10 10.6673L10 9.61398C10 9.43732 9.93 9.26732 9.80667 9.14065L8.66667 8.00065L9.80333 6.86732C9.93 6.74065 10 6.57065 10 6.39398L10 5.33398C10 4.96732 9.7 4.66732 9.33333 4.66732L6.66667 4.66732ZM9.33333 9.63732L9.33333 10.334C9.33333 10.5173 9.18333 10.6673 9 10.6673L7 10.6673C6.81667 10.6673 6.66667 10.5173 6.66667 10.334L6.66667 9.63732C6.66667 9.54732 6.70333 9.46398 6.76333 9.40065L8 8.16732L9.23667 9.40398C9.29667 9.46398 9.33333 9.55065 9.33333 9.63732Z" fill="#F4D150"/>
</svg>
