<svg width="24" height="24" viewBox="0 0 24 24" fill="none" xmlns="http://www.w3.org/2000/svg">
<g id=" Circle_x">
<g id="Vector">
<path fill-rule="evenodd" clip-rule="evenodd" d="M12 4C7.58172 4 4 7.58172 4 12C4 16.4183 7.58172 20 12 20C16.4183 20 20 16.4183 20 12C20 7.58172 16.4183 4 12 4ZM2 12C2 6.47715 6.47715 2 12 2C17.5228 2 22 6.47715 22 12C22 17.5228 17.5228 22 12 22C6.47715 22 2 17.5228 2 12Z" fill="#EB4D3D"/>
<path d="M8.25465 15.7453C8.59418 16.0849 9.14467 16.0849 9.48421 15.7453L12 13.2296L14.5158 15.7453C14.8553 16.0849 15.4058 16.0849 15.7453 15.7453C16.0849 15.4058 16.0849 14.8553 15.7453 14.5158L13.2296 12L15.7453 9.48421C16.0849 9.14467 16.0849 8.59418 15.7453 8.25465C15.4058 7.91512 14.8553 7.91512 14.5158 8.25465L12 10.7704L9.48421 8.25465C9.14467 7.91512 8.59418 7.91512 8.25465 8.25465C7.91512 8.59418 7.91512 9.14467 8.25465 9.48421L10.7704 12L8.25465 14.5158C7.91512 14.8553 7.91512 15.4058 8.25465 15.7453Z" fill="#EB4D3D"/>
</g>
</g>
</svg>
