<svg width="24" height="24" viewBox="0 0 24 24" fill="none" xmlns="http://www.w3.org/2000/svg">
<path d="M10.113 12L6.37139 8.26855C6.13039 8.01969 5.99704 7.68639 6.00005 7.34043C6.00306 6.99447 6.14221 6.66353 6.38751 6.41889C6.63281 6.17425 6.96465 6.03549 7.31155 6.03248C7.65844 6.02947 7.99265 6.16247 8.24218 6.40282L11.9837 10.1343L15.7253 6.40282C15.8474 6.2768 15.9933 6.17628 16.1548 6.10712C16.3162 6.03797 16.4898 6.00157 16.6655 6.00005C16.8411 5.99853 17.0154 6.03191 17.1779 6.09826C17.3405 6.1646 17.4883 6.26258 17.6125 6.38646C17.7367 6.51035 17.835 6.65767 17.9015 6.81983C17.968 6.98199 18.0015 7.15574 17.9999 7.33093C17.9984 7.50613 17.9619 7.67927 17.8926 7.84025C17.8232 8.00123 17.7225 8.14683 17.5961 8.26855L13.8545 12L17.5961 15.7315C17.7225 15.8532 17.8232 15.9988 17.8926 16.1597C17.9619 16.3207 17.9984 16.4939 17.9999 16.6691C18.0015 16.8443 17.968 17.018 17.9015 17.1802C17.835 17.3423 17.7367 17.4896 17.6125 17.6135C17.4883 17.7374 17.3405 17.8354 17.1779 17.9017C17.0154 17.9681 16.8411 18.0015 16.6655 18C16.4898 17.9984 16.3162 17.962 16.1548 17.8929C15.9933 17.8237 15.8474 17.7232 15.7253 17.5972L11.9837 13.8657L8.24218 17.5972C7.99265 17.8375 7.65844 17.9705 7.31155 17.9675C6.96465 17.9645 6.63281 17.8257 6.38751 17.5811C6.14221 17.3365 6.00306 17.0055 6.00005 16.6596C5.99704 16.3136 6.13039 15.9803 6.37139 15.7315L10.113 12Z" fill="#263043"/>
</svg>
