<svg width="18" height="18" viewBox="0 0 18 18" fill="none" xmlns="http://www.w3.org/2000/svg">
<g id="&#208;&#154;&#209;&#128;&#208;&#181;&#209;&#129;&#209;&#130;&#208;&#184;&#208;&#186; &#208;&#178; &#208;&#186;&#209;&#128;&#209;&#131;&#208;&#179;&#208;&#181;" clip-path="url(#clip0_1806_134209)">
<path id="bg" fill-rule="evenodd" clip-rule="evenodd" d="M9 1.125C4.65076 1.125 1.125 4.65076 1.125 9C1.125 13.3492 4.65076 16.875 9 16.875C13.3492 16.875 16.875 13.3492 16.875 9C16.875 4.65076 13.3492 1.125 9 1.125ZM0 9C0 4.02944 4.02944 0 9 0C13.9706 0 18 4.02944 18 9C18 13.9706 13.9706 18 9 18C4.02944 18 0 13.9706 0 9Z" fill="#7A91A9"/>
<path id="X" d="M8.11545 9L6.36159 7.25088C6.24862 7.13423 6.18611 6.978 6.18752 6.81583C6.18894 6.65366 6.25416 6.49853 6.36915 6.38386C6.48413 6.26918 6.63968 6.20413 6.80229 6.20272C6.9649 6.20132 7.12155 6.26366 7.23852 6.37632L8.99238 8.12544L10.7462 6.37632C10.8034 6.31725 10.8719 6.27013 10.9475 6.23771C11.0232 6.2053 11.1046 6.18824 11.1869 6.18752C11.2693 6.18681 11.3509 6.20246 11.4272 6.23356C11.5034 6.26466 11.5726 6.31058 11.6309 6.36866C11.6891 6.42673 11.7351 6.49578 11.7663 6.5718C11.7975 6.64781 11.8132 6.72925 11.8125 6.81138C11.8118 6.8935 11.7947 6.97466 11.7621 7.05012C11.7296 7.12558 11.6824 7.19383 11.6232 7.25088L9.86931 9L11.6232 10.7491C11.6824 10.8062 11.7296 10.8744 11.7621 10.9499C11.7947 11.0253 11.8118 11.1065 11.8125 11.1886C11.8132 11.2707 11.7975 11.3522 11.7663 11.4282C11.7351 11.5042 11.6891 11.5733 11.6309 11.6313C11.5726 11.6894 11.5034 11.7353 11.4272 11.7664C11.3509 11.7975 11.2693 11.8132 11.1869 11.8125C11.1046 11.8118 11.0232 11.7947 10.9475 11.7623C10.8719 11.7299 10.8034 11.6828 10.7462 11.6237L8.99238 9.87456L7.23852 11.6237C7.12155 11.7363 6.9649 11.7987 6.80229 11.7973C6.63968 11.7959 6.48413 11.7308 6.36915 11.6161C6.25416 11.5015 6.18894 11.3463 6.18752 11.1842C6.18611 11.022 6.24862 10.8658 6.36159 10.7491L8.11545 9Z" fill="#7A91A9"/>
</g>
<defs>
<clipPath id="clip0_1806_134209">
<rect width="18" height="18" fill="white"/>
</clipPath>
</defs>
</svg>
