<svg width="24" height="24" viewBox="0 0 24 24" fill="none" xmlns="http://www.w3.org/2000/svg">
<path d="M16 12C16 13.1045 16.8954 14 18 14C19.1046 14 20 13.1045 20 12C20 10.8955 19.1046 10 18 10C16.8954 10 16 10.8955 16 12Z" fill="#7A91A9"/>
<path d="M12.0156 14C10.9111 14 10.0156 13.1045 10.0156 12C10.0156 10.8955 10.9111 10 12.0156 10C13.1202 10 14.0156 10.8955 14.0156 12C14.0156 13.1045 13.1202 14 12.0156 14Z" fill="#7A91A9"/>
<path d="M6 14C4.89544 14 4 13.1045 4 12C4 10.8955 4.89544 10 6 10C7.10456 10 8 10.8955 8 12C8 13.1045 7.10456 14 6 14Z" fill="#7A91A9"/>
</svg>
