<svg width="39" height="38" viewBox="0 0 39 38" fill="none" xmlns="http://www.w3.org/2000/svg">
<path fill-rule="evenodd" clip-rule="evenodd" d="M7.59383 13.2807C7.72337 13.8207 7.41106 14.3687 6.89626 14.5046C5.38103 14.9046 4.05718 15.8712 3.17344 17.223C2.28969 18.5747 1.90688 20.2184 2.09693 21.8454C2.28697 23.4723 3.0368 24.9704 4.20552 26.0583C5.37399 27.1459 6.88076 27.7486 8.44286 27.7532H10.2836C10.8144 27.7532 11.2448 28.2047 11.2448 28.7615C11.2448 29.3184 10.8144 29.7699 10.2836 29.7699H8.44133L8.43878 29.7699C6.40786 29.7642 4.44879 28.9808 2.92965 27.5667C1.41052 26.1527 0.435877 24.2054 0.18885 22.0906C-0.0581769 19.9759 0.439411 17.8393 1.58813 16.0823C2.73685 14.3253 4.45762 13.0688 6.42716 12.5489C6.94195 12.413 7.46429 12.7407 7.59383 13.2807ZM20.1102 18.3236C20.0486 18.2697 19.9817 18.2249 19.9113 18.1895L19.9081 18.1879C19.8586 18.1631 19.8077 18.1431 19.7559 18.1278C19.6704 18.1025 19.5825 18.0901 19.4948 18.0901C19.4301 18.0901 19.3652 18.0969 19.3013 18.1106C19.2262 18.1267 19.1524 18.1524 19.0816 18.1879L19.0784 18.1895C19.008 18.2249 18.9411 18.2697 18.8795 18.3236L14.2888 22.1763C13.8743 22.5242 13.807 23.1588 14.1387 23.5936C14.4703 24.0285 15.0751 24.099 15.4897 23.7511L18.5337 21.1964V36.492C18.5337 37.0489 18.964 37.5003 19.4948 37.5003C20.0257 37.5003 20.456 37.0489 20.456 36.492V21.1964L23.5 23.7511C23.9145 24.099 24.5194 24.0285 24.851 23.5936C25.1826 23.1588 25.1154 22.5242 24.7009 22.1763L20.1102 18.3236Z" fill="#0082DE"/>
<path fill-rule="evenodd" clip-rule="evenodd" d="M14.7255 0.857949C17.4949 0.325127 20.3538 0.91692 22.7227 2.51337C25.0915 4.10981 26.7931 6.59146 27.4825 9.45523C27.6125 9.99516 27.3007 10.5434 26.786 10.6797C26.2713 10.8161 25.7487 10.4889 25.6187 9.94901C25.0488 7.58148 23.642 5.52987 21.6836 4.21006C19.7252 2.89026 17.3617 2.40101 15.0722 2.84151C12.7827 3.282 10.7386 4.61927 9.35408 6.58223C7.97563 8.53665 7.35384 10.9657 7.613 13.3809L7.619 13.4146C7.62672 13.457 7.63868 13.5205 7.65489 13.6005C7.68744 13.7611 7.73647 13.9851 7.80182 14.2358C7.939 14.7622 8.12428 15.3117 8.33486 15.6645C8.61653 16.1366 8.48011 16.7587 8.03016 17.0542C7.58021 17.3497 6.98712 17.2066 6.70545 16.7346C6.3394 16.1212 6.09545 15.3352 5.94753 14.7677C5.87034 14.4715 5.81287 14.2089 5.77454 14.0198C5.75532 13.9249 5.74076 13.8477 5.73081 13.7931C5.72583 13.7657 5.722 13.744 5.71931 13.7285L5.71612 13.7099L5.71517 13.7042L5.71468 13.7013C5.71158 13.6826 5.70898 13.6637 5.70689 13.6448C5.38267 10.7108 6.13406 7.75717 7.80874 5.38276C9.48341 3.00834 11.9561 1.39077 14.7255 0.857949Z" fill="#0082DE"/>
<path fill-rule="evenodd" clip-rule="evenodd" d="M26.3262 8.72166C27.723 8.37007 29.1749 8.3328 30.5864 8.6123C31.9979 8.8918 33.337 9.48172 34.5155 10.3432C35.694 11.2048 36.6852 12.3184 37.4239 13.6107C38.1626 14.9031 38.632 16.3449 38.8012 17.8413C38.9704 19.3377 38.8357 20.8547 38.4057 22.2925C37.9758 23.7303 37.2605 25.0563 36.3068 26.1832C35.3532 27.3101 34.1829 28.2123 32.8729 28.8305C31.5629 29.4487 30.143 29.7689 28.7065 29.7699C28.1757 29.7703 27.7451 29.3191 27.7447 28.7623C27.7444 28.2054 28.1744 27.7536 28.7052 27.7533C29.8702 27.7524 31.0218 27.4928 32.0842 26.9914C33.1467 26.49 34.0958 25.7583 34.8692 24.8444C35.6427 23.9304 36.2228 22.855 36.5715 21.6889C36.9202 20.5228 37.0295 19.2925 36.8922 18.0789C36.755 16.8653 36.3743 15.6959 35.7752 14.6478C35.1761 13.5997 34.3722 12.6965 33.4164 11.9978C32.4606 11.2991 31.3746 10.8206 30.2298 10.5939C29.0897 10.3682 27.9171 10.3973 26.7885 10.6792L24.3527 11.3747C23.8405 11.5209 23.3122 11.2039 23.1728 10.6666C23.0334 10.1292 23.3356 9.57508 23.8478 9.42883L26.298 8.72922C26.3074 8.72655 26.3168 8.72403 26.3262 8.72166Z" fill="#0082DE"/>
</svg>
