<svg width="24" height="24" viewBox="0 0 24 24" fill="none" xmlns="http://www.w3.org/2000/svg">
<g id="&#208;&#161;&#208;&#186;&#208;&#176;&#209;&#135;&#208;&#176;&#209;&#130;&#209;&#140;">
<path id="download-icon" d="M10 2L4 8L4 20C4 20.5304 4.21071 21.0391 4.58579 21.4142C4.96086 21.7893 5.46957 22 6 22H18C18.5304 22 19.0391 21.7893 19.4142 21.4142C19.7893 21.0391 20 20.5304 20 20L20 4C20 3.46957 19.7893 2.96086 19.4142 2.58579C19.0391 2.21071 18.5304 2 18 2L10 2ZM6 20L6 9L11 9V4L18 4L18 20H6ZM12 19L16 15H13.5L13.5 12L10.5 12V15H8L12 19Z" fill="#7A91A9"/>
</g>
</svg>
