<svg width="24" height="24" viewBox="0 0 24 24" fill="none" xmlns="http://www.w3.org/2000/svg">
<g id="&#208;&#159;&#208;&#184;&#209;&#129;&#209;&#140;&#208;&#188;&#208;&#190;">
<path id="Vector" d="M21.49 8V8.0005L21.5 18C21.5 18.0001 21.5 18.0003 21.5 18.0004C21.4998 18.8241 20.8237 19.5 20 19.5H4C3.17614 19.5 2.5 18.8239 2.5 18V8C2.5 7.46208 2.78226 6.99166 3.2075 6.72863L12 1.57943L20.7925 6.72863C21.2135 6.98905 21.49 7.4572 21.49 8ZM20.49 8V7.71341L20.2427 7.56856L12.2527 2.88856L12.0002 2.74064L11.7475 2.88842L3.74753 7.56842L3.03397 7.98586L3.735 8.424L11.735 13.424L11.9999 13.5896L12.2649 13.4241L20.2549 8.43409L20.49 8.28723V8.01V8ZM3.5 18V18.5H4H20H20.5007L20.5 17.9993L20.49 10.3693L20.4888 9.46897L19.7251 9.94591L12.0006 14.7701L4.26576 9.91648L3.5 9.43596V10.34V18Z" fill="black" stroke="#0082DE"/>
</g>
</svg>
