<svg width="18" height="18" viewBox="0 0 18 18" fill="none" xmlns="http://www.w3.org/2000/svg">
<g id="&#208;&#146;&#208;&#184;&#208;&#180;&#208;&#184;&#208;&#188;&#208;&#190;&#209;&#129;&#209;&#130;&#209;&#140;">
<path id="eye-view" d="M16.2366 8.44936C14.6058 5.00362 12.1406 3.26953 8.83593 3.26953C5.52955 3.26953 3.0661 5.00362 1.43528 8.45109C1.36986 8.59002 1.33594 8.74175 1.33594 8.89539C1.33594 9.04904 1.36986 9.20077 1.43528 9.3397C3.0661 12.7854 5.53127 14.5195 8.83593 14.5195C12.1423 14.5195 14.6058 12.7854 16.2366 9.33797C16.3691 9.05845 16.3691 8.73406 16.2366 8.44936ZM8.83593 13.2772C6.06112 13.2772 4.02946 11.8658 2.59647 8.89453C4.02946 5.92329 6.06112 4.51186 8.83593 4.51186C11.6107 4.51186 13.6424 5.92329 15.0754 8.89453C13.6441 11.8658 11.6125 13.2772 8.83593 13.2772ZM8.76712 5.85772C7.09501 5.85772 5.73942 7.21738 5.73942 8.89453C5.73942 10.5717 7.09501 11.9313 8.76712 11.9313C10.4392 11.9313 11.7948 10.5717 11.7948 8.89453C11.7948 7.21738 10.4392 5.85772 8.76712 5.85772ZM8.76712 10.827C7.70227 10.827 6.8404 9.96259 6.8404 8.89453C6.8404 7.82647 7.70227 6.96202 8.76712 6.96202C9.83198 6.96202 10.6938 7.82647 10.6938 8.89453C10.6938 9.96259 9.83198 10.827 8.76712 10.827Z" fill="#0082DE"/>
</g>
</svg>
