<svg width="24" height="24" viewBox="0 0 24 24" fill="none" xmlns="http://www.w3.org/2000/svg">
<path d="M21.6493 11.2658C19.4748 6.67149 16.188 4.35938 11.7817 4.35938C7.37322 4.35938 4.08863 6.67149 1.91419 11.2681C1.82697 11.4534 1.78174 11.6557 1.78174 11.8605C1.78174 12.0654 1.82697 12.2677 1.91419 12.4529C4.08863 17.0473 7.37551 19.3594 11.7817 19.3594C16.1902 19.3594 19.4748 17.0473 21.6493 12.4506C21.8259 12.0779 21.8259 11.6454 21.6493 11.2658ZM11.7817 17.7029C8.08198 17.7029 5.37311 15.821 3.46244 11.8594C5.37311 7.89772 8.08198 6.01582 11.7817 6.01582C15.4815 6.01582 18.1904 7.89772 20.101 11.8594C18.1927 15.821 15.4838 17.7029 11.7817 17.7029ZM11.69 7.8103C9.4605 7.8103 7.65305 9.62318 7.65305 11.8594C7.65305 14.0956 9.4605 15.9085 11.69 15.9085C13.9195 15.9085 15.7269 14.0956 15.7269 11.8594C15.7269 9.62318 13.9195 7.8103 11.69 7.8103ZM11.69 14.4361C10.2702 14.4361 9.12103 13.2835 9.12103 11.8594C9.12103 10.4353 10.2702 9.28269 11.69 9.28269C13.1098 9.28269 14.2589 10.4353 14.2589 11.8594C14.2589 13.2835 13.1098 14.4361 11.69 14.4361Z" fill="#7A91A9"/>
</svg>
