<svg width="18" height="18" viewBox="0 0 18 18" fill="none" xmlns="http://www.w3.org/2000/svg">
<g id="&#208;&#146;&#208;&#184;&#208;&#180;&#208;&#184;&#208;&#188;&#208;&#190;&#209;&#129;&#209;&#130;&#209;&#140;">
<g id="eye-hide">
<path d="M16.2366 8.60585C14.6058 5.07303 12.1406 3.29512 8.83593 3.29512C5.52955 3.29512 3.0661 5.07303 1.43528 8.60762C1.36986 8.75006 1.33594 8.90563 1.33594 9.06315C1.33594 9.22068 1.36986 9.37625 1.43528 9.51869C3.0661 13.0515 5.53127 14.8294 8.83593 14.8294C12.1423 14.8294 14.6058 13.0515 16.2366 9.51692C16.3691 9.23033 16.3691 8.89774 16.2366 8.60585ZM8.83593 13.5557C6.06112 13.5557 4.02946 12.1086 2.59647 9.06227C4.02946 6.01594 6.06112 4.56885 8.83593 4.56885C11.6108 4.56885 13.6424 6.01594 15.0754 9.06227C13.6441 12.1086 11.6125 13.5557 8.83593 13.5557ZM8.76712 5.94872C7.09501 5.94872 5.73942 7.34274 5.73942 9.06227C5.73942 10.7818 7.09501 12.1758 8.76712 12.1758C10.4392 12.1758 11.7948 10.7818 11.7948 9.06227C11.7948 7.34274 10.4392 5.94872 8.76712 5.94872ZM8.76712 11.0436C7.70227 11.0436 6.8404 10.1573 6.8404 9.06227C6.8404 7.96722 7.70227 7.08092 8.76712 7.08092C9.83198 7.08092 10.6938 7.96722 10.6938 9.06227C10.6938 10.1573 9.83198 11.0436 8.76712 11.0436Z" fill="#0082DE"/>
<path fill-rule="evenodd" clip-rule="evenodd" d="M2.46915 15.5472C2.17626 15.2469 2.17626 14.7601 2.46915 14.4598L14.1364 2.49768C14.4293 2.19739 14.9042 2.19739 15.1971 2.49768C15.49 2.79798 15.49 3.28485 15.1971 3.58514L3.52981 15.5472C3.23692 15.8475 2.76204 15.8475 2.46915 15.5472Z" fill="#0082DE"/>
</g>
</g>
</svg>
