<svg width="25" height="24" viewBox="0 0 25 24" fill="none" xmlns="http://www.w3.org/2000/svg">
<path fill-rule="evenodd" clip-rule="evenodd" d="M6.5 2L14.0631 2C14.6202 2 15.1521 2.23239 15.5306 2.64119L19.9675 7.43305C20.3098 7.80275 20.5 8.28803 20.5 8.79187V20C20.5 21.1046 19.6046 22 18.5 22H6.5C5.39543 22 4.5 21.1046 4.5 20L4.5 4C4.5 2.89543 5.39543 2 6.5 2ZM14.0631 4L6.5 4L6.5 20H18.5L18.5 8.79187L14.0631 4Z" fill="white"/>
<path fill-rule="evenodd" clip-rule="evenodd" d="M13.5 2C14.0523 2 14.5 2.44772 14.5 3L14.5 8L19.5 8C20.0523 8 20.5 8.44771 20.5 9C20.5 9.55228 20.0523 10 19.5 10L14.5 10C13.3954 10 12.5 9.10457 12.5 8V3C12.5 2.44772 12.9477 2 13.5 2Z" fill="white"/>
</svg>
