<svg width="22" height="16" viewBox="0 0 22 16" fill="none" xmlns="http://www.w3.org/2000/svg">
<path fill-rule="evenodd" clip-rule="evenodd" d="M0 3.87097C0 1.73309 1.71798 0 3.83721 0H18.1628C20.282 0 22 1.73309 22 3.87097V12.129C22 14.2669 20.282 16 18.1628 16H3.83721C1.71798 16 0 14.2669 0 12.129V3.87097ZM3.83721 1.54839C2.56567 1.54839 1.53488 2.58824 1.53488 3.87097V12.129C1.53488 13.4118 2.56567 14.4516 3.83721 14.4516H18.1628C19.4343 14.4516 20.4651 13.4118 20.4651 12.129V3.87097C20.4651 2.58824 19.4343 1.54839 18.1628 1.54839H3.83721Z" fill="#0082DE"/>
<path fill-rule="evenodd" clip-rule="evenodd" d="M0 5.93548C0 5.50791 0.343595 5.16129 0.767442 5.16129H21.2326C21.6564 5.16129 22 5.50791 22 5.93548C22 6.36306 21.6564 6.70968 21.2326 6.70968H0.767442C0.343595 6.70968 0 6.36306 0 5.93548Z" fill="#0082DE"/>
<path fill-rule="evenodd" clip-rule="evenodd" d="M3.06977 11.0968C3.06977 10.6692 3.41336 10.3226 3.83721 10.3226H9.97674C10.4006 10.3226 10.7442 10.6692 10.7442 11.0968C10.7442 11.5243 10.4006 11.871 9.97674 11.871H3.83721C3.41336 11.871 3.06977 11.5243 3.06977 11.0968Z" fill="#0082DE"/>
</svg>
