<svg width="24" height="25" viewBox="0 0 24 25" fill="none" xmlns="http://www.w3.org/2000/svg">
<g id="&#208;&#182;&#208;&#181;&#209;&#129;&#209;&#130;&#209;&#139; &#209;&#128;&#209;&#131;&#208;&#186; (&#208;&#180;&#208;&#187;&#209;&#143; &#208;&#176;&#208;&#178;&#208;&#176;&#209;&#130;&#208;&#176;&#209;&#128;&#208;&#190;&#208;&#186;)">
<path id="ruqi" d="M13.0723 1.85652C13.0723 1.10734 12.4733 0.5 11.7343 0.5C10.9954 0.5 10.3963 1.10734 10.3963 1.85652V10.2492C10.3963 10.4412 10.2858 10.6154 10.118 10.7086C9.79505 10.888 9.36714 10.6684 9.36714 10.299V3.73478C9.36714 2.9856 8.76811 2.37826 8.02917 2.37826C7.29023 2.37826 6.6912 2.9856 6.6912 3.73478V15.3217C6.36767 15.0596 6.08045 14.7505 5.83979 14.402L4.29845 12.1702C3.76611 11.3994 2.71823 11.2121 1.95796 11.7518C1.19769 12.2916 1.01292 13.354 1.54527 14.1248C1.54527 14.1248 6.30153 21.5353 7.50682 22.7568C8.71212 23.9783 10.228 24.5 13.8957 24.5C17.5633 24.5 20.4826 21.51 20.4826 17.8217V17.5108C20.4826 17.5101 20.4826 17.5094 20.4826 17.5087V5.19565C20.4826 4.44647 19.8836 3.83913 19.1446 3.83913C18.4057 3.83913 17.8067 4.44647 17.8067 5.19565V10.2724C17.8067 10.6528 17.3658 10.8791 17.0325 10.6957C16.8785 10.6111 16.7774 10.4515 16.7774 10.2758V2.6913C16.7774 1.94212 16.1784 1.33478 15.4395 1.33478C14.7005 1.33478 14.1015 1.94212 14.1015 2.6913V9.3799C14.1015 9.66411 13.8711 9.8945 13.5869 9.8945C13.3027 9.8945 13.0723 9.66411 13.0723 9.3799V1.85652Z" fill="white"/>
</g>
</svg>
