<svg width="25" height="24" viewBox="0 0 25 24" fill="none" xmlns="http://www.w3.org/2000/svg">
<path fill-rule="evenodd" clip-rule="evenodd" d="M10.864 2.98689C11.8424 2.33772 13.1567 2.3377 14.1352 2.98683L21.4645 7.84952C22.7419 8.69698 23.5 10.0653 23.5 11.5234V18.9357C23.5 20.9042 21.782 22.5 19.6628 22.5H16.7388C15.1847 22.5 13.9248 21.3298 13.9248 19.8862V18.4605C13.9248 18.0668 13.5812 17.7476 13.1574 17.7476H11.8418C11.4179 17.7476 11.0743 18.0668 11.0743 18.4605V19.8862C11.0743 21.3298 9.81447 22.5 8.26037 22.5H5.33721C3.21798 22.5 1.5 20.9042 1.5 18.9357V11.5233C1.5 10.0653 2.25803 8.697 3.5353 7.84953L10.864 2.98689ZM13.243 4.14699C12.7983 3.85193 12.2009 3.85195 11.7562 4.14702L4.42746 9.00966C3.55354 9.58951 3.03488 10.5257 3.03488 11.5233V18.9357C3.03488 20.1168 4.06567 21.0743 5.33721 21.0743H8.26037C8.96678 21.0743 9.53944 20.5424 9.53944 19.8862V18.4605C9.53944 17.2794 10.5702 16.3219 11.8418 16.3219H13.1574C14.4289 16.3219 15.4597 17.2794 15.4597 18.4605V19.8862C15.4597 20.5424 16.0324 21.0743 16.7388 21.0743H19.6628C20.9343 21.0743 21.9651 20.1168 21.9651 18.9357V11.5234C21.9651 10.5257 21.4464 9.58953 20.5724 9.00968L13.243 4.14699Z" fill="white"/>
</svg>
