<svg width="22" height="20" viewBox="0 0 22 20" fill="none" xmlns="http://www.w3.org/2000/svg">
<path fill-rule="evenodd" clip-rule="evenodd" d="M9.364 0.486892C10.3424 -0.162276 11.6567 -0.162299 12.6352 0.486833L19.9645 5.34952C21.2419 6.19698 22 7.56529 22 9.02337V16.4357C22 18.4042 20.282 20 18.1628 20H15.2388C13.6847 20 12.4248 18.8298 12.4248 17.3862V15.9605C12.4248 15.5668 12.0812 15.2476 11.6574 15.2476H10.3418C9.91792 15.2476 9.57432 15.5668 9.57432 15.9605V17.3862C9.57432 18.8298 8.31447 20 6.76037 20H3.83721C1.71798 20 0 18.4042 0 16.4357V9.02327C0 7.56526 0.758033 6.197 2.0353 5.34953L9.364 0.486892ZM11.743 1.64699C11.2983 1.35193 10.7009 1.35195 10.2562 1.64702L2.92746 6.50966C2.05354 7.08951 1.53488 8.02569 1.53488 9.02327V16.4357C1.53488 17.6168 2.56567 18.5743 3.83721 18.5743H6.76037C7.46678 18.5743 8.03944 18.0424 8.03944 17.3862V15.9605C8.03944 14.7794 9.07023 13.8219 10.3418 13.8219H11.6574C12.9289 13.8219 13.9597 14.7794 13.9597 15.9605V17.3862C13.9597 18.0424 14.5324 18.5743 15.2388 18.5743H18.1628C19.4343 18.5743 20.4651 17.6168 20.4651 16.4357V9.02337C20.4651 8.02574 19.9464 7.08953 19.0724 6.50968L11.743 1.64699Z" fill="#0082DE"/>
</svg>
