<svg width="24" height="24" viewBox="0 0 24 24" fill="none" xmlns="http://www.w3.org/2000/svg">
<g clip-path="url(#clip0_3233_149726)">
<path d="M7 2C6.44772 2 6 2.44772 6 3V8H6.01L6 8.01L10 12L6.00293 15.9971C6.00131 15.9987 6.00131 16.0013 6.00293 16.0029L6.005 16.005C6.00685 16.0068 6.00554 16.01 6.00293 16.01C6.00131 16.01 6 16.0113 6 16.0129V21C6 21.5523 6.44772 22 7 22H17C17.5523 22 18 21.5523 18 21V16.01H17.99L18 16L14 12L18 8.01L17.99 8H18V3C18 2.44772 17.5523 2 17 2H7ZM16 16.5V19C16 19.5523 15.5523 20 15 20H9C8.44772 20 8 19.5523 8 19V16.9142C8 16.649 8.10536 16.3946 8.29289 16.2071L12 12.5L16 16.5ZM12 11.5L8 7.5V5C8 4.44772 8.44772 4 9 4H15C15.5523 4 16 4.44772 16 5V7.5L12 11.5Z" fill="#F4D150"/>
</g>
<defs>
<clipPath id="clip0_3233_149726">
<rect width="24" height="24" fill="white"/>
</clipPath>
</defs>
</svg>
