<svg width="16" height="16" viewBox="0 0 16 16" fill="none" xmlns="http://www.w3.org/2000/svg">
<path fill-rule="evenodd" clip-rule="evenodd" d="M7.99992 2.66634C5.0544 2.66634 2.66659 5.05416 2.66659 7.99967C2.66659 10.9452 5.0544 13.333 7.99992 13.333C10.9454 13.333 13.3333 10.9452 13.3333 7.99967C13.3333 5.05416 10.9454 2.66634 7.99992 2.66634ZM1.33325 7.99967C1.33325 4.31778 4.31802 1.33301 7.99992 1.33301C11.6818 1.33301 14.6666 4.31778 14.6666 7.99967C14.6666 11.6816 11.6818 14.6663 7.99992 14.6663C4.31802 14.6663 1.33325 11.6816 1.33325 7.99967Z" fill="#0082DE"/>
<path d="M6.66667 4.66634C6.3 4.66634 6 4.96634 6 5.33301L6.00333 6.39301C6.00333 6.56967 6.07333 6.73634 6.19667 6.86301L7.33333 7.99967L6.19667 9.14301C6.07333 9.26634 6.00333 9.43634 6.00333 9.61301L6 10.6663C6 11.033 6.3 11.333 6.66667 11.333L9.33333 11.333C9.7 11.333 10 11.033 10 10.6663L10 9.61301C10 9.43634 9.93 9.26634 9.80667 9.13967L8.66667 7.99967L9.80333 6.86634C9.93 6.73968 10 6.56967 10 6.39301L10 5.33301C10 4.96634 9.7 4.66634 9.33333 4.66634L6.66667 4.66634ZM9.33333 9.63634L9.33333 10.333C9.33333 10.5163 9.18333 10.6663 9 10.6663L7 10.6663C6.81667 10.6663 6.66667 10.5163 6.66667 10.333L6.66667 9.63634C6.66667 9.54634 6.70333 9.46301 6.76333 9.39967L8 8.16634L9.23667 9.40301C9.29667 9.46301 9.33333 9.54967 9.33333 9.63634Z" fill="#0082DE"/>
</svg>
