<svg width="14" height="14" viewBox="0 0 14 14" fill="none" xmlns="http://www.w3.org/2000/svg">
<path fill-rule="evenodd" clip-rule="evenodd" d="M6.30078 9.29964C6.30078 8.93145 6.59926 8.63298 6.96745 8.63298H7.03411C7.4023 8.63298 7.70078 8.93145 7.70078 9.29964V9.36631C7.70078 9.7345 7.4023 10.033 7.03411 10.033H6.96745C6.59926 10.033 6.30078 9.7345 6.30078 9.36631V9.29964Z" fill="#0082DE"/>
<path fill-rule="evenodd" clip-rule="evenodd" d="M7.00065 3.29964C7.36884 3.29964 7.66732 3.59812 7.66732 3.96631V7.29964C7.66732 7.66783 7.36884 7.96631 7.00065 7.96631C6.63246 7.96631 6.33398 7.66783 6.33398 7.29964V3.96631C6.33398 3.59812 6.63246 3.29964 7.00065 3.29964Z" fill="#0082DE"/>
<path fill-rule="evenodd" clip-rule="evenodd" d="M7.00065 1.66634C4.05513 1.66634 1.66732 4.05416 1.66732 6.99967C1.66732 9.94519 4.05513 12.333 7.00065 12.333C9.94617 12.333 12.334 9.94519 12.334 6.99967C12.334 4.05416 9.94617 1.66634 7.00065 1.66634ZM0.333984 6.99967C0.333984 3.31778 3.31875 0.333008 7.00065 0.333008C10.6826 0.333008 13.6673 3.31778 13.6673 6.99967C13.6673 10.6816 10.6826 13.6663 7.00065 13.6663C3.31875 13.6663 0.333984 10.6816 0.333984 6.99967Z" fill="#0082DE"/>
</svg>
