<svg width="30" height="30" viewBox="0 0 30 30" fill="none" xmlns="http://www.w3.org/2000/svg">
<g id="&#208;&#152;&#208;&#186;&#208;&#190;&#208;&#189;&#208;&#186;&#208;&#184; &#209;&#129;&#209;&#130;&#208;&#176;&#209;&#130;&#209;&#131;&#209;&#129;&#208;&#190;&#208;&#178; &#208;&#180;&#208;&#190;&#208;&#186;&#209;&#131;&#208;&#188;&#208;&#181;&#208;&#189;&#209;&#130;&#208;&#190;&#208;&#178;">
<g id="Vector">
<path fill-rule="evenodd" clip-rule="evenodd" d="M9.08594 3.23223C9.55478 2.76339 10.1907 2.5 10.8537 2.5H19.1463C19.8093 2.5 20.4452 2.76339 20.9141 3.23223L26.7678 9.08593C27.2366 9.55478 27.5 10.1907 27.5 10.8537V19.1463C27.5 19.8093 27.2366 20.4452 26.7678 20.9141L20.9141 26.7678C20.4452 27.2366 19.8093 27.5 19.1463 27.5H10.8537C10.1907 27.5 9.55478 27.2366 9.08593 26.7678L3.23223 20.9141C2.76339 20.4452 2.5 19.8093 2.5 19.1463V10.8537C2.5 10.1907 2.76339 9.55478 3.23223 9.08594L9.08594 3.23223ZM19.1463 5L10.8537 5L5 10.8537L5 19.1463L10.8537 25L19.1463 25L25 19.1463V10.8537L19.1463 5Z" fill="white"/>
<path fill-rule="evenodd" clip-rule="evenodd" d="M13.6877 19.3124C13.6877 18.6221 14.2474 18.0624 14.9377 18.0624H15.0627C15.7531 18.0624 16.3127 18.6221 16.3127 19.3124V19.4374C16.3127 20.1278 15.7531 20.6874 15.0627 20.6874H14.9377C14.2474 20.6874 13.6877 20.1278 13.6877 19.4374V19.3124Z" fill="white"/>
<path fill-rule="evenodd" clip-rule="evenodd" d="M15 9.31243C15.6903 9.31243 16.25 9.87208 16.25 10.5624V15.5624C16.25 16.2528 15.6903 16.8124 15 16.8124C14.3096 16.8124 13.75 16.2528 13.75 15.5624V10.5624C13.75 9.87208 14.3096 9.31243 15 9.31243Z" fill="white"/>
</g>
</g>
</svg>
