<svg width="57" height="56" viewBox="0 0 57 56" fill="none" xmlns="http://www.w3.org/2000/svg">
<g filter="url(#filter0_d_4142_143121)">
<path d="M28.5206 42.6673C28.5206 42.6673 41.8539 30.8215 41.8539 21.834C41.8539 18.5188 40.4492 15.3394 37.9487 12.9951C35.4482 10.6509 32.0568 9.33398 28.5206 9.33398C24.9844 9.33398 21.593 10.6509 19.0925 12.9951C16.592 15.3394 15.1873 18.5188 15.1873 21.834C15.1873 30.8215 28.5206 42.6673 28.5206 42.6673Z" fill="white"/>
<path d="M28.5206 42.6673C28.5206 42.6673 41.8539 30.8215 41.8539 21.834C41.8539 18.5188 40.4492 15.3394 37.9487 12.9951C35.4482 10.6509 32.0568 9.33398 28.5206 9.33398C24.9844 9.33398 21.593 10.6509 19.0925 12.9951C16.592 15.3394 15.1873 18.5188 15.1873 21.834C15.1873 30.8215 28.5206 42.6673 28.5206 42.6673ZM28.5206 28.084C26.7525 28.084 25.0568 27.4255 23.8065 26.2534C22.5563 25.0813 21.8539 23.4916 21.8539 21.834C21.8539 20.1764 22.5563 18.5867 23.8065 17.4146C25.0568 16.2425 26.7525 15.584 28.5206 15.584C30.2887 15.584 31.9844 16.2425 33.2346 17.4146C34.4849 18.5867 35.1873 20.1764 35.1873 21.834C35.1873 23.4916 34.4849 25.0813 33.2346 26.2534C31.9844 27.4255 30.2887 28.084 28.5206 28.084Z" fill="#0082DE"/>
<rect x="18.5205" y="12" width="20" height="20" rx="10" fill="white"/>
<path d="M33.5073 22.2341C32.4606 19.5141 28.7339 19.3674 29.6339 15.4141C29.7006 15.1207 29.3873 14.8941 29.1339 15.0474C26.7139 16.4741 24.9739 19.3341 26.4339 23.0807C26.5539 23.3874 26.1939 23.6741 25.9339 23.4741C24.7273 22.5607 24.6006 21.2474 24.7073 20.3074C24.7473 19.9607 24.2939 19.7941 24.1006 20.0807C23.6473 20.7741 23.1873 21.8941 23.1873 23.5807C23.4406 27.3141 26.5939 28.4607 27.7273 28.6074C29.3473 28.8141 31.1006 28.5141 32.3606 27.3607C33.7473 26.0741 34.2539 24.0207 33.5073 22.2341Z" fill="white"/>
<path d="M33.5073 22.2341C32.4606 19.5141 28.7339 19.3674 29.6339 15.4141C29.7006 15.1207 29.3873 14.8941 29.1339 15.0474C26.7139 16.4741 24.9739 19.3341 26.4339 23.0807C26.5539 23.3874 26.1939 23.6741 25.9339 23.4741C24.7273 22.5607 24.6006 21.2474 24.7073 20.3074C24.7473 19.9607 24.2939 19.7941 24.1006 20.0807C23.6473 20.7741 23.1873 21.8941 23.1873 23.5807C23.4406 27.3141 26.5939 28.4607 27.7273 28.6074C29.3473 28.8141 31.1006 28.5141 32.3606 27.3607C33.7473 26.0741 34.2539 24.0207 33.5073 22.2341ZM27.3206 25.5874C28.2806 25.3541 28.7739 24.6607 28.9073 24.0474C29.1273 23.0941 28.2673 22.1607 28.8473 20.6541C29.0673 21.9007 31.0273 22.6807 31.0273 24.0407C31.0806 25.7274 29.2539 27.1741 27.3206 25.5874Z" fill="#FF5C00"/>
</g>
<defs>
<filter id="filter0_d_4142_143121" x="0.520508" y="0" width="56" height="56" filterUnits="userSpaceOnUse" color-interpolation-filters="sRGB">
<feFlood flood-opacity="0" result="BackgroundImageFix"/>
<feColorMatrix in="SourceAlpha" type="matrix" values="0 0 0 0 0 0 0 0 0 0 0 0 0 0 0 0 0 0 127 0" result="hardAlpha"/>
<feOffset dy="2"/>
<feGaussianBlur stdDeviation="4"/>
<feComposite in2="hardAlpha" operator="out"/>
<feColorMatrix type="matrix" values="0 0 0 0 0 0 0 0 0 0 0 0 0 0 0 0 0 0 0.15 0"/>
<feBlend mode="normal" in2="BackgroundImageFix" result="effect1_dropShadow_4142_143121"/>
<feBlend mode="normal" in="SourceGraphic" in2="effect1_dropShadow_4142_143121" result="shape"/>
</filter>
</defs>
</svg>
