<svg width="16" height="16" viewBox="0 0 16 16" fill="none" xmlns="http://www.w3.org/2000/svg">
<g id="&#208;&#161;&#209;&#129;&#209;&#139;&#208;&#187;&#208;&#186;&#208;&#176;">
<g id="link-icon">
<path fill-rule="evenodd" clip-rule="evenodd" d="M2.66602 4C2.66602 3.26362 3.26297 2.66667 3.99935 2.66667H6.66602C7.0342 2.66667 7.33268 2.96514 7.33268 3.33333C7.33268 3.70152 7.0342 4 6.66602 4L3.99935 4V12H11.9993V9.33333C11.9993 8.96514 12.2978 8.66667 12.666 8.66667C13.0342 8.66667 13.3327 8.96514 13.3327 9.33333V12C13.3327 12.7364 12.7357 13.3333 11.9993 13.3333H3.99935C3.26297 13.3333 2.66602 12.7364 2.66602 12V4Z" fill="#0082DE"/>
<path fill-rule="evenodd" clip-rule="evenodd" d="M9.33268 2.66667C9.33268 2.29848 9.63116 2 9.99935 2H13.3327C13.5095 2 13.6791 2.07024 13.8041 2.19526C13.9291 2.32029 13.9993 2.48986 13.9993 2.66667V6C13.9993 6.36819 13.7009 6.66667 13.3327 6.66667C12.9645 6.66667 12.666 6.36819 12.666 6V3.33333H9.99935C9.63116 3.33333 9.33268 3.03486 9.33268 2.66667Z" fill="#0082DE"/>
<path fill-rule="evenodd" clip-rule="evenodd" d="M13.8041 2.19526C14.0644 2.45561 14.0644 2.87772 13.8041 3.13807L9.13742 7.80474C8.87707 8.06509 8.45496 8.06509 8.19461 7.80474C7.93426 7.54439 7.93426 7.12228 8.19461 6.86193L12.8613 2.19526C13.1216 1.93491 13.5437 1.93491 13.8041 2.19526Z" fill="#0082DE"/>
</g>
</g>
</svg>
