<svg width="41" height="40" viewBox="0 0 41 40" fill="none" xmlns="http://www.w3.org/2000/svg">
<path d="M20.5206 36.6673C20.5206 36.6673 33.8539 24.8215 33.8539 15.834C33.8539 12.5188 32.4492 9.33935 29.9487 6.99515C27.4482 4.65094 24.0568 3.33398 20.5206 3.33398C16.9844 3.33398 13.593 4.65094 11.0925 6.99515C8.59201 9.33935 7.18726 12.5188 7.18726 15.834C7.18726 24.8215 20.5206 36.6673 20.5206 36.6673Z" fill="white"/>
<path d="M20.5206 36.6673C20.5206 36.6673 33.8539 24.8215 33.8539 15.834C33.8539 12.5188 32.4492 9.33935 29.9487 6.99515C27.4482 4.65094 24.0568 3.33398 20.5206 3.33398C16.9844 3.33398 13.593 4.65094 11.0925 6.99515C8.59201 9.33935 7.18726 12.5188 7.18726 15.834C7.18726 24.8215 20.5206 36.6673 20.5206 36.6673ZM20.5206 22.084C18.7525 22.084 17.0568 21.4255 15.8065 20.2534C14.5563 19.0813 13.8539 17.4916 13.8539 15.834C13.8539 14.1764 14.5563 12.5867 15.8065 11.4146C17.0568 10.2425 18.7525 9.58398 20.5206 9.58398C22.2887 9.58398 23.9844 10.2425 25.2346 11.4146C26.4849 12.5867 27.1873 14.1764 27.1873 15.834C27.1873 17.4916 26.4849 19.0813 25.2346 20.2534C23.9844 21.4255 22.2887 22.084 20.5206 22.084Z" fill="#F4D150"/>
</svg>
