<svg version="1.0" xmlns="http://www.w3.org/2000/svg" width="24.000000pt" height="24.000000pt" viewBox="0 0 512.000000 512.000000" preserveAspectRatio="xMidYMid meet">

<g transform="translate(0.000000,512.000000) scale(0.100000,-0.100000)"
fill="#0082DE" stroke="none">
<path d="M2355 4785 c-476 -78 -872 -390 -1051 -829 -77 -190 -115 -426 -95
-593 44 -363 333 -951 852 -1731 123 -185 409 -593 478 -681 l18 -24 73 99
c204 275 502 715 674 997 412 675 606 1135 606 1440 0 342 -145 683 -399 938
-199 198 -417 315 -696 374 -111 23 -346 28 -460 10z m414 -565 c145 -41 261
-111 367 -222 312 -324 294 -840 -40 -1144 -102 -94 -211 -152 -357 -191 -85
-22 -270 -22 -361 0 -301 74 -532 305 -605 605 -23 98 -21 275 6 377 98 368
430 616 806 601 69 -3 138 -13 184 -26z"/>
<path d="M1939 1295 c-421 -66 -775 -214 -876 -367 -39 -59 -39 -137 0 -196
154 -233 805 -412 1497 -412 692 0 1333 176 1495 410 42 60 42 138 2 198 -99
151 -437 295 -848 362 -188 30 -163 41 -275 -117 -206 -291 -324 -443 -351
-454 -18 -7 -35 -7 -53 1 -26 11 -205 243 -371 482 -84 122 -69 116 -220 93z"/>
</g>
</svg>
