<svg width="16" height="16" viewBox="0 0 16 16" fill="none" xmlns="http://www.w3.org/2000/svg">
<g id="&#208;&#155;&#208;&#190;&#208;&#186;&#208;&#176;&#209;&#134;&#208;&#184;&#209;&#143; &#208;&#188;&#208;&#181;&#209;&#130;&#208;&#186;&#208;&#176; GPS">
<path id="location-icon" d="M7.99996 14.6663C7.99996 14.6663 13.3333 9.92801 13.3333 6.33301C13.3333 5.00693 12.7714 3.73516 11.7712 2.79747C10.771 1.85979 9.41445 1.33301 7.99996 1.33301C6.58547 1.33301 5.22892 1.85979 4.22872 2.79747C3.22853 3.73516 2.66663 5.00693 2.66663 6.33301C2.66663 9.92801 7.99996 14.6663 7.99996 14.6663ZM7.99996 8.83301C7.29272 8.83301 6.61444 8.56962 6.11434 8.10078C5.61424 7.63193 5.33329 6.99605 5.33329 6.33301C5.33329 5.66997 5.61424 5.03408 6.11434 4.56524C6.61444 4.0964 7.29272 3.83301 7.99996 3.83301C8.7072 3.83301 9.38548 4.0964 9.88558 4.56524C10.3857 5.03408 10.6666 5.66997 10.6666 6.33301C10.6666 6.99605 10.3857 7.63193 9.88558 8.10078C9.38548 8.56962 8.7072 8.83301 7.99996 8.83301Z" fill="#9747FF"/>
</g>
</svg>
