<svg width="119" height="40" viewBox="0 0 119 40" fill="none" xmlns="http://www.w3.org/2000/svg">
<path d="M71.9588 25.6506C71.9518 25.1153 72.053 24.584 72.2564 24.0888C72.5499 23.3356 73.0662 22.6899 73.7363 22.2382C74.4064 21.7865 75.1983 21.5502 76.0063 21.5609C76.8072 21.5767 77.5867 21.8228 78.2516 22.2699C78.9166 22.717 79.4388 23.3462 79.7561 24.0822C79.9591 24.5801 80.0624 25.1129 80.0603 25.6506C80.0612 26.1839 79.9558 26.7119 79.7503 27.204C79.5447 27.696 79.2432 28.142 78.8633 28.516C78.4918 28.9104 78.041 29.2217 77.5406 29.4292C77.0481 29.6345 76.5199 29.7403 75.9864 29.7403C75.4529 29.7403 74.9247 29.6345 74.4322 29.4292C73.9324 29.2206 73.4818 28.9095 73.1095 28.516C72.7254 28.1399 72.4217 27.6896 72.2167 27.1925C72.0308 26.7003 71.9432 26.1765 71.9588 25.6506Z" fill="white"/>
<path d="M89.511 9.09343V14.1559C89.774 13.0314 90.2209 11.9581 90.8337 10.9794C91.2629 10.2564 91.874 9.65863 92.6061 9.24563C93.2389 8.93468 93.9264 8.75035 94.6298 8.70299C95.3464 8.64913 96.0645 8.78373 96.713 9.09343V14.9367C94.6563 14.1294 92.9434 14.05 91.5678 14.6853C90.9142 14.97 90.3653 15.4509 89.9968 16.0615C89.6283 16.672 89.4586 17.382 89.511 18.0933V29.3432H83.334V9.08681L89.511 9.09343Z" fill="white"/>
<path d="M98.8426 20.7007V9.09343H105.013V20.7007C104.993 21.1516 105.065 21.6021 105.225 22.0242C105.393 22.432 105.643 22.8012 105.959 23.1094C106.298 23.4228 106.696 23.6655 107.129 23.8234C107.563 23.9814 108.024 24.0513 108.485 24.0293C109.398 24.0554 110.284 23.7255 110.958 23.1094C111.289 22.799 111.549 22.4207 111.721 22.0004C111.892 21.58 111.97 21.1276 111.95 20.6742V9.09343H118.121V20.7007C118.163 21.9205 117.942 23.1351 117.472 24.2612C117.001 25.3874 116.293 26.3986 115.396 27.2256C113.446 28.8488 110.989 29.7376 108.452 29.7376C105.915 29.7376 103.458 28.8488 101.508 27.2256C100.628 26.3888 99.9376 25.3739 99.4815 24.2487C99.0253 23.1236 98.8142 21.9139 98.8624 20.7007" fill="white"/>
<path d="M26.2911 5.8098C26.249 6.02217 26.2924 6.24248 26.4118 6.42344L27.9813 8.81796C28.9874 10.3587 29.752 11.0191 31.6771 11.0191C32.2069 11.0191 34.8496 10.8723 34.8496 8.09093V2.57486C34.8492 2.42071 34.7892 2.27264 34.6819 2.16132C34.5739 2.05501 34.4281 1.99537 34.2761 1.99537C34.1242 1.99537 33.9784 2.05501 33.8704 2.16132C33.7629 2.27307 33.7008 2.42035 33.696 2.57486V5.09611C33.6958 5.16736 33.6696 5.23611 33.6222 5.28954C33.5702 5.34021 33.5005 5.3689 33.4277 5.36958C33.3914 5.37078 33.3553 5.36427 33.3217 5.35046C33.2882 5.33666 33.258 5.31589 33.2332 5.28954C33.2073 5.26436 33.1869 5.23424 33.173 5.201C33.1592 5.16776 33.1523 5.13208 33.1527 5.09611V1.49432C33.1519 1.34221 33.0918 1.19635 32.985 1.08745C32.9312 1.03426 32.8673 0.992157 32.7971 0.963543C32.7269 0.934929 32.6517 0.920371 32.5758 0.920702C32.4229 0.921466 32.2762 0.981249 32.1667 1.08745C32.1132 1.14097 32.0709 1.20446 32.0421 1.27427C32.0133 1.34409 31.9987 1.41887 31.999 1.49432V4.66256C31.999 4.71667 31.9829 4.76956 31.9527 4.81455C31.9225 4.85955 31.8795 4.89462 31.8293 4.91532C31.779 4.93603 31.7237 4.94145 31.6703 4.93089C31.617 4.92032 31.568 4.89426 31.5295 4.85599C31.4802 4.80321 31.4516 4.73455 31.449 4.66256V1.09412C31.4514 1.0144 31.4378 0.935004 31.409 0.860565C31.3803 0.786126 31.3368 0.718138 31.2813 0.660573C31.1733 0.554263 31.0275 0.494629 30.8755 0.494629C30.7236 0.494629 30.5777 0.554263 30.4697 0.660573C30.3607 0.771229 30.2983 0.919182 30.2953 1.07411V4.66256C30.2957 4.69853 30.2888 4.73421 30.275 4.76745C30.2611 4.8007 30.2407 4.83081 30.2149 4.85599C30.1908 4.88149 30.1617 4.90177 30.1294 4.91554C30.0971 4.92932 30.0622 4.93629 30.0271 4.93603C29.9908 4.93723 29.9546 4.93072 29.9211 4.91691C29.8876 4.90311 29.8574 4.88234 29.8325 4.85599C29.8067 4.83081 29.7863 4.8007 29.7724 4.76745C29.7586 4.73421 29.7517 4.69853 29.7521 4.66256V1.94788C29.7516 1.79374 29.6916 1.64567 29.5844 1.53434C29.4752 1.42761 29.3283 1.36781 29.1752 1.36781C29.0222 1.36781 28.8752 1.42761 28.7661 1.53434C28.6589 1.64567 28.5988 1.79374 28.5984 1.94788V7.0104L27.6258 5.6764C27.5247 5.50469 27.3604 5.37879 27.1677 5.32528C26.9749 5.27176 26.7688 5.29482 26.5929 5.38959C26.5171 5.43952 26.4512 5.50281 26.3984 5.57635C26.3461 5.65052 26.3096 5.73448 26.2911 5.82314" fill="white"/>
<path d="M52.4968 14.8776V9.19966H58.6469V39.4666H52.4968V23.8971C52.0462 25.5931 51.1325 27.1269 49.8601 28.3237C48.707 29.3923 47.1931 29.9757 45.6282 29.9545C44.4712 29.9632 43.329 29.6922 42.297 29.1642C41.2649 28.6361 40.3729 27.8664 39.6956 26.9192C38.0796 24.7534 37.2468 22.0942 37.3357 19.384C37.2444 16.6695 38.0721 14.0045 39.6824 11.829C40.3559 10.8777 41.247 10.1049 42.28 9.57642C43.313 9.04791 44.4571 8.77935 45.615 8.79362C47.1926 8.77021 48.7191 9.35866 49.8799 10.4378C51.1523 11.6345 52.066 13.1684 52.5166 14.8643L52.4968 14.8776ZM47.9353 24.2566C48.5475 24.276 49.1567 24.1625 49.7217 23.9238C50.2874 23.6881 50.7974 23.3342 51.218 22.8853C52.0974 21.9448 52.5715 20.6904 52.5364 19.3974C52.5582 18.7576 52.4552 18.1198 52.2331 17.5202C52.0125 16.9224 51.6764 16.3748 51.2444 15.9094C50.8241 15.456 50.3124 15.099 49.7438 14.8624C49.1753 14.6259 48.563 14.5153 47.9485 14.5381C47.3835 14.53 46.8242 14.653 46.3137 14.8976C45.8043 15.1392 45.3541 15.4915 44.9954 15.9293C44.1628 16.885 43.722 18.1251 43.7627 19.3974C43.7233 20.6694 44.1639 21.909 44.9954 22.8654C45.3541 23.3032 45.8043 23.6556 46.3137 23.8971C46.8223 24.1336 47.3754 24.2562 47.9353 24.2566Z" fill="#7FFF5D"/>
<path d="M31.5614 12.7875C30.4891 12.7987 29.4356 12.5033 28.5226 11.9355V20.8751C28.5384 21.3268 28.4584 21.7767 28.2879 22.1946C28.1173 22.6125 27.8602 22.9888 27.5338 23.298C26.8604 23.9188 25.9731 24.2486 25.0619 24.2166C24.6029 24.239 24.1441 24.1693 23.7119 24.0116C23.2797 23.854 22.8827 23.6114 22.5438 23.298C22.2274 22.978 21.9804 22.5949 21.8187 22.1731C21.6592 21.7485 21.5874 21.2955 21.6078 20.8418V9.193H15.4511V20.8751C15.4077 22.0986 15.624 23.3172 16.0856 24.4493C16.5472 25.5813 17.2434 26.6005 18.1273 27.4384C20.0183 29.1703 22.5118 30.075 25.0619 29.9545C27.6049 30.0517 30.0853 29.1444 31.9766 27.4251C32.8697 26.5948 33.5751 25.58 34.0448 24.4497C34.5146 23.3195 34.7377 22.1003 34.699 20.8751V11.8889C33.7707 12.488 32.6894 12.8004 31.5877 12.7875" fill="#7FFF5D"/>
<path d="M6.15012 9.19966V14.2919C6.41544 13.1618 6.86068 12.0827 7.46847 11.0968C7.89455 10.3681 8.50406 9.76641 9.23506 9.35276C9.86583 9.03998 10.551 8.85457 11.2521 8.80693C11.9663 8.75276 12.6822 8.88815 13.3285 9.19966V15.0773C11.2785 14.2652 9.57124 14.1854 8.20015 14.8244C7.55 15.1118 7.00424 15.596 6.63822 16.21C6.27219 16.8241 6.10394 17.5377 6.15671 18.2524V29.5684H0V9.193L6.15012 9.19966Z" fill="#7FFF5D"/>
<path d="M61.9428 3.70808C61.9416 3.22166 62.0357 2.7398 62.2197 2.29025C62.4095 1.83964 62.6901 1.43387 63.0436 1.09875C63.3714 0.747625 63.766 0.466892 64.2038 0.273344C64.6461 0.0864995 65.1218 -0.00639984 65.6012 0.000428786C66.0814 -0.00724048 66.5577 0.0880479 66.9987 0.28C67.4441 0.467055 67.846 0.745913 68.1786 1.09875C68.5249 1.43913 68.7988 1.84727 68.9836 2.29822C69.1683 2.74916 69.26 3.23343 69.2531 3.72139C69.2543 4.20781 69.1602 4.68967 68.9762 5.13922C68.7918 5.58616 68.5206 5.99129 68.1786 6.33073C67.8488 6.68685 67.4496 6.97009 67.006 7.16257C66.5623 7.35504 66.084 7.45257 65.6012 7.44901C65.1215 7.45142 64.6465 7.35328 64.2063 7.16079C63.766 6.96831 63.3701 6.68566 63.0436 6.33073C62.6997 5.99155 62.4263 5.58647 62.2394 5.13922C62.0554 4.68967 61.9614 4.20781 61.9626 3.72139L61.9428 3.70808ZM68.673 29.5884H62.5361V9.19966H68.6862L68.673 29.5884Z" fill="#7FFF5D"/>
</svg>
