<svg width="180" height="63" viewBox="0 0 180 63" fill="none" xmlns="http://www.w3.org/2000/svg">
<path d="M109.46 38.9957C109.449 38.1819 109.603 37.3743 109.911 36.6215C110.356 35.4763 111.139 34.4947 112.155 33.808C113.171 33.1212 114.371 32.762 115.596 32.7783C116.811 32.8023 117.993 33.1765 119.001 33.8562C120.009 34.5359 120.801 35.4924 121.282 36.6114C121.589 37.3682 121.746 38.1783 121.743 38.9957C121.744 39.8064 121.585 40.6093 121.273 41.3573C120.961 42.1053 120.504 42.7834 119.928 43.3519C119.365 43.9516 118.681 44.4248 117.923 44.7403C117.176 45.0524 116.375 45.2131 115.566 45.2131C114.757 45.2131 113.957 45.0524 113.21 44.7403C112.452 44.4232 111.769 43.9502 111.204 43.3519C110.622 42.7801 110.162 42.0956 109.851 41.3398C109.569 40.5916 109.436 39.7952 109.46 38.9957Z" fill="white"/>
<path d="M136.072 13.8243V21.5206C136.471 19.8111 137.148 18.1794 138.077 16.6916C138.728 15.5924 139.655 14.6836 140.764 14.0557C141.724 13.583 142.766 13.3028 143.833 13.2307C144.919 13.1489 146.008 13.3535 146.991 13.8243V22.7078C143.873 21.4804 141.276 21.3596 139.19 22.3255C138.199 22.7583 137.367 23.4894 136.808 24.4176C136.25 25.3458 135.992 26.4252 136.072 27.5066V44.6095H126.706V13.8143L136.072 13.8243Z" fill="white"/>
<path d="M150.22 31.4705V13.8243H159.575V31.4705C159.544 32.1561 159.654 32.8409 159.896 33.4826C160.152 34.1025 160.531 34.6639 161.009 35.1325C161.523 35.6089 162.127 35.9779 162.784 36.218C163.442 36.458 164.141 36.5644 164.84 36.5309C166.223 36.5706 167.568 36.0691 168.59 35.1325C169.092 34.6605 169.486 34.0854 169.745 33.4464C170.005 32.8074 170.124 32.1196 170.094 31.4302V13.8243H179.449V31.4705C179.514 33.3249 179.178 35.1714 178.465 36.8835C177.752 38.5957 176.678 40.1329 175.318 41.3901C172.361 43.8579 168.636 45.2091 164.79 45.2091C160.943 45.2091 157.218 43.8579 154.261 41.3901C152.928 40.118 151.88 38.5751 151.189 36.8645C150.497 35.154 150.177 33.315 150.25 31.4705" fill="white"/>
<path d="M40.221 8.83246C40.1573 9.15533 40.223 9.49026 40.4041 9.76536L42.7837 13.4057C44.3092 15.7481 45.4685 16.752 48.3871 16.752C49.1905 16.752 53.1973 16.5289 53.1973 12.3004V3.91447C53.1966 3.68013 53.1056 3.45502 52.943 3.28578C52.7793 3.12416 52.5582 3.0335 52.3278 3.0335C52.0974 3.0335 51.8763 3.12416 51.7125 3.28578C51.5497 3.45567 51.4555 3.67957 51.4481 3.91447V7.74746C51.4479 7.85577 51.4081 7.96029 51.3363 8.04153C51.2574 8.11856 51.1517 8.16217 51.0413 8.16321C50.9863 8.16504 50.9316 8.15513 50.8807 8.13414C50.8298 8.11316 50.7841 8.08158 50.7464 8.04153C50.7073 8.00325 50.6762 7.95746 50.6553 7.90693C50.6343 7.85639 50.6238 7.80215 50.6244 7.74746V2.27176C50.6232 2.04051 50.5321 1.81875 50.3702 1.65321C50.2886 1.57234 50.1918 1.50833 50.0853 1.46483C49.9789 1.42133 49.8649 1.3992 49.7498 1.3997C49.5179 1.40086 49.2955 1.49175 49.1295 1.65321C49.0484 1.73457 48.9842 1.83108 48.9406 1.93723C48.8969 2.04337 48.8747 2.15705 48.8752 2.27176V7.08835C48.8753 7.1706 48.8508 7.25102 48.805 7.31942C48.7592 7.38782 48.6941 7.44113 48.6179 7.47261C48.5417 7.5041 48.4578 7.51233 48.3769 7.49627C48.296 7.48022 48.2217 7.44059 48.1634 7.38241C48.0886 7.30217 48.0453 7.1978 48.0413 7.08835V1.66335C48.045 1.54215 48.0244 1.42144 47.9808 1.30828C47.9371 1.19511 47.8713 1.09175 47.7871 1.00423C47.6234 0.842613 47.4023 0.751953 47.1719 0.751953C46.9415 0.751953 46.7204 0.842613 46.5566 1.00423C46.3912 1.17246 46.2966 1.39739 46.2922 1.63293V7.08835C46.2928 7.14304 46.2823 7.19728 46.2613 7.24781C46.2403 7.29835 46.2093 7.34413 46.1702 7.38241C46.1337 7.42119 46.0896 7.45201 46.0406 7.47295C45.9916 7.49389 45.9387 7.5045 45.8854 7.5041C45.8304 7.50593 45.7756 7.49602 45.7248 7.47503C45.6739 7.45405 45.6281 7.42247 45.5905 7.38241C45.5513 7.34413 45.5203 7.29835 45.4994 7.24781C45.4784 7.19728 45.4679 7.14304 45.4685 7.08835V2.96129C45.4678 2.72695 45.3768 2.50184 45.2142 2.3326C45.0488 2.17035 44.826 2.07942 44.5939 2.07942C44.3618 2.07942 44.139 2.17035 43.9736 2.3326C43.811 2.50184 43.72 2.72695 43.7193 2.96129V10.6577L42.2448 8.62966C42.0914 8.36862 41.8423 8.17721 41.5501 8.09585C41.2579 8.0145 40.9454 8.04956 40.6787 8.19363C40.5638 8.26953 40.4638 8.36576 40.3837 8.47755C40.3045 8.59031 40.2492 8.71796 40.221 8.85274" fill="white"/>
<path d="M4.07703 52.314C4.49641 52.3117 4.91097 52.4052 5.2902 52.5878C5.67673 52.7657 6.01723 53.033 6.28459 53.3687C6.85153 54.1047 7.1597 55.0135 7.1597 55.9494C7.1597 56.8853 6.85153 57.7941 6.28459 58.5301C6.01689 58.8629 5.67627 59.1269 5.2902 59.3008C4.91141 59.4837 4.49602 59.5739 4.07703 59.5644C3.4746 59.5734 2.88774 59.3691 2.41639 58.9864C1.93855 58.5754 1.59223 58.028 1.42199 57.4147V62.1807H0V52.456H1.39216V54.4841C1.5624 53.8707 1.90872 53.3233 2.38655 52.9123C2.86353 52.5164 3.46208 52.3046 4.07703 52.314ZM3.61961 58.2462C3.90048 58.2484 4.17862 58.1899 4.43571 58.0745C4.69281 57.9591 4.92302 57.7896 5.1112 57.5769C5.50269 57.1248 5.71874 56.5424 5.71874 55.9392C5.71874 55.3361 5.50269 54.7537 5.1112 54.3016C4.92121 54.0909 4.69114 53.9218 4.43501 53.8047C4.17661 53.6955 3.89932 53.6403 3.61961 53.6424C3.31796 53.6322 3.01749 53.6855 2.73691 53.7989C2.45634 53.9123 2.20167 54.0834 1.9888 54.3016C1.7803 54.5191 1.61784 54.7779 1.51148 55.0621C1.40273 55.3426 1.35195 55.6429 1.36232 55.9443C1.352 56.249 1.40276 56.5527 1.51148 56.8367C1.62162 57.1159 1.78371 57.3707 1.9888 57.5871C2.19819 57.8015 2.448 57.9704 2.72315 58.0837C2.9983 58.1969 3.2931 58.2522 3.58978 58.2462H3.61961Z" fill="white"/>
<path d="M11.2268 52.3141C11.946 52.2819 12.6523 52.516 13.2155 52.9732C13.4757 53.2069 13.6798 53.4983 13.8122 53.825C13.9489 54.1438 14.007 54.492 13.9812 54.839V59.4123H12.5891V57.5769C12.48 58.1637 12.1681 58.691 11.7101 59.0632C11.2521 59.4353 10.6783 59.6276 10.0931 59.605C9.55607 59.6253 9.03216 59.4327 8.63137 59.0676C8.43806 58.8907 8.28528 58.6726 8.18389 58.4287C8.08332 58.1851 8.03582 57.9222 8.04468 57.658C8.03093 57.362 8.08542 57.0668 8.20378 56.7961C8.32598 56.52 8.514 56.2795 8.7507 56.0964C9.27744 55.731 9.88641 55.5077 10.5207 55.4474L11.8333 55.3156C12.3305 55.3156 12.5791 55.0418 12.5791 54.6362C12.5901 54.4819 12.5591 54.3275 12.4896 54.19C12.4288 54.049 12.3328 53.9266 12.2112 53.8351C11.9238 53.6203 11.5727 53.5128 11.2168 53.5309C10.8404 53.5206 10.4707 53.6344 10.1627 53.8554C9.87124 54.0933 9.67642 54.4329 9.61583 54.8086L8.23361 54.474C8.29464 54.1572 8.41264 53.8546 8.58165 53.5816C8.7497 53.3156 8.96974 53.0877 9.22801 52.9123C9.81459 52.5096 10.51 52.304 11.2168 52.3242L11.2268 52.3141ZM10.5207 58.3983C10.796 58.4084 11.0702 58.36 11.3262 58.2563C11.8221 58.0492 12.2257 57.6629 12.4598 57.1713C12.5596 56.9343 12.6104 56.6788 12.609 56.4209V56.0964C12.5095 56.2789 12.241 56.3905 11.8433 56.4412L10.5605 56.6034C10.2708 56.6324 9.99337 56.7372 9.75504 56.9077C9.65774 56.9824 9.57933 57.0797 9.52633 57.1916C9.47386 57.3055 9.44994 57.431 9.45672 57.5566C9.45482 57.6819 9.47853 57.8063 9.52633 57.9217C9.58224 58.0345 9.66006 58.1346 9.75504 58.2158C9.98913 58.3868 10.2728 58.4725 10.5605 58.4591" fill="white"/>
<path d="M19.3013 52.598C19.7087 52.5865 20.1134 52.6697 20.4846 52.8414C20.8656 53.0102 21.2052 53.263 21.479 53.5816C22.064 54.2455 22.3772 55.1129 22.3541 56.0052C22.3661 56.4775 22.2815 56.9472 22.1055 57.3843C21.9345 57.8216 21.6773 58.2186 21.3497 58.5504C21.0171 58.885 20.6213 59.1472 20.1863 59.3211C19.7538 59.4982 19.2897 59.5811 18.8239 59.5644C18.35 59.5801 17.8781 59.4934 17.4394 59.3099C17.0006 59.1264 16.6049 58.8503 16.2783 58.4997C15.937 58.1188 15.6734 57.6726 15.5026 57.1869C15.3319 56.7012 15.2576 56.1858 15.2839 55.6705C15.2195 54.4391 15.3883 53.2066 15.7811 52.0403C16.0831 51.2042 16.6882 50.5182 17.4716 50.1237C18.1641 49.8201 18.8989 49.6285 19.6493 49.5559C20.3993 49.4825 21.1435 49.3572 21.8768 49.1807V50.4888C21.2467 50.663 20.6054 50.7917 19.9576 50.8741C19.3211 50.9325 18.6955 51.0792 18.098 51.3101C17.223 51.7259 16.7556 52.8211 16.7059 54.5956C16.8781 54.0524 17.2031 53.5728 17.6406 53.2165C18.0987 52.8056 18.6913 52.5849 19.3013 52.598ZM17.3125 57.6682C17.5088 57.8708 17.7418 58.0327 17.9986 58.1448C18.2556 58.2458 18.5287 58.2974 18.8041 58.2969C19.0741 58.2894 19.3405 58.2309 19.5896 58.1245C19.8464 58.0124 20.0795 57.8506 20.2758 57.6479C20.4738 57.4513 20.6266 57.2123 20.7232 56.9482C20.8381 56.68 20.8924 56.3889 20.8824 56.0964C20.8928 55.8108 20.8461 55.5259 20.7453 55.2592C20.6444 54.9925 20.4914 54.7495 20.2957 54.5449C20.1111 54.3421 19.8877 54.1799 19.6394 54.0683C19.3922 53.9575 19.1236 53.9055 18.8538 53.9162C18.5689 53.9071 18.2851 53.9553 18.0185 54.0582C17.7526 54.1698 17.5097 54.3314 17.3025 54.5348C17.1011 54.7387 16.9425 54.9823 16.8365 55.2508C16.7305 55.5193 16.6793 55.8071 16.686 56.0964C16.677 56.3803 16.7244 56.6632 16.8252 56.9279C16.9281 57.1912 17.0839 57.4295 17.2826 57.6276" fill="white"/>
<path d="M24.4125 58.5301C24.0766 58.1972 23.8124 57.7966 23.6368 57.3538C23.2922 56.4505 23.2922 55.4483 23.6368 54.5449C23.8124 54.1022 24.0766 53.7015 24.4125 53.3687C24.7494 53.0224 25.1521 52.7498 25.5958 52.5676C26.0359 52.3918 26.5055 52.3057 26.978 52.314C27.4504 52.3075 27.9197 52.3936 28.3602 52.5676C28.7996 52.7525 29.1985 53.0248 29.5336 53.3687C29.8716 53.6998 30.136 54.1009 30.3092 54.5449C30.6539 55.4483 30.6539 56.4505 30.3092 57.3538C29.9254 58.2481 29.2105 58.9515 28.3204 59.3109C27.4316 59.6455 26.4548 59.6455 25.566 59.3109C25.1214 59.1397 24.718 58.8735 24.3826 58.5301H24.4125ZM25.4069 54.3117C25.1984 54.5292 25.0359 54.7881 24.9296 55.0722C24.7308 55.6429 24.7308 56.266 24.9296 56.8367C25.0361 57.1177 25.1986 57.3733 25.4069 57.5871C25.5996 57.8036 25.8374 57.9734 26.1029 58.0839C26.3683 58.1932 26.6521 58.2483 26.9382 58.2462C27.2449 58.2695 27.5529 58.228 27.8431 58.1245C28.106 58.009 28.3428 57.8399 28.5392 57.6276C28.7453 57.4121 28.9075 57.157 29.0165 56.8772C29.2025 56.3009 29.2025 55.679 29.0165 55.1027C28.9102 54.8185 28.7477 54.5596 28.5392 54.3421C28.3428 54.1298 28.106 53.9607 27.8431 53.8452C27.5757 53.7311 27.2877 53.6758 26.9979 53.683C26.7117 53.6809 26.4279 53.736 26.1626 53.8452C25.8971 53.9558 25.6592 54.1255 25.4665 54.3421" fill="white"/>
<path d="M34.7144 59.4326H33.3223V53.7236H30.9854V52.456H37.0314V53.7236H34.7144V59.4326Z" fill="white"/>
<path d="M40.5714 52.3141C41.2906 52.2819 41.997 52.516 42.5602 52.9732C42.8203 53.2069 43.0245 53.4983 43.1569 53.825C43.2923 54.1444 43.3535 54.4915 43.3359 54.839V59.4123H41.9437V57.5769C41.8303 58.1653 41.5145 58.6931 41.0532 59.0649C40.5919 59.4368 40.0155 59.6283 39.4279 59.605C38.894 59.6237 38.3738 59.4312 37.976 59.0676C37.7827 58.8907 37.63 58.6726 37.5286 58.4287C37.428 58.1851 37.3805 57.9222 37.3894 57.658C37.3708 57.3617 37.4255 57.0653 37.5485 56.7961C37.6767 56.5295 37.8639 56.2969 38.0954 56.1167C38.6294 55.7544 39.2457 55.538 39.8853 55.488L41.1979 55.346C41.6951 55.346 41.9437 55.0824 41.9437 54.6666C41.9437 54.5133 41.9133 54.3615 41.8542 54.2204C41.7894 54.0789 41.6901 53.9567 41.5658 53.8655C41.2804 53.6468 40.9278 53.5389 40.5714 53.5613C40.1978 53.5488 39.8306 53.6629 39.5273 53.8858C39.2299 54.12 39.0308 54.4608 38.9704 54.839L37.5982 54.5044C37.6494 54.1895 37.7646 53.889 37.9363 53.6222C38.1041 53.3532 38.3241 53.122 38.5826 52.9428C39.1686 52.5388 39.8644 52.333 40.5714 52.3546V52.3141ZM39.8952 58.3983C40.1639 58.4073 40.4315 58.359 40.6808 58.2563C40.9323 58.1489 41.1618 57.9941 41.357 57.8C41.5473 57.6266 41.6968 57.4117 41.7945 57.1713C41.8975 56.9349 41.9516 56.6795 41.9536 56.4209V56.0964C41.856 56.2071 41.7377 56.2967 41.6056 56.3601C41.4688 56.4123 41.3241 56.4398 41.178 56.4412L39.8952 56.6034C39.6055 56.6324 39.3281 56.7372 39.0898 56.9077C38.998 56.9855 38.9235 57.0823 38.871 57.1916C38.8163 57.305 38.789 57.4302 38.7915 57.5566C38.7918 57.6819 38.8187 57.8056 38.8702 57.9194C38.9216 58.0331 38.9965 58.1342 39.0898 58.2158C39.3306 58.3675 39.6134 58.4352 39.8952 58.4084V58.3983Z" fill="white"/>
<path d="M55.1791 52.456V58.1245H56.1039V61.3694H54.7814V59.3414H49.4713V61.3694H48.1388V58.1245H48.8846C49.1737 57.7751 49.3872 57.3673 49.5111 56.9279C49.6429 56.2607 49.6996 55.5802 49.6801 54.8999V52.456H55.1791ZM50.3364 58.1245H53.7671V53.7236H50.9828V54.9506C50.9999 55.6296 50.9532 56.3087 50.8436 56.9786C50.7629 57.3952 50.5894 57.7873 50.3364 58.1245Z" fill="white"/>
<path d="M56.6807 59.534H56.5812V58.2563H56.7503C56.9993 58.2759 57.2491 58.2305 57.4762 58.1245C57.6868 57.9695 57.8296 57.7365 57.874 57.4755C57.9928 56.9746 58.043 56.4593 58.0231 55.9443V52.4357H63.6415V59.4123H62.2493V53.7033H59.2661V55.9342C59.3431 56.8906 59.1351 57.8483 58.6695 58.6822C58.4141 58.9788 58.0936 59.2096 57.7342 59.3558C57.3748 59.5021 56.9865 59.5597 56.6011 59.5239" fill="white"/>
<path d="M67.5097 52.456H71V59.4326H69.6078V56.9279H68.3947L66.565 59.4326H64.9541L66.8434 56.8468C66.3694 56.7389 65.9431 56.4753 65.6302 56.0964C65.3191 55.7044 65.1567 55.2113 65.1728 54.7072C65.1554 54.4011 65.2032 54.0949 65.3131 53.8095C65.423 53.5241 65.5922 53.2665 65.8092 53.0543C66.2754 52.6291 66.8846 52.4038 67.5097 52.4256V52.456ZM67.619 55.6705H69.6078V53.7438H67.619C67.4898 53.7422 67.3614 53.7663 67.2412 53.8148C67.1165 53.8637 67.0018 53.936 66.9031 54.0278C66.8136 54.1212 66.7427 54.2314 66.6943 54.3523C66.6364 54.5248 66.6253 54.7101 66.6621 54.8885C66.6988 55.067 66.7821 55.232 66.9031 55.3663C66.9997 55.4586 67.1152 55.5278 67.2412 55.5691C67.3606 55.6197 67.4901 55.6405 67.619 55.63" fill="white"/>
<path d="M96.7158 58.12C96.3804 57.801 96.1159 57.4184 95.9387 56.9959C95.7575 56.5729 95.6726 56.1167 95.6896 55.6587C95.6766 55.1978 95.7614 54.7393 95.9387 54.3117C96.1238 53.8841 96.3957 53.4973 96.7381 53.1742C97.0804 52.8512 97.4863 52.5987 97.9313 52.4318C98.3709 52.2593 98.8423 52.1768 99.3162 52.1895C100.024 52.1759 100.719 52.3719 101.309 52.7516C101.889 53.1231 102.335 53.6619 102.584 54.2923L101.299 54.7187C101.142 54.3291 100.872 53.9923 100.522 53.7497C100.169 53.527 99.7563 53.4123 99.3361 53.4202C99.0485 53.4076 98.7619 53.4607 98.4992 53.5752C98.2296 53.6796 97.9878 53.8419 97.7918 54.0501C97.5831 54.2525 97.4232 54.4974 97.3236 54.7672C97.2146 55.0386 97.1638 55.3287 97.1741 55.6199C97.1637 55.9079 97.2146 56.195 97.3236 56.463C97.4232 56.7327 97.5831 56.9777 97.7918 57.1801C97.9905 57.3851 98.2316 57.547 98.4992 57.6549C98.7634 57.7647 99.0489 57.8175 99.3361 57.8099C99.7564 57.8191 100.17 57.7042 100.522 57.4805C100.879 57.245 101.151 56.9059 101.299 56.5114L102.584 56.9475C102.332 57.5766 101.887 58.1148 101.309 58.4883C100.716 58.8606 100.022 59.0529 99.3162 59.0406C98.843 59.0567 98.3715 58.9775 97.9313 58.8081C97.4836 58.6587 97.0705 58.4249 96.7158 58.12Z" fill="white"/>
<path d="M106.569 52.1895C107.288 52.162 107.993 52.3816 108.562 52.8097C108.822 53.033 109.027 53.3115 109.16 53.6237C109.296 53.9286 109.354 54.2611 109.329 54.5927V58.9825H107.954V57.2091C107.841 57.7697 107.526 58.2727 107.066 58.6279C106.606 58.983 106.03 59.1672 105.443 59.1472C104.896 59.1587 104.367 58.9603 103.969 58.5949C103.775 58.4258 103.622 58.2174 103.521 57.9844C103.322 57.4823 103.322 56.9263 103.521 56.4242C103.649 56.1724 103.837 55.9533 104.068 55.7846C104.603 55.4354 105.22 55.2252 105.862 55.1742L107.177 55.0482C107.675 55.0482 107.924 54.7865 107.924 54.3892C107.924 54.2427 107.894 54.0976 107.835 53.9629C107.766 53.8297 107.667 53.7137 107.546 53.6237C107.256 53.4218 106.905 53.3196 106.549 53.333C106.17 53.3209 105.798 53.4335 105.493 53.6528C105.193 53.8746 104.993 54.2012 104.935 54.5637L103.56 54.2342C103.679 53.6292 104.037 53.0934 104.557 52.7419C105.143 52.3543 105.841 52.1606 106.549 52.1895H106.569ZM105.892 58.0037C106.161 58.0124 106.429 57.9662 106.679 57.8681C106.929 57.7712 107.156 57.6262 107.346 57.4417C107.532 57.2699 107.684 57.0662 107.795 56.8409C107.894 56.6108 107.945 56.3637 107.944 56.1141V55.7459C107.85 55.8558 107.731 55.9422 107.595 55.9978C107.463 56.0527 107.321 56.0792 107.177 56.0754L105.892 56.2304C105.601 56.2581 105.324 56.3583 105.085 56.5211C104.985 56.5941 104.906 56.6909 104.856 56.8021C104.808 56.909 104.784 57.0247 104.786 57.1413C104.781 57.2623 104.809 57.3824 104.866 57.4902C104.918 57.5975 104.993 57.6932 105.085 57.7712C105.318 57.9374 105.603 58.0197 105.892 58.0037Z" fill="white"/>
<path d="M118.804 52.3252V58.9825H117.548V52.5868L115.924 58.9825H113.633L112.039 52.5868V58.9825H110.794V52.3252H113.215L114.779 58.6336L116.343 52.3252H118.804Z" fill="white"/>
<path d="M121.135 58.12C120.649 57.6217 120.317 56.9994 120.18 56.3253C120.042 55.6512 120.104 54.953 120.358 54.3117C120.534 53.8886 120.799 53.5057 121.135 53.1876C121.473 52.8596 121.877 52.6023 122.321 52.4318C122.76 52.2593 123.232 52.1768 123.706 52.1895C124.179 52.1784 124.65 52.2608 125.09 52.4318C125.53 52.6049 125.93 52.8619 126.266 53.1876C126.605 53.5054 126.873 53.8881 127.053 54.3117C127.226 54.7406 127.31 55.1982 127.302 55.6587C127.314 56.1163 127.229 56.5715 127.053 56.9959C126.876 57.4209 126.608 57.8042 126.266 58.12C125.93 58.4457 125.53 58.7027 125.09 58.8759C124.65 59.0438 124.179 59.1229 123.706 59.1085C123.232 59.1245 122.761 59.0453 122.321 58.8759C121.877 58.7053 121.473 58.4481 121.135 58.12ZM122.131 54.0888C121.924 54.2962 121.765 54.5439 121.663 54.8156C121.45 55.3619 121.45 55.9651 121.663 56.5114C121.773 56.7822 121.94 57.0279 122.153 57.233C122.365 57.4381 122.619 57.5982 122.899 57.7033C123.164 57.8085 123.449 57.8612 123.735 57.8584C124.022 57.8604 124.306 57.8078 124.572 57.7033C124.84 57.5954 125.081 57.4336 125.28 57.2285C125.483 57.0221 125.642 56.7784 125.748 56.5114C125.947 55.9627 125.947 55.3643 125.748 54.8156C125.646 54.5439 125.487 54.2962 125.28 54.0888C125.081 53.8838 124.84 53.7219 124.572 53.614C124.306 53.5096 124.022 53.4569 123.735 53.459C123.445 53.4569 123.158 53.5095 122.889 53.614C122.615 53.7208 122.367 53.8826 122.161 54.0888H122.131Z" fill="white"/>
<path d="M131.795 55.649C132.342 55.6773 132.866 55.8742 133.29 56.211C133.447 56.3369 133.574 56.4959 133.659 56.6762C133.741 56.8561 133.785 57.0507 133.788 57.2479C133.788 57.5238 133.712 57.7946 133.569 58.0328C133.429 58.2709 133.226 58.4683 132.981 58.6046C132.381 58.9567 131.689 59.1318 130.988 59.1085C130.411 59.117 129.837 59.0217 129.295 58.8274C128.798 58.6536 128.348 58.3719 127.98 58.0037L128.747 57.0832C129.053 57.3637 129.416 57.5783 129.813 57.713C130.189 57.8508 130.587 57.9229 130.988 57.9262C131.338 57.9452 131.685 57.8607 131.985 57.684C132.098 57.6227 132.191 57.5321 132.254 57.4223C132.321 57.3144 132.356 57.19 132.353 57.0638C132.353 56.5017 131.805 56.2207 130.7 56.2207H129.753V55.0869H130.69C131.795 55.0869 132.353 54.8059 132.343 54.2342C132.341 54.1116 132.307 53.9916 132.244 53.8853C132.178 53.7778 132.085 53.6879 131.975 53.6237C131.677 53.4435 131.329 53.3557 130.979 53.3717C130.573 53.3774 130.171 53.4529 129.793 53.5946C129.394 53.726 129.03 53.941 128.727 54.2245L127.96 53.2555C128.335 52.8886 128.792 52.6102 129.295 52.4415C129.834 52.248 130.404 52.1495 130.979 52.1507C131.679 52.1274 132.371 52.3025 132.971 52.6546C133.216 52.7909 133.419 52.9883 133.559 53.2264C133.701 53.4686 133.776 53.7422 133.778 54.021C133.772 54.2157 133.725 54.4071 133.639 54.583C133.554 54.7633 133.428 54.9223 133.27 55.0482C132.844 55.3754 132.327 55.5712 131.786 55.6102" fill="white"/>
<path d="M137.953 52.1895C138.671 52.162 139.377 52.3816 139.945 52.8097C140.206 53.0334 140.41 53.3121 140.543 53.6245C140.676 53.9369 140.734 54.2747 140.712 54.6121V58.9825H139.318V57.2091C139.204 57.7697 138.889 58.2727 138.429 58.6279C137.969 58.983 137.394 59.1672 136.807 59.1472C136.271 59.1625 135.749 58.9828 135.342 58.6433C135.153 58.4685 135.004 58.2573 134.904 58.0231C134.705 57.521 134.705 56.9651 134.904 56.463C135.026 56.207 135.215 55.9865 135.452 55.8234C135.985 55.4714 136.603 55.2609 137.245 55.2129L138.56 55.0869C139.049 55.0869 139.298 54.8253 139.298 54.428C139.308 54.2806 139.277 54.1334 139.208 54.0016C139.147 53.8668 139.051 53.7499 138.929 53.6624C138.639 53.4606 138.289 53.3583 137.933 53.3717C137.554 53.3596 137.182 53.4723 136.877 53.6915C136.576 53.9133 136.376 54.2399 136.319 54.6024L134.944 54.2729C134.995 53.972 135.11 53.6849 135.283 53.4299C135.454 53.1724 135.678 52.9515 135.94 52.7806C136.526 52.3931 137.225 52.1994 137.933 52.2283L137.953 52.1895ZM137.265 58.0037C137.534 58.0132 137.803 57.967 138.052 57.8681C138.306 57.7724 138.536 57.6273 138.73 57.4417C138.916 57.2722 139.065 57.0679 139.168 56.8409C139.27 56.6114 139.325 56.3643 139.327 56.1141V55.7459C139.232 55.8517 139.114 55.936 138.981 55.993C138.849 56.0499 138.705 56.078 138.56 56.0754L137.265 56.2304C136.978 56.2567 136.702 56.357 136.468 56.5211C136.37 56.5961 136.292 56.6923 136.239 56.8021C136.186 56.9076 136.162 57.0243 136.169 57.1413C136.164 57.2619 136.188 57.382 136.24 57.4916C136.292 57.6011 136.37 57.697 136.468 57.7712C136.697 57.939 136.979 58.0216 137.265 58.0037Z" fill="white"/>
<path d="M143.612 58.9825H142.217V52.3252H143.612V55.0482H147.258V52.3252H148.653V58.9825H147.258V56.2595H143.612V58.9825Z" fill="white"/>
<path d="M152.528 52.3155H156.025V58.9825H154.631V56.5986H153.435L151.602 58.9825H149.988L151.881 56.5211C151.397 56.4154 150.962 56.1564 150.645 55.7846C150.33 55.4157 150.167 54.9461 150.187 54.4668C150.175 54.1777 150.229 53.8896 150.347 53.6237C150.457 53.3581 150.628 53.1199 150.845 52.926C151.31 52.5161 151.921 52.3003 152.548 52.3252L152.528 52.3155ZM152.608 55.3873H154.651V53.5365H152.608C152.479 53.5318 152.351 53.5516 152.23 53.5946C152.105 53.6414 151.99 53.7104 151.891 53.7981C151.801 53.8874 151.73 53.9927 151.682 54.1082C151.638 54.2266 151.615 54.3509 151.612 54.4764C151.61 54.5962 151.634 54.715 151.682 54.8253C151.731 54.9374 151.802 55.0393 151.891 55.1257C151.987 55.2132 152.099 55.2814 152.223 55.3263C152.346 55.3712 152.477 55.3919 152.608 55.3873Z" fill="white"/>
<path d="M160.828 58.9825H159.443V53.5365H157.101V52.3252H163.149V53.5365H160.828V58.9825Z" fill="white"/>
<path d="M167.403 58.9825H164.235V52.3155H165.62V54.4183H167.403C167.739 54.4 168.075 54.4472 168.391 54.557C168.708 54.6668 168.998 54.8371 169.246 55.0579C169.476 55.2663 169.656 55.5209 169.774 55.804C169.895 56.0863 169.952 56.3901 169.944 56.6955C169.952 57.0041 169.895 57.3111 169.774 57.5968C169.654 57.8785 169.474 58.1327 169.246 58.3429C168.74 58.7805 168.08 59.0098 167.403 58.9825ZM165.62 55.6296V57.8196H167.244C167.573 57.8284 167.895 57.7218 168.15 57.5192C168.263 57.4233 168.351 57.3041 168.409 57.1704C168.469 57.0359 168.496 56.8902 168.489 56.744C168.499 56.6008 168.471 56.4576 168.409 56.3273C168.351 56.1936 168.263 56.0744 168.15 55.9785C167.9 55.7675 167.575 55.6598 167.244 55.6781L165.62 55.6296ZM171.966 58.9825H170.601V52.3155H171.996L171.966 58.9825Z" fill="white"/>
<path d="M178.054 52.3252H179.688L177.177 55.6393L179.688 58.9825H177.974L176.3 56.5986L174.606 58.9825H172.972L175.473 55.6877L172.972 52.3252H174.706L176.37 54.709L178.054 52.3252Z" fill="white"/>
<path d="M79.9535 22.618V13.986H89.2781V60H79.9535V36.3302C79.2703 38.9084 77.885 41.2403 75.9558 43.0597C74.2075 44.6844 71.9122 45.5713 69.5395 45.539C67.7853 45.5523 66.0535 45.1403 64.4888 44.3375C62.924 43.5347 61.5716 42.3645 60.5447 40.9245C58.0946 37.632 56.8319 33.5893 56.9667 29.469C56.8282 25.3422 58.0832 21.2907 60.5247 17.9832C61.5457 16.5371 62.8969 15.3622 64.463 14.5588C66.0292 13.7553 67.7639 13.347 69.5195 13.3687C71.9114 13.3331 74.2258 14.2277 75.9858 15.8682C77.915 17.6876 79.3003 20.0195 79.9835 22.5978L79.9535 22.618ZM73.0375 36.8766C73.9656 36.9062 74.8893 36.7337 75.7459 36.3706C76.6036 36.0124 77.3768 35.4744 78.0146 34.792C79.3478 33.362 80.0667 31.4551 80.0134 29.4893C80.0465 28.5167 79.8903 27.547 79.5537 26.6355C79.2192 25.7267 78.7096 24.8942 78.0546 24.1866C77.4174 23.4973 76.6416 22.9546 75.7795 22.595C74.9174 22.2353 73.9892 22.0672 73.0574 22.1019C72.2008 22.0896 71.3529 22.2766 70.5789 22.6484C69.8065 23.0156 69.124 23.5513 68.58 24.2169C67.3177 25.6699 66.6494 27.5552 66.7111 29.4893C66.6514 31.4231 67.3194 33.3076 68.58 34.7616C69.124 35.4273 69.8065 35.9629 70.5789 36.3302C71.3499 36.6897 72.1886 36.8761 73.0375 36.8766Z" fill="#7FFF5D"/>
<path d="M48.2118 19.4405C46.5861 19.4576 44.9887 19.0085 43.6044 18.1452V31.7358C43.6285 32.4226 43.5072 33.1066 43.2486 33.7419C42.99 34.3772 42.6002 34.9492 42.1053 35.4194C41.0844 36.3631 39.739 36.8644 38.3575 36.8159C37.6616 36.8498 36.9659 36.7439 36.3106 36.5042C35.6554 36.2645 35.0535 35.8958 34.5397 35.4194C34.0598 34.9328 33.6854 34.3504 33.4403 33.7092C33.1984 33.0637 33.0896 32.3749 33.1205 31.6852V13.9759H23.7859V31.7358C23.72 33.5958 24.0481 35.4486 24.7479 37.1696C25.4478 38.8906 26.5033 40.44 27.8435 41.7138C30.7105 44.3468 34.4911 45.7223 38.3575 45.539C42.2131 45.6868 45.9738 44.3074 48.8414 41.6936C50.1954 40.4313 51.2649 38.8886 51.9771 37.1702C52.6894 35.4519 53.0277 33.5984 52.969 31.7358V18.0743C51.5616 18.9852 49.922 19.46 48.2518 19.4405" fill="#7FFF5D"/>
<path d="M9.684 13.986V21.7275C10.0863 20.0095 10.7613 18.369 11.6828 16.8701C12.3289 15.7624 13.253 14.8476 14.3613 14.2187C15.3177 13.7432 16.3565 13.4614 17.4195 13.3889C18.5024 13.3066 19.5877 13.5124 20.5677 13.986V22.9216C17.4595 21.687 14.871 21.5656 12.7922 22.5371C11.8065 22.9741 10.979 23.7102 10.424 24.6437C9.86908 25.5772 9.61399 26.6621 9.69399 27.7487V44.9521H0.359375V13.9759L9.684 13.986Z" fill="#7FFF5D"/>
<path d="M94.2752 5.63729C94.2734 4.8978 94.416 4.16524 94.695 3.48181C94.9827 2.79676 95.4082 2.17987 95.9442 1.67039C96.4413 1.13659 97.0395 0.709804 97.7032 0.415557C98.3739 0.131503 99.0951 -0.00972951 99.822 0.000651872C100.55 -0.0110075 101.272 0.133857 101.941 0.425677C102.616 0.710051 103.225 1.13399 103.73 1.67039C104.255 2.18787 104.67 2.80836 104.95 3.49392C105.23 4.17948 105.369 4.9157 105.359 5.65753C105.361 6.39702 105.218 7.12958 104.939 7.81301C104.659 8.49248 104.248 9.10839 103.73 9.62443C103.23 10.1658 102.624 10.5964 101.952 10.8891C101.279 11.1817 100.554 11.3299 99.822 11.3245C99.0947 11.3282 98.3745 11.179 97.707 10.8864C97.0395 10.5937 96.4393 10.164 95.9442 9.62443C95.4228 9.10879 95.0083 8.49295 94.7249 7.81301C94.446 7.12958 94.3033 6.39702 94.3052 5.65753L94.2752 5.63729ZM104.479 44.9825H95.1747V13.986H104.499L104.479 44.9825Z" fill="#7FFF5D"/>
</svg>
