<svg width="24" height="24" viewBox="0 0 24 24" fill="none" xmlns="http://www.w3.org/2000/svg">
<path fill-rule="evenodd" clip-rule="evenodd" d="M5.09375 5.27353C5.09375 2.91332 7.08661 1 9.54492 1H17.117C20.3665 1 23.0007 3.52911 23.0007 6.64892V8.76888C23.0007 10.7179 21.3551 12.2978 19.3251 12.2978C18.8151 12.2978 18.4162 11.9101 18.3918 11.4439C18.379 11.1978 18.3282 10.6277 18.1344 9.98307C17.9391 9.33359 17.6137 8.65902 17.0859 8.15234C15.5837 6.71009 13.2912 6.40331 10.843 6.40331H6.2705C5.6206 6.40331 5.09375 5.89749 5.09375 5.27353ZM6.65041 4.92968H10.843C13.3171 4.92968 16.1929 5.21091 18.1713 7.11033C18.9482 7.8563 19.373 8.7893 19.6091 9.57435C19.7418 10.016 19.8197 10.4268 19.8654 10.7582C20.7861 10.5283 21.4658 9.72479 21.4658 8.76888V6.64892C21.4658 4.34297 19.5188 2.47363 17.117 2.47363H9.54492C8.05555 2.47363 6.82695 3.54555 6.65041 4.92968Z" fill="white"/>
<path fill-rule="evenodd" clip-rule="evenodd" d="M1 11.6312C1 7.93006 4.12508 4.92969 7.98007 4.92969H12.9502C16.8052 4.92969 19.9302 7.93006 19.9302 11.6312C19.9302 15.3323 16.8052 18.3327 12.9502 18.3327H12.0255L8.58633 21.6346C7.66903 22.5153 6.12638 21.6768 6.44101 20.4685L7.0022 18.3133C3.64341 18.0601 1 15.3631 1 12.0733V11.6312ZM7.98007 6.40332C4.97277 6.40332 2.53488 8.74393 2.53488 11.6312V12.0733C2.53488 14.7164 4.76662 16.8591 7.51961 16.8591C8.25278 16.8591 8.79074 17.5206 8.61292 18.2035L8.15407 19.9656L11.0319 17.2026C11.261 16.9826 11.5718 16.8591 11.8958 16.8591H12.9502C15.9575 16.8591 18.3953 14.5185 18.3953 11.6312C18.3953 8.74392 15.9575 6.40332 12.9502 6.40332H7.98007Z" fill="white"/>
</svg>
