<svg width="24" height="25" viewBox="0 0 24 25" fill="none" xmlns="http://www.w3.org/2000/svg">
<path d="M6.24951 2.5C5.00687 2.5 3.99951 3.50736 3.99951 4.75V20.25C3.99951 21.4926 5.00687 22.5 6.24951 22.5H13.75C14.9855 22.5 15.9885 21.5041 15.9999 20.2712L16.0002 20.2501V18.7501C16.0002 18.3359 15.6644 18.0001 15.2502 18.0001C14.7963 18.0001 14.5108 17.878 14.3133 17.7193C14.1053 17.552 13.9338 17.294 13.8023 16.9301C13.5297 16.1751 13.5002 15.1796 13.5002 14.25C13.5001 14.0601 13.428 13.8772 13.2984 13.7384C13.2222 13.6566 13.1709 13.6012 13.134 13.5614C13.0436 13.4637 13.0394 13.4591 12.9635 13.3877C12.8896 13.3182 12.6639 13.1027 11.7805 12.2197C11.312 11.7514 11.0522 11.3551 10.9672 11.0524C10.9283 10.9137 10.9303 10.8102 10.9517 10.7269C10.9729 10.6443 11.0248 10.5358 11.1563 10.4043C11.2877 10.2728 11.396 10.2211 11.4781 10.2C11.5609 10.1788 11.664 10.1769 11.8024 10.2159C12.1049 10.3012 12.5009 10.5615 12.9696 11.0305C13.5092 11.5704 14.022 12.0775 14.4813 12.5318C15.2408 13.2828 15.8549 13.8901 16.2019 14.2619C16.4845 14.5647 16.9591 14.581 17.2619 14.2984C17.5647 14.0158 17.5811 13.5412 17.2985 13.2384C17.014 12.9335 16.5566 12.4759 15.9997 11.924L15.9997 8.56031L18.841 11.4017C19.2629 11.8236 19.5 12.3959 19.5 12.9926V21.75C19.5 22.1642 19.8358 22.5 20.25 22.5C20.6642 22.5 21 22.1642 21 21.75V12.9926C21 11.9981 20.6049 11.0443 19.9017 10.341L15.9996 6.43894L15.9996 4.74994C15.9995 3.50732 14.9922 2.5 13.7496 2.5H6.24951ZM12.3915 17.4396C12.4884 17.7077 12.6132 17.9738 12.7753 18.2218C12.0208 18.585 11.5002 19.3568 11.5002 20.2502V21H8.50016V20.2502C8.50016 19.0075 7.4928 18.0002 6.25016 18.0002H5.49951V6.99967H6.25016C7.4928 6.99967 8.50016 5.99231 8.50016 4.74967V4H11.5002V4.74967C11.5002 5.99231 12.5075 6.99967 13.7502 6.99967H14.4996L14.4997 10.4381C14.3452 10.2844 14.1885 10.1282 14.0306 9.97019C13.4996 9.43877 12.8823 8.96195 12.2096 8.77222C11.8603 8.67373 11.4853 8.64976 11.1059 8.74692C10.88 8.80478 10.669 8.90139 10.4735 9.03167C10.3186 9.01073 10.1606 8.99991 9.99996 8.99991C8.06697 8.99991 6.49996 10.5669 6.49996 12.4999C6.49996 14.4329 8.06697 15.9999 9.99996 15.9999C10.7541 15.9999 11.4524 15.7614 12.0238 15.3558C12.0607 16.04 12.1544 16.7829 12.3915 17.4396ZM7.99996 12.4999C7.99996 11.5842 8.61543 10.8121 9.45528 10.575C9.4134 10.8784 9.44404 11.1764 9.52305 11.4578C9.7121 12.1312 10.1883 12.7491 10.7201 13.2806C11.0018 13.5622 11.2181 13.7773 11.3851 13.9427C11.0257 14.2878 10.5376 14.4999 9.99996 14.4999C8.89539 14.4999 7.99996 13.6045 7.99996 12.4999ZM5.49951 4.75C5.49951 4.33579 5.8353 4 6.24951 4H7.00016V4.74967C7.00016 5.16389 6.66438 5.49967 6.25016 5.49967H5.49951V4.75ZM13.0002 4H13.7496C14.1638 4 14.4995 4.33577 14.4996 4.74998L14.4996 5.49967H13.7502C13.336 5.49967 13.0002 5.16389 13.0002 4.74967V4ZM14.4999 19.5002L14.5 20.25C14.5 20.6642 14.1642 21 13.75 21H13.0002V20.2502C13.0002 19.8359 13.336 19.5002 13.7502 19.5002H14.4999ZM7.00016 21H6.24951C5.8353 21 5.49951 20.6642 5.49951 20.25V19.5002H6.25016C6.66438 19.5002 7.00016 19.8359 7.00016 20.2502V21Z" fill="#0082DE"/>
</svg>
