<svg width="230" height="230" viewBox="0 0 230 230" fill="none" xmlns="http://www.w3.org/2000/svg">
<circle cx="115" cy="115" r="115" fill="#F2F8FF"/>
<mask id="mask0_3739_120556" style="mask-type:alpha" maskUnits="userSpaceOnUse" x="0" y="0" width="230" height="230">
<path d="M115 229.999C178.512 229.999 229.999 178.512 229.999 115C229.999 51.4871 178.512 0 115 0C51.4871 0 0 51.4871 0 115C0 178.512 51.4871 229.999 115 229.999Z" fill="url(#paint0_linear_3739_120556)"/>
</mask>
<g mask="url(#mask0_3739_120556)">
<g filter="url(#filter0_d_3739_120556)">
<path d="M180.931 64.3994H49.0651C44.8309 64.3994 41.3984 67.8319 41.3984 72.0661V233.066C41.3984 237.3 44.8309 240.732 49.0651 240.732H180.931C185.165 240.732 188.598 237.3 188.598 233.066V72.0661C188.598 67.8319 185.165 64.3994 180.931 64.3994Z" fill="white"/>
</g>
</g>
<path d="M101.201 80.6064H61.3344C58.7939 80.6064 56.7344 82.6659 56.7344 85.2064C56.7344 87.7469 58.7939 89.8064 61.3344 89.8064H101.201C103.741 89.8064 105.801 87.7469 105.801 85.2064C105.801 82.6659 103.741 80.6064 101.201 80.6064Z" fill="#EAF6FF"/>
<path d="M101.201 145.007H61.3344C58.7939 145.007 56.7344 147.066 56.7344 149.607C56.7344 152.147 58.7939 154.207 61.3344 154.207H101.201C103.741 154.207 105.801 152.147 105.801 149.607C105.801 147.066 103.741 145.007 101.201 145.007Z" fill="#EAF6FF"/>
<path d="M165.603 103.606H64.4028C61.0155 103.606 58.2695 106.352 58.2695 109.74V125.073C58.2695 128.46 61.0155 131.206 64.4028 131.206H165.603C168.99 131.206 171.736 128.46 171.736 125.073V109.74C171.736 106.352 168.99 103.606 165.603 103.606Z" stroke="#0082DE" stroke-width="3.06666"/>
<path d="M165.601 166.473H64.401C60.1668 166.473 56.7344 169.905 56.7344 174.139V186.406C56.7344 190.64 60.1668 194.073 64.401 194.073H165.601C169.835 194.073 173.267 190.64 173.267 186.406V174.139C173.267 169.905 169.835 166.473 165.601 166.473Z" fill="#EAF6FF"/>
<path d="M81.2661 48.4072C84.6535 48.4072 87.3994 45.6613 87.3994 42.2739C87.3994 38.8866 84.6535 36.1406 81.2661 36.1406C77.8788 36.1406 75.1328 38.8866 75.1328 42.2739C75.1328 45.6613 77.8788 48.4072 81.2661 48.4072Z" fill="white"/>
<path d="M115 48.4072C118.388 48.4072 121.134 45.6613 121.134 42.2739C121.134 38.8866 118.388 36.1406 115 36.1406C111.613 36.1406 108.867 38.8866 108.867 42.2739C108.867 45.6613 111.613 48.4072 115 48.4072Z" fill="#0082DE"/>
<path d="M148.731 48.4072C152.118 48.4072 154.864 45.6613 154.864 42.2739C154.864 38.8866 152.118 36.1406 148.731 36.1406C145.344 36.1406 142.598 38.8866 142.598 42.2739C142.598 45.6613 145.344 48.4072 148.731 48.4072Z" fill="white"/>
<path d="M131.866 134.273C136.1 134.273 139.533 130.84 139.533 126.606C139.533 122.372 136.1 118.939 131.866 118.939C127.632 118.939 124.199 122.372 124.199 126.606C124.199 130.84 127.632 134.273 131.866 134.273Z" fill="#EAF6FF"/>
<path d="M137.857 159.373C136.63 159.373 135.485 159.373 134.442 159.307C133.158 159.22 131.923 158.781 130.872 158.037C129.821 157.293 128.996 156.274 128.487 155.092L122.018 142.307C121.543 141.755 121.306 141.037 121.359 140.311C121.411 139.584 121.748 138.908 122.297 138.429C122.746 138.068 123.307 137.874 123.884 137.879C124.308 137.891 124.725 137.996 125.106 138.185C125.486 138.374 125.821 138.643 126.087 138.974L129.025 142.983L129.07 143.035V127.802C129.07 127.046 129.37 126.321 129.904 125.787C130.439 125.252 131.163 124.952 131.919 124.952C132.675 124.952 133.4 125.252 133.934 125.787C134.469 126.321 134.769 127.046 134.769 127.802V137.768C134.736 137.402 134.78 137.032 134.897 136.683C135.015 136.334 135.204 136.014 135.452 135.742C135.701 135.47 136.003 135.253 136.34 135.104C136.677 134.956 137.041 134.879 137.409 134.879C137.778 134.879 138.142 134.956 138.479 135.104C138.816 135.253 139.118 135.47 139.366 135.742C139.615 136.014 139.804 136.334 139.922 136.683C140.039 137.032 140.083 137.402 140.05 137.768V139.846C140.017 139.479 140.06 139.11 140.178 138.761C140.296 138.412 140.485 138.091 140.733 137.819C140.981 137.548 141.284 137.33 141.621 137.182C141.958 137.033 142.322 136.957 142.69 136.957C143.058 136.957 143.423 137.033 143.76 137.182C144.096 137.33 144.399 137.548 144.647 137.819C144.896 138.091 145.085 138.412 145.202 138.761C145.32 139.11 145.364 139.479 145.331 139.846V141.447C145.297 141.08 145.341 140.711 145.459 140.362C145.576 140.013 145.765 139.692 146.014 139.42C146.262 139.148 146.565 138.931 146.902 138.783C147.238 138.634 147.603 138.557 147.971 138.557C148.339 138.557 148.703 138.634 149.04 138.783C149.377 138.931 149.68 139.148 149.928 139.42C150.176 139.692 150.365 140.013 150.483 140.362C150.601 140.711 150.644 141.08 150.611 141.447V151.164C150.559 154.152 149.208 159.191 144.457 159.191C144.112 159.206 141.189 159.375 137.863 159.375L137.857 159.373Z" fill="#0082DE" stroke="white" stroke-width="1.53333"/>
<defs>
<filter id="filter0_d_3739_120556" x="25.2985" y="51.7495" width="179.399" height="208.533" filterUnits="userSpaceOnUse" color-interpolation-filters="sRGB">
<feFlood flood-opacity="0" result="BackgroundImageFix"/>
<feColorMatrix in="SourceAlpha" type="matrix" values="0 0 0 0 0 0 0 0 0 0 0 0 0 0 0 0 0 0 127 0" result="hardAlpha"/>
<feOffset dy="3.44999"/>
<feGaussianBlur stdDeviation="8.04997"/>
<feColorMatrix type="matrix" values="0 0 0 0 0.635294 0 0 0 0 0.658824 0 0 0 0 0.686275 0 0 0 0.3 0"/>
<feBlend mode="normal" in2="BackgroundImageFix" result="effect1_dropShadow_3739_120556"/>
<feBlend mode="normal" in="SourceGraphic" in2="effect1_dropShadow_3739_120556" result="shape"/>
</filter>
<linearGradient id="paint0_linear_3739_120556" x1="115" y1="0" x2="115" y2="229.999" gradientUnits="userSpaceOnUse">
<stop stop-color="#E3ECFA"/>
<stop offset="1" stop-color="#DAE7FF"/>
</linearGradient>
</defs>
</svg>
