<svg width="101" height="48" viewBox="0 0 101 48" fill="none" xmlns="http://www.w3.org/2000/svg">
<rect x="0.509766" width="100" height="48" rx="8" fill="#F3FAFF"/>
<path d="M77.9893 20.525V29.8154H74.7457V23.2984H71.6225V29.8154H68.3789V20.5244H77.9893V20.525Z" fill="black"/>
<path fill-rule="evenodd" clip-rule="evenodd" d="M61.7165 30.1475C64.6202 30.1475 66.7764 28.3266 66.7764 25.5662C66.7764 22.8945 65.1856 21.1598 62.5268 21.1598C61.2998 21.1598 60.2873 21.6016 59.5247 22.3638C59.7068 20.7884 61.0094 19.6382 62.4435 19.6382C62.7745 19.6382 65.2664 19.6328 65.2664 19.6328L66.6755 16.875C66.6755 16.875 63.547 16.9478 62.0927 16.9478C58.7699 17.007 56.5254 20.0961 56.5254 23.848C56.5254 28.219 58.7144 30.1475 61.7165 30.1475ZM61.7342 23.6026C62.8123 23.6026 63.5597 24.3271 63.5597 25.5659C63.5597 26.6809 62.8956 27.5996 61.7342 27.6021C60.6233 27.6021 59.8758 26.7509 59.8758 25.5849C59.8758 24.3458 60.6233 23.6026 61.7342 23.6026Z" fill="black"/>
<path d="M53.8845 26.7053C53.8845 26.7053 53.1184 27.1569 51.9744 27.2424C50.6591 27.2823 49.4872 26.4327 49.4872 24.9231C49.4872 23.4506 50.5213 22.6067 51.9413 22.6067C52.8119 22.6067 53.9637 23.2239 53.9637 23.2239C53.9637 23.2239 54.8065 21.6421 55.2431 20.8511C54.4436 20.2314 53.3788 19.8916 52.1403 19.8916C49.0147 19.8916 46.5938 21.9759 46.5938 24.9044C46.5938 27.8703 48.8692 29.9062 52.1403 29.8448C53.0547 29.8099 54.3161 29.4815 55.0849 28.9765L53.8845 26.7053Z" fill="black"/>
<path d="M14 13.2715L18.4994 21.4969V26.5142L14.0053 34.7234L14 13.2715Z" fill="#5B57A2"/>
<path d="M31.2754 18.5037L35.4915 15.8608L44.1201 15.8525L31.2754 23.9003V18.5037Z" fill="#D90751"/>
<path d="M31.2518 13.2229L31.2756 24.113L26.7656 21.2789V5L31.2518 13.2229Z" fill="#FAB718"/>
<path d="M44.1203 15.8525L35.4914 15.8607L31.2518 13.2229L26.7656 5L44.1203 15.8525Z" fill="#ED6F26"/>
<path d="M31.2756 34.769V29.4854L26.7656 26.7051L26.7681 43.0001L31.2756 34.769Z" fill="#63B22F"/>
<path d="M35.4817 32.1502L18.4991 21.4969L14 13.2715L44.1025 32.1394L35.4817 32.1502Z" fill="#1487C9"/>
<path d="M26.7695 43.0004L31.2764 34.7692L35.482 32.1504L44.1029 32.1396L26.7695 43.0004Z" fill="#017F36"/>
<path d="M14.0059 34.7238L26.8035 26.7058L22.501 24.0059L18.5 26.5145L14.0059 34.7238Z" fill="#984995"/>
</svg>
