<svg width="103" height="48" viewBox="0 0 103 48" fill="none" xmlns="http://www.w3.org/2000/svg">
<mask id="mask0_1007_2911" style="mask-type:luminance" maskUnits="userSpaceOnUse" x="20" y="8" width="64" height="33">
<path d="M83.7194 8H20V40.6667H83.7194V8Z" fill="white"/>
</mask>
<g mask="url(#mask0_1007_2911)">
<path d="M75.0986 21.3457V29.3322H72.3055V23.7298H69.6162V29.3322H66.8232V21.3452L75.0986 21.3457Z" fill="black"/>
<path fill-rule="evenodd" clip-rule="evenodd" d="M61.0871 29.6172C63.5874 29.6172 65.4441 28.0519 65.4441 25.679C65.4441 23.3822 64.0742 21.8909 61.7848 21.8909C60.7283 21.8909 59.8564 22.2707 59.1998 22.926C59.3566 21.5716 60.4782 20.583 61.7131 20.583C61.9982 20.583 64.1438 20.5784 64.1438 20.5784L65.3571 18.2075C65.3571 18.2075 62.6633 18.2701 61.411 18.2701C58.5498 18.321 56.6172 20.9765 56.6172 24.2019C56.6172 27.9593 58.502 29.6172 61.0871 29.6172ZM61.1023 23.991C62.0306 23.991 62.6742 24.6138 62.6742 25.6786C62.6742 26.6372 62.1024 27.4269 61.1023 27.4291C60.1457 27.4291 59.5021 26.6973 59.5021 25.695C59.5021 24.6298 60.1457 23.991 61.1023 23.991Z" fill="black"/>
<path d="M54.3432 26.6587C54.3432 26.6587 53.6837 27.0468 52.6984 27.1204C51.566 27.1547 50.5568 26.4243 50.5568 25.1267C50.5568 23.8608 51.4473 23.1354 52.67 23.1354C53.4197 23.1354 54.4115 23.6658 54.4115 23.6658C54.4115 23.6658 55.1371 22.3061 55.5131 21.6261C54.8247 21.0933 53.9078 20.8013 52.8414 20.8013C50.15 20.8013 48.0654 22.5931 48.0654 25.1106C48.0654 27.6603 50.0247 29.4103 52.8414 29.3576C53.6287 29.3275 54.7149 29.0453 55.3768 28.6111L54.3432 26.6587Z" fill="black"/>
<path d="M20 15.1094L23.8744 22.1804V26.4934L20.0045 33.5506L20 15.1094Z" fill="#5B57A2"/>
<path d="M34.876 19.6077L38.5064 17.3357L45.9363 17.3286L34.876 24.2468V19.6077Z" fill="#D90751"/>
<path d="M34.8561 15.0688L34.8766 24.4305L30.9932 21.9942V8L34.8561 15.0688Z" fill="#FAB718"/>
<path d="M45.9368 17.3293L38.5067 17.3364L34.8561 15.0688L30.9932 8L45.9368 17.3293Z" fill="#ED6F26"/>
<path d="M34.8766 33.5918V29.0497L30.9932 26.6597L30.9953 40.6676L34.8766 33.5918Z" fill="#63B22F"/>
<path d="M38.4973 31.3385L23.8741 22.1804L20 15.1094L45.9205 31.3292L38.4973 31.3385Z" fill="#1487C9"/>
<path d="M30.9951 40.6675L34.8758 33.5916L38.4972 31.3403L45.9204 31.3311L30.9951 40.6675Z" fill="#017F36"/>
<path d="M20.0049 33.5516L31.0246 26.6588L27.3198 24.3379L23.8747 26.4944L20.0049 33.5516Z" fill="#984995"/>
</g>
</svg>
