<svg width="24" height="25" viewBox="0 0 24 25" fill="none" xmlns="http://www.w3.org/2000/svg">
<path d="M6 4.5C6 3.6716 6.67158 3 7.50007 3C8.32856 3 9.00014 3.6716 9.00014 4.5C9.00014 5.3284 8.32856 6 7.50007 6C6.67158 6 6 5.3284 6 4.5ZM7.50007 1.5C5.8432 1.5 4.5 2.84312 4.5 4.5C4.5 6.15688 5.8432 7.5 7.50007 7.5C9.15694 7.5 10.5001 6.15688 10.5001 4.5C10.5001 2.84312 9.15694 1.5 7.50007 1.5ZM2 10.2678C2 9.29149 2.79149 8.5 3.76784 8.5H8.53514C8.27389 8.9516 8.09841 9.45903 8.03095 10H3.76784C3.61992 10 3.5 10.1199 3.5 10.2678V10.625C3.5 10.7669 3.5026 11.6245 3.98665 12.4302C4.37565 13.0776 5.13355 13.7896 6.73742 13.9612C6.25637 14.2811 5.8811 14.7473 5.67527 15.2964C4.17656 14.9301 3.24767 14.1128 2.70086 13.2027C1.99994 12.036 1.99999 10.8355 2 10.6272V10.2678ZM15.9692 10C15.9017 9.45903 15.7263 8.9516 15.465 8.5H20.2322C21.2085 8.5 22 9.29149 22 10.2678V10.6272C22 10.8154 22.0001 11.8127 21.4838 12.8635C21.0876 12.5558 20.655 12.293 20.1933 12.0825C20.4981 11.3932 20.5 10.7465 20.5 10.625V10.2678C20.5 10.1199 20.3801 10 20.2322 10H15.9692ZM14.4187 12.2753C14.7842 11.7782 15.0001 11.1643 15.0001 10.5C15.0001 8.84312 13.6569 7.5 12.0001 7.5C10.3432 7.5 9 8.84312 9 10.5C9 12.1569 10.3432 13.5 12.0001 13.5C12.3388 13.5 12.6644 13.4439 12.9681 13.3404C13.5543 13.1407 14.0589 12.7646 14.4187 12.2753ZM12.0218 14.5H8.26784C7.29149 14.5 6.5 15.2915 6.5 16.2678V16.6272C6.49999 16.8355 6.49994 18.036 7.20085 19.2027C7.94224 20.4367 9.38597 21.5 12 21.5L12.0218 21.5C11.7193 21.0275 11.4763 20.5133 11.3032 19.9679C9.6542 19.8089 8.88093 19.0864 8.48665 18.4302C8.0026 17.6245 8 16.7669 8 16.625V16.2678C8 16.1199 8.11992 16 8.26784 16H11.3135C11.4858 15.4665 11.7253 14.9632 12.0218 14.5ZM16.5001 3C15.6716 3 15 3.6716 15 4.5C15 5.3284 15.6716 6 16.5001 6C17.3286 6 18.0001 5.3284 18.0001 4.5C18.0001 3.6716 17.3286 3 16.5001 3ZM13.5 4.5C13.5 2.84312 14.8432 1.5 16.5001 1.5C18.1569 1.5 19.5001 2.84312 19.5001 4.5C19.5001 6.15688 18.1569 7.5 16.5001 7.5C14.8432 7.5 13.5 6.15688 13.5 4.5ZM10.5 10.5C10.5 9.6716 11.1716 9 12.0001 9C12.8286 9 13.5001 9.6716 13.5001 10.5C13.5001 11.3284 12.8286 12 12.0001 12C11.1716 12 10.5 11.3284 10.5 10.5ZM17.5 12.5C20.5376 12.5 23 14.9624 23 18C23 21.0376 20.5376 23.5 17.5 23.5C14.4624 23.5 12 21.0376 12 18C12 14.9624 14.4624 12.5 17.5 12.5ZM18.0011 21.0035L18.0006 18.5H20.4966C20.7725 18.5 20.9961 18.2762 20.9961 18C20.9961 17.7239 20.7725 17.5 20.4966 17.5H18.0005L18 14.9993C18 14.7231 17.7761 14.4993 17.5 14.4993C17.2239 14.4993 17 14.7231 17 14.9993L17.0005 17.5H14.4956C14.2197 17.5 13.9961 17.7239 13.9961 18C13.9961 18.2762 14.2197 18.5 14.4956 18.5H17.0006L17.0011 21.0035C17.0011 21.2797 17.225 21.5035 17.5011 21.5035C17.7773 21.5035 18.0011 21.2797 18.0011 21.0035Z" fill="#0082DE"/>
</svg>
