<svg width="24" height="25" viewBox="0 0 24 25" fill="none" xmlns="http://www.w3.org/2000/svg">
<g clip-path="url(#clip0_13756_63054)">
<path d="M16.7545 14.4992C17.5348 14.4992 18.2223 14.8966 18.6256 15.5H15.7539C14.9912 15.5 14.2705 15.6798 13.6319 15.9992H5.25278C4.83919 15.9992 4.50391 16.3345 4.50391 16.7481V17.3258C4.50391 17.8614 4.69502 18.3795 5.04287 18.7869C6.29618 20.2546 8.26206 21.0004 11.0004 21.0004L11.0628 21.0002C11.1471 21.5314 11.3194 22.0332 11.5644 22.4904C11.3792 22.497 11.1912 22.5004 11.0004 22.5004C7.8545 22.5004 5.46849 21.5952 3.90219 19.7609C3.32242 19.082 3.00391 18.2185 3.00391 17.3258V16.7481C3.00391 15.5061 4.01076 14.4992 5.25278 14.4992H16.7545ZM11.0004 2.50391C13.7618 2.50391 16.0004 4.74248 16.0004 7.50391C16.0004 10.2653 13.7618 12.5039 11.0004 12.5039C8.23894 12.5039 6.00036 10.2653 6.00036 7.50391C6.00036 4.74248 8.23894 2.50391 11.0004 2.50391ZM11.0004 4.00391C9.06737 4.00391 7.50036 5.57091 7.50036 7.50391C7.50036 9.4369 9.06737 11.0039 11.0004 11.0039C12.9334 11.0039 14.5004 9.4369 14.5004 7.50391C14.5004 5.57091 12.9334 4.00391 11.0004 4.00391ZM23 20.25C23 18.1789 21.3211 16.5 19.25 16.5L19.1482 16.5068C18.7822 16.5565 18.5 16.8703 18.5 17.25C18.5 17.6642 18.8358 18 19.25 18L19.404 18.0052C20.5748 18.0844 21.5 19.0591 21.5 20.25C21.5 21.4926 20.4926 22.5 19.25 22.5L19.2466 22.5046L19.1448 22.5119C18.779 22.5633 18.4983 22.8783 18.5 23.258C18.5019 23.6722 18.8392 24.0065 19.2534 24.0046V24L19.4523 23.9948C21.4276 23.8913 23 22.2543 23 20.25ZM16.5 17.25C16.5 16.8358 16.1642 16.5 15.75 16.5L15.5508 16.5052C13.5724 16.6087 12 18.2457 12 20.25C12 22.3211 13.6789 24 15.75 24L15.8518 23.9932C16.2178 23.9435 16.5 23.6297 16.5 23.25C16.5 22.8358 16.1642 22.5 15.75 22.5L15.596 22.4948C14.4252 22.4156 13.5 21.4409 13.5 20.25C13.5 19.0074 14.5074 18 15.75 18L15.8518 17.9932C16.2178 17.9435 16.5 17.6297 16.5 17.25ZM20 20.25C20 19.8358 19.6642 19.5 19.25 19.5H15.75L15.6482 19.5068C15.2822 19.5565 15 19.8703 15 20.25C15 20.6642 15.3358 21 15.75 21H19.25L19.3518 20.9932C19.7178 20.9435 20 20.6297 20 20.25Z" fill="#0082DE"/>
</g>
<defs>
<clipPath id="clip0_13756_63054">
<rect width="24" height="24" fill="white" transform="translate(0 0.5)"/>
</clipPath>
</defs>
</svg>
