<svg width="25" height="25" viewBox="0 0 25 25" fill="none" xmlns="http://www.w3.org/2000/svg">
<g id="&#208;&#159;&#208;&#187;&#209;&#142;&#209;&#129; &#208;&#178; &#208;&#186;&#209;&#128;&#209;&#131;&#208;&#179;&#208;&#181;" clip-path="url(#clip0_1806_134223)">
<path id="&#209;&#132;&#208;&#190;&#208;&#189; (Stroke)" fill-rule="evenodd" clip-rule="evenodd" d="M12.5 23.4375C18.5406 23.4375 23.4375 18.5406 23.4375 12.5C23.4375 6.45939 18.5406 1.5625 12.5 1.5625C6.45939 1.5625 1.5625 6.45939 1.5625 12.5C1.5625 18.5406 6.45939 23.4375 12.5 23.4375ZM12.5 25C19.4036 25 25 19.4036 25 12.5C25 5.59644 19.4036 0 12.5 0C5.59644 0 0 5.59644 0 12.5C0 19.4036 5.59644 25 12.5 25Z" fill="#0082DE"/>
<path id="Vector" d="M11.5715 11.5715L11.5666 7.92575C11.5704 7.68677 11.6679 7.45911 11.8382 7.2918C12.0084 7.1245 12.2378 7.03093 12.4768 7.03125C12.7158 7.03157 12.9454 7.12576 13.1161 7.29353C13.2868 7.4613 13.385 7.68923 13.3894 7.92822L13.3944 11.574L17.0401 11.5789C17.1611 11.5769 17.2814 11.5991 17.3939 11.6441C17.5064 11.6892 17.6088 11.7561 17.6953 11.8411C17.7817 11.926 17.8504 12.0273 17.8974 12.139C17.9443 12.2507 17.9686 12.3705 17.9688 12.4916C17.9689 12.6126 17.945 12.7324 17.8983 12.844C17.8517 12.9555 17.7832 13.0566 17.697 13.1414C17.6108 13.2261 17.5085 13.2928 17.3962 13.3375C17.2838 13.3822 17.1636 13.404 17.0426 13.4018L13.3968 13.3968L13.4018 17.0426C13.404 17.1636 13.3822 17.2838 13.3375 17.3962C13.2928 17.5085 13.2261 17.6108 13.1414 17.697C13.0566 17.7832 12.9555 17.8517 12.844 17.8983C12.7324 17.945 12.6126 17.9689 12.4916 17.9688C12.3705 17.9686 12.2507 17.9443 12.139 17.8974C12.0273 17.8504 11.926 17.7817 11.8411 17.6953C11.7561 17.6088 11.6892 17.5064 11.6441 17.3939C11.5991 17.2814 11.5769 17.1611 11.5789 17.0401L11.574 13.3944L7.92821 13.3894C7.68922 13.385 7.4613 13.2868 7.29353 13.1161C7.12576 12.9454 7.03157 12.7158 7.03125 12.4768C7.03093 12.2378 7.1245 12.0084 7.2918 11.8382C7.45911 11.6679 7.68677 11.5704 7.92575 11.5666L11.5715 11.5715Z" fill="#0082DE"/>
</g>
<defs>
<clipPath id="clip0_1806_134223">
<rect width="25" height="25" fill="white"/>
</clipPath>
</defs>
</svg>
