<svg width="24" height="25" viewBox="0 0 24 25" fill="none" xmlns="http://www.w3.org/2000/svg">
<path d="M19.7372 18.9753L16.7159 15.963C17.6907 14.7211 18.2196 13.1876 18.2176 11.6088C18.2176 10.2028 17.8007 8.82841 17.0196 7.65937C16.2385 6.49033 15.1282 5.57918 13.8293 5.04113C12.5303 4.50308 11.1009 4.3623 9.72196 4.6366C8.34299 4.91089 7.07631 5.58794 6.08213 6.58213C5.08794 7.57631 4.41089 8.84299 4.1366 10.222C3.8623 11.6009 4.00308 13.0303 4.54113 14.3293C5.07918 15.6282 5.99033 16.7385 7.15937 17.5196C8.32841 18.3007 9.70283 18.7176 11.1088 18.7176C12.6876 18.7196 14.2211 18.1907 15.463 17.2159L18.4753 20.2372C18.5579 20.3204 18.6562 20.3865 18.7645 20.4317C18.8728 20.4768 18.9889 20.5 19.1062 20.5C19.2236 20.5 19.3397 20.4768 19.448 20.4317C19.5563 20.3865 19.6545 20.3204 19.7372 20.2372C19.8204 20.1545 19.8865 20.0563 19.9317 19.948C19.9768 19.8397 20 19.7236 20 19.6062C20 19.4889 19.9768 19.3728 19.9317 19.2645C19.8865 19.1562 19.8204 19.0579 19.7372 18.9753ZM5.77721 11.6088C5.77721 10.5543 6.0899 9.52352 6.67575 8.64674C7.26159 7.76996 8.09428 7.08659 9.0685 6.68305C10.0427 6.27952 11.1147 6.17393 12.149 6.37965C13.1832 6.58538 14.1332 7.09316 14.8788 7.8388C15.6245 8.58444 16.1323 9.53444 16.338 10.5687C16.5437 11.6029 16.4381 12.6749 16.0346 13.6491C15.6311 14.6234 14.9477 15.4561 14.0709 16.0419C13.1941 16.6277 12.1633 16.9404 11.1088 16.9404C9.69479 16.9404 8.33867 16.3787 7.3388 15.3788C6.33893 14.379 5.77721 13.0229 5.77721 11.6088Z" fill="#7A91A9"/>
</svg>
