<svg width="16" height="16" viewBox="0 0 16 16" fill="none" xmlns="http://www.w3.org/2000/svg">
<g id="&#208;&#151;&#208;&#178;&#208;&#181;&#208;&#183;&#208;&#180;&#208;&#176;">
<path id="star-icon" fill-rule="evenodd" clip-rule="evenodd" d="M6.90071 1.71725C7.24729 0.932794 8.31521 0.932792 8.66179 1.71725L10.223 5.25092L13.9245 5.70911C14.7463 5.81082 15.0763 6.87116 14.4688 7.45769L11.7321 10.0998L12.4586 13.9167C12.6198 14.764 11.7559 15.4193 11.0338 14.9973L7.78125 13.0966L4.52869 14.9973C3.80664 15.4193 2.94268 14.764 3.10394 13.9167L3.83038 10.0998L1.09375 7.45769L1.53267 6.96218L1.09375 7.45769C0.486235 6.87116 0.816237 5.81082 1.63795 5.70911L5.33948 5.25092L6.90071 1.71725ZM7.78125 2.94695L6.43775 5.98781C6.2965 6.30752 6.00628 6.52766 5.67138 6.56911L2.48608 6.9634L4.84106 9.23704L4.4289 9.70233L4.84106 9.23704C5.08866 9.47609 5.19951 9.83227 5.13378 10.1776L4.50865 13.4621L7.30761 11.8265C7.60189 11.6545 7.96061 11.6545 8.25489 11.8265L11.0538 13.4621L10.4287 10.1776C10.363 9.83227 10.4738 9.47609 10.7214 9.23704L13.0764 6.9634L9.89112 6.56911C9.55622 6.52766 9.266 6.30752 9.12475 5.98781L9.71178 5.70513L9.12475 5.98781L7.78125 2.94695Z" fill="#0082DE"/>
</g>
</svg>
