<svg width="22" height="21" viewBox="0 0 22 21" fill="none" xmlns="http://www.w3.org/2000/svg">
<path fill-rule="evenodd" clip-rule="evenodd" d="M4.09302 4.27353C4.09302 1.91332 6.08588 0 8.54419 0H16.1163C19.3658 0 22 2.52911 22 5.64892V7.76888C22 9.71787 20.3544 11.2978 18.3244 11.2978C17.8144 11.2978 17.4155 10.9101 17.3911 10.4439C17.3783 10.1978 17.3275 9.62771 17.1337 8.98307C16.9384 8.33359 16.613 7.65902 16.0852 7.15234C14.583 5.71009 12.2905 5.40331 9.84229 5.40331H5.26977C4.61987 5.40331 4.09302 4.89749 4.09302 4.27353ZM5.64968 3.92968H9.84229C12.3164 3.92968 15.1922 4.21091 17.1706 6.11033C17.9475 6.8563 18.3723 7.7893 18.6084 8.57435C18.7411 9.01598 18.819 9.42681 18.8647 9.75817C19.7854 9.52828 20.4651 8.72479 20.4651 7.76888V5.64892C20.4651 3.34297 18.5181 1.47363 16.1163 1.47363H8.54419C7.05482 1.47363 5.82622 2.54555 5.64968 3.92968Z" fill="#0082DE"/>
<path fill-rule="evenodd" clip-rule="evenodd" d="M0 10.6312C0 6.93005 3.12508 3.92968 6.98007 3.92968H11.9502C15.8052 3.92968 18.9302 6.93005 18.9302 10.6312C18.9302 14.3323 15.8052 17.3327 11.9502 17.3327H11.0255L7.58633 20.6346C6.66903 21.5153 5.12638 20.6768 5.44101 19.4685L6.0022 17.3133C2.64341 17.0601 0 14.3631 0 11.0733V10.6312ZM6.98007 5.40331C3.97277 5.40331 1.53488 7.74392 1.53488 10.6312V11.0733C1.53488 13.7164 3.76662 15.8591 6.51961 15.8591C7.25278 15.8591 7.79074 16.5206 7.61292 17.2035L7.15407 18.9656L10.0319 16.2026C10.261 15.9826 10.5718 15.8591 10.8958 15.8591H11.9502C14.9575 15.8591 17.3953 13.5185 17.3953 10.6312C17.3953 7.74391 14.9575 5.40331 11.9502 5.40331H6.98007Z" fill="#0082DE"/>
</svg>
