<svg width="32" height="33" viewBox="0 0 32 33" fill="none" xmlns="http://www.w3.org/2000/svg">
<g clip-path="url(#clip0_13476_56455)">
<path d="M16.0067 32.5133C24.8469 32.5133 32.0133 25.3469 32.0133 16.5067C32.0133 7.66643 24.8469 0.5 16.0067 0.5C7.16643 0.5 0 7.66643 0 16.5067C0 25.3469 7.16643 32.5133 16.0067 32.5133Z" fill="url(#paint0_linear_13476_56455)"/>
<path fill-rule="evenodd" clip-rule="evenodd" d="M7.23693 16.3338C11.9017 14.308 15.007 12.9619 16.5664 12.3088C21.0045 10.4562 21.9375 10.1364 22.5372 10.123C22.6705 10.123 22.9637 10.1497 23.1636 10.3096C23.3236 10.4429 23.3635 10.6162 23.3902 10.7495C23.4169 10.8827 23.4435 11.1626 23.4169 11.3759C23.177 13.9081 22.1374 20.0522 21.6043 22.8777C21.3777 24.0772 20.9379 24.4771 20.5114 24.517C19.5785 24.597 18.8721 23.904 17.9791 23.3175C16.5664 22.3979 15.78 21.8248 14.4073 20.9185C12.8213 19.879 13.8475 19.3059 14.7538 18.3729C14.9937 18.133 19.0853 14.4013 19.1653 14.0681C19.1786 14.0281 19.1786 13.8682 19.0853 13.7882C18.992 13.7082 18.8588 13.7349 18.7521 13.7615C18.6055 13.7882 16.3665 15.2809 12.0083 18.2263C11.3685 18.6662 10.7954 18.8794 10.2757 18.8661C9.70257 18.8527 8.60969 18.5462 7.78337 18.2796C6.78379 17.9598 5.98412 17.7865 6.05076 17.2268C6.09074 16.9335 6.49057 16.6403 7.23693 16.3338Z" fill="white"/>
</g>
<defs>
<linearGradient id="paint0_linear_13476_56455" x1="15.9933" y1="0.5" x2="15.9933" y2="32.2601" gradientUnits="userSpaceOnUse">
<stop stop-color="#2AABEE"/>
<stop offset="1" stop-color="#229ED9"/>
</linearGradient>
<clipPath id="clip0_13476_56455">
<rect width="32" height="32" fill="white" transform="translate(0 0.5)"/>
</clipPath>
</defs>
</svg>
