<svg width="306" height="255" viewBox="0 0 306 255" fill="none" xmlns="http://www.w3.org/2000/svg">
<g clip-path="url(#clip0_4036_35475)">
<path d="M153 243C216.789 243 268.5 191.289 268.5 127.5C268.5 63.7111 216.789 12 153 12C89.2111 12 37.5 63.7111 37.5 127.5C37.5 191.289 89.2111 243 153 243Z" fill="url(#paint0_linear_4036_35475)"/>
<path d="M238.927 241.266C238.925 241.266 238.923 241.267 238.923 241.269C238.755 242.226 237.86 243 236.912 243H71.0806C70.1388 243 69.2348 242.224 69.0691 241.266L55.0414 159.404C54.8153 158.08 55.5386 157 56.6536 157H251.346C252.461 157 253.185 158.08 252.959 159.404L238.932 241.262C238.931 241.264 238.929 241.266 238.927 241.266Z" fill="white"/>
<path d="M77.324 194.993L66 191.392C70.6858 176.187 68.7039 153.333 68.6892 153.1L80.5068 152C80.6026 153.033 82.7318 177.468 77.3313 195L77.324 194.993Z" fill="url(#paint1_linear_4036_35475)"/>
<path d="M93.1343 214.993L81 213.618C82.5471 200.191 82.5926 191.329 82.714 165.03C82.7367 161.094 82.7519 156.776 82.7822 152L95 152.068C94.9697 156.844 94.9545 161.154 94.9317 165.09C94.8028 191.885 94.7649 200.912 93.1343 215V214.993Z" fill="url(#paint2_linear_4036_35475)"/>
<path d="M97.4168 225C93.6905 206.924 95.3662 154.234 95.4324 152L107.265 152.408C107.251 152.943 105.568 205.844 109 222.487L97.4168 225Z" fill="url(#paint3_linear_4036_35475)"/>
<path d="M120.343 210L108.023 208.96C109.405 193.156 108.023 152.821 108 152.415L120.358 152C120.42 153.688 121.786 193.473 120.335 210H120.343Z" fill="url(#paint4_linear_4036_35475)"/>
<path d="M125.059 223.992C119.895 204.926 121.107 154.149 121.161 152L133.516 152.302C133.501 152.814 132.281 203.478 137 220.871L125.052 224L125.059 223.992Z" fill="url(#paint5_linear_4036_35475)"/>
<path d="M136.62 215C134.144 198.138 135.231 153.877 135.277 152L147.774 152.292C147.766 152.74 146.671 197.435 149 213.31L136.62 214.993V215Z" fill="url(#paint6_linear_4036_35475)"/>
<path d="M156.593 224L145 220.836C148.504 207.718 148.154 166.956 147.721 152.362L159.725 152C159.792 154.215 161.275 206.475 156.593 224Z" fill="url(#paint7_linear_4036_35475)"/>
<path d="M161.75 217C158.763 198.806 160.488 153.908 160.565 152L172.961 152.466C172.945 152.924 171.205 198.063 174 215.084L161.75 217Z" fill="url(#paint8_linear_4036_35475)"/>
<path d="M186 152H174V204H186V152Z" fill="url(#paint9_linear_4036_35475)"/>
<path d="M196.425 218L185 215.153C188.677 199.248 186.729 153.007 186.715 152.545L198.454 152C198.541 153.968 200.496 200.429 196.433 218H196.425Z" fill="url(#paint10_linear_4036_35475)"/>
<path d="M206.962 227C198.478 209.946 200.037 157.885 200.243 152L212.55 152.426C212.023 167.549 211.977 209.451 218 221.564L206.962 226.992V227Z" fill="url(#paint11_linear_4036_35475)"/>
<path d="M217.71 215C214.047 197.117 214 153.835 214 152H226.531C226.531 152.44 226.57 195.939 230 212.681L217.702 215H217.71Z" fill="url(#paint12_linear_4036_35475)"/>
<path d="M231.115 197C227.046 182.782 227 153.252 227 152H239.345C239.345 152.292 239.391 181.126 243 193.747L231.115 197Z" fill="url(#paint13_linear_4036_35475)"/>
<g filter="url(#filter0_d_4036_35475)">
<path d="M237.298 67H70.7019C69.2151 67 68 68.1996 68 69.6675V86H240V69.6675C240 68.1996 238.785 67 237.298 67Z" fill="#0082DE"/>
</g>
<path d="M134.325 80.8244C132.838 80.8244 131.177 79.6969 130.634 78.3213L128.332 72.5031C127.789 71.1275 126.128 70 124.642 70H82.1585C80.6717 70 79.0113 71.1275 78.4679 72.5031L76.166 78.3213C75.6226 79.6969 73.9623 80.8244 72.4755 80.8244H70.7019C69.2151 80.8244 68 82.0346 68 83.5155V159.309C68 160.79 69.2151 162 70.7019 162H237.298C238.785 162 240 160.79 240 159.309V83.5155C240 82.0346 238.785 80.8244 237.298 80.8244H134.325Z" fill="url(#paint14_linear_4036_35475)"/>
<path d="M123.114 73.1141C122.962 73.2738 122.962 73.5247 123.114 73.6768L124.437 75L123.114 76.3232C122.962 76.4829 122.962 76.7338 123.114 76.8859C123.274 77.038 123.525 77.038 123.677 76.8859L125 75.5627L126.323 76.8859C126.483 77.038 126.734 77.038 126.886 76.8859C127.038 76.7262 127.038 76.4753 126.886 76.3232L125.563 75L126.886 73.6768C127.038 73.5171 127.038 73.2662 126.886 73.1141C126.726 72.962 126.475 72.962 126.323 73.1141L125 74.4373L123.677 73.1141C123.517 72.962 123.266 72.962 123.114 73.1141Z" fill="#263043"/>
<path d="M232.677 76.8859C232.525 77.038 232.274 77.038 232.114 76.8859C231.962 76.7338 231.962 76.4829 232.114 76.3232L235.323 73.1141C235.475 72.962 235.726 72.962 235.886 73.1141C236.038 73.2662 236.038 73.5171 235.886 73.6768L232.677 76.8859Z" fill="white"/>
<path d="M232.114 73.6768C231.962 73.5247 231.962 73.2738 232.114 73.1141C232.266 72.962 232.517 72.962 232.676 73.1141L235.883 76.3232C236.043 76.4753 236.035 76.7262 235.883 76.8859C235.731 77.038 235.48 77.038 235.321 76.8859L232.114 73.6768Z" fill="white"/>
<path d="M84.9173 88H223.083C223.586 88 224 88.4141 224 88.9185V98.0815C224 98.5859 223.586 99 223.083 99H84.9173C84.4135 99 84 98.5859 84 98.0815V88.9185C84 88.4141 84.4135 88 84.9173 88Z" fill="#F3FAFF"/>
<path d="M228 73H225V76H228V73Z" stroke="white" stroke-width="0.922581" stroke-linecap="round" stroke-linejoin="round"/>
<path d="M221 76H218" stroke="white" stroke-width="0.922581" stroke-linecap="round" stroke-linejoin="round"/>
<path d="M123.598 112.485C122.801 111.687 122.801 110.396 123.598 109.598C124.396 108.801 125.687 108.801 126.485 109.598L137.402 120.507C138.199 121.305 138.199 122.596 137.402 123.402C136.604 124.199 135.312 124.199 134.515 123.402L123.606 112.493L123.598 112.485Z" fill="#666666"/>
<path d="M137.402 112.485C138.199 111.687 138.199 110.396 137.402 109.598C136.596 108.801 135.312 108.801 134.507 109.598L123.596 120.507C122.798 121.305 122.805 122.596 123.596 123.402C124.393 124.199 125.685 124.199 126.483 123.402L137.402 112.493V112.485Z" fill="#666666"/>
<path d="M170.598 112.485C169.801 111.687 169.801 110.396 170.598 109.598C171.404 108.801 172.688 108.801 173.493 109.598L184.404 120.507C185.202 121.305 185.195 122.596 184.404 123.402C183.607 124.199 182.315 124.199 181.517 123.402L170.598 112.493V112.485Z" fill="#666666"/>
<path d="M184.402 112.485C185.199 111.687 185.199 110.396 184.402 109.598C183.604 108.801 182.313 108.801 181.515 109.598L170.598 120.507C169.801 121.305 169.801 122.596 170.598 123.402C171.396 124.199 172.687 124.199 173.485 123.402L184.394 112.493L184.402 112.485Z" fill="#666666"/>
<path d="M162.905 133.993C164.065 133.993 165 133.102 165 131.996C165 130.891 164.065 130 162.913 130H147.095C145.935 130 145 130.898 145 132.004C145 133.102 145.935 133.993 147.095 134H162.913L162.905 133.993Z" fill="#666666"/>
<path d="M237 90.9966C237 91.2718 236.738 91.5 236.405 91.5H229.595C229.27 91.5 229 91.2785 229 90.9966C229 90.7215 229.262 90.5 229.595 90.5H236.405C236.73 90.5 237 90.7215 237 90.9966Z" fill="#263043"/>
<path d="M237 93.5C237 93.7733 236.738 94 236.405 94H229.595C229.27 94 229 93.78 229 93.5C229 93.2267 229.262 93 229.595 93H236.405C236.73 93 237 93.22 237 93.5Z" fill="#263043"/>
<path d="M236.405 96.5C236.738 96.5 237 96.2718 237 95.9966C237 95.7215 236.73 95.5 236.405 95.5H229.595C229.262 95.5 229 95.7215 229 95.9966C229 96.2785 229.27 96.5 229.595 96.5H236.405Z" fill="#263043"/>
<path d="M81.8509 92.6383C81.6657 92.4723 81.3802 92.4802 81.2181 92.67L80.786 93.1522C80.6162 91.1126 78.9417 89.5 76.9046 89.5C74.7517 89.5 73 91.2945 73 93.5C73 95.7055 74.7517 97.5 76.9046 97.5C77.1515 97.5 77.3521 97.2945 77.3521 97.0415C77.3521 96.7885 77.1515 96.583 76.9046 96.583C75.2455 96.583 73.9028 95.1996 73.9028 93.5079C73.9028 91.8162 75.2532 90.4328 76.9046 90.4328C78.4556 90.4328 79.7288 91.6502 79.8755 93.2075L79.4047 92.7727C79.2195 92.5988 78.934 92.6146 78.772 92.8043C78.6022 92.9941 78.6177 93.2787 78.8029 93.4526L80.0838 94.6462C80.1687 94.7253 80.2767 94.7648 80.3847 94.7648C80.3847 94.7648 80.4002 94.7648 80.4079 94.7648C80.5236 94.7648 80.6394 94.7016 80.7166 94.6146L81.8818 93.3024C82.0515 93.1126 82.0361 92.8202 81.8509 92.6541V92.6383Z" fill="#263043"/>
<g style="mix-blend-mode:multiply">
<path d="M251.354 157H56.6536C55.5386 157 54.8153 158.077 55.0414 159.396L57.5502 174H250.45L252.959 159.396C253.185 158.077 252.461 157 251.346 157H251.354Z" fill="#263043" fill-opacity="0.3"/>
</g>
<g filter="url(#filter1_b_4036_35475)">
<path d="M238.927 241.266C238.925 241.266 238.923 241.267 238.923 241.269C238.755 242.226 237.86 243 236.912 243H71.0806C70.1388 243 69.2348 242.224 69.0691 241.266L55.0414 159.404C54.8153 158.08 55.5386 157 56.6536 157H251.346C252.461 157 253.185 158.08 252.959 159.404L238.932 241.262C238.931 241.264 238.929 241.266 238.927 241.266Z" fill="url(#paint15_linear_4036_35475)"/>
</g>
<g opacity="0.4">
<path d="M238.927 241.266C238.925 241.266 238.923 241.267 238.923 241.269C238.755 242.226 237.86 243 236.912 243H71.0806C70.1388 243 69.2348 242.224 69.0691 241.266L55.0414 159.404C54.8153 158.08 55.5386 157 56.6536 157H251.346C252.461 157 253.185 158.08 252.959 159.404L238.932 241.262C238.931 241.264 238.929 241.266 238.927 241.266Z" fill="url(#paint16_linear_4036_35475)"/>
<path d="M250.987 159.067L236.988 240.762C236.975 240.813 236.963 240.865 236.954 240.917C236.953 240.919 236.952 240.922 236.949 240.926C236.94 240.941 236.925 240.961 236.904 240.978C236.893 240.989 236.882 240.996 236.875 241H71.1212C71.113 240.995 71.1016 240.988 71.0887 240.977C71.0667 240.958 71.051 240.938 71.0422 240.923C71.0403 240.92 71.039 240.917 71.0382 240.915L57.0128 159.067C57.0128 159.067 57.0128 159.067 57.0127 159.067C57.0087 159.043 57.0057 159.02 57.0037 159H250.996C250.994 159.021 250.991 159.043 250.987 159.067ZM236.961 240.919L236.96 240.924L236.96 240.926C236.96 240.924 236.961 240.921 236.961 240.919Z" stroke="url(#paint17_linear_4036_35475)" stroke-opacity="0.5" stroke-width="4"/>
</g>
<g filter="url(#filter2_d_4036_35475)">
<path d="M254.976 141H54.0239C52.9062 141 52 141.906 52 143.024V163.976C52 165.094 52.9062 166 54.0239 166H254.976C256.094 166 257 165.094 257 163.976V143.024C257 141.906 256.094 141 254.976 141Z" fill="#7FFF5D"/>
<path d="M254.976 138.694H54.0239C51.6327 138.694 49.6935 140.632 49.6935 143.024V163.976C49.6935 166.368 51.6328 168.306 54.0239 168.306H254.976C257.367 168.306 259.306 166.368 259.306 163.976V143.024C259.306 140.632 257.367 138.694 254.976 138.694Z" stroke="url(#paint18_linear_4036_35475)" stroke-width="4.6129"/>
</g>
<path d="M60 161.293C60 162.238 59.3304 163 58.5 163C57.6696 163 57 162.238 57 161.293V144.707C57 143.762 57.6696 143 58.5 143C59.3304 143 60 143.762 60 144.707V161.293Z" fill="#6BEB49"/>
<path d="M71 161.293C71 162.238 70.3304 163 69.5 163C68.6696 163 68 162.238 68 161.293V144.707C68 143.762 68.6696 143 69.5 143C70.3304 143 71 143.762 71 144.707V161.293Z" fill="#6BEB49"/>
<path d="M83 161.293C83 162.238 82.3304 163 81.5 163C80.6696 163 80 162.238 80 161.293V144.707C80 143.762 80.6696 143 81.5 143C82.3304 143 83 143.762 83 144.707V161.293Z" fill="#6BEB49"/>
<path d="M94 161.293C94 162.238 93.3304 163 92.5 163C91.6696 163 91 162.238 91 161.293V144.707C91 143.762 91.6696 143 92.5 143C93.3304 143 94 143.762 94 144.707V161.293Z" fill="#6BEB49"/>
<path d="M106 161.293C106 162.238 105.33 163 104.5 163C103.67 163 103 162.238 103 161.293V144.707C103 143.762 103.67 143 104.5 143C105.33 143 106 143.762 106 144.707V161.293Z" fill="#6BEB49"/>
<path d="M116 161.293C116 162.238 115.33 163 114.5 163C113.67 163 113 162.238 113 161.293V144.707C113 143.762 113.67 143 114.5 143C115.33 143 116 143.762 116 144.707V161.293Z" fill="#6BEB49"/>
<path d="M127 161.293C127 162.238 126.33 163 125.5 163C124.67 163 124 162.238 124 161.293V144.707C124 143.762 124.67 143 125.5 143C126.33 143 127 143.762 127 144.707V161.293Z" fill="#6BEB49"/>
<path d="M138 161.293C138 162.238 137.33 163 136.5 163C135.67 163 135 162.238 135 161.293V144.707C135 143.762 135.67 143 136.5 143C137.33 143 138 143.762 138 144.707V161.293Z" fill="#6BEB49"/>
<path d="M150 161.293C150 162.238 149.33 163 148.5 163C147.67 163 147 162.238 147 161.293V144.707C147 143.762 147.67 143 148.5 143C149.33 143 150 143.762 150 144.707V161.293Z" fill="#6BEB49"/>
<path d="M161 161.293C161 162.238 160.33 163 159.5 163C158.67 163 158 162.238 158 161.293V144.707C158 143.762 158.67 143 159.5 143C160.33 143 161 143.762 161 144.707V161.293Z" fill="#6BEB49"/>
<path d="M173 161.293C173 162.238 172.33 163 171.5 163C170.67 163 170 162.238 170 161.293V144.707C170 143.762 170.67 143 171.5 143C172.33 143 173 143.762 173 144.707V161.293Z" fill="#6BEB49"/>
<path d="M184 161.293C184 162.238 183.33 163 182.5 163C181.67 163 181 162.238 181 161.293V144.707C181 143.762 181.67 143 182.5 143C183.33 143 184 143.762 184 144.707V161.293Z" fill="#6BEB49"/>
<path d="M195 161.293C195 162.238 194.33 163 193.5 163C192.67 163 192 162.238 192 161.293V144.707C192 143.762 192.67 143 193.5 143C194.33 143 195 143.762 195 144.707V161.293Z" fill="#6BEB49"/>
<path d="M206 161.293C206 162.238 205.33 163 204.5 163C203.67 163 203 162.238 203 161.293V144.707C203 143.762 203.67 143 204.5 143C205.33 143 206 143.762 206 144.707V161.293Z" fill="#6BEB49"/>
<path d="M218 161.293C218 162.238 217.33 163 216.5 163C215.67 163 215 162.238 215 161.293V144.707C215 143.762 215.67 143 216.5 143C217.33 143 218 143.762 218 144.707V161.293Z" fill="#6BEB49"/>
<path d="M229 161.293C229 162.238 228.33 163 227.5 163C226.67 163 226 162.238 226 161.293V144.707C226 143.762 226.67 143 227.5 143C228.33 143 229 143.762 229 144.707V161.293Z" fill="#6BEB49"/>
<path d="M240 161.293C240 162.238 239.33 163 238.5 163C237.67 163 237 162.238 237 161.293V144.707C237 143.762 237.67 143 238.5 143C239.33 143 240 143.762 240 144.707V161.293Z" fill="#6BEB49"/>
<path d="M252 161.293C252 162.238 251.33 163 250.5 163C249.67 163 249 162.238 249 161.293V144.707C249 143.762 249.67 143 250.5 143C251.33 143 252 143.762 252 144.707V161.293Z" fill="#6BEB49"/>
</g>
<defs>
<filter id="filter0_d_4036_35475" x="12.6452" y="11.6452" width="282.71" height="129.71" filterUnits="userSpaceOnUse" color-interpolation-filters="sRGB">
<feFlood flood-opacity="0" result="BackgroundImageFix"/>
<feColorMatrix in="SourceAlpha" type="matrix" values="0 0 0 0 0 0 0 0 0 0 0 0 0 0 0 0 0 0 127 0" result="hardAlpha"/>
<feOffset/>
<feGaussianBlur stdDeviation="27.6774"/>
<feComposite in2="hardAlpha" operator="out"/>
<feColorMatrix type="matrix" values="0 0 0 0 0 0 0 0 0 0.313726 0 0 0 0 0.67451 0 0 0 0.1 0"/>
<feBlend mode="normal" in2="BackgroundImageFix" result="effect1_dropShadow_4036_35475"/>
<feBlend mode="normal" in="SourceGraphic" in2="effect1_dropShadow_4036_35475" result="shape"/>
</filter>
<filter id="filter1_b_4036_35475" x="54" y="156" width="200" height="88" filterUnits="userSpaceOnUse" color-interpolation-filters="sRGB">
<feFlood flood-opacity="0" result="BackgroundImageFix"/>
<feGaussianBlur in="BackgroundImageFix" stdDeviation="0.5"/>
<feComposite in2="SourceAlpha" operator="in" result="effect1_backgroundBlur_4036_35475"/>
<feBlend mode="normal" in="SourceGraphic" in2="effect1_backgroundBlur_4036_35475" result="shape"/>
</filter>
<filter id="filter2_d_4036_35475" x="-7.96812" y="81.0319" width="324.936" height="144.936" filterUnits="userSpaceOnUse" color-interpolation-filters="sRGB">
<feFlood flood-opacity="0" result="BackgroundImageFix"/>
<feColorMatrix in="SourceAlpha" type="matrix" values="0 0 0 0 0 0 0 0 0 0 0 0 0 0 0 0 0 0 127 0" result="hardAlpha"/>
<feOffset/>
<feGaussianBlur stdDeviation="27.6774"/>
<feComposite in2="hardAlpha" operator="out"/>
<feColorMatrix type="matrix" values="0 0 0 0 0 0 0 0 0 0.313726 0 0 0 0 0.67451 0 0 0 0.1 0"/>
<feBlend mode="normal" in2="BackgroundImageFix" result="effect1_dropShadow_4036_35475"/>
<feBlend mode="normal" in="SourceGraphic" in2="effect1_dropShadow_4036_35475" result="shape"/>
</filter>
<linearGradient id="paint0_linear_4036_35475" x1="153" y1="12" x2="153" y2="243" gradientUnits="userSpaceOnUse">
<stop stop-color="#E3ECFA"/>
<stop offset="1" stop-color="#DAE7FF"/>
</linearGradient>
<linearGradient id="paint1_linear_4036_35475" x1="73.5002" y1="224.009" x2="73.5002" y2="168.05" gradientUnits="userSpaceOnUse">
<stop stop-color="white"/>
<stop offset="1" stop-color="#0082DE" stop-opacity="0.4"/>
</linearGradient>
<linearGradient id="paint2_linear_4036_35475" x1="87.9924" y1="223.711" x2="87.9924" y2="167.583" gradientUnits="userSpaceOnUse">
<stop stop-color="white"/>
<stop offset="1" stop-color="#0082DE" stop-opacity="0.4"/>
</linearGradient>
<linearGradient id="paint3_linear_4036_35475" x1="101.996" y1="224.253" x2="101.996" y2="167.835" gradientUnits="userSpaceOnUse">
<stop stop-color="white"/>
<stop offset="1" stop-color="#0082DE" stop-opacity="0.4"/>
</linearGradient>
<linearGradient id="paint4_linear_4036_35475" x1="114.501" y1="224.146" x2="114.501" y2="167.819" gradientUnits="userSpaceOnUse">
<stop stop-color="white"/>
<stop offset="1" stop-color="#0082DE" stop-opacity="0.4"/>
</linearGradient>
<linearGradient id="paint5_linear_4036_35475" x1="129.004" y1="224.113" x2="129.004" y2="167.765" gradientUnits="userSpaceOnUse">
<stop stop-color="white"/>
<stop offset="1" stop-color="#0082DE" stop-opacity="0.4"/>
</linearGradient>
<linearGradient id="paint6_linear_4036_35475" x1="141.999" y1="223.532" x2="141.999" y2="167.636" gradientUnits="userSpaceOnUse">
<stop stop-color="white"/>
<stop offset="1" stop-color="#0082DE" stop-opacity="0.4"/>
</linearGradient>
<linearGradient id="paint7_linear_4036_35475" x1="152.5" y1="224.098" x2="152.5" y2="167.785" gradientUnits="userSpaceOnUse">
<stop stop-color="white"/>
<stop offset="1" stop-color="#0082DE" stop-opacity="0.4"/>
</linearGradient>
<linearGradient id="paint8_linear_4036_35475" x1="166.994" y1="223.941" x2="166.994" y2="167.79" gradientUnits="userSpaceOnUse">
<stop stop-color="white"/>
<stop offset="1" stop-color="#0082DE" stop-opacity="0.4"/>
</linearGradient>
<linearGradient id="paint9_linear_4036_35475" x1="179.996" y1="224.184" x2="179.996" y2="167.662" gradientUnits="userSpaceOnUse">
<stop stop-color="white"/>
<stop offset="1" stop-color="#0082DE" stop-opacity="0.4"/>
</linearGradient>
<linearGradient id="paint10_linear_4036_35475" x1="191.989" y1="224.541" x2="191.989" y2="167.951" gradientUnits="userSpaceOnUse">
<stop stop-color="white"/>
<stop offset="1" stop-color="#0082DE" stop-opacity="0.4"/>
</linearGradient>
<linearGradient id="paint11_linear_4036_35475" x1="209.003" y1="224.795" x2="209.003" y2="167.967" gradientUnits="userSpaceOnUse">
<stop stop-color="white"/>
<stop offset="1" stop-color="#0082DE" stop-opacity="0.4"/>
</linearGradient>
<linearGradient id="paint12_linear_4036_35475" x1="222.004" y1="223.181" x2="222.004" y2="167.444" gradientUnits="userSpaceOnUse">
<stop stop-color="white"/>
<stop offset="1" stop-color="#0082DE" stop-opacity="0.4"/>
</linearGradient>
<linearGradient id="paint13_linear_4036_35475" x1="235" y1="223.547" x2="235" y2="167.522" gradientUnits="userSpaceOnUse">
<stop stop-color="white"/>
<stop offset="1" stop-color="#0082DE" stop-opacity="0.4"/>
</linearGradient>
<linearGradient id="paint14_linear_4036_35475" x1="153.992" y1="144.726" x2="153.992" y2="160.301" gradientUnits="userSpaceOnUse">
<stop stop-color="white"/>
<stop offset="1" stop-color="#0082DE"/>
</linearGradient>
<linearGradient id="paint15_linear_4036_35475" x1="154" y1="157" x2="154" y2="243" gradientUnits="userSpaceOnUse">
<stop stop-color="white" stop-opacity="0.1"/>
<stop offset="1" stop-color="white" stop-opacity="0.2"/>
</linearGradient>
<linearGradient id="paint16_linear_4036_35475" x1="154" y1="157" x2="154" y2="243" gradientUnits="userSpaceOnUse">
<stop stop-color="#A7D0ED"/>
<stop offset="1" stop-color="white"/>
</linearGradient>
<linearGradient id="paint17_linear_4036_35475" x1="46.5" y1="157" x2="340" y2="266" gradientUnits="userSpaceOnUse">
<stop stop-color="#6DBAF3"/>
<stop offset="1" stop-color="white"/>
</linearGradient>
<linearGradient id="paint18_linear_4036_35475" x1="97.5989" y1="144.18" x2="143.607" y2="231.731" gradientUnits="userSpaceOnUse">
<stop stop-color="#6BEB49"/>
<stop offset="1" stop-color="#93FF71"/>
</linearGradient>
<clipPath id="clip0_4036_35475">
<rect width="306" height="255" fill="white"/>
</clipPath>
</defs>
</svg>
