<svg width="24" height="24" viewBox="0 0 24 24" fill="none" xmlns="http://www.w3.org/2000/svg">
<g id="&#208;&#154;&#208;&#190;&#209;&#136;&#208;&#181;&#208;&#187;&#209;&#145;&#208;&#186;">
<g id="wallet-icon">
<path d="M20.1053 7.80444V5.77778C20.1053 4.8 19.3 4 18.3158 4H5.78947C4.79632 4 4 4.8 4 5.77778V18.2222C4 19.2 4.79632 20 5.78947 20H18.3158C19.3 20 20.1053 19.2 20.1053 18.2222V16.1956C20.6332 15.8844 21 15.3244 21 14.6667V9.33333C21 8.67556 20.6332 8.11556 20.1053 7.80444ZM19.2105 9.33333V14.6667H12.9474V9.33333H19.2105ZM5.78947 18.2222V5.77778H18.3158V7.55556H12.9474C11.9632 7.55556 11.1579 8.35556 11.1579 9.33333V14.6667C11.1579 15.6444 11.9632 16.4444 12.9474 16.4444H18.3158V18.2222H5.78947Z" fill="rgba(122, 145, 169, 1)"/>
<path d="M15.6316 13.3333C16.3728 13.3333 16.9737 12.7364 16.9737 12C16.9737 11.2636 16.3728 10.6667 15.6316 10.6667C14.8904 10.6667 14.2895 11.2636 14.2895 12C14.2895 12.7364 14.8904 13.3333 15.6316 13.3333Z" fill="rgba(122, 145, 169, 1)"/>
</g>
</g>
</svg>
