<svg width="48" height="48" viewBox="0 0 48 48" fill="none" xmlns="http://www.w3.org/2000/svg">
<path fill-rule="evenodd" clip-rule="evenodd" d="M24.7998 7.30078C15.1348 7.30078 7.2998 15.1358 7.2998 24.8008C7.2998 34.4658 15.1348 42.3008 24.7998 42.3008C34.4648 42.3008 42.2998 34.4658 42.2998 24.8008C42.2998 15.1358 34.4648 7.30078 24.7998 7.30078ZM4.7998 24.8008C4.7998 13.7551 13.7541 4.80078 24.7998 4.80078C35.8455 4.80078 44.7998 13.7551 44.7998 24.8008C44.7998 35.8465 35.8455 44.8008 24.7998 44.8008C13.7541 44.8008 4.7998 35.8465 4.7998 24.8008Z" fill="#EB4D3D"/>
<path fill-rule="evenodd" clip-rule="evenodd" d="M23.446 31.9882C23.446 31.2978 24.0057 30.7382 24.696 30.7382H24.9044C25.5947 30.7382 26.1544 31.2978 26.1544 31.9882V32.1965C26.1544 32.8869 25.5947 33.4465 24.9044 33.4465H24.696C24.0057 33.4465 23.446 32.8869 23.446 32.1965V31.9882Z" fill="#EB4D3D"/>
<path fill-rule="evenodd" clip-rule="evenodd" d="M24.7998 16.1548C25.4902 16.1548 26.0498 16.7145 26.0498 17.4048V25.7382C26.0498 26.4285 25.4902 26.9882 24.7998 26.9882C24.1094 26.9882 23.5498 26.4285 23.5498 25.7382V17.4048C23.5498 16.7145 24.1094 16.1548 24.7998 16.1548Z" fill="#EB4D3D"/>
</svg>
