<svg width="24" height="24" viewBox="0 0 24 24" fill="none" xmlns="http://www.w3.org/2000/svg">
<path d="M12.0016 1.99896C17.5253 1.99896 22.0031 6.47681 22.0031 12.0005C22.0031 17.5242 17.5253 22.0021 12.0016 22.0021C6.47785 22.0021 2 17.5242 2 12.0005C2 6.47681 6.47785 1.99896 12.0016 1.99896ZM12.0016 3.49896C7.30627 3.49896 3.5 7.30524 3.5 12.0005C3.5 16.6958 7.30627 20.5021 12.0016 20.5021C16.6968 20.5021 20.5031 16.6958 20.5031 12.0005C20.5031 7.30524 16.6968 3.49896 12.0016 3.49896ZM11.9979 10.4995C12.3776 10.4993 12.6916 10.7812 12.7415 11.1473L12.7484 11.2491L12.752 16.7506C12.7523 17.1649 12.4167 17.5009 12.0025 17.5011C11.6228 17.5014 11.3088 17.2194 11.2589 16.8534L11.252 16.7516L11.2484 11.25C11.2481 10.8358 11.5837 10.4998 11.9979 10.4995ZM12.002 7.00178C12.5535 7.00178 13.0007 7.4489 13.0007 8.00044C13.0007 8.55199 12.5535 8.99911 12.002 8.99911C11.4505 8.99911 11.0033 8.55199 11.0033 8.00044C11.0033 7.4489 11.4505 7.00178 12.002 7.00178Z" fill="#666666"/>
</svg>
