<svg width="28" height="28" viewBox="0 0 28 28" fill="none" xmlns="http://www.w3.org/2000/svg">
<path d="M5.24935 12.8334C5.24935 7.35659 9.68919 2.91675 15.166 2.91675C20.6428 2.91675 25.0827 7.35659 25.0827 12.8334C25.0827 18.3102 20.6428 22.7501 15.166 22.7501C15.0443 22.7501 14.9231 22.7479 14.8024 22.7435C14.6081 23.3467 14.3404 23.9169 14.0098 24.4435C14.3901 24.4809 14.7758 24.5001 15.166 24.5001C21.6093 24.5001 26.8327 19.2767 26.8327 12.8334C26.8327 6.39009 21.6093 1.16675 15.166 1.16675C8.72269 1.16675 3.49935 6.39009 3.49935 12.8334C3.49935 13.2236 3.5185 13.6093 3.55592 13.9897C4.08257 13.659 4.65274 13.3913 5.25589 13.1971C5.25154 13.0764 5.24935 12.9552 5.24935 12.8334ZM15.158 6.58974C15.1001 6.1628 14.7338 5.83342 14.291 5.83342C13.808 5.83342 13.416 6.22542 13.416 6.70842V13.7084L13.424 13.8271C13.482 14.254 13.8483 14.5834 14.291 14.5834H18.9577L19.0764 14.5754C19.5033 14.5175 19.8327 14.1512 19.8327 13.7084C19.8327 13.2254 19.4407 12.8334 18.9577 12.8334H15.166V6.70842L15.158 6.58974ZM13.9993 20.4167C13.9993 23.9606 11.1265 26.8334 7.58268 26.8334C4.03886 26.8334 1.16602 23.9606 1.16602 20.4167C1.16602 16.8729 4.03886 14.0001 7.58268 14.0001C11.1265 14.0001 13.9993 16.8729 13.9993 20.4167ZM7.58268 19.5918L5.66183 17.6709C5.43402 17.4431 5.06468 17.4431 4.83687 17.6709C4.60906 17.8987 4.60906 18.2681 4.83687 18.4959L6.75772 20.4167L4.83687 22.3376C4.60907 22.5654 4.60907 22.9348 4.83687 23.1626C5.06468 23.3904 5.43402 23.3904 5.66183 23.1626L7.58268 21.2417L9.50354 23.1626C9.73134 23.3904 10.1007 23.3904 10.3285 23.1626C10.5563 22.9348 10.5563 22.5654 10.3285 22.3376L8.40764 20.4167L10.3285 18.4959C10.5563 18.2681 10.5563 17.8987 10.3285 17.6709C10.1007 17.4431 9.73134 17.4431 9.50354 17.6709L7.58268 19.5918Z" fill="#EB4D3D"/>
</svg>
