<svg width="28" height="28" viewBox="0 0 28 28" fill="none" xmlns="http://www.w3.org/2000/svg">
<path d="M22.45 23.5995C22.45 24.0965 22.047 24.4995 21.55 24.4995H13.8457C13.4964 25.0525 13.0768 25.5567 12.5995 25.9995H21.55C22.876 25.9995 23.95 24.9255 23.95 23.5995V11.3945C23.95 10.7575 23.697 10.1475 23.247 9.69751L16.253 2.70351C16.201 2.65148 16.1432 2.60741 16.0858 2.56357C16.0671 2.54928 16.0484 2.53502 16.03 2.52051C15.734 2.28751 15.394 2.12051 15.026 2.04651C14.872 2.01551 14.715 1.99951 14.555 1.99951H6.4C5.075 1.99951 4 3.07451 4 4.40051V13.865C4.47237 13.6153 4.97463 13.4146 5.5 13.2696V4.40051C5.5 3.90351 5.904 3.49951 6.4 3.49951H13.95V9.99951C13.95 11.1045 14.846 11.9995 15.95 11.9995L22.45 11.9985V23.5995ZM15.45 4.02251L21.928 10.4985L15.95 10.4995C15.77 10.4995 15.651 10.4085 15.596 10.3535C15.542 10.2985 15.45 10.1795 15.45 9.99951V4.02251ZM14 20.4999C14 24.0898 11.0899 26.9999 7.5 26.9999C3.91015 26.9999 1 24.0898 1 20.4999C1 16.9101 3.91015 13.9999 7.5 13.9999C11.0899 13.9999 14 16.9101 14 20.4999ZM8 16.4999C8 16.2238 7.77614 15.9999 7.5 15.9999C7.22386 15.9999 7 16.2238 7 16.4999V19.9999H3.5C3.22386 19.9999 3 20.2238 3 20.4999C3 20.7761 3.22386 20.9999 3.5 20.9999H7L7 24.4999C7 24.7761 7.22386 24.9999 7.5 24.9999C7.77614 24.9999 8 24.7761 8 24.4999V20.9999H11.5C11.7761 20.9999 12 20.7761 12 20.4999C12 20.2238 11.7761 19.9999 11.5 19.9999H8V16.4999Z" fill="#1735F5"/>
</svg>
