<svg width="28" height="28" viewBox="0 0 28 28" fill="none" xmlns="http://www.w3.org/2000/svg">
<path d="M21.5827 23.3333C21.5827 23.6541 21.3214 23.9166 20.9993 23.9166H14.3118C13.9767 24.5594 13.5522 25.1483 13.0548 25.6666H20.9993C22.2873 25.6666 23.3327 24.6213 23.3327 23.3333V11.4659C23.3327 10.8476 23.0865 10.2538 22.649 9.81625L15.8485 3.01692C15.8311 2.99947 15.8113 2.98435 15.7917 2.96931C15.7772 2.95821 15.7627 2.94715 15.7493 2.93525C15.6665 2.86059 15.5849 2.78709 15.4938 2.72525C15.4644 2.70535 15.4321 2.68964 15.4 2.674C15.3812 2.66489 15.3626 2.6558 15.3445 2.64592C15.325 2.63494 15.3056 2.62371 15.2862 2.61247C15.223 2.57588 15.1594 2.53914 15.0925 2.51059C14.8627 2.41492 14.6153 2.36709 14.3645 2.34959C14.3415 2.34812 14.3187 2.34501 14.2959 2.3419C14.2643 2.33758 14.2325 2.33325 14.2 2.33325H6.99935C5.71135 2.33325 4.66602 3.37859 4.66602 4.66659V13.4144C5.21922 13.1837 5.8056 13.0167 6.41602 12.9224V4.66659C6.41602 4.34575 6.67735 4.08325 6.99935 4.08325H13.9993V9.33325C13.9993 10.6213 15.0447 11.6666 16.3327 11.6666H21.5827V23.3333ZM15.7493 5.39109L20.2737 9.91659H16.3327C16.0107 9.91659 15.7493 9.65409 15.7493 9.33325V5.39109Z" fill="#71D472"/>
<path d="M13.9993 20.4166C13.9993 23.9604 11.1265 26.8333 7.58268 26.8333C4.03886 26.8333 1.16602 23.9604 1.16602 20.4166C1.16602 16.8728 4.03886 13.9999 7.58268 13.9999C11.1265 13.9999 13.9993 16.8728 13.9993 20.4166ZM11.4952 17.6708C11.2674 17.443 10.898 17.443 10.6702 17.6708L6.41602 21.925L4.49516 20.0041C4.26736 19.7763 3.89801 19.7763 3.6702 20.0041C3.4424 20.2319 3.4424 20.6013 3.6702 20.8291L6.00354 23.1624C6.23134 23.3902 6.60069 23.3902 6.8285 23.1624L11.4952 18.4957C11.723 18.2679 11.723 17.8986 11.4952 17.6708Z" fill="#71D472"/>
</svg>
