<svg width="20" height="20" viewBox="0 0 20 20" fill="none" xmlns="http://www.w3.org/2000/svg">
<g clip-path="url(#clip0_2002_4379)">
<path d="M10 0C7.34844 0 4.80312 1.05422 2.92969 2.92891C1.05432 4.80434 0.000519484 7.34778 0 10C0 12.6511 1.05469 15.1964 2.92969 17.0711C4.80312 18.9458 7.34844 20 10 20C12.6516 20 15.1969 18.9458 17.0703 17.0711C18.9453 15.1964 20 12.6511 20 10C20 7.34891 18.9453 4.80359 17.0703 2.92891C15.1969 1.05422 12.6516 0 10 0Z" fill="#1735F5"/>
<path d="M4.52572 9.89429C7.44135 8.62429 9.3851 7.78694 10.357 7.38241C13.1351 6.22726 13.7117 6.02663 14.0882 6.01983C14.171 6.01851 14.3554 6.03898 14.4757 6.13624C14.5757 6.21827 14.6038 6.32921 14.6179 6.4071C14.6304 6.48491 14.6476 6.66226 14.6335 6.80069C14.4835 8.38194 13.832 12.2191 13.5007 13.9902C13.3617 14.7396 13.0851 14.9908 12.8179 15.0154C12.2367 15.0688 11.796 14.6316 11.2335 14.263C10.3538 13.686 9.85697 13.3269 9.00229 12.764C8.01478 12.1134 8.65541 11.7557 9.21791 11.1713C9.36479 11.0184 11.9242 8.69101 11.9726 8.47991C11.9788 8.45351 11.9851 8.35507 11.9257 8.30319C11.8679 8.25116 11.782 8.26898 11.7195 8.28304C11.6304 8.30304 10.2257 9.23241 7.50072 11.071C7.10228 11.3451 6.74135 11.4787 6.41635 11.4716C6.0601 11.464 5.3726 11.2698 4.86166 11.1038C4.23666 10.9002 3.73822 10.7926 3.78197 10.4468C3.80385 10.2668 4.05229 10.0826 4.52572 9.89429Z" fill="white"/>
</g>
<defs>
<clipPath id="clip0_2002_4379">
<rect width="20" height="20" fill="white"/>
</clipPath>
</defs>
</svg>
