<svg width="20" height="20" viewBox="0 0 20 20" fill="none" xmlns="http://www.w3.org/2000/svg">
<path d="M13.0016 18.4C13.3329 18.4 13.6016 18.1313 13.6016 17.8C13.6016 17.4686 13.3329 17.2 13.0016 17.2H5.20156C3.87608 17.2 2.80156 16.1255 2.80156 14.8V5.19998C2.80156 3.87449 3.87608 2.79998 5.20156 2.79998H13.0016C13.3329 2.79998 13.6016 2.53135 13.6016 2.19998C13.6016 1.8686 13.3329 1.59998 13.0016 1.59998H5.20156C3.21334 1.59998 1.60156 3.21175 1.60156 5.19998V14.8C1.60156 16.7882 3.21334 18.4 5.20156 18.4H13.0016ZM14.3773 5.37571C14.6116 5.1414 14.9915 5.1414 15.2258 5.37571L19.4258 9.57571C19.6601 9.81003 19.6601 10.1899 19.4258 10.4242L15.2258 14.6242C14.9915 14.8586 14.6116 14.8586 14.3773 14.6242C14.143 14.3899 14.143 14.01 14.3773 13.7757L17.553 10.6H7.00156C6.67019 10.6 6.40156 10.3313 6.40156 9.99998C6.40156 9.6686 6.67019 9.39998 7.00156 9.39998H17.553L14.3773 6.22424C14.143 5.98992 14.143 5.61003 14.3773 5.37571Z" fill="#EB4D3D"/>
</svg>
