<svg width="144" height="48" viewBox="0 0 144 48" fill="none" xmlns="http://www.w3.org/2000/svg">
<mask id="mask0_230_1930" style="mask-type:luminance" maskUnits="userSpaceOnUse" x="0" y="0" width="120" height="48">
<path d="M120 0H0V48H120V0Z" fill="white"/>
</mask>
<g mask="url(#mask0_230_1930)">
<path d="M113.754 14.0001C114.996 14.0001 116.003 15.007 116.003 16.249V16.8244C116.003 17.7187 115.683 18.5835 115.102 19.2629C113.532 21.0964 111.145 22.0013 108 22.0013C104.854 22.0013 102.468 21.0961 100.902 19.2619C100.322 18.583 100.003 17.7195 100.003 16.8267V16.249C100.003 15.007 101.01 14.0001 102.252 14.0001H113.754ZM113.754 15.5001H102.252C101.839 15.5001 101.503 15.8354 101.503 16.249V16.8267C101.503 17.3624 101.695 17.8804 102.042 18.2878C103.296 19.7555 105.262 20.5013 108 20.5013C110.738 20.5013 112.706 19.7555 113.962 18.2875C114.311 17.8799 114.503 17.361 114.503 16.8244V16.249C114.503 15.8354 114.168 15.5001 113.754 15.5001ZM108 2.00488C110.761 2.00488 113 4.24345 113 7.00488C113 9.7663 110.761 12.0048 108 12.0048C105.238 12.0048 103 9.7663 103 7.00488C103 4.24345 105.238 2.00488 108 2.00488ZM108 3.50488C106.067 3.50488 104.5 5.07188 104.5 7.00488C104.5 8.93788 106.067 10.5048 108 10.5048C109.933 10.5048 111.5 8.93788 111.5 7.00488C111.5 5.07188 109.933 3.50488 108 3.50488Z" fill="#666666"/>
<path d="M113.754 37.9997C114.996 37.9997 116.003 39.0066 116.003 40.2486V41.1671C116.003 41.7404 115.824 42.2995 115.49 42.766C113.944 44.9292 111.42 46.0009 108 46.0009C104.579 46.0009 102.056 44.9287 100.514 42.7644C100.182 42.2985 100.003 41.7407 100.003 41.1686V40.2486C100.003 39.0066 101.01 37.9997 102.252 37.9997H113.754ZM108 26.0044C110.761 26.0044 113 28.243 113 31.0044C113 33.7659 110.761 36.0044 108 36.0044C105.238 36.0044 103 33.7659 103 31.0044C103 28.243 105.238 26.0044 108 26.0044Z" fill="#1735F5"/>
<path d="M91.9995 16.2461C91.9995 15.0041 90.9927 13.9972 89.7506 13.9972H78.2489C77.0069 13.9972 76 15.0041 76 16.2461V16.8238C76 17.7165 76.3185 18.58 76.8983 19.2589C78.4646 21.0932 80.8506 21.9984 83.9965 21.9984C87.1418 21.9984 89.529 21.0935 91.0984 19.26C91.6799 18.5806 91.9995 17.7158 91.9995 16.8215V16.2461ZM78.2489 15.4972H89.7506C90.1642 15.4972 90.4995 15.8325 90.4995 16.2461V16.8215C90.4995 17.3581 90.3078 17.877 89.9588 18.2846C88.7024 19.7525 86.7348 20.4984 83.9965 20.4984C81.2582 20.4984 79.2923 19.7526 78.039 18.2849C77.6911 17.8775 77.5 17.3594 77.5 16.8238V16.2461C77.5 15.8325 77.8353 15.4972 78.2489 15.4972ZM88.9965 7.00195C88.9965 4.24053 86.7579 2.00195 83.9965 2.00195C82.346 2.00195 80.8822 2.80167 79.9717 4.03475C79.9009 4.01263 79.8256 4.0007 79.7476 4.0007H77.2498C76.8355 4.0007 76.4998 4.33649 76.4998 4.7507V10.2494C76.4998 11.7682 77.731 12.9995 79.2498 12.9994H79.4998V12.9951C79.5032 12.9951 79.5066 12.9952 79.5101 12.9952C80.061 12.9952 80.5076 12.5486 80.5076 11.9977C80.5076 11.4467 80.061 11.0001 79.5101 11.0001C79.1907 11.0001 78.9064 11.1502 78.7238 11.3837C78.2962 11.1851 77.9998 10.7519 77.9998 10.2494V9.99902H78.7476C79.1282 9.99902 79.4805 9.87747 79.7677 9.67107C80.6537 11.0718 82.2165 12.0019 83.9965 12.0019C86.7579 12.0019 88.9965 9.76337 88.9965 7.00195ZM78.9976 6.89599C78.9968 6.93122 78.9965 6.96654 78.9965 7.00195C78.9965 7.03735 78.9968 7.07267 78.9976 7.10791V8.24902C78.9976 8.38709 78.8856 8.49902 78.7476 8.49902H77.9998V5.5007H78.9976V6.89599ZM80.4976 7.09058V6.91332C80.5446 5.02128 82.0931 3.50195 83.9965 3.50195C85.9295 3.50195 87.4965 5.06895 87.4965 7.00195C87.4965 8.93495 85.9295 10.5019 83.9965 10.5019C82.0931 10.5019 80.5446 8.98262 80.4976 7.09058Z" fill="#666666"/>
<path d="M91.9995 40.2457C91.9995 39.0037 90.9927 37.9968 89.7506 37.9968H78.2489C77.0069 37.9968 76 39.0037 76 40.2457V41.1657C76 41.7377 76.1784 42.2956 76.5104 42.7615C78.0525 44.9258 80.5755 45.998 83.9965 45.998C87.4167 45.998 89.941 44.9263 91.4869 42.763C91.8203 42.2965 91.9995 41.7375 91.9995 41.1641V40.2457ZM88.9965 31.0015C88.9965 28.2401 86.7579 26.0015 83.9965 26.0015C82.346 26.0015 80.8822 26.8012 79.9717 28.0343C79.9009 28.0122 79.8256 28.0003 79.7476 28.0003H77.2498C76.8355 28.0003 76.4998 28.336 76.4998 28.7503V34.249C76.4998 35.7678 77.731 36.9991 79.2498 36.999H79.4998V36.9947C79.5032 36.9947 79.5066 36.9948 79.51 36.9948C80.0609 36.9948 80.5075 36.5482 80.5075 35.9973C80.5075 35.4463 80.0609 34.9997 79.51 34.9997C79.1906 34.9997 78.9063 35.1498 78.7237 35.3833C78.2962 35.1847 77.9998 34.7515 77.9998 34.249V33.9986H78.7476C79.1282 33.9986 79.4805 33.877 79.7677 33.6706C80.6537 35.0714 82.2165 36.0015 83.9965 36.0015C86.7579 36.0015 88.9965 33.7629 88.9965 31.0015ZM78.9976 30.8956C78.9968 30.9308 78.9965 30.9661 78.9965 31.0015C78.9965 31.0369 78.9968 31.0722 78.9976 31.1075V32.2486C78.9976 32.3867 78.8856 32.4986 78.7476 32.4986H77.9998V29.5003H78.9976V30.8956Z" fill="#1735F5"/>
<path d="M62.3557 2.59534C62.4445 2.48261 62.6098 2.46762 62.7175 2.56254L63.6385 3.37473L60.7383 7H62.6592L64.7648 4.36797L66.417 5.82489C66.5186 5.9145 66.5304 6.06873 66.4435 6.1727L65.7523 7H67.6965C68.1905 6.27893 68.0778 5.28948 67.4091 4.69984L63.7096 1.43749C62.9561 0.77305 61.7991 0.877958 61.1775 1.66709L56.9762 7H58.8858L62.3557 2.59534ZM64.25 14C63.8358 14 63.5 14.3358 63.5 14.75C63.5 15.1642 63.8358 15.5 64.25 15.5H66.25C66.6642 15.5 67 15.1642 67 14.75C67 14.3358 66.6642 14 66.25 14H64.25ZM52.5 7.25C52.5 6.83579 52.8358 6.5 53.25 6.5H56.3784L57.57 5H53.25C52.0074 5 51 6.00736 51 7.25V17.75C51 19.5449 52.4551 21 54.25 21H66.25C68.0449 21 69.5 19.5449 69.5 17.75V11.25C69.5 9.45507 68.0449 8 66.25 8H53.25C52.8358 8 52.5 7.66421 52.5 7.25ZM52.5 17.75V9.37197C52.7346 9.45488 52.987 9.5 53.25 9.5H66.25C67.2165 9.5 68 10.2835 68 11.25V17.75C68 18.7165 67.2165 19.5 66.25 19.5H54.25C53.2835 19.5 52.5 18.7165 52.5 17.75Z" fill="#666666"/>
<path d="M62.3557 26.5953C62.4445 26.4826 62.6098 26.4676 62.7175 26.5625L63.6385 27.3747L60.7383 31H62.6592L64.7648 28.368L66.417 29.8249C66.5186 29.9145 66.5304 30.0687 66.4435 30.1727L65.7523 31H67.6965C68.1905 30.2789 68.0778 29.2895 67.4091 28.6998L63.7096 25.4375C62.9561 24.773 61.7991 24.878 61.1775 25.6671L56.9762 31H58.8858L62.3557 26.5953ZM53.25 30.5C52.8358 30.5 52.5 30.8358 52.5 31.25C52.5 31.6642 52.8358 32 53.25 32H66.25C68.0449 32 69.5 33.4551 69.5 35.25V41.75C69.5 43.5449 68.0449 45 66.25 45H54.25C52.4551 45 51 43.5449 51 41.75V31.25C51 30.0074 52.0074 29 53.25 29H57.57L56.3784 30.5H53.25ZM63.5 38.75C63.5 39.1642 63.8358 39.5 64.25 39.5H66.25C66.6642 39.5 67 39.1642 67 38.75C67 38.3358 66.6642 38 66.25 38H64.25C63.8358 38 63.5 38.3358 63.5 38.75Z" fill="#1735F5"/>
<path d="M10.5495 2.53189C11.3874 1.82531 12.6126 1.82531 13.4505 2.5319L20.2005 8.224C20.7074 8.65152 21 9.2809 21 9.94406V19.2539C21 20.2204 20.2165 21.0039 19.25 21.0039H15.75C14.7835 21.0039 14 20.2204 14 19.2539V14.2468C14 14.1088 13.8881 13.9968 13.75 13.9968H10.25C10.1119 13.9968 9.99999 14.1088 9.99999 14.2468V19.2539C9.99999 20.2204 9.2165 21.0039 8.25 21.0039H4.75C3.7835 21.0039 3 20.2204 3 19.2539V9.94406C3 9.2809 3.29255 8.65152 3.79952 8.224L10.5495 2.53189ZM12.4835 3.6786C12.2042 3.44307 11.7958 3.44307 11.5165 3.6786L4.76651 9.37071C4.59752 9.51321 4.5 9.72301 4.5 9.94406V19.2539C4.5 19.392 4.61193 19.5039 4.75 19.5039H8.25C8.38807 19.5039 8.49999 19.392 8.49999 19.2539V14.2468C8.49999 13.2803 9.2835 12.4968 10.25 12.4968H13.75C14.7165 12.4968 15.5 13.2803 15.5 14.2468V19.2539C15.5 19.392 15.6119 19.5039 15.75 19.5039H19.25C19.3881 19.5039 19.5 19.392 19.5 19.2539V9.94406C19.5 9.72301 19.4025 9.51321 19.2335 9.37071L12.4835 3.6786Z" fill="#666666"/>
<path d="M13.4508 26.5332C12.6128 25.8262 11.3872 25.8262 10.5492 26.5332L3.79916 32.2277C3.29241 32.6552 3 33.2845 3 33.9475V43.2526C3 44.2191 3.7835 45.0026 4.75 45.0026H7.75C8.7165 45.0026 9.5 44.2191 9.5 43.2526V39.25C9.5 38.5707 10.0418 38.018 10.7169 38.0004H13.2831C13.9582 38.018 14.5 38.5707 14.5 39.25V43.2526C14.5 44.2191 15.2835 45.0026 16.25 45.0026H19.25C20.2165 45.0026 21 44.2191 21 43.2526V33.9475C21 33.2845 20.7076 32.6552 20.2008 32.2277L13.4508 26.5332Z" fill="#1735F5"/>
</g>
<path d="M36.5 9.25C36.5 8.83579 36.8358 8.5 37.25 8.5H40.75C41.1642 8.5 41.5 8.83579 41.5 9.25C41.5 9.66421 41.1642 10 40.75 10H37.25C36.8358 10 36.5 9.66421 36.5 9.25ZM37.2501 14C36.8358 14 36.5001 14.3358 36.5001 14.75C36.5001 15.1642 36.8358 15.5 37.2501 15.5H40.7499C41.1642 15.5 41.4999 15.1642 41.4999 14.75C41.4999 14.3358 41.1642 14 40.7499 14H37.2501ZM34.7803 8.78033C35.0732 8.48744 35.0732 8.01256 34.7803 7.71967C34.4874 7.42678 34.0126 7.42678 33.7197 7.71967L32.25 9.18934L31.7803 8.71967C31.4874 8.42678 31.0126 8.42678 30.7197 8.71967C30.4268 9.01256 30.4268 9.48744 30.7197 9.78033L31.7197 10.7803C32.0126 11.0732 32.4874 11.0732 32.7803 10.7803L34.7803 8.78033ZM34.7803 13.2197C35.0732 13.5126 35.0732 13.9874 34.7803 14.2803L32.7803 16.2803C32.4874 16.5732 32.0126 16.5732 31.7197 16.2803L30.7197 15.2803C30.4268 14.9874 30.4268 14.5126 30.7197 14.2197C31.0126 13.9268 31.4874 13.9268 31.7803 14.2197L32.25 14.6893L33.7197 13.2197C34.0126 12.9268 34.4874 12.9268 34.7803 13.2197ZM30.25 3C28.4551 3 27 4.45507 27 6.25V17.75C27 19.5449 28.4551 21 30.25 21H41.75C43.5449 21 45 19.5449 45 17.75V6.25C45 4.45507 43.5449 3 41.75 3H30.25ZM28.5 6.25C28.5 5.2835 29.2835 4.5 30.25 4.5H41.75C42.7165 4.5 43.5 5.2835 43.5 6.25V17.75C43.5 18.7165 42.7165 19.5 41.75 19.5H30.25C29.2835 19.5 28.5 18.7165 28.5 17.75V6.25Z" fill="#666666"/>
<path d="M27 30.25C27 28.4551 28.4551 27 30.25 27H41.75C43.5449 27 45 28.4551 45 30.25V41.75C45 43.5449 43.5449 45 41.75 45H30.25C28.4551 45 27 43.5449 27 41.75V30.25ZM36.5 33.25C36.5 33.6642 36.8358 34 37.25 34H40.75C41.1642 34 41.5 33.6642 41.5 33.25C41.5 32.8358 41.1642 32.5 40.75 32.5H37.25C36.8358 32.5 36.5 32.8358 36.5 33.25ZM37.2501 38C36.8358 38 36.5001 38.3358 36.5001 38.75C36.5001 39.1642 36.8358 39.5 37.2501 39.5H40.7499C41.1642 39.5 41.4999 39.1642 41.4999 38.75C41.4999 38.3358 41.1642 38 40.7499 38H37.2501ZM34.7803 32.7803C35.0732 32.4874 35.0732 32.0126 34.7803 31.7197C34.4874 31.4268 34.0126 31.4268 33.7197 31.7197L32.25 33.1893L31.7803 32.7197C31.4874 32.4268 31.0126 32.4268 30.7197 32.7197C30.4268 33.0126 30.4268 33.4874 30.7197 33.7803L31.7197 34.7803C32.0126 35.0732 32.4874 35.0732 32.7803 34.7803L34.7803 32.7803ZM34.7803 37.2197C34.4874 36.9268 34.0126 36.9268 33.7197 37.2197L32.25 38.6893L31.7803 38.2197C31.4874 37.9268 31.0126 37.9268 30.7197 38.2197C30.4268 38.5126 30.4268 38.9874 30.7197 39.2803L31.7197 40.2803C32.0126 40.5732 32.4874 40.5732 32.7803 40.2803L34.7803 38.2803C35.0732 37.9874 35.0732 37.5126 34.7803 37.2197Z" fill="#1735F5"/>
</svg>
