<svg width="24" height="24" viewBox="0 0 24 24" fill="none" xmlns="http://www.w3.org/2000/svg">
<path d="M21 7.74951H3C2.59 7.74951 2.25 7.40951 2.25 6.99951C2.25 6.58951 2.59 6.24951 3 6.24951H21C21.41 6.24951 21.75 6.58951 21.75 6.99951C21.75 7.40951 21.41 7.74951 21 7.74951Z" fill="#666666"/>
<path d="M21 12.75H3C2.59 12.75 2.25 12.41 2.25 12C2.25 11.59 2.59 11.25 3 11.25H21C21.41 11.25 21.75 11.59 21.75 12C21.75 12.41 21.41 12.75 21 12.75Z" fill="#666666"/>
<path d="M21 17.7505H3C2.59 17.7505 2.25 17.4105 2.25 17.0005C2.25 16.5905 2.59 16.2505 3 16.2505H21C21.41 16.2505 21.75 16.5905 21.75 17.0005C21.75 17.4105 21.41 17.7505 21 17.7505Z" fill="#666666"/>
</svg>
