<svg width="160" height="110" viewBox="0 0 160 110" fill="none" xmlns="http://www.w3.org/2000/svg">
<path d="M24.9316 0.720703H128.301C128.886 0.720708 129.467 0.847616 130 1.09473C130.532 1.34267 131.006 1.70326 131.386 2.15039C131.765 2.59674 132.041 3.12241 132.197 3.68848C132.353 4.25298 132.384 4.84668 132.288 5.42383V5.4248L119.131 85.5996C118.975 86.5523 118.486 87.4168 117.747 88.042C117.008 88.6637 116.071 88.9999 115.104 88.9922L114.803 88.9893L114.797 88.9951H11.7256C11.1374 88.9951 10.5601 88.8674 10.0264 88.6201C9.4928 88.3728 9.02103 88.0136 8.64062 87.5654C8.26066 87.1177 7.98148 86.5908 7.82227 86.0244C7.6644 85.4627 7.63293 84.8701 7.72656 84.2881L20.9473 4.11328L20.9482 4.10938C21.0991 3.16294 21.5827 2.30225 22.3135 1.68066C23.0439 1.05949 23.97 0.720703 24.9316 0.720703Z" fill="#F1F3FF" stroke="#BABABA" stroke-width="1.44168"/>
<path d="M114.637 89.683H10.761C9.49752 89.6769 8.28613 89.1739 7.39369 88.2784C6.50125 87.3829 6.00137 86.1714 6.00137 84.9079V11.6612C5.98604 11.0264 6.0995 10.3946 6.32951 9.80269C6.56259 9.21078 6.90914 8.67101 7.35383 8.21711C7.79852 7.76321 8.326 7.39825 8.91176 7.14983C9.49752 6.90141 10.1262 6.7726 10.761 6.76953H48.5961C49.4732 6.7726 50.335 7.01795 51.0833 7.47798C51.8316 7.93802 52.4388 8.59434 52.8344 9.3764L58.2289 19.9388C58.6245 20.7208 59.2318 21.3802 59.9801 21.8403C60.7284 22.3003 61.5901 22.5456 62.4672 22.5456H114.633C115.894 22.5456 117.105 23.0486 118.001 23.9411C118.893 24.8335 119.393 26.045 119.393 27.3085V84.9048C119.393 86.1684 118.893 87.3798 118.001 88.2753C117.108 89.1709 115.897 89.6769 114.633 89.68L114.637 89.683Z" fill="white" stroke="#BABABA" stroke-width="1.63156" stroke-linecap="round" stroke-linejoin="round"/>
<path d="M98.6467 25.043C92.6449 25.0399 86.7782 26.8156 81.7885 30.1494C76.7988 33.48 72.907 38.2184 70.6069 43.7602C68.3068 49.3021 67.7057 55.4052 68.8742 61.2906C70.0426 67.176 72.9316 72.5829 77.1729 76.8275C81.4143 81.0721 86.8211 83.9641 92.7063 85.1357C98.5915 86.3073 104.691 85.7092 110.236 83.4121C115.781 81.115 120.522 77.2292 123.856 72.2394C127.189 67.2496 128.968 61.3826 128.968 55.3838C128.968 47.3393 125.776 39.6261 120.09 33.937C114.404 28.2479 106.691 25.0491 98.6467 25.046V25.043Z" fill="white" stroke="#BABABA" stroke-width="1.63156" stroke-linecap="round" stroke-linejoin="round"/>
<path d="M120.227 77.3906L128.314 85.478" stroke="#BABABA" stroke-width="1.63156" stroke-linecap="round" stroke-linejoin="round"/>
<path d="M127.399 81.5448L124.888 84.1732C123.762 85.3509 123.805 87.2186 124.98 88.3441L146.778 109.184C147.956 110.309 149.824 110.266 150.949 109.089L153.461 106.46C154.586 105.283 154.544 103.415 153.366 102.289L131.567 81.4498C130.389 80.3242 128.522 80.3672 127.393 81.5448H127.399Z" fill="#D2D2D2"/>
</svg>
