<svg width="24" height="24" viewBox="0 0 24 24" fill="none" xmlns="http://www.w3.org/2000/svg">
<path d="M21 5.25C21 4.45 20.55 3.75 20 3.75H4C3.45 3.75 3 4.45 3 5.25V18.75C3 19.55 3.45 20.25 4 20.25H20C20.55 20.25 21 19.55 21 18.75V5.25ZM19.5 18.75H4.5V5.25H19.5V18.75Z" fill="white" fill-opacity="0.54"/>
<path d="M16.5 9.75H7.5C7.09 9.75 6.75 9.41 6.75 9C6.75 8.59 7.09 8.25 7.5 8.25H16.5C16.91 8.25 17.25 8.59 17.25 9C17.25 9.41 16.91 9.75 16.5 9.75Z" fill="white" fill-opacity="0.54"/>
<path d="M16.5 12.75H7.5C7.09 12.75 6.75 12.41 6.75 12C6.75 11.59 7.09 11.25 7.5 11.25H16.5C16.91 11.25 17.25 11.59 17.25 12C17.25 12.41 16.91 12.75 16.5 12.75Z" fill="white" fill-opacity="0.54"/>
<path d="M16.5 15.75H7.5C7.09 15.75 6.75 15.41 6.75 15C6.75 14.59 7.09 14.25 7.5 14.25H16.5C16.91 14.25 17.25 14.59 17.25 15C17.25 15.41 16.91 15.75 16.5 15.75Z" fill="white" fill-opacity="0.54"/>
</svg>

