<svg width="20" height="20" viewBox="0 0 20 20" fill="none" xmlns="http://www.w3.org/2000/svg">
<path d="M6.98999 2.06589L6.27329 2.28192C4.96977 2.67484 4.01237 3.78801 3.81891 5.13565C3.52193 7.20438 4.18616 9.62242 5.78661 12.3945C7.3837 15.1607 9.1416 16.9433 11.0768 17.7231C12.3464 18.2346 13.7977 17.9592 14.7916 17.018L15.3344 16.5039C16.0618 15.815 16.1673 14.694 15.581 13.8815L14.2244 12.0014C13.8487 11.4807 13.1834 11.2569 12.5694 11.4446L10.5187 12.0716L10.4657 12.082C10.2396 12.115 9.71833 11.6259 9.0682 10.4999C8.38805 9.32181 8.2471 8.63298 8.43487 8.45541L9.47822 7.48248C10.2602 6.75332 10.4912 5.60728 10.0528 4.63213L9.39134 3.16075C8.97945 2.24451 7.95181 1.77597 6.98999 2.06589ZM8.47927 3.57077L9.14072 5.04215C9.40356 5.62682 9.26505 6.31395 8.79623 6.75113L7.75032 7.72645C7.08123 8.35918 7.30285 9.44218 8.20217 10.9999C9.04838 12.4655 9.82037 13.1898 10.6499 13.0642L10.7742 13.0376L12.8618 12.4009C13.0665 12.3383 13.2882 12.413 13.4135 12.5865L14.7701 14.4666C15.0632 14.8729 15.0105 15.4334 14.6468 15.7778L14.104 16.2919C13.3941 16.9642 12.3574 17.1609 11.4506 16.7955C9.7525 16.1113 8.14768 14.484 6.65264 11.8945C5.15454 9.29969 4.54824 7.09254 4.80876 5.27775C4.94695 4.31515 5.6308 3.52003 6.56189 3.23937L7.27859 3.02334C7.7595 2.87838 8.27332 3.11265 8.47927 3.57077Z" fill="#666666"/>
</svg>
