<svg width="40" height="40" viewBox="0 0 40 40" fill="none" xmlns="http://www.w3.org/2000/svg">
<rect width="40" height="40" rx="20" fill="#ECF1FF"/>
<path d="M19.7802 18.2195C19.4872 17.9267 19.0124 17.9268 18.7195 18.2198C18.4267 18.5128 18.4268 18.9876 18.7198 19.2805L19.4395 19.9998L18.7197 20.7197C18.4268 21.0126 18.4268 21.4874 18.7197 21.7803C19.0126 22.0732 19.4874 22.0732 19.7803 21.7803L20.5004 21.0602L21.2198 21.7793C21.5128 22.0721 21.9876 22.072 22.2805 21.779C22.5733 21.4861 22.5732 21.0112 22.2802 20.7184L21.5611 19.9996L22.2803 19.2803C22.5732 18.9874 22.5732 18.5126 22.2803 18.2197C21.9874 17.9268 21.5126 17.9268 21.2197 18.2197L20.5002 18.9392L19.7802 18.2195ZM13.2195 18.2198C13.5124 17.9268 13.9872 17.9267 14.2802 18.2195L15.0002 18.9392L15.7197 18.2197C16.0126 17.9268 16.4874 17.9268 16.7803 18.2197C17.0732 18.5126 17.0732 18.9874 16.7803 19.2803L16.0611 19.9996L16.7802 20.7184C17.0732 21.0112 17.0733 21.4861 16.7805 21.779C16.4876 22.072 16.0128 22.0721 15.7198 21.7793L15.0004 21.0602L14.2803 21.7803C13.9874 22.0732 13.5126 22.0732 13.2197 21.7803C12.9268 21.4874 12.9268 21.0126 13.2197 20.7197L13.9395 19.9998L13.2198 19.2805C12.9268 18.9876 12.9267 18.5128 13.2195 18.2198ZM24.5 21.5C24.0858 21.5 23.75 21.8358 23.75 22.25C23.75 22.6642 24.0858 23 24.5 23H26.25C26.6642 23 27 22.6642 27 22.25C27 21.8358 26.6642 21.5 26.25 21.5H24.5ZM13.2492 13C11.454 13 10 14.4554 10 16.25V23.75C10 25.5449 11.4551 27 13.25 27H26.75C28.5449 27 30 25.5449 30 23.75V16.25C30 14.4554 28.546 13 26.7508 13H13.2492ZM11.5 16.25C11.5 15.2832 12.283 14.5 13.2492 14.5H26.7508C27.717 14.5 28.5 15.2832 28.5 16.25V23.75C28.5 24.7165 27.7165 25.5 26.75 25.5H13.25C12.2835 25.5 11.5 24.7165 11.5 23.75V16.25Z" fill="#1735F5"/>
</svg>
