<svg width="24" height="24" viewBox="0 0 24 24" fill="none" xmlns="http://www.w3.org/2000/svg">
<path d="M17.8681 21.87C17.5581 21.87 17.2481 21.79 16.9681 21.62L12.9581 19.24C12.5381 19.23 12.1181 19.2 11.7181 19.14C11.4481 19.1 11.2181 18.92 11.1181 18.66C11.0181 18.4 11.0681 18.12 11.2481 17.91C11.9081 17.14 12.2481 16.22 12.2481 15.24C12.2481 12.82 10.1181 10.85 7.49812 10.85C6.51812 10.85 5.57812 11.12 4.78812 11.64C4.56812 11.78 4.29812 11.8 4.05812 11.69C3.82812 11.58 3.65813 11.36 3.62813 11.1C3.59813 10.82 3.57812 10.54 3.57812 10.25C3.57812 5.29 7.87813 1.26001 13.1581 1.26001C18.4381 1.26001 22.7381 5.29 22.7381 10.25C22.7381 12.97 21.4781 15.47 19.2581 17.18L19.5981 19.9C19.6781 20.58 19.3781 21.22 18.8081 21.59C18.5281 21.77 18.1981 21.87 17.8681 21.87ZM13.1481 17.73C13.2881 17.72 13.4281 17.76 13.5481 17.84L17.7381 20.33C17.8481 20.4 17.9381 20.37 17.9981 20.33C18.0481 20.3 18.1281 20.22 18.1081 20.08L17.7181 16.92C17.6881 16.64 17.8081 16.37 18.0281 16.21C20.0681 14.78 21.2381 12.6 21.2381 10.23C21.2381 6.09998 17.6181 2.73999 13.1581 2.73999C8.86813 2.73999 5.34812 5.86003 5.08812 9.78003C5.83812 9.49003 6.64813 9.33002 7.48813 9.33002C10.9381 9.33002 13.7381 11.97 13.7381 15.22C13.7481 16.1 13.5381 16.95 13.1481 17.73Z" fill="#8B92A4"/>
<path d="M4.57782 22.7501C4.31782 22.7501 4.06781 22.6801 3.83781 22.5301C3.38781 22.2401 3.14782 21.7401 3.20782 21.2101L3.40782 19.67C2.05782 18.57 1.25781 16.94 1.25781 15.23C1.25781 13.28 2.27782 11.4601 3.98782 10.3701C5.01782 9.70006 6.23781 9.34009 7.50781 9.34009C10.9578 9.34009 13.7578 11.98 13.7578 15.23C13.7578 16.55 13.2778 17.8501 12.3978 18.8801C11.2678 20.2501 9.57782 21.05 7.71782 21.11L5.27782 22.5601C5.05782 22.6901 4.81782 22.7501 4.57782 22.7501ZM7.49782 10.8401C6.51782 10.8401 5.57781 11.1101 4.78781 11.6301C3.50781 12.4501 2.74782 13.79 2.74782 15.23C2.74782 16.62 3.42782 17.8901 4.62782 18.7101C4.85782 18.8701 4.97781 19.14 4.94781 19.42L4.72781 21.1301L7.11781 19.7101C7.23781 19.6401 7.36782 19.6 7.49782 19.6C8.96782 19.6 10.3578 18.9701 11.2378 17.9001C11.8978 17.1201 12.2478 16.2 12.2478 15.22C12.2478 12.81 10.1178 10.8401 7.49782 10.8401Z" fill="#8B92A4"/>
</svg>
