<svg width="13" height="16" viewBox="0 0 13 16" fill="none" xmlns="http://www.w3.org/2000/svg">
<path d="M2 2C2 0.895431 2.89543 0 4 0H7.58579C7.98361 0 8.36514 0.158035 8.64645 0.43934L12.5607 4.35355C12.842 4.63486 13 5.01639 13 5.41421V12C13 13.1046 12.1046 14 11 14H4C2.89543 14 2 13.1046 2 12V2ZM4 1C3.44772 1 3 1.44772 3 2V12C3 12.5523 3.44772 13 4 13H11C11.5523 13 12 12.5523 12 12V6H8.5C7.67157 6 7 5.32843 7 4.5V1H4ZM8 1.20711V4.5C8 4.77614 8.22386 5 8.5 5H11.7929L8 1.20711ZM0 3C0 2.44772 0.447715 2 1 2V12C1 13.6569 2.34315 15 4 15L11 15C11 15.5523 10.5523 16 10 16H3.93939C1.76373 16 0 14.2363 0 12.0606V3Z" fill="#263043"/>
</svg>
