<svg width="40" height="40" viewBox="0 0 40 40" fill="none" xmlns="http://www.w3.org/2000/svg">
<rect width="40" height="40" rx="20" fill="#FFF6F5"/>
<path d="M23.0016 28.4001C23.3329 28.4001 23.6016 28.1315 23.6016 27.8001C23.6016 27.4687 23.3329 27.2001 23.0016 27.2001H15.2016C13.8761 27.2001 12.8016 26.1256 12.8016 24.8001V15.2001C12.8016 13.8746 13.8761 12.8001 15.2016 12.8001H23.0016C23.3329 12.8001 23.6016 12.5315 23.6016 12.2001C23.6016 11.8687 23.3329 11.6001 23.0016 11.6001H15.2016C13.2133 11.6001 11.6016 13.2119 11.6016 15.2001V24.8001C11.6016 26.7883 13.2133 28.4001 15.2016 28.4001H23.0016ZM24.3773 15.3758C24.6116 15.1415 24.9915 15.1415 25.2258 15.3758L29.4258 19.5758C29.6601 19.8101 29.6601 20.19 29.4258 20.4244L25.2258 24.6244C24.9915 24.8587 24.6116 24.8587 24.3773 24.6244C24.143 24.39 24.143 24.0101 24.3773 23.7758L27.553 20.6001H17.0016C16.6702 20.6001 16.4016 20.3315 16.4016 20.0001C16.4016 19.6687 16.6702 19.4001 17.0016 19.4001H27.553L24.3773 16.2244C24.143 15.99 24.143 15.6101 24.3773 15.3758Z" fill="#EB4D3D"/>
</svg>
