<svg width="16" height="16" viewBox="0 0 16 16" fill="none" xmlns="http://www.w3.org/2000/svg">
<path fill-rule="evenodd" clip-rule="evenodd" d="M7.9987 2.66665C5.05318 2.66665 2.66536 5.05446 2.66536 7.99998C2.66536 10.9455 5.05318 13.3333 7.9987 13.3333C10.9442 13.3333 13.332 10.9455 13.332 7.99998C13.332 5.05446 10.9442 2.66665 7.9987 2.66665ZM1.33203 7.99998C1.33203 4.31808 4.3168 1.33331 7.9987 1.33331C11.6806 1.33331 14.6654 4.31808 14.6654 7.99998C14.6654 11.6819 11.6806 14.6666 7.9987 14.6666C4.3168 14.6666 1.33203 11.6819 1.33203 7.99998Z" fill="#71D472"/>
<path fill-rule="evenodd" clip-rule="evenodd" d="M10.4701 6.19524C10.7305 6.45559 10.7305 6.8777 10.4701 7.13805L7.80344 9.80472C7.54309 10.0651 7.12098 10.0651 6.86063 9.80472L5.52729 8.47138C5.26694 8.21103 5.26694 7.78893 5.52729 7.52858C5.78764 7.26823 6.20975 7.26823 6.4701 7.52858L7.33203 8.3905L9.52729 6.19524C9.78764 5.93489 10.2098 5.93489 10.4701 6.19524Z" fill="#71D472"/>
</svg>
