<svg width="16" height="16" viewBox="0 0 16 16" fill="none" xmlns="http://www.w3.org/2000/svg">
<path fill-rule="evenodd" clip-rule="evenodd" d="M7.9987 2.66659C5.05318 2.66659 2.66536 5.0544 2.66536 7.99992C2.66536 10.9454 5.05318 13.3333 7.9987 13.3333C10.9442 13.3333 13.332 10.9454 13.332 7.99992C13.332 5.0544 10.9442 2.66659 7.9987 2.66659ZM1.33203 7.99992C1.33203 4.31802 4.3168 1.33325 7.9987 1.33325C11.6806 1.33325 14.6654 4.31802 14.6654 7.99992C14.6654 11.6818 11.6806 14.6666 7.9987 14.6666C4.3168 14.6666 1.33203 11.6818 1.33203 7.99992Z" fill="#EB4D3D"/>
<path d="M7.05648 8L5.1857 6.13427C5.0652 6.00985 4.99852 5.8432 5.00003 5.67022C5.00153 5.49724 5.0711 5.33177 5.19375 5.20945C5.31641 5.08713 5.48232 5.01774 5.65577 5.01624C5.82922 5.01474 5.99632 5.08123 6.12109 5.20141L7.99187 7.06714L9.86265 5.20141C9.92368 5.1384 9.99667 5.08814 10.0774 5.05356C10.1581 5.01899 10.2449 5.00079 10.3327 5.00002C10.4206 4.99926 10.5077 5.01596 10.589 5.04913C10.6703 5.0823 10.7441 5.13129 10.8062 5.19323C10.8684 5.25518 10.9175 5.32884 10.9507 5.40992C10.984 5.491 11.0007 5.57787 11 5.66547C10.9992 5.75307 10.981 5.83964 10.9463 5.92013C10.9116 6.00062 10.8612 6.07342 10.798 6.13427L8.92726 8L10.798 9.86573C10.8612 9.92659 10.9116 9.99938 10.9463 10.0799C10.981 10.1604 10.9992 10.2469 11 10.3345C11.0007 10.4221 10.984 10.509 10.9507 10.5901C10.9175 10.6712 10.8684 10.7448 10.8062 10.8068C10.7441 10.8687 10.6703 10.9177 10.589 10.9509C10.5077 10.984 10.4206 11.0007 10.3327 11C10.2449 10.9992 10.1581 10.981 10.0774 10.9464C9.99667 10.9119 9.92368 10.8616 9.86265 10.7986L7.99187 8.93286L6.12109 10.7986C5.99632 10.9188 5.82922 10.9853 5.65577 10.9838C5.48232 10.9823 5.31641 10.9129 5.19375 10.7906C5.0711 10.6682 5.00153 10.5028 5.00003 10.3298C4.99852 10.1568 5.0652 9.99015 5.1857 9.86573L7.05648 8Z" fill="#EB4D3D"/>
</svg>
