<svg width="90" height="30" viewBox="0 0 90 30" fill="none" xmlns="http://www.w3.org/2000/svg">
<path d="M54.8867 19.361C54.8867 18.5205 55.1842 17.7964 55.7817 17.1901C56.3779 16.5837 57.1058 16.2812 57.9666 16.2812C58.8273 16.2812 59.5312 16.585 60.1375 17.1901C60.7426 17.7964 61.0464 18.5205 61.0464 19.361C61.0464 20.2016 60.7426 20.9016 60.1375 21.5168C59.5312 22.1333 58.8071 22.4409 57.9666 22.4409C57.126 22.4409 56.4019 22.1333 55.7956 21.5168C55.1893 20.9003 54.8867 20.1826 54.8867 19.361Z" fill="white"/>
<path d="M68.2341 6.8941V10.7069C68.4886 9.74862 68.8253 8.95239 69.2455 8.31567C69.6658 7.6802 70.1152 7.24475 70.595 7.01056C71.0735 6.77638 71.5874 6.63967 72.1355 6.60042C72.6824 6.56118 73.2115 6.65865 73.7191 6.8941V11.2942C72.1545 10.6879 70.8494 10.6246 69.8025 11.1031C68.7557 11.5828 68.2328 12.4373 68.2328 13.6702V22.1477H63.5391V6.8941H68.2328H68.2341Z" fill="white"/>
<path d="M75.332 15.6356V6.89362H80.0258V15.6356C80.0258 16.399 80.2651 17.0104 80.7448 17.4686C81.2233 17.9281 81.8639 18.1585 82.6664 18.1585C83.469 18.1585 84.0601 17.9294 84.5589 17.4686C85.0576 17.0091 85.307 16.3977 85.307 15.6356V6.89362H90.0008V15.6356C90.0008 17.6496 89.3109 19.2876 87.9324 20.5497C86.5539 21.8105 84.7981 22.4422 82.6664 22.4422C80.5347 22.4422 78.7308 21.8118 77.3713 20.5497C76.0118 19.2889 75.332 17.6509 75.332 15.6356Z" fill="white"/>
<path d="M20.0564 4.35699C20.0223 4.50889 20.0539 4.67472 20.1425 4.8127L21.3236 6.60136C22.078 7.75456 22.6527 8.24444 24.0958 8.24444C24.4933 8.24444 26.4743 8.13938 26.4743 6.05957V1.93793C26.4743 1.69995 26.2806 1.50627 26.0427 1.50627C25.8047 1.50627 25.611 1.69995 25.611 1.93793V3.82786C25.611 3.94179 25.5186 4.03293 25.406 4.03293C25.2933 4.03293 25.2009 3.94052 25.2009 3.82786V1.14171C25.2009 0.903724 25.0072 0.710047 24.7692 0.710047C24.5312 0.710047 24.3376 0.903724 24.3376 1.14171V3.50886C24.3376 3.62279 24.2452 3.7152 24.1312 3.7152C24.0173 3.7152 23.9261 3.62279 23.9261 3.50886V0.822711C23.9261 0.584729 23.7325 0.391052 23.4945 0.391052C23.2565 0.391052 23.0629 0.584729 23.0629 0.822711V3.50886C23.0629 3.62279 22.9704 3.7152 22.8578 3.7152C22.7451 3.7152 22.6527 3.62279 22.6527 3.50886V1.45944C22.6527 1.22146 22.459 1.02778 22.221 1.02778C21.9831 1.02778 21.7894 1.22146 21.7894 1.45944V5.24436L21.0603 4.24686C20.8818 3.97343 20.5336 3.87976 20.2843 4.0342C20.1703 4.10635 20.0906 4.22154 20.0615 4.35825L20.0564 4.35699Z" fill="white"/>
<path d="M40.0742 11.1486V6.89536H44.768V29.5492H40.0742V17.8957C39.6641 19.2843 38.9982 20.3894 38.0792 21.211C37.1602 22.0325 36.0741 22.4426 34.8234 22.4426C33.0044 22.4426 31.498 21.6844 30.3056 20.1692C29.1119 18.6539 28.5156 16.7716 28.5156 14.5222C28.5156 12.2727 29.1119 10.3917 30.3056 8.87517C31.498 7.35993 33.0044 6.60168 34.8234 6.60168C36.0753 6.60168 37.1602 7.01182 38.0792 7.83336C38.9982 8.65491 39.6628 9.76 40.0742 11.1486ZM36.5829 18.159C37.5994 18.159 38.4362 17.8172 39.0906 17.1324C39.7451 16.4475 40.0729 15.5779 40.0729 14.5222C40.0729 13.4664 39.7451 12.5955 39.0906 11.912C38.4349 11.2271 37.5994 10.8854 36.5829 10.8854C35.7032 10.8854 34.95 11.2322 34.3247 11.9272C33.6981 12.6221 33.3854 13.4867 33.3854 14.5234C33.3854 15.5602 33.6981 16.426 34.3247 17.1197C34.95 17.8147 35.7032 18.1615 36.5829 18.1615V18.159Z" fill="white"/>
<path d="M24.0857 9.5823C23.2313 9.5823 22.4603 9.36584 21.7679 8.94304V15.6356C21.7679 16.399 21.5186 17.0104 21.0198 17.4686C20.5211 17.9281 19.8907 18.1585 19.1274 18.1585C18.3248 18.1585 17.6855 17.9294 17.2058 17.4686C16.726 17.0091 16.4868 16.3977 16.4868 15.6356V6.89362H11.793V15.6356C11.793 17.6496 12.4727 19.2876 13.8323 20.5497C15.1918 21.8105 16.9564 22.4422 19.1274 22.4422C21.2983 22.4422 23.0136 21.8118 24.3933 20.5497C25.7719 19.2889 26.4617 17.6509 26.4617 15.6356V8.9076C25.7541 9.35318 24.9642 9.5823 24.087 9.5823H24.0857Z" fill="white"/>
<path d="M4.69508 6.8941V10.7069C4.94952 9.74862 5.28624 8.95239 5.7065 8.31567C6.12677 7.6802 6.57614 7.24475 7.0559 7.01056C7.53439 6.77638 8.04835 6.63967 8.59647 6.60042C9.14332 6.56118 9.67119 6.65865 10.1801 6.8941V11.2942C8.61546 10.6879 7.31034 10.6246 6.26347 11.1031C5.2166 11.5828 4.69382 12.4373 4.69382 13.6702V22.1477H0V6.8941H4.69382H4.69508Z" fill="white"/>
<path d="M47.2773 2.78742C47.2773 2.02411 47.5508 1.36966 48.0989 0.821541C48.6458 0.27469 49.3015 0 50.0635 0C50.8255 0 51.4813 0.27469 52.0294 0.821541C52.5762 1.36966 52.8509 2.02411 52.8509 2.78742C52.8509 3.55073 52.5775 4.18113 52.0294 4.73811C51.4813 5.29509 50.8268 5.57358 50.0635 5.57358C49.3002 5.57358 48.6458 5.29509 48.0989 4.73811C47.5508 4.18113 47.2773 3.53048 47.2773 2.78742ZM52.4104 22.1475H47.7166V6.89387H52.4104V22.1475Z" fill="white"/>
</svg>
