<svg width="20" height="20" viewBox="0 0 20 20" fill="none" xmlns="http://www.w3.org/2000/svg">
<path d="M7.235 4.076C7.38271 3.98368 7.56781 3.97489 7.72361 4.05279L12.4728 6.42738L16.235 4.076C16.3891 3.97967 16.5834 3.97457 16.7424 4.06268C16.9014 4.15079 17 4.31824 17 4.5V13C17 13.1724 16.9112 13.3326 16.765 13.424L12.765 15.924C12.6173 16.0163 12.4322 16.0251 12.2764 15.9472L7.52721 13.5726L3.765 15.924C3.61087 16.0203 3.41659 16.0254 3.25762 15.9373C3.09864 15.8492 3 15.6818 3 15.5V7C3 6.82761 3.08881 6.66737 3.235 6.576L7.235 4.076ZM8 12.691L12 14.691V7.30902L8 5.30902V12.691ZM7 5.40212L4 7.27712V14.5979L7 12.7229V5.40212ZM13 7.27712V14.5979L16 12.7229V5.40212L13 7.27712Z" fill="#666666"/>
</svg>
