<svg width="16" height="24" viewBox="0 0 16 24" fill="none" xmlns="http://www.w3.org/2000/svg">
<path d="M8.78355 4.22018C8.74765 4.38173 8.78155 4.55824 8.87529 4.70483L10.1308 6.6065C10.9335 7.83307 11.5448 8.35361 13.0795 8.35361C13.5024 8.35361 15.6094 8.24093 15.6094 6.02912V1.64639C15.6094 1.3931 15.404 1.18668 15.1507 1.18668C14.8974 1.18668 14.691 1.3931 14.691 1.64639V3.65576C14.691 3.77643 14.5933 3.87415 14.4726 3.87415C14.3519 3.87415 14.2542 3.77643 14.2542 3.65576V0.798764C14.2542 0.545473 14.0478 0.339051 13.7945 0.339051C13.5412 0.339051 13.3358 0.545473 13.3358 0.798764V3.31671C13.3358 3.43738 13.2371 3.5361 13.1164 3.5361C12.9957 3.5361 12.898 3.43738 12.898 3.31671V0.459713C12.898 0.206422 12.6926 0 12.4393 0C12.186 0 11.9796 0.206422 11.9796 0.459713V3.31671C11.9796 3.43738 11.8819 3.5361 11.7612 3.5361C11.6405 3.5361 11.5428 3.43738 11.5428 3.31671V1.13781C11.5428 0.884524 11.3364 0.678102 11.0831 0.678102C10.8298 0.678102 10.6234 0.884524 10.6234 1.13781V5.16255L9.84859 4.10152C9.65912 3.81033 9.28813 3.71061 9.02287 3.87515C8.90121 3.95193 8.81746 4.07359 8.78555 4.21919L8.78355 4.22018Z" fill="white"/>
<path d="M13.0714 9.77696C12.1629 9.77696 11.3433 9.54661 10.6063 9.09687V16.2139C10.6063 17.0247 10.3411 17.6758 9.81055 18.1635C9.28003 18.6521 8.60989 18.8964 7.79816 18.8964C6.94555 18.8964 6.26448 18.6521 5.75491 18.1635C5.24533 17.6749 4.99103 17.0247 4.99103 16.2139V6.91797H0V16.2139C0 18.3559 0.721978 20.0981 2.16793 21.4393C3.61288 22.7806 5.49062 23.4517 7.79816 23.4517C10.1057 23.4517 11.9316 22.7806 13.3975 21.4393C14.8634 20.0981 15.5963 18.3559 15.5963 16.2139V9.05897C14.8435 9.53365 14.0038 9.77597 13.0704 9.77597L13.0714 9.77696Z" fill="white"/>
</svg>
