<svg width="24" height="24" viewBox="0 0 24 24" fill="none" xmlns="http://www.w3.org/2000/svg">
<path d="M14.0667 17.8239L14.2918 17.8223C15.3086 17.8223 15.8427 18.2428 16.5017 19.239L16.8299 19.7446C17.0857 20.1224 17.2454 20.2807 17.4465 20.3634C17.8071 20.5117 18.1059 20.4388 19.2033 19.9116L19.5394 19.7484C20.2257 19.4123 20.6941 19.2198 21.2233 19.0879C21.5582 19.0043 21.8975 19.2074 21.9812 19.5415C22.0649 19.8756 21.8613 20.2141 21.5265 20.2976C21.1975 20.3796 20.8823 20.4973 20.47 20.6869L19.5045 21.1502C18.198 21.7657 17.7549 21.8389 16.9702 21.5163C16.4493 21.3021 16.1531 20.9923 15.7197 20.3312L15.5575 20.0785C15.0893 19.3426 14.8382 19.1012 14.3908 19.0723L14.2918 19.0692C13.8349 19.0692 13.7445 19.1261 12.0079 20.4118C10.5561 21.4866 9.44886 22 8.04082 22C6.32428 22 4.70684 21.6854 3.19332 21.0565L5.59518 20.5026C6.38175 20.6696 7.19671 20.753 8.04082 20.753C9.11634 20.753 10.0078 20.3397 11.263 19.4105L12.2297 18.6989C13.2891 17.9308 13.5248 17.8356 14.0667 17.8239ZM19.3142 3.04342C20.7088 4.43471 20.7089 6.69041 19.3143 8.08173L18.4513 8.94265C19.4113 10.1077 19.3767 11.3426 18.4842 12.2355L15.9834 14.7303C15.7392 14.9737 15.3435 14.9735 15.0996 14.7299C14.8556 14.4863 14.8558 14.0915 15.1 13.8482L17.5991 11.3551C18.0033 10.9507 18.05 10.4486 17.5658 9.8267L8.73739 18.6337C8.4889 18.8816 8.17558 19.0549 7.83317 19.1337L2.76599 20.3002C2.31596 20.4038 1.91263 20.0015 2.01648 19.5525L3.18584 14.4975C3.26485 14.1559 3.43849 13.8434 3.68695 13.5955L14.2638 3.04349C15.6584 1.6522 17.9195 1.65216 19.3142 3.04342ZM15.1477 3.9252L4.57083 14.4772C4.488 14.5598 4.43013 14.664 4.40379 14.7779L3.45928 18.8609L7.5521 17.9187C7.66624 17.8924 7.77068 17.8346 7.85351 17.752L18.4304 7.20002C19.3369 6.29567 19.3368 4.82949 18.4303 3.92517C17.5238 3.02087 16.0542 3.02089 15.1477 3.9252Z" fill="#666666"/>
</svg>

