<svg width="24" height="24" viewBox="0 0 24 24" fill="none" xmlns="http://www.w3.org/2000/svg">
<path d="M21.75 6.5V17.5C21.75 19.57 20.07 21.25 18 21.25H6C3.93 21.25 2.25 19.57 2.25 17.5V6.5C2.25 4.43 3.93 2.75 6 2.75H18C20.07 2.75 21.75 4.43 21.75 6.5ZM20.25 6.5C20.25 5.26 19.24 4.25 18 4.25H6C4.76 4.25 3.75 5.26 3.75 6.5V17.5C3.75 18.74 4.76 19.75 6 19.75H18C19.24 19.75 20.25 18.74 20.25 17.5V6.5Z" fill="white" fill-opacity="0.54"/>
<path d="M18 10.75H16.5C15.81 10.75 15.25 11.31 15.25 12C15.25 12.69 15.81 13.25 16.5 13.25H18C18.69 13.25 19.25 12.69 19.25 12C19.25 11.31 18.69 10.75 18 10.75Z" fill="white" fill-opacity="0.54"/>
</svg>

