<svg width="16" height="16" viewBox="0 0 16 16" fill="none" xmlns="http://www.w3.org/2000/svg">
<path d="M9.61873 2.21708C10.3825 1.45336 11.6207 1.45336 12.3844 2.21708C13.1481 2.9808 13.1481 4.21904 12.3844 4.98276L11.3672 5.99994L11.4359 6.06858C12.0607 6.69342 12.0607 7.70648 11.4359 8.33132L10.2844 9.48279C10.1282 9.639 9.87493 9.639 9.71872 9.48279C9.56251 9.32658 9.56251 9.07332 9.71872 8.91711L10.8702 7.76564C11.1826 7.45322 11.1826 6.94669 10.8702 6.63427L10.8016 6.56563L5.48441 11.8828C5.43315 11.934 5.36892 11.9704 5.29859 11.988L2.09859 12.788C1.95695 12.8234 1.80728 12.7788 1.70808 12.6717C1.60889 12.5646 1.57593 12.4119 1.6221 12.2734L2.6221 9.27343C2.64173 9.21452 2.67482 9.16099 2.71873 9.11708L9.61873 2.21708ZM11.8187 2.78277C11.3674 2.33146 10.6357 2.33146 10.1844 2.78276L3.35118 9.616L2.61147 11.8351L4.99707 11.2387L11.8187 4.41708C12.27 3.96578 12.27 3.23407 11.8187 2.78277ZM2.57535 13.4934C2.58885 13.5034 2.6025 13.5135 2.61629 13.5235C3.21046 13.9556 4.09134 14.4 5.20156 14.4C5.79595 14.4 6.34042 14.192 6.82449 13.9163C7.30677 13.6417 7.7552 13.2843 8.15379 12.9605L8.24742 12.8843C8.61847 12.5824 8.93646 12.3237 9.22963 12.1509C9.5522 11.9608 9.74495 11.9362 9.87505 11.9795C10.0872 12.0503 10.2084 12.2137 10.4184 12.9148C10.4883 13.1482 10.613 13.4035 10.7954 13.6085C10.9783 13.8139 11.2503 14.0001 11.6015 14.0001C11.9809 14.0001 12.3561 13.8175 12.6459 13.6466C12.8368 13.534 13.0419 13.3929 13.2083 13.2785C13.29 13.2223 13.3625 13.1725 13.4192 13.1357C13.6336 12.9966 13.8143 12.9066 13.9379 12.8524C13.9997 12.8253 14.0472 12.8072 14.0774 12.7964C14.0925 12.791 14.1032 12.7874 14.1093 12.7855L14.1147 12.7837C14.3258 12.7215 14.4471 12.5003 14.3857 12.2887C14.3242 12.0766 14.1016 11.9546 13.8894 12.0161L13.8886 12.0164L13.8864 12.017L13.8807 12.0187L13.8635 12.0241C13.8496 12.0286 13.8309 12.0349 13.8076 12.0433C13.761 12.06 13.6963 12.0849 13.6167 12.1198C13.4575 12.1895 13.2382 12.2996 12.9839 12.4645C12.8902 12.5253 12.8005 12.5873 12.7101 12.6498C12.5621 12.752 12.4121 12.8557 12.2395 12.9575C11.9663 13.1187 11.7511 13.2001 11.6016 13.2001C11.5529 13.2001 11.4817 13.1762 11.393 13.0765C11.3039 12.9764 11.2286 12.8317 11.1847 12.6853C10.9928 12.0445 10.7852 11.4397 10.1281 11.2206C9.65816 11.0639 9.20092 11.2393 8.82348 11.4617C8.4751 11.667 8.10937 11.9649 7.75346 12.2548L7.64932 12.3396C7.24791 12.6657 6.84634 12.9833 6.42862 13.2212C6.01269 13.458 5.60716 13.6 5.20156 13.6C4.60476 13.6 4.08474 13.44 3.65435 13.2237L2.57535 13.4934ZM14.0016 12.4001C13.8902 12.0159 13.8895 12.0161 13.8894 12.0161L14.0016 12.4001Z" fill="#F38816"/>
</svg>
